<svg xmlns="http://www.w3.org/2000/svg" viewBox="0 0 512.009 512.991">
  <defs>
    <style>
      .cls-1, .cls-2 {
        fill: #696;
      }

      .cls-1 {
        stroke: #707070;
        opacity: 0;
      }

      .cls-3 {
        stroke: none;
      }

      .cls-4 {
        fill: none;
      }
    </style>
  </defs>
  <g id="alarm-clock" transform="translate(15700 1112)">
    <g id="Rectangle_20893" data-name="Rectangle 20893" class="cls-1" transform="translate(-15700 -1112)">
      <rect class="cls-3" width="512" height="512"/>
      <rect class="cls-4" x="0.5" y="0.5" width="511" height="511"/>
    </g>
    <g id="alarm-clock-2" data-name="alarm-clock" transform="translate(-15700 -1111.009)">
      <g id="Group_72828" data-name="Group 72828">
        <g id="Group_72827" data-name="Group 72827">
          <path id="Path_77435" data-name="Path 77435" class="cls-2" d="M272.392,249.22l-.009-132.207a16.383,16.383,0,0,0-32.766,0L239.626,256a16.413,16.413,0,0,0,4.8,11.59l85.765,85.765a16.382,16.382,0,1,0,23.163-23.172Z"/>
          <path id="Path_77436" data-name="Path 77436" class="cls-2" d="M512.009,256.009c0-.079-.011-.155-.012-.234C511.87,114.712,397.083.009,256,.009c-141.161,0-256,114.839-256,256S114.839,512,256,512c141.083,0,255.87-114.7,256-255.757C512,256.164,512.009,256.088,512.009,256.009ZM272.383,478.64V453.169a16.383,16.383,0,0,0-32.766,0V478.64C129.556,470.617,41.39,382.44,33.369,272.383H58.84a16.379,16.379,0,1,0,0-32.757H33.368C41.386,129.561,129.553,41.391,239.617,33.369V58.84a16.383,16.383,0,1,0,32.766,0V33.369c110.068,8.022,198.227,96.195,206.249,206.257H453.17a16.378,16.378,0,0,0,0,32.757h25.462C470.615,382.448,382.454,470.619,272.383,478.64Z"/>
        </g>
      </g>
    </g>
  </g>
</svg>
