<svg xmlns="http://www.w3.org/2000/svg" viewBox="0 0 60 60">
  <defs>
    <style>
      .cls-1 {
        fill: #f9c955;
      }

      .cls-2 {
        fill: #538ac5;
      }

      .cls-3 {
        fill: rgba(0,0,0,0.18);
      }

      .cls-4 {
        fill: #324a5e;
      }

      .cls-5 {
        fill: #fff;
      }

      .cls-6 {
        fill: #e6e9ed;
      }
    </style>
  </defs>
  <g id="Group_4111" data-name="Group 4111" transform="translate(-501 -1008)">
    <path id="Path_9383" data-name="Path 9383" class="cls-1" d="M30,0A30,30,0,1,1,0,30,30,30,0,0,1,30,0Z" transform="translate(501 1008)"/>
    <g id="skills_3_" data-name="skills (3)" transform="translate(509.506 1014.001)">
      <path id="Path_46791" data-name="Path 46791" class="cls-2" d="M202.474,429.458l-.22.22v-4.94a.75.75,0,0,0-1.5,0v4.94l-.22-.22a.75.75,0,1,0-1.061,1.06l1.5,1.5a.751.751,0,0,0,1.062,0l1.5-1.5a.75.75,0,1,0-1.061-1.06Zm0,0" transform="translate(-180.126 -384.239)"/>
      <path id="Path_46792" data-name="Path 46792" class="cls-2" d="M202.035.219a.752.752,0,0,0-1.062,0l-1.5,1.5a.75.75,0,1,0,1.061,1.061l.22-.22V7.5a.75.75,0,1,0,1.5,0V2.559l.22.22a.75.75,0,1,0,1.061-1.06Zm0,0" transform="translate(-180.126 0)"/>
      <path id="Path_46793" data-name="Path 46793" class="cls-2" d="M375,339.918l-.549-2.048a.75.75,0,1,0-1.449.389l.08.3-4.278-2.47a.75.75,0,1,0-.75,1.3l4.278,2.47-.3.08a.75.75,0,0,0,.193,1.475.762.762,0,0,0,.195-.026l2.049-.549.006,0a.755.755,0,0,0,.23-.114.6.6,0,0,0,.052-.04.746.746,0,0,0,.169-.194.072.072,0,0,0,0-.012.74.74,0,0,0,.089-.266.8.8,0,0,0-.019-.293Zm0,0" transform="translate(-332.761 -304.49)"/>
      <path id="Path_46794" data-name="Path 46794" class="cls-2" d="M.521,119.632l.548,2.048a.75.75,0,0,0,.724.557.763.763,0,0,0,.195-.026.75.75,0,0,0,.53-.919l-.08-.3,4.278,2.47a.734.734,0,0,0,.374.1.75.75,0,0,0,.376-1.4l-4.277-2.471.3-.079a.75.75,0,0,0-.389-1.449l-2.046.548a.722.722,0,0,0-.44.329c0,.008-.012.013-.018.022s-.007.029-.014.043a.721.721,0,0,0-.079.23s0,0,0,0a.736.736,0,0,0,.019.293Zm0,0" transform="translate(-0.001 -107.064)"/>
      <path id="Path_46795" data-name="Path 46795" class="cls-2" d="M368.418,123.553a.746.746,0,0,0,.374-.1l4.279-2.471-.08.3a.75.75,0,0,0,.53.919.763.763,0,0,0,.195.026.75.75,0,0,0,.724-.557l.549-2.048a.753.753,0,0,0,.018-.295.774.774,0,0,0-.079-.235c-.007-.014-.007-.028-.014-.041s-.011-.011-.016-.017a.755.755,0,0,0-.179-.2.742.742,0,0,0-.263-.13l-2.048-.548a.75.75,0,0,0-.388,1.449l.3.08-4.278,2.47a.75.75,0,0,0,.376,1.4Zm0,0" transform="translate(-332.749 -107.054)"/>
      <path id="Path_46796" data-name="Path 46796" class="cls-2" d="M6.715,336.085l-4.278,2.469.08-.3a.75.75,0,1,0-1.449-.389L.52,339.913a.743.743,0,0,0-.019.294.775.775,0,0,0,.089.266.072.072,0,0,0,0,.012.746.746,0,0,0,.169.194.6.6,0,0,0,.052.04.747.747,0,0,0,.23.114l.006,0,2.049.549a.762.762,0,0,0,.195.026.75.75,0,0,0,.193-1.475l-.3-.08,4.278-2.469a.75.75,0,0,0-.751-1.3Zm0,0" transform="translate(0 -304.486)"/>
      <path id="Path_46797" data-name="Path 46797" class="cls-2" d="M80.263,96.5A16.5,16.5,0,1,1,63.762,80,16.5,16.5,0,0,1,80.263,96.5Zm0,0" transform="translate(-42.383 -72.497)"/>
      <path id="Path_46798" data-name="Path 46798" class="cls-3" d="M208.762,80c-.506,0-1.006.026-1.5.071a16.5,16.5,0,0,1,0,32.858c.494.045.994.071,1.5.071a16.5,16.5,0,1,0,0-33Zm0,0" transform="translate(-187.383 -72.497)"/>
      <path id="Path_46799" data-name="Path 46799" class="cls-4" d="M164.762,150v2.273l-2.25-1.523a9.95,9.95,0,0,1-4.125.75,17.325,17.325,0,0,1-4.875-.75l-2.25,1.523V150a6,6,0,0,1,6-6h4.5v3A3,3,0,0,1,164.762,150Zm0,0" transform="translate(-136.633 -130.497)"/>
      <path id="Path_46800" data-name="Path 46800" class="cls-3" d="M234.262,147v-3h-3v4.5c1.658,0,3,.593,3,2.25v.278a6.085,6.085,0,0,0,.75-.278l2.25,1.523V150A3,3,0,0,0,234.262,147Zm0,0" transform="translate(-209.133 -130.497)"/>
      <path id="Path_46801" data-name="Path 46801" class="cls-5" d="M164.762,217.519v2.227a6.749,6.749,0,0,1-3.75,6.044,6.75,6.75,0,0,1-9.75-6.007v-2.265l2.25-1.523a17.325,17.325,0,0,0,4.875.75,9.95,9.95,0,0,0,4.125-.75Zm0,0" transform="translate(-136.633 -195.747)"/>
      <path id="Path_46802" data-name="Path 46802" class="cls-3" d="M213.262,216a5.941,5.941,0,0,1-.75.278v3.472a6.749,6.749,0,0,1-3.75,6.044,6.665,6.665,0,0,1-1.5.534,6.748,6.748,0,0,0,8.25-6.577V217.52Zm0,0" transform="translate(-187.383 -195.747)"/>
      <path id="Path_46803" data-name="Path 46803" class="cls-6" d="M194.262,321.173a6.691,6.691,0,0,0,3-.7v2.955l-1.5.75-1.5-.75-1.5.75-1.5-.75v-2.955A6.693,6.693,0,0,0,194.262,321.173Zm0,0" transform="translate(-172.883 -290.425)"/>
      <path id="Path_46804" data-name="Path 46804" class="cls-4" d="M137.762,352.738l1.5-.75h2.25a3.747,3.747,0,0,1,3.75,3.75v1.08a16.506,16.506,0,0,1-18,0v-1.08a3.752,3.752,0,0,1,3.75-3.75h2.25l1.5.75,1.5-.75Zm0,0" transform="translate(-114.883 -318.989)"/>
      <path id="Path_46805" data-name="Path 46805" class="cls-3" d="M256.294,351.988h-2.25l-.126.063a3.739,3.739,0,0,1,3.126,3.687v2.62a16.469,16.469,0,0,0,3-1.54v-1.08A3.747,3.747,0,0,0,256.294,351.988Zm0,0" transform="translate(-229.665 -318.989)"/>
    </g>
  </g>
</svg>
