<svg id="group" xmlns="http://www.w3.org/2000/svg" viewBox="0 0 60 60">
  <defs>
    <style>
      .cls-1 {
        fill: #fc8469;
      }

      .cls-2 {
        fill: #ea473b;
      }

      .cls-3 {
        fill: #db302c;
      }

      .cls-4 {
        fill: #fff;
      }
    </style>
  </defs>
  <circle id="Ellipse_221" data-name="Ellipse 221" class="cls-1" cx="30" cy="30" r="30"/>
  <g id="success" transform="translate(-45.075 6)">
    <path id="Path_46816" data-name="Path 46816" class="cls-2" d="M93.11,46.847h0c-9.084-6.984-12.733-23.287-13.774-34.741h5.446a.985.985,0,0,0,.7-1.68L75.342.29a.984.984,0,0,0-1.392,0L63.814,10.426a.985.985,0,0,0,.7,1.68h5.446C68.932,23.37,65.376,39.384,56.58,46.531h0s-1.448,1.461.555,1.461h8.722V48H81.528v-.009H92.6C94.408,47.992,93.11,46.847,93.11,46.847Z" transform="translate(0 -0.001)"/>
    <g id="Group_37806" data-name="Group 37806" transform="translate(56.075)">
      <path id="Path_46817" data-name="Path 46817" class="cls-3" d="M136.525,12.1h2.01a.985.985,0,0,1-.7-1.68L147.666.6c-.316-.316-.528-.6-1.005-.6a.985.985,0,0,0-.7.288L135.829,10.425A.985.985,0,0,0,136.525,12.1Z" transform="translate(-128.09)"/>
      <path id="Path_46818" data-name="Path 46818" class="cls-3" d="M160.42,511.9v.009h2.01V511.9Z" transform="translate(-150.637 -463.91)"/>
      <path id="Path_46819" data-name="Path 46819" class="cls-3" d="M71.766,131.076c.152-1.222-.43-1.96-1.811-1.96-1.023,11.264-4.579,27.278-13.376,34.425h0S55.133,165,57.136,165h2.01c-2,0-.555-1.461-.555-1.461h0C67,156.71,70.549,141.876,71.766,131.076Z" transform="translate(-56.075 -117.011)"/>
    </g>
    <g id="Group_37807" data-name="Group 37807" transform="translate(63.302 17.182)">
      <path id="Path_46820" data-name="Path 46820" class="cls-4" d="M225.749,189.2a3.278,3.278,0,1,1-3.278-3.278A3.278,3.278,0,0,1,225.749,189.2Z" transform="translate(-211.127 -185.67)"/>
      <path id="Path_46821" data-name="Path 46821" class="cls-4" d="M149.248,194.485c6.919-10,6.6-9.389,6.6-9.927a1.267,1.267,0,0,0-1.728-1.195c-.5.193-.145-.17-5.778,7.973a2.736,2.736,0,0,1-2.234,1.05h-3.206a2.736,2.736,0,0,1-2.234-1.05l-5.2-7.514a1.266,1.266,0,1,0-2.083,1.441l6.38,9.221a8.162,8.162,0,0,1,1.068,3.775v14.728a1.105,1.105,0,0,0,1.1,1.105h5.132a1.105,1.105,0,0,0,1.105-1.105V198.26A8.163,8.163,0,0,1,149.248,194.485Z" transform="translate(-133.166 -183.276)"/>
    </g>
    <g id="Group_37808" data-name="Group 37808" transform="translate(63.302 17.184)">
      <path id="Path_46822" data-name="Path 46822" class="cls-4" d="M223.461,186.047a3.279,3.279,0,1,0,0,6.251A3.282,3.282,0,0,1,223.461,186.047Z" transform="translate(-211.128 -185.649)"/>
      <path id="Path_46823" data-name="Path 46823" class="cls-4" d="M142.816,213V198.081a8.162,8.162,0,0,0-1.068-3.775l-6.379-9.221a1.267,1.267,0,0,1-.026-1.4,1.266,1.266,0,0,0-1.954,1.6l6.379,9.221a8.163,8.163,0,0,1,1.068,3.775V213a1.105,1.105,0,0,0,1.1,1.105h1.98A1.105,1.105,0,0,1,142.816,213Z" transform="translate(-133.164 -183.291)"/>
    </g>
    <path id="Path_46824" data-name="Path 46824" class="cls-2" d="M247.89,405.03V394.688a.724.724,0,1,0-1.449,0V405.03Z" transform="translate(-172.519 -357.03)"/>
  </g>
</svg>
