<svg xmlns="http://www.w3.org/2000/svg" viewBox="0 0 60 60">
  <defs>
    <style>
      .cls-1 {
        fill: #caffc9;
      }

      .cls-2 {
        fill: #00cc71;
      }

      .cls-3 {
        fill: #00ab5e;
      }

      .cls-4 {
        fill: #fbe000;
      }

      .cls-5 {
        fill: #fdbf00;
      }
    </style>
  </defs>
  <g id="energy" transform="translate(0 -0.001)">
    <path id="Path_9392" data-name="Path 9392" class="cls-1" d="M25.714,0A25.714,25.714,0,1,1,0,25.714,25.714,25.714,0,0,1,25.714,0Z" transform="translate(4.675 3.897)"/>
    <g id="Group_4112" data-name="Group 4112" transform="translate(7.523 5.178)">
      <path id="Path_9375" data-name="Path 9375" class="cls-2" d="M353.356,49.148l2.989-2.556h-5.628l-7.86-2.417-1.483,1.538,3.362,5.055,1.558,6.891,2.838-2.781c2.547,3.516,5.207,7.5,5.207,14.126a21.013,21.013,0,0,1-5.5,14.186L352.32,89.7A28.054,28.054,0,0,0,361.369,69C361.369,60.829,358.31,54.866,353.356,49.148Z" transform="translate(-308.893 -44.175)"/>
      <path id="Path_9376" data-name="Path 9376" class="cls-2" d="M109.259,368.629l-2.777-2c-5.554,4.886-11.683,8.1-19.8,8.1A28.374,28.374,0,0,1,64.2,363.566l5.379-4.641a21.008,21.008,0,0,0,17.1,8.543h.106c6.609,0,10.242-2.5,13.758-4.781l-3.2-2.145,10.934-4.043Z" transform="translate(-64.2 -319.899)"/>
    </g>
    <path id="Path_9377" data-name="Path 9377" class="cls-3" d="M278.582,368.629l-2.777-2c-5.554,4.886-11.683,8.1-19.8,8.1v-7.254h.106c6.609,0,10.242-2.5,13.758-4.781l-3.2-2.145L277.6,356.5Z" transform="translate(-226 -314.722)"/>
    <path id="Path_9378" data-name="Path 9378" class="cls-4" d="M168.153,106.334V92.4L166.4,95.564,154.5,116.88h10.137V130.7l1.758-3.164,11.894-21.2Z" transform="translate(-136.395 -81.571)"/>
    <path id="Path_9379" data-name="Path 9379" class="cls-3" d="M14.282,115.365l-.663-10.839-2.446,2.491c-2.1-3.517-4.142-6.9-4.142-12.746a21.326,21.326,0,0,1,7.092-15.908L9.83,72.8A28.353,28.353,0,0,0,0,94.272c0,6.9,2.17,11.852,5.728,17.087l-2.541,2.1Z" transform="translate(0 -64.264)"/>
    <path id="Path_9380" data-name="Path 9380" class="cls-2" d="M105.19,7.595l.949,4.184A21,21,0,0,0,92.768,7.1h-.035c-6.152,0-9.644,2.18-13.16,4.289l3.059,2.32L71.1,15.962l.457-11.32,2.637,2.215C79.608,2.6,85.28,0,92.768,0a28.251,28.251,0,0,1,19.348,7.594Z" transform="translate(-62.768)"/>
    <path id="Path_9381" data-name="Path 9381" class="cls-5" d="M267.894,106.334,256,127.533V95.564l1.758-3.164v13.934Z" transform="translate(-226 -81.571)"/>
    <path id="Path_9382" data-name="Path 9382" class="cls-3" d="M269.371,11.778A21,21,0,0,0,256,7.1V0a28.251,28.251,0,0,1,19.348,7.594h-6.926Z" transform="translate(-226)"/>
  </g>
</svg>
