<svg xmlns="http://www.w3.org/2000/svg" viewBox="0 0 512 512">
  <defs>
    <style>
      .cls-1, .cls-2 {
        fill: #696;
      }

      .cls-1 {
        stroke: #707070;
        opacity: 0;
      }

      .cls-3 {
        stroke: none;
      }

      .cls-4 {
        fill: none;
      }
    </style>
  </defs>
  <g id="envelope" transform="translate(15010 993)">
    <g id="Rectangle_20894" data-name="Rectangle 20894" class="cls-1" transform="translate(-15010 -993)">
      <rect class="cls-3" width="512" height="512"/>
      <rect class="cls-4" x="0.5" y="0.5" width="511" height="511"/>
    </g>
    <path id="envelope-2" data-name="envelope" class="cls-2" d="M468.284,85.437H25.806A25.808,25.808,0,0,0,0,111.238v271.6a25.808,25.808,0,0,0,25.8,25.806H468.283a25.808,25.808,0,0,0,25.806-25.8v-271.6a25.807,25.807,0,0,0-25.8-25.806ZM451.363,341.569a16.47,16.47,0,1,1-21.037,25.348L314.179,270.511,257.563,317.5a16.474,16.474,0,0,1-21.037,0l-56.614-46.988-116.148,96.4a16.47,16.47,0,0,1-21.037-25.348l111.4-92.465-111.4-92.465a16.47,16.47,0,1,1,21.037-25.348l183.28,152.128L430.326,131.29a16.47,16.47,0,1,1,21.037,25.348L339.967,249.1Z" transform="translate(-15001 -984.437)"/>
  </g>
</svg>
