<svg xmlns="http://www.w3.org/2000/svg" viewBox="0 0 220 220">
  <defs>
    <style>
      .cls-1, .cls-3 {
        fill: #fff;
      }

      .cls-1 {
        stroke: #707070;
        opacity: 0;
      }

      .cls-2 {
        fill: #666;
      }

      .cls-4 {
        fill: #535454;
      }

      .cls-5 {
        fill: #eaeaea;
      }

      .cls-6 {
        fill: #ef9a9a;
      }

      .cls-7 {
        fill: #fff59d;
      }

      .cls-8 {
        fill: #80cbc4;
      }

      .cls-9 {
        fill: #e0e0e0;
      }

      .cls-10 {
        fill: #f88484;
      }

      .cls-11 {
        fill: #757575;
      }

      .cls-12 {
        fill: #f2df9d;
      }

      .cls-13 {
        fill: #7f8499;
      }

      .cls-14 {
        fill: #82c482;
      }

      .cls-15 {
        fill: #d5dced;
      }

      .cls-16 {
        fill: #464655;
      }

      .cls-17 {
        stroke: none;
      }

      .cls-18 {
        fill: none;
      }
    </style>
  </defs>
  <g id="ico-15" transform="translate(-695 -687)">
    <g id="Rectangle_9197" data-name="Rectangle 9197" class="cls-1" transform="translate(695 687)">
      <rect class="cls-17" width="220" height="220"/>
      <rect class="cls-18" x="0.5" y="0.5" width="219" height="219"/>
    </g>
    <g id="Group_37648" data-name="Group 37648" transform="translate(695 697.001)">
      <path id="Union_77" data-name="Union 77" class="cls-2" d="M-805.208-1720.162H-995.247A13.76,13.76,0,0,1-1009-1733.915v-138.332A13.76,13.76,0,0,1-995.247-1886h192.539A13.75,13.75,0,0,1-789-1872.247v138.332a13.759,13.759,0,0,1-13.753,13.753Z" transform="translate(1009 1886)"/>
      <path id="Path_46643" data-name="Path 46643" class="cls-3" d="M221.414,21.127V144.053c0,4.465-2.947,8.127-6.564,8.127H19.364c-3.617,0-6.564-3.617-6.564-8.127V21.127c0-4.51,2.947-8.127,6.564-8.127H214.85C218.467,13,221.414,16.661,221.414,21.127Z" transform="translate(-7.085 -7.195)"/>
      <path id="Union_78" data-name="Union 78" class="cls-2" d="M-1002.257-1851.082c-2.278-1.3-4.555-2.679-6.743-4.108a24.729,24.729,0,0,1,20.362-11.072V-1886h86.446v19.739a24.785,24.785,0,0,1,13.4,4.151,24.284,24.284,0,0,1,6.564,6.43c-2.411,1.607-4.912,3.171-7.457,4.6Z" transform="translate(1055.438 2051.837)"/>
      <rect id="Rectangle_9192" data-name="Rectangle 9192" class="cls-4" width="86.446" height="9.064" transform="translate(66.799 165.837)"/>
      <path id="Path_46645" data-name="Path 46645" class="cls-5" d="M221.358,21.127v9.645H12.7V21.127c0-4.51,2.947-8.127,6.564-8.127H214.75C218.411,13,221.358,16.661,221.358,21.127Z" transform="translate(-7.029 -7.195)"/>
      <circle id="Ellipse_1515" data-name="Ellipse 1515" class="cls-6" cx="5.135" cy="5.135" r="5.135" transform="translate(11.476 9.556)"/>
      <circle id="Ellipse_1516" data-name="Ellipse 1516" class="cls-7" cx="5.135" cy="5.135" r="5.135" transform="translate(26.211 9.556)"/>
      <circle id="Ellipse_1517" data-name="Ellipse 1517" class="cls-8" cx="5.135" cy="5.135" r="5.135" transform="translate(40.901 9.556)"/>
      <g id="Group_37594" data-name="Group 37594" transform="translate(71.941 112.121)">
        <g id="Group_37593" data-name="Group 37593">
          <path id="Path_46675" data-name="Path 46675" class="cls-3" d="M176.647,251.1a12.854,12.854,0,0,0-12.86,12.815,14.431,14.431,0,0,0,.447,3.974l-1.741-1.027a.911.911,0,0,0-.938,1.563l4.063,2.367h.045a.164.164,0,0,0,.134.045c.045,0,.045.045.089.045h.357a.164.164,0,0,0,.134-.045,487.058,487.058,0,0,0,.179-.089c.045,0,.045-.045.089-.045l.089-.089.089-.089.045-.045v-.045c0-.045.045-.045.045-.089l1.607-4.019a.891.891,0,0,0-1.652-.67l-.848,2.054a14.13,14.13,0,0,1-.491-3.8A11.074,11.074,0,1,1,176.6,274.989a.893.893,0,1,0,0,1.786,12.837,12.837,0,1,0,.045-25.675Z" transform="translate(-161.115 -251.1)"/>
          <path id="Path_46676" data-name="Path 46676" class="cls-3" d="M187.994,274.512a.566.566,0,0,0,.268.045h.045c.089,0,.223-.045.313-.045.045,0,.045-.045.089-.045.089-.045.134-.089.223-.134a.044.044,0,0,0,.045-.045l5.626-5.626a.916.916,0,0,0-1.295-1.295l-5.18,5.18-4.644-1.965a.891.891,0,1,0-.67,1.652l5.18,2.277Z" transform="translate(-172.819 -259.956)"/>
        </g>
      </g>
      <g id="questions" transform="translate(53 1.335)">
        <path id="Path_46739" data-name="Path 46739" class="cls-9" d="M100.931,58.926H2.019A2.019,2.019,0,0,1,0,56.907V32.684a2.019,2.019,0,0,1,2.019-2.019h98.913a2.019,2.019,0,0,1,2.019,2.019V56.907A2.018,2.018,0,0,1,100.931,58.926Z"/>
        <path id="Path_46740" data-name="Path 46740" class="cls-10" d="M24.223,58.926H2.019A2.019,2.019,0,0,1,0,56.907V32.684a2.019,2.019,0,0,1,2.019-2.019h22.2a2.019,2.019,0,0,1,2.019,2.019V56.907A2.019,2.019,0,0,1,24.223,58.926Z"/>
        <path id="Path_46741" data-name="Path 46741" class="cls-11" d="M180.55,70.756H146.234a2.019,2.019,0,0,1,0-4.037H180.55a2.019,2.019,0,0,1,0,4.037Z" transform="translate(-111.917 -27.979)"/>
        <g id="Group_37642" data-name="Group 37642" transform="translate(32.298 46.814)">
          <path id="Path_46742" data-name="Path 46742" class="cls-11" d="M274.722,106.81H236.369a2.019,2.019,0,0,1,0-4.037h38.354a2.019,2.019,0,0,1,0,4.037Z" transform="translate(-214.164 -102.773)"/>
          <path id="Path_46743" data-name="Path 46743" class="cls-11" d="M158.345,106.81H146.234a2.019,2.019,0,0,1,0-4.037h12.112a2.019,2.019,0,0,1,0,4.037Z" transform="translate(-144.215 -102.773)"/>
        </g>
        <g id="Group_37643" data-name="Group 37643" transform="translate(6.056 34.703)">
          <path id="Path_46744" data-name="Path 46744" class="cls-3" d="M34.106,62.823a2.019,2.019,0,0,1,0-4.037,3.028,3.028,0,1,0-3.028-3.028,2.019,2.019,0,0,1-4.037,0,7.065,7.065,0,1,1,7.065,7.065Z" transform="translate(-27.041 -48.693)"/>
          <path id="Path_46745" data-name="Path 46745" class="cls-3" d="M51.646,124.837a2.019,2.019,0,0,1-.02-4.037h.02a2.019,2.019,0,1,1,0,4.037Z" transform="translate(-44.562 -104.651)"/>
        </g>
        <path id="Path_46746" data-name="Path 46746" class="cls-9" d="M100.931,221.168H2.019A2.019,2.019,0,0,1,0,219.149V194.926a2.019,2.019,0,0,1,2.019-2.019h98.913a2.019,2.019,0,0,1,2.019,2.019v24.223A2.018,2.018,0,0,1,100.931,221.168Z" transform="translate(0 -125.907)"/>
        <path id="Path_46747" data-name="Path 46747" class="cls-12" d="M24.223,221.168H2.019A2.019,2.019,0,0,1,0,219.149V194.926a2.019,2.019,0,0,1,2.019-2.019h22.2a2.019,2.019,0,0,1,2.019,2.019v24.223A2.018,2.018,0,0,1,24.223,221.168Z" transform="translate(0 -125.907)"/>
        <path id="Path_46748" data-name="Path 46748" class="cls-11" d="M180.55,233H146.234a2.019,2.019,0,1,1,0-4.037H180.55a2.019,2.019,0,0,1,0,4.037Z" transform="translate(-111.917 -153.886)"/>
        <path id="Path_46749" data-name="Path 46749" class="cls-13" d="M158.345,269.052H146.234a2.019,2.019,0,0,1,0-4.037h12.112a2.019,2.019,0,0,1,0,4.037Z" transform="translate(-111.917 -181.866)"/>
        <g id="Group_37644" data-name="Group 37644" transform="translate(6.056 71.038)">
          <path id="Path_46750" data-name="Path 46750" class="cls-3" d="M34.106,225.064a2.019,2.019,0,0,1,0-4.037A3.028,3.028,0,1,0,31.078,218a2.019,2.019,0,0,1-4.037,0,7.065,7.065,0,1,1,7.065,7.065Z" transform="translate(-27.041 -210.934)"/>
          <path id="Path_46751" data-name="Path 46751" class="cls-3" d="M51.646,287.079a2.019,2.019,0,0,1-.02-4.037h.02a2.019,2.019,0,1,1,0,4.037Z" transform="translate(-44.562 -266.893)"/>
        </g>
        <path id="Path_46752" data-name="Path 46752" class="cls-9" d="M100.931,383.41H2.019A2.019,2.019,0,0,1,0,381.391V357.168a2.019,2.019,0,0,1,2.019-2.019h98.913a2.019,2.019,0,0,1,2.019,2.019v24.223A2.018,2.018,0,0,1,100.931,383.41Z" transform="translate(0 -251.813)"/>
        <path id="Path_46753" data-name="Path 46753" class="cls-14" d="M24.223,383.41H2.019A2.019,2.019,0,0,1,0,381.391V357.168a2.019,2.019,0,0,1,2.019-2.019h22.2a2.019,2.019,0,0,1,2.019,2.019v24.223A2.018,2.018,0,0,1,24.223,383.41Z" transform="translate(0 -251.813)"/>
        <path id="Path_46754" data-name="Path 46754" class="cls-11" d="M180.55,395.24H146.234a2.019,2.019,0,1,1,0-4.037H180.55a2.019,2.019,0,0,1,0,4.037Z" transform="translate(-111.917 -279.793)"/>
        <path id="Path_46755" data-name="Path 46755" class="cls-11" d="M158.345,431.293H146.234a2.019,2.019,0,0,1,0-4.037h12.112a2.019,2.019,0,1,1,0,4.037Z" transform="translate(-111.917 -307.771)"/>
        <g id="Group_37645" data-name="Group 37645" transform="translate(6.056 107.373)">
          <path id="Path_46756" data-name="Path 46756" class="cls-3" d="M34.106,387.306a2.019,2.019,0,1,1,0-4.037,3.028,3.028,0,1,0-3.028-3.028,2.019,2.019,0,0,1-4.037,0,7.065,7.065,0,1,1,7.065,7.065Z" transform="translate(-27.041 -373.176)"/>
          <path id="Path_46757" data-name="Path 46757" class="cls-3" d="M51.646,449.32a2.019,2.019,0,0,1-.02-4.037h.02a2.019,2.019,0,1,1,0,4.037Z" transform="translate(-44.562 -429.134)"/>
        </g>
        <g id="Group_37646" data-name="Group 37646" transform="translate(90.838 85.168)">
          <path id="Path_46758" data-name="Path 46758" class="cls-15" d="M415.7,355.148H405.6v11.975a5.045,5.045,0,0,0,7.812,4.221l.81-.531,3.49,8.425V357.167A2.019,2.019,0,0,0,415.7,355.148Z" transform="translate(-405.604 -336.98)"/>
          <path id="Path_46759" data-name="Path 46759" class="cls-15" d="M414.22,275.507a5.006,5.006,0,0,0-3.561-1.48,5.057,5.057,0,0,0-5.054,5.049v5.045H415.7a2.019,2.019,0,0,0,2.019-2.019V279Z" transform="translate(-405.605 -274.027)"/>
        </g>
        <path id="Path_46760" data-name="Path 46760" class="cls-16" d="M423.631,293.065v25.094a1.009,1.009,0,0,0,1.563.844l4.887-3.2,6.259,15.111A2.019,2.019,0,0,0,438.977,332l3.06-1.268a2.019,2.019,0,0,0,1.093-2.638l-6.259-15.111,5.742-1.162a1.009,1.009,0,0,0,.514-1.7l-17.771-17.771A1.009,1.009,0,0,0,423.631,293.065Z" transform="translate(-328.756 -202.849)"/>
        <g id="Group_37647" data-name="Group 37647" transform="translate(52.484 83.149)">
          <path id="Path_46761" data-name="Path 46761" class="cls-11" d="M270.685,269.052H236.369a2.019,2.019,0,0,1-2.019-2.019h0a2.019,2.019,0,0,1,2.019-2.019h34.317a2.019,2.019,0,0,1,2.019,2.019h0A2.019,2.019,0,0,1,270.685,269.052Z" transform="translate(-234.35 -265.015)"/>
          <path id="Path_46762" data-name="Path 46762" class="cls-11" d="M270.685,431.293H236.369a2.019,2.019,0,0,1-2.019-2.019h0a2.019,2.019,0,0,1,2.019-2.019h34.317a2.019,2.019,0,0,1,2.019,2.019h0A2.018,2.018,0,0,1,270.685,431.293Z" transform="translate(-234.35 -390.921)"/>
        </g>
      </g>
    </g>
  </g>
</svg>
