<svg id="Group_37595" data-name="Group 37595" xmlns="http://www.w3.org/2000/svg" xmlns:xlink="http://www.w3.org/1999/xlink" viewBox="0 0 220 200.755">
  <defs>
    <style>
      .cls-1 {
        fill: #666;
      }

      .cls-2 {
        fill: #5c5e70;
      }

      .cls-3 {
        fill: #fff;
      }

      .cls-4 {
        fill: #535454;
      }

      .cls-5 {
        fill: #eaeaea;
      }

      .cls-6 {
        fill: #ef9a9a;
      }

      .cls-7 {
        fill: #fff59d;
      }

      .cls-8 {
        fill: #80cbc4;
      }

      .cls-9 {
        fill: #d3d3d3;
      }

      .cls-10 {
        fill: #bdbdbd;
      }

      .cls-11 {
        clip-path: url(#clip-path);
      }

      .cls-12 {
        fill: #d4d4d4;
      }

      .cls-13 {
        fill: #ccc;
      }

      .cls-14 {
        fill: #fefefe;
      }

      .cls-15 {
        fill: #1a1a1a;
      }

      .cls-16 {
        fill: #fdfdfd;
      }

      .cls-17 {
        fill: #5c5c5c;
      }

      .cls-18 {
        fill: #4d4d4d;
      }

      .cls-19 {
        fill: #d8d8d8;
      }

      .cls-20 {
        fill: #212121;
      }

      .cls-21 {
        fill: #616161;
      }

      .cls-22 {
        fill: #fbe9e7;
      }

      .cls-23 {
        fill: #696;
      }
    </style>
    <clipPath id="clip-path">
      <circle id="Ellipse_1519" data-name="Ellipse 1519" cx="45.009" cy="45.009" r="45.009"/>
    </clipPath>
  </defs>
  <path id="Path_46640" data-name="Path 46640" class="cls-1" d="M0,152.084V35.364A114.364,114.364,0,0,1,16.209,0H204.863A113.469,113.469,0,0,1,220,31.614V152.084a13.759,13.759,0,0,1-13.753,13.753H13.753A13.759,13.759,0,0,1,0,152.084Z" transform="translate(0 0)"/>
  <path id="Path_46641" data-name="Path 46641" class="cls-2" d="M220,13.753v116.72a114.364,114.364,0,0,1-16.209,35.364H15.137A114.725,114.725,0,0,1,0,134.224V13.753A13.759,13.759,0,0,1,13.753,0H206.292A13.749,13.749,0,0,1,220,13.753Z" transform="translate(0 0)"/>
  <path id="Path_46642" data-name="Path 46642" class="cls-1" d="M220,269v10.315a114.364,114.364,0,0,1-16.209,35.364H15.137A113.853,113.853,0,0,1,0,283.11V269Z" transform="translate(0 -148.886)"/>
  <path id="Path_46643" data-name="Path 46643" class="cls-3" d="M221.414,21.127V144.053c0,4.465-2.947,8.127-6.564,8.127H19.364c-3.617,0-6.564-3.617-6.564-8.127V21.127c0-4.51,2.947-8.127,6.564-8.127H214.85C218.467,13,221.414,16.661,221.414,21.127Z" transform="translate(-7.085 -7.195)"/>
  <rect id="Rectangle_9191" data-name="Rectangle 9191" class="cls-1" width="86.446" height="33.846" transform="translate(66.799 165.837)"/>
  <rect id="Rectangle_9192" data-name="Rectangle 9192" class="cls-4" width="86.446" height="9.064" transform="translate(66.799 165.837)"/>
  <path id="Path_46644" data-name="Path 46644" class="cls-1" d="M230.767,426.182c-2.411,1.607-4.912,3.17-7.457,4.6H110.742c-2.277-1.295-4.554-2.679-6.742-4.108A24.73,24.73,0,0,1,124.629,415.6h85.866a24.784,24.784,0,0,1,13.708,4.153A24.289,24.289,0,0,1,230.767,426.182Z" transform="translate(-57.562 -230.027)"/>
  <path id="Path_46645" data-name="Path 46645" class="cls-5" d="M221.358,21.127v9.645H12.7V21.127c0-4.51,2.947-8.127,6.564-8.127H214.75C218.411,13,221.358,16.661,221.358,21.127Z" transform="translate(-7.029 -7.195)"/>
  <circle id="Ellipse_1515" data-name="Ellipse 1515" class="cls-6" cx="5.135" cy="5.135" r="5.135" transform="translate(11.476 9.556)"/>
  <circle id="Ellipse_1516" data-name="Ellipse 1516" class="cls-7" cx="5.135" cy="5.135" r="5.135" transform="translate(26.211 9.556)"/>
  <circle id="Ellipse_1517" data-name="Ellipse 1517" class="cls-8" cx="5.135" cy="5.135" r="5.135" transform="translate(40.901 9.556)"/>
  <rect id="Rectangle_9193" data-name="Rectangle 9193" class="cls-5" width="95.198" height="53.18" transform="translate(109.933 32.775)"/>
  <rect id="Rectangle_9194" data-name="Rectangle 9194" class="cls-5" width="95.198" height="52.689" transform="translate(109.933 92.296)"/>
  <rect id="Rectangle_9195" data-name="Rectangle 9195" class="cls-9" width="95.198" height="12.592" transform="translate(110.156 32.328)"/>
  <rect id="Rectangle_9196" data-name="Rectangle 9196" class="cls-9" width="95.198" height="12.592" transform="translate(110.156 92.519)"/>
  <path id="Path_46646" data-name="Path 46646" class="cls-1" d="M317.669,120.5H263.551a3.745,3.745,0,0,1-3.751-3.751h0A3.745,3.745,0,0,1,263.551,113h54.118a3.745,3.745,0,0,1,3.751,3.751h0A3.773,3.773,0,0,1,317.669,120.5Z" transform="translate(-143.794 -62.543)"/>
  <path id="Path_46647" data-name="Path 46647" class="cls-1" d="M317.669,254.5H263.551a3.745,3.745,0,0,1-3.751-3.751h0A3.745,3.745,0,0,1,263.551,247h54.118a3.745,3.745,0,0,1,3.751,3.751h0A3.773,3.773,0,0,1,317.669,254.5Z" transform="translate(-143.794 -136.71)"/>
  <path id="Path_46648" data-name="Path 46648" class="cls-1" d="M339.593,150.4H263.551a3.745,3.745,0,0,1-3.751-3.751h0a3.745,3.745,0,0,1,3.751-3.751h76.042a3.745,3.745,0,0,1,3.751,3.751h0A3.773,3.773,0,0,1,339.593,150.4Z" transform="translate(-143.794 -79.092)"/>
  <path id="Path_46649" data-name="Path 46649" class="cls-1" d="M339.593,286.3H263.551a3.745,3.745,0,0,1-3.751-3.751h0a3.745,3.745,0,0,1,3.751-3.751h76.042a3.745,3.745,0,0,1,3.751,3.751h0A3.8,3.8,0,0,1,339.593,286.3Z" transform="translate(-143.794 -154.31)"/>
  <g id="Group_37592" data-name="Group 37592" transform="translate(11.877 36.347)">
    <circle id="Ellipse_1518" data-name="Ellipse 1518" class="cls-10" cx="45.009" cy="45.009" r="45.009" transform="translate(0.134 0.313)"/>
    <g id="Group_37591" data-name="Group 37591">
      <g id="Group_37590" data-name="Group 37590" class="cls-11">
        <path id="Path_46650" data-name="Path 46650" class="cls-12" d="M104.461,370.942a36.694,36.694,0,0,1-1.161,6.341,14.65,14.65,0,0,0,8.305-.357s.045-4.421-1.027-6.7C109.462,368,106.47,368.486,104.461,370.942Z" transform="translate(-69.052 -240.469)"/>
        <path id="Path_46651" data-name="Path 46651" class="cls-12" d="M151.108,370.255s.536,2.768,1.607,6.207a13.928,13.928,0,0,1-8.082.714s-.536-4.376.536-6.832S149.144,367.978,151.108,370.255Z" transform="translate(-91.855 -240.318)"/>
        <path id="Path_46652" data-name="Path 46652" class="cls-13" d="M144.363,302.057s3.527,23.665,5.8,30.006c0,0-5,3.527-12.726,1.7,0,0-.982-28.175-.045-31.881C138.38,298.128,141.729,297.994,144.363,302.057Z" transform="translate(-87.7 -201.858)"/>
        <path id="Path_46653" data-name="Path 46653" class="cls-13" d="M102.787,302.625s-1.875,23.844-4.287,30.408c0,0,5.09,2.813,13.083,0,0,0-1.206-28-2.143-31.524C108.457,297.981,105.51,298.294,102.787,302.625Z" transform="translate(-66.395 -201.89)"/>
        <path id="Path_46654" data-name="Path 46654" class="cls-14" d="M106.78,217.817c-.491,3.394-1.206,7.546-2.009,12.145a208.977,208.977,0,0,0-3.17,25.987s13.574,2.277,25.764-.625c0,0-3.929-24.692-6.653-39.7C118.746,204.51,108.164,207.948,106.78,217.817Z" transform="translate(-68.111 -151.866)"/>
        <path id="Path_46655" data-name="Path 46655" class="cls-15" d="M129.849,264.777,127.974,242.5l1.072-2.277-2.1-1.474V238.7H126.9v.045l-2.054,1.474,1.027,2.277L124,264.777" transform="translate(-80.509 -168.463)"/>
        <path id="Path_46656" data-name="Path 46656" class="cls-16" d="M136.494,231.3l-1.429,8.037-4.465-4.287Z" transform="translate(-84.162 -164.367)"/>
        <path id="Path_46657" data-name="Path 46657" class="cls-16" d="M117.4,231.3l1.518,7.948,4.331-4.2Z" transform="translate(-76.856 -164.367)"/>
        <path id="Path_46658" data-name="Path 46658" class="cls-17" d="M129.2,225.3l2.009,4.063a8.68,8.68,0,0,0,4.6-6.028s-.4-2.277-.848-2.634C134.915,220.7,132.728,224.5,129.2,225.3Z" transform="translate(-83.387 -158.5)"/>
        <path id="Path_46659" data-name="Path 46659" class="cls-17" d="M121.064,227.07l-2.456,3.483a5.94,5.94,0,0,1-4.108-4.376s.58-1.965,1.161-2.277A8.115,8.115,0,0,0,121.064,227.07Z" transform="translate(-75.251 -160.271)"/>
        <path id="Path_46660" data-name="Path 46660" class="cls-18" d="M92.111,237.465s-6.832,6.073-8.082,12.1,6.385,15.628,6.385,15.628,6.608-1.965,4.2-4.376c-2.768-2.724-6.921-7.814-6.921-10.27.045-2.456,6.207-11.118,6.207-11.118S96.085,236.036,92.111,237.465Z" transform="translate(-58.309 -167.585)"/>
        <path id="Path_46661" data-name="Path 46661" class="cls-19" d="M104.949,227.373c-.491-2.456-6.3,2.5-8.127,4.644s3.394,6.251,4.6,5.4S105.351,229.2,104.949,227.373Z" transform="translate(-65.254 -161.824)"/>
        <path id="Path_46662" data-name="Path 46662" class="cls-18" d="M154.444,237.465s6.832,6.073,8.082,12.1-6.385,15.628-6.385,15.628-6.608-1.965-4.2-4.376c2.768-2.724,6.921-7.814,6.921-10.27-.045-2.456-6.207-11.118-6.207-11.118S150.47,236.036,154.444,237.465Z" transform="translate(-95.682 -167.585)"/>
        <path id="Path_46663" data-name="Path 46663" class="cls-19" d="M144.95,227.373c.536-2.456,6.3,2.5,8.127,4.644s-3.394,6.251-4.6,5.4C147.227,236.571,144.548,229.2,144.95,227.373Z" transform="translate(-92.082 -161.824)"/>
        <path id="Path_46664" data-name="Path 46664" class="cls-20" d="M86.251,233.08S74.062,241.207,77.1,246.3s3.572,13.753,6.117,12.726,6.341-5.715,6.341-5.715-9.913-13.083,2.322-14.11C95.9,221.873,86.251,233.08,86.251,233.08Z" transform="translate(-54.281 -163.379)"/>
        <path id="Path_46665" data-name="Path 46665" class="cls-20" d="M158.872,257s8.395-11.52,3.885-15.137-10.672-13.217-12.636-11.431-1.072,9.243-1.072,9.243,13.44,8.618,2.634,13.663C153.827,270.436,158.872,257,158.872,257Z" transform="translate(-94.261 -163.763)"/>
        <path id="Path_46666" data-name="Path 46666" class="cls-20" d="M104.468,244.775c-.357,1.518-1.741,16.253-2.545,18.263-1.34,3.394-.045,9.377-.491,13.351a172.392,172.392,0,0,0,25.764-.268s-.714-24.782-3.438-31.346c-.625.268-1.25-.223-3.036-.536-1.206-.179-.223,1.116-2.054,1.563-1.384.357-3.617,7.948-4.644,11.208,0,.045-.045.045-.089,0-5.4-9.645-4.554-10.627-5.448-10.672C105.942,246.2,105.5,240.578,104.468,244.775Z" transform="translate(-67.943 -170.966)"/>
        <path id="Path_46667" data-name="Path 46667" class="cls-18" d="M101.875,289.388s4.51,1.116,3.751,3.349-3.483.447-3.483.447,2.545,5.448-.447,6.832c-2.992,1.429-5.314-1.965-5.448-4.287s0-5.448,1.25-7.055C98.749,287.022,101.875,289.388,101.875,289.388Z" transform="translate(-65.126 -195.798)"/>
        <path id="Path_46668" data-name="Path 46668" class="cls-18" d="M146.69,289.342s-4.554,1.161-3.8,3.394c.759,2.277,3.527.447,3.527.447s-2.59,5.537.447,6.966,5.358-2.009,5.492-4.376.045-5.581-1.25-7.189C149.86,286.931,146.69,289.342,146.69,289.342Z" transform="translate(-90.919 -195.751)"/>
        <path id="Path_46669" data-name="Path 46669" class="cls-21" d="M111.7,228.4l-2.858,2.188-.045,5.581,2.143,1.116-1.429,1.25,8.662,10Z" transform="translate(-72.096 -162.762)"/>
        <path id="Path_46670" data-name="Path 46670" class="cls-21" d="M136.275,228.4l2.858,2.188.089,5.581-2.188,1.116,1.474,1.25-8.707,10Z" transform="translate(-83.719 -162.762)"/>
        <g id="Group_37589" data-name="Group 37589" transform="translate(18.629 1.607)">
          <path id="Path_46671" data-name="Path 46671" class="cls-22" d="M173.354,171.856s1.161-4.019,4.822-3.349,1.741,12.636-4.2,10.225A19.447,19.447,0,0,1,173.354,171.856Z" transform="translate(-126.434 -131.178)"/>
          <path id="Path_46672" data-name="Path 46672" class="cls-22" d="M75.858,172.456s-1.34-4.019-5.448-3.349-1.965,12.726,4.733,10.315A16.982,16.982,0,0,0,75.858,172.456Z" transform="translate(-68.321 -131.51)"/>
          <path id="Path_46673" data-name="Path 46673" class="cls-22" d="M84.331,117.418c-1.25,1.786-7.68,26.434-6.43,34.337,1.295,7.9,15.851,16.253,23.085,16.253,10.4,0,21.969-9.556,22.415-16.3.67-10.091-2.724-33.935-4.019-36.3C115.275,107.728,91.565,107.192,84.331,117.418Z" transform="translate(-73.535 -98.664)"/>
          <path id="Path_46674" data-name="Path 46674" class="cls-20" d="M121.145,127.866l-.491.58s-.179-9.02-.759-11.3c0,0-1.34-5.09-3.394-6.117,0,0,1.831-6.3-2.947-8.35a22.531,22.531,0,0,1-15.226,5.8,21.678,21.678,0,0,1-12.547-3.572,6.4,6.4,0,0,0-.268,5.358s-3.84,4.063-4.331,9.02c0,0-.179,6.475.089,8.171a9.568,9.568,0,0,1-1.7-1.607A8.82,8.82,0,0,1,77.7,121.7c-1.161-4.644-1.161-11.7-.134-15.45,0,0,1.474-6.341,2.768-6.832,0,0-2.947-9.02-2.322-11.3,0,0,1.741,4.376,7.546,3.885,0,0-2.456-3.394-1.92-7.01,0,0,4.421,3.26,9.109,2.411a23.08,23.08,0,0,0,4.912-1.072,12.286,12.286,0,0,1,2.5-.714c3.3-.58,10.315-1.206,13.753,3.036,0,0,2.679,2.813,3.126,5.626,0,0,7.234,5.046,7.591,13.887a59.177,59.177,0,0,1-.179,12.056,19.6,19.6,0,0,1-1.831,5.671h0A20.482,20.482,0,0,1,121.145,127.866Z" transform="translate(-73.02 -85)"/>
        </g>
      </g>
    </g>
  </g>
  <circle id="Ellipse_1520" data-name="Ellipse 1520" class="cls-23" cx="16.387" cy="16.387" r="16.387" transform="translate(70.193 108.236)"/>
  <g id="Group_37594" data-name="Group 37594" transform="translate(71.941 112.121)">
    <g id="Group_37593" data-name="Group 37593">
      <path id="Path_46675" data-name="Path 46675" class="cls-3" d="M176.647,251.1a12.854,12.854,0,0,0-12.86,12.815,14.431,14.431,0,0,0,.447,3.974l-1.741-1.027a.911.911,0,0,0-.938,1.563l4.063,2.367h.045a.164.164,0,0,0,.134.045c.045,0,.045.045.089.045h.357a.164.164,0,0,0,.134-.045,487.058,487.058,0,0,0,.179-.089c.045,0,.045-.045.089-.045l.089-.089.089-.089.045-.045v-.045c0-.045.045-.045.045-.089l1.607-4.019a.891.891,0,0,0-1.652-.67l-.848,2.054a14.13,14.13,0,0,1-.491-3.8A11.074,11.074,0,1,1,176.6,274.989a.893.893,0,1,0,0,1.786,12.837,12.837,0,1,0,.045-25.675Z" transform="translate(-161.115 -251.1)"/>
      <path id="Path_46676" data-name="Path 46676" class="cls-3" d="M187.994,274.512a.566.566,0,0,0,.268.045h.045c.089,0,.223-.045.313-.045.045,0,.045-.045.089-.045.089-.045.134-.089.223-.134a.044.044,0,0,0,.045-.045l5.626-5.626a.916.916,0,0,0-1.295-1.295l-5.18,5.18-4.644-1.965a.891.891,0,1,0-.67,1.652l5.18,2.277Z" transform="translate(-172.819 -259.956)"/>
    </g>
  </g>
</svg>
