<svg id="Group_3978" data-name="Group 3978" xmlns="http://www.w3.org/2000/svg" viewBox="0 0 120 120">
  <defs>
    <style>
      .cls-1, .cls-4 {
        fill: #fff;
      }

      .cls-1 {
        stroke: rgba(0,0,0,0.06);
        stroke-width: 2px;
        opacity: 0;
      }

      .cls-2 {
        fill: #a5d6a7;
      }

      .cls-3 {
        fill: #242d3c;
      }

      .cls-5 {
        stroke: none;
      }

      .cls-6 {
        fill: none;
      }
    </style>
  </defs>
  <g id="Rectangle_2177" data-name="Rectangle 2177" class="cls-1">
    <rect class="cls-5" width="120" height="120"/>
    <rect class="cls-6" x="1" y="1" width="118" height="118"/>
  </g>
  <g id="cloud-computing_2_" data-name="cloud-computing (2)" transform="translate(22 17)">
    <path id="Path_9097" data-name="Path 9097" class="cls-2" d="M74.747,70.834a9.123,9.123,0,1,1,0-18.246,9.25,9.25,0,0,1,1.083.072l4.017.469.945-3.931a17.534,17.534,0,0,1,34.093,0l.942,3.929,4.012-.461a9.627,9.627,0,0,1,1.1-.073,9.123,9.123,0,1,1,0,18.246h-46.2Z" transform="translate(-59.568 -29.712)"/>
    <g id="Group_3973" data-name="Group 3973" transform="translate(0)">
      <path id="Path_9098" data-name="Path 9098" class="cls-3" d="M88.929,62.681H77.108v-18.5H91.232a12.183,12.183,0,1,0,0-24.367,12.565,12.565,0,0,0-1.451.093l-1.317.153-.309-1.29a20.6,20.6,0,0,0-40.054,0l-.309,1.291L46.475,19.9a12.181,12.181,0,1,0-1.439,24.275H59.159v18.5H47.337V59.693h8.834V47.166H45.036a15.171,15.171,0,1,1,0-30.343c.162,0,.326,0,.494.009a23.589,23.589,0,0,1,45.2,0c.171-.007.337-.01.5-.01a15.171,15.171,0,1,1,0,30.343H80.1V59.693h8.833v2.988Z" transform="translate(-29.857 0)"/>
      <path id="Path_9099" data-name="Path 9099" class="cls-3" d="M389.014,324.43H370.04V305.457h18.974V324.43Zm-15.986-2.988h13v-13h-13Z" transform="translate(-312.462 -253.757)"/>
      <path id="Path_9100" data-name="Path 9100" class="cls-3" d="M218.925,418.876H199.951V399.9h18.974v18.973Zm-15.986-2.988h13v-13h-13Z" transform="translate(-171.162 -332.217)"/>
      <path id="Path_9101" data-name="Path 9101" class="cls-3" d="M48.831,324.43H29.857V305.457H48.831Zm-15.985-2.988h13v-13h-13Z" transform="translate(-29.857 -253.757)"/>
      <rect id="Rectangle_2173" data-name="Rectangle 2173" class="cls-3" width="2.988" height="23.506" transform="translate(36.781 45.673)"/>
    </g>
    <g id="Group_3974" data-name="Group 3974" transform="translate(30.806 35.144)">
      <rect id="Rectangle_2174" data-name="Rectangle 2174" class="cls-4" width="2.988" height="2.988"/>
      <rect id="Rectangle_2175" data-name="Rectangle 2175" class="cls-4" width="2.988" height="2.988" transform="translate(5.975)"/>
      <rect id="Rectangle_2176" data-name="Rectangle 2176" class="cls-4" width="2.988" height="2.988" transform="translate(11.95)"/>
    </g>
  </g>
</svg>
