<svg xmlns="http://www.w3.org/2000/svg" xmlns:xlink="http://www.w3.org/1999/xlink" viewBox="0 0 220 220.001">
  <defs>
    <style>
      .cls-1 {
        fill: #1b5e20;
      }

      .cls-2 {
        fill: #696;
      }

      .cls-3 {
        clip-path: url(#clip-path);
      }

      .cls-4 {
        fill: #616161;
      }

      .cls-5 {
        fill: #fff;
      }

      .cls-6 {
        fill: #212121;
      }

      .cls-7 {
        fill: #fbe9e7;
      }

      .cls-8, .cls-9 {
        fill: none;
        stroke: silver;
        stroke-miterlimit: 10;
      }

      .cls-8 {
        stroke-width: 0.669px;
      }

      .cls-9 {
        stroke-width: 0.335px;
      }
    </style>
    <clipPath id="clip-path">
      <circle id="Ellipse_1522" data-name="Ellipse 1522" cx="52.689" cy="52.689" r="52.689" transform="translate(0 0)"/>
    </clipPath>
  </defs>
  <g id="ico-111" transform="translate(0 0.001)">
    <g id="Group_37596" data-name="Group 37596" transform="translate(24.461 24.461)">
      <path id="Path_46677" data-name="Path 46677" class="cls-1" d="M87.716,94.926a7.248,7.248,0,0,1-5.084-2.08L55.039,65.208A7.191,7.191,0,0,1,65.208,55.039L92.8,82.632a7.169,7.169,0,0,1,0,10.168A7.027,7.027,0,0,1,87.716,94.926Z" transform="translate(-52.925 -52.925)"/>
      <path id="Path_46678" data-name="Path 46678" class="cls-1" d="M340.224,94.61a7.248,7.248,0,0,1-5.084-2.08,7.169,7.169,0,0,1,0-10.168l27.223-27.223A7.19,7.19,0,1,1,372.53,65.308L345.308,92.53a7.329,7.329,0,0,1-5.084,2.08Z" transform="translate(-203.567 -52.979)"/>
      <path id="Path_46679" data-name="Path 46679" class="cls-1" d="M367.016,374.18a7.248,7.248,0,0,1-5.084-2.08L334.34,344.508a7.19,7.19,0,1,1,10.168-10.168L372.1,361.932a7.169,7.169,0,0,1,0,10.168,7.248,7.248,0,0,1-5.084,2.08Z" transform="translate(-203.137 -203.137)"/>
      <path id="Path_46680" data-name="Path 46680" class="cls-1" d="M60.124,373.75a7.248,7.248,0,0,1-5.084-2.08,7.169,7.169,0,0,1,0-10.168L83,333.539a7.191,7.191,0,0,1,10.17,10.169L65.208,371.67a7.169,7.169,0,0,1-5.084,2.08Z" transform="translate(-52.925 -202.707)"/>
    </g>
    <path id="Path_46681" data-name="Path 46681" class="cls-2" d="M146.995,224.317a78.872,78.872,0,1,1,55.832-23.063,78.872,78.872,0,0,1-55.832,23.063Zm0-143.416a64.567,64.567,0,1,0,45.664,18.9,64.567,64.567,0,0,0-45.664-18.9Z" transform="translate(-36.625 -35.792)"/>
    <path id="Path_46682" data-name="Path 46682" class="cls-2" d="M21.538,43.029A21.515,21.515,0,1,1,43.076,21.538,21.515,21.515,0,0,1,21.538,43.029Zm0-28.7a7.187,7.187,0,1,0,7.118,7.21,7.187,7.187,0,0,0-7.118-7.21Z"/>
    <path id="Path_46683" data-name="Path 46683" class="cls-2" d="M21.538,425.876a21.538,21.538,0,1,1,21.538-21.538,21.538,21.538,0,0,1-21.538,21.538Zm0-28.7a7.167,7.167,0,1,0,5.081,2.115,7.187,7.187,0,0,0-5.081-2.115Z" transform="translate(0 -205.876)"/>
    <path id="Path_46684" data-name="Path 46684" class="cls-2" d="M404.338,425.876a21.538,21.538,0,1,1,21.538-21.538,21.538,21.538,0,0,1-21.538,21.538Zm0-28.7a7.164,7.164,0,1,0,7.164,7.164,7.164,7.164,0,0,0-7.164-7.164Z" transform="translate(-205.876 -205.876)"/>
    <path id="Path_46685" data-name="Path 46685" class="cls-2" d="M404.338,43.029a21.515,21.515,0,1,1,21.538-21.492,21.515,21.515,0,0,1-21.538,21.492Zm0-28.7a7.164,7.164,0,1,0,7.164,7.164,7.164,7.164,0,0,0-7.164-7.164Z" transform="translate(-205.876)"/>
    <g id="Group_37622" data-name="Group 37622" transform="translate(57.773 56.849)">
      <g id="Group_37621" data-name="Group 37621">
        <g id="Group_37620" data-name="Group 37620" class="cls-3">
          <path id="Union_100" data-name="Union 100" class="cls-4" d="M446.441-2755.118a57.452,57.452,0,0,1-4.57-12.042c.013.1.025.2.038.3a80.772,80.772,0,0,0,1.618,9.428,36.107,36.107,0,0,0,1.479,4.945,7.48,7.48,0,0,0,.647,1.433,143.536,143.536,0,0,1-14.512,1.34c-4.207.139-7.857.093-10.769-.093a65.529,65.529,0,0,1-6.7-.646c-1.526-.231-2.311-.417-2.311-.417,1.155-4.02,1.988-7.117,2.587-9.706l.038-.168a39.965,39.965,0,0,1-8.634,10.8,42.493,42.493,0,0,1-13.634,8.088s-.37-.185-.971-.555a19.5,19.5,0,0,1-2.264-1.664,13.248,13.248,0,0,1-2.5-2.912,12.654,12.654,0,0,1-1.756-4.252s1.71-.555,4.3-1.71a52,52,0,0,0,9.474-5.592,37.352,37.352,0,0,0,9.521-10.03,28.527,28.527,0,0,0,4.391-15.113,1.973,1.973,0,0,1,.6-1.294,2.079,2.079,0,0,1,1.433-.647,2.525,2.525,0,0,1,1.849.924q.223.266.425.547a10.848,10.848,0,0,1,2.58-2.584,19.131,19.131,0,0,1,8.828-3,16.676,16.676,0,0,1,8.967,1.433,7.455,7.455,0,0,1,3.578,3.633,40.22,40.22,0,0,1,.537-4.65,5.488,5.488,0,0,1,1.475,1.156,5.806,5.806,0,0,1,.923,1.34,6.354,6.354,0,0,1,.463,1.109c.093.277.139.463.139.463a52.171,52.171,0,0,0,5.27,17.517,45.945,45.945,0,0,0,8.181,11.416,43.383,43.383,0,0,0,7.534,6.194,24.291,24.291,0,0,0,3.281,1.849,8.882,8.882,0,0,1-1.2,4.483,12.228,12.228,0,0,1-2.634,3.234,15.029,15.029,0,0,1-2.633,1.941c-.738.416-1.2.647-1.2.647A57.225,57.225,0,0,1,446.441-2755.118Z" transform="translate(-373.647 2874.501)"/>
          <g id="Group_37613" data-name="Group 37613" transform="translate(39.657 82.87)">
            <path id="Union_99" data-name="Union 99" class="cls-5" d="M362.966-2861.208c-.6-.418-1.339-1.017-2.08-1.617s-1.433-1.156-1.941-1.618c-.228-.208-.419-.378-.56-.5l-.042.042c-.046,0-.046.046-.092.046h-.01c-.105.093-.226.2-.358.32-.462.417-1.109.971-1.8,1.526s-1.387,1.109-1.941,1.524a3.849,3.849,0,0,1-1.247.693,8.338,8.338,0,0,1-1.941-.971,23.031,23.031,0,0,1-3.374-2.4,11.227,11.227,0,0,1-2.634-3.05,2.369,2.369,0,0,1-.235-2.082c.024-.44.391-.877,1.043-1.253a4.918,4.918,0,0,1,1.906-.79,13.884,13.884,0,0,1,1.809-.453,35,35,0,0,1,4.853-.693,53.658,53.658,0,0,1,5.5-.231,46.076,46.076,0,0,1,5.27.324,29.628,29.628,0,0,1,3.935.736h.042a5.305,5.305,0,0,1,3.605,1.434,2.431,2.431,0,0,1,.465,2.714l.132.107c-.046.047-.046.092-.092.14s-.046.092-.092.138-.046.092-.093.139-.046.094-.092.139l-.109-.082a11.982,11.982,0,0,1-2.71,2.944,30.42,30.42,0,0,1-3.651,2.5,8.787,8.787,0,0,1-2.126,1.017A3.26,3.26,0,0,1,362.966-2861.208Z" transform="translate(-344.573 2872.717)"/>
          </g>
          <g id="Group_37598" data-name="Group 37598" transform="translate(8.081 2.736)">
            <path id="Path_46688" data-name="Path 46688" class="cls-6" d="M218.244,195.419c2.866,7.811,4.992,25.79.277,33.092,12.987-20.1,11.508-43.353,10.492-65.538-.832-17.748-17.609-33.092-37.992-34.017-7.3-.324-15.9,1.433-18.95,7.256-6.655-1.618-13.912,1.063-18.765,5.361-24.912,22.046-.878,60.315,12.9,81.668-3.836-6.008-2.265-14.836-3.975-21.353-1.571-6.055-2.727-9.983,1.387-15.853a3.245,3.245,0,0,1,1.433-1.294,2.568,2.568,0,0,1,2.681.878,6.4,6.4,0,0,1,1.017,2.542c1.664,7.765,3.513,19.55,9.521,25.836,5.5,5.685,17.575-.175,21.365-7.663,4.3-8.458,9.786-9.022,13.807-17.85.924-.555,1.987.508,2.45,1.433a41.032,41.032,0,0,1,2.357,5.5Z" transform="translate(-142.484 -128.92)"/>
          </g>
          <path id="Union_98" data-name="Union 98" class="cls-7" d="M411.192-2723.437a56.668,56.668,0,0,1-11-4.992,46.957,46.957,0,0,1-8.181-5.916c-2.034-1.9-3.236-3.56-3.282-4.622q-.023-1.672.054-3.341a3.139,3.139,0,0,1-2.082-.838,7.548,7.548,0,0,1-2.1-3.966,12.252,12.252,0,0,1-.193-4.811c.256-1.429.828-2.482,1.8-2.742a3.483,3.483,0,0,1,2.4.134,4.19,4.19,0,0,1,1.442,1.138c.238-1.52.507-3.07.805-4.619a106.775,106.775,0,0,1,2.5-10.769,25.579,25.579,0,0,1,2.9-7.019c-.1.137-.11.143.046-.075l.014-.023.053-.073q.457-.653.943-1.284c.982-1.335.726-.978.211-.271a34.953,34.953,0,0,1,12.474-9.969,27.128,27.128,0,0,1,14.189-2.172,32.356,32.356,0,0,1,12.474,4.116,26.529,26.529,0,0,1,8.412,7.3,34.6,34.6,0,0,1,3.282,6.979c1.2,3.1,2.357,6.84,3.42,10.63,1.017,3.836,1.941,7.719,2.542,11.185a39.221,39.221,0,0,1,.74,8.55c-.092,1.387-1.2,3.235-3.05,5.269a42.4,42.4,0,0,1-7.44,6.332,53.382,53.382,0,0,1-10.214,5.361,34.82,34.82,0,0,1-11.37,2.451h-.223A35.4,35.4,0,0,1,411.192-2723.437Z" transform="translate(-367.704 2812.874)"/>
          <g id="Group_37616" data-name="Group 37616" transform="translate(39.193 32.815)">
            <g id="Group_37615" data-name="Group 37615">
              <path id="Path_46730" data-name="Path 46730" class="cls-8" d="M209.8,194" transform="translate(-209.8 -194)"/>
            </g>
          </g>
          <g id="Group_37618" data-name="Group 37618" transform="translate(62.765 30.92)">
            <g id="Group_37617" data-name="Group 37617">
              <path id="Path_46731" data-name="Path 46731" class="cls-9" d="M260.8,189.9" transform="translate(-260.8 -189.9)"/>
            </g>
          </g>
          <g id="Group_37619" data-name="Group 37619" transform="translate(20.845 22.057)">
            <path id="Path_46732" data-name="Path 46732" class="cls-6" d="M237.949,178.662c-.971-.555-16.408-7.765-17.563-7.9s-27.916.139-28.655.693c-.786.555-18.4,9.567-19.735,9.706l-1.9,19.871,2.311,12.433s.6-16.038,3.7-21.214c3.235-5.408,10.815-9.013,15.345-13.866-4.16,4.483,18.349,9.059,20.244,9.567a22.01,22.01,0,0,1,15.668,16.731,78.912,78.912,0,0,1-.6,34.941c6.193-7.071,10.723-15.3,12.387-23.664,1.294-6.424,2.912-15.113,2.034-21.492C240.814,191.511,241.138,180.557,237.949,178.662Z" transform="translate(-170.1 -170.724)"/>
          </g>
        </g>
      </g>
    </g>
  </g>
</svg>
