<svg xmlns="http://www.w3.org/2000/svg" viewBox="0 0 220 220">
  <defs>
    <style>
      .cls-1, .cls-13, .cls-6 {
        fill: #fff;
      }

      .cls-1 {
        stroke: #707070;
        opacity: 0;
      }

      .cls-2 {
        fill: #fbe9e7;
      }

      .cls-3 {
        fill: #212121;
      }

      .cls-4 {
        fill: #616161;
      }

      .cls-5 {
        fill: #65617d;
      }

      .cls-7 {
        fill: #ececec;
      }

      .cls-16, .cls-8, .cls-9 {
        fill: none;
      }

      .cls-8, .cls-9 {
        stroke: #112b17;
        stroke-miterlimit: 10;
      }

      .cls-8 {
        stroke-width: 1.184px;
      }

      .cls-9 {
        stroke-width: 0.592px;
      }

      .cls-10 {
        fill: #e4e4e4;
      }

      .cls-11 {
        fill: #444053;
      }

      .cls-12 {
        fill: #696;
      }

      .cls-13 {
        font-size: 36px;
        font-family: FuturaPT-Bold, Futura PT;
        font-weight: 700;
      }

      .cls-14 {
        fill: #fec9b1;
      }

      .cls-15 {
        stroke: none;
      }
    </style>
  </defs>
  <g id="ico-144" transform="translate(-2468 -882)">
    <g id="Rectangle_9199" data-name="Rectangle 9199" class="cls-1" transform="translate(2468 882)">
      <rect class="cls-15" width="220" height="220"/>
      <rect class="cls-16" x="0.5" y="0.5" width="219" height="219"/>
    </g>
    <g id="Group_37656" data-name="Group 37656" transform="translate(1805.001 150.333)">
      <g id="Group_32773" data-name="Group 32773" transform="translate(793.829 751.667)">
        <g id="Group_32742" data-name="Group 32742" transform="translate(34.818 128.366)">
          <g id="Group_32740" data-name="Group 32740">
            <path id="Path_38713" data-name="Path 38713" class="cls-2" d="M83.566,216.342s-.421,1.2-.963,3.369c-.6,2.166-1.324,5.415-2.046,9.446a144.6,144.6,0,0,0-1.865,14.5,152.652,152.652,0,0,0-.421,18.531s-.241.18-.722.481a7.348,7.348,0,0,1-1.8.782,4.6,4.6,0,0,1-2.407.18,4.708,4.708,0,0,1-2.527-1.324,101.742,101.742,0,0,1-1.143-10.83c-.241-3.971-.241-8.243-.12-12.514s.421-8.423.9-12.334a77.024,77.024,0,0,1,1.925-10.288,3.671,3.671,0,0,1,1.925-2.286,6.3,6.3,0,0,1,3.249-.662,9.231,9.231,0,0,1,3.429.782A6.582,6.582,0,0,1,83.566,216.342Z" transform="translate(-69.469 -213.385)"/>
          </g>
          <g id="Group_32741" data-name="Group 32741" transform="translate(0.56 44.291)">
            <path id="Path_38714" data-name="Path 38714" class="cls-3" d="M78.462,287.3v3.069a5.5,5.5,0,0,0,.06,1.023s-.241.181-.722.481a7.339,7.339,0,0,1-1.8.782,4.6,4.6,0,0,1-2.407.18,4.707,4.707,0,0,1-2.527-1.324,9.383,9.383,0,0,1-.3-.963q-.09-.542-.181-1.263c-.06-.421-.06-.842-.12-1.263,0-.421-.06-.782-.06-1.023a12.587,12.587,0,0,0,1.8.662,8.011,8.011,0,0,0,2.046.3,8.1,8.1,0,0,0,2.106-.12,3.915,3.915,0,0,0,2.106-.542C78.462,287.662,77.86,287.662,78.462,287.3Z" transform="translate(-70.4 -287)"/>
          </g>
        </g>
        <g id="Group_32745" data-name="Group 32745" transform="translate(49.517 128.847)">
          <g id="Group_32743" data-name="Group 32743">
            <path id="Path_38715" data-name="Path 38715" class="cls-2" d="M93.9,217.2s.3,1.083.722,3.129,1.023,5.114,1.5,9.085.963,8.784,1.143,14.44a191.666,191.666,0,0,1-.3,19.193,3.4,3.4,0,0,0,.662.481,6.315,6.315,0,0,0,1.685.782,4.112,4.112,0,0,0,2.286.18,4.77,4.77,0,0,0,2.467-1.324c.541-3.129.963-6.618,1.324-10.288s.6-7.581.662-11.612c.12-3.971.12-8.062-.06-12.153-.18-4.031-.421-8.062-.9-11.913a2.939,2.939,0,0,0-1.624-2.346,6.4,6.4,0,0,0-3.309-.662,9.326,9.326,0,0,0-3.61.842A6.014,6.014,0,0,0,93.9,217.2Z" transform="translate(-93.9 -214.185)"/>
          </g>
          <g id="Group_32744" data-name="Group 32744" transform="translate(3.008 44.952)">
            <path id="Path_38716" data-name="Path 38716" class="cls-3" d="M99.141,289.141a4.555,4.555,0,0,1-.06.9c0,.3-.06.6-.06.9s-.06.6-.06.9-.06.6-.06.9a3.4,3.4,0,0,0,.662.481,6.31,6.31,0,0,0,1.685.782,4.111,4.111,0,0,0,2.286.181A4.77,4.77,0,0,0,106,292.871c.06-.3.12-.662.18-.963s.12-.662.181-.963c.084-.682.162-1.364.244-2.047a6.68,6.68,0,0,1-1.748.6,9.342,9.342,0,0,1-1.865.18,10.929,10.929,0,0,1-1.925-.18,7.708,7.708,0,0,1-1.925-.361C99.141,289.441,99.8,289.321,99.141,289.141Z" transform="translate(-98.9 -288.9)"/>
          </g>
        </g>
        <g id="Group_32747" data-name="Group 32747" transform="translate(28.772 117.387) rotate(60)">
          <g id="Group_32746" data-name="Group 32746">
            <path id="Path_38718" data-name="Path 38718" class="cls-2" d="M.724,7.548A6.477,6.477,0,0,0,2.137,9.364a6.87,6.87,0,0,0,1.715,1.06,6.194,6.194,0,0,0,1.917.4,8.157,8.157,0,0,0,1.917-.1,4.566,4.566,0,0,0,2.119-.959,4.46,4.46,0,0,0,1.211-1.917,5.238,5.238,0,0,0,.151-2.523A8.16,8.16,0,0,0,10.209,2.5,4.05,4.05,0,0,0,9.25,1.34,4.666,4.666,0,0,0,7.788.484,5.631,5.631,0,0,0,5.87.03,8.76,8.76,0,0,0,3.6.13a4.566,4.566,0,0,0-2.119.959A4.434,4.434,0,0,0,.27,2.906a5.734,5.734,0,0,0-.252,2.27A6.758,6.758,0,0,0,.724,7.548C1.128,8.254.32,6.791.724,7.548Z"/>
          </g>
        </g>
        <path id="Union_82" data-name="Union 82" class="cls-4" d="M44.186,51.524a13.8,13.8,0,0,1-1.973-1.258c-.516-.383-.887-.706-.887-.706a6.092,6.092,0,0,1-1.173-.3,8.83,8.83,0,0,1-2.589-1.076,4.448,4.448,0,0,1-1.949-2.412q-.045-.138-.08-.282a7.72,7.72,0,0,1-1.664,1.018v.005c-.061.06-.121.12-.18.181-.121.06-.181.06-.241.12-.061,0-.181.059-.242.059h-.237q-.269.1-.544.181a17.05,17.05,0,0,1-2.489.665l.022.058a2.609,2.609,0,0,1-.3.06c-.12,0-.181.059-.3.059a.656.656,0,0,1-.3.06h-.24l-.02-.046c-.436.065-.873.119-1.307.166-.607.067-1.2.117-1.779.155l.035.086c-.061,0-.12.06-.181.06h-.361a.223.223,0,0,1-.181-.06l-.017-.047c-.694.033-1.341.047-1.907.047a13.716,13.716,0,0,1-2.1-.181,3.3,3.3,0,0,1-.593-1.1l-.19.081c0-.06-.06-.12-.06-.181s-.059-.12-.059-.18-.06-.12-.06-.181-.061-.12-.061-.181l.154-.068c-.351-.951-.7-2.127-1.057-3.3l-.018-.062c-.041-.011-.041-.065-.041-.117-.06,0-.06-.06-.06-.12-.061,0-.061-.06-.061-.12l.047-.02c-.206-.68-.407-1.333-.58-1.925l-.23.008c-.237.695-.51,1.569-.817,2.442l.076.036q-.061.12-.12.241l-.121.241-.018-.008c-.414,1.184-.829,2.308-1.184,3.257a5.338,5.338,0,0,1-.9,1.684,2.442,2.442,0,0,1-.647.045c-.361,0-.858-.015-1.459-.045-.662-.033-1.432-.1-2.261-.208a.214.214,0,0,1-.086.027h-.181a.221.221,0,0,1-.181-.06.326.326,0,0,1-.12-.044c-.507-.073-1.033-.159-1.566-.257-.491-.09-.994-.193-1.5-.308v.008a.458.458,0,0,1-.242-.06,2.621,2.621,0,0,0-.3-.06c-.121,0-.18-.06-.3-.06a.467.467,0,0,1-.284-.1,22.9,22.9,0,0,1-2.3-.738c-.232-.092-.458-.189-.68-.291l-.042.11a.457.457,0,0,1-.242-.06c-.06,0-.181-.06-.24-.06-.06-.06-.12-.06-.181-.12l-.18-.181.039-.113A6.651,6.651,0,0,1,0,44.284s.12-.421.3-1.023c.181-.662.482-1.5.722-2.406.077-.229.154-.463.23-.7L1.2,40.134v-.181a.219.219,0,0,1,.061-.181.528.528,0,0,1,.053-.145c-.518-.1-.777-.156-.777-.156,1.2-4.031,1.986-7.22,2.588-9.807a51.214,51.214,0,0,0,1.143-6.618,45.582,45.582,0,0,0,.18-5.777c-.059-2.045-.18-4.331-.3-7.28-.121-2.828,1.444-5.114,3.79-6.8A18.961,18.961,0,0,1,16.838.12,16.085,16.085,0,0,1,25.922,1.5a7.525,7.525,0,0,1,4.333,6.678l.012.3a52.621,52.621,0,0,1,4.237,4.55,47.573,47.573,0,0,1,7.333,12.507,46.006,46.006,0,0,1,3.108,17.875,12.669,12.669,0,0,1,1.025,1.315,11.5,11.5,0,0,1,1.274,2.738,6.825,6.825,0,0,1,.246,3.02,2.133,2.133,0,0,1-.445,1.124,1.3,1.3,0,0,1-.772.427,1.707,1.707,0,0,1-.31.027,4.2,4.2,0,0,1-1.777-.541ZM34.878,40.073l.02.079q.04-.263.077-.55.032-.222.062-.457l-.386.058q.094.35.188.716l.057-.025S34.927,39.924,34.878,40.073ZM31.406,23.167a74.322,74.322,0,0,0,1.684,9.507,38.976,38.976,0,0,0,1.073,3.839l.072.071a.46.46,0,0,1,.059.241v.06c.1.292.206.552.3.781.21.51.375.87.488,1.1a38.288,38.288,0,0,0,.166-7.217,38.648,38.648,0,0,0-2.64-11.3,42.459,42.459,0,0,0-1.882-4.058C30.926,18.774,31.158,21.09,31.406,23.167ZM4.152,10.02c-.031-.717-.06-1.434,0-.029.026.633.035.863.034.863S4.168,10.437,4.152,10.02Z" transform="translate(29.662 79.277)"/>
        <path id="Path_38721" data-name="Path 38721" class="cls-5" d="M61.9,190.971s-.18,1.023-.541,2.707c-.361,1.624-.782,3.851-1.324,6.2s-1.143,4.813-1.745,6.919a37.52,37.52,0,0,1-1.685,4.934s1.624.421,4.272.9,6.377,1.083,10.589,1.444a77.843,77.843,0,0,0,13.537.12,41,41,0,0,0,13.176-3.068s-.241-.662-.662-1.8-.963-2.828-1.624-4.813-1.384-4.272-2.106-6.738-1.444-5.054-2.046-7.7c-.361-1.564-2.046-2.707-4.512-3.49a28.666,28.666,0,0,0-8.9-1.083,36.22,36.22,0,0,0-9.687,1.384C65.745,187.842,63.278,189.166,61.9,190.971Z" transform="translate(-29.525 -73.907)"/>
        <g id="Group_32754" data-name="Group 32754" transform="translate(31.949 77.415)">
          <g id="Group_32752" data-name="Group 32752" transform="translate(13.838 1.564)">
            <path id="Path_38738" data-name="Path 38738" class="cls-6" d="M87.7,141.174s.361.421.842,1.083c.541.662,1.2,1.564,1.925,2.467s1.5,1.8,2.106,2.467a4.1,4.1,0,0,0,1.324,1.143,9.274,9.274,0,0,0,2.1-1.5,31.882,31.882,0,0,0,3.67-3.79,16.787,16.787,0,0,0,2.888-4.813,5.2,5.2,0,0,0-.3-4.633,4.537,4.537,0,0,0-3.67-2.106,8.812,8.812,0,0,0-4.693,1.2,13.961,13.961,0,0,0-4.212,3.55A12.729,12.729,0,0,0,87.7,141.174Z" transform="translate(-87.7 -131.368)"/>
            <path id="Path_38739" data-name="Path 38739" class="cls-7" d="M106.248,137.1l-2.587,3.068-2.587,3.068L98.487,146.3l-2.587,3.07.12.12.12.12.12.12.12.12,2.527-2.948,2.527-2.948,2.527-2.948,2.527-2.948v-.542C106.248,137.22,106.248,137.16,106.248,137.1Z" transform="translate(-90.966 -133.61)"/>
            <path id="Path_38740" data-name="Path 38740" class="cls-7" d="M98.608,131.3l-2.527,2.587-2.527,2.587-2.527,2.587L88.5,141.648c0,.06.06.06.06.12s.06.06.06.12.06.06.06.12.06.06.12.12l2.647-2.647,2.647-2.647,2.647-2.647,2.647-2.647h-.541C98.728,131.3,98.668,131.3,98.608,131.3Z" transform="translate(-88.019 -131.3)"/>
            <path id="Path_38741" data-name="Path 38741" class="cls-7" d="M102.83,132.6l-2.707,3.068-2.707,3.068-2.707,3.008L92,144.814c0,.06.06.06.06.12s.06.06.06.12.06.06.06.12.06.06.06.12l2.768-3.008,2.768-3.008,2.768-3.008,2.768-3.008-.12-.12c-.06-.06-.12-.06-.12-.12-.06-.06-.12-.06-.12-.12A.635.635,0,0,0,102.83,132.6Z" transform="translate(-89.413 -131.818)"/>
            <path id="Path_38742" data-name="Path 38742" class="cls-7" d="M90.1,140.881l1.985,2.106,1.985,2.106,1.985,2.106,1.985,2.106.12-.12.12-.12.12-.12.12-.12-2.046-2.106-2.046-2.106-2.046-2.106L90.341,140.4c0,.06-.06.06-.06.12s-.06.06-.06.12-.06.06-.06.12A.21.21,0,0,0,90.1,140.881Z" transform="translate(-88.656 -134.925)"/>
            <path id="Path_38743" data-name="Path 38743" class="cls-7" d="M103.544,131.4a.763.763,0,0,0-.361.06c-.12,0-.241.06-.361.06s-.241.06-.361.06-.241.06-.361.06l1.5,1.745,1.5,1.745,1.5,1.745,1.5,1.745c.06-.06.06-.181.12-.241,0-.06.06-.181.06-.241s.06-.181.06-.241.06-.181.06-.241l-1.263-1.564-1.263-1.564-1.263-1.564Z" transform="translate(-93.436 -131.34)"/>
            <path id="Path_38744" data-name="Path 38744" class="cls-7" d="M94.3,135.463l2.166,1.985,2.166,1.985,2.166,1.985,2.166,1.985c.06-.06.06-.12.12-.181s.06-.12.12-.18.06-.12.12-.18.06-.12.12-.18l-2.046-2.046-2.046-2.046-2.046-2.046L95.263,134.5c-.06.06-.18.12-.241.181s-.18.12-.241.18-.18.12-.241.181C94.48,135.342,94.42,135.4,94.3,135.463Z" transform="translate(-90.329 -132.575)"/>
          </g>
          <g id="Group_32753" data-name="Group 32753" transform="translate(0 1.967)">
            <path id="Path_38745" data-name="Path 38745" class="cls-6" d="M79.207,141.253s-.3.421-.782,1.023-1.143,1.444-1.8,2.286-1.384,1.685-1.985,2.346-1.023,1.083-1.263,1.083a7.453,7.453,0,0,1-1.985-1.444,28.831,28.831,0,0,1-3.429-3.61,16.351,16.351,0,0,1-2.707-4.573,5.078,5.078,0,0,1,.241-4.392,4.215,4.215,0,0,1,3.369-1.985A7.948,7.948,0,0,1,73.2,133.13a12.97,12.97,0,0,1,3.9,3.37,9.933,9.933,0,0,1,2.107,4.753Z" transform="translate(-64.767 -131.969)"/>
            <path id="Path_38746" data-name="Path 38746" class="cls-7" d="M64.941,137.5l2.407,2.888,2.407,2.888,2.407,2.888,2.407,2.888-.12.12-.12.12-.12.12-.12.12L71.743,146.7,69.4,143.876l-2.346-2.828L64.7,138.222v-.541C64.88,137.62,64.941,137.56,64.941,137.5Z" transform="translate(-64.7 -134.173)"/>
            <path id="Path_38747" data-name="Path 38747" class="cls-7" d="M71.981,132l2.346,2.467,2.346,2.467,2.346,2.467,2.346,2.467a.21.21,0,0,0-.06.12c0,.06-.06.06-.06.12s-.06.06-.06.12-.06.06-.06.12l-2.407-2.527-2.407-2.527L73.9,134.767l-2.4-2.526h.361C71.861,132,71.921,132,71.981,132Z" transform="translate(-67.409 -131.982)"/>
            <path id="Path_38748" data-name="Path 38748" class="cls-7" d="M67.681,133.2l2.527,2.888,2.527,2.888,2.527,2.888,2.527,2.888c0,.06-.06.06-.06.12s-.06.06-.06.12-.06.06-.06.12-.06.06-.06.12l-2.587-2.888-2.587-2.888-2.587-2.888L67.2,133.681l.12-.12.12-.12.12-.12C67.561,133.26,67.621,133.26,67.681,133.2Z" transform="translate(-65.696 -132.46)"/>
            <path id="Path_38749" data-name="Path 38749" class="cls-7" d="M81.242,141.141l-1.865,2.046-1.865,2.046-1.865,2.046-1.865,2.046-.12-.12c-.06-.06-.12-.06-.12-.12l-.12-.12-.12-.12,1.925-1.985,1.925-1.985,1.925-1.985L81,140.9c0,.06.06.06.06.12s.06.06.06.12.06.06.06.12C81.182,141.081,81.182,141.141,81.242,141.141Z" transform="translate(-68.126 -135.527)"/>
            <path id="Path_38750" data-name="Path 38750" class="cls-7" d="M69.913,132.1a.542.542,0,0,1,.3.06c.12,0,.18.06.3.06s.181.06.3.06a2.606,2.606,0,0,1,.3.06l-1.444,1.624-1.444,1.624-1.444,1.624-1.444,1.624c0-.06-.06-.181-.06-.241s-.06-.18-.06-.241-.06-.181-.06-.241-.06-.18-.06-.241l1.2-1.444,1.2-1.444,1.2-1.444Z" transform="translate(-64.859 -132.021)"/>
            <path id="Path_38751" data-name="Path 38751" class="cls-7" d="M76.923,136.122l-1.985,1.925-1.985,1.925L70.967,141.9l-1.985,1.925c-.06-.06-.06-.12-.12-.18s-.06-.12-.12-.18-.06-.12-.12-.181-.06-.12-.12-.181l1.865-1.925,1.865-1.925,1.865-1.925L75.96,135.4c.06.06.181.12.241.181s.18.12.241.18.18.12.241.18C76.8,135.941,76.863,136.062,76.923,136.122Z" transform="translate(-66.214 -133.336)"/>
          </g>
        </g>
        <path id="Path_38765" data-name="Path 38765" class="cls-2" d="M1.413,3.552a5.785,5.785,0,0,1,1.564.555c.5.252,1.009.555,1.514.807s.959.555,1.463.757a3.8,3.8,0,0,0,1.463.3,1.487,1.487,0,0,0,1.11-.4,1.714,1.714,0,0,0,.454-1.06,2.624,2.624,0,0,0-.252-1.362A4.593,4.593,0,0,0,7.82,1.786,6.072,6.072,0,0,0,6.256.726,12.115,12.115,0,0,0,4.339.121,7.592,7.592,0,0,0,2.523.02a3.111,3.111,0,0,0-1.362.4,2.468,2.468,0,0,0-.807.807A1.868,1.868,0,0,0,0,2.189,1.361,1.361,0,0,0,1.413,3.552" transform="matrix(0.799, 0.602, -0.602, 0.799, 29.123, 119.551)"/>
        <g id="Group_32766" data-name="Group 32766" transform="translate(31.407 26.877)">
          <g id="Group_32765" data-name="Group 32765">
            <path id="Path_38770" data-name="Path 38770" class="cls-8" d="M63.8,44.7" transform="translate(-63.8 -44.7)"/>
          </g>
        </g>
        <g id="Group_32768" data-name="Group 32768" transform="translate(55.233 28.501)">
          <g id="Group_32767" data-name="Group 32767">
            <path id="Path_38771" data-name="Path 38771" class="cls-9" d="M103.4,47.4" transform="translate(-103.4 -47.4)"/>
          </g>
        </g>
        <g id="Group_37659" data-name="Group 37659">
          <g id="Group_32739" data-name="Group 32739">
            <path id="Path_38712" data-name="Path 38712" class="cls-3" d="M88.31,67.1c2.948,7.882,5.174,26.051.421,33.452,13.056-20.336,11.431-43.86,10.288-66.3C98.117,16.316,81.09.914,60.513.072c-7.4-.361-16.064,1.5-19.132,7.4C34.642,5.847,27.3,8.615,22.429,13.007c-25.089,22.442-.6,61.007,13.357,82.486C31.875,89.476,33.44,80.512,31.7,73.954c-1.624-6.077-2.828-10.048,1.324-16.064a3.089,3.089,0,0,1,1.444-1.324,2.592,2.592,0,0,1,2.707.9,5.718,5.718,0,0,1,1.023,2.587C39.938,67.874,41.8,79.787,47.94,86.1c5.535,5.716,16.537-.495,20.328-8.075,4.272-8.543,11.139-8.951,15.11-17.856.9-.6,2.046.481,2.467,1.444A49.28,49.28,0,0,1,88.31,67.1Z" transform="translate(-11.598 -0.029)"/>
          </g>
          <path id="Union_81" data-name="Union 81" class="cls-2" d="M28.729,67.059A58.477,58.477,0,0,1,17.6,62.065a51.4,51.4,0,0,1-8.3-5.956c-2.046-1.865-3.249-3.55-3.309-4.633a39.26,39.26,0,0,1,.16-5.323,3.442,3.442,0,0,1-.83.1A3.37,3.37,0,0,1,3.4,45.641,8.147,8.147,0,0,1,.752,41.85,11.582,11.582,0,0,1,.03,37.037c.12-1.443.661-2.587,1.685-2.948a3.884,3.884,0,0,1,2.587-.12,4.652,4.652,0,0,1,1.8,1.142A8.988,8.988,0,0,1,7.129,36.5c.053.079.1.156.141.227.227-1.487.481-3,.762-4.5A108.988,108.988,0,0,1,10.5,21.333a27,27,0,0,1,2.836-7.056c-.05.067-.025.03.112-.163,2.53-3.506,1.652-2.28.768-1.055l-.313.434A33.46,33.46,0,0,1,27.165,2.442,27.48,27.48,0,0,1,41.484.155,33.267,33.267,0,0,1,54.119,4.247a27.507,27.507,0,0,1,8.543,7.34,33.588,33.588,0,0,1,3.369,7.04c1.2,3.189,2.407,6.92,3.49,10.77a115.531,115.531,0,0,1,2.648,11.251,37.627,37.627,0,0,1,.782,8.6c-.121,1.324-1.2,3.249-3.069,5.294a39.127,39.127,0,0,1-7.46,6.438,50.768,50.768,0,0,1-10.289,5.476,35.23,35.23,0,0,1-11.491,2.527q-.39.012-.783.012a37.322,37.322,0,0,1-11.13-1.936Z" transform="translate(7.311 20.644)"/>
          <g id="Group_32772" data-name="Group 32772" transform="translate(12.997 19.456)">
            <path id="Path_38778" data-name="Path 38778" class="cls-3" d="M101.608,40.328c-.963-.541-16.606-7.761-17.749-7.942-1.143-.12-28.217.3-29,.842-.782.6-18.531,9.747-19.854,9.927l-1.8,20.1,2.407,12.514s.541-16.245,3.67-21.479c3.249-5.475,10.89-9.2,15.462-14.079C50.532,44.723,73.335,49.3,75.26,49.777A22.064,22.064,0,0,1,91.139,66.62a79.529,79.529,0,0,1-.481,35.317c6.257-7.16,10.77-15.523,12.454-23.946,1.263-6.5,2.888-15.282,1.985-21.72C104.616,53.264,104.857,42.193,101.608,40.328Z" transform="translate(-33.2 -32.366)"/>
          </g>
        </g>
      </g>
      <g id="Group_37651" data-name="Group 37651" transform="translate(663.999 755.494)">
        <path id="Path_9725_1_" class="cls-3" d="M576.449,283.355c-.255,2.958-.638,5.845-1.149,8.733,0,0,6.19,1.69,11.551-.493,0,0-.064-6.127-2.042-9.226C582.894,279.271,578.874,279.975,576.449,283.355Z" transform="translate(-524.183 -117.095)"/>
        <path id="Path_9726_1_" class="cls-4" d="M570.809,254.957s2.106,19.162,0,31.518c0,0,6.445,3.523,17.1-1.787,0,0-2.425-25.194-4.467-31.951C581.34,246.076,573.745,246.655,570.809,254.957Z" transform="translate(-521.731 -118.733)"/>
        <path id="Path_9727_1_" class="cls-3" d="M554.062,279.824c.191,2.958.51,5.845.957,8.733,0,0-5.425,1.69-10.02-.493,0,0,0-6.127,1.787-9.226C548.574,275.669,552.084,276.3,554.062,279.824Z" transform="translate(-514.04 -113.919)"/>
        <path id="Path_9728_1_" class="cls-4" d="M555.363,245.766c3,6.969-.7,21.255,1.028,32.035,0,0-6.7,4.632-15.891,0,0,0,2.17-21.98,3.893-27.875C546.244,244.115,552.364,238.8,555.363,245.766Z" transform="translate(-512.435 -110.795)"/>
        <path id="Union_80" data-name="Union 80" class="cls-10" d="M11.541,49.733s1.624-12.774,3.042-24.013c-1.6,1.926-3.964,3.731-4.527,7.312-.58,3.687,2.9,4.38,2.35,7.265s0,5.128-5.211,7.265C1.3,45-.166,35.041.014,33.032c.349-4.025,7.18-13.19,7.18-13.19s5-7.44,8.783-5.243C17.932-.835,34.862-7.062,39.494,11.141c0,0,6.446,19.508,7.276,38.593a52.544,52.544,0,0,1-17.7,2.88,53.93,53.93,0,0,1-17.529-2.881Z" transform="translate(17.841 84.842)"/>
        <path id="Path_38709" data-name="Path 38709" class="cls-2" d="M545.163,239.139s5.616,1.549,4.723,4.578c-.957,3.1-4.4.634-4.4.634s3.191,7.535-.574,9.437c-3.765,1.972-6.7-2.746-6.829-5.916-.128-3.24,0-7.535,1.6-9.789C541.27,235.9,545.163,239.139,545.163,239.139Z" transform="translate(-513.348 -113.439)"/>
        <path id="Path_12465" data-name="Path 12465" class="cls-11" d="M566.923,189.482V191.6L565.2,221.807l3.382,8.874,4.467-7.958-5.042-30.776,2.042-2.747Z" transform="translate(-520.876 -98.216)"/>
        <path id="Union_113" data-name="Union 113" class="cls-6" d="M-186.056-2742.418c4.467-1.058,7.148-6.34,7.148-6.409.575.562,1.085,3.661,1.085,3.661a11.764,11.764,0,0,1-5.744,8.382Zm-9.944-1.255s.7-2.676,1.468-3.169a9.894,9.894,0,0,0,6.828,4.437l-3.127,4.789S-194.66-2738.46-196-2743.673Z" transform="translate(234.301 2841.166)"/>
        <path id="Union_79" data-name="Union 79" class="cls-2" d="M40.08,83.453c-15.4-.844-25.647-6.408-30.01-14.3q-.329-.608-.614-1.265c-3.087,4.5-9.482,2.76-6.2-6.478C4.98,56.551-1.7,52.819.419,45.283c.859-3.181,5-4.251,8.036-2.917a158.24,158.24,0,0,1,4.193-18.774C17.738,5.986,34.263,0,46.492,0,61.63-.07,75.18,7.325,78.023,25.916c1.063,6.952,2.015,14.042,2.462,20.64,2.78-2.227,7.962-1.4,8.776,1.9C90.847,55,84.5,57.89,85.956,62.045c2.837,8.683-4.309,9.39-6.485,4.194a18.531,18.531,0,0,1-2.835,6.369c-6.855,9.142-12.5,11.3-24.157,11.3C48.959,83.911,44.893,83.714,40.08,83.453Z" transform="translate(0 17.159)"/>
        <path id="Path_12468" data-name="Path 12468" class="cls-3" d="M582.7,120.021s5.384-28.522-2.393-30.494c0,0,2.659-5.986-1.462-10.7a20.6,20.6,0,0,1-4.453-8.169,16.4,16.4,0,0,0,0,4.437s-4.785-5.493-9.238-6.972c0,0,2.991,3.24,2.393,4.718,0,0-3.124-6.549-12.827-7.958,0,0,3.855,2.747,3.589,3.944a12.454,12.454,0,0,0-6.713-3.944s1.4,1.268,1.329,1.761a42.181,42.181,0,0,0-5.915-2.113s1.927,1.268,1.462,1.338c-.332.07-5.051-.423-5.649-2.183a1.623,1.623,0,0,0,.6,1.761s-3.988-.282-5.051-1.479a2.3,2.3,0,0,0,1.4,1.69s-4.918-.916-6.979-2.254a12.712,12.712,0,0,0,3.124,2.324s-6.513.563-8.906-.211a3.9,3.9,0,0,0,2.326,1.69,6.571,6.571,0,0,1-2.792-.141s1.529,2.183.6,2.465a1.326,1.326,0,0,1-1.661-1.338s-.8,1.479-1.861,1.338c-1.13-.141.2-2.183.2-2.183s-4.652,1.056-7.244,4.3c-2.592,3.31-5.384,10.282-5.384,10.282s-4.52,10.7-4.387,16.479c.266,12.817,1.462,24.719,3.19,27.536,0,0,.8-11.127,5.583-13.874,1.13-.634-1.4-8.381,2.127-14.015,4.386-6.9,8.175-6.057,17.812-3.38,13.027,3.592,24.193-3.24,28.047-2.887,15.287,1.338,11.1,18.522,12.894,20.987,3.988,5.634,3.523,9.437,5.915,13.169Z" transform="translate(-501.416 -63.4)"/>
      </g>
      <g id="Group_37653" data-name="Group 37653" transform="translate(684.907 864.006)">
        <g id="Group_37657" data-name="Group 37657">
          <rect id="Rectangle_9198" data-name="Rectangle 9198" class="cls-12" width="183.98" height="46.831"/>
          <text id="COMPETE" class="cls-13" transform="translate(11.708 35)"><tspan x="0" y="0">COMPETE</tspan></text>
        </g>
      </g>
      <path id="Path_9730_1_" class="cls-14" d="M5.6.041C8.1-.393,16.3,3.67,18.435,9.028s-2.276,3.053-4.11,4.117C11.269,6.51,7.165,3.272.56,4.3-1.435,3.523,2.287-.444,5.6.041Z" transform="translate(718.939 860.183) rotate(-42)"/>
      <path id="Path_9731_1_" class="cls-10" d="M1.512,8.329S-1.81,2.6,1.395,0C5.178.741,5.823,2.138,5.823,2.138A51.352,51.352,0,0,1,16.491,12.05c4.686,5.962,4.435,7.877,3.08,10.206s-4.7,1.082-7.724-.095C11.363,19.962,7.822,8.388,1.512,8.329Z" transform="matrix(0.5, -0.866, 0.866, 0.5, 715.406, 861.011)"/>
      <path id="Path_9732_1_" class="cls-2" d="M1.809,3.8S-1.436,8.112.766,9.762c2.086,1.65,3.36-2.031,3.36-2.031S5.4,14.84,8.993,13.951c3.592-.762,3.36-5.712,1.97-8S7.371.622,5.169.115C3.083-.774,1.809,3.8,1.809,3.8Z" transform="translate(738.866 854.723) rotate(-7.004)"/>
      <g id="Group_37655" data-name="Group 37655" transform="translate(809.883 824.924) rotate(35.025)">
        <g id="Group_37654" data-name="Group 37654" transform="translate(24.409) rotate(60)">
          <path id="Path_38717" data-name="Path 38717" class="cls-4" d="M0,3.275c.88,2.232.029.11,0,0C.892,7.491,2.407,19.021,22.943,25.138c0,0,.3-.151.807-.454a11.359,11.359,0,0,0,1.917-1.413,13.192,13.192,0,0,0,2.12-2.471A10.966,10.966,0,0,0,29.3,17.216c-1.24-.414,1.18.561,0,0C12.687,15.249,4.989,7.609,4.624.472.247,1.694-.12,3.326,0,3.275Z"/>
          <path id="Union_114" data-name="Union 114" class="cls-2" d="M-302.221-2824.372a6.222,6.222,0,0,1-1.917-.4,6.839,6.839,0,0,1-1.715-1.06,6.448,6.448,0,0,1-1.413-1.815c-.143-.268-.134-.258-.082-.165a6.752,6.752,0,0,1-.625-2.207,5.754,5.754,0,0,1,.252-2.27,4.437,4.437,0,0,1,1.211-1.817,4.583,4.583,0,0,1,2.119-.959,8.8,8.8,0,0,1,2.27-.1q.147.008.293.024a12.086,12.086,0,0,1,1.905-.242,6.069,6.069,0,0,1,1.865.3,4.606,4.606,0,0,1,1.4.851,2.627,2.627,0,0,1,.8,1.128,1.719,1.719,0,0,1,.037,1.153,1.487,1.487,0,0,1-.837.832,3.81,3.81,0,0,1-.4.159,8.161,8.161,0,0,1,.235,1.092,5.232,5.232,0,0,1-.151,2.522,4.459,4.459,0,0,1-1.211,1.917,4.575,4.575,0,0,1-2.119.958,8.165,8.165,0,0,1-1.383.118Q-301.954-2824.354-302.221-2824.372Z" transform="translate(330.815 2852.534)"/>
        </g>
      </g>
    </g>
  </g>
</svg>
