<svg xmlns="http://www.w3.org/2000/svg" xmlns:xlink="http://www.w3.org/1999/xlink" viewBox="0 0 220.002 219.996">
  <defs>
    <style>
      .cls-1 {
        fill: #edebed;
      }

      .cls-2 {
        fill: #bdbdbd;
      }

      .cls-3 {
        clip-path: url(#clip-path);
      }

      .cls-4 {
        fill: #fbe9e7;
      }

      .cls-5 {
        fill: #212121;
      }

      .cls-6 {
        fill: #fff;
      }

      .cls-7 {
        fill: #5c5c5c;
      }

      .cls-8 {
        clip-path: url(#clip-path-2);
      }

      .cls-9 {
        fill: #fefefe;
      }

      .cls-10 {
        fill: #1a1a1a;
      }

      .cls-11 {
        fill: #dcdcdc;
      }

      .cls-12 {
        fill: #616161;
      }

      .cls-13, .cls-14 {
        fill: none;
        stroke: silver;
        stroke-miterlimit: 10;
      }

      .cls-13 {
        stroke-width: 0.669px;
      }

      .cls-14 {
        stroke-width: 0.335px;
      }

      .cls-15 {
        fill: #537d53;
      }
    </style>
    <clipPath id="clip-path">
      <circle id="Ellipse_1508" data-name="Ellipse 1508" cx="37" cy="37" r="37"/>
    </clipPath>
    <clipPath id="clip-path-2">
      <ellipse id="Ellipse_1511" data-name="Ellipse 1511" cx="36.931" cy="36.86" rx="36.931" ry="36.86" transform="translate(0 0)"/>
    </clipPath>
  </defs>
  <g id="ico-66" transform="translate(3.942)">
    <path id="Union_89" data-name="Union 89" class="cls-1" d="M-49.295-2229.2a3.259,3.259,0,0,1-1.532-1.985,3.264,3.264,0,0,1,.331-2.485,2.726,2.726,0,0,1,.509-.691h0a3.259,3.259,0,0,1,3.963-.508,85.413,85.413,0,0,0,85.165,0,3.271,3.271,0,0,1,4.47,1.2,3.272,3.272,0,0,1-1.2,4.47A91.981,91.981,0,0,1-3.44-2216.968,91.981,91.981,0,0,1-49.295-2229.2Zm148.89-83.2a85.212,85.212,0,0,0-60.123-60.14,3.267,3.267,0,0,1-2.3-4,3.268,3.268,0,0,1,4.005-2.3,91.726,91.726,0,0,1,64.773,64.791,3.263,3.263,0,0,1-.319,2.48,3.259,3.259,0,0,1-1.982,1.525,6.347,6.347,0,0,1-.873.094A3.33,3.33,0,0,1,99.595-2312.405Zm-210.295,2.442a5.037,5.037,0,0,1-.829-.093,3.258,3.258,0,0,1-1.98-1.523,3.262,3.262,0,0,1-.32-2.477,91.881,91.881,0,0,1,64.769-64.8,3.266,3.266,0,0,1,3.244.777,3.264,3.264,0,0,1,.869,3.22,3.262,3.262,0,0,1-2.413,2.3,85.433,85.433,0,0,0-60.16,60.151,3.291,3.291,0,0,1-3.179,2.439Z" transform="translate(110 2436.964)"/>
    <g id="Group_37548" data-name="Group 37548" transform="translate(141.059 131)">
      <g id="Group_37547" data-name="Group 37547">
        <circle id="Ellipse_1507" data-name="Ellipse 1507" class="cls-2" cx="37" cy="37" r="37"/>
        <g id="Group_37546" data-name="Group 37546" class="cls-3">
          <path id="Path_46551" data-name="Path 46551" class="cls-4" d="M360.29,412s-5.041,4.44-5.92,8.88c-.925,4.44,4.209,8.14,4.209,8.14s3.052-2.22,1.3-3.978c-2.035-1.989-2.821-1.619-2.821-3.422s4.533-8.14,4.533-8.14S363.158,410.934,360.29,412Z" transform="translate(-331.338 -353.307)"/>
          <path id="Path_46552" data-name="Path 46552" class="cls-4" d="M404.967,413.617s4.348,4.671,5.92,8.88c1.665,4.44-5.781,7.4-5.781,7.4s-4.486-5.226-1.2-4.718c2.821.416,4.347-.139,4.3-1.942,0-1.8-4.533-8.14-4.533-8.14S402.053,412.6,404.967,413.617Z" transform="translate(-357.376 -354.186)"/>
          <path id="Union_86" data-name="Union 86" class="cls-5" d="M-252.967-2484.68s.975-6.925,1.816-12.926a6.168,6.168,0,0,1-3.85-2.9s2.547-3.42,4.671-2.967c1.244-8.034,11-11.186,13.689-1.608,0,0,.23.625.583,1.716,2.183-.941,5.013,2.858,5.013,2.858a6.17,6.17,0,0,1-3.4,2.771,68.19,68.19,0,0,1,2.063,13.055,35.458,35.458,0,0,1-10.291,1.526A35.458,35.458,0,0,1-252.967-2484.68Z" transform="translate(280.162 2560.396)"/>
          <path id="Path_46553" data-name="Path 46553" class="cls-4" d="M364.683,439.089s3.284.833,2.729,2.451-2.544.324-2.544.324,1.85,3.978-.324,4.995c-2.22,1.018-3.885-1.434-3.978-3.145s0-4.024.925-5.18C362.371,437.378,364.683,439.089,364.683,439.089Z" transform="translate(-334.713 -367.494)"/>
          <path id="Path_46554" data-name="Path 46554" class="cls-4" d="M398.155,438.289s-3.284.832-2.729,2.451,2.544.324,2.544.324-1.85,3.977.324,4.995c2.22,1.018,3.885-1.434,3.978-3.145s0-4.024-.925-5.18S398.155,438.289,398.155,438.289Z" transform="translate(-353.432 -366.064)"/>
          <g id="Group_37545" data-name="Group 37545" transform="translate(32.56 50.782)">
            <path id="Path_46555" data-name="Path 46555" class="cls-6" d="M383.371,402.693v1.156L382.4,419.8l1.943,4.717,2.636-4.209-2.96-16.28,1.2-1.434Z" transform="translate(-379.024 -399.177)"/>
            <path id="Path_46556" data-name="Path 46556" class="cls-7" d="M385.5,398.622l1.434,2.96a6.414,6.414,0,0,0,3.376-4.44,6.3,6.3,0,0,0-.647-1.943A7.2,7.2,0,0,1,385.5,398.622Z" transform="translate(-380.69 -395.2)"/>
            <path id="Path_46557" data-name="Path 46557" class="cls-7" d="M379.91,399.913l-1.8,2.544a4.36,4.36,0,0,1-3.006-3.191s.416-1.434.879-1.665A5.631,5.631,0,0,0,379.91,399.913Z" transform="translate(-375.1 -396.49)"/>
          </g>
          <path id="Union_87" data-name="Union 87" class="cls-4" d="M-232.426-2466.829c-8.7-.416-14.477-3.376-16.927-7.585q-.163-.284-.307-.589c-1.749,2.373-5.349,1.458-3.485-3.437.971-2.59-2.82-4.532-1.619-8.556.5-1.662,2.789-2.218,4.5-1.539a81.445,81.445,0,0,1,2.345-9.98c2.913-9.294,12.21-12.44,19.147-12.486,8.51,0,16.187,3.885,17.76,13.736.588,3.687,1.125,7.445,1.38,10.94,1.564-1.194,4.5-.76,4.957.993.925,3.469-2.682,4.995-1.85,7.215,1.633,4.646-2.46,4.99-3.671,2.2a9.4,9.4,0,0,1-1.6,3.356c-3.854,4.844-7.033,5.984-13.544,5.985C-227.348-2466.579-229.67-2466.687-232.426-2466.829Z" transform="translate(266.003 2524.782)"/>
          <path id="Path_9749_2_" class="cls-5" d="M336.483,324.33c-.462-4.116-1.018-10.406.925-16.789,1.2-4.024,2.867-9.62,6.614-11.377,4.579-2.22,1.48,1.2,11.146-1.156,4.116-1.018,7.955-3.33,14.754-1.619,0,0,6.706,2.544,9.158,17.991v.046A49.679,49.679,0,0,1,380,322.2c0,1.018-.786,5.92-1.573,6.521-1.156.971-1.2-.139-1.341-.185-.416-.139.37-5.92.231-6.336-.463-2.59-2.451-10.776-6.66-12.672,0,0-2.636-.786-6.753,1.526-8.047,4.44-11.979.971-13.043.694-.046,0-1.341-.694-1.434-.74-.786-.37-5.6-2.174-7.77,2.359,0,.046-.046.093-.092.139-.324.509-2.312,3.7-2.821,10.776-.046.416-1.249,4.671-1.341,5.226h0C337.362,329.232,336.76,326.5,336.483,324.33Z" transform="translate(-321.544 -289.365)"/>
        </g>
      </g>
    </g>
    <g id="Group_37552" data-name="Group 37552" transform="translate(69.059 8)">
      <g id="Group_37551" data-name="Group 37551">
        <ellipse id="Ellipse_1510" data-name="Ellipse 1510" class="cls-2" cx="36.931" cy="36.86" rx="36.931" ry="36.86" transform="translate(0 0)"/>
        <g id="Group_37550" data-name="Group 37550" class="cls-8">
          <path id="Path_46562" data-name="Path 46562" class="cls-9" d="M213.906,123.07c-.37,2.775-1.017,6.151-1.618,9.943a177.094,177.094,0,0,0-2.588,21.32s11.139,1.9,21.123-.509c0,0-3.235-20.211-5.454-32.513C223.7,112.2,215.062,115.022,213.906,123.07Z" transform="translate(-182.152 -69.052)"/>
          <path id="Path_46563" data-name="Path 46563" class="cls-10" d="M232.161,160.667l-1.525-18.222.878-1.9-1.71-1.2V139.3h-.046v.046l-1.71,1.2.878,1.9L227.4,160.667" transform="translate(-191.671 -81.767)"/>
          <path id="Path_46564" data-name="Path 46564" class="cls-11" d="M237.407,133.5l-1.156,6.567-3.651-3.515Z" transform="translate(-194.468 -78.649)"/>
          <path id="Path_46565" data-name="Path 46565" class="cls-11" d="M222.1,133.5l1.248,6.475,3.559-3.422Z" transform="translate(-188.821 -78.649)"/>
          <path id="Path_46566" data-name="Path 46566" class="cls-7" d="M231.5,128.846l1.618,3.33a7.078,7.078,0,0,0,3.79-4.949s-.324-1.85-.693-2.127C236.168,125.053,234.412,128.2,231.5,128.846Z" transform="translate(-193.876 -74.134)"/>
          <path id="Path_46567" data-name="Path 46567" class="cls-7" d="M225.208,130.243l-2.034,2.867a4.858,4.858,0,0,1-3.374-3.561s.462-1.619.971-1.85a6.844,6.844,0,0,0,4.437,2.544Z" transform="translate(-187.584 -75.531)"/>
          <path id="Union_84" data-name="Union 84" class="cls-5" d="M-173.849-2355.792c.37-3.283-.647-8.186.416-10.96a5.364,5.364,0,0,0,.2-.771c-1.08,1.2-2.965,3.124-4.367,3.684-2.08.833-2.492-6.243-4.991-10.406-2.542-4.162,7.488-10.823,7.488-10.823s7.078-8.24,5.061,2.909c.441.743,1.031,1.724,1.966,1.806.783,0,.047.833,4.484,8.742,0,.046.046.046.046,0,.878-2.679,2.727-8.924,3.836-9.2,1.479-.37.647-1.434,1.664-1.294a11.45,11.45,0,0,1,1.524.355c-.091-1.923-.038-4.849,1.016-5.813,1.618-1.481,6.656,6.382,10.354,9.342s-3.19,12.395-3.19,12.395-2.759,7.383-4.723,2.384c.248,4.208.336,7.422.336,7.422q-6.009.533-12.043.533Q-169.31-2355.49-173.849-2355.792Zm20.378-13.377c5.458-3.077,1.343-7.457-1.238-9.573A88.158,88.158,0,0,1-153.47-2369.169Zm-19.456-.135c.455-3.061.968-7.936,1.3-10.615C-178.427-2378.642-174.494-2371.679-172.927-2369.3Z" transform="translate(201.354 2442.184)"/>
          <path id="Union_88" data-name="Union 88" class="cls-12" d="M-169.963-2388l2.31,1.757.047,4.625-1.757.878,1.2,1.018-7.164,8.186Zm-12.482,8.278,1.2-1.018-1.756-.878.046-4.625L-180.6-2388l5.271,16.464Z" transform="translate(213.134 2441.787)"/>
          <g id="Group_37549" data-name="Group 37549" transform="translate(15.338 1.295)">
            <path id="Union_83" data-name="Union 83" class="cls-4" d="M-194.772-2354.819a18.737,18.737,0,0,1-.049-4.013c-3.809-.79-4.7-8.181-1.8-8.659a4.038,4.038,0,0,1,2.926.654c1.394-7.424,3.577-15.2,4.194-16.1,5.917-8.417,25.375-7.955,28.8-1.665.662,1.207,1.989,9.258,2.76,17.147a3.093,3.093,0,0,1,2.043-.267c2.549.47,1.8,7.606-1.478,8.537.048,1.627.039,3.1-.043,4.32-.374,5.551-9.85,13.366-18.4,13.366C-181.737-2341.5-193.708-2348.344-194.772-2354.819Z" transform="translate(198.337 2398.339)"/>
            <path id="Path_46582" data-name="Path 46582" class="cls-5" d="M226.308,52.849l-.416.462s-.139-7.4-.647-9.25c0,0-1.109-4.162-2.819-4.995,0,0,1.479-5.134-2.4-6.845a18.777,18.777,0,0,1-12.48,4.764,17.569,17.569,0,0,1-10.261-2.914,5.334,5.334,0,0,0-.231,4.394s-3.143,3.33-3.559,7.353c0,0-.139,5.319.092,6.66a8.229,8.229,0,0,1-1.387-1.295,7.037,7.037,0,0,1-1.525-3.376,31.708,31.708,0,0,1-.139-12.672s1.2-5.18,2.265-5.6c0,0-2.4-7.353-1.9-9.25,0,0,1.433,3.607,6.194,3.145a8.748,8.748,0,0,1-1.572-5.735s3.6,2.682,7.442,1.942a20.418,20.418,0,0,0,4.021-.879,13.658,13.658,0,0,1,2.08-.6c2.681-.462,8.458-.971,11.278,2.451a10.378,10.378,0,0,1,2.588,4.579s5.916,4.162,6.24,11.377a49.319,49.319,0,0,1-.139,9.9,13.63,13.63,0,0,1-1.525,4.625h0a8.385,8.385,0,0,1-1.2,1.759Z" transform="translate(-186.875 -17.7)"/>
          </g>
        </g>
      </g>
    </g>
    <g id="Group_37578" data-name="Group 37578" transform="translate(-1.941 131)">
      <g id="Group_37577" data-name="Group 37577">
        <circle id="Ellipse_1513" data-name="Ellipse 1513" class="cls-2" cx="37" cy="37" r="37"/>
        <g id="Group_37576" data-name="Group 37576" class="cls-3">
          <path id="Union_107" data-name="Union 107" class="cls-12" d="M-43.34-2475.643a39.886,39.886,0,0,1-3.224-8.538c.012.1.023.205.035.307.37,2.821.786,4.949,1.156,6.614a30.526,30.526,0,0,0,1.068,3.469,5.541,5.541,0,0,0,.463,1.017,102.082,102.082,0,0,1-10.174.925,67.253,67.253,0,0,1-7.585-.046c-2.083-.138-3.654-.323-4.718-.462a16.128,16.128,0,0,1-1.619-.278c.782-2.823,1.383-5,1.8-6.8q.041-.174.081-.349l-.039.071a28.757,28.757,0,0,1-6.059,7.585,29.548,29.548,0,0,1-9.574,5.689s-.276-.139-.694-.37A16.452,16.452,0,0,1-84-2467.963,11.213,11.213,0,0,1-85.753-2470,9.344,9.344,0,0,1-87-2473,26.812,26.812,0,0,0-84-2474.2a37.271,37.271,0,0,0,6.66-3.931,25.791,25.791,0,0,0,6.66-7.076,19.429,19.429,0,0,0,3.053-10.591,1.208,1.208,0,0,1,.416-.878,1.4,1.4,0,0,1,1.017-.462,1.828,1.828,0,0,1,1.3.649q.185.2.348.415a5.4,5.4,0,0,1,1.776-1.714,13.543,13.543,0,0,1,6.2-2.127,11.693,11.693,0,0,1,6.29,1.018,5.084,5.084,0,0,1,2.549,2.533,23.042,23.042,0,0,1,.364-3.321,3.281,3.281,0,0,1,1.065.836,3.949,3.949,0,0,1,.647.971,7.273,7.273,0,0,1,.324.786c.046.185.092.324.092.324a36.429,36.429,0,0,0,3.7,12.3,33,33,0,0,0,5.736,8,32.385,32.385,0,0,0,5.273,4.348,20.746,20.746,0,0,0,2.311,1.3,6.358,6.358,0,0,1-.833,3.145,8.251,8.251,0,0,1-1.85,2.266,12.146,12.146,0,0,1-1.85,1.341,6.377,6.377,0,0,1-.832.462A39.371,39.371,0,0,1-43.34-2475.643Z" transform="translate(94.445 2559.538)"/>
          <g id="Group_37569" data-name="Group 37569" transform="translate(27.796 58.136)">
            <path id="Union_108" data-name="Union 108" class="cls-6" d="M-101.816-2549.949c-.464-.323-.971-.74-1.48-1.156s-.972-.832-1.341-1.156c-.184-.162-.334-.289-.438-.376-.093.083-.212.195-.347.33-.324.276-.786.694-1.249,1.064s-.97.786-1.387,1.064a3.165,3.165,0,0,1-.878.509,6.852,6.852,0,0,1-1.389-.695,16.568,16.568,0,0,1-2.359-1.711,7.719,7.719,0,0,1-1.85-2.127,1.664,1.664,0,0,1,.185-2.035,3.408,3.408,0,0,1,1.851-.891,10.488,10.488,0,0,1,1.2-.313,32.007,32.007,0,0,1,3.422-.509c1.248-.093,2.543-.185,3.884-.185a31.229,31.229,0,0,1,3.7.231,15.608,15.608,0,0,1,3.006.6q.291.07.573.167a3.6,3.6,0,0,1,1.739.9,1.667,1.667,0,0,1,.185,2.128,8.156,8.156,0,0,1-2.035,2.22,23.462,23.462,0,0,1-2.59,1.757,7.677,7.677,0,0,1-1.48.694A2.3,2.3,0,0,1-101.816-2549.949Z" transform="translate(114.811 2558.136)"/>
          </g>
          <g id="Group_37554" data-name="Group 37554" transform="translate(5.682 1.916)">
            <path id="Path_46585" data-name="Path 46585" class="cls-5" d="M65.626,336.735c2.035,5.457,3.515,18.13.185,23.217,9.111-14.106,8.094-30.479,7.354-46.019-.555-12.441-12.349-23.217-26.686-23.865-5.134-.231-11.146,1.018-13.32,5.087-4.671-1.156-9.759.74-13.181,3.793-17.482,15.494-.6,42.365,9.065,57.35-2.729-4.209-1.573-10.406-2.775-14.985-1.11-4.255-1.9-6.984.971-11.146a2.091,2.091,0,0,1,1.017-.879,1.762,1.762,0,0,1,1.9.648,4.088,4.088,0,0,1,.694,1.8c1.2,5.457,2.451,13.736,6.706,18.13,3.839,3.978,12.465-1.341,15.147-6.614,3.006-5.92,6.775-5.088,9.6-11.285.647-.416,1.388.37,1.711,1.018C64.563,334.145,65.118,335.44,65.626,336.735Z" transform="translate(-12.386 -290.043)"/>
          </g>
          <path id="Union_85" data-name="Union 85" class="cls-4" d="M-93.085-2464.311a40.567,40.567,0,0,1-7.724-3.514,37.792,37.792,0,0,1-5.735-4.164c-1.435-1.294-2.267-2.5-2.313-3.237q-.021-.811,0-1.622a2.2,2.2,0,0,1-.34-.25,5.079,5.079,0,0,1-1.526-2.776,8.477,8.477,0,0,1-.185-3.377c.185-.97.6-1.757,1.249-1.941a2.367,2.367,0,0,1,1.711.046l.017.007c.181-1.138.383-2.3.6-3.457.509-2.683,1.111-5.319,1.758-7.539a18.306,18.306,0,0,1,2.021-4.893l.071-.1a25.518,25.518,0,0,1,9.527-8.233,19.638,19.638,0,0,1,9.99-1.526,22.684,22.684,0,0,1,8.742,2.868,18.757,18.757,0,0,1,5.919,5.134,24.654,24.654,0,0,1,2.312,4.9c.827,2.221,1.664,4.81,2.4,7.492s1.384,5.412,1.8,7.862a28.428,28.428,0,0,1,.509,6.013c-.047.971-.833,2.266-2.128,3.7a29.089,29.089,0,0,1-5.225,4.441,35.194,35.194,0,0,1-7.169,3.792,25.545,25.545,0,0,1-8,1.711h-.23A24.812,24.812,0,0,1-93.085-2464.311Zm-10.457-36.737-.012.02-.022.029Zm.049-.082c1.754-2.424,1.144-1.577.534-.731-.247.344-.494.687-.583.813Z" transform="translate(123.613 2527.123)"/>
          <g id="Group_37575" data-name="Group 37575" transform="translate(14.708 15.47)">
            <path id="Path_46629" data-name="Path 46629" class="cls-5" d="M79.491,324.923c-.694-.416-11.516-5.457-12.3-5.55s-19.61.092-20.119.509c-.555.37-12.9,6.706-13.875,6.8l-1.3,13.966,1.619,8.741s.416-11.285,2.59-14.893c2.266-3.793,7.585-6.336,10.776-9.759-2.914,3.145,12.9,6.383,14.2,6.706A15.444,15.444,0,0,1,72.093,343.19a55.721,55.721,0,0,1-.416,24.559,36.547,36.547,0,0,0,8.7-16.6c.879-4.533,2.035-10.638,1.434-15.077C81.526,333.942,81.758,326.264,79.491,324.923Z" transform="translate(-31.9 -319.35)"/>
          </g>
          <g id="Group_37572" data-name="Group 37572" transform="translate(27.519 23.033)">
            <g id="Group_37571" data-name="Group 37571">
              <path id="Path_46627" data-name="Path 46627" class="cls-13" d="M59.6,335.7" transform="translate(-59.6 -335.7)"/>
            </g>
          </g>
          <g id="Group_37574" data-name="Group 37574" transform="translate(44.076 21.737)">
            <g id="Group_37573" data-name="Group 37573">
              <path id="Path_46628" data-name="Path 46628" class="cls-14" d="M95.4,332.9" transform="translate(-95.4 -332.9)"/>
            </g>
          </g>
        </g>
      </g>
    </g>
    <g id="Group_37580" data-name="Group 37580" transform="translate(76.059)">
      <path id="Path_46630" data-name="Path 46630" class="cls-15" d="M226.966,18.05H175.034A4.045,4.045,0,0,1,171,14.017V4.034A4.045,4.045,0,0,1,175.034,0h51.933A4.045,4.045,0,0,1,231,4.034v9.983A4.045,4.045,0,0,1,226.966,18.05Z" transform="translate(-171)"/>
      <g id="Group_37579" data-name="Group 37579" transform="translate(18.555 3.479)">
        <path id="Path_46631" data-name="Path 46631" class="cls-6" d="M218.489,16.782v.908H207.8v-.908h4.84V13.807h-3.731V12.95h3.731V10.277h-4.286V9.37h5.294a12.745,12.745,0,0,0-2.066-1.87l.706-.5a12.3,12.3,0,0,1,2.218,1.966l-.555.4h3.933v.908H213.6V12.95h3.782v.857H213.6v2.975Z" transform="translate(-207.8 -6.95)"/>
        <path id="Path_46632" data-name="Path 46632" class="cls-6" d="M233.366,8.564a8.117,8.117,0,0,1-1.26,1.563l-.6-.605A7.1,7.1,0,0,0,233.366,6.9l.807.2a3.081,3.081,0,0,1-.353.706h3.126v.706h-2.269a10.483,10.483,0,0,1,1.059,1.059l-.6.5c-.252-.3-.756-.807-1.109-1.21l.454-.353h-1.109Zm3.681.857c.151.3.353.605.5.908h4.387V12.3h-.908V11.034h-8.017V12.3h-.857V10.329h4.437c-.1-.252-.252-.555-.353-.756Zm-2.622,5.6h6.706V18h-.908v-.4h-5.8v.454h-.908V11.791h6.958v2.42h-6.05Zm0-2.521v1.008h5.193V12.5Zm0,3.227v1.16h5.8v-1.16Zm8.017-7.866v.706H239.82a15.09,15.09,0,0,1,1.261,1.109l-.6.555a14.585,14.585,0,0,0-1.26-1.21l.5-.4H238.3a8.628,8.628,0,0,1-.908,1.008,7.544,7.544,0,0,0-.655-.555,4.962,4.962,0,0,0,1.513-2.118l.807.2a5.091,5.091,0,0,1-.353.756h3.731Z" transform="translate(-219.55 -6.9)"/>
      </g>
    </g>
    <g id="Group_37582" data-name="Group 37582" transform="translate(148.059 123)">
      <path id="Path_46633" data-name="Path 46633" class="cls-15" d="M381.666,297.55H329.734a4.045,4.045,0,0,1-4.034-4.034v-9.983a4.046,4.046,0,0,1,4.034-4.034h51.933a4.046,4.046,0,0,1,4.034,4.034v9.983a4.046,4.046,0,0,1-4.035,4.034Z" transform="translate(-325.7 -279.5)"/>
      <g id="Group_37581" data-name="Group 37581" transform="translate(12.504 3.429)">
        <path id="Path_46634" data-name="Path 46634" class="cls-6" d="M360.685,290.433a29.74,29.74,0,0,1-2.521,2.521,8.49,8.49,0,0,0,3.378,2.773,3.221,3.221,0,0,0-.655.756,9.938,9.938,0,0,1-4.487-4.992v4.79c0,.605-.151.908-.555,1.059a7.16,7.16,0,0,1-2.168.2c-.05-.252-.2-.655-.3-.958h1.866c.2,0,.3-.05.3-.3V293.61c-1.563.958-3.227,1.966-4.437,2.672l-.605-.807c1.21-.605,3.176-1.714,5.042-2.773v-3.328H350.8v-.857h4.739V286.5h.908v2.017h3.227a13.949,13.949,0,0,0-2.118-1.361l.555-.555a17.084,17.084,0,0,1,2.219,1.361l-.5.605h1.513v.857H356.5v.151a14.153,14.153,0,0,0,1.361,2.773,19.688,19.688,0,0,0,2.219-2.42Zm-7.311,2.42a11.2,11.2,0,0,0-1.966-2.319l.655-.454a10.05,10.05,0,0,1,2.017,2.218Z" transform="translate(-350.5 -286.399)"/>
        <path id="Path_46635" data-name="Path 46635" class="cls-6" d="M377.629,287.712v9.731h-.706v-2.42c-.908.2-1.815.4-2.521.605l-.2-.756.756-.151v-7.008H374.3v-.807h3.882v.807h-.555Zm-.706,0h-1.26v1.714h1.26Zm0,2.471h-1.26V291.9h1.26Zm-1.26,4.387c.4-.1.857-.2,1.26-.3V292.6h-1.26Zm9.479-2.773a12.266,12.266,0,0,1-1.563,3.025c.2,1.008.454,1.563.756,1.563.2,0,.353-.655.4-1.765a4.727,4.727,0,0,0,.6.454c-.2,1.815-.6,2.319-1.008,2.269-.605,0-1.008-.655-1.361-1.815a11.743,11.743,0,0,1-1.866,1.714,4.754,4.754,0,0,0-.5-.5,7.859,7.859,0,0,0,1.008-.807h-.655v-.3h-1.714v.857h-.706V291.45h3.126v4.538a9.788,9.788,0,0,0,1.16-1.311,35.312,35.312,0,0,1-.4-3.933h-4.336v-.807h.807a7.9,7.9,0,0,0-.3-1.412l.655-.1a8.206,8.206,0,0,1,.353,1.513h.857a8.2,8.2,0,0,0,.353-1.513l.756.151c-.151.454-.3.958-.454,1.361h1.21c-.05-1.109-.1-2.37-.1-3.63h.807c0,1.26.05,2.471.1,3.63H385.3v.807h-2.118a23.641,23.641,0,0,0,.3,2.975,10.744,10.744,0,0,0,1.008-2.319Zm-3.277-3.429h-3.63v-.706h1.513a6.585,6.585,0,0,0-.4-1.059l.756-.151a6.172,6.172,0,0,1,.5,1.21h1.311v.706Zm-2.622,3.731v1.109h1.714V292.1Zm1.714,2.924v-1.16h-1.714v1.16Zm3.328-5.6a11.78,11.78,0,0,0-.908-2.067l.655-.252a9.282,9.282,0,0,1,.958,2.067Z" transform="translate(-362.25 -286.3)"/>
        <path id="Path_46636" data-name="Path 46636" class="cls-6" d="M404.554,291.089a18.785,18.785,0,0,1-1.966,1.26h4.992v5.042h-.908v-.353h-4.891v.4h-.908v-4.185c-.706.353-1.462.655-2.219.958a7.2,7.2,0,0,0-.555-.756,22.832,22.832,0,0,0,4.992-2.42H398.4v-.807h4.134v-1.513h-3.076v-.807h3.076V286.4h.908v1.513h2.975v.5a13.578,13.578,0,0,0,1.361-1.613l.756.4a18.421,18.421,0,0,1-2.924,3.025h3.479v.807h-4.538Zm2.168,2.017h-4.891v1.21h4.891Zm0,3.176v-1.26h-4.891v1.26Zm-2.471-6a18.393,18.393,0,0,0,1.815-1.563h-2.672v1.563Z" transform="translate(-374.1 -286.35)"/>
      </g>
    </g>
    <g id="Group_37584" data-name="Group 37584" transform="translate(5.059 123)">
      <path id="Path_46637" data-name="Path 46637" class="cls-15" d="M76.266,295.45H24.334a4.045,4.045,0,0,1-4.034-4.034v-9.983a4.045,4.045,0,0,1,4.034-4.034H76.266a4.046,4.046,0,0,1,4.034,4.034v9.983A4.045,4.045,0,0,1,76.266,295.45Z" transform="translate(-20.3 -277.4)"/>
      <g id="Group_37583" data-name="Group 37583" transform="translate(24.504 4.588)">
        <path id="Path_46638" data-name="Path 46638" class="cls-6" d="M68.9,286.5h1.109v3.731h2.37V286.5h1.109v8.874H72.379v-4.185h-2.37v4.185H68.9Z" transform="translate(-68.9 -286.5)"/>
        <path id="Path_46639" data-name="Path 46639" class="cls-6" d="M84.73,295.374l-1.613-3.782H82.26v3.782H81.1V286.5h1.966c1.563,0,2.672.655,2.672,2.521a2.289,2.289,0,0,1-1.563,2.42l1.714,3.933H84.73Zm-1.815-4.639a1.522,1.522,0,0,0,1.714-1.714c0-1.16-.605-1.563-1.714-1.563H82.26v3.328h.655Z" transform="translate(-74.949 -286.5)"/>
      </g>
    </g>
  </g>
</svg>
