<svg xmlns="http://www.w3.org/2000/svg" viewBox="0 0 220 220">
  <defs>
    <style>
      .cls-1 {
        fill: #fff;
        stroke: #707070;
        opacity: 0;
      }

      .cls-2 {
        fill: #696;
      }

      .cls-3 {
        fill: #f897c4;
      }

      .cls-4 {
        fill: #86e8e8;
      }

      .cls-5 {
        fill: #fff8a1;
      }

      .cls-6 {
        stroke: none;
      }

      .cls-7 {
        fill: none;
      }
    </style>
  </defs>
  <g id="ico-13" transform="translate(-2711 -812)">
    <g id="Rectangle_9200" data-name="Rectangle 9200" class="cls-1" transform="translate(2711 812)">
      <rect class="cls-6" width="220" height="220"/>
      <rect class="cls-7" x="0.5" y="0.5" width="219" height="219"/>
    </g>
    <g id="puzzle" transform="translate(2713.999 816)">
      <path id="Path_46774" data-name="Path 46774" class="cls-2" d="M358.847,175a6.238,6.238,0,0,0,0-8.824l-50.338-49.922-55.634-6.508,1.3,60.842,17.161,56.682,37.173-2.348,11.853-11.853,6.01-6.01a12.311,12.311,0,0,0,12.046,10.331,12.481,12.481,0,0,0,12.481-12.48,12.311,12.311,0,0,0-10.331-12.046l6.01-6.01Z" transform="translate(-147.674 -64.092)"/>
      <path id="Path_46775" data-name="Path 46775" class="cls-3" d="M76.6,114.748l-24.433,4.429L40.314,131.03l-6.01,6.01a12.312,12.312,0,0,0-12.047-10.331,12.48,12.48,0,0,0-12.481,12.48,12.311,12.311,0,0,0,10.331,12.046l-6.01,6.01L1.829,169.1a6.238,6.238,0,0,0,0,8.824l50.338,49.922,54.074-7.793.26-46.541Z" transform="translate(0 -67.011)"/>
      <path id="Path_46776" data-name="Path 46776" class="cls-4" d="M210.93,287.2a12.48,12.48,0,1,0-12.481-12.48L179.729,256,161.008,274.72a12.48,12.48,0,1,1-12.481,12.48L125.4,310.333l7.411,7.41,4.443,4.443,6.01,6.01a12.311,12.311,0,0,0-10.332,12.046,12.481,12.481,0,0,0,12.481,12.48,12.311,12.311,0,0,0,12.047-10.331l6.01,6.01,11.853,12.269a6.237,6.237,0,0,0,8.824,0l49.922-50.338Z" transform="translate(-73.228 -149.499)"/>
      <path id="Path_46777" data-name="Path 46777" class="cls-5" d="M222.21,40.313,216.2,34.3A12.312,12.312,0,0,0,226.53,22.256,12.48,12.48,0,0,0,214.05,9.776,12.311,12.311,0,0,0,202,20.107l-6.01-6.01L184.14,1.828a6.238,6.238,0,0,0-8.824,0L125.394,52.166,148.527,75.3a12.48,12.48,0,1,0,12.481,12.48L179.728,106.5l18.721-18.721A12.48,12.48,0,1,1,210.93,75.3l23.133-23.133Z" transform="translate(-73.227)"/>
    </g>
  </g>
</svg>
