<svg xmlns="http://www.w3.org/2000/svg" xmlns:xlink="http://www.w3.org/1999/xlink" viewBox="0 0 172.605 220.001">
  <defs>
    <style>
      .cls-1 {
        fill: #537d53;
      }

      .cls-2 {
        fill: #82c482;
      }

      .cls-3 {
        fill: #696;
      }

      .cls-4 {
        fill: #6ba16b;
      }

      .cls-5 {
        fill: #bdbdbd;
      }

      .cls-6 {
        clip-path: url(#clip-path);
      }

      .cls-7 {
        fill: #fefefe;
      }

      .cls-8 {
        fill: #1a1a1a;
      }

      .cls-9 {
        fill: #fdfdfd;
      }

      .cls-10 {
        fill: #5c5c5c;
      }

      .cls-11 {
        fill: #212121;
      }

      .cls-12 {
        fill: #616161;
      }

      .cls-13 {
        fill: #fbe9e7;
      }

      .cls-14 {
        clip-path: url(#clip-path-2);
      }

      .cls-15 {
        fill: #fff;
      }

      .cls-16 {
        clip-path: url(#clip-path-3);
      }

      .cls-17, .cls-18 {
        fill: none;
        stroke: silver;
        stroke-miterlimit: 10;
      }

      .cls-17 {
        stroke-width: 0.669px;
      }

      .cls-18 {
        stroke-width: 0.335px;
      }

      .cls-19 {
        clip-path: url(#clip-path-4);
      }
    </style>
    <clipPath id="clip-path">
      <circle id="Ellipse_1492" data-name="Ellipse 1492" cx="18.229" cy="18.229" r="18.229" transform="translate(0 0)"/>
    </clipPath>
    <clipPath id="clip-path-2">
      <circle id="Ellipse_1489" data-name="Ellipse 1489" cx="30.715" cy="30.715" r="30.715" transform="translate(0 0)"/>
    </clipPath>
    <clipPath id="clip-path-3">
      <circle id="Ellipse_1495" data-name="Ellipse 1495" cx="30.465" cy="30.465" r="30.465" transform="translate(0 0)"/>
    </clipPath>
    <clipPath id="clip-path-4">
      <circle id="Ellipse_1498" data-name="Ellipse 1498" cx="16.631" cy="16.631" r="16.631" transform="translate(0 0)"/>
    </clipPath>
  </defs>
  <g id="ico-100" transform="translate(1)">
    <g id="Group_37507" data-name="Group 37507" transform="translate(4.295 94.493)">
      <path id="Path_46460" data-name="Path 46460" class="cls-1" d="M143.8,244.132,157.381,228.7H8.6l60.431,68.572V334.48H96.95V311.006a40.624,40.624,0,0,0,12.486,4.245A41.133,41.133,0,0,0,143.8,244.132Zm-9.04,46.9a24.716,24.716,0,0,1-34.461,2.5l32.613-37.008a24.7,24.7,0,0,1,1.845,34.5Z" transform="translate(-8.6 -208.972)"/>
      <rect id="Rectangle_9188" data-name="Rectangle 9188" class="cls-2" width="148.781" height="19.778"/>
      <g id="Group_37506" data-name="Group 37506">
        <rect id="Rectangle_9189" data-name="Rectangle 9189" class="cls-3" width="74.365" height="19.778" transform="translate(74.415)"/>
        <path id="Path_46461" data-name="Path 46461" class="cls-4" d="M83.015,334.48V228.7H8.6l60.431,68.572V334.48Z" transform="translate(-8.6 -208.972)"/>
      </g>
    </g>
    <g id="Group_37454" data-name="Group 37454" transform="translate(64.677)">
      <g id="Group_37453" data-name="Group 37453">
        <circle id="Ellipse_1491" data-name="Ellipse 1491" class="cls-5" cx="18.229" cy="18.229" r="18.229" transform="translate(0 0)"/>
        <g id="Group_37452" data-name="Group 37452" class="cls-6">
          <path id="Path_46345" data-name="Path 46345" class="cls-7" d="M164.093,49.862c.05,1.4.1,3.1.1,4.994a80.072,80.072,0,0,0,.7,10.588A30.183,30.183,0,0,0,175.08,63.3s-3.4-9.539-5.594-15.283C167.838,43.67,163.893,45.867,164.093,49.862Z" transform="translate(-146.812 -22.843)"/>
          <path id="Path_46346" data-name="Path 46346" class="cls-8" d="M173.246,66.538l-2.4-8.74.25-.949-.949-.449h0l-.749.749L170,58l.9,8.99" transform="translate(-149.473 -28.232)"/>
          <path id="Path_46347" data-name="Path 46347" class="cls-9" d="M173,52.9v3.3l-2.1-1.4Z" transform="translate(-150.223 -26.48)"/>
          <path id="Path_46348" data-name="Path 46348" class="cls-9" d="M165.7,54.6l1.2,3.047,1.4-2Z" transform="translate(-147.621 -27.331)"/>
          <path id="Path_46349" data-name="Path 46349" class="cls-10" d="M169.9,51.4l1.1,1.448a3.5,3.5,0,0,0,1.4-2.747,4.139,4.139,0,0,0-.549-1,4.437,4.437,0,0,1-1.951,2.3Z" transform="translate(-149.723 -24.578)"/>
          <path id="Path_46350" data-name="Path 46350" class="cls-10" d="M167.247,52.8l-.7,1.548A2.327,2.327,0,0,1,164.6,52.9a2.647,2.647,0,0,1,.3-1A2.787,2.787,0,0,0,167.247,52.8Z" transform="translate(-147.07 -25.979)"/>
          <path id="Union_94" data-name="Union 94" class="cls-11" d="M27.78-2713.172a2.13,2.13,0,0,0,.023-.279,9.766,9.766,0,0,1-1.72,2.075c-.953.6-1.8-2.8-3.4-4.6s2.647-5.943,2.647-5.943,2.686-4.656,2.723.953c.042.045.086.091.132.138a1.158,1.158,0,0,0,.988.46c.347-.054.047.4,2.948,3.846h.049c.151-1.349.5-4.545,1-4.8.7-.35.2-.8.7-.8a5.827,5.827,0,0,1,.7.045c-.207-.925-.41-2.266,0-2.8.649-.845,3.845,2.5,5.893,3.6,2.1,1.1-.4,6.293-.4,6.293s-.65,3.707-2.055,1.674c.487,1.947.81,3.422.81,3.422a65.116,65.116,0,0,1-10.238,2.048C28.43-2709.426,27.531-2711.723,27.78-2713.172Zm.005-1.35c-.063-1.531-.251-3.9-.326-5.2C24.424-2718.513,26.78-2715.589,27.785-2714.521Zm9.468-1.651c2.255-1.917.018-3.631-1.423-4.445C36.311-2719.4,36.807-2717.782,37.253-2716.172Z" transform="translate(-10.447 2750.931)"/>
          <path id="Union_95" data-name="Union 95" class="cls-12" d="M27.368-2716.511h0l-4.2-3.343.5-.6-.949-.25-.4-2.247,1-1.1,4.045,7.536,1.1-8.485,1.3.649.449,2.247-.8.6.7.35-2.747,4.641,0,0Z" transform="translate(-5.692 2750.871)"/>
          <g id="Group_37451" data-name="Group 37451" transform="translate(6.738 0.42)">
            <path id="Path_46362" data-name="Path 46362" class="cls-13" d="M181.9,29.6s.15-1.7,1.648-1.7,1.648,4.894-.9,4.4A11.376,11.376,0,0,1,181.9,29.6Z" transform="translate(-162.468 -14.386)"/>
            <path id="Path_46363" data-name="Path 46363" class="cls-13" d="M147.59,36.228a2.041,2.041,0,0,0-2.4-.949c-1.6.6.2,5.194,2.647,3.746A7.023,7.023,0,0,0,147.59,36.228Z" transform="translate(-143.79 -18.019)"/>
            <path id="Path_46364" data-name="Path 46364" class="cls-13" d="M149.323,14.4c-.35.8-1.1,11.087,0,14.134s7.541,5.294,10.388,4.745c4.145-.8,8.041-5.444,7.691-8.141-.5-4.045-3.6-13.285-4.3-14.134C160.91,8.2,151.421,9.753,149.323,14.4Z" transform="translate(-145.873 -5.229)"/>
            <path id="Path_46365" data-name="Path 46365" class="cls-11" d="M163.073,16.8l-.15.25a39.4,39.4,0,0,0-1.149-4.445s-.9-1.948-1.8-2.2c0,0,.25-2.647-1.8-3.1a9.148,9.148,0,0,1-5.644,3.446,8.552,8.552,0,0,1-5.244-.5,2.552,2.552,0,0,0,.3,2.148,6.859,6.859,0,0,0-1.049,3.9,30.357,30.357,0,0,0,.649,3.246,4.855,4.855,0,0,1-.8-.5,3.892,3.892,0,0,1-1.049-1.5,14.613,14.613,0,0,1-1.2-6.143s.1-2.647.6-2.947c0,0-1.848-3.346-1.748-4.345a2.9,2.9,0,0,0,3.3,1,4.287,4.287,0,0,1-1.3-2.647,5.4,5.4,0,0,0,3.8.25,9.1,9.1,0,0,0,1.848-.8,3.313,3.313,0,0,1,.949-.449c1.249-.449,4-1.249,5.694.2a4.8,4.8,0,0,1,1.648,2,7.876,7.876,0,0,1,4.045,4.944,21.105,21.105,0,0,1,.8,4.8,7.9,7.9,0,0,1-.3,2.4h0A2.99,2.99,0,0,1,163.073,16.8Z" transform="translate(-142.992 -0.842)"/>
          </g>
        </g>
      </g>
    </g>
    <g id="Group_37450" data-name="Group 37450" transform="translate(110.175 11.287)">
      <g id="Group_37449" data-name="Group 37449">
        <circle id="Ellipse_1488" data-name="Ellipse 1488" class="cls-5" cx="30.715" cy="30.715" r="30.715" transform="translate(0 0)"/>
        <g id="Group_37448" data-name="Group 37448" class="cls-14">
          <path id="Path_46334" data-name="Path 46334" class="cls-13" d="M244.732,109.8s-5.394,1.348-7.791,4.245c-2.347,2.9-.05,7.591-.05,7.591s3.1-.449,2.5-2.447c-.7-2.247-1.448-2.3-.749-3.6s6.493-4.245,6.493-4.245S247.279,110.15,244.732,109.8Z" transform="translate(-228.251 -66.249)"/>
          <path id="Path_46335" data-name="Path 46335" class="cls-13" d="M273.969,124.508s1.4,5.094.949,8.79c-.449,3.9-7.092,3.246-7.092,3.246s-1.3-5.544.949-3.946c1.9,1.4,3.246,1.548,3.9.25.7-1.348-.2-7.741-.2-7.741S272.221,122.66,273.969,124.508Z" transform="translate(-244.053 -73.266)"/>
          <path id="Union_97" data-name="Union 97" class="cls-11" d="M-23.175-2720.272s3.357-4.705,6.272-8.785a4.916,4.916,0,0,1-1.676-3.606s3.146-1.515,4.54-.4c3.96-5.4,12.369-3.99,10.691,4.051q-.112.763-.241,1.522c1.937.175,2.543,4.025,2.543,4.025a5.057,5.057,0,0,1-3.535.745,66.98,66.98,0,0,1-3.461,10.339A29.432,29.432,0,0,1-23.175-2720.272Z" transform="translate(31.865 2775.659)"/>
          <path id="Path_46336" data-name="Path 46336" class="cls-13" d="M240.1,127.873s2.1,1.848,1.1,2.847c-1.049,1-2-.749-2-.749s-.15,3.646-2.2,3.546c-2-.1-2.3-2.547-1.748-3.846.6-1.3,1.548-2.947,2.647-3.446C239.052,125.725,240.1,127.873,240.1,127.873Z" transform="translate(-227.815 -74.433)"/>
          <path id="Path_46337" data-name="Path 46337" class="cls-13" d="M264.034,140.249s-2.747-.649-2.947.749,1.748,1.2,1.748,1.2-2.9,2.2-1.648,3.8,3.446.449,4.145-.8c.7-1.2,1.548-2.947,1.3-4.145S264.034,140.249,264.034,140.249Z" transform="translate(-240.76 -81.416)"/>
          <g id="Group_37447" data-name="Group 37447" transform="translate(16.381 40.303)">
            <path id="Path_46338" data-name="Path 46338" class="cls-15" d="M261.041,109.5l-.449.849-6.842,11.337-.35,4.245,3.546-2.1,4.045-13.135,1.448-.6Z" transform="translate(-253.4 -106.403)"/>
            <path id="Path_46339" data-name="Path 46339" class="cls-15" d="M269.45,108.848l-.05,2.747a5.325,5.325,0,0,0,4.2-1.948,4.763,4.763,0,0,0,.25-1.648C273.8,107.949,271.6,109.4,269.45,108.848Z" transform="translate(-261.409 -105.65)"/>
            <path id="Path_46340" data-name="Path 46340" class="cls-15" d="M266.11,106.5l-2.3,1.2a3.661,3.661,0,0,1-1-3.5s.849-.9,1.249-.9a5.134,5.134,0,0,0,2.051,3.2Z" transform="translate(-258.069 -103.298)"/>
          </g>
          <path id="Union_96" data-name="Union 96" class="cls-13" d="M-10.773-2702.955c-6.193-3.646-9.339-8.041-9.539-12.036q-.012-.308.005-.626c-2.2,1.093-4.5-.982-1.256-3.869,1.7-1.5-.3-4.391,2.1-6.891.995-1.062,2.934-.57,3.92.621a63.487,63.487,0,0,1,5.569-6.415c5.694-5.792,13.735-4.542,18.829-1.9,6.293,3.246,10.438,9.09,7.841,16.932-.968,2.922-2,5.879-3.153,8.539,1.6-.212,3.525,1.234,3.2,2.65-.649,2.9-3.9,2.647-4.145,4.6-.582,4-3.672,2.746-3.539.275a7.824,7.824,0,0,1-2.454,1.819,13.252,13.252,0,0,1-5.381,1.341C-2.056-2697.914-5.185-2699.659-10.773-2702.955Z" transform="translate(30.95 2747.75)"/>
          <path id="Path_9749_1_" class="cls-11" d="M249.8,46.225c1.249-3.2,3.246-8.041,7.092-11.986,2.447-2.5,5.793-5.993,9.24-5.843,4.245.15.6,1.448,8.64,3.446,3.446.849,7.142.6,11.487,4.495,0,0,3.946,4.445-.15,16.781v.05a38.943,38.943,0,0,1-3.5,8.291c-.4.749-2.847,4.045-3.646,4.2-1.2.25-.849-.6-.949-.649-.25-.25,2.547-4.2,2.647-4.6.649-2.048,2.347-8.89-.05-11.886,0,0-1.6-1.6-5.544-1.5-7.641.15-9.19-3.9-9.889-4.495a8.5,8.5,0,0,1-.749-1.1c-.449-.549-3.3-3.746-6.642-1.249,0,.05-.1.05-.15.05-.4.25-3.1,1.8-6.243,6.842-.2.3-2.7,2.947-3,3.3h0C248.55,50.171,249.149,47.923,249.8,46.225Z" transform="translate(-234.516 -25.499)"/>
        </g>
      </g>
    </g>
    <g id="Group_37479" data-name="Group 37479" transform="translate(-1 23.275)">
      <g id="Group_37478" data-name="Group 37478">
        <circle id="Ellipse_1494" data-name="Ellipse 1494" class="cls-5" cx="30.465" cy="30.465" r="30.465" transform="translate(0 0)"/>
        <g id="Group_37477" data-name="Group 37477" class="cls-16">
          <g id="Group_37475" data-name="Group 37475" transform="translate(6.545 3.749)">
            <path id="Path_46366" data-name="Path 46366" class="cls-11" d="M73.191,97.625c6.742-7.691,13.335,2.4,16.032,8.94,3.3,7.991,5.544,10.888,12.186,16.831-6.393-.9-12.336.25-17.58-8.99-4.445-7.841-12.636-14.533-10.638-16.781" transform="translate(-43.027 -73.505)"/>
            <path id="Union_112" data-name="Union 112" class="cls-12" d="M85.352-2720.006a7.568,7.568,0,0,1-1.348-.949,9.718,9.718,0,0,1-1.5-1.648,7.248,7.248,0,0,1-1.049-2.447A25.99,25.99,0,0,0,83.9-2726.1a30.173,30.173,0,0,0,5.395-3.346,22.06,22.06,0,0,0,5.344-5.943,16.461,16.461,0,0,0,2.346-8.79,1.1,1.1,0,0,1,.3-.749,1.233,1.233,0,0,1,.522-.341,4.53,4.53,0,0,1,.423-.857,11.1,11.1,0,0,1,3.7-3.947,9.21,9.21,0,0,1,4-1.61l-.106-.139c.4-.1.749-.15,1.049-.2a2.7,2.7,0,0,1,.95.149c.248.1.5.2.649.25a2.635,2.635,0,0,0,.25.15l.121.088a4.3,4.3,0,0,1,1.192.815,30.736,30.736,0,0,0,8.175,3.743,28.7,28.7,0,0,0,8.041,1,24.441,24.441,0,0,0,5.594-.749,19.2,19.2,0,0,0,2.1-.65,5.242,5.242,0,0,1,1.448,2.3,8.282,8.282,0,0,1,.3,2.4,9.175,9.175,0,0,1-.2,1.9c-.1.449-.2.749-.2.749a33.526,33.526,0,0,1-12.736-.9,31.644,31.644,0,0,1-8.851-3.945q.808,1.254,1.66,2.479a51.844,51.844,0,0,0,3.4,4.4,17.339,17.339,0,0,0,2.1,2.148,5.433,5.433,0,0,0,.7.549c-2.547,1.848-4.942,3.345-7.043,4.594a61.587,61.587,0,0,1-5.544,2.9,33.711,33.711,0,0,1-3.6,1.5,12.58,12.58,0,0,1-1.3.4c-.5-2.344-.9-4.144-1.3-5.645a34.668,34.668,0,0,0-1.2-3.646q-.436-1.043-.957-2.046a21.292,21.292,0,0,1-2.091,6.194,22.824,22.824,0,0,1-4.844,6.343,24.28,24.28,0,0,1-7.79,4.844S85.7-2719.806,85.352-2720.006Z" transform="translate(-72.817 2785.481)"/>
            <g id="Group_37469" data-name="Group 37469" transform="translate(22.499 32.31)">
              <path id="Union_111" data-name="Union 111" class="cls-15" d="M65.326-2771.635a21.055,21.055,0,0,1-2.7-.9,9.084,9.084,0,0,1-2.437-1.459l0,.015-.1-.1-.034-.033-.025-.022a2.856,2.856,0,0,1-.974-1.555,1.67,1.67,0,0,1-.066-.872,2.26,2.26,0,0,1,.147-.6.051.051,0,0,1,.01-.025,2.279,2.279,0,0,1,.65-.887,7.307,7.307,0,0,1,.682-.8,17.076,17.076,0,0,1,2.2-1.848,24.565,24.565,0,0,1,2.7-1.7,17.262,17.262,0,0,1,2.847-1.2,12.972,12.972,0,0,1,2.547-.549c.119-.01.237-.017.356-.021a2.545,2.545,0,0,1,.885-.075l.014-.055v-.012h.2l-.023.091a2.565,2.565,0,0,1,.872.317q.077.048.151.1a1.957,1.957,0,0,1,.7.7l.006.014a2.882,2.882,0,0,1,.4.875l.141.061a.181.181,0,0,1,.05.149v.447l-.093-.033a10.115,10.115,0,0,1-.206,3.131,16.761,16.761,0,0,1-.85,2.9,4.4,4.4,0,0,1-.649,1.348h-.014a2.532,2.532,0,0,1-.986-.2c-.5-.2-1.1-.449-1.7-.7l-.18-.076-.019.073-.139-.139c-.481-.2-.946-.4-1.31-.559l-.073-.032-.027.092c-.049-.05-.049-.05-.1-.05a.107.107,0,0,0,.031-.086l-.167-.075-.014.012.005-.016-.2-.093,0,.034v.219l-.027-.009q-.012.1-.024.206c-.086.387-.172.885-.258,1.4l.011,0v.2l-.042-.013c0,.021-.007.041-.01.06a14.091,14.091,0,0,1-.4,1.7c-.149.5-.249.8-.35.849-.059,0-.118,0-.177,0A3.748,3.748,0,0,1,65.326-2771.635Z" transform="translate(-58.962 2784.322)"/>
            </g>
            <path id="Union_90" data-name="Union 90" class="cls-13" d="M97.257-2713.1a28.808,28.808,0,0,1-5.793-.8c-1.547-.4-2.646-.9-2.946-1.448q-.728-1.346-1.326-2.754a2.089,2.089,0,0,1-1.479.4,4.1,4.1,0,0,1-2.347-1.2,6.2,6.2,0,0,1-1.648-2.246,1.8,1.8,0,0,1,.049-1.948,2.516,2.516,0,0,1,1.3-.749,2.417,2.417,0,0,1,1.2.1,4.966,4.966,0,0,1,.9.449l.07.052c-.267-.788-.525-1.594-.768-2.4-.7-2.148-1.248-4.344-1.648-6.193a15.479,15.479,0,0,1-.4-4.444c.114-.784.18-1.234.211-1.453-.005.028-.011.055-.015.083.04-.266.057-.375.015-.083a18.225,18.225,0,0,1,3.687-8.036,16.588,16.588,0,0,1,6.692-4.944,18.283,18.283,0,0,1,7.492-1.3,15.313,15.313,0,0,1,6.242,1.449,19.733,19.733,0,0,1,3.547,2.647c1.395,1.249,3.047,2.847,4.6,4.494q1.193,1.236,2.319,2.534c-.01-.028-.019-.057-.028-.086v-.4a3.734,3.734,0,0,1,.151-.95,3.785,3.785,0,0,1,.548-1.1,2.987,2.987,0,0,1,1.2-.8c.548-.15,1.049.149,1.448.75a5.447,5.447,0,0,1,.75,2.345,4.574,4.574,0,0,1-.351,2.5,2.254,2.254,0,0,1-1.013,1.054,20.228,20.228,0,0,1,2.02,3.291,6.085,6.085,0,0,1-.149,3.5,23.864,23.864,0,0,1-2.1,5.244,29.587,29.587,0,0,1-3.745,5.493,20.177,20.177,0,0,1-5.144,4.347,19.84,19.84,0,0,1-6.543,2.2,33.412,33.412,0,0,1-5.393.438Q98.057-2713.061,97.257-2713.1Zm-14.822-23.308c-.005.043-.01.087-.014.13-.014.085-.02.121-.021.121S82.412-2736.256,82.435-2736.408Zm.183-1.24c-.025.166-.059.392-.092.617s-.068.457-.091.623Q82.5-2737.031,82.617-2737.648Z" transform="translate(-78.277 2756.002)"/>
            <g id="Group_37472" data-name="Group 37472" transform="translate(7.439 12.882)">
              <g id="Group_37471" data-name="Group 37471">
                <path id="Path_46409" data-name="Path 46409" class="cls-17" d="M28,77.9" transform="translate(-28 -77.9)"/>
              </g>
            </g>
            <g id="Group_37474" data-name="Group 37474" transform="translate(19.925 7.389)">
              <g id="Group_37473" data-name="Group 37473">
                <path id="Path_46410" data-name="Path 46410" class="cls-18" d="M53,66.9" transform="translate(-53 -66.9)"/>
              </g>
            </g>
            <path id="Path_46411" data-name="Path 46411" class="cls-11" d="M38.873,63.39a8.662,8.662,0,0,0,4.645,2.247,25.272,25.272,0,0,1-13.035.35,8.269,8.269,0,0,0,4.7,2.2,27.5,27.5,0,0,1-4.045.25c-3-.05-5.594.3-8.041-.549-.649,6.193-1.548,13.185-3.1,16.981-7.439-5.447-11.634-20.93,2.25-29.169a4.393,4.393,0,0,1,.5-.3c.25-.15.5-.25.749-.4,15.183-7.941,27.469,1.9,28.518,12.186-2,.649-3.9-.449-5.494-1.648a10.243,10.243,0,0,0-7.641-2.148Z" transform="translate(-13.104 -52.106)"/>
          </g>
        </g>
      </g>
    </g>
    <g id="Group_37505" data-name="Group 37505" transform="translate(69.421 58.484)">
      <g id="Group_37504" data-name="Group 37504">
        <circle id="Ellipse_1497" data-name="Ellipse 1497" class="cls-5" cx="16.631" cy="16.631" r="16.631" transform="translate(0 0)"/>
        <g id="Group_37503" data-name="Group 37503" class="cls-19">
          <path id="Union_109" data-name="Union 109" class="cls-12" d="M37.024-2763.266a17.529,17.529,0,0,1-.842-10.927l-.052.135q-.6,1.724-.9,2.847a11.63,11.63,0,0,0-.3,1.6,4.024,4.024,0,0,0-.049.5c-1.6-.6-3.046-1.2-4.245-1.748a26.627,26.627,0,0,1-3-1.6,16.478,16.478,0,0,1-1.8-1.149l-.6-.449c.882-.929,1.573-1.669,2.117-2.31a12.98,12.98,0,0,1-8.857,1.914,1.2,1.2,0,0,1-.2-.3c-.1-.2-.25-.449-.4-.8a4.208,4.208,0,0,1-.3-1.2,3.686,3.686,0,0,1,.15-1.448,13.018,13.018,0,0,0,1.448.15,17.566,17.566,0,0,0,3.5-.15,12.35,12.35,0,0,0,4.145-1.4,9.228,9.228,0,0,0,3.446-3.6.633.633,0,0,1,.35-.25.591.591,0,0,1,.5.05.989.989,0,0,1,.4.549q.012.09.02.18a2.462,2.462,0,0,1,1.076-.282,5.973,5.973,0,0,1,2.9.449,5.046,5.046,0,0,1,2.3,1.7,2.266,2.266,0,0,1,.465,1.48,8.951,8.951,0,0,1,.827-1.174,2.331,2.331,0,0,1,.251.49,1.7,1.7,0,0,1,.049.5c0,.15-.049.3-.049.4a.386.386,0,0,0-.05.15,15.876,15.876,0,0,0-1.1,5.694,14.172,14.172,0,0,0,.6,4.4,13.461,13.461,0,0,0,1.2,2.847,6.136,6.136,0,0,0,.649,1,2.68,2.68,0,0,1-1,1.1,4.1,4.1,0,0,1-1.2.5,4.011,4.011,0,0,1-1,.149Z" transform="translate(-23.241 2808.316)"/>
          <g id="Group_37496" data-name="Group 37496" transform="translate(7.841 23.923)">
            <path id="Union_110" data-name="Union 110" class="cls-15" d="M14.189-2801.865a1.831,1.831,0,0,1-.149-.211l-.053.011v-.1q-.026-.049-.049-.1c-.1-.2-.25-.5-.35-.749a5.865,5.865,0,0,0-.3-.749c-.043-.085-.083-.173-.118-.262l-.182.061c-.2.05-.45.1-.75.15-.249.051-.549.1-.749.15a.665.665,0,0,1-.225.04.66.66,0,0,1-.224-.04,2.445,2.445,0,0,1-.4-.549,12.11,12.11,0,0,1-.6-1.149,4.486,4.486,0,0,1-.3-1.249.711.711,0,0,1,.5-.749,1.591,1.591,0,0,1,.937.053,3.632,3.632,0,0,1,.556.144,9.9,9.9,0,0,1,1.448.5,14.961,14.961,0,0,1,1.6.75c.5.3,1,.549,1.448.849.4.3.8.6,1.1.849q.112.112.218.228a1.421,1.421,0,0,1,.284.331q.075.094.147.19c0,.047,0,.095,0,.142l0,.012a.805.805,0,0,1,0,.376v.072l-.022,0a.811.811,0,0,1-.38.447,3.614,3.614,0,0,1-1.249.448,7.383,7.383,0,0,1-1.4.15c-.075.007-.15.012-.226.012A2.279,2.279,0,0,1,14.189-2801.865Z" transform="translate(-9.742 2807.46)"/>
          </g>
          <g id="Group_37481" data-name="Group 37481" transform="translate(3.889 1.024)">
            <path id="Path_46415" data-name="Path 46415" class="cls-11" d="M165.822,143.947c-.35,2.6-2.4,7.941-4.745,9.289,6.592-3.7,9.539-10.438,12.536-16.781,2.347-5.094-.1-11.837-5.644-15.083-2-1.149-4.645-1.948-6.343-.749a6.756,6.756,0,0,0-6.043-1.249c-10.188,2.547-9.09,16.731-8.341,24.722-.2-2.247,1.548-4.495,2-6.543.449-1.9.7-3.2,2.7-4.245a.9.9,0,0,1,.6-.15.8.8,0,0,1,.6.649,1.6,1.6,0,0,1-.1.849c-.649,2.4-1.9,5.993-1.1,8.64.7,2.4,5.337,2.353,7.534.8,2.447-1.748,3.653-.9,6.05-2.748.35,0,.5.449.5.749C165.921,142.7,165.871,143.3,165.822,143.947Z" transform="translate(-146.786 -119.151)"/>
          </g>
          <path id="Union_92" data-name="Union 92" class="cls-13" d="M28.171-2762.193a10.706,10.706,0,0,1-3.546-1,10.473,10.473,0,0,1-3-2.247,16.736,16.736,0,0,1-2.348-3,21.136,21.136,0,0,1-1.4-2.846,2.711,2.711,0,0,1-.249-1.749q.269-.509.565-1a1.018,1.018,0,0,1-.45-.575,2.2,2.2,0,0,1,.048-1.4,3.6,3.6,0,0,1,.7-1.354,1,1,0,0,1,.933-.437,1.611,1.611,0,0,1,.62.445,1.526,1.526,0,0,1,.165.393c.269-.357.546-.714.823-1.064.8-.947,1.6-1.9,2.3-2.647a7.5,7.5,0,0,1,1.848-1.549l0-.007a11.19,11.19,0,0,1,5.395-1.25,8.649,8.649,0,0,1,4.3,1.448,10.142,10.142,0,0,1,2.9,2.948,8.666,8.666,0,0,1,1.3,3.246,11.014,11.014,0,0,1-.1,2.447,34.448,34.448,0,0,1-.6,3.5,32.5,32.5,0,0,1-.9,3.5,12.476,12.476,0,0,1-1.049,2.5,3.249,3.249,0,0,1-1.6,1,13.961,13.961,0,0,1-3,.7,17.764,17.764,0,0,1-1.823.094A17.764,17.764,0,0,1,28.171-2762.193Z" transform="translate(-12.99 2790.915)"/>
          <g id="Group_37502" data-name="Group 37502" transform="translate(6.593 6.593)">
            <path id="Path_46459" data-name="Path 46459" class="cls-11" d="M175.623,139.24c-.2-.3-3.446-4.6-3.746-4.795s-7.841-4.045-8.141-4-6.543,0-6.942-.15l-3.446,5.294-1.149,3.8s2.5-4.4,4.145-5.394c1.7-1.049,4.345-.949,6.343-1.648-1.8.649,3.8,5.244,4.245,5.644a7.015,7.015,0,0,1,1.948,6.942,24.249,24.249,0,0,1-5.294,9.689,16.527,16.527,0,0,0,6.942-4.8,21.831,21.831,0,0,0,3.7-5.694C174.525,143.285,176.223,140.239,175.623,139.24Z" transform="translate(-152.2 -130.3)"/>
          </g>
          <g id="Group_37499" data-name="Group 37499" transform="translate(15.732 9.09)">
            <g id="Group_37498" data-name="Group 37498">
              <path id="Path_46457" data-name="Path 46457" class="cls-17" d="M170.5,135.3" transform="translate(-170.5 -135.3)"/>
            </g>
          </g>
          <g id="Group_37501" data-name="Group 37501" transform="translate(22.624 12.036)">
            <g id="Group_37500" data-name="Group 37500">
              <path id="Path_46458" data-name="Path 46458" class="cls-18" d="M184.3,141.2" transform="translate(-184.3 -141.2)"/>
            </g>
          </g>
        </g>
      </g>
    </g>
  </g>
</svg>
