<svg id="Group_37300" data-name="Group 37300" xmlns="http://www.w3.org/2000/svg" viewBox="0 0 157.819 220">
  <defs>
    <style>
      .cls-1 {
        fill: #696;
      }

      .cls-2 {
        fill: #fafafa;
      }

      .cls-3 {
        fill: #e0e0e0;
      }

      .cls-4 {
        fill: #757575;
      }

      .cls-5 {
        fill: #bdbdbd;
      }
    </style>
  </defs>
  <path id="Path_45974" data-name="Path 45974" class="cls-1" d="M154.212,227.632H3.607A3.618,3.618,0,0,1,0,224.025V17.507A3.618,3.618,0,0,1,3.607,13.9h150.6a3.618,3.618,0,0,1,3.607,3.607V224.025A3.618,3.618,0,0,1,154.212,227.632Z" transform="translate(0 -7.632)"/>
  <path id="Path_45975" data-name="Path 45975" class="cls-2" d="M156.568,229.374H27.607A3.618,3.618,0,0,1,24,225.767V35.707A3.618,3.618,0,0,1,27.607,32.1H156.568a3.618,3.618,0,0,1,3.607,3.607V225.767A3.618,3.618,0,0,1,156.568,229.374Z" transform="translate(-13.178 -17.626)"/>
  <path id="Path_45976" data-name="Path 45976" class="cls-3" d="M82.257,118.564H57.907a3.618,3.618,0,0,1-3.607-3.607V90.607A3.618,3.618,0,0,1,57.907,87H82.257a3.618,3.618,0,0,1,3.607,3.607v24.349A3.618,3.618,0,0,1,82.257,118.564Z" transform="translate(-29.815 -47.771)"/>
  <path id="Path_45977" data-name="Path 45977" class="cls-4" d="M182.686,105.215H143.907a3.618,3.618,0,0,1-3.607-3.607h0A3.618,3.618,0,0,1,143.907,98h38.778a3.618,3.618,0,0,1,3.607,3.607h0A3.618,3.618,0,0,1,182.686,105.215Z" transform="translate(-77.037 -53.811)"/>
  <g id="Group_37297" data-name="Group 37297" transform="translate(25.353 44.787)">
    <path id="Path_45978" data-name="Path 45978" class="cls-1" d="M66.179,127.161l-9.244-9.244a2.368,2.368,0,0,1,0-3.382h0a2.368,2.368,0,0,1,3.382,0l9.244,9.244a2.368,2.368,0,0,1,0,3.382h0A2.368,2.368,0,0,1,66.179,127.161Z" transform="translate(-56.225 -107.287)"/>
    <path id="Path_45979" data-name="Path 45979" class="cls-1" d="M96.873,103.417,81.317,118.973a2.368,2.368,0,0,1-3.382,0h0a2.368,2.368,0,0,1,0-3.382l15.556-15.556a2.368,2.368,0,0,1,3.382,0h0A2.452,2.452,0,0,1,96.873,103.417Z" transform="translate(-67.756 -99.325)"/>
  </g>
  <path id="Path_45980" data-name="Path 45980" class="cls-3" d="M207.937,136.215h-64.03a3.618,3.618,0,0,1-3.607-3.607h0A3.618,3.618,0,0,1,143.907,129h64.03a3.618,3.618,0,0,1,3.607,3.607h0A3.618,3.618,0,0,1,207.937,136.215Z" transform="translate(-77.037 -70.832)"/>
  <path id="Path_45981" data-name="Path 45981" class="cls-4" d="M182.686,197.215H143.907a3.618,3.618,0,0,1-3.607-3.607h0A3.618,3.618,0,0,1,143.907,190h38.778a3.618,3.618,0,0,1,3.607,3.607h0A3.618,3.618,0,0,1,182.686,197.215Z" transform="translate(-77.037 -104.327)"/>
  <path id="Path_45982" data-name="Path 45982" class="cls-3" d="M207.937,228.215h-64.03a3.618,3.618,0,0,1-3.607-3.607h0A3.618,3.618,0,0,1,143.907,221h64.03a3.618,3.618,0,0,1,3.607,3.607h0A3.618,3.618,0,0,1,207.937,228.215Z" transform="translate(-77.037 -121.348)"/>
  <path id="Path_45983" data-name="Path 45983" class="cls-4" d="M182.686,288.215H143.907a3.618,3.618,0,0,1-3.607-3.607h0A3.618,3.618,0,0,1,143.907,281h38.778a3.618,3.618,0,0,1,3.607,3.607h0A3.618,3.618,0,0,1,182.686,288.215Z" transform="translate(-77.037 -154.294)"/>
  <path id="Path_45984" data-name="Path 45984" class="cls-3" d="M207.937,319.215h-64.03a3.618,3.618,0,0,1-3.607-3.607h0A3.618,3.618,0,0,1,143.907,312h64.03a3.618,3.618,0,0,1,3.607,3.607h0A3.618,3.618,0,0,1,207.937,319.215Z" transform="translate(-77.037 -171.315)"/>
  <path id="Path_45985" data-name="Path 45985" class="cls-4" d="M182.686,379.215H143.907a3.618,3.618,0,0,1-3.607-3.607h0A3.618,3.618,0,0,1,143.907,372h38.778a3.618,3.618,0,0,1,3.607,3.607h0A3.618,3.618,0,0,1,182.686,379.215Z" transform="translate(-77.037 -204.261)"/>
  <path id="Path_45986" data-name="Path 45986" class="cls-3" d="M207.937,410.215h-64.03a3.618,3.618,0,0,1-3.607-3.607h0A3.618,3.618,0,0,1,143.907,403h64.03a3.618,3.618,0,0,1,3.607,3.607h0A3.618,3.618,0,0,1,207.937,410.215Z" transform="translate(-77.037 -221.282)"/>
  <path id="Path_45987" data-name="Path 45987" class="cls-3" d="M82.257,209.864H57.907a3.618,3.618,0,0,1-3.607-3.607V181.907a3.618,3.618,0,0,1,3.607-3.607H82.257a3.618,3.618,0,0,1,3.607,3.607v24.349A3.618,3.618,0,0,1,82.257,209.864Z" transform="translate(-29.815 -97.902)"/>
  <path id="Path_45988" data-name="Path 45988" class="cls-3" d="M82.257,301.264H57.907a3.618,3.618,0,0,1-3.607-3.607V273.307a3.618,3.618,0,0,1,3.607-3.607H82.257a3.618,3.618,0,0,1,3.607,3.607v24.349A3.618,3.618,0,0,1,82.257,301.264Z" transform="translate(-29.815 -148.089)"/>
  <path id="Path_45989" data-name="Path 45989" class="cls-3" d="M82.257,392.564H57.907a3.618,3.618,0,0,1-3.607-3.607V364.607A3.618,3.618,0,0,1,57.907,361H82.257a3.618,3.618,0,0,1,3.607,3.607v24.349A3.618,3.618,0,0,1,82.257,392.564Z" transform="translate(-29.815 -198.221)"/>
  <g id="Group_37298" data-name="Group 37298" transform="translate(25.353 85.685)">
    <path id="Path_45990" data-name="Path 45990" class="cls-1" d="M66.179,217.861l-9.244-9.244a2.368,2.368,0,0,1,0-3.382h0a2.368,2.368,0,0,1,3.382,0l9.244,9.244a2.368,2.368,0,0,1,0,3.382h0A2.368,2.368,0,0,1,66.179,217.861Z" transform="translate(-56.225 -197.987)"/>
    <path id="Path_45991" data-name="Path 45991" class="cls-1" d="M96.873,194.117,81.317,209.673a2.368,2.368,0,0,1-3.382,0h0a2.368,2.368,0,0,1,0-3.382l15.556-15.556a2.368,2.368,0,0,1,3.382,0h0A2.452,2.452,0,0,1,96.873,194.117Z" transform="translate(-67.756 -190.025)"/>
  </g>
  <g id="Group_37299" data-name="Group 37299" transform="translate(25.353 127.214)">
    <path id="Path_45992" data-name="Path 45992" class="cls-1" d="M66.179,309.961l-9.244-9.244a2.368,2.368,0,0,1,0-3.382h0a2.368,2.368,0,0,1,3.382,0l9.244,9.244a2.368,2.368,0,0,1,0,3.382h0A2.452,2.452,0,0,1,66.179,309.961Z" transform="translate(-56.225 -290.087)"/>
    <path id="Path_45993" data-name="Path 45993" class="cls-1" d="M96.873,286.217,81.317,301.773a2.368,2.368,0,0,1-3.382,0h0a2.368,2.368,0,0,1,0-3.382l15.556-15.556a2.368,2.368,0,0,1,3.382,0h0A2.452,2.452,0,0,1,96.873,286.217Z" transform="translate(-67.756 -282.125)"/>
  </g>
  <path id="Path_45994" data-name="Path 45994" class="cls-3" d="M72.907,0h87.928a3.618,3.618,0,0,1,3.607,3.607V18.938a3.618,3.618,0,0,1-3.607,3.607H72.907A3.618,3.618,0,0,1,69.3,18.938V3.607A3.618,3.618,0,0,1,72.907,0Z" transform="translate(-38.052 0)"/>
  <path id="Path_45995" data-name="Path 45995" class="cls-5" d="M115.3,41.215h53.208V37.607A3.618,3.618,0,0,0,164.9,34H118.907a3.618,3.618,0,0,0-3.607,3.607Z" transform="translate(-63.31 -18.669)"/>
</svg>
