<svg xmlns="http://www.w3.org/2000/svg" xmlns:xlink="http://www.w3.org/1999/xlink" viewBox="0 0 210.201 220.001">
  <defs>
    <style>
      .cls-1 {
        fill: #696;
      }

      .cls-2 {
        fill: #bdbdbd;
      }

      .cls-3 {
        clip-path: url(#clip-path);
      }

      .cls-4 {
        fill: #fbe9e7;
      }

      .cls-5 {
        fill: #212121;
      }

      .cls-6 {
        fill: #fff;
      }

      .cls-7 {
        fill: #fefefe;
      }

      .cls-8 {
        fill: #1a1a1a;
      }

      .cls-9 {
        fill: #e8e8e8;
      }

      .cls-10 {
        fill: #5c5c5c;
      }

      .cls-11 {
        fill: #d8d8d8;
      }

      .cls-12 {
        fill: #616161;
      }

      .cls-13, .cls-14 {
        fill: none;
        stroke: silver;
        stroke-miterlimit: 10;
      }

      .cls-13 {
        stroke-width: 0.669px;
      }

      .cls-14 {
        stroke-width: 0.335px;
      }

      .cls-15 {
        fill: #edebed;
      }
    </style>
    <clipPath id="clip-path">
      <circle id="Ellipse_1501" data-name="Ellipse 1501" cx="32.314" cy="32.314" r="32.314" transform="translate(0 0)"/>
    </clipPath>
  </defs>
  <g id="ico-99" transform="translate(0)">
    <g id="Group_37512" data-name="Group 37512" transform="translate(104.383 155.373)">
      <circle id="Ellipse_1499" data-name="Ellipse 1499" class="cls-1" cx="32.314" cy="32.314" r="32.314" transform="translate(0 0)"/>
      <g id="Group_37511" data-name="Group 37511">
        <circle id="Ellipse_1500" data-name="Ellipse 1500" class="cls-2" cx="32.314" cy="32.314" r="32.314" transform="translate(0 0)"/>
        <g id="Group_37510" data-name="Group 37510" class="cls-3">
          <path id="Path_46462" data-name="Path 46462" class="cls-4" d="M274.369,446.738s-4.392,3.883-5.178,7.766,3.652,7.119,3.652,7.119,2.681-1.942,1.109-3.467c-1.757-1.757-2.5-1.433-2.45-3,0-1.572,3.976-7.119,3.976-7.119S276.912,445.813,274.369,446.738Z" transform="translate(-249.082 -395.471)"/>
          <path id="Path_46463" data-name="Path 46463" class="cls-4" d="M313.451,448.138s3.791,4.068,5.178,7.766c1.433,3.837-5.039,6.472-5.039,6.472s-3.883-4.577-1.017-4.114c2.45.37,3.791-.139,3.745-1.71,0-1.572-3.976-7.119-3.976-7.119S310.955,447.213,313.451,448.138Z" transform="translate(-271.892 -396.224)"/>
          <path id="Union_106" data-name="Union 106" class="cls-5" d="M-284.627-2908.383s.852-6.093,1.591-11.333a5.358,5.358,0,0,1-3.347-2.537s2.218-2.983,4.075-2.592c1.169-6.983,9.6-9.7,11.918-1.384q.258.742.5,1.489c1.912-.859,4.4,2.486,4.4,2.486a5.362,5.362,0,0,1-3,2.438,69.96,69.96,0,0,1,1.805,11.431,30.7,30.7,0,0,1-8.968,1.339A30.7,30.7,0,0,1-284.627-2908.383Z" transform="translate(308.389 2974.537)"/>
          <path id="Path_46464" data-name="Path 46464" class="cls-4" d="M278.226,470.347s2.866.693,2.4,2.127c-.509,1.433-2.219.277-2.219.277s1.618,3.467-.277,4.392c-1.942.878-3.421-1.248-3.467-2.727-.092-1.479,0-3.513.786-4.53S278.226,470.347,278.226,470.347Z" transform="translate(-252.06 -407.847)"/>
          <path id="Path_46465" data-name="Path 46465" class="cls-4" d="M307.445,469.647s-2.866.693-2.4,2.126c.509,1.433,2.219.277,2.219.277s-1.618,3.467.277,4.392c1.942.878,3.421-1.248,3.467-2.727.092-1.479,0-3.513-.786-4.53S307.445,469.647,307.445,469.647Z" transform="translate(-268.382 -407.47)"/>
          <g id="Group_37509" data-name="Group 37509" transform="translate(28.43 44.379)">
            <path id="Path_46466" data-name="Path 46466" class="cls-6" d="M294.578,438.592v1.017l-.878,13.915,1.71,4.114,2.265-3.7-2.543-14.192,1.017-1.248Z" transform="translate(-290.741 -435.541)"/>
            <path id="Path_46467" data-name="Path 46467" class="cls-6" d="M296.4,435.059l1.248,2.589a5.614,5.614,0,0,0,2.959-3.883,5.341,5.341,0,0,0-.555-1.664A6.6,6.6,0,0,1,296.4,435.059Z" transform="translate(-292.193 -432.1)"/>
            <path id="Path_46468" data-name="Path 46468" class="cls-6" d="M291.507,436.187l-1.572,2.219a3.851,3.851,0,0,1-2.635-2.774s.37-1.248.74-1.433A5.509,5.509,0,0,0,291.507,436.187Z" transform="translate(-287.3 -433.228)"/>
          </g>
          <path id="Union_105" data-name="Union 105" class="cls-4" d="M-266.661-2892.772c-7.582-.37-12.62-2.959-14.747-6.611q-.175-.306-.323-.638c-1.515,2.109-4.691,1.313-3.052-2.968.878-2.219-2.45-3.93-1.387-7.443.415-1.5,2.481-1.985,3.98-1.338a70.984,70.984,0,0,1,2.031-8.648c2.5-8.182,10.632-10.956,16.642-10.956,7.443,0,14.146,3.421,15.533,11.973.52,3.209.988,6.5,1.206,9.557,1.369-1.022,3.924-.624,4.341.89.787,3.051-2.311,4.345-1.618,6.287,1.42,4.048-2.191,4.327-3.211,1.859a8.338,8.338,0,0,1-1.41,3c-3.406,4.265-6.2,5.223-12.048,5.223C-262.419-2892.588-264.367-2892.668-266.661-2892.772Z" transform="translate(296.017 2943.439)"/>
          <path id="Path_9749_1_" class="cls-5" d="M253.644,370.156c-.416-3.606-.878-9.061.786-14.654,1.063-3.513,2.5-8.414,5.779-9.939,4.022-1.942,1.294,1.063,9.708-1.017,3.606-.878,6.934-2.912,12.9-1.387,0,0,5.871,2.219,8,15.718v.046a42.856,42.856,0,0,1,.786,9.431c0,.878-.693,5.131-1.387,5.686-1.017.832-1.063-.139-1.2-.185-.37-.139.324-5.131.231-5.547-.416-2.265-2.173-9.431-5.825-11.049,0,0-2.311-.693-5.917,1.341-7.027,3.883-10.494.832-11.418.6-.046,0-1.2-.6-1.248-.647-.693-.324-4.9-1.9-6.8,2.08,0,.046-.046.092-.092.139-.277.462-2.034,3.236-2.45,9.431-.046.37-1.109,4.068-1.2,4.53h0C254.384,374.456,253.829,372.052,253.644,370.156Z" transform="translate(-240.561 -339.6)"/>
        </g>
      </g>
    </g>
    <g id="Group_37516" data-name="Group 37516" transform="translate(104.383)">
      <circle id="Ellipse_1502" data-name="Ellipse 1502" class="cls-2" cx="32.314" cy="32.314" r="32.314" transform="translate(0.092 0.231)"/>
      <g id="Group_37515" data-name="Group 37515">
        <g id="Group_37514" data-name="Group 37514" class="cls-3">
          <path id="Path_46473" data-name="Path 46473" class="cls-7" d="M281.6,94.795c-.324,2.45-.878,5.409-1.433,8.691a146.486,146.486,0,0,0-2.265,18.676s9.754,1.664,18.491-.462c0,0-2.82-17.705-4.762-28.477C290.15,85.225,282.569,87.722,281.6,94.795Z" transform="translate(-253.815 -47.457)"/>
          <path id="Path_46474" data-name="Path 46474" class="cls-8" d="M297.507,127.722l-1.341-16,.74-1.618-1.479-1.063V109h-.046v.046l-1.479,1.063.786,1.618L293.3,127.722" transform="translate(-262.096 -58.611)"/>
          <path id="Path_46475" data-name="Path 46475" class="cls-9" d="M302.107,103.9l-1.017,5.779-3.19-3.1Z" transform="translate(-264.569 -55.869)"/>
          <path id="Path_46476" data-name="Path 46476" class="cls-9" d="M288.7,103.9l1.109,5.686,3.144-3Z" transform="translate(-259.622 -55.869)"/>
          <path id="Path_46477" data-name="Path 46477" class="cls-10" d="M296.9,99.828l1.433,2.912a6.261,6.261,0,0,0,3.282-4.345,5.8,5.8,0,0,0-.6-1.9S299.443,99.227,296.9,99.828Z" transform="translate(-264.032 -51.89)"/>
          <path id="Path_46478" data-name="Path 46478" class="cls-10" d="M291.415,101.065l-1.757,2.5a4.329,4.329,0,0,1-2.959-3.144s.416-1.387.832-1.618A6.1,6.1,0,0,0,291.415,101.065Z" transform="translate(-258.547 -53.127)"/>
          <path id="Path_46480" data-name="Path 46480" class="cls-11" d="M280.311,101.146c-.37-1.757-4.53,1.8-5.825,3.328s2.45,4.484,3.282,3.883C278.693,107.757,280.589,102.487,280.311,101.146Z" transform="translate(-251.835 -54.132)"/>
          <path id="Path_46482" data-name="Path 46482" class="cls-11" d="M307.869,101.146c.37-1.757,4.53,1.8,5.825,3.328s-2.45,4.484-3.282,3.883C309.533,107.757,307.591,102.487,307.869,101.146Z" transform="translate(-269.915 -54.132)"/>
          <path id="Union_102" data-name="Union 102" class="cls-5" d="M-278.315-2747.776c.278-2.869-.647-7.119.324-9.569a5.827,5.827,0,0,0,.2-.829,14.221,14.221,0,0,1-3.856,3.324c-1.849.74-2.219-5.455-4.392-9.107s6.565-9.477,6.565-9.477,6.191-7.183,4.416,2.481c.409.641.964,1.544,1.873,1.587.646.046,0,.74,3.883,7.674,0,.046.046.046.046,0,.739-2.358,2.357-7.813,3.328-8.044,1.294-.323.6-1.247,1.479-1.109a8.6,8.6,0,0,1,1.3.294c-.091-1.676-.058-4.216.874-5.056,1.388-1.3,5.826,5.593,9.061,8.182,3.191,2.589-2.82,10.864-2.82,10.864s-2.4,6.437-4.088,2.116c.218,3.678.3,6.484.3,6.484q-5.206.457-10.433.457Q-274.288-2747.5-278.315-2747.776Zm17.831-11.739c4.838-2.676,1.191-6.543-1.078-8.4A79.028,79.028,0,0,1-260.484-2759.515Zm-17.07-.078c.4-2.714.851-7.04,1.14-9.368C-282.49-2767.842-278.9-2761.61-277.555-2759.593Z" transform="translate(302.402 2823.452)"/>
          <path id="Union_103" data-name="Union 103" class="cls-12" d="M-279.634-2761.531h0v0l-6.24-7.21,1.063-.877-1.571-.787.046-4.022L-284.3-2776l4.669,14.466,4.623-14.466,2.08,1.572.046,4.022-1.571.787,1.017.877-6.194,7.21v0Z" transform="translate(312.733 2823.107)"/>
          <g id="Group_37513" data-name="Group 37513" transform="translate(13.388 1.063)">
            <path id="Union_101" data-name="Union 101" class="cls-4" d="M-296.656-2746.873a16.669,16.669,0,0,1-.036-3.566c-3.322-.708-4.122-7.174-1.582-7.57a3.607,3.607,0,0,1,2.562.6c1.216-6.5,3.118-13.319,3.679-14.1,5.178-7.35,22.189-6.935,25.2-1.483.574,1.093,1.74,8.125,2.417,15.02a2.736,2.736,0,0,1,1.739-.22c2.229.395,1.58,6.607-1.245,7.475.041,1.43.03,2.724-.045,3.8-.323,4.858-8.645,11.7-16.087,11.7C-285.284-2735.222-295.731-2741.187-296.656-2746.873Z" transform="translate(299.771 2785.057)"/>
            <path id="Path_46493" data-name="Path 46493" class="cls-5" d="M292.418,33.134l-.37.416a70.4,70.4,0,0,0-.555-8.09s-.971-3.652-2.45-4.392c0,0,1.294-4.484-2.127-6.01a16.165,16.165,0,0,1-10.91,4.161,15.347,15.347,0,0,1-9.014-2.589,4.593,4.593,0,0,0-.185,3.837,12.392,12.392,0,0,0-3.1,6.472,52.91,52.91,0,0,0,.092,5.871,5.81,5.81,0,0,1-1.2-1.156A6.4,6.4,0,0,1,261.26,28.7a26.442,26.442,0,0,1-.092-11.095s1.063-4.53,1.988-4.9c0,0-2.127-6.472-1.664-8.136,0,0,1.248,3.144,5.409,2.774A7.939,7.939,0,0,1,265.513,2.3s3.144,2.311,6.518,1.71a18.435,18.435,0,0,0,3.513-.74,8.786,8.786,0,0,1,1.8-.509c2.358-.416,7.4-.878,9.847,2.173a9.1,9.1,0,0,1,2.265,4.022s5.178,3.652,5.455,9.985a40.9,40.9,0,0,1-.139,8.645,12.766,12.766,0,0,1-1.341,4.068h0a5.606,5.606,0,0,1-1.013,1.48Z" transform="translate(-257.913 -2.3)"/>
          </g>
        </g>
      </g>
    </g>
    <g id="Group_37541" data-name="Group 37541" transform="translate(145.573 78.264)">
      <circle id="Ellipse_1504" data-name="Ellipse 1504" class="cls-2" cx="32.314" cy="32.314" r="32.314" transform="translate(0 0)"/>
      <g id="Group_37540" data-name="Group 37540">
        <g id="Group_37539" data-name="Group 37539" class="cls-3">
          <g id="Group_37537" data-name="Group 37537" transform="translate(-5.829 3.236)">
            <path id="Path_46494" data-name="Path 46494" class="cls-5" d="M399.014,239.759c10.124-3.883,11.326,8.783,10.679,16.272-.832,9.107-.139,12.99,3.144,21.82-5.594-3.976-11.7-5.825-12.066-17.1-.324-9.523-4.715-19.832-1.757-20.988" transform="translate(-353.753 -210.034)"/>
            <g id="Group_37524" data-name="Group 37524" transform="translate(1.622 42.357)">
              <path id="Path_46499" data-name="Path 46499" class="cls-12" d="M344.022,271.427a12.215,12.215,0,0,1-2.311,5.224,21.94,21.94,0,0,1-5.224,5.085,25.585,25.585,0,0,1-7.674,3.606,26.559,26.559,0,0,1-9.708.74,2.289,2.289,0,0,1-.37-.555,11.286,11.286,0,0,1-.786-1.526,8.125,8.125,0,0,1-.6-2.265,8.526,8.526,0,0,1,.185-2.82,22.672,22.672,0,0,0,2.82.231,31.116,31.116,0,0,0,6.749-.509,22.008,22.008,0,0,0,7.951-2.959,17.519,17.519,0,0,0,6.518-7.119,1.538,1.538,0,0,1,.647-.555,1.188,1.188,0,0,1,.971.046,1.389,1.389,0,0,1,.74,1.017,5.287,5.287,0,0,1,.092,2.358C343.791,273.045,344.16,270.364,344.022,271.427Z" transform="translate(-311.986 -267.925)"/>
            </g>
            <g id="Group_37525" data-name="Group 37525" transform="translate(43.274 40.126)">
              <path id="Path_46502" data-name="Path 46502" class="cls-12" d="M395.9,263.1a19.867,19.867,0,0,0,.693,3,35.633,35.633,0,0,0,3,7.119,34.274,34.274,0,0,0,6.611,8.506A34.857,34.857,0,0,0,417.72,288.8s.231-.231.555-.6a16.465,16.465,0,0,0,1.156-1.664,9.24,9.24,0,0,0,.878-2.4,5.431,5.431,0,0,0-.231-2.82,12.261,12.261,0,0,1-2.265-.416,24.811,24.811,0,0,1-5.594-2.034,30.6,30.6,0,0,1-7.073-4.9,31.479,31.479,0,0,1-6.611-9.061,1.026,1.026,0,0,0-.185-.231,2.631,2.631,0,0,0-.509-.555c-.231-.185-.509-.416-.786-.6A2.687,2.687,0,0,0,395.9,263.1Z" transform="translate(-395.9 -263.1)"/>
            </g>
            <g id="Group_37528" data-name="Group 37528" transform="translate(28.342 39.77)">
              <path id="Path_46518" data-name="Path 46518" class="cls-12" d="M366.673,268.418c.092,1.8.139,3.19.185,4.438a29.468,29.468,0,0,1-.092,3.513,28.294,28.294,0,0,1-.693,4.022c-.37,1.572-.878,3.467-1.572,5.963,0,0,.462.092,1.433.231.925.139,2.311.277,4.114.37a62.553,62.553,0,0,0,6.611,0,77.45,77.45,0,0,0,8.876-.878s-.139-.277-.416-.878a21.369,21.369,0,0,1-.925-3.051,50.94,50.94,0,0,1-1.017-5.779c-.324-2.45-.555-5.455-.693-9.107a4.468,4.468,0,0,0-2.635-4.022,9.787,9.787,0,0,0-5.5-.832,11.611,11.611,0,0,0-5.409,1.849,4.95,4.95,0,0,0-2.265,4.161C366.719,270.175,366.58,266.708,366.673,268.418Z" transform="translate(-364.084 -262.33)"/>
            </g>
            <g id="Group_37531" data-name="Group 37531" transform="translate(29.871 38.647)">
              <path id="Path_46519" data-name="Path 46519" class="cls-6" d="M384.667,263.413a1.951,1.951,0,0,1-.647,1.387,5.484,5.484,0,0,1-1.8,1.109,12.743,12.743,0,0,1-2.635.74,17.957,17.957,0,0,1-3.236.277,16.075,16.075,0,0,1-3.375-.324,17.169,17.169,0,0,1-2.959-.832,7.575,7.575,0,0,1-2.127-1.2,1.973,1.973,0,0,1-.786-1.387,1.738,1.738,0,0,1,.786-1.341,6.512,6.512,0,0,1,2.127-1.017,23.267,23.267,0,0,1,2.959-.693,26.376,26.376,0,0,1,3.375-.231,17.954,17.954,0,0,1,3.236.277,11.966,11.966,0,0,1,2.635.74,6.679,6.679,0,0,1,1.8,1.109,1.951,1.951,0,0,1,.647,1.386Z" transform="translate(-367.011 -259.9)"/>
              <g id="Group_37529" data-name="Group 37529" transform="translate(8.318 0.971)">
                <path id="Path_46520" data-name="Path 46520" class="cls-6" d="M384.9,268.011s.185.277.509.693.74.925,1.2,1.479.878,1.063,1.294,1.479c.37.416.693.693.832.693a7.077,7.077,0,0,0,1.294-.925,21.657,21.657,0,0,0,2.219-2.311,11.372,11.372,0,0,0,1.757-2.912,3.16,3.16,0,0,0-.185-2.82,2.892,2.892,0,0,0-2.219-1.294,5.484,5.484,0,0,0-2.82.74,8.077,8.077,0,0,0-2.543,2.173,6.119,6.119,0,0,0-1.338,3.005Z" transform="translate(-384.9 -262.048)"/>
                <path id="Path_46522" data-name="Path 46522" class="cls-6" d="M391.7,262l-1.526,1.572-1.526,1.572-1.526,1.572-1.526,1.572.046.046.046.046.046.046a.161.161,0,0,1,.046.092l1.572-1.618,1.572-1.618,1.572-1.618,1.572-1.618h-.277C391.748,262,391.748,262,391.7,262Z" transform="translate(-385.276 -262)"/>
                <path id="Path_46523" data-name="Path 46523" class="cls-6" d="M394.757,263l-1.664,1.849-1.664,1.849-1.664,1.849L388.1,270.4l.046.046.046.046.046.046.046.046,1.664-1.849,1.664-1.849,1.664-1.849,1.664-1.849-.092-.092c-.046,0-.046-.046-.092-.046s-.046-.046-.092-.046C394.8,263.046,394.757,263.046,394.757,263Z" transform="translate(-386.621 -262.538)"/>
                <path id="Path_46525" data-name="Path 46525" class="cls-6" d="M397.24,262h-.185a.278.278,0,0,0-.185.046c-.046,0-.139.046-.185.046s-.139.046-.185.046l.925,1.063.925,1.063.925,1.063.925,1.063c0-.046.046-.092.046-.139s.046-.092.046-.139.046-.092.046-.139.046-.092.046-.139l-.786-.925-.786-.925-.786-.925Z" transform="translate(-391.138 -262)"/>
                <path id="Path_46526" data-name="Path 46526" class="cls-6" d="M390.1,265.155l1.294,1.2,1.294,1.2,1.294,1.2,1.294,1.2c.046-.046.046-.092.092-.092.046-.046.046-.092.092-.092.046-.046.046-.092.092-.092.046-.046.046-.092.092-.092l-1.248-1.248-1.248-1.248-1.248-1.248-1.248-1.248-.139.139-.139.139-.139.139Z" transform="translate(-387.696 -263.398)"/>
              </g>
              <g id="Group_37530" data-name="Group 37530" transform="translate(0 1.242)">
                <path id="Path_46527" data-name="Path 46527" class="cls-6" d="M375.549,268.187s-.185.277-.462.647-.693.878-1.109,1.387-.832,1.017-1.2,1.387-.647.647-.74.647a5.221,5.221,0,0,1-1.2-.878,24.042,24.042,0,0,1-2.08-2.173,10.079,10.079,0,0,1-1.618-2.774,3.077,3.077,0,0,1,.139-2.635,2.547,2.547,0,0,1,2.08-1.2,4.8,4.8,0,0,1,2.635.693,7.738,7.738,0,0,1,2.358,2.08A5.483,5.483,0,0,1,375.549,268.187Z" transform="translate(-366.908 -262.587)"/>
                <path id="Path_46529" data-name="Path 46529" class="cls-6" d="M372.27,262.6l1.433,1.479,1.433,1.479,1.433,1.479,1.431,1.48-.046.046-.046.046-.046.046-.046.046-1.479-1.526-1.479-1.526-1.479-1.526L371.9,262.6Z" transform="translate(-369.592 -262.594)"/>
                <path id="Path_46532" data-name="Path 46532" class="cls-6" d="M369.959,262.6h.185a.278.278,0,0,1,.185.046c.046,0,.139.046.185.046s.139.046.185.046l-.878.971-.878.971-.878.971-.878.971c0-.046-.046-.092-.046-.139s-.046-.092-.046-.139-.046-.092-.046-.139-.046-.092-.046-.139l.693-.878.693-.878.693-.878Z" transform="translate(-366.957 -262.594)"/>
                <path id="Path_46533" data-name="Path 46533" class="cls-6" d="M374.778,265.77l-1.2,1.156-1.2,1.156-1.2,1.156-1.2,1.156-.092-.092-.092-.092-.092-.092-.092-.092,1.156-1.156,1.156-1.156,1.156-1.156,1.156-1.156c.046.046.092.092.139.092.046.046.092.092.139.092l.139.139C374.685,265.677,374.731,265.724,374.778,265.77Z" transform="translate(-368.355 -264.1)"/>
              </g>
            </g>
            <path id="Union_104" data-name="Union 104" class="cls-4" d="M-304.391-2816.807a34.49,34.49,0,0,1-6.748-3.051,30.321,30.321,0,0,1-5.039-3.606c-1.248-1.156-1.988-2.173-2.034-2.82q-.022-1.635.108-3.266a2.219,2.219,0,0,1-1.592-.349,4.707,4.707,0,0,1-1.618-2.264,7.3,7.3,0,0,1-.416-2.912,2,2,0,0,1,1.017-1.8,2.342,2.342,0,0,1,1.571-.092,2.689,2.689,0,0,1,1.11.693,4.566,4.566,0,0,1,.647.833l.03.051c.136-.855.283-1.724.436-2.593.463-2.358.971-4.669,1.526-6.612a16.522,16.522,0,0,1,1.784-4.365l.017-.024.061-.09.586-.82a19.8,19.8,0,0,1,7.629-6.117,16.584,16.584,0,0,1,8.69-1.387,20.559,20.559,0,0,1,7.674,2.5,16.037,16.037,0,0,1,5.178,4.438,21.657,21.657,0,0,1,2.034,4.252c.739,1.9,1.48,4.208,2.127,6.518q.537,1.815.965,3.658.024-.144.05-.288a2.085,2.085,0,0,1,.185-.37,5.92,5.92,0,0,1,.6-.833,3.633,3.633,0,0,1,1.063-.74,2.712,2.712,0,0,1,1.526-.14c.6.093.925.694.971,1.434a5.743,5.743,0,0,1-.416,2.542,5.088,5.088,0,0,1-1.572,2.174,2.32,2.32,0,0,1-1.559.5,23.569,23.569,0,0,1,.267,4.126,6.4,6.4,0,0,1-1.849,3.236,24.6,24.6,0,0,1-4.53,3.883,29.7,29.7,0,0,1-6.241,3.328,21.72,21.72,0,0,1-6.979,1.526q-.184,0-.368,0A21.075,21.075,0,0,1-304.391-2816.807Zm-9.114-32.3-.025.037-.062.087-.016.026-.061.083S-313.6-2848.972-313.5-2849.112Zm.523-.733-.147.206-.376.527Q-313.251-2849.485-312.982-2849.845Zm.037-.05-.037.05C-312.608-2850.369-312.333-2850.752-312.944-2849.9Z" transform="translate(336.571 2861.792)"/>
            <g id="Group_37534" data-name="Group 37534" transform="translate(29.452 7.997)">
              <g id="Group_37533" data-name="Group 37533">
                <path id="Path_46537" data-name="Path 46537" class="cls-13" d="M366,193.6" transform="translate(-366 -193.6)"/>
              </g>
            </g>
            <g id="Group_37536" data-name="Group 37536" transform="translate(43.921 8.968)">
              <g id="Group_37535" data-name="Group 37535">
                <path id="Path_46538" data-name="Path 46538" class="cls-14" d="M397.3,195.7" transform="translate(-397.3 -195.7)"/>
              </g>
            </g>
            <path id="Path_46539" data-name="Path 46539" class="cls-5" d="M370.106,191.786a9.131,9.131,0,0,0,3.282,4.392A26.683,26.683,0,0,1,361,190.122a8.421,8.421,0,0,0,3.328,4.345,24.877,24.877,0,0,1-3.929-1.757c-2.82-1.526-5.409-2.45-7.3-4.484-3.652,5.5-7.9,11.6-11.233,14.423-4.345-8.783-.647-25.379,16.457-26.3a2.842,2.842,0,0,0,.6-.046h.878c18.168,0,24.871,15.3,20.8,25.472-2.173-.37-3.421-2.265-4.3-4.207a11.488,11.488,0,0,0-6.195-5.779Z" transform="translate(-322.672 -176.3)"/>
          </g>
        </g>
      </g>
    </g>
    <g id="Group_37542" data-name="Group 37542" transform="translate(0 90.237)">
      <path id="Subtraction_1" data-name="Subtraction 1" class="cls-1" d="M-114.784-2819.177h-63.841a3.381,3.381,0,0,1-2.852-1.582l25.5-19.775,1.017.786a13.479,13.479,0,0,0,8.228,2.82,13.479,13.479,0,0,0,8.228-2.82l1.017-.786,25.519,19.787a3.255,3.255,0,0,0,.508-1.758v-2.127l-23.3-18.029,23.3-18.03v-2.172a3.242,3.242,0,0,0-.509-1.757l-12.9,9.981-15.717,12.162a10.112,10.112,0,0,1-6.172,2.115,10.109,10.109,0,0,1-6.171-2.115l-28.569-22.1a3.271,3.271,0,0,0-.495,1.444,3.415,3.415,0,0,1,3.361-3.108h63.841a3.406,3.406,0,0,1,3.375,3.375v40.311A3.4,3.4,0,0,1-114.784-2819.177ZM-182-2824.632v-36.061l23.3,18.029-23.3,18.031Z" transform="translate(182 2866.237)"/>
    </g>
    <g id="Group_37543" data-name="Group 37543" transform="translate(75.86 89.267)">
      <path id="Path_46544" data-name="Path 46544" class="cls-15" d="M164.1,260.8a3,3,0,0,1,3-3h35.919a3.005,3.005,0,0,1,0,6.01H167.1a3,3,0,0,1-3-3.01Z" transform="translate(-164.1 -227.89)"/>
      <path id="Path_46545" data-name="Path 46545" class="cls-15" d="M164.1,293.2a3,3,0,0,1,3-3h47.846a3.005,3.005,0,1,1,0,6.01H167.1a3.059,3.059,0,0,1-3-3.01Z" transform="translate(-164.1 -245.312)"/>
      <path id="Path_46546" data-name="Path 46546" class="cls-15" d="M164.1,228.4a3,3,0,0,1,3-3h23.946a3.005,3.005,0,1,1,0,6.01H167.1a3,3,0,0,1-3-3.01Z" transform="translate(-164.1 -210.468)"/>
      <path id="Path_46547" data-name="Path 46547" class="cls-15" d="M164.1,196.1a3,3,0,0,1,3-3h11.973a3.005,3.005,0,0,1,0,6.01H167.1a3,3,0,0,1-3-3.01Z" transform="translate(-164.1 -193.1)"/>
    </g>
  </g>
</svg>
