<svg xmlns="http://www.w3.org/2000/svg" width="512" height="512.006" viewBox="0 0 512 512.006">
  <g id="support" transform="translate(16666 -3905)">
    <g id="Rectangle_20894" data-name="Rectangle 20894" transform="translate(-16666 3905)" opacity="0">
      <path id="Path_158135" data-name="Path 158135" d="M511.5,511.5H.5V.5h511Z" fill="#696"/>
      <path id="Path_158136" data-name="Path 158136" d="M1,1V511H511V1H1M0,0H512V512H0Z" fill="#696"/>
    </g>
    <g id="support-2" data-name="support" transform="translate(-16682 3849)">
      <g id="Group_87193" data-name="Group 87193" transform="translate(16 56)">
        <path id="Path_91660" data-name="Path 91660" d="M256,0C148.059,0,60.234,87.824,60.234,195.766v180.7a45.178,45.178,0,1,0,90.356,0V225.883a45.228,45.228,0,0,0-45.18-45.176,44.679,44.679,0,0,0-14.426,2.574C97.41,97.77,168.886,30.117,256,30.117c87.066,0,158.523,67.59,165.008,153.043a44.364,44.364,0,0,0-14.418-2.453,45.228,45.228,0,0,0-45.18,45.176V376.469a45.228,45.228,0,0,0,45.18,45.18,44.656,44.656,0,0,0,15.059-2.773v17.832a15.079,15.079,0,0,1-15.059,15.059H298.4a45.176,45.176,0,1,0,0,30.117H406.59a45.227,45.227,0,0,0,45.176-45.176V195.766C451.766,87.825,363.941,0,256,0Zm0,0" fill="#696"/>
        <path id="Path_91661" data-name="Path 91661" d="M481.883,213.6V388.754A45.1,45.1,0,0,0,512,346.352V256a45.108,45.108,0,0,0-30.117-42.4Zm0,0" fill="#696"/>
        <path id="Path_91662" data-name="Path 91662" d="M0,256v90.352a45.1,45.1,0,0,0,30.117,42.4V213.6A45.109,45.109,0,0,0,0,256Zm0,0" fill="#696"/>
      </g>
    </g>
  </g>
</svg>
