<svg xmlns="http://www.w3.org/2000/svg" viewBox="0 0 512 512">
  <defs>
    <style>
      .cls-1, .cls-2 {
        fill: #696;
      }

      .cls-1 {
        stroke: #707070;
        opacity: 0;
      }

      .cls-3 {
        stroke: none;
      }

      .cls-4 {
        fill: none;
      }
    </style>
  </defs>
  <g id="telephone" transform="translate(14233 951)">
    <g id="Rectangle_20895" data-name="Rectangle 20895" class="cls-1" transform="translate(-14233 -951)">
      <rect class="cls-3" width="512" height="512"/>
      <rect class="cls-4" x="0.5" y="0.5" width="511" height="511"/>
    </g>
    <g id="telephone-2" data-name="telephone" transform="translate(-14223 -940)">
      <path id="XMLID_18_" class="cls-2" d="M393.669,330.64a18.592,18.592,0,0,0-26.282,0l-24.515,24.532L223.766,236.049l24.518-24.515a18.564,18.564,0,0,0,0-26.273L176.46,113.438a18.558,18.558,0,0,0-26.272,0L125.673,137.97C94.679,168.979,140.125,264.67,227.2,351.739,295.72,420.251,369.592,463,413.054,463c11.764,0,21.3-3.134,27.9-9.74l-.04-.049L465.5,428.744a18.591,18.591,0,0,0,0-26.281Z"/>
      <path id="XMLID_17_" class="cls-2" d="M245.765,441.794c-108.088,0-196.02-87.934-196.02-196.029,0-114.476,94.006-196.021,196.02-196.021,108.095,0,196.03,87.934,196.03,196.021a194.708,194.708,0,0,1-13.942,72.163l37.535,37.526a243.94,243.94,0,0,0,26.151-109.69C491.539,110.248,381.282,0,245.765,0S0,110.248,0,245.766,110.247,491.539,245.765,491.539a244.042,244.042,0,0,0,90.047-17.318A411.242,411.242,0,0,1,278.045,438.9,195.5,195.5,0,0,1,245.765,441.794Z"/>
    </g>
  </g>
</svg>
