<svg xmlns="http://www.w3.org/2000/svg" viewBox="0 0 600 188">
  <defs>
    <style>
      .cls-1, .cls-5 {
        fill: #fff;
      }

      .cls-1 {
        stroke: #707070;
        opacity: 0;
      }

      .cls-2 {
        fill: #ff9600;
      }

      .cls-3 {
        fill: #ffd200;
      }

      .cls-4 {
        fill: #df8328;
      }

      .cls-6 {
        fill: #ffbf71;
      }

      .cls-7 {
        fill: #f4f5fa;
      }

      .cls-8 {
        fill: #c0c4d1;
      }

      .cls-9 {
        fill: #f39f86;
      }

      .cls-10 {
        opacity: 0.72;
      }

      .cls-11 {
        fill: #74d24f;
      }

      .cls-12 {
        fill: #ffefbc;
      }

      .cls-13 {
        fill: #869b55;
      }

      .cls-14 {
        stroke: none;
      }

      .cls-15 {
        fill: none;
      }
    </style>
  </defs>
  <g id="con-6" transform="translate(-2469 -2269)">
    <g id="con-7" transform="translate(-180 -125)">
      <g id="Rectangle_9274" data-name="Rectangle 9274" class="cls-1" transform="translate(2649 2394)">
        <rect class="cls-14" width="600" height="188"/>
        <rect class="cls-15" x="0.5" y="0.5" width="599" height="187"/>
      </g>
    </g>
    <g id="piggy-bank" transform="translate(2557.667 2329.333)">
      <g id="Group_159914" data-name="Group 159914" transform="translate(0 41.336)">
        <g id="Group_159913" data-name="Group 159913">
          <path id="Path_147250" data-name="Path 147250" class="cls-2" d="M13.333,223.745a13.335,13.335,0,0,1-6.668-24.881A3.333,3.333,0,1,1,10,204.635a6.668,6.668,0,0,0,3.332,12.443,3.333,3.333,0,0,1,0,6.667Z" transform="translate(0 -198.415)"/>
        </g>
      </g>
      <g id="Group_159915" data-name="Group 159915" transform="translate(10 30)">
        <path id="Path_147251" data-name="Path 147251" class="cls-3" d="M139.667,174H137.1a31.13,31.13,0,0,0-10.767-15.777V145.667A1.666,1.666,0,0,0,124.667,144a11.664,11.664,0,0,0-10.722,7.146A58.153,58.153,0,0,0,93,147.333c-24.813,0-45,14.953-45,33.333V199a8.348,8.348,0,0,0,6.667,8.166v8.5a5.006,5.006,0,0,0,5,5h6.667a5.006,5.006,0,0,0,5-5v-8.333H108v8.333a5.006,5.006,0,0,0,5,5h6.667a5.006,5.006,0,0,0,5-5v-8.333h5A8.343,8.343,0,0,0,138,199v-3.333h1.667a5.006,5.006,0,0,0,5-5V179A5.005,5.005,0,0,0,139.667,174Z" transform="translate(-48 -144)"/>
      </g>
      <g id="Group_159916" data-name="Group 159916" transform="translate(16.667 98.333)">
        <path id="Path_147252" data-name="Path 147252" class="cls-4" d="M80,472v3.333a5.006,5.006,0,0,0,5,5h6.667a5.006,5.006,0,0,0,5-5V472Z" transform="translate(-80 -472)"/>
      </g>
      <g id="Group_159917" data-name="Group 159917" transform="translate(70 98.333)">
        <path id="Path_147253" data-name="Path 147253" class="cls-4" d="M336,472v3.333a5.006,5.006,0,0,0,5,5h6.667a5.006,5.006,0,0,0,5-5V472Z" transform="translate(-336 -472)"/>
      </g>
      <g id="Group_159918" data-name="Group 159918" transform="translate(83.333 56.667)">
        <circle id="Ellipse_1970" data-name="Ellipse 1970" class="cls-4" cx="3.333" cy="3.333" r="3.333"/>
      </g>
      <g id="Group_159923" data-name="Group 159923" transform="translate(97.149 55)">
        <g id="Group_159919" data-name="Group 159919" transform="translate(2.668 31.433)">
          <path id="Path_147254" data-name="Path 147254" class="cls-2" d="M479.123,415.111h.014c.015-.076.01-.158.023-.234C479.147,414.955,479.139,415.034,479.123,415.111Z" transform="translate(-479.123 -414.877)"/>
        </g>
        <g id="Group_159920" data-name="Group 159920" transform="translate(1.834 4.649)">
          <path id="Path_147255" data-name="Path 147255" class="cls-2" d="M477.8,286.666h-2.567c-.032-.119-.083-.232-.117-.351a25.014,25.014,0,0,1,1.017,7.018v15H477.8a5.006,5.006,0,0,0,5-5V291.666A5.005,5.005,0,0,0,477.8,286.666Z" transform="translate(-475.118 -286.315)"/>
        </g>
        <g id="Group_159921" data-name="Group 159921">
          <path id="Path_147256" data-name="Path 147256" class="cls-2" d="M466.732,264.88c-.134-.294-.261-.59-.406-.88h-.01C466.463,264.29,466.6,264.586,466.732,264.88Z" transform="translate(-466.316 -264)"/>
        </g>
        <g id="Group_159922" data-name="Group 159922" transform="translate(0.693 1.48)">
          <path id="Path_147257" data-name="Path 147257" class="cls-2" d="M469.642,271.105q.248.57.467,1.149C469.964,271.867,469.8,271.486,469.642,271.105Z" transform="translate(-469.642 -271.105)"/>
        </g>
      </g>
      <g id="Group_159931" data-name="Group 159931" transform="translate(40)">
        <g id="Group_159924" data-name="Group 159924">
          <circle id="Ellipse_1971" data-name="Ellipse 1971" class="cls-2" cx="15" cy="15" r="15"/>
        </g>
        <g id="Group_159925" data-name="Group 159925" transform="translate(4.393)">
          <path id="Path_147258" data-name="Path 147258" class="cls-3" d="M223.695,0a14.954,14.954,0,0,0-10.607,4.393L234.3,25.606A15,15,0,0,0,223.695,0Z" transform="translate(-213.088)"/>
        </g>
        <g id="Group_159926" data-name="Group 159926" transform="translate(3.333 3.333)">
          <circle id="Ellipse_1972" data-name="Ellipse 1972" class="cls-5" cx="11.667" cy="11.667" r="11.667"/>
        </g>
        <g id="Group_159927" data-name="Group 159927" transform="translate(3.333 6.75)">
          <path id="Path_147259" data-name="Path 147259" class="cls-3" d="M211.417,32.4a11.667,11.667,0,1,0,16.5,16.5Z" transform="translate(-208 -32.402)"/>
        </g>
        <g id="Group_159928" data-name="Group 159928" transform="translate(6.667 6.667)">
          <circle id="Ellipse_1973" data-name="Ellipse 1973" class="cls-3" cx="8.333" cy="8.333" r="8.333"/>
        </g>
        <g id="Group_159929" data-name="Group 159929" transform="translate(6.667 9.108)">
          <path id="Path_147260" data-name="Path 147260" class="cls-2" d="M232.333,57.942a8.307,8.307,0,0,0,5.893-2.441L226.441,43.716a8.333,8.333,0,0,0,5.892,14.226Z" transform="translate(-224 -43.716)"/>
        </g>
        <g id="Group_159930" data-name="Group 159930" transform="translate(16.667 6.667)">
          <circle id="Ellipse_1974" data-name="Ellipse 1974" class="cls-5" cx="3.333" cy="3.333" r="3.333"/>
        </g>
      </g>
      <g id="Group_159933" data-name="Group 159933" transform="translate(38.333 40)">
        <g id="Group_159932" data-name="Group 159932">
          <path id="Path_147261" data-name="Path 147261" class="cls-4" d="M185.666,197.625a1.667,1.667,0,0,1-.5-3.255,51.321,51.321,0,0,1,15.5-2.37,52.974,52.974,0,0,1,15.493,2.318,1.666,1.666,0,0,1-.986,3.184,49.645,49.645,0,0,0-14.507-2.168,48.026,48.026,0,0,0-14.5,2.214A1.644,1.644,0,0,1,185.666,197.625Z" transform="translate(-183.999 -192)"/>
        </g>
      </g>
    </g>
    <g id="Group_160203" data-name="Group 160203" transform="translate(-49.502 -10)">
      <g id="Big_Icon" data-name="Big Icon" transform="translate(2788.917 2293)">
        <g id="Group_25" data-name="Group 25" transform="translate(22.524 0)">
          <path id="Fill_1" data-name="Fill 1" class="cls-6" d="M55.923,27.961A27.961,27.961,0,1,1,27.961,0,27.961,27.961,0,0,1,55.923,27.961" transform="translate(79.223)"/>
          <path id="Fill_3" data-name="Fill 3" class="cls-5" d="M23.3,46.6h0A23.3,23.3,0,1,1,23.3,0a20.329,20.329,0,0,1,6.835,1.087l1.553.622a1.541,1.541,0,0,1,.777,2.019,1.425,1.425,0,0,1-2.02.776l-1.4-.621A22.337,22.337,0,0,0,23.3,3.106a20.194,20.194,0,1,0,0,40.388A20.154,20.154,0,0,0,43.5,23.3a19.653,19.653,0,0,0-4.66-12.893,1.542,1.542,0,0,1,2.331-2.019,23.519,23.519,0,0,1,5.281,14.757,23.278,23.278,0,0,1-6.835,16.466A22.447,22.447,0,0,1,23.3,46.6" transform="translate(83.883 4.66)"/>
          <path id="Fill_5" data-name="Fill 5" class="cls-5" d="M13.98,21.748h-8.7A4.907,4.907,0,0,1,.31,16.777a1.468,1.468,0,0,1,1.554-1.553,1.467,1.467,0,0,1,1.553,1.553,1.794,1.794,0,0,0,1.864,1.864h8.7a2.389,2.389,0,0,0,2.33-2.33V14.757a2.389,2.389,0,0,0-2.33-2.33H5.437A5.5,5.5,0,0,1,0,6.99V5.437A5.5,5.5,0,0,1,5.437,0H14.6a4.342,4.342,0,0,1,4.349,4.35A1.467,1.467,0,0,1,17.4,5.9,1.468,1.468,0,0,1,15.845,4.35,1.225,1.225,0,0,0,14.6,3.107H5.437a2.389,2.389,0,0,0-2.33,2.331V6.99a2.389,2.389,0,0,0,2.33,2.33H13.98a5.5,5.5,0,0,1,5.437,5.437v1.553a5.5,5.5,0,0,1-5.437,5.437" transform="translate(97.088 17.087)"/>
          <path id="Fill_7" data-name="Fill 7" class="cls-7" d="M1.553,31.068A1.468,1.468,0,0,1,0,29.514V1.553A1.468,1.468,0,0,1,1.553,0,1.467,1.467,0,0,1,3.106,1.553V29.514a1.467,1.467,0,0,1-1.553,1.553" transform="translate(105.786 12.427)"/>
          <path id="Fill_9" data-name="Fill 9" class="cls-7" d="M1.553,3.107h-.31c-.156,0-.156,0-.311-.155-.155,0-.155,0-.311-.156a.152.152,0,0,1-.155-.155A1.41,1.41,0,0,1,0,1.553.937.937,0,0,1,.155.932C.155.777.31.621.466.466L.621.311A.544.544,0,0,1,.932.155c.155,0,.155,0,.311-.155a1.974,1.974,0,0,1,.932.155c.155,0,.31.156.466.311s.311.311.311.466.155.31.155.621A1.41,1.41,0,0,1,2.64,2.641c-.155.155-.31.311-.466.311a1.176,1.176,0,0,1-.622.155" transform="translate(118.059 9.32)"/>
          <path id="Fill_11" data-name="Fill 11" class="cls-6" d="M74.563,37.281A37.282,37.282,0,1,1,37.282,0,37.281,37.281,0,0,1,74.563,37.281" transform="translate(0 45.049)"/>
          <path id="Fill_13" data-name="Fill 13" class="cls-5" d="M30.452,61.049h0A30.317,30.317,0,0,1,8.86,52.039,29.8,29.8,0,0,1,.005,30.447,30.5,30.5,0,0,1,30.607,0a29.5,29.5,0,0,1,9.01,1.4l2.02.776a1.53,1.53,0,1,1-1.243,2.8L38.53,4.194a26.44,26.44,0,0,0-7.923-1.243,27.145,27.145,0,0,0-19.418,8.077A27.523,27.523,0,0,0,3.112,30.447a26.882,26.882,0,0,0,8.077,19.417,27.521,27.521,0,0,0,19.418,8.078,27.144,27.144,0,0,0,19.418-8.078A27.52,27.52,0,0,0,58.1,30.447a27.107,27.107,0,0,0-6.214-17.4,1.542,1.542,0,0,1,2.33-2.02,30.687,30.687,0,0,1,6.99,19.418A30.315,30.315,0,0,1,52.2,52.039a31.505,31.505,0,0,1-21.748,9.009" transform="translate(6.83 51.883)"/>
          <path id="Fill_15" data-name="Fill 15" class="cls-5" d="M18.019,27.806H6.524A6.066,6.066,0,0,1,.466,21.748a1.468,1.468,0,0,1,1.553-1.553,1.468,1.468,0,0,1,1.554,1.553A2.949,2.949,0,0,0,6.524,24.7h11.5a3.648,3.648,0,0,0,3.573-3.728v-2.02a3.614,3.614,0,0,0-3.573-3.572H6.679A6.63,6.63,0,0,1,0,8.7V6.679A6.63,6.63,0,0,1,6.679,0H18.952a5.238,5.238,0,0,1,5.281,5.282,1.553,1.553,0,1,1-3.106,0,2.222,2.222,0,0,0-2.175-2.175H6.679A3.613,3.613,0,0,0,3.107,6.679V8.7a3.613,3.613,0,0,0,3.572,3.572h11.34A6.63,6.63,0,0,1,24.7,18.951v2.02a6.763,6.763,0,0,1-6.679,6.835" transform="translate(24.388 68.505)"/>
          <path id="Fill_17" data-name="Fill 17" class="cls-7" d="M1.553,40.388A1.468,1.468,0,0,1,0,38.835V1.553A1.468,1.468,0,0,1,1.553,0,1.468,1.468,0,0,1,3.107,1.553V38.835a1.468,1.468,0,0,1-1.553,1.553" transform="translate(35.883 62.136)"/>
          <path id="Fill_19" data-name="Fill 19" class="cls-7" d="M1.553,3.107A1.409,1.409,0,0,1,.466,2.641,1.41,1.41,0,0,1,0,1.553.935.935,0,0,1,.155.932C.31.777.31.621.466.466a1.5,1.5,0,0,1,2.175,0c.155.155.311.311.311.466s.155.466.155.621a1.41,1.41,0,0,1-.466,1.087c-.155.155-.311.311-.466.311-.155.155-.31.155-.621.155" transform="translate(52.194 57.942)"/>
          <path id="Fill_21" data-name="Fill 21" class="cls-8" d="M6.214,12.427a6.206,6.206,0,0,1-4.388-10.6A6.206,6.206,0,1,1,10.6,10.6,6.169,6.169,0,0,1,6.214,12.427Zm0-9.32A3.107,3.107,0,1,0,9.321,6.214,3.11,3.11,0,0,0,6.214,3.107Z" transform="translate(23.301 132.039)"/>
          <path id="Fill_23" data-name="Fill 23" class="cls-8" d="M6.213,12.427a6.206,6.206,0,0,1-4.388-10.6A6.206,6.206,0,1,1,10.6,10.6,6.169,6.169,0,0,1,6.213,12.427Zm0-9.321A3.107,3.107,0,1,0,9.321,6.214,3.111,3.111,0,0,0,6.213,3.106Z" transform="translate(38.835 147.573)"/>
        </g>
        <path id="Fill_26" data-name="Fill 26" class="cls-8" d="M0,21.749,21.749,0l2.2,2.2L2.2,23.945Z" transform="translate(47.815 134.003)"/>
        <path id="Fill_27" data-name="Fill 27" class="cls-8" d="M0,6.213H3.107V0H0Z" transform="translate(187.012 46.653)"/>
        <path id="Fill_28" data-name="Fill 28" class="cls-8" d="M0,6.213H3.107V0H0Z" transform="translate(187.012 61.878)"/>
        <path id="Fill_29" data-name="Fill 29" class="cls-8" d="M0,3.107H6.213V0H0Z" transform="translate(193.453 56.022)"/>
        <path id="Fill_30" data-name="Fill 30" class="cls-8" d="M0,3.107H6.213V0H0Z" transform="translate(177.643 56.022)"/>
        <g id="Group_43" data-name="Group 43" transform="translate(0 30.291)">
          <path id="Fill_31" data-name="Fill 31" class="cls-9" d="M9.321,4.66A4.66,4.66,0,1,1,4.66,0a4.66,4.66,0,0,1,4.66,4.66" transform="translate(109.514 118.835)"/>
          <path id="Fill_33" data-name="Fill 33" class="cls-9" d="M5.437,10.873A5.509,5.509,0,0,1,0,5.437,5.51,5.51,0,0,1,5.437,0a5.51,5.51,0,0,1,5.437,5.437A5.509,5.509,0,0,1,5.437,10.873Zm0-9.32A3.842,3.842,0,0,0,1.554,5.437,3.842,3.842,0,0,0,5.437,9.321a3.859,3.859,0,0,0,2.7-6.641A3.919,3.919,0,0,0,5.437,1.553Z" transform="translate(108.738 118.059)"/>
          <path id="Fill_35" data-name="Fill 35" class="cls-9" d="M9.32,4.66A4.66,4.66,0,1,1,4.66,0,4.66,4.66,0,0,1,9.32,4.66" transform="translate(69.126 0.777)"/>
          <path id="Fill_37" data-name="Fill 37" class="cls-9" d="M5.437,10.874A5.51,5.51,0,0,1,0,5.437,5.51,5.51,0,0,1,5.437,0a5.51,5.51,0,0,1,5.437,5.437A5.509,5.509,0,0,1,5.437,10.874Zm0-9.32A3.842,3.842,0,0,0,1.554,5.437,3.842,3.842,0,0,0,5.437,9.321a3.859,3.859,0,0,0,2.7-6.641A3.92,3.92,0,0,0,5.437,1.554Z" transform="translate(68.349 0)"/>
          <path id="Fill_39" data-name="Fill 39" class="cls-9" d="M12.427,6.213A6.214,6.214,0,1,1,6.214,0a6.214,6.214,0,0,1,6.213,6.213" transform="translate(0.777 72.233)"/>
          <path id="Fill_41" data-name="Fill 41" class="cls-9" d="M6.99,13.981A6.962,6.962,0,0,1,0,6.99,6.962,6.962,0,0,1,6.99,0a6.962,6.962,0,0,1,4.894,11.942,7.131,7.131,0,0,1-2.228,1.493A6.794,6.794,0,0,1,6.99,13.981Zm0-12.427A5.509,5.509,0,0,0,1.554,6.99,5.51,5.51,0,0,0,6.99,12.427,5.51,5.51,0,0,0,12.427,6.99,5.51,5.51,0,0,0,6.99,1.554Z" transform="translate(0 71.456)"/>
        </g>
      </g>
      <g id="dollar-bill" class="cls-10" transform="translate(2921.814 2386.072)">
        <g id="Group_159934" data-name="Group 159934" transform="translate(0 0)">
          <path id="Path_147262" data-name="Path 147262" class="cls-11" d="M64.837,112H2.092A2.094,2.094,0,0,0,0,114.092v33.464a2.094,2.094,0,0,0,2.092,2.092H64.837a2.094,2.094,0,0,0,2.092-2.092V114.092A2.094,2.094,0,0,0,64.837,112Z" transform="translate(0 -112)"/>
        </g>
        <g id="Group_159935" data-name="Group 159935" transform="translate(4.183 4.183)">
          <path id="Path_147263" data-name="Path 147263" class="cls-12" d="M89.516,150.275a5.235,5.235,0,0,1-5.229-5.229A1.045,1.045,0,0,0,83.242,144H39.32a1.045,1.045,0,0,0-1.046,1.046,5.235,5.235,0,0,1-5.229,5.229A1.045,1.045,0,0,0,32,151.32v14.641a1.045,1.045,0,0,0,1.046,1.046,5.235,5.235,0,0,1,5.229,5.229,1.045,1.045,0,0,0,1.046,1.046H83.242a1.045,1.045,0,0,0,1.046-1.046,5.235,5.235,0,0,1,5.229-5.229,1.045,1.045,0,0,0,1.046-1.046V151.32A1.045,1.045,0,0,0,89.516,150.275Z" transform="translate(-32 -144)"/>
        </g>
        <g id="Group_159936" data-name="Group 159936" transform="translate(16.732 4.183)">
          <path id="Path_147264" data-name="Path 147264" class="cls-13" d="M128,158.641a16.723,16.723,0,0,0,8.638,14.641h16.188a16.726,16.726,0,0,0,0-29.281H136.638A16.723,16.723,0,0,0,128,158.641Z" transform="translate(-128 -144)"/>
        </g>
        <g id="Group_159937" data-name="Group 159937" transform="translate(26.667 7.843)">
          <path id="Path_147265" data-name="Path 147265" class="cls-12" d="M210.8,181.412c-2.095,0-3.66-1.1-3.66-2.092s1.566-2.091,3.66-2.091,3.66,1.1,3.66,2.091a1.569,1.569,0,1,0,3.137,0c0-2.514-2.2-4.557-5.229-5.089v-.663a1.569,1.569,0,0,0-3.137,0v.663c-3.03.532-5.229,2.574-5.229,5.089,0,2.932,2.986,5.229,6.8,5.229,2.095,0,3.66,1.1,3.66,2.092s-1.566,2.091-3.66,2.091-3.66-1.1-3.66-2.091a1.569,1.569,0,1,0-3.137,0c0,2.515,2.2,4.557,5.229,5.089v.662a1.569,1.569,0,1,0,3.137,0v-.662c3.03-.532,5.229-2.574,5.229-5.089C217.595,183.709,214.609,181.412,210.8,181.412Z" transform="translate(-204 -172)"/>
        </g>
        <g id="Group_159938" data-name="Group 159938" transform="translate(7.32 15.686)">
          <circle id="Ellipse_1975" data-name="Ellipse 1975" class="cls-11" cx="3.137" cy="3.137" r="3.137" transform="translate(0 0)"/>
        </g>
        <g id="Group_159939" data-name="Group 159939" transform="translate(53.333 15.686)">
          <circle id="Ellipse_1976" data-name="Ellipse 1976" class="cls-11" cx="3.137" cy="3.137" r="3.137" transform="translate(0 0)"/>
        </g>
        <g id="Group_159940" data-name="Group 159940" transform="translate(3.137 3.137)">
          <circle id="Ellipse_1977" data-name="Ellipse 1977" class="cls-13" cx="2.092" cy="2.092" r="2.092" transform="translate(0 0)"/>
        </g>
        <g id="Group_159941" data-name="Group 159941" transform="translate(59.608 3.137)">
          <circle id="Ellipse_1978" data-name="Ellipse 1978" class="cls-13" cx="2.092" cy="2.092" r="2.092" transform="translate(0 0)"/>
        </g>
        <g id="Group_159942" data-name="Group 159942" transform="translate(3.137 30.327)">
          <circle id="Ellipse_1979" data-name="Ellipse 1979" class="cls-13" cx="2.092" cy="2.092" r="2.092" transform="translate(0 0)"/>
        </g>
        <g id="Group_159943" data-name="Group 159943" transform="translate(59.608 30.327)">
          <circle id="Ellipse_1980" data-name="Ellipse 1980" class="cls-13" cx="2.092" cy="2.092" r="2.092" transform="translate(0 0)"/>
        </g>
      </g>
    </g>
  </g>
</svg>
