<svg xmlns="http://www.w3.org/2000/svg" xmlns:xlink="http://www.w3.org/1999/xlink" viewBox="0 0 600 188">
  <defs>
    <style>
      .cls-1 {
        fill: url(#linear-gradient);
      }

      .cls-13, .cls-2, .cls-24 {
        fill: #fff;
      }

      .cls-2 {
        stroke: #707070;
        opacity: 0;
      }

      .cls-3 {
        fill: url(#linear-gradient-2);
      }

      .cls-4 {
        fill: #ffeed5;
      }

      .cls-5 {
        fill: url(#linear-gradient-3);
      }

      .cls-6 {
        fill: #a2a2a2;
      }

      .cls-7 {
        fill: #eaeaea;
      }

      .cls-8 {
        fill: #ef9a9a;
      }

      .cls-9 {
        fill: #fff59d;
      }

      .cls-10 {
        fill: #80cbc4;
      }

      .cls-11 {
        fill: #ffea64;
      }

      .cls-12 {
        opacity: 0.1;
      }

      .cls-14 {
        fill: #64cbff;
      }

      .cls-15 {
        fill: #94f180;
      }

      .cls-16 {
        fill: #046699;
      }

      .cls-17 {
        fill: #72bc61;
      }

      .cls-18 {
        fill: #804231;
      }

      .cls-19 {
        fill: #b88a7e;
      }

      .cls-20 {
        fill: #5dc647;
      }

      .cls-21 {
        fill: #ffc502;
      }

      .cls-22 {
        fill: #ef5050;
      }

      .cls-23 {
        fill: #c0272d;
      }

      .cls-24 {
        opacity: 0.78;
      }

      .cls-25 {
        fill: #073376;
        font-size: 16px;
        font-family: NotoSansCJKtc-Bold, Noto Sans CJK TC;
        font-weight: 700;
        letter-spacing: 0.018em;
      }

      .cls-26 {
        fill: url(#linear-gradient-4);
      }

      .cls-27 {
        fill: url(#linear-gradient-5);
      }

      .cls-28 {
        fill: #606060;
      }

      .cls-29 {
        clip-path: url(#clip-path);
      }

      .cls-30 {
        opacity: 0.39;
      }

      .cls-31 {
        fill: #f599ab;
      }

      .cls-32 {
        fill: #f6768f;
      }

      .cls-33 {
        fill: #f34466;
      }

      .cls-34 {
        fill: #55b2cb;
      }

      .cls-35 {
        fill: #217dbb;
      }

      .cls-36 {
        fill: #76d3ec;
      }

      .cls-37 {
        fill: #57aa9a;
      }

      .cls-38 {
        fill: #66bfae;
      }

      .cls-39 {
        fill: #389481;
      }

      .cls-40 {
        fill: #2fbbc5;
      }

      .cls-41 {
        fill: #eb3400;
      }

      .cls-42 {
        fill: #0e834c;
      }

      .cls-43 {
        fill: #f9e25f;
      }

      .cls-44 {
        fill: #e74c3c;
      }

      .cls-45 {
        fill: #304e75;
      }

      .cls-46 {
        opacity: 0.33;
      }

      .cls-47 {
        fill: #16a085;
      }

      .cls-48 {
        fill: #1abc9c;
      }

      .cls-49 {
        fill: #128a72;
      }

      .cls-50 {
        fill: #6a7270;
      }

      .cls-51 {
        fill: #231f20;
      }

      .cls-52 {
        fill: #474747;
      }

      .cls-53 {
        fill: #858e8c;
      }

      .cls-54 {
        fill: #efb078;
      }

      .cls-55 {
        fill: #e8a670;
      }

      .cls-56 {
        fill: #b4c1bf;
      }

      .cls-57 {
        fill: #c5d6d3;
      }

      .cls-58 {
        fill: #5e5e5e;
      }

      .cls-59 {
        fill: #070606;
      }

      .cls-60 {
        opacity: 0.15;
      }

      .cls-61 {
        fill: #666564;
      }

      .cls-62 {
        fill: #9b5d1f;
      }

      .cls-63 {
        fill: #dde8e6;
      }

      .cls-64 {
        fill: #7a4826;
      }

      .cls-65 {
        fill: #6b3d1e;
      }

      .cls-66 {
        fill: #e2935d;
      }

      .cls-67 {
        fill: #d68b54;
      }

      .cls-68 {
        fill: #96562a;
      }

      .cls-69 {
        fill: #c66e42;
      }

      .cls-70 {
        fill: #ba6738;
      }

      .cls-71 {
        fill: #a56032;
      }

      .cls-72 {
        fill: #333232;
      }

      .cls-73 {
        fill: #ad2d00;
      }

      .cls-74 {
        fill: #ff3c00;
      }

      .cls-75 {
        fill: #eb6b24;
      }

      .cls-76 {
        fill: #ffdc13;
      }

      .cls-77 {
        fill: #d74f00;
      }

      .cls-78, .cls-79 {
        fill: #a1b3c4;
      }

      .cls-79 {
        opacity: 0.59;
      }

      .cls-80 {
        fill: #f60;
      }

      .cls-81 {
        fill: #72eef7;
      }

      .cls-82 {
        fill: #d6d6d6;
      }

      .cls-83 {
        fill: #a12300;
      }

      .cls-84 {
        fill: #dbffe9;
      }

      .cls-85 {
        opacity: 0.58;
      }

      .cls-86 {
        fill: #2db357;
      }

      .cls-87 {
        fill: #1a4541;
      }

      .cls-88 {
        fill: #5ee1eb;
      }

      .cls-89 {
        fill: #85453d;
      }

      .cls-90 {
        fill: gray;
      }

      .cls-91 {
        fill: #4f4f4f;
      }

      .cls-92 {
        fill: #353535;
      }

      .cls-93 {
        fill: #a45e43;
      }

      .cls-94 {
        fill: #a8e5ff;
      }

      .cls-95 {
        fill: #dbf4ff;
      }

      .cls-96 {
        fill: #40211d;
      }

      .cls-97 {
        fill: #ffb4a9;
      }

      .cls-98 {
        fill: #ffd9d4;
      }

      .cls-99 {
        fill: #60312c;
      }

      .cls-100 {
        fill: #b9d171;
      }

      .cls-101 {
        fill: #9db55f;
      }

      .cls-102 {
        fill: url(#linear-gradient-8);
      }

      .cls-103 {
        fill: url(#linear-gradient-9);
      }

      .cls-104 {
        fill: url(#linear-gradient-10);
      }

      .cls-105 {
        fill: url(#linear-gradient-11);
      }

      .cls-106 {
        fill: #8590a8;
      }

      .cls-107 {
        fill: #697491;
      }

      .cls-108 {
        fill: #e7f2ec;
      }

      .cls-109 {
        fill: #cedbda;
      }

      .cls-110 {
        fill: #ffd243;
      }

      .cls-111 {
        fill: #efae2e;
      }

      .cls-112 {
        fill: #e59120;
      }

      .cls-113 {
        fill: #dc4173;
      }

      .cls-114 {
        fill: #576384;
      }

      .cls-115 {
        stroke: none;
      }

      .cls-116 {
        fill: none;
      }
    </style>
    <linearGradient id="linear-gradient" x2="1" y2="1" gradientUnits="objectBoundingBox">
      <stop offset="0" stop-color="#dff5ff"/>
      <stop offset="1" stop-color="#f6fcff"/>
    </linearGradient>
    <linearGradient id="linear-gradient-2" x1="1" x2="0" y2="1" gradientUnits="objectBoundingBox">
      <stop offset="0" stop-color="#d2d2d2"/>
      <stop offset="1" stop-color="#a8a8a8"/>
    </linearGradient>
    <linearGradient id="linear-gradient-3" x1="0.843" y1="0" y2="1" xlink:href="#linear-gradient-2"/>
    <linearGradient id="linear-gradient-4" x1="1" x2="0" y2="1" gradientUnits="objectBoundingBox">
      <stop offset="0" stop-color="#888"/>
      <stop offset="1" stop-color="#676767"/>
    </linearGradient>
    <linearGradient id="linear-gradient-5" x1="0.843" y1="0" y2="1" xlink:href="#linear-gradient-4"/>
    <clipPath id="clip-path">
      <path id="Path_87031" data-name="Path 87031" class="cls-1" d="M.756,0H164.91c.418,0,.756,2,.756,4.467v80.4c0,2.467-.339,4.467-.756,4.467H.756c-.418,0-.756-2-.756-4.467V4.467C0,2,.339,0,.756,0Z" transform="translate(0 -26.667)"/>
    </clipPath>
    <linearGradient id="linear-gradient-8" x1="1" y1="1" x2="1" gradientUnits="objectBoundingBox">
      <stop offset="0" stop-color="#d50918"/>
      <stop offset="1" stop-color="#ff4b2b"/>
    </linearGradient>
    <linearGradient id="linear-gradient-9" x1="0.742" x2="0.742" xlink:href="#linear-gradient-8"/>
    <linearGradient id="linear-gradient-10" x1="0.742" x2="0.832" xlink:href="#linear-gradient-8"/>
    <linearGradient id="linear-gradient-11" x1="0.832" x2="0.772" xlink:href="#linear-gradient-8"/>
  </defs>
  <g id="con-5" transform="translate(-2544 -2459)">
    <g id="con-5-2" data-name="con-5" transform="translate(-105 65)">
      <g id="Rectangle_9274" data-name="Rectangle 9274" class="cls-2" transform="translate(2649 2394)">
        <rect class="cls-115" width="600" height="188"/>
        <rect class="cls-116" x="0.5" y="0.5" width="599" height="187"/>
      </g>
      <g id="ico-15" transform="translate(1981 1715)">
        <g id="Rectangle_9197" data-name="Rectangle 9197" class="cls-2" transform="translate(695 687)">
          <rect class="cls-115" width="173" height="173"/>
          <rect class="cls-116" x="0.5" y="0.5" width="172" height="172"/>
        </g>
        <g id="Group_37648" data-name="Group 37648" transform="translate(695 694.237)">
          <path id="Union_77" data-name="Union 77" class="cls-3" d="M160.254,132.6H10.815A10.912,10.912,0,0,1,0,121.6V11A10.912,10.912,0,0,1,10.815,0H162.22A10.9,10.9,0,0,1,173,11V121.6a10.911,10.911,0,0,1-10.815,11Z" transform="translate(0 0)"/>
          <path id="Path_46643" data-name="Path 46643" class="cls-4" d="M177.56,18.881v88.957c0,3.231-2.328,5.881-5.184,5.881H17.984c-2.857,0-5.184-2.617-5.184-5.881V18.881C12.8,15.617,15.128,13,17.984,13H172.376C175.233,13,177.56,15.65,177.56,18.881Z" transform="translate(-8.664 -8.799)"/>
          <path id="Union_78" data-name="Union 78" class="cls-5" d="M5.613,25.269C3.717,24.332,1.821,23.33,0,22.3a21.517,21.517,0,0,1,16.951-8.012V0H88.915V14.284a22.871,22.871,0,0,1,11.152,3,19.206,19.206,0,0,1,5.464,4.653c-2.007,1.163-4.089,2.295-6.207,3.328Z" transform="translate(33.605 132.598)"/>
          <path id="Path_47164" data-name="Path 47164" class="cls-6" d="M0,0H62.558V6.56H0Z" transform="translate(55.24 132.599)"/>
          <path id="Path_46645" data-name="Path 46645" class="cls-7" d="M177.492,18.881v6.98H12.7v-6.98C12.7,15.617,15.027,13,17.884,13H172.273C175.165,13,177.492,15.65,177.492,18.881Z" transform="translate(-8.596 -8.799)"/>
          <ellipse id="Ellipse_1515" data-name="Ellipse 1515" class="cls-8" cx="3.716" cy="3.716" rx="3.716" ry="3.716" transform="translate(8.304 6.916)"/>
          <ellipse id="Ellipse_1516" data-name="Ellipse 1516" class="cls-9" cx="3.716" cy="3.716" rx="3.716" ry="3.716" transform="translate(18.968 6.916)"/>
          <ellipse id="Ellipse_1517" data-name="Ellipse 1517" class="cls-10" cx="3.716" cy="3.716" rx="3.716" ry="3.716" transform="translate(32.289 6.916)"/>
          <g id="location" transform="translate(48 -31.125)">
            <path id="Path_87070" data-name="Path 87070" class="cls-11" d="M110.387,65.518H68.326a12.161,12.161,0,0,1,.93,13.934L59.546,97.26a.882.882,0,0,1-1.547,0l-9.705-17.8a12.162,12.162,0,0,1,.925-13.943H1.122A1.125,1.125,0,0,0,0,66.64v85.527a1.125,1.125,0,0,0,1.122,1.122H110.387a1.125,1.125,0,0,0,1.122-1.122V66.64A1.125,1.125,0,0,0,110.387,65.518Z" transform="translate(0 -17.244)"/>
            <g id="Group_81865" data-name="Group 81865" class="cls-12" transform="translate(0 48.274)">
              <path id="Path_87071" data-name="Path 87071" d="M5.721,152.167V66.639a1.125,1.125,0,0,1,1.122-1.122H1.122A1.126,1.126,0,0,0,0,66.639v85.527a1.125,1.125,0,0,0,1.122,1.122H6.843A1.125,1.125,0,0,1,5.721,152.167Z" transform="translate(0 -65.517)"/>
            </g>
            <path id="Path_87072" data-name="Path 87072" class="cls-13" d="M123.829,89.435H89.4a12.188,12.188,0,0,1-1.52,8.725l-9.71,17.808a.882.882,0,0,1-1.547,0l-9.705-17.8A12.19,12.19,0,0,1,65.4,89.435H24.937a1.125,1.125,0,0,0-1.122,1.122v75.109a1.125,1.125,0,0,0,1.122,1.122h98.892a1.125,1.125,0,0,0,1.122-1.122V90.557A1.125,1.125,0,0,0,123.829,89.435Z" transform="translate(-18.628 -35.952)"/>
            <path id="Path_87073" data-name="Path 87073" class="cls-14" d="M410.752,89.435H390.627v77.354h20.125a1.125,1.125,0,0,0,1.122-1.122V90.557A1.125,1.125,0,0,0,410.752,89.435Zm-9.579,62.141a5.1,5.1,0,1,1,5.1-5.1A5.1,5.1,0,0,1,401.174,151.576Z" transform="translate(-305.552 -35.952)"/>
            <path id="Path_87074" data-name="Path 87074" class="cls-15" d="M213.817,198.407H196.851l-1.527,2.8a.882.882,0,0,1-1.547,0l-1.527-2.8H174.706a1.125,1.125,0,0,0-1.122,1.122v52.5h41.354v-52.5A1.125,1.125,0,0,0,213.817,198.407Z" transform="translate(-135.779 -121.191)"/>
            <path id="Path_87075" data-name="Path 87075" class="cls-16" d="M406.266,352.271a5.1,5.1,0,0,1-10.184,0h-5.455v20.111h20.125a1.125,1.125,0,0,0,1.122-1.122V352.271Z" transform="translate(-305.552 -241.544)"/>
            <rect id="Rectangle_20857" data-name="Rectangle 20857" class="cls-17" width="21.248" height="28.709" transform="translate(85.076 60.236)"/>
            <g id="Group_81866" data-name="Group 81866" transform="translate(37.805 53.483)">
              <path id="Path_87076" data-name="Path 87076" class="cls-15" d="M301.957,89.435a12.187,12.187,0,0,1-1.52,8.725l-4.887,8.964h13.67A1.125,1.125,0,0,0,310.341,106V89.435Z" transform="translate(-268.987 -89.435)"/>
              <path id="Path_87077" data-name="Path 87077" class="cls-15" d="M184.073,98.168a12.19,12.19,0,0,1-1.525-8.733h-8.963V106a1.126,1.126,0,0,0,1.122,1.122h14.249Z" transform="translate(-173.585 -89.435)"/>
            </g>
            <rect id="Rectangle_20858" data-name="Rectangle 20858" class="cls-13" width="21.677" height="19.052" transform="translate(47.934 99.865)"/>
            <g id="Group_81867" data-name="Group 81867" transform="translate(44.057 85.871)">
              <path id="Path_87078" data-name="Path 87078" class="cls-18" d="M259.855,343.145H253.9a.64.64,0,0,0-.638.638v9.541h7.225v-9.541A.64.64,0,0,0,259.855,343.145Z" transform="translate(-242.165 -320.277)"/>
              <path id="Path_87079" data-name="Path 87079" class="cls-18" d="M202.862,252.359c-.617,0-.758-.35-.313-.777L216.2,238.468a1.181,1.181,0,0,1,1.618,0l13.646,13.113c.445.428.3.777-.313.777Z" transform="translate(-202.29 -238.148)"/>
            </g>
            <g id="Group_81868" data-name="Group 81868" class="cls-12" transform="translate(44.056 85.871)">
              <path id="Path_87080" data-name="Path 87080" d="M208.188,251.581,219.823,240.4l-2.011-1.932a1.181,1.181,0,0,0-1.618,0l-13.646,13.113c-.445.428-.3.777.313.777h5.64C207.883,252.359,207.743,252.009,208.188,251.581Z" transform="translate(-202.288 -238.148)"/>
            </g>
            <g id="Group_81869" data-name="Group 81869" transform="translate(44.071 102.638)">
              <path id="Path_87081" data-name="Path 87081" class="cls-19" d="M256.417,318.4h-5.843a1.633,1.633,0,1,1,0-3.267h5.843a1.633,1.633,0,1,1,0,3.267Z" transform="translate(-238.795 -315.132)"/>
              <path id="Path_87082" data-name="Path 87082" class="cls-19" d="M230.123,392.149H203.988a1.633,1.633,0,0,1,0-3.267h26.135a1.633,1.633,0,1,1,0,3.267Z" transform="translate(-202.355 -372.82)"/>
            </g>
            <g id="Group_81870" data-name="Group 81870" transform="translate(5.187 53.483)">
              <path id="Path_87083" data-name="Path 87083" class="cls-17" d="M49.325,363.116h-8.09a5.087,5.087,0,0,1-7.941,0H23.815v16.626a1.125,1.125,0,0,0,1.122,1.122h25.51V364.238A1.125,1.125,0,0,0,49.325,363.116Z" transform="translate(-23.815 -303.511)"/>
              <path id="Path_87084" data-name="Path 87084" class="cls-20" d="M24.937,89.435a1.125,1.125,0,0,0-1.122,1.122v16.566h9.321a5.088,5.088,0,0,1,8.257,0h7.932A1.125,1.125,0,0,0,50.447,106V89.435Z" transform="translate(-23.815 -89.435)"/>
            </g>
            <path id="Path_87085" data-name="Path 87085" class="cls-14" d="M49.325,198.407H41.341a5.09,5.09,0,0,1-8.152,0H23.815v30.178h9.01a5.091,5.091,0,0,1,8.88,0h7.621a1.125,1.125,0,0,0,1.122-1.122V199.529A1.125,1.125,0,0,0,49.325,198.407Z" transform="translate(-18.628 -121.191)"/>
            <g id="Group_81871" data-name="Group 81871" class="cls-12" transform="translate(5.187 53.483)">
              <path id="Path_87086" data-name="Path 87086" d="M29.51,165.667V90.557a1.125,1.125,0,0,1,1.122-1.122h-5.7a1.125,1.125,0,0,0-1.122,1.122v75.109a1.125,1.125,0,0,0,1.122,1.122h5.7A1.125,1.125,0,0,1,29.51,165.667Z" transform="translate(-23.815 -89.435)"/>
            </g>
            <g id="Group_81872" data-name="Group 81872" transform="translate(13.321 68.839)">
              <ellipse id="Ellipse_1962" data-name="Ellipse 1962" class="cls-21" cx="5.315" cy="5.318" rx="5.315" ry="5.318" transform="translate(0 35.737)"/>
              <ellipse id="Ellipse_1963" data-name="Ellipse 1963" class="cls-21" cx="5.315" cy="5.318" rx="5.315" ry="5.318"/>
            </g>
            <g id="Group_81873" data-name="Group 81873" class="cls-12" transform="translate(13.321 104.577)">
              <path id="Path_87087" data-name="Path 87087" d="M66.8,329.353a5.314,5.314,0,0,1,2.5-4.508,5.318,5.318,0,1,0,0,9.016A5.314,5.314,0,0,1,66.8,329.353Z" transform="translate(-61.165 -324.035)"/>
            </g>
            <g id="Group_81874" data-name="Group 81874" class="cls-12" transform="translate(13.321 68.84)">
              <path id="Path_87088" data-name="Path 87088" d="M66.8,165.263a5.314,5.314,0,0,1,2.5-4.508,5.318,5.318,0,1,0,0,9.016A5.314,5.314,0,0,1,66.8,165.263Z" transform="translate(-61.165 -159.945)"/>
            </g>
            <ellipse id="Ellipse_1964" data-name="Ellipse 1964" class="cls-21" cx="5.315" cy="5.318" rx="5.315" ry="5.318" transform="translate(90.306 105.206)"/>
            <g id="Group_81875" data-name="Group 81875" class="cls-12" transform="translate(90.307 105.206)">
              <path id="Path_87089" data-name="Path 87089" d="M420.4,332.241a5.313,5.313,0,0,1,2.441-4.472,5.318,5.318,0,1,0,0,8.945A5.313,5.313,0,0,1,420.4,332.241Z" transform="translate(-414.649 -326.923)"/>
            </g>
            <path id="Path_87090" data-name="Path 87090" class="cls-22" d="M225.095,43.473a12.42,12.42,0,0,1,10.669,18.848l-9.7,17.8a1.1,1.1,0,0,1-1.929,0l-9.705-17.8a12.42,12.42,0,0,1,10.67-18.848Z" transform="translate(-166.323)"/>
            <g id="Group_81876" data-name="Group 81876" class="cls-12" transform="translate(46.31 43.473)">
              <path id="Path_87091" data-name="Path 87091" d="M220.036,62.321A12.411,12.411,0,0,1,227.9,43.794a12.426,12.426,0,0,0-13.475,18.527l9.705,17.8a1.1,1.1,0,0,0,1.929,0l1.84-3.375Z" transform="translate(-212.633 -43.473)"/>
            </g>
            <ellipse id="Ellipse_1965" data-name="Ellipse 1965" class="cls-13" cx="4.6" cy="4.602" rx="4.6" ry="4.602" transform="translate(54.173 51.555)"/>
            <path id="Path_87092" data-name="Path 87092" class="cls-23" d="M247.469,85.549a6.235,6.235,0,1,1,6.233-6.235A6.241,6.241,0,0,1,247.469,85.549Zm0-9.2a2.968,2.968,0,1,0,2.966,2.968A2.971,2.971,0,0,0,247.469,76.345Z" transform="translate(-188.697 -23.157)"/>
          </g>
          <rect id="Rectangle_20856" data-name="Rectangle 20856" class="cls-24" width="82" height="24" transform="translate(7 18.763)"/>
          <text id="地圖找工作" class="cls-25" transform="translate(48 37.763)"><tspan x="-40.576" y="0">地圖找工作</tspan></text>
        </g>
      </g>
      <g id="ico-15-2" data-name="ico-15" transform="translate(2168 1715)">
        <g id="Rectangle_9197-2" data-name="Rectangle 9197" class="cls-2" transform="translate(695 687)">
          <rect class="cls-115" width="173" height="173"/>
          <rect class="cls-116" x="0.5" y="0.5" width="172" height="172"/>
        </g>
        <g id="Group_37648-2" data-name="Group 37648" transform="translate(695 694.237)">
          <path id="Union_77-2" data-name="Union 77" class="cls-26" d="M160.254,132.6H10.815A10.912,10.912,0,0,1,0,121.6V11A10.912,10.912,0,0,1,10.815,0H162.22A10.9,10.9,0,0,1,173,11V121.6a10.911,10.911,0,0,1-10.815,11Z" transform="translate(0 0)"/>
          <path id="Path_46643-2" data-name="Path 46643" class="cls-13" d="M177.56,18.881v88.957c0,3.231-2.328,5.881-5.184,5.881H17.984c-2.857,0-5.184-2.617-5.184-5.881V18.881C12.8,15.617,15.128,13,17.984,13H172.376C175.233,13,177.56,15.65,177.56,18.881Z" transform="translate(-8.664 -8.799)"/>
          <path id="Union_78-2" data-name="Union 78" class="cls-27" d="M5.613,25.269C3.717,24.332,1.821,23.33,0,22.3a21.517,21.517,0,0,1,16.951-8.012V0H88.915V14.284a22.871,22.871,0,0,1,11.152,3,19.206,19.206,0,0,1,5.464,4.653c-2.007,1.163-4.089,2.295-6.207,3.328Z" transform="translate(33.605 132.598)"/>
          <path id="Path_47164-2" data-name="Path 47164" class="cls-28" d="M0,0H62.558V6.56H0Z" transform="translate(55.24 132.599)"/>
          <path id="Path_46645-2" data-name="Path 46645" class="cls-7" d="M177.492,18.881v6.98H12.7v-6.98C12.7,15.617,15.027,13,17.884,13H172.273C175.165,13,177.492,15.65,177.492,18.881Z" transform="translate(-8.596 -8.799)"/>
          <ellipse id="Ellipse_1515-2" data-name="Ellipse 1515" class="cls-8" cx="3.716" cy="3.716" rx="3.716" ry="3.716" transform="translate(8.304 6.916)"/>
          <ellipse id="Ellipse_1516-2" data-name="Ellipse 1516" class="cls-9" cx="3.716" cy="3.716" rx="3.716" ry="3.716" transform="translate(18.968 6.916)"/>
          <ellipse id="Ellipse_1517-2" data-name="Ellipse 1517" class="cls-10" cx="3.716" cy="3.716" rx="3.716" ry="3.716" transform="translate(32.289 6.916)"/>
          <g id="Mask_Group_306" data-name="Mask Group 306" class="cls-29" transform="translate(4 42.763)">
            <g id="_025-business" data-name="025-business" class="cls-30" transform="translate(85.24 -39.031)">
              <path id="Path_87001" data-name="Path 87001" class="cls-31" d="M259.423,48.184,239.7,59.761l20.052,11.577,20.052-11.577Z" transform="translate(-239.705 -37.956)"/>
              <path id="Path_87002" data-name="Path 87002" class="cls-32" d="M239.711,159.474l-.006-45.174,20.052-11.577v44.369Z" transform="translate(-219.653 -80.918)"/>
              <g id="Group_81858" data-name="Group 81858" transform="translate(0 21.805)">
                <path id="Path_87003" data-name="Path 87003" class="cls-33" d="M278.5,125.981v12.685l1.485-.85V125.123Z" transform="translate(-248.118 -120.368)"/>
                <path id="Path_87004" data-name="Path 87004" class="cls-33" d="M354.191,114.3l-20.052-11.577v45.17l20.058,11.58Z" transform="translate(-334.139 -102.724)"/>
              </g>
              <path id="Path_87005" data-name="Path 87005" class="cls-34" d="M165.291,249.174l-20.047,11.914-.005-32.487,20.053-11.577Z" transform="translate(-105.134 -170.956)"/>
              <path id="Path_87006" data-name="Path 87006" class="cls-35" d="M239.705,249.509V217.024L259.757,228.6v32.487Z" transform="translate(-219.653 -170.956)"/>
              <path id="Path_87007" data-name="Path 87007" class="cls-36" d="M165.29,162.485l-20.052,11.577,20.052,11.577,20.053-11.577Z" transform="translate(-125.186 -127.994)"/>
              <path id="Path_87008" data-name="Path 87008" class="cls-37" d="M70.7,335.488,50.622,347.31l-.011-23.846L70.7,311.757Z" transform="translate(9.548 -245.58)"/>
              <path id="Path_87009" data-name="Path 87009" class="cls-38" d="M70.846,257.341l-20.083,11.68L70.816,280.6l20.052-11.735Z" transform="translate(-10.657 -202.715)"/>
              <path id="Path_87010" data-name="Path 87010" class="cls-39" d="M145.177,336.192l0-23.826,20.053,11.577.011,23.846Z" transform="translate(-105.068 -246.06)"/>
              <path id="Path_87011" data-name="Path 87011" class="cls-40" d="M185.871,184.918l19.978,11.613-1.569.906-19.894-11.668Z" transform="translate(-154.002 -145.665)"/>
              <path id="Path_87012" data-name="Path 87012" class="cls-41" d="M282,79.156c1.929,0,3.494,1.07,3.494,2.391a1.766,1.766,0,0,1-.3.961l10.893,6.409-1.485.854-10.645-6.245a4.677,4.677,0,0,1-1.959.411c-1.93,0-3.495-1.07-3.495-2.39S280.066,79.156,282,79.156Z" transform="translate(-264.218 -62.354)"/>
              <path id="Path_87013" data-name="Path 87013" class="cls-42" d="M99.064,281.112l1.569-.913,12.993,7.592a3.944,3.944,0,0,1,1.625-.277c1.929,0,3.494,1.07,3.494,2.391s-1.564,2.39-3.494,2.39-3.494-1.07-3.494-2.39a1.8,1.8,0,0,1,.363-1.056Z" transform="translate(-48.787 -220.721)"/>
              <path id="Path_87014" data-name="Path 87014" class="cls-43" d="M155.78,76.481l6.372-2.608-1.112-2.9-3.813,1.68L145.894,43.968l-11.058,6.49L119.155,13.294l-2.572,1.085,16.92,40.1,10.93-6.415Z" transform="translate(-95.913 -10.472)"/>
              <g id="Group_81859" data-name="Group 81859" transform="translate(18.593 0)">
                <circle id="Ellipse_1958" data-name="Ellipse 1958" class="cls-44" cx="3.365" cy="3.365" r="3.365" transform="translate(0 0)"/>
                <circle id="Ellipse_1959" data-name="Ellipse 1959" class="cls-44" cx="3.316" cy="3.316" r="3.316" transform="translate(45.836 57.645)"/>
              </g>
              <path id="Path_87015" data-name="Path 87015" class="cls-45" d="M184.386,240.533v8.619l1.569-.913v-8.612Z" transform="translate(-134.109 -188.761)"/>
            </g>
            <g id="_025-business-2" data-name="025-business" class="cls-46" transform="translate(-24.283 -18.701)">
              <path id="Path_87016" data-name="Path 87016" class="cls-31" d="M251.956,48.184l11.85,6.958L251.755,62.1,239.7,55.141Z" transform="translate(-215.583 -42.037)"/>
              <path id="Path_87017" data-name="Path 87017" class="cls-32" d="M251.752,136.829l0-27.148-12.05-6.958v26.665Z" transform="translate(-215.583 -89.619)"/>
              <g id="Group_81860" data-name="Group 81860" transform="translate(29.072 13.104)">
                <path id="Path_87018" data-name="Path 87018" class="cls-33" d="M279.394,125.638v7.624l-.893-.511v-7.628Z" transform="translate(-278.501 -122.266)"/>
                <path id="Path_87019" data-name="Path 87019" class="cls-33" d="M334.143,109.681l12.051-6.957V129.87l-12.055,6.959Z" transform="translate(-327.041 -102.724)"/>
              </g>
              <path id="Path_87020" data-name="Path 87020" class="cls-34" d="M145.238,236.345l12.048,7.16,0-19.524-12.051-6.958Z" transform="translate(-133.167 -189.339)"/>
              <path id="Path_87021" data-name="Path 87021" class="cls-35" d="M251.756,236.546V217.024l-12.05,6.958v19.524Z" transform="translate(-215.583 -189.339)"/>
              <path id="Path_87022" data-name="Path 87022" class="cls-36" d="M157.289,162.485l12.051,6.957L157.289,176.4l-12.051-6.958Z" transform="translate(-133.167 -141.757)"/>
              <path id="Path_87023" data-name="Path 87023" class="cls-47" d="M50.611,326.018l12.063,7.1.007-14.331-12.07-7.035Z" transform="translate(-50.611 -271.987)"/>
              <path id="Path_87024" data-name="Path 87024" class="cls-48" d="M62.8,257.341l12.069,7.019-12.051,6.957-12.051-7.053Z" transform="translate(-50.744 -224.512)"/>
              <path id="Path_87025" data-name="Path 87025" class="cls-49" d="M157.23,326.685l0-14.319-12.051,6.957-.007,14.331Z" transform="translate(-133.111 -272.518)"/>
              <path id="Path_87026" data-name="Path 87026" class="cls-40" d="M196.392,184.918,184.386,191.9l.943.544,11.956-7.012Z" transform="translate(-167.321 -161.328)"/>
              <path id="Path_87027" data-name="Path 87027" class="cls-41" d="M286.97,79.156c-1.159,0-2.1.643-2.1,1.437a1.061,1.061,0,0,0,.178.577L278.5,85.022l.893.513,6.4-3.753a2.811,2.811,0,0,0,1.178.247c1.16,0,2.1-.643,2.1-1.436S288.13,79.156,286.97,79.156Z" transform="translate(-249.43 -69.058)"/>
              <path id="Path_87028" data-name="Path 87028" class="cls-42" d="M110.892,280.747l-.943-.548-7.809,4.563a2.37,2.37,0,0,0-.976-.166c-1.159,0-2.1.643-2.1,1.437s.94,1.436,2.1,1.436,2.1-.643,2.1-1.436a1.08,1.08,0,0,0-.218-.635Z" transform="translate(-92.883 -244.454)"/>
              <path id="Path_87029" data-name="Path 87029" class="cls-43" d="M120.412,51.268,116.583,49.7l.668-1.741,2.291,1.01,6.811-17.241,6.645,3.9,9.424-22.334,1.546.652L133.8,38.044l-6.569-3.855Z" transform="translate(-108.167 -11.598)"/>
              <g id="Group_81861" data-name="Group 81861" transform="translate(5.519 0)">
                <circle id="Ellipse_1960" data-name="Ellipse 1960" class="cls-44" cx="2.022" cy="2.022" r="2.022" transform="translate(27.487 0)"/>
                <circle id="Ellipse_1961" data-name="Ellipse 1961" class="cls-44" cx="1.993" cy="1.993" r="1.993" transform="translate(0 34.643)"/>
              </g>
              <path id="Path_87030" data-name="Path 87030" class="cls-45" d="M185.329,240.171v5.18l-.943-.548v-5.176Z" transform="translate(-167.321 -209.058)"/>
            </g>
          </g>
          <g id="Group_81862" data-name="Group 81862" transform="translate(27.447 32.695)">
            <g id="_019-doctor" data-name="019-doctor" transform="translate(0 0)">
              <g id="Group_81521" data-name="Group 81521" transform="translate(19.76 11.117)">
                <path id="Path_85269" data-name="Path 85269" class="cls-50" d="M286.147,82.188a4.278,4.278,0,0,0-1.926-3.343,1.3,1.3,0,0,0-1.424-.089l-1.366.789v2.85l1.449.86V81.862a4.065,4.065,0,0,0,1.239,1.367v1.047l1.421-.82h0A1.329,1.329,0,0,0,286.147,82.188Z" transform="translate(-280.874 -78.583)"/>
                <path id="Path_85270" data-name="Path 85270" class="cls-50" d="M285.907,80.215l-.065-.036L283.4,81.593v2.336l1.171.7V83.232A4.064,4.064,0,0,0,285.8,84.6v1.047l1.421-.82h0a1.328,1.328,0,0,0,.608-1.27A4.278,4.278,0,0,0,285.907,80.215Z" transform="translate(-282.56 -79.953)"/>
                <path id="Path_85271" data-name="Path 85271" class="cls-50" d="M279.421,89.083a4.318,4.318,0,0,1-1.926-3.34c-.006-1.225.857-1.725,1.915-1.114a4.282,4.282,0,0,1,1.927,3.343C281.338,89.2,280.476,89.7,279.421,89.083Z" transform="translate(-277.496 -83.549)"/>
                <path id="Path_85272" data-name="Path 85272" class="cls-50" d="M291.033,86.209a4.281,4.281,0,0,1,1.927,3.343c0,1.226-.862,1.727-1.916,1.112" transform="translate(-289.118 -85.13)"/>
              </g>
              <path id="Path_85273" data-name="Path 85273" class="cls-51" d="M277.915,119.178l.035,11.2-3.285,1.9V121.054Z" transform="translate(-255.305 -102.318)"/>
              <path id="Path_85274" data-name="Path 85274" class="cls-52" d="M251.482,130.27l3.249,1.877V120.929l-3.285-1.9Z" transform="translate(-235.373 -102.192)"/>
              <path id="Path_85275" data-name="Path 85275" class="cls-53" d="M251.7,198.467v3.753l13,7.525v-3.763Z" transform="translate(-235.586 -170.39)"/>
              <path id="Path_85276" data-name="Path 85276" class="cls-54" d="M346.794,238.253v3.753l-3.214,1.9V240.14Z" transform="translate(-314.472 -204.547)"/>
              <path id="Path_85277" data-name="Path 85277" class="cls-55" d="M343.58,243.9V240.14l3.214-1.887" transform="translate(-314.472 -204.547)"/>
              <path id="Path_85278" data-name="Path 85278" class="cls-56" d="M278.054,198.325l9.679,5.649-3.214,1.887-9.732-5.639Z" transform="translate(-255.41 -170.268)"/>
              <path id="Path_85279" data-name="Path 85279" class="cls-57" d="M274.786,200.222l3.268-1.9,9.679,5.649" transform="translate(-255.41 -170.268)"/>
              <path id="Path_85280" data-name="Path 85280" class="cls-58" d="M251.447,107.644l3.285-1.877,3.251,1.9-3.251,1.876Z" transform="translate(-235.373 -90.804)"/>
              <path id="Path_85281" data-name="Path 85281" class="cls-52" d="M279.017,357.951l.035,7.485-3.285,1.9v-7.5Z" transform="translate(-256.252 -307.312)"/>
              <path id="Path_85282" data-name="Path 85282" class="cls-59" d="M252.585,365.334l3.249,1.877v-7.5l-3.285-1.9Z" transform="translate(-236.32 -307.19)"/>
              <path id="Path_85283" data-name="Path 85283" class="cls-52" d="M255.834,359.706l-3.285-1.9.035,7.525" transform="translate(-236.32 -307.19)"/>
              <path id="Path_85284" data-name="Path 85284" class="cls-60" d="M184.009,431.836l13-7.506,6.5,3.753-13,7.5Z" transform="translate(-177.475 -364.3)"/>
              <path id="Path_85285" data-name="Path 85285" class="cls-59" d="M252.8,411v3.753l6.535,3.773v-3.762Z" transform="translate(-236.533 -352.854)"/>
              <path id="Path_85286" data-name="Path 85286" class="cls-52" d="M302.2,424.263v3.753l-3.214,1.9V426.15Z" transform="translate(-276.188 -364.242)"/>
              <g id="Group_81522" data-name="Group 81522" transform="translate(9.783 43.154)">
                <path id="Path_85287" data-name="Path 85287" class="cls-61" d="M279.157,410.86l3.214,1.9-3.214,1.887-3.268-1.887Z" transform="translate(-266.14 -395.889)"/>
                <path id="Path_85288" data-name="Path 85288" class="cls-61" d="M206.978,312.544l13-7.506v7.506l-13,7.5Z" transform="translate(-206.978 -305.038)"/>
              </g>
              <path id="Path_85289" data-name="Path 85289" class="cls-52" d="M206.978,320.048v-7.5l13-7.506" transform="translate(-197.195 -261.884)"/>
              <path id="Path_85290" data-name="Path 85290" class="cls-59" d="M161.036,331.563l6.5,3.753v7.5l-6.5-3.753Z" transform="translate(-157.752 -284.657)"/>
              <path id="Path_85291" data-name="Path 85291" class="cls-62" d="M161.036,286.021l13-7.5,6.5,3.752-13,7.506Z" transform="translate(-157.752 -239.114)"/>
              <path id="Path_85292" data-name="Path 85292" class="cls-63" d="M206.978,153.391l13-7.506V168.4l-13,7.506Z" transform="translate(-197.195 -125.247)"/>
              <path id="Path_85293" data-name="Path 85293" class="cls-56" d="M206.978,175.906V153.391l13-7.506" transform="translate(-197.195 -125.247)"/>
              <path id="Path_85294" data-name="Path 85294" class="cls-52" d="M246.957,170.247l2.3-1.33v15.019l-2.3,1.33Z" transform="translate(-231.518 -145.02)"/>
              <path id="Path_85295" data-name="Path 85295" class="cls-59" d="M246.957,185.266V170.247l2.3-1.33" transform="translate(-231.518 -145.02)"/>
              <g id="Group_81523" data-name="Group 81523" transform="translate(3.284 16.886)">
                <path id="Path_85296" data-name="Path 85296" class="cls-53" d="M274.885,203.658l2.254-1.3v-.377l-2.254,1.3Z" transform="translate(-258.779 -190.292)"/>
                <path id="Path_85297" data-name="Path 85297" class="cls-53" d="M161.036,172.414l6.5,3.753v22.515l-6.5-3.753Z" transform="translate(-161.036 -164.909)"/>
                <path id="Path_85298" data-name="Path 85298" class="cls-53" d="M161.036,126.868l13-7.505,6.5,3.752-13,7.506Z" transform="translate(-161.036 -119.363)"/>
              </g>
              <path id="Path_85299" data-name="Path 85299" class="cls-52" d="M210.229,397.808l.035,7.485-3.286,1.9v-7.505Z" transform="translate(-197.195 -341.53)"/>
              <path id="Path_85300" data-name="Path 85300" class="cls-59" d="M183.8,405.259l3.249,1.876V399.63l-3.284-1.9Z" transform="translate(-177.266 -341.466)"/>
              <path id="Path_85301" data-name="Path 85301" class="cls-52" d="M187.049,399.63l-3.284-1.9.035,7.526" transform="translate(-177.266 -341.466)"/>
              <path id="Path_85302" data-name="Path 85302" class="cls-59" d="M184.009,450.93v3.753l6.535,3.773v-3.763Z" transform="translate(-177.475 -387.137)"/>
              <g id="Group_81524" data-name="Group 81524" transform="translate(13.069 60.608)">
                <path id="Path_85303" data-name="Path 85303" class="cls-52" d="M233.417,464.191v3.753l-3.214,1.9v-3.763Z" transform="translate(-230.203 -459.13)"/>
                <path id="Path_85304" data-name="Path 85304" class="cls-52" d="M252.8,429.7l6.535,3.773v-1.288l-6.535-3.773Z" transform="translate(-249.601 -428.414)"/>
              </g>
              <path id="Path_85305" data-name="Path 85305" class="cls-59" d="M298.988,444.867l3.214-1.9v-1.288l-3.214,1.9Z" transform="translate(-276.188 -379.198)"/>
              <path id="Path_85306" data-name="Path 85306" class="cls-52" d="M184.009,469.635l6.535,3.773v-1.288l-6.535-3.773Z" transform="translate(-177.475 -402.089)"/>
              <path id="Path_85307" data-name="Path 85307" class="cls-59" d="M230.2,484.792l3.214-1.9v-1.289l-3.214,1.9Z" transform="translate(-217.134 -413.474)"/>
              <path id="Path_85308" data-name="Path 85308" class="cls-61" d="M210.368,450.788l3.214,1.9-3.214,1.886-3.268-1.886Z" transform="translate(-197.299 -387.015)"/>
              <path id="Path_85309" data-name="Path 85309" class="cls-63" d="M164.29,185.817l.035,11.2-3.285,1.9V187.693Z" transform="translate(-157.755 -159.529)"/>
              <g id="Group_81525" data-name="Group 81525" transform="translate(0 26.268)">
                <path id="Path_85310" data-name="Path 85310" class="cls-53" d="M137.858,196.916l3.249,1.876V187.575l-3.285-1.9Z" transform="translate(-137.823 -185.679)"/>
                <path id="Path_85311" data-name="Path 85311" class="cls-53" d="M138.071,265.106v3.753l13,7.526v-3.763Z" transform="translate(-138.036 -253.869)"/>
              </g>
              <path id="Path_85312" data-name="Path 85312" class="cls-54" d="M233.162,304.9v3.753l-3.215,1.9v-3.763Z" transform="translate(-216.914 -261.762)"/>
              <path id="Path_85313" data-name="Path 85313" class="cls-55" d="M229.947,310.545v-3.763l3.215-1.887" transform="translate(-216.914 -261.762)"/>
              <path id="Path_85314" data-name="Path 85314" class="cls-56" d="M164.43,264.968l9.679,5.649-3.215,1.887-9.731-5.639Z" transform="translate(-157.86 -227.483)"/>
              <path id="Path_85315" data-name="Path 85315" class="cls-57" d="M161.162,266.864l3.268-1.9,9.679,5.649" transform="translate(-157.86 -227.483)"/>
              <path id="Path_85316" data-name="Path 85316" class="cls-56" d="M137.823,174.291l3.284-1.877,3.251,1.9-3.25,1.876Z" transform="translate(-137.823 -148.023)"/>
              <path id="Path_85317" data-name="Path 85317" class="cls-54" d="M230.2,45.38l9.742-5.625V56.63L230.2,62.254Z" transform="translate(-217.134 -34.131)"/>
              <path id="Path_85318" data-name="Path 85318" class="cls-55" d="M230.2,62.254V45.38l9.742-5.625" transform="translate(-217.134 -34.131)"/>
              <path id="Path_85319" data-name="Path 85319" class="cls-64" d="M230.2,45.38v3.764l9.742-5.624V39.755Z" transform="translate(-217.134 -34.131)"/>
              <path id="Path_85320" data-name="Path 85320" class="cls-65" d="M239.945,39.755,230.2,45.38v3.764" transform="translate(-217.134 -34.131)"/>
              <path id="Path_85321" data-name="Path 85321" class="cls-66" d="M161.331,39.755l9.743,5.625V62.254l-9.743-5.624Z" transform="translate(-158.005 -34.131)"/>
              <path id="Path_85322" data-name="Path 85322" class="cls-67" d="M161.331,39.755l9.743,5.625V62.254" transform="translate(-158.005 -34.131)"/>
              <path id="Path_85323" data-name="Path 85323" class="cls-68" d="M167.789,47.272l3.286,1.9V45.38l-9.743-5.625V56.63l6.458,3.728Z" transform="translate(-158.005 -34.131)"/>
              <path id="Path_85324" data-name="Path 85324" class="cls-64" d="M167.789,60.358V47.272l3.286,1.9V45.38l-9.743-5.625" transform="translate(-158.005 -34.131)"/>
              <path id="Path_85325" data-name="Path 85325" class="cls-69" d="M161.331,5.624,171.074,0l9.742,5.624-9.742,5.625Z" transform="translate(-158.005)"/>
              <path id="Path_85326" data-name="Path 85326" class="cls-70" d="M180.816,39.755l-9.742,5.625-9.743-5.625" transform="translate(-158.005 -34.131)"/>
              <path id="Path_85327" data-name="Path 85327" class="cls-71" d="M171.38,45.38v3.764l-9.742-5.624V39.755Z" transform="translate(-158.269 -34.131)"/>
              <path id="Path_85328" data-name="Path 85328" class="cls-68" d="M161.638,39.755l9.742,5.625v3.764" transform="translate(-158.269 -34.131)"/>
              <g id="Group_81526" data-name="Group 81526" transform="translate(14.389 15.501)">
                <path id="Path_85329" data-name="Path 85329" class="cls-51" d="M239.533,131.326v2.412l2.1-1.211-.015-2.4Z" transform="translate(-239.533 -127.215)"/>
                <path id="Path_85330" data-name="Path 85330" class="cls-51" d="M274.885,110.771v2.413l2.1-1.212-.014-2.4Z" transform="translate(-269.884 -109.568)"/>
              </g>
              <path id="Path_85331" data-name="Path 85331" class="cls-72" d="M227.6,454.955v.532l-1.6.925v-.532Z" transform="translate(-213.526 -390.592)"/>
              <path id="Path_85332" data-name="Path 85332" class="cls-52" d="M224.31,453.092l.467.27-1.6.925-.466-.27Z" transform="translate(-210.699 -388.993)"/>
              <path id="Path_85333" data-name="Path 85333" class="cls-59" d="M222.7,459.626l.466.27v.526l-.467-.27" transform="translate(-210.692 -394.603)"/>
              <path id="Path_85334" data-name="Path 85334" class="cls-72" d="M236.568,460.1v.532l-1.6.926v-.533Z" transform="translate(-221.222 -395.012)"/>
              <path id="Path_85335" data-name="Path 85335" class="cls-52" d="M233.274,458.248l.467.269-1.6.924-.466-.27Z" transform="translate(-218.395 -393.419)"/>
              <path id="Path_85336" data-name="Path 85336" class="cls-59" d="M231.665,464.778l.466.27v.527l-.467-.27" transform="translate(-218.388 -399.026)"/>
              <path id="Path_85337" data-name="Path 85337" class="cls-72" d="M297.132,415.291v.532l-1.6.925v-.533Z" transform="translate(-273.219 -356.54)"/>
              <path id="Path_85338" data-name="Path 85338" class="cls-52" d="M293.836,413.432l.466.27-1.6.925-.467-.27Z" transform="translate(-270.389 -354.944)"/>
              <path id="Path_85339" data-name="Path 85339" class="cls-59" d="M292.231,419.97l.466.27v.526l-.467-.27" transform="translate(-270.386 -360.557)"/>
              <path id="Path_85340" data-name="Path 85340" class="cls-72" d="M306.089,420.447v.532l-1.6.926v-.532Z" transform="translate(-280.908 -360.966)"/>
              <path id="Path_85341" data-name="Path 85341" class="cls-52" d="M302.8,418.584l.467.27-1.6.924-.466-.27Z" transform="translate(-278.082 -359.367)"/>
              <path id="Path_85342" data-name="Path 85342" class="cls-59" d="M301.187,425.118l.466.27v.526l-.467-.27" transform="translate(-278.075 -364.976)"/>
              <path id="Path_85343" data-name="Path 85343" class="cls-73" d="M260.1,155.606v1.638l1.426-.823-.01-1.631Z" transform="translate(-242.805 -132.891)"/>
              <path id="Path_85344" data-name="Path 85344" class="cls-74" d="M270.781,219.386l1.019-.588v-1.33l1.295-.747v1.329l.947-.547v1.757l-.947.547v1.33l-1.295.748v-1.331l-1.019.589Z" transform="translate(-251.971 -186.062)"/>
              <path id="Path_85345" data-name="Path 85345" class="cls-53" d="M270.58,223.61a.279.279,0,0,1-.14-.52l.61-.352v-8.266l-5.489,3.234-.42-.24V206.323a.279.279,0,1,1,.557,0v10.656l5.489-3.236.42.241V222.9l-.139.241-.749.432A.279.279,0,0,1,270.58,223.61Z" transform="translate(-247.129 -176.895)"/>
              <path id="Path_85346" data-name="Path 85346" class="cls-50" d="M193.488,119.2l-.417-.242v-13.36a.279.279,0,1,1,.557,0v12.879l9.263-5.331,5.756-3.355V97.756a.279.279,0,1,1,.557,0v12.191l-.138.241-7.224,4.2Z" transform="translate(-185.255 -83.687)"/>
              <path id="Path_85347" data-name="Path 85347" class="cls-63" d="M183.089,135.605a4.281,4.281,0,0,0-1.926-3.343,1.3,1.3,0,0,0-1.424-.089l-1.366.788v2.85l1.449.86V135.28a4.061,4.061,0,0,0,1.239,1.368V137.7l1.421-.82h0A1.328,1.328,0,0,0,183.089,135.605Z" transform="translate(-172.636 -113.327)"/>
              <path id="Path_85348" data-name="Path 85348" class="cls-56" d="M182.846,133.636l-.065-.035-2.448,1.412v2.337l1.171.694v-1.392a4.062,4.062,0,0,0,1.239,1.368v1.048l1.421-.82h0a1.327,1.327,0,0,0,.608-1.27A4.281,4.281,0,0,0,182.846,133.636Z" transform="translate(-174.32 -114.7)"/>
              <path id="Path_85349" data-name="Path 85349" class="cls-53" d="M176.36,142.5a4.319,4.319,0,0,1-1.926-3.341c-.006-1.225.857-1.724,1.915-1.113a4.28,4.28,0,0,1,1.927,3.342C178.276,142.618,177.414,143.118,176.36,142.5Z" transform="translate(-169.255 -118.295)"/>
              <path id="Path_85350" data-name="Path 85350" class="cls-50" d="M187.971,139.63a4.28,4.28,0,0,1,1.927,3.342c0,1.227-.862,1.728-1.916,1.112" transform="translate(-180.877 -119.877)"/>
            </g>
            <g id="_030-analysis" data-name="030-analysis" transform="translate(24.585 35.171)">
              <path id="Path_86975" data-name="Path 86975" class="cls-75" d="M311.5,57.525a2.2,2.2,0,0,1,.76-.838.682.682,0,0,1,.8-.027l0,0,10.272,5.964-.042.073a.543.543,0,0,1,.272.061.493.493,0,0,1,.043.025l.006,0a.817.817,0,0,1,.29.706,2.432,2.432,0,0,1-1.059,1.9.7.7,0,0,1-.769.053L311.523,59.32a.79.79,0,0,1-.326-.73A2.3,2.3,0,0,1,311.5,57.525Z" transform="translate(-306.549 -56.542)"/>
              <path id="Path_86976" data-name="Path 86976" class="cls-76" d="M328.205,62.837a2.166,2.166,0,0,0-.732.788l-10.617-6.1a2.2,2.2,0,0,1,.76-.838.682.682,0,0,1,.8-.027l0,0,10.272,5.964-.042.073A.935.935,0,0,0,328.205,62.837Z" transform="translate(-311.91 -56.542)"/>
              <path id="Path_86977" data-name="Path 86977" class="cls-77" d="M311.2,119.686a2.328,2.328,0,0,1,.327-1.115,2.165,2.165,0,0,1,.732-.788.936.936,0,0,1,.448-.143.543.543,0,0,1,.272.061.494.494,0,0,1,.043.025l.006,0a.817.817,0,0,1,.29.706,2.432,2.432,0,0,1-1.059,1.9.7.7,0,0,1-.769.053A.816.816,0,0,1,311.2,119.686Z" transform="translate(-295.96 -111.488)"/>
              <path id="Path_86978" data-name="Path 86978" class="cls-13" d="M.831,142.25l18.051-10.422a3.685,3.685,0,0,1,3.685,0l25.179,14.537a1.884,1.884,0,0,1,0,3.264A1.884,1.884,0,0,0,48.687,148v.865a1.883,1.883,0,0,1-.942,1.631L30.384,160.517a4.4,4.4,0,0,1-4.4,0L.831,145.993A1.662,1.662,0,0,1,0,144.554v-.865A1.662,1.662,0,0,1,.831,142.25Z" transform="translate(0 -123.804)"/>
              <g id="Group_81844" data-name="Group 81844" transform="translate(4.644 10.833)">
                <path id="Path_86979" data-name="Path 86979" class="cls-78" d="M83.551,272.365l-16.637,9.552-.99-.564,16.7-9.556Z" transform="translate(-46.145 -260.958)"/>
                <path id="Path_86980" data-name="Path 86980" class="cls-78" d="M145.772,342l-6.837,3.92-.99-.564,6.9-3.923Z" transform="translate(-115.618 -323.583)"/>
                <path id="Path_86981" data-name="Path 86981" class="cls-78" d="M108.108,258.906l-16.637,9.552-.99-.564,16.7-9.555Z" transform="translate(-73.175 -248.854)"/>
                <path id="Path_86982" data-name="Path 86982" class="cls-78" d="M132.663,245.451,116.026,255l-.99-.564,16.7-9.555Z" transform="translate(-100.202 -236.754)"/>
                <path id="Path_86983" data-name="Path 86983" class="cls-78" d="M157.219,231.992l-16.637,9.552-.99-.564,16.7-9.555Z" transform="translate(-127.23 -224.65)"/>
                <path id="Path_86984" data-name="Path 86984" class="cls-78" d="M181.775,218.534l-16.637,9.552-.99-.564,16.7-9.555Z" transform="translate(-154.259 -212.547)"/>
                <path id="Path_86985" data-name="Path 86985" class="cls-78" d="M206.332,205.075l-16.637,9.552-.99-.563,16.7-9.556Z" transform="translate(-181.287 -200.443)"/>
                <path id="Path_86986" data-name="Path 86986" class="cls-78" d="M230.888,191.617l-16.637,9.551-.99-.564,16.7-9.555Z" transform="translate(-208.317 -188.339)"/>
                <path id="Path_86987" data-name="Path 86987" class="cls-78" d="M255.443,178.161l-16.637,9.552-.99-.563,16.7-9.556Z" transform="translate(-235.344 -176.239)"/>
                <path id="Path_86988" data-name="Path 86988" class="cls-78" d="M280,164.7l-16.637,9.552-.99-.564,16.7-9.556Z" transform="translate(-262.373 -164.135)"/>
                <path id="Path_86989" data-name="Path 86989" class="cls-79" d="M127.666,201.644c0,2.632,4.489,4.766,10.027,4.766s10.027-2.134,10.027-4.766-4.489-4.766-10.027-4.766S127.666,199.012,127.666,201.644Z" transform="translate(-116.531 -193.581)"/>
              </g>
              <g id="Group_81845" data-name="Group 81845" transform="translate(14.267 3.571)">
                <path id="Path_86990" data-name="Path 86990" class="cls-80" d="M129.9,92.008c6.206,0,11.236,2.9,11.236,6.488v2.493c0,3.583-5.031,6.487-11.236,6.487s-11.236-2.9-11.236-6.487V98.5C118.666,94.913,123.7,92.008,129.9,92.008Z" transform="translate(-118.666 -92.008)"/>
                <ellipse id="Ellipse_1957" data-name="Ellipse 1957" class="cls-80" cx="11.236" cy="6.487" rx="11.236" ry="6.487" transform="translate(0.001 0.001)"/>
              </g>
              <path id="Path_86991" data-name="Path 86991" class="cls-41" d="M153.821,103.944a3.331,3.331,0,0,1-.664,1.94,2.863,2.863,0,0,0,.07-.616,3.19,3.19,0,0,0-.659-1.886c-1.356-1.865-4.659-3.182-8.521-3.182s-7.165,1.318-8.521,3.182a3.189,3.189,0,0,0-.66,1.886c0,.014,0,.028,0,.041a3.133,3.133,0,0,1-.322-1.365c0-2.939,4.315-5.321,9.637-5.321S153.821,101.005,153.821,103.944Z" transform="translate(-118.68 -94.386)"/>
              <path id="Path_86992" data-name="Path 86992" class="cls-81" d="M141.106,117.454c1.356-1.865,4.659-3.182,8.521-3.182s7.166,1.318,8.521,3.182a3.19,3.19,0,0,1,.659,1.886,2.862,2.862,0,0,1-.07.616,5.232,5.232,0,0,1-.862.931c-1.714,1.473-4.705,2.449-8.112,2.449s-6.4-.976-8.112-2.449a4.7,4.7,0,0,1-1.2-1.506c0-.014,0-.027,0-.041A3.19,3.19,0,0,1,141.106,117.454Z" transform="translate(-124.261 -108.46)"/>
              <path id="Path_86993" data-name="Path 86993" class="cls-82" d="M0,309.074a4.393,4.393,0,0,0,2.2-.589l17.36-10.023a1.884,1.884,0,0,0,.942-1.632v.865a1.883,1.883,0,0,1-.942,1.632L2.2,309.35a4.39,4.39,0,0,1-2.2.589v-.865Z" transform="translate(28.185 -272.637)"/>
              <path id="Path_86994" data-name="Path 86994" class="cls-78" d="M204.459,255.479,229.615,270a4.395,4.395,0,0,0,2.2.589v.865a4.391,4.391,0,0,1-2.2-.589l-25.156-14.524a1.662,1.662,0,0,1-.831-1.439v-.865A1.662,1.662,0,0,0,204.459,255.479Z" transform="translate(-203.628 -234.155)"/>
              <path id="Path_86995" data-name="Path 86995" class="cls-13" d="M141.1,145.88h17.042a3.19,3.19,0,0,1,.659,1.886,2.862,2.862,0,0,1-.07.616,5.232,5.232,0,0,1-.862.931H141.651a4.7,4.7,0,0,1-1.2-1.506c0-.014,0-.027,0-.041A3.189,3.189,0,0,1,141.1,145.88Z" transform="translate(-124.26 -136.885)"/>
              <path id="Path_86996" data-name="Path 86996" class="cls-83" d="M129.9,162.93c6.206,0,11.236-2.9,11.236-6.487v2.493c0,3.583-5.031,6.487-11.236,6.487s-11.236-2.9-11.236-6.487v-2.493C118.666,160.026,123.7,162.93,129.9,162.93Z" transform="translate(-104.399 -146.385)"/>
            </g>
          </g>
        </g>
      </g>
      <g id="ico-15-3" data-name="ico-15" transform="translate(2355 1715)">
        <g id="Rectangle_9197-3" data-name="Rectangle 9197" class="cls-2" transform="translate(695 687)">
          <rect class="cls-115" width="173" height="173"/>
          <rect class="cls-116" x="0.5" y="0.5" width="172" height="172"/>
        </g>
        <g id="Group_37648-3" data-name="Group 37648" transform="translate(695 694.237)">
          <path id="Union_77-3" data-name="Union 77" class="cls-3" d="M160.254,132.6H10.815A10.912,10.912,0,0,1,0,121.6V11A10.912,10.912,0,0,1,10.815,0H162.22A10.9,10.9,0,0,1,173,11V121.6a10.911,10.911,0,0,1-10.815,11Z" transform="translate(0 0)"/>
          <path id="Path_46643-3" data-name="Path 46643" class="cls-84" d="M177.56,18.881v88.957c0,3.231-2.328,5.881-5.184,5.881H17.984c-2.857,0-5.184-2.617-5.184-5.881V18.881C12.8,15.617,15.128,13,17.984,13H172.376C175.233,13,177.56,15.65,177.56,18.881Z" transform="translate(-8.664 -8.799)"/>
          <path id="Union_78-3" data-name="Union 78" class="cls-5" d="M5.613,25.269C3.717,24.332,1.821,23.33,0,22.3a21.517,21.517,0,0,1,16.951-8.012V0H88.915V14.284a22.871,22.871,0,0,1,11.152,3,19.206,19.206,0,0,1,5.464,4.653c-2.007,1.163-4.089,2.295-6.207,3.328Z" transform="translate(33.605 132.598)"/>
          <path id="Path_47164-3" data-name="Path 47164" class="cls-6" d="M0,0H62.558V6.56H0Z" transform="translate(55.24 132.599)"/>
          <path id="Path_46645-3" data-name="Path 46645" class="cls-7" d="M177.492,18.881v6.98H12.7v-6.98C12.7,15.617,15.027,13,17.884,13H172.273C175.165,13,177.492,15.65,177.492,18.881Z" transform="translate(-8.596 -8.799)"/>
          <ellipse id="Ellipse_1515-3" data-name="Ellipse 1515" class="cls-8" cx="3.716" cy="3.716" rx="3.716" ry="3.716" transform="translate(8.304 6.916)"/>
          <ellipse id="Ellipse_1516-3" data-name="Ellipse 1516" class="cls-9" cx="3.716" cy="3.716" rx="3.716" ry="3.716" transform="translate(18.968 6.916)"/>
          <ellipse id="Ellipse_1517-3" data-name="Ellipse 1517" class="cls-10" cx="3.716" cy="3.716" rx="3.716" ry="3.716" transform="translate(32.289 6.916)"/>
          <g id="_009-profits" data-name="009-profits" class="cls-85" transform="translate(82.6 23.009)">
            <path id="Path_86484" data-name="Path 86484" class="cls-86" d="M0,25.961l7.527,4.346L22.58,21.616V12.9L15.053,8.552,0,17.27Z" transform="translate(0 -8.552)"/>
            <path id="Path_86485" data-name="Path 86485" class="cls-42" d="M0,102.978l7.527,4.346L22.58,98.6v8.718L7.527,116.014,0,111.669Z" transform="translate(0 -94.259)"/>
            <path id="Path_86486" data-name="Path 86486" class="cls-87" d="M155.977,116.014v-8.691L171.03,98.6v8.718Z" transform="translate(-148.45 -94.259)"/>
            <g id="Group_81797" data-name="Group 81797" transform="translate(1.882 0.995)">
              <path id="Path_86487" data-name="Path 86487" class="cls-13" d="M52.166,29.17,38.994,36.731l5.714,3.26L57.88,32.43ZM44.707,39.254,40.283,36.73l11.884-6.822,4.424,2.525Z" transform="translate(-38.994 -29.17)"/>
              <ellipse id="Ellipse_1947" data-name="Ellipse 1947" class="cls-13" cx="2.469" cy="1.402" rx="2.469" ry="1.402" transform="translate(7.157 3.826)"/>
            </g>
            <g id="Group_81798" data-name="Group 81798" transform="translate(6.46 3.541)">
              <ellipse id="Ellipse_1948" data-name="Ellipse 1948" class="cls-88" cx="1.067" cy="0.606" rx="1.067" ry="0.606" transform="translate(7.801)"/>
              <ellipse id="Ellipse_1949" data-name="Ellipse 1949" class="cls-88" cx="1.067" cy="0.606" rx="1.067" ry="0.606" transform="translate(0 4.453)"/>
            </g>
            <g id="Group_81799" data-name="Group 81799" transform="translate(0 9.835)">
              <path id="Path_86488" data-name="Path 86488" class="cls-86" d="M0,212.366v.213l7.526,4.457v-.212Z" transform="translate(0 -212.366)"/>
              <path id="Path_86489" data-name="Path 86489" class="cls-86" d="M0,236.551v.213l7.526,4.457v-.212Z" transform="translate(0 -235.384)"/>
              <path id="Path_86490" data-name="Path 86490" class="cls-86" d="M0,260.737v.213l7.526,4.457v-.212Z" transform="translate(0 -258.403)"/>
              <path id="Path_86491" data-name="Path 86491" class="cls-86" d="M0,284.923v.213l7.526,4.457v-.212Z" transform="translate(0 -281.422)"/>
              <path id="Path_86492" data-name="Path 86492" class="cls-86" d="M0,309.11v.213l7.526,4.457v-.212Z" transform="translate(0 -304.442)"/>
              <path id="Path_86493" data-name="Path 86493" class="cls-86" d="M0,333.3v.213l7.526,4.457v-.212Z" transform="translate(0 -327.46)"/>
            </g>
            <g id="Group_81800" data-name="Group 81800" transform="translate(7.527 5.56)">
              <path id="Path_86494" data-name="Path 86494" class="cls-42" d="M171.03,123.763,155.977,132.5v.212l15.053-8.734Z" transform="translate(-155.977 -123.763)"/>
              <path id="Path_86495" data-name="Path 86495" class="cls-42" d="M171.03,147.948l-15.053,8.733v.212l15.053-8.734Z" transform="translate(-155.977 -146.781)"/>
              <path id="Path_86496" data-name="Path 86496" class="cls-42" d="M171.03,172.134l-15.053,8.733v.212l15.053-8.734Z" transform="translate(-155.977 -169.8)"/>
              <path id="Path_86497" data-name="Path 86497" class="cls-42" d="M171.031,196.319l-15.053,8.733v.212l15.054-8.734Z" transform="translate(-155.977 -192.818)"/>
              <path id="Path_86498" data-name="Path 86498" class="cls-42" d="M155.977,229.238v.212l15.054-8.734v-.211Z" transform="translate(-155.977 -215.837)"/>
              <path id="Path_86499" data-name="Path 86499" class="cls-42" d="M155.977,253.423v.212l15.054-8.734v-.211Z" transform="translate(-155.977 -238.855)"/>
            </g>
          </g>
          <g id="human-rights" transform="translate(92.149 33.763)">
            <path id="Path_87093" data-name="Path 87093" class="cls-89" d="M363.5,175.56h-18.2v-2.022h18.2a1.012,1.012,0,0,0,1.011-1.011h2.022A3.036,3.036,0,0,1,363.5,175.56Z" transform="translate(-293.505 -149.613)"/>
            <path id="Path_87094" data-name="Path 87094" class="cls-90" d="M30.1,175.56H9.884a3.036,3.036,0,0,1-3.033-3.033H8.873a1.012,1.012,0,0,0,1.011,1.011H30.1Z" transform="translate(0 -149.613)"/>
            <path id="Path_87095" data-name="Path 87095" class="cls-91" d="M117.454,289.237v26.5l-3.352,1.117a1.011,1.011,0,0,0,.639,1.918l4.043-1.348a1.011,1.011,0,0,0,.691-.959v-19.14Z" transform="translate(-92.407 -250.822)"/>
            <path id="Path_87096" data-name="Path 87096" class="cls-92" d="M206.773,289.237v26.5l3.352,1.117a1.011,1.011,0,1,1-.639,1.918l-4.043-1.348a1.011,1.011,0,0,1-.691-.959v-19.14Z" transform="translate(-171.616 -250.822)"/>
            <path id="Path_87097" data-name="Path 87097" class="cls-93" d="M280.848,289.237v26.5l-3.352,1.117a1.011,1.011,0,1,0,.639,1.918l4.043-1.348a1.011,1.011,0,0,0,.691-.959V289.237Z" transform="translate(-234.1 -250.822)"/>
            <path id="Path_87098" data-name="Path 87098" class="cls-89" d="M370.167,289.237v26.5l3.352,1.117a1.011,1.011,0,0,1-.639,1.918l-4.043-1.348a1.011,1.011,0,0,1-.691-.959V289.237Z" transform="translate(-313.309 -250.822)"/>
            <path id="Path_87099" data-name="Path 87099" class="cls-94" d="M322.275,167.453h-3.37l-4.044,16.175h10.109V170.149A2.7,2.7,0,0,0,322.275,167.453Z" transform="translate(-267.103 -145.213)"/>
            <path id="Path_87100" data-name="Path 87100" class="cls-95" d="M305.7,167.453h-3.37a2.7,2.7,0,0,0-2.7,2.7v13.479H305.7Z" transform="translate(-253.902 -145.213)"/>
            <path id="Path_87101" data-name="Path 87101" class="cls-92" d="M347.925,270.922c0-8.689-3.5-12.131-3.5-12.131h-4.044l-3.087,6.931,5.034,6.931A16.253,16.253,0,0,0,347.925,270.922Z" transform="translate(-286.552 -224.42)"/>
            <path id="Path_87102" data-name="Path 87102" class="cls-91" d="M276.757,258.791s-3.5,3.442-3.5,12.131c0,0,3.3,2.022,9.57,2.022a26.416,26.416,0,0,0,3.97-.29v-1.731c0-8.689-1.948-12.131-1.948-12.131Z" transform="translate(-231.019 -224.42)"/>
            <path id="Path_87103" data-name="Path 87103" class="cls-96" d="M295,9.1a2.017,2.017,0,0,0-.845-1.642A2.018,2.018,0,0,0,292.9,4.423,2.017,2.017,0,0,0,290.579,2.1,2.017,2.017,0,0,0,287.546.845a2.018,2.018,0,0,0-3.284,0A2.017,2.017,0,0,0,281.229,2.1a2.017,2.017,0,0,0-2.322,2.322,2.017,2.017,0,0,0-1.256,3.033,2.017,2.017,0,0,0,0,3.283,2.017,2.017,0,0,0,1.256,3.033,2.02,2.02,0,0,0,2.4,2.31h9.2a2.02,2.02,0,0,0,2.4-2.31,2.017,2.017,0,0,0,1.256-3.033A2.017,2.017,0,0,0,295,9.1Z" transform="translate(-234.101)"/>
            <path id="Path_87104" data-name="Path 87104" class="cls-89" d="M345.308,45.669V57.8a6.065,6.065,0,1,0,0-12.131Z" transform="translate(-293.505 -39.604)"/>
            <path id="Path_87105" data-name="Path 87105" class="cls-93" d="M307.726,51.734c0-3.35-.905-6.065-2.022-6.065a6.065,6.065,0,0,0,0,12.131C306.821,57.8,307.726,55.084,307.726,51.734Z" transform="translate(-253.902 -39.604)"/>
            <path id="Path_87106" data-name="Path 87106" class="cls-92" d="M166.692,243.568l2.022,12.131a6.066,6.066,0,0,0,6.065-6.065Z" transform="translate(-138.612 -211.219)"/>
            <path id="Path_87107" data-name="Path 87107" class="cls-91" d="M136.246,249.633a6.066,6.066,0,0,0,6.065,6.065V243.568Z" transform="translate(-112.21 -211.219)"/>
            <path id="Path_87108" data-name="Path 87108" class="cls-94" d="M158.545,167.443h-3.033l-4.044,8.088,4.044,8.087H160.9Z" transform="translate(-125.411 -145.203)"/>
            <path id="Path_87109" data-name="Path 87109" class="cls-95" d="M146.712,167.442h-3.033l-2.359,16.175,5.392,0Z" transform="translate(-116.61 -145.203)"/>
            <g id="Group_81877" data-name="Group 81877" transform="translate(22.015 22.24)">
              <path id="Path_87110" data-name="Path 87110" class="cls-90" d="M123.719,167.453a2.7,2.7,0,0,0-2.7,2.7v21.566h5.054V167.453Z" transform="translate(-121.023 -167.453)"/>
              <path id="Path_87111" data-name="Path 87111" class="cls-90" d="M207.108,167.453h-2.359v24.262H209.8V170.149A2.7,2.7,0,0,0,207.108,167.453Z" transform="translate(-193.629 -167.453)"/>
            </g>
            <path id="Path_87112" data-name="Path 87112" class="cls-97" d="M181.915,45.669V57.8a6.065,6.065,0,0,0,0-12.131Z" transform="translate(-151.813 -39.604)"/>
            <path id="Path_87113" data-name="Path 87113" class="cls-98" d="M144.333,51.734c0-3.35-.905-6.065-2.022-6.065a6.065,6.065,0,0,0,0,12.131C143.428,57.8,144.333,55.084,144.333,51.734Z" transform="translate(-112.21 -39.604)"/>
            <path id="Path_87114" data-name="Path 87114" class="cls-99" d="M164.135,86.8a3.484,3.484,0,0,1-2.022-.648,3.484,3.484,0,0,1-2.022.648,1.011,1.011,0,1,1,0-2.022,1.464,1.464,0,0,0,1.2-.622,1.011,1.011,0,0,1,1.654,0,1.464,1.464,0,0,0,1.2.622,1.011,1.011,0,0,1,0,2.022Z" transform="translate(-132.012 -72.607)"/>
            <path id="Path_87115" data-name="Path 87115" class="cls-100" d="M35.751,126.858a4.152,4.152,0,0,1-3.033,4.044,4.152,4.152,0,0,1-3.033-4.044Z" transform="translate(-19.802 -110.01)"/>
            <path id="Path_87116" data-name="Path 87116" class="cls-101" d="M36.76,162.695l-4.042-5.39-3.033,8.424,3.033,5.054a5.055,5.055,0,0,0,4.042-8.089Z" transform="translate(-19.801 -136.413)"/>
            <g id="Group_81878" data-name="Group 81878" transform="translate(7.862 16.848)">
              <path id="Path_87117" data-name="Path 87117" class="cls-100" d="M19.516,157.3l-4.042,5.39a5.054,5.054,0,0,0,4.042,8.089V157.3Z" transform="translate(-14.461 -153.26)"/>
              <path id="Path_87118" data-name="Path 87118" class="cls-100" d="M436.646,126.858a3.159,3.159,0,1,0,6.065,0Z" transform="translate(-380.574 -126.858)"/>
            </g>
            <path id="Path_87119" data-name="Path 87119" class="cls-101" d="M443.72,162.695l-4.042-5.39-3.033,8.424,3.033,5.054a5.055,5.055,0,0,0,4.042-8.089Z" transform="translate(-372.712 -136.413)"/>
            <path id="Path_87120" data-name="Path 87120" class="cls-100" d="M426.478,157.3l-4.042,5.39a5.055,5.055,0,0,0,4.042,8.089V157.3Z" transform="translate(-359.511 -136.412)"/>
            <path id="Path_87121" data-name="Path 87121" class="cls-90" d="M7.862,153.737a1.011,1.011,0,0,1-1.011-1.011,3.036,3.036,0,0,1,3.033-3.033h3.033a1.011,1.011,0,1,1,0,2.022H9.884a1.012,1.012,0,0,0-1.011,1.011A1.011,1.011,0,0,1,7.862,153.737Z" transform="translate(0 -129.812)"/>
            <path id="Path_87122" data-name="Path 87122" class="cls-89" d="M457.935,153.738a1.011,1.011,0,0,1-1.011-1.011,1.012,1.012,0,0,0-1.011-1.011H452.88a1.011,1.011,0,1,1,0-2.022h3.033a3.036,3.036,0,0,1,3.033,3.033A1.011,1.011,0,0,1,457.935,153.738Z" transform="translate(-385.914 -129.813)"/>
          </g>
          <rect id="Rectangle_20862" data-name="Rectangle 20862" class="cls-24" width="65" height="24" transform="translate(7 17.763)"/>
          <text id="薪資公秤" class="cls-25" transform="translate(7 36.763)"><tspan x="0" y="0">薪資公秤</tspan></text>
        </g>
      </g>
      <g id="_1111" data-name="1111" transform="translate(2743.801 2518.803)">
        <g id="red-1111" transform="translate(1.199 0.197)">
          <g id="圖層_1" data-name="圖層 1" transform="translate(0 0)">
            <g id="Group_71901" data-name="Group 71901" transform="translate(0 0)">
              <path id="Union_81" data-name="Union 81" class="cls-13" d="M-6935.291-2574v-11.608c0-.644-.2-.8-.322-.925a.99.99,0,0,0-.527-.158h-.088l-.773.117v-3.69l.486-.164a7.835,7.835,0,0,0,3.21-2.249.134.134,0,0,0,.041-.082l.2-.24h3.779v19Z" transform="translate(6937.001 2593.003)"/>
              <path id="Path_74681" data-name="Path 74681" class="cls-102" d="M1.549,3.557s-.322.077-.322.2V6.127s-.041.035.123.035a1.511,1.511,0,0,1,1.54.925l.082,1.126V18.861H7.6V1.29H4.84A7.872,7.872,0,0,1,1.549,3.557Z" transform="translate(-0.553 -0.581)"/>
            </g>
            <g id="Group_71900" data-name="Group 71900" transform="translate(8.868 0)">
              <path id="Union_82" data-name="Union 82" class="cls-13" d="M-6935.291-2574v-11.608c0-.644-.2-.8-.322-.925a.99.99,0,0,0-.527-.158h-.088l-.773.117v-3.69l.486-.164a7.835,7.835,0,0,0,3.21-2.249.134.134,0,0,0,.041-.082l.2-.24h3.779v19Z" transform="translate(6937.001 2593.003)"/>
              <path id="Path_74682" data-name="Path 74682" class="cls-103" d="M16.549,3.557s-.322.077-.322.2V6.127s-.041.035.123.035a1.511,1.511,0,0,1,1.54.925l.082,1.126V18.861H22.6V1.29H19.84A7.872,7.872,0,0,1,16.549,3.557Z" transform="translate(-15.553 -0.581)"/>
            </g>
            <g id="Group_71898" data-name="Group 71898" transform="translate(17.544 0)">
              <path id="Union_83" data-name="Union 83" class="cls-13" d="M-6935.291-2574v-11.608c0-.644-.2-.8-.322-.925a.99.99,0,0,0-.527-.158h-.088l-.773.117v-3.69l.486-.164a7.835,7.835,0,0,0,3.21-2.249.134.134,0,0,0,.041-.082l.2-.24h3.779v19Z" transform="translate(6937.001 2593.003)"/>
              <path id="Path_74683" data-name="Path 74683" class="cls-104" d="M31.549,3.557s-.322.077-.322.2V6.127s-.041.035.123.035a1.511,1.511,0,0,1,1.54.925l.082,1.126V18.861H37.6V1.29H34.84A7.872,7.872,0,0,1,31.549,3.557Z" transform="translate(-30.553 -0.581)"/>
            </g>
            <g id="Group_71899" data-name="Group 71899" transform="translate(26.412 0)">
              <path id="Union_80" data-name="Union 80" class="cls-13" d="M-6935.291-2574v-11.608c0-.644-.2-.8-.322-.925a.99.99,0,0,0-.527-.158h-.088l-.773.117v-3.69l.486-.164a7.835,7.835,0,0,0,3.21-2.249.134.134,0,0,0,.041-.082l.2-.24h3.779v19Z" transform="translate(6937.001 2593.003)"/>
              <path id="Path_74684" data-name="Path 74684" class="cls-105" d="M46.549,3.557s-.322.077-.322.2V6.127s-.041.035.123.035a1.511,1.511,0,0,1,1.54.925l.082,1.126V18.861H52.6V1.29H49.84a7.872,7.872,0,0,1-3.291,2.267Z" transform="translate(-45.553 -0.581)"/>
            </g>
          </g>
        </g>
      </g>
      <g id="_1111-2" data-name="1111" transform="translate(2930.801 2518.803)">
        <g id="red-1111-2" data-name="red-1111" transform="translate(1.199 0.197)">
          <g id="圖層_1-2" data-name="圖層 1" transform="translate(0 0)">
            <g id="Group_71901-2" data-name="Group 71901" transform="translate(0 0)">
              <path id="Union_81-2" data-name="Union 81" class="cls-13" d="M-6935.291-2574v-11.608c0-.644-.2-.8-.322-.925a.99.99,0,0,0-.527-.158h-.088l-.773.117v-3.69l.486-.164a7.835,7.835,0,0,0,3.21-2.249.134.134,0,0,0,.041-.082l.2-.24h3.779v19Z" transform="translate(6937.001 2593.003)"/>
              <path id="Path_74681-2" data-name="Path 74681" class="cls-102" d="M1.549,3.557s-.322.077-.322.2V6.127s-.041.035.123.035a1.511,1.511,0,0,1,1.54.925l.082,1.126V18.861H7.6V1.29H4.84A7.872,7.872,0,0,1,1.549,3.557Z" transform="translate(-0.553 -0.581)"/>
            </g>
            <g id="Group_71900-2" data-name="Group 71900" transform="translate(8.868 0)">
              <path id="Union_82-2" data-name="Union 82" class="cls-13" d="M-6935.291-2574v-11.608c0-.644-.2-.8-.322-.925a.99.99,0,0,0-.527-.158h-.088l-.773.117v-3.69l.486-.164a7.835,7.835,0,0,0,3.21-2.249.134.134,0,0,0,.041-.082l.2-.24h3.779v19Z" transform="translate(6937.001 2593.003)"/>
              <path id="Path_74682-2" data-name="Path 74682" class="cls-103" d="M16.549,3.557s-.322.077-.322.2V6.127s-.041.035.123.035a1.511,1.511,0,0,1,1.54.925l.082,1.126V18.861H22.6V1.29H19.84A7.872,7.872,0,0,1,16.549,3.557Z" transform="translate(-15.553 -0.581)"/>
            </g>
            <g id="Group_71898-2" data-name="Group 71898" transform="translate(17.544 0)">
              <path id="Union_83-2" data-name="Union 83" class="cls-13" d="M-6935.291-2574v-11.608c0-.644-.2-.8-.322-.925a.99.99,0,0,0-.527-.158h-.088l-.773.117v-3.69l.486-.164a7.835,7.835,0,0,0,3.21-2.249.134.134,0,0,0,.041-.082l.2-.24h3.779v19Z" transform="translate(6937.001 2593.003)"/>
              <path id="Path_74683-2" data-name="Path 74683" class="cls-104" d="M31.549,3.557s-.322.077-.322.2V6.127s-.041.035.123.035a1.511,1.511,0,0,1,1.54.925l.082,1.126V18.861H37.6V1.29H34.84A7.872,7.872,0,0,1,31.549,3.557Z" transform="translate(-30.553 -0.581)"/>
            </g>
            <g id="Group_71899-2" data-name="Group 71899" transform="translate(26.412 0)">
              <path id="Union_80-2" data-name="Union 80" class="cls-13" d="M-6935.291-2574v-11.608c0-.644-.2-.8-.322-.925a.99.99,0,0,0-.527-.158h-.088l-.773.117v-3.69l.486-.164a7.835,7.835,0,0,0,3.21-2.249.134.134,0,0,0,.041-.082l.2-.24h3.779v19Z" transform="translate(6937.001 2593.003)"/>
              <path id="Path_74684-2" data-name="Path 74684" class="cls-105" d="M46.549,3.557s-.322.077-.322.2V6.127s-.041.035.123.035a1.511,1.511,0,0,1,1.54.925l.082,1.126V18.861H52.6V1.29H49.84a7.872,7.872,0,0,1-3.291,2.267Z" transform="translate(-45.553 -0.581)"/>
            </g>
          </g>
        </g>
      </g>
      <g id="_1111-3" data-name="1111" transform="translate(3117.801 2518.803)">
        <g id="red-1111-3" data-name="red-1111" transform="translate(1.199 0.197)">
          <g id="圖層_1-3" data-name="圖層 1" transform="translate(0 0)">
            <g id="Group_71901-3" data-name="Group 71901" transform="translate(0 0)">
              <path id="Union_81-3" data-name="Union 81" class="cls-13" d="M-6935.291-2574v-11.608c0-.644-.2-.8-.322-.925a.99.99,0,0,0-.527-.158h-.088l-.773.117v-3.69l.486-.164a7.835,7.835,0,0,0,3.21-2.249.134.134,0,0,0,.041-.082l.2-.24h3.779v19Z" transform="translate(6937.001 2593.003)"/>
              <path id="Path_74681-3" data-name="Path 74681" class="cls-102" d="M1.549,3.557s-.322.077-.322.2V6.127s-.041.035.123.035a1.511,1.511,0,0,1,1.54.925l.082,1.126V18.861H7.6V1.29H4.84A7.872,7.872,0,0,1,1.549,3.557Z" transform="translate(-0.553 -0.581)"/>
            </g>
            <g id="Group_71900-3" data-name="Group 71900" transform="translate(8.868 0)">
              <path id="Union_82-3" data-name="Union 82" class="cls-13" d="M-6935.291-2574v-11.608c0-.644-.2-.8-.322-.925a.99.99,0,0,0-.527-.158h-.088l-.773.117v-3.69l.486-.164a7.835,7.835,0,0,0,3.21-2.249.134.134,0,0,0,.041-.082l.2-.24h3.779v19Z" transform="translate(6937.001 2593.003)"/>
              <path id="Path_74682-3" data-name="Path 74682" class="cls-103" d="M16.549,3.557s-.322.077-.322.2V6.127s-.041.035.123.035a1.511,1.511,0,0,1,1.54.925l.082,1.126V18.861H22.6V1.29H19.84A7.872,7.872,0,0,1,16.549,3.557Z" transform="translate(-15.553 -0.581)"/>
            </g>
            <g id="Group_71898-3" data-name="Group 71898" transform="translate(17.544 0)">
              <path id="Union_83-3" data-name="Union 83" class="cls-13" d="M-6935.291-2574v-11.608c0-.644-.2-.8-.322-.925a.99.99,0,0,0-.527-.158h-.088l-.773.117v-3.69l.486-.164a7.835,7.835,0,0,0,3.21-2.249.134.134,0,0,0,.041-.082l.2-.24h3.779v19Z" transform="translate(6937.001 2593.003)"/>
              <path id="Path_74683-3" data-name="Path 74683" class="cls-104" d="M31.549,3.557s-.322.077-.322.2V6.127s-.041.035.123.035a1.511,1.511,0,0,1,1.54.925l.082,1.126V18.861H37.6V1.29H34.84A7.872,7.872,0,0,1,31.549,3.557Z" transform="translate(-30.553 -0.581)"/>
            </g>
            <g id="Group_71899-3" data-name="Group 71899" transform="translate(26.412 0)">
              <path id="Union_80-3" data-name="Union 80" class="cls-13" d="M-6935.291-2574v-11.608c0-.644-.2-.8-.322-.925a.99.99,0,0,0-.527-.158h-.088l-.773.117v-3.69l.486-.164a7.835,7.835,0,0,0,3.21-2.249.134.134,0,0,0,.041-.082l.2-.24h3.779v19Z" transform="translate(6937.001 2593.003)"/>
              <path id="Path_74684-3" data-name="Path 74684" class="cls-105" d="M46.549,3.557s-.322.077-.322.2V6.127s-.041.035.123.035a1.511,1.511,0,0,1,1.54.925l.082,1.126V18.861H52.6V1.29H49.84a7.872,7.872,0,0,1-3.291,2.267Z" transform="translate(-45.553 -0.581)"/>
            </g>
          </g>
        </g>
      </g>
    </g>
    <rect id="Rectangle_20855" data-name="Rectangle 20855" class="cls-24" width="65" height="24" transform="translate(2765 2492)"/>
    <text id="履歷健診" class="cls-25" transform="translate(2765 2511)"><tspan x="0" y="0">履歷健診</tspan></text>
    <g id="balance" transform="translate(2960.783 2521.963)">
      <rect id="Rectangle_20859" data-name="Rectangle 20859" class="cls-106" width="2.345" height="16.003" transform="translate(33.545 6.118)"/>
      <g id="Group_81879" data-name="Group 81879" transform="translate(33.545 6.118)">
        <rect id="Rectangle_20860" data-name="Rectangle 20860" class="cls-107" width="2.345" height="3.8" transform="translate(0 12.204)"/>
        <path id="Path_87123" data-name="Path 87123" class="cls-107" d="M246.584,61.378v2.5a1.97,1.97,0,0,1-2.345,0v-2.5Z" transform="translate(-244.238 -61.378)"/>
      </g>
      <path id="Path_87124" data-name="Path 87124" class="cls-108" d="M242.592,196.783v23.909h-3.34V196.783a.616.616,0,0,1,.616-.616h2.107A.616.616,0,0,1,242.592,196.783Z" transform="translate(-206.204 -176.613)"/>
      <rect id="Rectangle_20861" data-name="Rectangle 20861" class="cls-109" width="3.34" height="1.243" transform="translate(33.048 42.837)"/>
      <path id="Path_87125" data-name="Path 87125" class="cls-106" d="M41.478,30.1a1.228,1.228,0,0,1-1.708.317,5.556,5.556,0,0,0-1.921-.725c-1.542-.291-3.839-.1-6.239,2.3a10.13,10.13,0,0,1-7.327,3.068,11.887,11.887,0,0,1-1.2-.063c-.171-.017-.341-.039-.505-.064a12.432,12.432,0,0,1-3.746-1.156,1.228,1.228,0,0,1,1.157-2.166,10.249,10.249,0,0,0,3.429.951,7.718,7.718,0,0,0,6.455-2.307A9.3,9.3,0,0,1,37.6,27.174l.164.02a8.144,8.144,0,0,1,3.4,1.2A1.229,1.229,0,0,1,41.478,30.1Z" transform="translate(-7.173 -24.423)"/>
      <g id="Group_81880" data-name="Group 81880" transform="translate(15.405 2.771)">
        <path id="Path_87126" data-name="Path 87126" class="cls-107" d="M67.114,89.852a10.287,10.287,0,0,1-3.144.48,11.89,11.89,0,0,1-1.2-.063c-.171-.017-.341-.039-.505-.064a2.717,2.717,0,0,1,4.849-.353Z" transform="translate(-62.265 -82.469)"/>
        <path id="Path_87127" data-name="Path 87127" class="cls-107" d="M216.887,30.7a1.228,1.228,0,0,1-1.708.317,5.555,5.555,0,0,0-1.921-.725,4.008,4.008,0,0,1-.085-2.5,8.144,8.144,0,0,1,3.4,1.2A1.228,1.228,0,0,1,216.887,30.7Z" transform="translate(-197.987 -27.794)"/>
      </g>
      <path id="Path_87128" data-name="Path 87128" class="cls-106" d="M280.834,33.777a12.437,12.437,0,0,1-3.746,1.156c-.164.025-.334.046-.505.064a11.889,11.889,0,0,1-1.2.063,10.13,10.13,0,0,1-7.327-3.068c-2.4-2.4-4.7-2.589-6.239-2.3a5.558,5.558,0,0,0-1.921.725,1.228,1.228,0,1,1-1.39-2.024,8.144,8.144,0,0,1,3.4-1.2l.164-.02a9.305,9.305,0,0,1,7.726,3.078,7.718,7.718,0,0,0,6.455,2.307,10.252,10.252,0,0,0,3.429-.951,1.228,1.228,0,0,1,1.158,2.166Z" transform="translate(-223.059 -24.426)"/>
      <g id="Group_81881" data-name="Group 81881" transform="translate(34.914 2.771)">
        <path id="Path_87129" data-name="Path 87129" class="cls-107" d="M405.941,90.207c-.164.025-.334.046-.505.064a11.889,11.889,0,0,1-1.2.063,10.288,10.288,0,0,1-3.144-.48,2.717,2.717,0,0,1,4.849.353Z" transform="translate(-386.826 -82.47)"/>
        <path id="Path_87130" data-name="Path 87130" class="cls-107" d="M261.818,30.291a5.558,5.558,0,0,0-1.921.725,1.228,1.228,0,1,1-1.39-2.024,8.144,8.144,0,0,1,3.4-1.2A4.008,4.008,0,0,1,261.818,30.291Z" transform="translate(-257.973 -27.795)"/>
      </g>
      <path id="Path_87131" data-name="Path 87131" class="cls-110" d="M227.89,7.563l-1.73-1.73a2.749,2.749,0,0,1,0-3.887l1.73-1.73a.735.735,0,0,1,1.04,0l1.73,1.73a2.749,2.749,0,0,1,0,3.887l-1.73,1.73A.735.735,0,0,1,227.89,7.563Z" transform="translate(-193.693 0)"/>
      <path id="Path_87132" data-name="Path 87132" class="cls-106" d="M387.867,122.791a.783.783,0,0,1-.154.015.77.77,0,0,1-.754-.617l-.908-4.489L384,107.54l-2.054,10.16-.908,4.489a.77.77,0,0,1-1.51-.306l.727-3.6,2.379-11.766.61-3.018a.77.77,0,0,1,1.511,0l.61,3.018,2.379,11.766.727,3.6A.77.77,0,0,1,387.867,122.791Z" transform="translate(-332.481 -92.627)"/>
      <path id="Path_87133" data-name="Path 87133" class="cls-107" d="M413.558,106.52a2.706,2.706,0,0,1-2.73,0l.61-3.018a.77.77,0,0,1,1.511,0Z" transform="translate(-360.677 -92.628)"/>
      <circle id="Ellipse_1966" data-name="Ellipse 1966" class="cls-108" cx="1.486" cy="1.486" r="1.486" transform="translate(50.029 10.057)"/>
      <g id="Group_81882" data-name="Group 81882" transform="translate(47.029 25.073)">
        <path id="Path_87134" data-name="Path 87134" class="cls-107" d="M380.254,252.114a8.774,8.774,0,0,1,1.69-.585l-.908,4.489a.77.77,0,0,1-1.51-.306Z" transform="translate(-379.511 -251.529)"/>
        <path id="Path_87135" data-name="Path 87135" class="cls-107" d="M446.95,256.619a.789.789,0,0,1-.154.015.77.77,0,0,1-.754-.617l-.908-4.489a8.8,8.8,0,0,1,1.69.585l.727,3.6A.77.77,0,0,1,446.95,256.619Z" transform="translate(-438.593 -251.529)"/>
      </g>
      <circle id="Ellipse_1967" data-name="Ellipse 1967" class="cls-111" cx="7.701" cy="7.701" r="7.701" transform="translate(43.814 26.068)"/>
      <path id="Path_87136" data-name="Path 87136" class="cls-112" d="M361.027,282.3a7.03,7.03,0,1,1,7.03-7.03A7.038,7.038,0,0,1,361.027,282.3Z" transform="translate(-309.511 -241.5)"/>
      <circle id="Ellipse_1968" data-name="Ellipse 1968" class="cls-110" cx="5.798" cy="5.798" r="5.798" transform="translate(45.717 27.971)"/>
      <g id="Group_81883" data-name="Group 81883" transform="translate(47.323 29.97)">
        <path id="Path_87137" data-name="Path 87137" class="cls-112" d="M407.255,303.687l-.054,0a.4.4,0,1,1,.307-.644.77.77,0,1,0,1.194-.974,1.933,1.933,0,0,0-.73-.553v-.088a.77.77,0,1,0-1.54,0v.089a1.935,1.935,0,0,0,.685,3.708l.054,0a.4.4,0,1,1-.306.644.77.77,0,1,0-1.194.973,1.933,1.933,0,0,0,.762.567v.074a.77.77,0,0,0,1.54,0v-.1a1.934,1.934,0,0,0-.716-3.693Z" transform="translate(-402.993 -300.656)"/>
        <path id="Path_87138" data-name="Path 87138" class="cls-112" d="M451.91,331.04H451.9a.773.773,0,1,0,.005,0Z" transform="translate(-444.291 -328.011)"/>
        <path id="Path_87139" data-name="Path 87139" class="cls-112" d="M383.233,331.04h-.005a.773.773,0,1,0,.005,0Z" transform="translate(-382.46 -328.011)"/>
      </g>
      <path id="Path_87140" data-name="Path 87140" class="cls-106" d="M50.823,122.791a.783.783,0,0,1-.154.015.77.77,0,0,1-.754-.617l-.89-4.405L46.954,107.54l-2.071,10.243-.891,4.405a.77.77,0,0,1-1.51-.306l.71-3.51,2.4-11.854.61-3.018a.77.77,0,0,1,1.511,0l.61,3.018,2.4,11.854.71,3.51A.77.77,0,0,1,50.823,122.791Z" transform="translate(-29.035 -92.627)"/>
      <path id="Path_87141" data-name="Path 87141" class="cls-107" d="M76.515,106.52a2.706,2.706,0,0,1-2.73,0l.61-3.018a.77.77,0,0,1,1.511,0Z" transform="translate(-57.231 -92.628)"/>
      <circle id="Ellipse_1969" data-name="Ellipse 1969" class="cls-108" cx="1.486" cy="1.486" r="1.486" transform="translate(16.433 10.057)"/>
      <g id="Group_81884" data-name="Group 81884" transform="translate(13.432 25.156)">
        <path id="Path_87142" data-name="Path 87142" class="cls-107" d="M43.191,252.953a8.882,8.882,0,0,1,1.691-.589l-.891,4.405a.77.77,0,1,1-1.51-.306Z" transform="translate(-42.466 -252.364)"/>
        <path id="Path_87143" data-name="Path 87143" class="cls-107" d="M110.063,257.37a.782.782,0,0,1-.154.015.77.77,0,0,1-.754-.617l-.89-4.405a8.877,8.877,0,0,1,1.69.589l.71,3.51A.77.77,0,0,1,110.063,257.37Z" transform="translate(-101.706 -252.363)"/>
      </g>
      <path id="Path_87144" data-name="Path 87144" class="cls-110" d="M25.62,270a7.7,7.7,0,1,1-7.7-7.7A7.7,7.7,0,0,1,25.62,270Z" transform="translate(0 -236.149)"/>
      <g id="Group_81885" data-name="Group 81885" transform="translate(13.61 29.538)">
        <path id="Path_87145" data-name="Path 87145" class="cls-113" d="M46.189,300.2a1.938,1.938,0,1,1,1.938-1.938A1.94,1.94,0,0,1,46.189,300.2Zm0-2.335a.4.4,0,1,0,.4.4A.4.4,0,0,0,46.189,297.862Z" transform="translate(-44.251 -296.322)"/>
        <path id="Path_87146" data-name="Path 87146" class="cls-113" d="M93.769,347.779a1.938,1.938,0,1,1,1.938-1.938A1.94,1.94,0,0,1,93.769,347.779Zm0-2.335a.4.4,0,1,0,.4.4A.4.4,0,0,0,93.769,345.443Z" transform="translate(-87.088 -339.16)"/>
        <path id="Path_87147" data-name="Path 87147" class="cls-113" d="M56.571,314.319A.77.77,0,0,1,56.028,313l4.776-4.743a.77.77,0,0,1,1.086,1.093l-4.776,4.743A.767.767,0,0,1,56.571,314.319Z" transform="translate(-54.649 -306.868)"/>
      </g>
      <path id="Path_87148" data-name="Path 87148" class="cls-114" d="M95.745,444.481H55.84v-1.763a.616.616,0,0,1,.616-.616H95.129a.616.616,0,0,1,.616.616v1.763Z" transform="translate(-41.075 -398.033)"/>
      <path id="Path_87149" data-name="Path 87149" class="cls-107" d="M76.612,467.376H31.942v-1.763a.616.616,0,0,1,.616-.616H76a.616.616,0,0,1,.616.616v1.763Z" transform="translate(-19.559 -418.645)"/>
      <path id="Path_87150" data-name="Path 87150" class="cls-106" d="M59.843,490.516H12.383a.616.616,0,0,1-.616-.616v-1.146a.616.616,0,0,1,.616-.616H59.843a.616.616,0,0,1,.616.616V489.9A.616.616,0,0,1,59.843,490.516Z" transform="translate(-1.395 -439.479)"/>
    </g>
  </g>
</svg>
