<svg xmlns="http://www.w3.org/2000/svg" viewBox="0 0 600 188">
  <defs>
    <style>
      .cls-1, .cls-19 {
        fill: #fff;
      }

      .cls-1 {
        stroke: #707070;
        opacity: 0;
      }

      .cls-2 {
        fill: #444;
      }

      .cls-3 {
        fill: #fcecba;
      }

      .cls-4 {
        fill: #befcba;
      }

      .cls-5 {
        fill: #ffa4c3;
      }

      .cls-6 {
        fill: #b3e5fc;
      }

      .cls-7 {
        fill: #b8c6dc;
      }

      .cls-8 {
        fill: #a8e5e0;
      }

      .cls-9 {
        fill: #d2bade;
      }

      .cls-10 {
        fill: #4b201e;
      }

      .cls-11 {
        fill: #89ccdf;
      }

      .cls-12 {
        fill: #f7cebf;
      }

      .cls-13 {
        fill: #bfd4f7;
      }

      .cls-14 {
        fill: #cde5cb;
      }

      .cls-15, .cls-24 {
        fill: #fce1d5;
      }

      .cls-16 {
        fill: rgba(0,0,0,0.87);
      }

      .cls-17 {
        fill: #fc6e4f;
      }

      .cls-18 {
        fill: #052c52;
      }

      .cls-20 {
        fill: #7c7cdd;
        opacity: 0.18;
      }

      .cls-21, .cls-22, .cls-28 {
        fill: none;
      }

      .cls-21, .cls-22 {
        stroke: #112b17;
        stroke-miterlimit: 10;
      }

      .cls-21 {
        stroke-width: 1.184px;
      }

      .cls-22 {
        stroke-width: 0.592px;
      }

      .cls-23 {
        fill: #908da5;
      }

      .cls-24 {
        opacity: 0.5;
      }

      .cls-25 {
        fill: #585268;
      }

      .cls-26 {
        fill: #555;
      }

      .cls-27 {
        stroke: none;
      }
    </style>
  </defs>
  <g id="con-22" transform="translate(-107 -600)">
    <g id="Rectangle_9274" data-name="Rectangle 9274" class="cls-1" transform="translate(107 600)">
      <rect class="cls-27" width="600" height="188"/>
      <rect class="cls-28" x="0.5" y="0.5" width="599" height="187"/>
    </g>
    <g id="Group_38109" data-name="Group 38109" transform="translate(369.644 611)">
      <path id="Path_47195" data-name="Path 47195" class="cls-2" d="M179.044,303.673c0,1.285-28.17,2.372-62.921,2.372S53.2,305.007,53.2,303.673c0-1.285,28.17-2.373,62.921-2.373C150.867,301.35,179.044,302.387,179.044,303.673Z" transform="translate(-76.792 -152.377)"/>
      <path id="Path_47198" data-name="Path 47198" class="cls-3" d="M121.1,56.34c-4.006-1.137-6.672,3.064-10.578,1.581V38.2H56.4V92.323H76.121C77.6,88.417,73.4,85.749,74.54,81.745c1.087-3.905,5.289-5.141,8.946-5.239h0c3.658.1,7.859,1.335,8.946,5.239,1.137,4.006-3.064,6.672-1.581,10.578h19.721V72.6c3.905-1.483,6.574,2.718,10.578,1.581,3.905-1.087,5.141-5.289,5.239-8.946C126.241,61.579,125,57.427,121.1,56.34Z" transform="translate(-78.411 -19.319)"/>
      <path id="Path_47198-2" data-name="Path 47198" class="cls-4" d="M121.1,56.34c-4.006-1.137-6.672,3.064-10.578,1.581V38.2H56.4V92.323H76.121C77.6,88.417,73.4,85.749,74.54,81.745c1.087-3.905,5.289-5.141,8.946-5.239h0c3.658.1,7.859,1.335,8.946,5.239,1.137,4.006-3.064,6.672-1.581,10.578h19.721V72.6c3.905-1.483,6.574,2.718,10.578,1.581,3.905-1.087,5.141-5.289,5.239-8.946C126.241,61.579,125,57.427,121.1,56.34Z" transform="matrix(0.719, 0.695, -0.695, 0.719, 193.574, 3.509)"/>
      <path id="Rectangle_9248" data-name="Rectangle 9248" class="cls-2" d="M0,0H20.166V.89H0Z" transform="translate(-4.267 164.444)"/>
      <rect id="Rectangle_9249" data-name="Rectangle 9249" class="cls-2" width="32.127" height="0.89" transform="translate(99.827 156.585)"/>
      <path id="Path_47199" data-name="Path 47199" class="cls-5" d="M234.172,180.417H214.45c-1.483-3.905,2.718-6.574,1.581-10.578-1.087-3.905-5.289-5.141-8.946-5.239-3.658.1-7.859,1.335-8.946,5.239-1.137,4.006,3.064,6.672,1.582,10.578H180v19.721c3.905,1.483,6.574-2.718,10.578-1.581,3.905,1.087,5.141,5.289,5.239,8.946v-.05c-.1,3.658-1.335,7.859-5.239,8.946-4.006,1.137-6.672-3.064-10.578-1.581v19.721h54.122V180.417Z" transform="translate(-140.919 -83.243)"/>
      <path id="Path_47234" data-name="Path 47234" class="cls-6" d="M54.172,15.817H34.45c-1.483-3.905,2.718-6.574,1.581-10.578C34.945,1.335,30.744.1,27.086,0c-3.658.1-7.859,1.335-8.946,5.239C17,9.245,21.2,11.912,19.721,15.817H0V35.538c3.905,1.483,6.574-2.718,10.578-1.581,3.905,1.087,5.141,5.289,5.239,8.946v-.05c-.1,3.658-1.335,7.859-5.239,8.946-4,1.137-6.672-3.064-10.578-1.581V69.939H54.123V15.817Z" transform="translate(162.693 132.831) rotate(166)"/>
      <path id="Path_47234-2" data-name="Path 47234" class="cls-7" d="M54.172,15.817H34.45c-1.483-3.905,2.718-6.574,1.581-10.578C34.945,1.335,30.744.1,27.086,0c-3.658.1-7.859,1.335-8.946,5.239C17,9.245,21.2,11.912,19.721,15.817H0V35.538c3.905,1.483,6.574-2.718,10.578-1.581,3.905,1.087,5.141,5.289,5.239,8.946v-.05c-.1,3.658-1.335,7.859-5.239,8.946-4,1.137-6.672-3.064-10.578-1.581V69.939H54.123V15.817Z" transform="translate(-98.924 110.96) rotate(110)"/>
      <path id="Path_47201" data-name="Path 47201" class="cls-8" d="M135.4,198.557c-4.006-1.137-6.672,3.064-10.578,1.581V180.417H105.1c-1.483-3.905,2.718-6.574,1.581-10.578-1.087-3.905-5.289-5.141-8.946-5.239-3.658.1-7.859,1.335-8.946,5.239-1.137,4.006,3.064,6.672,1.581,10.578H70.7v54.123h54.123V214.818c3.905-1.483,6.574,2.718,10.578,1.581,3.905-1.087,5.141-5.289,5.239-8.946C140.541,203.845,139.3,199.644,135.4,198.557Z" transform="translate(-85.643 -83.243)"/>
      <path id="Path_47201-2" data-name="Path 47201" class="cls-9" d="M135.4,198.557c-4.006-1.137-6.672,3.064-10.578,1.581V180.417H105.1c-1.483-3.905,2.718-6.574,1.581-10.578-1.087-3.905-5.289-5.141-8.946-5.239-3.658.1-7.859,1.335-8.946,5.239-1.137,4.006,3.064,6.672,1.581,10.578H70.7v54.123h54.123V214.818c3.905-1.483,6.574,2.718,10.578,1.581,3.905-1.087,5.141-5.289,5.239-8.946C140.541,203.845,139.3,199.644,135.4,198.557Z" transform="translate(55.739 -94.258) rotate(74)"/>
      <g id="Group_38085" data-name="Group 38085" transform="translate(-0.905 68.308)">
        <rect id="Rectangle_9250" data-name="Rectangle 9250" class="cls-10" width="0.84" height="96.58"/>
        <rect id="Rectangle_9251" data-name="Rectangle 9251" class="cls-10" width="0.84" height="96.58" transform="translate(12.999)"/>
        <rect id="Rectangle_9252" data-name="Rectangle 9252" class="cls-10" width="13.444" height="0.84" transform="translate(0 4.251)"/>
        <rect id="Rectangle_9253" data-name="Rectangle 9253" class="cls-10" width="13.444" height="0.84" transform="translate(0 11.319)"/>
        <rect id="Rectangle_9254" data-name="Rectangle 9254" class="cls-10" width="13.444" height="0.84" transform="translate(0 18.437)"/>
        <rect id="Rectangle_9255" data-name="Rectangle 9255" class="cls-10" width="13.444" height="0.84" transform="translate(0 25.554)"/>
        <rect id="Rectangle_9256" data-name="Rectangle 9256" class="cls-10" width="13.444" height="0.84" transform="translate(0 32.671)"/>
        <rect id="Rectangle_9257" data-name="Rectangle 9257" class="cls-10" width="13.444" height="0.84" transform="translate(0 39.789)"/>
        <rect id="Rectangle_9258" data-name="Rectangle 9258" class="cls-10" width="13.444" height="0.84" transform="translate(0 46.857)"/>
        <rect id="Rectangle_9259" data-name="Rectangle 9259" class="cls-10" width="13.444" height="0.84" transform="translate(0 53.974)"/>
        <rect id="Rectangle_9260" data-name="Rectangle 9260" class="cls-10" width="13.444" height="0.84" transform="translate(0 61.092)"/>
        <rect id="Rectangle_9261" data-name="Rectangle 9261" class="cls-10" width="13.444" height="0.84" transform="translate(0 68.21)"/>
        <rect id="Rectangle_9262" data-name="Rectangle 9262" class="cls-10" width="13.444" height="0.84" transform="translate(0 75.327)"/>
        <rect id="Rectangle_9263" data-name="Rectangle 9263" class="cls-10" width="13.444" height="0.84" transform="translate(0 82.444)"/>
        <rect id="Rectangle_9264" data-name="Rectangle 9264" class="cls-10" width="13.444" height="0.84" transform="translate(0 89.512)"/>
      </g>
      <path id="Union_133" data-name="Union 133" class="cls-11" d="M-2950.662-1585.033l1.83-1.384.248.3-1.829,1.383Zm3.659-2.719,1.828-1.383.247.3-1.829,1.384Zm3.656-2.718,1.829-1.389.249.3-1.83,1.389Zm3.659-2.719,1.828-1.383.247.3-1.829,1.384Zm3.658-2.718,1.83-1.384.247.3-1.829,1.383Zm5.238-2.327.291-1.373-1.624,1.229-.246-.3,1.6-1.21-1.256-.078v-.4l2.077.148-.447,2.026Zm130.585-13.2a1.533,1.533,0,0,1,1.533-1.533,1.574,1.574,0,0,1,1.533,1.533,1.533,1.533,0,0,1-1.533,1.533A1.532,1.532,0,0,1-2800.206-1611.43Zm-15.025-5.832,1.137-1.977.3.148-.869,1.553a18.459,18.459,0,0,0,2.005-.661l.147.346a13.991,13.991,0,0,1-1.845.654l1.3.727-.148.3Zm4.7-1.877c.643-.346,1.336-.692,1.977-1.087l.2.346c-.692.393-1.335.739-2.027,1.085v0Zm3.9-2.323c.594-.445,1.236-.89,1.781-1.383l.248.3c-.645.491-1.237.937-1.83,1.381v0Zm3.46-2.916c.544-.494,1.087-1.038,1.581-1.581l.3.248q-.814.885-1.63,1.627v0Zm3.114-3.262c.494-.594.939-1.186,1.384-1.781l.3.248c-.445.592-.939,1.188-1.383,1.778v0Zm3.012-3.461h0l-.293-.2,1.186-1.927.346.2c-.445.64-.84,1.332-1.239,1.925l0,0Zm1.931-4.151c.345-.642.691-1.336.988-2.027l.347.149a20.326,20.326,0,0,1-.988,2.074v0Zm1.927-4.053c.3-.691.544-1.383.791-2.125l.346.148c-.248.689-.494,1.381-.791,2.122v0Zm1.533-4.25c.248-.692.446-1.434.643-2.175l.346.1c-.2.689-.4,1.43-.642,2.172v0Zm1.581-4.353-.345-.1c.148-.742.345-1.483.494-2.226l.4.1c-.247.793-.393,1.534-.543,2.226Zm.5-4.5.3-1.78.4.049-.3,1.78Zm-163.9-7.707.346-.2c.4.642.791,1.285,1.236,1.927l-.347.2C-2952.688-1658.831-2953.083-1659.473-2953.479-1660.116Zm-1.878-4.153.347-.1c.247.693.543,1.435.84,2.076l-.345.149C-2954.813-1662.835-2955.11-1663.575-2955.357-1664.268Zm-1.039-4.5.347-.049c.1.742.247,1.483.4,2.226l-.346.1A16.916,16.916,0,0,1-2956.4-1668.767Zm-.247-3.259a12.257,12.257,0,0,1,.05-1.336h.4c0,.446-.05.841-.05,1.285v.989l-.4.049Zm12.357-2.029v-1.927h-1.928v-.4h1.928v-1.878h.4v1.878h1.877v.4h-1.877v1.927Zm-12.111-1.582a18.433,18.433,0,0,1,.446-2.273l.4.1a17.815,17.815,0,0,0-.445,2.224Zm1.483-4.3-.346-.149a16.017,16.017,0,0,1,.89-2.125l.3.148c-.3.693-.593,1.388-.841,2.127Zm92.083-4.646a1.531,1.531,0,0,1,1.533-1.532,1.54,1.54,0,0,1,1.533,1.532,1.533,1.533,0,0,1-1.533,1.533A1.532,1.532,0,0,1-2862.83-1684.582Zm-90.5.347a21.913,21.913,0,0,1,1.285-1.927l.3.247c-.442.591-.84,1.235-1.236,1.876Zm3.015-3.461h0l-.3-.247a16.5,16.5,0,0,1,1.58-1.634l.248.3c-.546.5-1.038,1.039-1.532,1.584h0Zm3.261-3.064h0l-.2-.3c.593-.445,1.236-.89,1.878-1.285l.2.3c-.645.4-1.237.84-1.88,1.284h0Zm25.653-1.038,1.277-.194c-.442-.279-.885-.554-1.327-.794l.2-.347c.48.257.948.536,1.4.835l-.413-1.28.346-.1.643,1.977-2.075.3Zm65.59-.247v-1.483h-1.483v-.4h1.483v-1.483h.4v1.483h1.434v.4h-1.434v1.483Zm-87.387-1.089-.148-.346c.691-.346,1.383-.643,2.075-.94l.148.346c-.692.3-1.434.594-2.076.94Zm17.6-1.381.1-.346c.742.247,1.433.494,2.174.791l-.147.3A18.126,18.126,0,0,0-2925.6-1694.516Zm-13.494-.594a18.1,18.1,0,0,1,2.226-.494l.1.346c-.742.148-1.484.3-2.226.493Zm9.1-.347.05-.4c.741.1,1.533.2,2.273.346l-.1.4A17.317,17.317,0,0,0-2930-1695.456Zm-4.6-.494c.643,0,1.285-.049,1.929-.049h.4v.4h-.4c-.644,0-1.286,0-1.879.05Z" transform="translate(2908.633 1696)"/>
      <g id="Group_38090" data-name="Group 38090" transform="translate(-39.904 74.585)">
        <rect id="Rectangle_9267" data-name="Rectangle 9267" class="cls-11" width="3.312" height="0.396" transform="translate(0 1.483)"/>
        <rect id="Rectangle_9268" data-name="Rectangle 9268" class="cls-11" width="0.396" height="3.361" transform="translate(1.483)"/>
      </g>
      <g id="Group_38092" data-name="Group 38092" transform="translate(99.975 48.438)">
        <rect id="Rectangle_9271" data-name="Rectangle 9271" class="cls-11" width="4.201" height="0.396" transform="translate(0 1.878)"/>
        <rect id="Rectangle_9272" data-name="Rectangle 9272" class="cls-11" width="0.396" height="4.201" transform="translate(1.927)"/>
      </g>
      <path id="Path_47225" data-name="Path 47225" class="cls-11" d="M51.526,171.251A2.215,2.215,0,1,1,53.1,170.6,2.226,2.226,0,0,1,51.526,171.251Zm0-4.053a1.82,1.82,0,1,0,1.3.533,1.829,1.829,0,0,0-1.3-.533Z" transform="translate(-74.82 -84.356)"/>
      <rect id="Rectangle_9273" data-name="Rectangle 9273" class="cls-2" width="32.127" height="0.89" transform="translate(-49.888 156.634)"/>
      <path id="Path_47200" data-name="Path 47200" class="cls-12" d="M159.2,45.817l2.916,13.3,1.285,5.981c4.1.593,5.832-4.053,9.984-3.806,4.053.247,6.129,4.053,7.018,7.612-.05-.2-.05-.4-.1-.593l.247,1.137c-.05-.2-.1-.4-.148-.544.642,3.608.346,7.958-3.213,9.836-3.658,1.927-7.167-1.581-10.676.692l1.285,5.981,2.916,13.3,13.3-2.916,5.981-1.285c.593-4.1-4.053-5.832-3.806-9.984.247-4.053,4.053-6.129,7.612-7.018-.2.05-.4.05-.593.1l1.137-.247c-.2.05-.4.1-.544.148,3.608-.692,7.958-.346,9.836,3.213,1.927,3.658-1.581,7.167.692,10.676l5.981-1.285,13.3-2.916L212.037,34.3Z" transform="translate(-115.4 -29.852)"/>
      <path id="Path_47200-2" data-name="Path 47200" class="cls-13" d="M159.2,45.817l2.916,13.3,1.285,5.981c4.1.593,5.832-4.053,9.984-3.806,4.053.247,6.129,4.053,7.018,7.612-.05-.2-.05-.4-.1-.593l.247,1.137c-.05-.2-.1-.4-.148-.544.642,3.608.346,7.958-3.213,9.836-3.658,1.927-7.167-1.581-10.676.692l1.285,5.981,2.916,13.3,13.3-2.916,5.981-1.285c.593-4.1-4.053-5.832-3.806-9.984.247-4.053,4.053-6.129,7.612-7.018-.2.05-.4.05-.593.1l1.137-.247c-.2.05-.4.1-.544.148,3.608-.692,7.958-.346,9.836,3.213,1.927,3.658-1.581,7.167.692,10.676l5.981-1.285,13.3-2.916L212.037,34.3Z" transform="matrix(0.766, -0.643, 0.643, 0.766, -12.367, 117.737)"/>
      <path id="Path_47235" data-name="Path 47235" class="cls-14" d="M0,11.517l2.916,13.3L4.2,30.793c4.1.593,5.832-4.053,9.984-3.806,4.053.247,6.129,4.053,7.018,7.612-.05-.2-.05-.4-.1-.593l.247,1.137c-.05-.2-.1-.4-.148-.544.642,3.608.346,7.958-3.213,9.836-3.658,1.928-7.167-1.581-10.679.692L8.6,51.108l2.916,13.3,13.3-2.916L30.791,60.2c.593-4.1-4.053-5.832-3.806-9.984.247-4.053,4.053-6.129,7.612-7.018-.2.05-.4.05-.593.1l1.137-.247c-.2.05-.4.1-.544.148,3.608-.692,7.958-.346,9.836,3.213,1.927,3.658-1.581,7.167.692,10.676L51.105,55.8l13.3-2.916L52.837,0Z" transform="translate(-42.871 142.571) rotate(-150)"/>
      <g id="Group_38112" data-name="Group 38112" transform="translate(-11.662 42.606)">
        <g id="Group_32738" data-name="Group 32738" transform="translate(25.496 16.128)">
          <path id="Path_38710" data-name="Path 38710" class="cls-15" d="M135.531,91.757s.034-.068.1-.191a1.716,1.716,0,0,1,.29-.376,1.5,1.5,0,0,1,.5-.341,1.237,1.237,0,0,1,.718-.064c.273.052.427.307.461.666a2.6,2.6,0,0,1-.2,1.2,2.4,2.4,0,0,1-.734,1.024,1.133,1.133,0,0,1-1.145.137.472.472,0,0,1-.017-.137,2.073,2.073,0,0,1-.034-.393c0-.171-.017-.393,0-.649A4.049,4.049,0,0,1,135.531,91.757Z" transform="translate(-135.455 -90.758)"/>
          <path id="Path_38711" data-name="Path 38711" class="cls-15" d="M135.651,96.477a.483.483,0,0,1,.051-.1.647.647,0,0,1,.171-.222.742.742,0,0,1,.29-.2.656.656,0,0,1,.41-.034c.154.034.239.191.254.393a1.622,1.622,0,0,1-.12.717,1.416,1.416,0,0,1-.427.6.631.631,0,0,1-.649.085.3.3,0,0,0-.017-.085c0-.052-.017-.137-.017-.239v-.376A3.231,3.231,0,0,1,135.651,96.477Z" transform="translate(-135.574 -95.019)"/>
        </g>
        <g id="Group_32742" data-name="Group 32742" transform="translate(14.228 37.063)">
          <g id="Group_32740" data-name="Group 32740" transform="translate(0 0)">
            <path id="Path_38713" data-name="Path 38713" class="cls-15" d="M73.47,214.218s-.12.341-.273.954c-.171.615-.376,1.537-.581,2.681a41.043,41.043,0,0,0-.529,4.116,43.331,43.331,0,0,0-.12,5.26s-.068.052-.2.137a2.086,2.086,0,0,1-.513.222,1.306,1.306,0,0,1-.683.052,1.335,1.335,0,0,1-.717-.376,28.88,28.88,0,0,1-.324-3.074c-.068-1.127-.068-2.339-.034-3.552s.12-2.39.254-3.5a21.86,21.86,0,0,1,.546-2.92,1.042,1.042,0,0,1,.546-.649,1.79,1.79,0,0,1,.922-.191,2.62,2.62,0,0,1,.974.222,1.869,1.869,0,0,1,.736.616Z" transform="translate(-69.469 -213.377)"/>
          </g>
          <g id="Group_32741" data-name="Group 32741" transform="translate(0.159 12.575)">
            <path id="Path_38714" data-name="Path 38714" class="cls-16" d="M72.69,287.085v.871a1.563,1.563,0,0,0,.017.29s-.068.052-.2.137a2.083,2.083,0,0,1-.513.222,1.307,1.307,0,0,1-.683.052,1.336,1.336,0,0,1-.717-.376,2.661,2.661,0,0,1-.085-.273q-.025-.154-.052-.359c-.017-.12-.017-.239-.034-.359,0-.12-.017-.222-.017-.291a3.576,3.576,0,0,0,.513.191,2.274,2.274,0,0,0,.581.085,2.3,2.3,0,0,0,.6-.034,1.111,1.111,0,0,0,.6-.154C72.69,287.19,72.518,287.19,72.69,287.085Z" transform="translate(-70.401 -286.999)"/>
          </g>
        </g>
        <g id="Group_32745" data-name="Group 32745" transform="translate(18.4 37.202)">
          <g id="Group_32743" data-name="Group 32743" transform="translate(0 0)">
            <path id="Path_38715" data-name="Path 38715" class="cls-15" d="M93.9,215.041s.085.307.2.89.291,1.452.427,2.579.273,2.493.324,4.1a54.4,54.4,0,0,1-.085,5.447.964.964,0,0,0,.191.137,1.794,1.794,0,0,0,.478.222,1.167,1.167,0,0,0,.649.052,1.354,1.354,0,0,0,.7-.376c.154-.89.273-1.878.376-2.92s.171-2.151.191-3.3c.034-1.127.034-2.289-.017-3.449-.052-1.145-.12-2.289-.254-3.381a.834.834,0,0,0-.461-.666,1.817,1.817,0,0,0-.939-.191,2.647,2.647,0,0,0-1.024.239,1.707,1.707,0,0,0-.758.615Z" transform="translate(-93.9 -214.183)"/>
          </g>
          <g id="Group_32744" data-name="Group 32744" transform="translate(0.853 12.773)">
            <path id="Path_38716" data-name="Path 38716" class="cls-16" d="M98.968,288.976a1.293,1.293,0,0,1-.017.254c0,.085-.017.17-.017.254s-.017.171-.017.254-.017.171-.017.254a.965.965,0,0,0,.191.137,1.794,1.794,0,0,0,.478.222,1.167,1.167,0,0,0,.649.051,1.354,1.354,0,0,0,.7-.376c.017-.085.034-.191.052-.273s.034-.191.052-.273c.011-.179.031-.37.051-.559a1.9,1.9,0,0,1-.478.15,2.652,2.652,0,0,1-.529.051,3.1,3.1,0,0,1-.546-.051,2.19,2.19,0,0,1-.546-.1C98.968,289.062,99.154,289.027,98.968,288.976Z" transform="translate(-98.899 -288.922)"/>
          </g>
        </g>
        <g id="Group_32748" data-name="Group 32748" transform="matrix(-0.342, -0.94, 0.94, -0.342, 18.641, 28.613)">
          <path id="Path_38719" data-name="Path 38719" class="cls-15" d="M2.137,2.751s0,.148-.015.341a4.18,4.18,0,0,1-.1.7,1.076,1.076,0,0,1-.3.579.471.471,0,0,1-.593-.03A2.06,2.06,0,0,1,.49,3.688,3.471,3.471,0,0,1,.12,2.854,3.4,3.4,0,0,1,0,2.023,1.943,1.943,0,0,1,.09,1.387a3.735,3.735,0,0,1,.223-.5A3.644,3.644,0,0,1,.594.406,1.171,1.171,0,0,1,.935.08a.472.472,0,0,1,.4-.059A1.641,1.641,0,0,1,2.4.7a1.339,1.339,0,0,1,.163.92,2.671,2.671,0,0,1-.267.8A1.837,1.837,0,0,1,2.137,2.751Z" transform="translate(5.03 10.394)"/>
          <path id="Path_38720" data-name="Path 38720" class="cls-17" d="M.15,0A10.328,10.328,0,0,0,.016,1.246,14.575,14.575,0,0,0,.207,4.377,14.336,14.336,0,0,0,1.6,8.516a13.863,13.863,0,0,0,3.471,4.261s.119-.059.3-.163a3.707,3.707,0,0,0,.653-.49,3.207,3.207,0,0,0,.652-.8,2.316,2.316,0,0,0,.3-1.127,5.2,5.2,0,0,1-.814-.462A11.475,11.475,0,0,1,4.274,8.2a11.637,11.637,0,0,1-2.05-2.832A13.138,13.138,0,0,1,.889,1.009,1.091,1.091,0,0,1,.862.89,3.046,3.046,0,0,0,.743.609,2.226,2.226,0,0,0,.52.267,1.834,1.834,0,0,0,.15,0Z" transform="translate(0 0)"/>
        </g>
        <path id="Path_38721" data-name="Path 38721" class="cls-18" d="M58.1,187.041s-.052.291-.154.768c-.1.461-.222,1.093-.376,1.759s-.324,1.366-.5,1.964a10.65,10.65,0,0,1-.478,1.4s.461.12,1.213.254,1.81.307,3.005.41a22.094,22.094,0,0,0,3.842.034,11.636,11.636,0,0,0,3.74-.871s-.068-.191-.191-.513-.273-.8-.461-1.366-.393-1.213-.6-1.913-.41-1.435-.581-2.186c-.1-.445-.581-.768-1.281-.99a8.14,8.14,0,0,0-2.527-.307,10.28,10.28,0,0,0-2.749.393A3.973,3.973,0,0,0,58.1,187.041Z" transform="translate(-44.568 -153.181)"/>
        <g id="Group_32751" data-name="Group 32751" transform="translate(12.765 23.13)">
          <g id="Group_32749" data-name="Group 32749" transform="translate(5.02 9.165)">
            <path id="Path_38722" data-name="Path 38722" class="cls-19" d="M90.3,187.176s.052.171.12.41c.068.254.171.581.273.922s.2.683.307.954a1.574,1.574,0,0,0,.239.5,3.9,3.9,0,0,0,.6.051,11.592,11.592,0,0,0,1.246-.068,6.174,6.174,0,0,0,1.4-.291,2.289,2.289,0,0,0,1.059-.615s-.034-.12-.085-.307-.12-.427-.191-.7-.137-.546-.2-.785-.1-.461-.137-.581a1.359,1.359,0,0,0-.768-1.007,2.26,2.26,0,0,0-1.366-.154,3.664,3.664,0,0,0-1.468.546A2.952,2.952,0,0,0,90.3,187.176Z" transform="translate(-90.3 -185.457)"/>
            <path id="Path_38723" data-name="Path 38723" class="cls-20" d="M98.335,198.1l-1.059.461-1.059.461-1.059.461-1.059.461c0,.017.017.034.017.051s.017.034.017.052.017.034.017.051.017.034.017.052l1.042-.445,1.042-.445,1.042-.445,1.042-.445v-.052a.064.064,0,0,0-.017-.051c0-.017-.017-.034-.017-.052C98.352,198.117,98.335,198.1,98.335,198.1Z" transform="translate(-93.451 -195.937)"/>
            <path id="Path_38724" data-name="Path 38724" class="cls-20" d="M94.146,188.8l-.89.341-.89.341-.89.341-.89.341c0,.017,0,.017.017.034,0,.017,0,.034.017.034,0,.017,0,.034.017.034a.064.064,0,0,0,.017.051l.922-.359.922-.359.922-.359.922-.359c-.017-.017-.017-.017-.034-.017s-.017-.017-.034-.017a.06.06,0,0,1-.034-.017C94.18,188.817,94.163,188.8,94.146,188.8Z" transform="translate(-90.543 -188.225)"/>
            <path id="Path_38725" data-name="Path 38725" class="cls-20" d="M96.6,192.2l-1.076.445-1.076.445-1.076.445-1.076.445c0,.017,0,.034.017.034,0,.017,0,.034.017.034,0,.017,0,.034.017.034,0,.017,0,.034.017.034l1.076-.41,1.076-.41,1.076-.41,1.076-.41v-.137a.127.127,0,0,0-.017-.068C96.62,192.234,96.6,192.217,96.6,192.2Z" transform="translate(-91.958 -191.045)"/>
            <path id="Path_38726" data-name="Path 38726" class="cls-20" d="M94.334,190.168l.341.922.341.922.341.922.341.922a.064.064,0,0,0,.052.017h.1c.017,0,.034-.017.052-.017l-.376-.939-.376-.939-.376-.939L94.4,190.1c-.017,0-.017.017-.034.017s-.017.017-.034.017-.017.017-.034.017C94.351,190.168,94.351,190.168,94.334,190.168Z" transform="translate(-93.617 -189.302)"/>
            <path id="Path_38727" data-name="Path 38727" class="cls-20" d="M108.859,187.819c-.034-.017-.051-.017-.085-.034s-.068-.017-.085-.034c-.034-.017-.068-.017-.085-.034a.217.217,0,0,0-.1-.017l.307.939.307.939.307.939.307.939h.068c.017,0,.052-.017.068-.017.017-.017.034-.017.068-.034l.052-.051-.273-.89-.273-.89-.273-.89Z" transform="translate(-105.393 -187.312)"/>
            <path id="Path_38728" data-name="Path 38728" class="cls-20" d="M100,187.652l.376,1.007.376,1.007.376,1.007.376,1.007h.068a.186.186,0,0,0,.085-.017c.034,0,.052-.017.085-.017a.742.742,0,0,0,.085-.017l-.376-1.007-.376-1.007-.376-1.007-.376-1.007c-.034,0-.052.017-.085.017s-.052.017-.085.017-.052.017-.085.017C100.052,187.634,100.034,187.634,100,187.652Z" transform="translate(-98.343 -187.23)"/>
          </g>
          <g id="Group_32750" data-name="Group 32750" transform="translate(0 9.18)">
            <path id="Path_38729" data-name="Path 38729" class="cls-19" d="M66.21,187.4s-.052.171-.137.41-.191.581-.307.9c-.12.341-.239.666-.341.939a1.505,1.505,0,0,1-.254.478,2.978,2.978,0,0,1-.6,0,9.844,9.844,0,0,1-1.246-.154,8.08,8.08,0,0,1-1.4-.376,2.4,2.4,0,0,1-1.028-.682s.034-.12.085-.291c.052-.191.137-.427.2-.683.085-.254.171-.529.239-.768s.137-.445.154-.563a1.352,1.352,0,0,1,.8-.954,2.434,2.434,0,0,1,1.366-.068,3.848,3.848,0,0,1,1.435.632A2.833,2.833,0,0,1,66.21,187.4Z" transform="translate(-60.9 -185.523)"/>
            <path id="Path_38730" data-name="Path 38730" class="cls-20" d="M62.967,197.3l1.024.513,1.024.513,1.024.529,1.024.513c0,.017-.017.034-.017.051s-.017.034-.017.052-.017.034-.017.051a.06.06,0,0,1-.017.034l-1.024-.513-1.024-.513-1.024-.513-1.024-.513v-.051a.064.064,0,0,1,.017-.052c0-.017.017-.034.017-.051a.211.211,0,0,1,.034-.051Z" transform="translate(-62.558 -195.289)"/>
            <path id="Path_38731" data-name="Path 38731" class="cls-20" d="M70.2,188.4l.871.393.871.393.871.393.871.393c0,.017,0,.017-.017.034,0,.017,0,.017-.017.034a.06.06,0,0,1-.017.034c0,.017-.017.034-.017.052l-.9-.41-.9-.41-.9-.41L70,188.485c.017,0,.017-.017.034-.017l.068-.034C70.171,188.417,70.191,188.417,70.2,188.4Z" transform="translate(-68.446 -187.909)"/>
            <path id="Path_38732" data-name="Path 38732" class="cls-20" d="M64.668,191.5l1.059.513,1.059.513,1.059.513,1.059.513-.034.068-.034.068-1.059-.478-1.059-.478-1.059-.478-1.058-.478v-.137c0-.017.017-.034.017-.068A.569.569,0,0,0,64.668,191.5Z" transform="translate(-63.968 -190.48)"/>
            <path id="Path_38733" data-name="Path 38733" class="cls-20" d="M79.375,190.891l-.393.89-.393.89-.393.89-.393.89c-.017,0-.034.017-.052.017H77.7a.064.064,0,0,1-.052-.017c-.017,0-.034-.017-.052-.017l.41-.9.41-.9.41-.9.41-.9c.017,0,.017.017.034.017s.017.017.034.017.017.017.034.017Z" transform="translate(-74.747 -189.905)"/>
            <path id="Path_38734" data-name="Path 38734" class="cls-20" d="M65.614,187.6c.034-.017.052-.017.085-.034s.068-.017.085-.034.068-.017.085-.017c.034,0,.068-.017.1-.017l-.359.922-.361.923-.359.922-.359.922a.128.128,0,0,1-.068-.017c-.017,0-.052-.017-.068-.017-.017-.017-.034-.017-.052-.034l-.052-.052.307-.871.307-.871.31-.872Z" transform="translate(-63.718 -187.162)"/>
            <path id="Path_38735" data-name="Path 38735" class="cls-20" d="M72.737,187.555l-.427.974-.427.974-.427.974-.427.974a.128.128,0,0,1-.068-.017.743.743,0,0,0-.085-.017c-.034,0-.052-.017-.085-.017a.13.13,0,0,1-.085-.034l.41-.99.41-.99.41-.99.41-.99c.034,0,.052.017.085.017s.052.017.085.017.052.017.085.017A.36.36,0,0,0,72.737,187.555Z" transform="translate(-69.029 -187.081)"/>
          </g>
          <path id="Path_38736" data-name="Path 38736" class="cls-17" d="M62.824,134.627c.034.837.068,1.485.085,2.066a12.943,12.943,0,0,1-.052,1.639,14.513,14.513,0,0,1-.324,1.878c-.171.734-.393,1.639-.734,2.783,0,0,.222.051.666.12s1.076.137,1.929.191a26.44,26.44,0,0,0,3.09,0,37.939,37.939,0,0,0,4.166-.41,4.015,4.015,0,0,1-.191-.41,9.332,9.332,0,0,1-.427-1.417,21.054,21.054,0,0,1-.478-2.7c-.137-1.145-.254-2.544-.324-4.252a2.137,2.137,0,0,0-1.229-1.9,4.567,4.567,0,0,0-2.579-.393,5.382,5.382,0,0,0-2.527.871,2.257,2.257,0,0,0-1.076,1.929C62.858,135.464,62.79,133.825,62.824,134.627Z" transform="translate(-61.646 -131.786)"/>
        </g>
        <path id="Path_38752" data-name="Path 38752" class="cls-15" d="M35.77,38.346a7.336,7.336,0,0,0-.837,2.049,30.934,30.934,0,0,0-.7,3.09c-.2,1.093-.359,2.2-.461,3.176a15.135,15.135,0,0,0-.12,2.289,2.563,2.563,0,0,0,.939,1.315,14.594,14.594,0,0,0,2.357,1.69,16.6,16.6,0,0,0,3.159,1.417,10.3,10.3,0,0,0,3.381.546,10,10,0,0,0,3.26-.72,14.4,14.4,0,0,0,2.92-1.554,11.114,11.114,0,0,0,2.118-1.827,3.048,3.048,0,0,0,.871-1.5,10.666,10.666,0,0,0-.222-2.442,32.75,32.75,0,0,0-.752-3.193c-.307-1.093-.649-2.152-.99-3.057a9.546,9.546,0,0,0-.954-2,7.806,7.806,0,0,0-2.425-2.083,9.439,9.439,0,0,0-3.588-1.159,7.8,7.8,0,0,0-4.064.649,9.61,9.61,0,0,0-3.894,3.313C35.48,38.756,36.965,36.69,35.77,38.346Z" transform="translate(-25.533 -27.846)"/>
        <g id="Group_32759" data-name="Group 32759" transform="translate(19.151 13.814)">
          <path id="Path_38755" data-name="Path 38755" class="cls-15" d="M99.222,81.625a2.1,2.1,0,0,1-.649-.854,2.773,2.773,0,0,1-.273-1.178,2.333,2.333,0,0,1,.324-1.2,2.278,2.278,0,0,1,1.145-.871,3.212,3.212,0,0,1,1.793-.191,2.631,2.631,0,0,1,1.315.683,2.862,2.862,0,0,1,.734,1.178,2.245,2.245,0,0,1,.034,1.3,2.1,2.1,0,0,1-.683,1.024,3.025,3.025,0,0,1-1.145.581,3.491,3.491,0,0,1-1.332.068,3.2,3.2,0,0,1-1.264-.546C98.949,81.42,99.6,81.9,99.222,81.625Z" transform="translate(-98.3 -77.271)"/>
          <g id="Group_32756" data-name="Group 32756" transform="translate(0.917 1.075)">
            <path id="Path_38756" data-name="Path 38756" class="cls-15" d="M106.987,84.675a1.254,1.254,0,0,1,.034.615,1.593,1.593,0,0,1-.2.563,1.508,1.508,0,0,1-.427.445,1.764,1.764,0,0,1-1.264.307,1.844,1.844,0,0,1-1.11-.6,1.272,1.272,0,0,1-.29-.563,1.254,1.254,0,0,1-.034-.615,1.593,1.593,0,0,1,.2-.563,1.508,1.508,0,0,1,.427-.445,1.741,1.741,0,0,1,.6-.273,1.771,1.771,0,0,1,.666-.034,1.844,1.844,0,0,1,1.11.6,1.272,1.272,0,0,1,.29.563C107.055,84.88,106.936,84.453,106.987,84.675Z" transform="translate(-103.67 -83.497)"/>
          </g>
          <g id="Group_32757" data-name="Group 32757" transform="translate(1.659 1.681)">
            <path id="Path_38757" data-name="Path 38757" class="cls-15" d="M109.563,87.628a.627.627,0,0,1,.017.307.754.754,0,0,1-.1.273,1.176,1.176,0,0,1-.191.222,1.361,1.361,0,0,1-.273.137.933.933,0,0,1-.307.017.841.841,0,0,1-.291-.1.809.809,0,0,1-.222-.191.591.591,0,0,1-.137-.273.627.627,0,0,1-.017-.307.755.755,0,0,1,.1-.273,1.176,1.176,0,0,1,.191-.222,1.361,1.361,0,0,1,.273-.137.933.933,0,0,1,.307-.017.841.841,0,0,1,.291.1.808.808,0,0,1,.222.191,1.361,1.361,0,0,1,.137.273C109.581,87.731,109.529,87.526,109.563,87.628Z" transform="translate(-108.029 -87.056)"/>
          </g>
          <g id="Group_32758" data-name="Group 32758" transform="translate(3.209 2.975)">
            <path id="Path_38758" data-name="Path 38758" class="cls-15" d="M117.8,94.894a.376.376,0,0,1,.017.137.155.155,0,0,1-.052.12.452.452,0,0,1-.085.1.184.184,0,0,1-.12.052.187.187,0,0,1-.137,0,.227.227,0,0,1-.137-.052.453.453,0,0,1-.1-.085.428.428,0,0,1-.068-.12.376.376,0,0,1-.017-.137.155.155,0,0,1,.051-.12.453.453,0,0,1,.085-.1.184.184,0,0,1,.12-.052.187.187,0,0,1,.137,0,.227.227,0,0,1,.137.051.453.453,0,0,1,.1.085.275.275,0,0,1,.068.12Z" transform="translate(-117.098 -94.625)"/>
          </g>
          <path id="Path_38759" data-name="Path 38759" class="cls-15" d="M101,77.453c-.12.052-.222.1-.341.154a2.972,2.972,0,0,0-.307.191,3.579,3.579,0,0,0-.291.239q-.133.121-.254.254a6.469,6.469,0,0,1,.717-.307,3.868,3.868,0,0,1,.734-.191,5.555,5.555,0,0,1,.752-.052,3.631,3.631,0,0,1,.752.12,4.056,4.056,0,0,1,.871.376,2.422,2.422,0,0,1,.632.529,2.573,2.573,0,0,1,.427.632,3.538,3.538,0,0,1,.239.717,2.4,2.4,0,0,0-.171-1.229,2.834,2.834,0,0,0-.768-1.076,2.687,2.687,0,0,0-1.3-.6,3.679,3.679,0,0,0-1.69.239C100.894,77.486,101.628,77.213,101,77.453Z" transform="translate(-99.545 -77.197)"/>
        </g>
        <g id="Group_32763" data-name="Group 32763" transform="translate(9.816 13.814)">
          <path id="Path_38760" data-name="Path 38760" class="cls-15" d="M48.135,81.625a2.1,2.1,0,0,0,.649-.854,2.774,2.774,0,0,0,.273-1.178,2.332,2.332,0,0,0-.324-1.2,2.278,2.278,0,0,0-1.145-.871,3.212,3.212,0,0,0-1.793-.191,2.631,2.631,0,0,0-1.315.683,2.862,2.862,0,0,0-.734,1.184,2.245,2.245,0,0,0-.034,1.3,2.1,2.1,0,0,0,.683,1.024,3.026,3.026,0,0,0,1.145.581,3.491,3.491,0,0,0,1.332.068,3.2,3.2,0,0,0,1.264-.546C48.39,81.42,47.759,81.9,48.135,81.625Z" transform="translate(-43.632 -77.271)"/>
          <g id="Group_32760" data-name="Group 32760" transform="translate(1.525 0.989)">
            <path id="Path_38761" data-name="Path 38761" class="cls-15" d="M52.625,84.175a1.254,1.254,0,0,0-.034.615,1.594,1.594,0,0,0,.2.563,1.508,1.508,0,0,0,.427.445,1.764,1.764,0,0,0,1.264.307,1.844,1.844,0,0,0,1.11-.6,1.272,1.272,0,0,0,.291-.563,1.254,1.254,0,0,0,.034-.615,1.594,1.594,0,0,0-.2-.563,1.508,1.508,0,0,0-.427-.445,1.74,1.74,0,0,0-.6-.273,1.771,1.771,0,0,0-.666-.034,1.844,1.844,0,0,0-1.11.6,2.2,2.2,0,0,0-.291.563C52.574,84.38,52.693,83.97,52.625,84.175Z" transform="translate(-52.568 -82.997)"/>
          </g>
          <g id="Group_32761" data-name="Group 32761" transform="translate(2.63 1.473)">
            <path id="Path_38762" data-name="Path 38762" class="cls-15" d="M59.063,86.426a.627.627,0,0,0-.017.307.754.754,0,0,0,.1.273.836.836,0,0,0,.2.222.763.763,0,0,0,.291.137.7.7,0,0,0,.324.017.841.841,0,0,0,.291-.1.9.9,0,0,0,.239-.2.866.866,0,0,0,.154-.273.627.627,0,0,0,.017-.307.754.754,0,0,0-.1-.273.836.836,0,0,0-.2-.222.763.763,0,0,0-.291-.137.7.7,0,0,0-.324-.017.841.841,0,0,0-.291.1.9.9,0,0,0-.239.2.866.866,0,0,0-.154.273C59.045,86.528,59.1,86.321,59.063,86.426Z" transform="translate(-59.034 -85.834)"/>
          </g>
          <g id="Group_32762" data-name="Group 32762" transform="translate(1.941 2.94)">
            <path id="Path_38763" data-name="Path 38763" class="cls-15" d="M55,94.642v.12a.243.243,0,0,0,.034.1.372.372,0,0,0,.068.085l.1.052a.146.146,0,0,0,.12,0,.243.243,0,0,0,.1-.034.372.372,0,0,0,.085-.068c.017-.034.052-.068.052-.1a.291.291,0,0,0,.017-.12.243.243,0,0,0-.034-.1c-.017-.034-.052-.052-.068-.085l-.1-.052a.146.146,0,0,0-.12,0,.243.243,0,0,0-.1.034.373.373,0,0,0-.085.068.357.357,0,0,0-.068.1C55,94.694,55.017,94.609,55,94.642Z" transform="translate(-55 -94.425)"/>
          </g>
          <path id="Path_38764" data-name="Path 38764" class="cls-15" d="M47.639,77.453c.12.052.222.1.341.154a2.973,2.973,0,0,1,.307.191,3.576,3.576,0,0,1,.291.239,3.094,3.094,0,0,1,.254.254,6.472,6.472,0,0,0-.717-.307,3.867,3.867,0,0,0-.734-.191,5.554,5.554,0,0,0-.752-.052,3.631,3.631,0,0,0-.752.12,4.057,4.057,0,0,0-.871.376,2.422,2.422,0,0,0-.632.529,2.573,2.573,0,0,0-.427.632,3.538,3.538,0,0,0-.239.717,2.4,2.4,0,0,1,.171-1.229,2.834,2.834,0,0,1,.771-1.075,2.687,2.687,0,0,1,1.3-.6,3.651,3.651,0,0,1,1.691.24C47.755,77.486,47,77.214,47.639,77.453Z" transform="translate(-43.68 -77.197)"/>
        </g>
        <g id="Group_33461" data-name="Group 33461" transform="translate(20.333 24.268) rotate(141)">
          <g id="Group_32747" data-name="Group 32747" transform="translate(14.659 5.71) rotate(120)">
            <path id="Path_38717" data-name="Path 38717" class="cls-17" d="M.189,9.51a4.746,4.746,0,0,1-.1-2.235,8.283,8.283,0,0,1,.946-2.707A9.961,9.961,0,0,1,3.1,1.962,10.4,10.4,0,0,1,6.376,0s.086.043.229.127a3.225,3.225,0,0,1,.544.4,3.745,3.745,0,0,1,.6.7,3.116,3.116,0,0,1,.43,1.017,9.157,9.157,0,0,0-1.031.415A12.591,12.591,0,0,0,4.873,4.021,8.807,8.807,0,0,0,2.6,6.442,6.833,6.833,0,0,0,1.564,10.08a.522.522,0,0,1-.143.318.514.514,0,0,1-.344.158.615.615,0,0,1-.445-.215,2.2,2.2,0,0,1-.445-.83C-.012,8.909.318,9.912.189,9.51Z" transform="translate(0 0.864)"/>
            <g id="Group_32746" data-name="Group 32746" transform="translate(6.341 0)">
              <path id="Path_38718" data-name="Path 38718" class="cls-15" d="M.207.936A1.839,1.839,0,0,1,.608.42,1.95,1.95,0,0,1,1.1.119,1.758,1.758,0,0,1,1.64,0a2.316,2.316,0,0,1,.544.029,1.3,1.3,0,0,1,.6.272A1.266,1.266,0,0,1,3.13.85a1.487,1.487,0,0,1,.043.716,2.317,2.317,0,0,1-.272.8,1.15,1.15,0,0,1-.272.329,1.325,1.325,0,0,1-.415.244,1.6,1.6,0,0,1-.544.127,2.487,2.487,0,0,1-.645-.029,1.3,1.3,0,0,1-.6-.272,1.259,1.259,0,0,1-.345-.514,1.628,1.628,0,0,1-.071-.644,1.919,1.919,0,0,1,.2-.673C.319.736.092,1.151.207.936Z" transform="translate(0)"/>
            </g>
          </g>
          <path id="Path_38765" data-name="Path 38765" class="cls-15" d="M.4.688A1.643,1.643,0,0,0,.846.531C.989.459,1.133.373,1.276.3s.272-.158.415-.215A1.081,1.081,0,0,1,2.105,0a.422.422,0,0,1,.318.114.486.486,0,0,1,.127.3A.745.745,0,0,1,2.479.8a1.3,1.3,0,0,1-.258.387,1.724,1.724,0,0,1-.445.3,3.439,3.439,0,0,1-.544.172,2.155,2.155,0,0,1-.516.029.883.883,0,0,1-.387-.114A.7.7,0,0,1,.1,1.347.53.53,0,0,1,0,1.075.387.387,0,0,1,.4.688" transform="translate(9.587 11.996) rotate(120)"/>
        </g>
        <g id="Group_32764" data-name="Group 32764" transform="translate(6.422 16.085)">
          <path id="Path_38766" data-name="Path 38766" class="cls-15" d="M25.876,91.472a1.145,1.145,0,0,0-.1-.191,2.556,2.556,0,0,0-.291-.393,1.317,1.317,0,0,0-.513-.324,1.1,1.1,0,0,0-.734.034.89.89,0,0,0-.478.837,3.291,3.291,0,0,0,.2,1.366,2.309,2.309,0,0,0,.752,1.076,1,1,0,0,0,1.178-.034.536.536,0,0,0,.017-.154,2.823,2.823,0,0,0,.034-.461,5.458,5.458,0,0,0,0-.752A7.473,7.473,0,0,0,25.876,91.472Z" transform="translate(-23.752 -90.517)"/>
          <path id="Path_38767" data-name="Path 38767" class="cls-15" d="M30.192,96.529a1.017,1.017,0,0,0-.052-.12.9.9,0,0,0-.171-.239.572.572,0,0,0-.291-.191.74.74,0,0,0-.427.017.6.6,0,0,0-.273.5,1.917,1.917,0,0,0,.12.8,1.258,1.258,0,0,0,.427.632.539.539,0,0,0,.666-.017.478.478,0,0,1,.017-.1c0-.068.017-.154.017-.273v-.445A2.249,2.249,0,0,0,30.192,96.529Z" transform="translate(-28.084 -95.028)"/>
        </g>
        <path id="Path_38768" data-name="Path 38768" class="cls-15" d="M52.324,68.436s-2.783-1.554-3.774-.478S49.557,67.7,52.324,68.436Z" transform="translate(-37.68 -55.408)"/>
        <path id="Path_38769" data-name="Path 38769" class="cls-15" d="M102.9,68.436s2.783-1.554,3.774-.478C107.664,69.017,105.666,67.7,102.9,68.436Z" transform="translate(-82.963 -55.408)"/>
        <g id="Group_32766" data-name="Group 32766" transform="translate(13.26 8.263)">
          <g id="Group_32765" data-name="Group 32765">
            <path id="Path_38770" data-name="Path 38770" class="cls-21" d="M63.8,44.7" transform="translate(-63.8 -44.7)"/>
          </g>
        </g>
        <g id="Group_32768" data-name="Group 32768" transform="translate(20.022 8.724)">
          <g id="Group_32767" data-name="Group 32767">
            <path id="Path_38771" data-name="Path 38771" class="cls-22" d="M103.4,47.4" transform="translate(-103.4 -47.4)"/>
          </g>
        </g>
        <g id="Group_32769" data-name="Group 32769" transform="translate(19.34 14.175)">
          <path id="Path_38772" data-name="Path 38772" class="cls-15" d="M99.4,80.143s.254-.1.666-.222a5.771,5.771,0,0,1,1.554-.191,3.1,3.1,0,0,1,1.725.529,3.189,3.189,0,0,1,1.213,1.929.053.053,0,0,0,.034-.017.183.183,0,0,0,.052-.085.636.636,0,0,0,.034-.2,2.054,2.054,0,0,0-.052-.393,2.651,2.651,0,0,0-.29-.7,3.271,3.271,0,0,0-.734-.837,2.9,2.9,0,0,0-1.246-.563,4.329,4.329,0,0,0-1.844.085,2.693,2.693,0,0,0-.529.191,1.975,1.975,0,0,0-.341.222c-.085.068-.137.137-.191.171a.888.888,0,0,0-.05.085Z" transform="translate(-99.4 -79.327)"/>
        </g>
        <g id="Group_32770" data-name="Group 32770" transform="translate(9.726 14.175)">
          <path id="Path_38773" data-name="Path 38773" class="cls-15" d="M48.378,80.143s-.254-.1-.666-.222a5.771,5.771,0,0,0-1.554-.191,3.1,3.1,0,0,0-1.725.529,3.189,3.189,0,0,0-1.213,1.929.053.053,0,0,1-.034-.017.182.182,0,0,1-.052-.085.636.636,0,0,1-.034-.2,2.055,2.055,0,0,1,.052-.393,2.652,2.652,0,0,1,.291-.7,3.27,3.27,0,0,1,.734-.837,2.9,2.9,0,0,1,1.246-.563,4.329,4.329,0,0,1,1.844.085,2.693,2.693,0,0,1,.529.191,1.972,1.972,0,0,1,.341.222c.085.068.137.137.191.171A.889.889,0,0,1,48.378,80.143Z" transform="translate(-43.101 -79.327)"/>
        </g>
        <g id="Group_32771" data-name="Group 32771" transform="translate(8.069 12.896)">
          <path id="Path_38775" data-name="Path 38775" class="cls-23" d="M51.312,73.436a.4.4,0,0,0-.376-.359,2.011,2.011,0,0,1-.9-.376,5.374,5.374,0,0,0-2.133-.837,5.61,5.61,0,0,0-2.066.12,4.049,4.049,0,0,0-1.877,1.059c-.12.1-.239.222-.341.324a.4.4,0,0,1-.581.052,1.343,1.343,0,0,0-.649-.222,1.405,1.405,0,0,0-.649.222.393.393,0,0,1-.581-.052c-.12-.1-.222-.222-.341-.324a3.967,3.967,0,0,0-1.882-1.059,5.611,5.611,0,0,0-2.066-.12,5.133,5.133,0,0,0-2.135.837,2.226,2.226,0,0,1-.9.376.418.418,0,0,0-.376.359l-.052.307v.393a.609.609,0,0,0,.171.191,1.017,1.017,0,0,1,.478.7,6.65,6.65,0,0,0,.2.837,3.258,3.258,0,0,0,1.366,1.9,3.566,3.566,0,0,0,2.9.546,3.942,3.942,0,0,0,1.964-1.093,4.4,4.4,0,0,0,.922-1.653c.068-.191.1-.376.171-.563a.624.624,0,0,1,.513-.445,1.96,1.96,0,0,1,.324-.017c.1,0,.2.017.324.017a.6.6,0,0,1,.513.445c.068.191.1.376.171.563a4.182,4.182,0,0,0,.922,1.653A3.885,3.885,0,0,0,46.308,78.3a3.578,3.578,0,0,0,2.9-.546,3.258,3.258,0,0,0,1.366-1.9,7.462,7.462,0,0,0,.2-.837,1.017,1.017,0,0,1,.478-.7.609.609,0,0,0,.171-.191v-.393a.532.532,0,0,1-.119-.3ZM39.5,77.363a3.223,3.223,0,0,1-1.878.581,2.975,2.975,0,0,1-2.254-1.024,2.671,2.671,0,0,1,.1-3.655,3.133,3.133,0,0,1,4.44,0,2.68,2.68,0,0,1-.41,4.1Zm9.92-.445a2.97,2.97,0,0,1-2.254,1.024,3.106,3.106,0,0,1-1.878-.581,2.671,2.671,0,0,1-.41-4.1,3.133,3.133,0,0,1,4.44,0,2.671,2.671,0,0,1,.1,3.656Z" transform="translate(-33.399 -71.819)"/>
          <path id="Path_38776" data-name="Path 38776" class="cls-24" d="M45.762,79.921a3.223,3.223,0,0,1-1.878.581,2.975,2.975,0,0,1-2.254-1.023,2.671,2.671,0,0,1,.1-3.654,3.133,3.133,0,0,1,4.44,0,2.68,2.68,0,0,1-.41,4.1Z" transform="translate(-39.665 -74.377)"/>
          <path id="Path_38777" data-name="Path 38777" class="cls-24" d="M101.379,79.479A2.97,2.97,0,0,1,99.125,80.5a3.106,3.106,0,0,1-1.878-.581,2.671,2.671,0,0,1-.41-4.1,3.133,3.133,0,0,1,4.44,0,2.671,2.671,0,0,1,.1,3.655Z" transform="translate(-85.361 -74.377)"/>
        </g>
        <g id="Group_32772" data-name="Group 32772" transform="translate(8.035 6.156)">
          <path id="Path_38778" data-name="Path 38778" class="cls-25" d="M52.615,34.625c-.273-.154-4.713-2.2-5.038-2.254-.324-.034-8.008.085-8.23.239-.222.171-5.26,2.766-5.635,2.818l-.512,5.7.683,3.551s.154-4.61,1.042-6.1c.922-1.554,3.09-2.613,4.388-4-1.2,1.281,5.278,2.579,5.823,2.715a6.262,6.262,0,0,1,4.508,4.781,22.574,22.574,0,0,1-.137,10.024,15.091,15.091,0,0,0,3.534-6.8,21.024,21.024,0,0,0,.563-6.164C53.469,38.3,53.537,35.155,52.615,34.625Z" transform="translate(-33.2 -32.365)"/>
        </g>
        <g id="Group_32754" data-name="Group 32754" transform="translate(10.683 13.496)">
          <path id="Path_38737" data-name="Path 38737" class="cls-15" d="M10.947,3.215a1.562,1.562,0,0,1-.34,1.066,2.847,2.847,0,0,1-1.056.808,5.715,5.715,0,0,1-1.6.478,8.509,8.509,0,0,1-2,.071,9.212,9.212,0,0,1-2.126-.427A8.086,8.086,0,0,1,1.948,4.4,5.99,5.99,0,0,1,.573,3.342,1.945,1.945,0,0,1,0,2.174a1.328,1.328,0,0,1,.432-1.03A3.059,3.059,0,0,1,1.7.439a7.743,7.743,0,0,1,1.8-.375A12.221,12.221,0,0,1,5.6.029,9.69,9.69,0,0,1,7.639.421a7.168,7.168,0,0,1,1.671.737,4.292,4.292,0,0,1,1.167.984,1.81,1.81,0,0,1,.47,1.073Z" transform="translate(2.427 11.695) rotate(-74.991)"/>
          <g id="Group_32753" data-name="Group 32753" transform="translate(7.24 14.762) rotate(-137)">
            <path id="Path_38745" data-name="Path 38745" class="cls-19" d="M9.884,5.608s-.259.327-.666.8-.968,1.135-1.526,1.8S6.527,9.534,6.027,10.062s-.845.867-1.017.89a3.649,3.649,0,0,1-1.288-.827A13.4,13.4,0,0,1,1.607,7.913a8.023,8.023,0,0,1-1.5-2.961,3.85,3.85,0,0,1,.61-3.13A4.3,4.3,0,0,1,3.343.085a4.964,4.964,0,0,1,3.01.378A6.145,6.145,0,0,1,8.838,2.457,5.226,5.226,0,0,1,9.884,5.608Z" transform="translate(0.016 0)"/>
            <path id="Path_38746" data-name="Path 38746" class="cls-20" d="M.245,0,1.694,1.8l1.448,1.8,1.449,1.8,1.449,1.8-.1.1-.1.1-.1.1-.1.1L4.233,5.834,2.822,4.068,1.411,2.3,0,.533.018.406.036.279.054.151C.19.092.24.043.245,0Z" transform="translate(0.007 2.806)"/>
            <path id="Path_38747" data-name="Path 38747" class="cls-20" d="M.371,0,1.818,1.51,3.267,3.022,4.712,4.534,6.159,6.045a.209.209,0,0,0-.055.091c-.006.043-.05.048-.055.091s-.05.048-.055.091-.05.049-.055.089L4.453,4.861,2.969,3.314,1.487,1.765,0,.218.088.206.174.194.261.182C.284.012.328.006.371,0Z" transform="translate(3.334 0.036)"/>
            <path id="Path_38748" data-name="Path 38748" class="cls-20" d="M.395,0,1.93,1.791,3.465,3.582,5,5.373,6.534,7.165c-.006.043-.05.048-.055.091s-.05.048-.055.091-.05.048-.055.091-.05.048-.055.091L4.736,5.744,3.157,3.958,1.578,2.173,0,.388l.1-.1.1-.1L.3.1C.3.055.345.048.395,0Z" transform="translate(1.373 0.803)"/>
            <path id="Path_38749" data-name="Path 38749" class="cls-20" d="M6.494.144,4.945,1.776,3.4,3.408,1.849,5.04.3,6.672.225,6.6C.188,6.562.144,6.569.15,6.526L.075,6.453,0,6.38l1.587-1.6,1.586-1.6,1.586-1.6L6.344,0c-.006.043.038.037.031.079s.038.037.031.079.038.036.031.079C6.456.107,6.45.15,6.494.144Z" transform="translate(2.816 3)"/>
            <path id="Path_38750" data-name="Path 38750" class="cls-20" d="M4.046.01a.355.355,0,0,1,.211.013c.086-.012.127.025.211.013S4.6.061,4.68.049a1.7,1.7,0,0,1,.211.013l-1.2,1.292-1.2,1.292-1.2,1.292L.08,5.23c.006-.043-.025-.121-.02-.164S.034,4.945.04,4.9.015,4.781.02,4.738-.005,4.617,0,4.574L1.012,3.433,2.023,2.292,3.035,1.151Z" transform="translate(0 0.02)"/>
            <path id="Path_38751" data-name="Path 38751" class="cls-20" d="M6.77.415,5.148,1.974,3.524,3.533,1.9,5.092.278,6.651C.24,6.614.247,6.572.209,6.535S.178,6.456.141,6.419.109,6.337.069,6.3.038,6.225,0,6.188L1.539,4.641,3.075,3.094,4.612,1.547,6.148,0c.038.037.118.067.156.1s.118.067.156.1.118.067.156.1C6.7.3,6.733.378,6.77.415Z" transform="translate(1.085 0.968)"/>
          </g>
        </g>
        <g id="Group_32739" data-name="Group 32739" transform="translate(5.121 0) rotate(3)">
          <path id="Path_38712" data-name="Path 38712" class="cls-26" d="M21.88,28.529c3.705-5.771,3.243-12.448,2.92-18.817-.254-5.087-5.087-9.46-10.929-9.7-2.1-.1-4.559.427-5.43,2.1A6.19,6.19,0,0,0,3.063,3.681C-4.059,10.05,2.943,22.431,6.9,28.526c-1.11-1.707,3.223-3.517,6.967-3.517S23.181,26.5,21.88,28.529Z" transform="translate(0 0)"/>
        </g>
      </g>
    </g>
  </g>
</svg>
