<svg xmlns="http://www.w3.org/2000/svg" viewBox="0 0 70 70">
  <defs>
    <style>
      .cls-1 {
        fill: #fff;
      }

      .cls-2 {
        fill: #cee8fa;
      }

      .cls-3 {
        fill: #2d527c;
      }
    </style>
  </defs>
  <g id="ico-2" transform="translate(-5003 -1724)">
    <circle id="Ellipse_198" data-name="Ellipse 198" class="cls-1" cx="35" cy="35" r="35" transform="translate(5003 1724)"/>
    <g id="telemarketer" transform="translate(4963.478 1735)">
      <path id="Path_10626" data-name="Path 10626" class="cls-2" d="M138.461,319.088v-1A13.6,13.6,0,0,0,124.9,304.524h0a13.6,13.6,0,0,0-13.562,13.562v1a3.511,3.511,0,0,0,3.511,3.512h20.1A3.512,3.512,0,0,0,138.461,319.088Z" transform="translate(-50.582 -275.975)"/>
      <g id="Group_9107" data-name="Group 9107" transform="translate(57.265)">
        <path id="Path_10627" data-name="Path 10627" class="cls-3" d="M121.652,310.677h-20.1a4.893,4.893,0,0,1-4.887-4.887v-1a14.938,14.938,0,0,1,29.876,0v1A4.893,4.893,0,0,1,121.652,310.677ZM111.6,292.6a12.2,12.2,0,0,0-12.187,12.187v1a2.138,2.138,0,0,0,2.136,2.136h20.1a2.138,2.138,0,0,0,2.136-2.136v-1A12.2,12.2,0,0,0,111.6,292.6Z" transform="translate(-94.549 -262.677)"/>
        <path id="Path_10628" data-name="Path 10628" class="cls-3" d="M108.222,17.052H105.47a14.3,14.3,0,1,0-28.6,0H74.119a17.051,17.051,0,1,1,34.1,0Z" transform="translate(-74.119)"/>
        <path id="Path_10629" data-name="Path 10629" class="cls-3" d="M139.135,80.381a12.089,12.089,0,1,1,12.089-12.089A12.1,12.1,0,0,1,139.135,80.381Zm0-21.427a9.338,9.338,0,1,0,9.338,9.338A9.349,9.349,0,0,0,139.135,58.953Z" transform="translate(-122.084 -50.933)"/>
      </g>
      <path id="Path_10630" data-name="Path 10630" class="cls-2" d="M76.829,141.829a1.909,1.909,0,0,0-.89-1.62,3.729,3.729,0,0,0-1.983-.57h0A3.772,3.772,0,0,0,70.2,143.4v2.523a3.772,3.772,0,0,0,3.761,3.761h0a3.729,3.729,0,0,0,1.983-.57,1.909,1.909,0,0,0,.89-1.62v-5.666Z" transform="translate(-13.297 -126.548)"/>
      <path id="Path_10631" data-name="Path 10631" class="cls-3" d="M60.659,137.763a5.143,5.143,0,0,1-5.137-5.137V130.1a5.131,5.131,0,0,1,7.849-4.358,3.264,3.264,0,0,1,1.536,2.786V134.2a3.265,3.265,0,0,1-1.537,2.786A5.111,5.111,0,0,1,60.659,137.763Zm0-10.045a2.388,2.388,0,0,0-2.385,2.385v2.523a2.388,2.388,0,0,0,2.385,2.385,2.36,2.36,0,0,0,1.253-.36.536.536,0,0,0,.244-.454v-5.666a.536.536,0,0,0-.244-.454A2.362,2.362,0,0,0,60.659,127.718Z" transform="translate(0 -113.251)"/>
      <path id="Path_10632" data-name="Path 10632" class="cls-2" d="M371.037,141.829a1.909,1.909,0,0,1,.89-1.62,3.729,3.729,0,0,1,1.983-.57h0a3.772,3.772,0,0,1,3.761,3.761v2.523a3.772,3.772,0,0,1-3.761,3.761h0a3.729,3.729,0,0,1-1.983-.57,1.909,1.909,0,0,1-.89-1.62v-5.666Z" transform="translate(-285.935 -126.548)"/>
      <g id="Group_9108" data-name="Group 9108" transform="translate(73.812 11.715)">
        <path id="Path_10633" data-name="Path 10633" class="cls-3" d="M360.613,137.761a5.108,5.108,0,0,1-2.713-.779,3.264,3.264,0,0,1-1.536-2.786V128.53a3.264,3.264,0,0,1,1.537-2.786,5.131,5.131,0,0,1,7.849,4.358v2.523A5.143,5.143,0,0,1,360.613,137.761Zm0-10.045a2.36,2.36,0,0,0-1.253.36.536.536,0,0,0-.244.454V134.2a.536.536,0,0,0,.244.454,2.361,2.361,0,0,0,1.254.36A2.388,2.388,0,0,0,363,132.625V130.1A2.388,2.388,0,0,0,360.613,127.716Z" transform="translate(-346.45 -124.965)"/>
        <path id="Path_10634" data-name="Path 10634" class="cls-3" d="M261.762,218.323h-9.767a1.376,1.376,0,0,1,0-2.751h9.767a1.376,1.376,0,0,1,0,2.751Z" transform="translate(-250.619 -207.078)"/>
      </g>
    </g>
  </g>
</svg>
