<svg xmlns="http://www.w3.org/2000/svg" viewBox="0 0 70 70">
  <defs>
    <style>
      .cls-1 {
        fill: #fff;
      }

      .cls-2 {
        fill: #cee8fa;
      }

      .cls-3 {
        fill: #2d527c;
      }
    </style>
  </defs>
  <g id="ico-3" transform="translate(-5352 -1724)">
    <circle id="Ellipse_200" data-name="Ellipse 200" class="cls-1" cx="35" cy="35" r="35" transform="translate(5352 1724)"/>
    <g id="conference" transform="translate(5346.682 1735)">
      <g id="Group_9105" data-name="Group 9105" transform="translate(19.702 39.696)">
        <path id="Path_10619" data-name="Path 10619" class="cls-2" d="M213.418,430.343h-9.827v-3.46a3.46,3.46,0,0,1,3.46-3.46h2.906a3.46,3.46,0,0,1,3.46,3.46v3.46Z" transform="translate(-187.606 -423.423)"/>
        <path id="Path_10620" data-name="Path 10620" class="cls-2" d="M42.906,430.343H33.079v-3.46a3.46,3.46,0,0,1,3.46-3.46h2.906a3.46,3.46,0,0,1,3.46,3.46v3.46Z" transform="translate(-33.079 -423.423)"/>
        <path id="Path_10621" data-name="Path 10621" class="cls-2" d="M383.929,430.343H374.1v-3.46a3.46,3.46,0,0,1,3.46-3.46h2.906a3.46,3.46,0,0,1,3.46,3.46v3.46Z" transform="translate(-342.132 -423.423)"/>
      </g>
      <g id="Group_9106" data-name="Group 9106" transform="translate(18.318 30.354)">
        <path id="Path_10622" data-name="Path 10622" class="cls-3" d="M28.7,332.518a5.328,5.328,0,1,0-8.177,0,4.843,4.843,0,0,0-2.209,4.061v3.46a1.384,1.384,0,0,0,1.384,1.384h9.827a1.384,1.384,0,0,0,1.384-1.384v-3.46A4.844,4.844,0,0,0,28.7,332.518Zm-4.089-5.973a2.56,2.56,0,1,1-2.56,2.56A2.563,2.563,0,0,1,24.615,326.545Zm3.529,12.11H21.086v-2.076a2.078,2.078,0,0,1,2.076-2.076h2.906a2.078,2.078,0,0,1,2.076,2.076v2.076Z" transform="translate(-18.318 -323.777)"/>
        <path id="Path_10623" data-name="Path 10623" class="cls-3" d="M369.729,332.518a5.328,5.328,0,1,0-8.177,0,4.843,4.843,0,0,0-2.209,4.061v3.46a1.384,1.384,0,0,0,1.384,1.384h9.827a1.384,1.384,0,0,0,1.384-1.384v-3.46A4.844,4.844,0,0,0,369.729,332.518Zm-4.089-5.973a2.56,2.56,0,1,1-2.56,2.56A2.563,2.563,0,0,1,365.64,326.545Zm3.529,12.11h-7.058v-2.076a2.078,2.078,0,0,1,2.076-2.076h2.906a2.078,2.078,0,0,1,2.076,2.076v2.076Z" transform="translate(-327.372 -323.777)"/>
      </g>
      <path id="Path_10624" data-name="Path 10624" class="cls-2" d="M186.291,117.893h3.872a4.567,4.567,0,0,1,4.567,4.567v6.75H180.59v-6.75a4.567,4.567,0,0,1,4.567-4.567h3.872" transform="translate(-147.059 -106.841)"/>
      <path id="Path_10625" data-name="Path 10625" class="cls-3" d="M114.875,20.985h-6.286V15.619a5.955,5.955,0,0,0-3.194-5.271,4.645,4.645,0,0,0,.782-2.584V4.673a1.384,1.384,0,0,0-2.768,0V7.764a1.907,1.907,0,0,1-1.889,1.9H98.75a1.907,1.907,0,0,1-1.889-1.9V4.673a1.907,1.907,0,0,1,1.9-1.9H101.5A1.384,1.384,0,1,0,101.5,0H98.766a4.678,4.678,0,0,0-4.673,4.673V7.764a4.645,4.645,0,0,0,.782,2.584,5.955,5.955,0,0,0-3.194,5.271v5.366H85.4a1.384,1.384,0,1,0,0,2.768h2.482l2.588,16.662a1.384,1.384,0,0,0,1.368,1.172H94.1a4.821,4.821,0,0,0-.262,1.569v3.46A1.384,1.384,0,0,0,95.222,48h9.827a1.384,1.384,0,0,0,1.384-1.384v-3.46a4.821,4.821,0,0,0-.262-1.569h2.267a1.384,1.384,0,0,0,1.368-1.172l2.588-16.662h2.482a1.384,1.384,0,1,0,0-2.768ZM94.449,15.619a3.186,3.186,0,0,1,3.183-3.183h1.119V17.4a1.384,1.384,0,0,0,2.768,0V12.437h1.119a3.186,3.186,0,0,1,3.183,3.183v5.366H94.449V15.619Zm5.686,22.624a2.56,2.56,0,1,1,2.56-2.56A2.563,2.563,0,0,1,100.135,38.243Zm3.529,6.989H96.606V43.156a2.078,2.078,0,0,1,2.076-2.076h2.906a2.078,2.078,0,0,1,2.076,2.076v2.076Zm3.588-6.413h-2.813a5.328,5.328,0,1,0-8.608,0H93.018l-2.34-15.066h18.913Z" transform="translate(-59.534 0)"/>
    </g>
  </g>
</svg>
