<svg xmlns="http://www.w3.org/2000/svg" viewBox="0 0 70 70">
  <defs>
    <style>
      .cls-1 {
        fill: #fff;
      }

      .cls-2 {
        fill: #cee8fa;
      }

      .cls-3 {
        fill: #2d527c;
      }
    </style>
  </defs>
  <g id="ico-1" transform="translate(-4603 -1724)">
    <circle id="Ellipse_1583" data-name="Ellipse 1583" class="cls-1" cx="35" cy="35" r="35" transform="translate(4603 1724)"/>
    <g id="medal" transform="translate(4515.413 1735)">
      <path id="Path_10615" data-name="Path 10615" class="cls-2" d="M172.586,27.61l-9.625,6.421-9.625-6.421V14.358h19.249Z" transform="translate(-40.555 -13.012)"/>
      <g id="Group_9104" data-name="Group 9104" transform="translate(108.587)">
        <path id="Path_10616" data-name="Path 10616" class="cls-3" d="M125.347,20.676l7.432-4.958a1.346,1.346,0,0,0,.6-1.12V1.346A1.346,1.346,0,0,0,132.032,0H112.782a1.346,1.346,0,0,0-1.346,1.346V14.6a1.346,1.346,0,0,0,.6,1.12l7.432,4.958a13.82,13.82,0,1,0,12.26,23.708,1.346,1.346,0,1,0-1.816-1.987,11.128,11.128,0,1,1,3.624-8.217,1.346,1.346,0,0,0,2.692,0A13.843,13.843,0,0,0,125.347,20.676ZM114.128,2.692h16.557V13.878L122.407,19.4l-8.279-5.522V2.692Z" transform="translate(-108.587)"/>
        <path id="Path_10617" data-name="Path 10617" class="cls-3" d="M175.324,292.256a8.355,8.355,0,0,1-8.346-8.346,1.346,1.346,0,0,1,2.692,0,5.654,5.654,0,1,0,5.654-5.654,1.346,1.346,0,0,1,0-2.692,8.346,8.346,0,1,1,0,16.692Z" transform="translate(-161.504 -249.73)"/>
        <path id="Path_10618" data-name="Path 10618" class="cls-3" d="M242.988,338.073a1.346,1.346,0,0,1-1.346-1.346v-3.881a1.346,1.346,0,0,1,2.692,0v3.881A1.346,1.346,0,0,1,242.988,338.073Z" transform="translate(-229.168 -300.422)"/>
      </g>
    </g>
  </g>
</svg>
