<svg xmlns="http://www.w3.org/2000/svg" xmlns:xlink="http://www.w3.org/1999/xlink" viewBox="0 0 36 36">
  <defs>
    <style>
      .cls-1, .cls-2, .cls-4 {
        fill: #0091dd;
      }

      .cls-1 {
        clip-rule: evenodd;
      }

      .cls-2 {
        stroke: #dde1ec;
        opacity: 0;
      }

      .cls-3 {
        clip-path: url(#clip-path);
      }

      .cls-5 {
        stroke: none;
      }

      .cls-6 {
        fill: none;
      }
    </style>
    <clipPath id="clip-path">
      <path id="Path_48597" data-name="Path 48597" class="cls-1" d="M35.831-32.567l-5.917-5.944a.572.572,0,0,0-.405-.169H2.872a.577.577,0,0,0-.574.58v21.537a.577.577,0,0,0,.574.58H29.508a.571.571,0,0,0,.405-.169L35.831-22.1A.583.583,0,0,0,36-22.507v-9.649a.583.583,0,0,0-.169-.411Zm-.98,9.819-5.58,5.605H3.447V-37.52H29.271l5.58,5.605v9.167ZM27.785-40.42A.577.577,0,0,0,27.21-41H.574A.577.577,0,0,0,0-40.42v21.537a.577.577,0,0,0,.574.58.577.577,0,0,0,.574-.58V-39.84H27.21a.577.577,0,0,0,.574-.58Zm-8.26,7.3a.577.577,0,0,0,.574-.58.577.577,0,0,0-.574-.58H14.035a.577.577,0,0,0-.574.58v12.738a.577.577,0,0,0,.574.58h5.489a.577.577,0,0,0,.574-.58.577.577,0,0,0-.574-.58H14.61v-5.209h3.268a.577.577,0,0,0,.574-.58.577.577,0,0,0-.574-.58H14.61V-33.12Zm-10.718,0a2.3,2.3,0,0,1,2.286,2.308.577.577,0,0,0,.574.58.577.577,0,0,0,.574-.58,3.455,3.455,0,0,0-3.435-3.468,3.455,3.455,0,0,0-3.435,3.468c0,2.5,1.994,3.443,3.186,4.007,1.381.654,2.525,1.328,2.525,2.957A2.3,2.3,0,0,1,8.8-21.542a2.3,2.3,0,0,1-2.286-2.308.577.577,0,0,0-.574-.58.577.577,0,0,0-.574.58A3.455,3.455,0,0,0,8.8-20.382a3.455,3.455,0,0,0,3.435-3.468c0-2.5-1.994-3.443-3.186-4.007-1.381-.654-2.525-1.328-2.525-2.957a2.3,2.3,0,0,1,2.286-2.308ZM23.9-34.281a3.455,3.455,0,0,0-3.435,3.467l-.011,6.965a3.455,3.455,0,0,0,3.435,3.468,3.455,3.455,0,0,0,3.435-3.468v-6.964A3.45,3.45,0,0,0,23.9-34.281Zm2.275,10.432a2.3,2.3,0,0,1-2.286,2.308A2.3,2.3,0,0,1,21.6-23.849l.011-6.965A2.3,2.3,0,0,1,23.9-33.122a2.294,2.294,0,0,1,2.275,2.308v6.964Zm5.042-1.742a1.734,1.734,0,0,0,1.723-1.74,1.734,1.734,0,0,0-1.723-1.74,1.734,1.734,0,0,0-1.723,1.74,1.733,1.733,0,0,0,1.723,1.739Zm0-2.32a.578.578,0,0,1,.574.58.578.578,0,0,1-.574.58.578.578,0,0,1-.574-.579.578.578,0,0,1,.574-.58Z" transform="translate(0 41)"/>
    </clipPath>
  </defs>
  <g id="Group_39676" data-name="Group 39676" transform="translate(-6012 -466)">
    <g id="Rectangle_9277" data-name="Rectangle 9277" class="cls-2" transform="translate(6012 466)">
      <rect class="cls-5" width="36" height="36"/>
      <rect class="cls-6" x="0.5" y="0.5" width="35" height="35"/>
    </g>
    <g id="Group_39666" data-name="Group 39666" transform="translate(6012 471.6)">
      <g id="Group_39665" data-name="Group 39665" class="cls-3" transform="translate(0 0)">
        <path id="Path_48596" data-name="Path 48596" class="cls-4" d="M-5-14.881H37.1V-46H-5Z" transform="translate(1.949 42.949)"/>
      </g>
    </g>
  </g>
</svg>
