<svg xmlns="http://www.w3.org/2000/svg" xmlns:xlink="http://www.w3.org/1999/xlink" viewBox="0 0 36 36">
  <defs>
    <style>
      .cls-1, .cls-2, .cls-3 {
        fill: #0091dd;
      }

      .cls-1 {
        clip-rule: evenodd;
      }

      .cls-3 {
        stroke: #dde1ec;
        opacity: 0;
      }

      .cls-4 {
        clip-path: url(#clip-path);
      }

      .cls-5 {
        clip-path: url(#clip-path-2);
      }

      .cls-6 {
        stroke: none;
      }

      .cls-7 {
        fill: none;
      }
    </style>
    <clipPath id="clip-path">
      <path id="Path_48600" data-name="Path 48600" class="cls-1" d="M35.626-48.433a1.4,1.4,0,0,0-1.026-.451H31.166v-9.542A.574.574,0,0,0,30.592-59H5.408a.574.574,0,0,0-.574.574v9.542H1.4a1.4,1.4,0,0,0-1.026.451,1.394,1.394,0,0,0-.374.95V-24.4A1.4,1.4,0,0,0,1.4-23H34.6A1.4,1.4,0,0,0,36-24.4V-47.483a1.393,1.393,0,0,0-.374-.95ZM5.408-46.018a.574.574,0,0,0,.574-.574V-57.851H30.017v11.259a.574.574,0,0,0,.574.574.574.574,0,0,0,.574-.574v-1.142h2.911L18.647-31.664a.891.891,0,0,1-.647.279.89.89,0,0,1-.647-.279L1.922-47.734H4.834v1.142a.574.574,0,0,0,.574.574ZM34.6-24.149H1.4a.255.255,0,0,1-.251-.251V-46.881l10.5,10.939L2.41-26.316a.574.574,0,0,0,.017.812.573.573,0,0,0,.4.16.572.572,0,0,0,.414-.177l9.21-9.592,4.075,4.244A2.03,2.03,0,0,0,18-30.235a2.03,2.03,0,0,0,1.475-.632l4.075-4.244,3.6,3.752a.573.573,0,0,0,.414.177.573.573,0,0,0,.4-.16.574.574,0,0,0,.017-.812l-3.635-3.785,10.5-10.939V-24.4a.255.255,0,0,1-.251.251Zm-4.789-6.1A.574.574,0,0,0,29-30.269a.574.574,0,0,0-.017.812l3.779,3.936a.573.573,0,0,0,.414.177.573.573,0,0,0,.4-.16.574.574,0,0,0,.017-.812L29.81-30.252ZM11.213-40H22.067A1.8,1.8,0,0,0,23.862-41.8a1.785,1.785,0,0,0-.28-.961,1.794,1.794,0,0,0,.78-1.479,1.784,1.784,0,0,0-.28-.961,1.794,1.794,0,0,0,.78-1.479,1.785,1.785,0,0,0-.28-.961,1.794,1.794,0,0,0,.78-1.479,1.8,1.8,0,0,0-1.795-1.795H20.308a9.507,9.507,0,0,0,.837-3.992A1.8,1.8,0,0,0,19.35-56.7a1.8,1.8,0,0,0-1.795,1.795,4,4,0,0,1-3.992,3.992h-2.35a.574.574,0,0,0-.574.574v9.763a.574.574,0,0,0,.574.574Zm7.491-14.9a.647.647,0,0,1,.646-.646.647.647,0,0,1,.646.646,7.872,7.872,0,0,1-1.142,4.253.575.575,0,0,0-.024.587.574.574,0,0,0,.505.3h4.231a.647.647,0,0,1,.646.646.647.647,0,0,1-.646.646h-1.5a.574.574,0,0,0-.574.574.574.574,0,0,0,.574.574h1a.647.647,0,0,1,.646.646.647.647,0,0,1-.646.646h-1a.574.574,0,0,0-.574.574.574.574,0,0,0,.574.574h.5a.647.647,0,0,1,.646.646.647.647,0,0,1-.646.646h-.5a.574.574,0,0,0-.574.574.574.574,0,0,0,.574.574.647.647,0,0,1,.646.646.646.646,0,0,1-.646.646H14.138V-49.8A5.147,5.147,0,0,0,18.7-54.907Zm-6.917,5.141h1.2v8.614h-1.2v-8.614Z" transform="translate(0 59)"/>
    </clipPath>
    <clipPath id="clip-path-2">
      <path id="Path_48599" data-name="Path 48599" class="cls-2" d="M-426,357.17H550.271V-253H-426Z" transform="translate(426 253)"/>
    </clipPath>
  </defs>
  <g id="Group_39675" data-name="Group 39675" transform="translate(-5433 -467)">
    <g id="Rectangle_9276" data-name="Rectangle 9276" class="cls-3" transform="translate(5433 467)">
      <rect class="cls-6" width="36" height="36"/>
      <rect class="cls-7" x="0.5" y="0.5" width="35" height="35"/>
    </g>
    <g id="Group_39669" data-name="Group 39669" transform="translate(5433 467)">
      <g id="Group_39668" data-name="Group 39668" class="cls-4" transform="translate(0 0)">
        <g id="Group_39667" data-name="Group 39667" class="cls-5" transform="translate(-259.932 -118.373)">
          <path id="Path_48598" data-name="Path 48598" class="cls-2" d="M-5-21.9H37.1V-64H-5Z" transform="translate(261.881 179.322)"/>
        </g>
      </g>
    </g>
  </g>
</svg>
