<svg xmlns="http://www.w3.org/2000/svg" xmlns:xlink="http://www.w3.org/1999/xlink" viewBox="0 0 36 36">
  <defs>
    <style>
      .cls-1, .cls-2, .cls-3 {
        fill: #0091dd;
      }

      .cls-1 {
        clip-rule: evenodd;
      }

      .cls-3 {
        stroke: #dde1ec;
        opacity: 0;
      }

      .cls-4 {
        clip-path: url(#clip-path);
      }

      .cls-5 {
        clip-path: url(#clip-path-2);
      }

      .cls-6 {
        stroke: none;
      }

      .cls-7 {
        fill: none;
      }
    </style>
    <clipPath id="clip-path">
      <path id="Path_48603" data-name="Path 48603" class="cls-1" d="M35.426-54H.574A.578.578,0,0,0,0-53.419v31.786a.578.578,0,0,0,.574.581H35.426A.578.578,0,0,0,36-21.632v-6.2a.578.578,0,0,0-.574-.581.578.578,0,0,0-.574.581v5.621H1.149V-48.185h33.7V-30.16a.578.578,0,0,0,.574.581A.578.578,0,0,0,36-30.16V-53.419A.578.578,0,0,0,35.426-54ZM1.149-52.837H22.4v3.489H1.149v-3.489Zm22.4,3.489v-3.489h11.3v3.489Zm5.668-2.365a.617.617,0,0,0-.613.62.617.617,0,0,0,.613.62.617.617,0,0,0,.613-.62.617.617,0,0,0-.613-.62Zm-3.14,0a.617.617,0,0,0-.613.62.617.617,0,0,0,.613.62.617.617,0,0,0,.613-.62.617.617,0,0,0-.613-.62Zm6.281,0a.617.617,0,0,0-.613.62.617.617,0,0,0,.613.62.617.617,0,0,0,.613-.62.617.617,0,0,0-.613-.62ZM24.348-40.007a.586.586,0,0,0-.116.814.57.57,0,0,0,.8.117,8.193,8.193,0,0,0,3.263-6.59.578.578,0,0,0-.574-.581H8.275a.578.578,0,0,0-.574.581,8.242,8.242,0,0,0,5.6,7.817,4.867,4.867,0,0,0,4.128,3.769v3.014H13.257a.578.578,0,0,0-.574.581v5.751a.578.578,0,0,0,.574.581h9.486a.578.578,0,0,0,.574-.581v-5.751a.578.578,0,0,0-.574-.581H18.574v-3.014a4.869,4.869,0,0,0,4.2-4.172l.933-6.833h3.419a7.022,7.022,0,0,1-2.779,5.077ZM22.169-25.315H13.831V-29.9h8.337v4.588ZM8.874-45.084h3.418l.808,5.919a7.085,7.085,0,0,1-4.226-5.919ZM21.638-38.41A3.7,3.7,0,0,1,18-35.206a3.7,3.7,0,0,1-3.638-3.2l-.911-6.674h1.16l.253,1.855a.577.577,0,0,0,.568.5.574.574,0,0,0,.079-.006.58.58,0,0,0,.49-.656l-.231-1.7h6.777l-.911,6.674Zm-5.968-3.171a.58.58,0,0,0-.49.656L15.5-38.57a2.542,2.542,0,0,0,2.5,2.2.578.578,0,0,0,.574-.581A.578.578,0,0,0,18-37.532a1.384,1.384,0,0,1-1.361-1.2l-.322-2.357a.576.576,0,0,0-.648-.5Zm-.178,13.941a.578.578,0,0,0,.574.581h3.868a.578.578,0,0,0,.574-.581.578.578,0,0,0-.574-.581H16.066a.578.578,0,0,0-.574.581Z" transform="translate(0 54)"/>
    </clipPath>
    <clipPath id="clip-path-2">
      <path id="Path_48602" data-name="Path 48602" class="cls-2" d="M-709,221.169H267.271V-389H-709Z" transform="translate(709 389)"/>
    </clipPath>
  </defs>
  <g id="Group_39673" data-name="Group 39673" transform="translate(-5433 -287)">
    <g id="Rectangle_9275" data-name="Rectangle 9275" class="cls-3" transform="translate(5433 287)">
      <rect class="cls-6" width="36" height="36"/>
      <rect class="cls-7" x="0.5" y="0.5" width="35" height="35"/>
    </g>
    <g id="Group_39672" data-name="Group 39672" transform="translate(5433 288.6)">
      <g id="Group_39671" data-name="Group 39671" class="cls-4">
        <g id="Group_39670" data-name="Group 39670" class="cls-5" transform="translate(-432.61 -204.407)">
          <path id="Path_48601" data-name="Path 48601" class="cls-2" d="M-5-19.949H37.1V-59H-5Z" transform="translate(434.559 260.356)"/>
        </g>
      </g>
    </g>
  </g>
</svg>
