<svg xmlns="http://www.w3.org/2000/svg" xmlns:xlink="http://www.w3.org/1999/xlink" viewBox="0 0 36 36">
  <defs>
    <style>
      .cls-1, .cls-2, .cls-4 {
        fill: #0091dd;
      }

      .cls-1 {
        clip-rule: evenodd;
      }

      .cls-2 {
        stroke: #dde1ec;
        opacity: 0;
      }

      .cls-3 {
        clip-path: url(#clip-path);
      }

      .cls-5 {
        stroke: none;
      }

      .cls-6 {
        fill: none;
      }
    </style>
    <clipPath id="clip-path">
      <path id="Path_48595" data-name="Path 48595" class="cls-1" d="M8.922-41.329h.517v4.254a2.326,2.326,0,0,0,2.321,2.325h2.053a.575.575,0,0,0,.574-.576V-39.6a.575.575,0,0,0-.574-.576.575.575,0,0,0-.574.576v3.7H11.759a1.174,1.174,0,0,1-1.172-1.174v-4.254h5.446l12.1,3.459a.573.573,0,0,0,.158.022.574.574,0,0,0,.346-.116.576.576,0,0,0,.228-.459V-51.355a.576.576,0,0,0-.228-.459.573.573,0,0,0-.5-.094l-12.1,3.459H8.922A1.79,1.79,0,0,0,7.136-46.66v3.542a1.79,1.79,0,0,0,1.786,1.79Zm18.793,2.142L16.689-42.339v-5.1l11.026-3.152v11.406ZM34.633-55H1.367A1.369,1.369,0,0,0,0-53.631v25.265A1.369,1.369,0,0,0,1.367-27H13.913v4.4H8.5a.575.575,0,0,0-.574.576.575.575,0,0,0,.574.576H27.5a.575.575,0,0,0,.574-.576.575.575,0,0,0-.574-.576H22.087V-27H34.633A1.369,1.369,0,0,0,36-28.365V-53.631A1.369,1.369,0,0,0,34.633-55Zm-13.7,32.408H15.062V-27h5.875v4.4ZM8.285-46.66a.638.638,0,0,1,.637-.638H15.54v4.818H8.922a.638.638,0,0,1-.637-.638V-46.66ZM34.851-28.365a.221.221,0,0,1-.218.218H1.367a.221.221,0,0,1-.218-.218V-53.631a.221.221,0,0,1,.218-.218H34.633a.221.221,0,0,1,.218.218v25.265Zm-1.8-4.465H2.951a.575.575,0,0,0-.574.576.575.575,0,0,0,.574.576h30.1a.575.575,0,0,0,.574-.576.575.575,0,0,0-.574-.576Z" transform="translate(0 55)"/>
    </clipPath>
  </defs>
  <g id="Group_39674" data-name="Group 39674" transform="translate(-6012 -282)">
    <g id="Rectangle_9278" data-name="Rectangle 9278" class="cls-2" transform="translate(6012 282)">
      <rect class="cls-5" width="36" height="36"/>
      <rect class="cls-6" x="0.5" y="0.5" width="35" height="35"/>
    </g>
    <g id="Group_39664" data-name="Group 39664" transform="translate(6012 283.2)">
      <g id="Group_39663" data-name="Group 39663" class="cls-3" transform="translate(0 0)">
        <path id="Path_48594" data-name="Path 48594" class="cls-4" d="M-5-20.339H37.1V-60H-5Z" transform="translate(1.949 56.949)"/>
      </g>
    </g>
  </g>
</svg>
