<svg xmlns="http://www.w3.org/2000/svg" viewBox="0 0 85 32.004">
  <defs>
    <style>
      .cls-1 {
        fill: #65ac5b;
      }

      .cls-2 {
        fill: #d75a4a;
      }

      .cls-3 {
        fill: #c03b2b;
      }

      .cls-4 {
        fill: #ffd923;
      }

      .cls-5 {
        fill: #fff;
      }
    </style>
  </defs>
  <g id="goodtime" transform="translate(-11035 -3815)">
    <rect id="Rectangle_2344" data-name="Rectangle 2344" class="cls-1" width="85" height="32.004" rx="4" transform="translate(11035 3815)"/>
    <g id="Group_7380" data-name="Group 7380" transform="translate(11042.574 3818.786)">
      <g id="Group_7379" data-name="Group 7379" transform="translate(3.097 0)">
        <path id="Path_9615" data-name="Path 9615" class="cls-2" d="M13.931,0H5.5V18.392c0,.17.315.255.5.135l7.932-5.18,7.932,5.18c.184.12.5.035.5-.135V0Z" transform="translate(-5.5)"/>
        <rect id="Rectangle_2345" data-name="Rectangle 2345" class="cls-3" width="16.862" height="3.785"/>
      </g>
      <g id="Group_7378" data-name="Group 7378" transform="translate(0 5.162)">
        <path id="Path_9616" data-name="Path 9616" class="cls-4" d="M36.856,33l3.509,6.853,7.847,1.1-5.678,5.335,1.34,7.533-7.018-3.556-7.018,3.556,1.34-7.533L25.5,40.952l7.847-1.1Z" transform="translate(-25.5 -33)"/>
      </g>
    </g>
    <path id="Path_9617" data-name="Path 9617" class="cls-5" d="M-53.965-46.343h13.215v2.4h2.023V-48.16h-7.062a13.255,13.255,0,0,0-1.177-2.54l-1.9.454a18.987,18.987,0,0,1,.95,2.085h-7.991v4.212h1.941Zm.021,7.392a19.3,19.3,0,0,1,3.221,4.315l1.631-1.094a17.919,17.919,0,0,0-3.345-4.192Zm15.754-3.655h-5.162v-2.726h-1.962v2.726H-56.34v1.879h11.026v6.587c0,.372-.145.475-.537.5-.434,0-1.9,0-3.324-.041a8.351,8.351,0,0,1,.681,1.941,13.045,13.045,0,0,0,4.047-.351c.826-.289,1.094-.826,1.094-2v-6.628h5.162Zm10.9,3.944a27.138,27.138,0,0,0-1.363-4.274l-1.549.392c.206.537.434,1.156.619,1.755l-3.18.434a44.984,44.984,0,0,0,4.811-6.029l-1.631-1.053a29.513,29.513,0,0,1-1.631,2.54l-2.209.186a33.642,33.642,0,0,0,3.407-5.141l-1.755-.764A24.739,24.739,0,0,1-34.8-45.538c-.475.6-.867,1.012-1.28,1.074a15.026,15.026,0,0,1,.619,1.734,10.513,10.513,0,0,1,3.035-.537,24.677,24.677,0,0,1-1.838,2.127A3.969,3.969,0,0,1-36-39.839a18.739,18.739,0,0,1,.619,1.776c.454-.227,1.2-.413,6.236-1.218.1.413.186.785.248,1.094Zm-7.5,1.383a20.764,20.764,0,0,1-1.321,4.708,11.914,11.914,0,0,1,1.652.557,26.6,26.6,0,0,0,1.363-4.935Zm2.519.227a44.145,44.145,0,0,1,.578,4.584l1.611-.434a40.17,40.17,0,0,0-.681-4.522Zm2.478-.372A33.542,33.542,0,0,1-28.548-33.5l1.487-.557a27.465,27.465,0,0,0-1.321-3.84Zm8.528-.723a19.758,19.758,0,0,0-3.634-4.336l-1.342.97a19.909,19.909,0,0,1,3.551,4.481Zm-3.18-8.693c.372-1.074.723-2.209,1.012-3.345l-1.9-.372a18.388,18.388,0,0,1-3.159,7.309c.475.268,1.3.826,1.672,1.094a17.548,17.548,0,0,0,1.611-2.87h5.451c-.206,7.5-.5,10.489-1.074,11.129a.906.906,0,0,1-.826.33c-.516,0-1.672,0-2.932-.1a5,5,0,0,1,.619,1.9,19.412,19.412,0,0,0,3.118,0,2.287,2.287,0,0,0,1.776-.991c.785-.991,1.032-4.109,1.28-13.111,0-.268.021-.97.021-.97Z" transform="translate(11129.071 3873.031)"/>
  </g>
</svg>
