<svg xmlns="http://www.w3.org/2000/svg" xmlns:xlink="http://www.w3.org/1999/xlink" viewBox="0 0 141 168">
  <defs>
    <style>
      .cls-1 {
        fill: #fbfbfb;
        stroke: rgba(0,0,0,0.12);
      }

      .cls-2 {
        fill: #dbdbdb;
      }

      .cls-3 {
        clip-path: url(#clip-path);
      }

      .cls-4 {
        fill: #fff;
      }

      .cls-5 {
        fill: rgba(0,0,0,0.38);
      }
    </style>
    <clipPath id="clip-path">
      <rect id="Rectangle_3979" data-name="Rectangle 3979" class="cls-1" width="141" height="168" rx="2" transform="translate(143 601)"/>
    </clipPath>
  </defs>
  <g id="people" transform="translate(-785 -10195)">
    <rect id="Rectangle_3982" data-name="Rectangle 3982" class="cls-2" width="141" height="168" rx="2" transform="translate(785 10195)"/>
    <g id="Mask_Group_199" data-name="Mask Group 199" class="cls-3" transform="translate(642 9594)">
      <g id="boy_2_" data-name="boy (2)" transform="translate(129.5 600.999)">
        <g id="Group_10082" data-name="Group 10082">
          <rect id="Rectangle_3978" data-name="Rectangle 3978" class="cls-4" width="24.879" height="27.864" transform="translate(71.56 125.458)"/>
          <path id="Path_11537" data-name="Path 11537" class="cls-4" d="M71.561,128.739A41.742,41.742,0,0,0,96.44,133.86v-8.4H71.561Z"/>
          <ellipse id="Ellipse_538" data-name="Ellipse 538" class="cls-4" cx="12.139" cy="13.85" rx="12.139" ry="13.85" transform="translate(23.547 68.401)"/>
          <ellipse id="Ellipse_539" data-name="Ellipse 539" class="cls-4" cx="12.139" cy="13.85" rx="12.139" ry="13.85" transform="translate(120.175 68.401)"/>
          <path id="Path_11538" data-name="Path 11538" class="cls-4" d="M132.265,55.8c0-20.4-14.927-35.328-48.265-35.328S35.735,35.4,35.735,55.8,32.253,129.936,84,129.936,132.265,76.2,132.265,55.8Z"/>
          <g id="Group_10081" data-name="Group 10081">
            <g id="Group_10079" data-name="Group 10079">
              <ellipse id="Ellipse_540" data-name="Ellipse 540" class="cls-4" cx="5.225" cy="5.722" rx="5.225" ry="5.722" transform="translate(55.267 73.212)"/>
              <circle id="Ellipse_541" data-name="Ellipse 541" class="cls-4" cx="1.562" cy="1.562" r="1.562" transform="translate(56.652 74.845)"/>
            </g>
            <path id="Path_11539" data-name="Path 11539" class="cls-4" d="M52.134,64.753c2.471,1.236,6.437-4.2,15.518.529,1.655.862,2.643-7.37-7.09-7.37C52.134,57.912,50.641,64.007,52.134,64.753Z"/>
            <g id="Group_10080" data-name="Group 10080">
              <ellipse id="Ellipse_542" data-name="Ellipse 542" class="cls-4" cx="5.225" cy="5.722" rx="5.225" ry="5.722" transform="translate(102.929 73.212)"/>
              <circle id="Ellipse_543" data-name="Ellipse 543" class="cls-4" cx="1.562" cy="1.562" r="1.562" transform="translate(104.314 74.845)"/>
            </g>
            <path id="Path_11540" data-name="Path 11540" class="cls-4" d="M115.867,64.753c-2.471,1.236-6.437-4.2-15.518.529-1.655.862-2.643-7.37,7.091-7.37C115.867,57.912,117.359,64.007,115.867,64.753Z"/>
          </g>
          <path id="Path_11541" data-name="Path 11541" class="cls-4" d="M84,99.061c-5.163,0-8.272-3.856-8.272-1.991s1.493,5.412,8.272,5.412,8.272-3.545,8.272-5.412S89.162,99.061,84,99.061Z"/>
          <path id="Path_11542" data-name="Path 11542" class="cls-4" d="M84,116.217c-1.786,0-2.862-1.334-2.862-.688S81.655,117.4,84,117.4s2.861-1.226,2.861-1.871S85.785,116.217,84,116.217Z"/>
          <path id="Path_11543" data-name="Path 11543" class="cls-4" d="M84,111.463c-8.183,0-13.113-3.332-13.113-2.487s2.366,4.168,13.113,4.168,13.113-3.323,13.113-4.168S92.183,111.463,84,111.463Z"/>
        </g>
        <path id="Path_11544" data-name="Path 11544" class="cls-4" d="M84,136.653V168H23.547C23.547,155.312,55.39,136.653,84,136.653Z"/>
        <path id="Path_11545" data-name="Path 11545" class="cls-4" d="M84,136.653V168h60.454C144.454,155.312,112.611,136.653,84,136.653Z"/>
        <path id="Path_11546" data-name="Path 11546" class="cls-4" d="M84,136.653a79.18,79.18,0,0,0-18.357,2.3A24.589,24.589,0,0,0,84,147.6c10.795,0,17.971-7.357,19.011-8.489A79.582,79.582,0,0,0,84,136.653Z"/>
        <path id="Path_11547" data-name="Path 11547" class="cls-4" d="M71.56,137.738S75.2,142.251,84,142.251s12.44-4.513,12.44-4.513S83.534,133.04,71.56,137.738Z"/>
        <path id="Path_11548" data-name="Path 11548" class="cls-4" d="M123.681,16.116S105.769-6.648,68.539,1.935,28.52,32.908,29.64,54.693s4.1,34.566,7.636,32.986S38.969,71.72,39.343,68.4s3.732-18.326,26.375-16.087a93.666,93.666,0,0,0,41.723-5.971s7.681,9.709,12.735,11.569c10.1,3.716,6.788,28.5,10.745,28.5S154.283,29.177,123.681,16.116Z"/>
      </g>
    </g>
    <path id="Path_11570" data-name="Path 11570" class="cls-5" d="M-52.509-24.329l-.226.062H-57.65V-6.355h1.357V-22.868h2.982c-.411,1.357-1.028,3.126-1.625,4.606a6.145,6.145,0,0,1,1.851,4.175,1.836,1.836,0,0,1-.432,1.419,1.226,1.226,0,0,1-.638.185,5.912,5.912,0,0,1-1.193-.021,3.4,3.4,0,0,1,.391,1.357,7.376,7.376,0,0,0,1.357-.041,2.108,2.108,0,0,0,1.09-.391,2.885,2.885,0,0,0,.8-2.365,6.6,6.6,0,0,0-1.851-4.483c.7-1.625,1.44-3.64,2.056-5.306Zm3.5,5.223h6.025v2.55h-6.025Zm6.025-3.743v2.468h-6.025v-2.468Zm1.707,8.288a35.278,35.278,0,0,1-3.208,2.427A14.176,14.176,0,0,1-45.7-15.218h4.2v-8.987h-8.987v15.2a1.515,1.515,0,0,1-.761,1.44,4.665,4.665,0,0,1,.679,1.254c.411-.267,1.028-.473,5.265-1.625a9.477,9.477,0,0,1-.082-1.4l-3.619.884v-6.766h1.974C-46.01-11.147-44.1-8-40.89-6.478a7.223,7.223,0,0,1,1.049-1.3,8.93,8.93,0,0,1-3.969-3.27,31.024,31.024,0,0,0,3.537-2.447Zm9.069-7.773h3.846v-1.5h-9.213v1.5h3.825v5.285h-4.38v1.5h4.38v9.172h1.542v-9.172h4.442v-1.5h-4.442Zm7.362-.35h-1.522v11.352h1.522Zm2.961-2.036V-8.411c0,.391-.165.514-.555.535-.432,0-1.769.021-3.249-.041a6.433,6.433,0,0,1,.576,1.583,12.122,12.122,0,0,0,3.8-.288c.679-.247.967-.72.967-1.789V-24.719Zm16.8,13.552a18.79,18.79,0,0,1-1.5,3.023h-4.75l1.275-.432a10.807,10.807,0,0,0-1.254-2.55l-1.378.432a10.569,10.569,0,0,1,1.152,2.55h-5.635v1.337H.815V-8.144h-5.84c.432-.781.946-1.748,1.378-2.632Zm.987-1.4h-8.534v-2.571H-4.1Zm1.6-3.846h-11.64v5.121H-2.5ZM-.46-22.5A25.573,25.573,0,0,1-3.318-20.01,16.293,16.293,0,0,1-4.7-21.573,29.533,29.533,0,0,0-1.57-24.1l-1.172-.823A26.051,26.051,0,0,1-5.4-22.5a15.652,15.652,0,0,1-1.419-2.55l-1.337.411a18.889,18.889,0,0,0,3.414,5.244h-6.786a14.215,14.215,0,0,0,2.8-4.483l-1.008-.514-.288.062h-6.313v1.3h5.594A14.241,14.241,0,0,1-12.8-20.154a13.285,13.285,0,0,0-2.694-2.056l-.823.864A13.5,13.5,0,0,1-13.7-19.27a14.574,14.574,0,0,1-4.154,2.715,6.264,6.264,0,0,1,.946,1.152,17.784,17.784,0,0,0,5.059-3.64v.967H-4.49v-1.049A15.815,15.815,0,0,0,.384-15.589a6.289,6.289,0,0,1,1.049-1.254,14.044,14.044,0,0,1-3.866-2.386A29.6,29.6,0,0,0,.692-21.717Zm13.573,8v-5.45h5.9v5.45Zm-7.465,0v-5.45H11.53v5.45Zm7.465-6.951V-25.11H11.53v3.661H4.147v9.727h1.5V-13H11.53v6.663h1.583V-13h5.9v1.172h1.563v-9.624Zm-58.1,41.657v1.4H-53.5v-1.4ZM-53.5,24.094V22.7h8.514v1.4ZM-55,25.863h1.5v-.679h8.514V25.8h1.542V19.118H-55Zm8.617-8.843a22.533,22.533,0,0,0,1.4-2.427l-1.3-.411a17.641,17.641,0,0,1-1.131,2.468Zm-7.259-2.406a8.764,8.764,0,0,1,1.152,2.406l1.172-.432a8.267,8.267,0,0,0-1.234-2.324Zm-1.234-.576h4.853V17.1h-4.853ZM-43.831,17.1h-4.894V14.038h4.894ZM-56.19,18.151h13.737V12.969H-56.19Zm4.3-7.3a15.472,15.472,0,0,0,2.653-2.056,17.408,17.408,0,0,0,2.715,2.056Zm2.447-3.8c-1.933,2.488-5.573,4.3-9.3,5.285a10.01,10.01,0,0,1,.864,1.172,28.337,28.337,0,0,0,5.038-2.1v.555h7.115v-.638a24.5,24.5,0,0,0,5.038,2.056,5.993,5.993,0,0,1,.967-1.172c-3.208-.761-6.766-2.406-8.678-4.277a4.747,4.747,0,0,1,.288-.391Zm25.6,4.236h-9.727V9.144h9.727Zm1.583-3.373H-35.091v4.606h12.832ZM-34.433,19.879h11.413v1.481H-34.433Zm0-2.529h11.413v1.44H-34.433Zm0-2.529h11.413v1.44H-34.433Zm12.976,7.671v-8.8h-14.5v8.8h3.825a22.531,22.531,0,0,1-6.046,2.283A11.729,11.729,0,0,1-37.044,25.9a26.1,26.1,0,0,0,6.4-2.529l-1.357-.884Zm-5.635,1.028a53.978,53.978,0,0,1,6.457,2.406l1.316-1.11c-1.6-.658-4.339-1.666-6.457-2.283Zm16.8-13.943h2.715V8.4H-10.29V7.129h-1.254v3.7h1.254Zm1.09,4.319h-1.81V12.126H-9.2Zm.987-2.694h-3.763V14.82h3.763Zm-6.478-.391h1.254V7.129H-14.69V8.4h-2.941V9.576h2.941Zm-1.152,1.316h1.748v1.789h-1.748Zm-.967,2.715h3.722V11.2h-3.722Zm10.92.987H-.974v2.036H-5.889Zm0-3.29H-.974v2.036H-5.889Zm0-3.27H-.974v1.995H-5.889Zm-8.843,13h2.571V23.7h-2.571Zm2.571-3.393h-2.571V17.637h2.571Zm0,2.324h-2.571V19.92h2.571ZM-1.2,24.4c-.288,0-.329-.062-.329-.494V19.241H.4V7.869H-7.2V19.241H-5.4c-.226,2.283-.823,4.113-2.694,5.244V23.7h-2.858v-1.44h2.591V21.195h-2.591V19.92h2.509V18.871h-2.509V17.637h2.9v-1.11h-2.673A7.682,7.682,0,0,0-11.606,15l-.987.432a7.084,7.084,0,0,1,.617,1.09h-2.468c.185-.432.37-.823.535-1.254l-1.069-.329a12.738,12.738,0,0,1-2.756,4.36,7.247,7.247,0,0,1,.72,1.028,15.081,15.081,0,0,0,1.11-1.357V25.9h1.172v-1.09H-8.6a4.4,4.4,0,0,1,.884,1.131c2.591-1.378,3.373-3.722,3.661-6.7h1.275v4.668c0,1.378.267,1.789,1.419,1.789h1.09c1.049,0,1.378-.658,1.481-3.537a3.6,3.6,0,0,1-1.172-.535c-.041,2.488-.1,2.776-.452,2.776ZM17.864,18.83H8.938V17.411h8.925ZM8.938,23.909V22.388h8.925v1.522Zm8.925-2.591H8.938v-1.44h8.925Zm3.517-6.54V13.5H10.6c.247-.494.473-1.008.679-1.5h8.9V10.769H11.715c.165-.514.329-1.008.473-1.522a56.146,56.146,0,0,0,7.794-.864l-.967-1.11A94.021,94.021,0,0,1,4.579,8.3a3.955,3.955,0,0,1,.308,1.172c1.769,0,3.7-.041,5.614-.144-.123.494-.267.967-.432,1.44h-5.2V12h4.75a16.1,16.1,0,0,1-.679,1.5H3.365v1.275H8.219a15.073,15.073,0,0,1-5.347,5.388,6.56,6.56,0,0,1,.946,1.172,16.4,16.4,0,0,0,3.661-3.023v7.63h1.46v-.8h8.925v.8h1.5V16.2H9.124c.308-.452.576-.946.843-1.419Z" transform="translate(874.03 10253.055)"/>
  </g>
</svg>
