<svg xmlns="http://www.w3.org/2000/svg" xmlns:xlink="http://www.w3.org/1999/xlink" viewBox="0 0 1733.537 91.782">
  <defs>
    <style>
      .cls-1 {
        fill: url(#linear-gradient);
      }
    </style>
    <linearGradient id="linear-gradient" x1="0.014" y1="0.5" x2="1" y2="0.5" gradientUnits="objectBoundingBox">
      <stop offset="0" stop-color="#32c5d2"/>
      <stop offset="0.493" stop-color="#94f4fc"/>
      <stop offset="1" stop-color="#32c5d2"/>
    </linearGradient>
  </defs>
  <path id="arrow-1" class="cls-1" d="M-386.706,90.543l-50.2-40.3a5.582,5.582,0,0,1,0-8.709l50.2-40.3a5.584,5.584,0,0,1,9.08,4.356v8.6a5.585,5.585,0,0,0,5.584,5.585h156.5a5.594,5.594,0,0,1,1.624.239H7.457a4.606,4.606,0,0,1,1.514-.254h8.1a4.6,4.6,0,0,1,1.512.254H42.092a4.606,4.606,0,0,1,1.514-.254h8.1a4.6,4.6,0,0,1,1.513.254H76.729a4.606,4.606,0,0,1,1.514-.254h8.1a4.6,4.6,0,0,1,1.513.254H964.679a4.606,4.606,0,0,1,1.513-.254h8.1a4.611,4.611,0,0,1,1.514.254h23.507a4.608,4.608,0,0,1,1.513-.254h8.1a4.611,4.611,0,0,1,1.514.254h23.507a4.6,4.6,0,0,1,1.512-.254h8.1a4.612,4.612,0,0,1,1.514.254h24.369a5.6,5.6,0,0,1,1.631-.241h156.5a5.584,5.584,0,0,0,5.584-5.585v-8.6a5.585,5.585,0,0,1,9.08-4.354l50.2,40.3a5.582,5.582,0,0,1,0,8.709l-50.2,40.3a5.584,5.584,0,0,1-9.08-4.356v-8.6A5.585,5.585,0,0,0,1227.578,72H1082.536v.02h-1310V72H-372.042a5.584,5.584,0,0,0-5.584,5.585v8.6a5.587,5.587,0,0,1-5.612,5.594A5.5,5.5,0,0,1-386.706,90.543Z" transform="translate(439 0)"/>
</svg>
