<svg xmlns="http://www.w3.org/2000/svg" xmlns:xlink="http://www.w3.org/1999/xlink" viewBox="0 0 160 160">
  <defs>
    <style>
      .cls-1 {
        fill: #d1fcfc;
      }

      .cls-18, .cls-2 {
        fill: #fff;
      }

      .cls-2 {
        opacity: 0;
      }

      .cls-3 {
        clip-path: url(#clip-path);
      }

      .cls-4 {
        fill: #c0ebef;
      }

      .cls-5 {
        fill: #f5f5f5;
      }

      .cls-6 {
        fill: #fcfcfc;
      }

      .cls-7 {
        fill: #27959f;
      }

      .cls-8 {
        fill: #ff51a8;
      }

      .cls-9 {
        fill: #ffe771;
      }

      .cls-10 {
        fill: #32c5d2;
      }

      .cls-11 {
        fill: #e548a1;
      }

      .cls-12 {
        fill: #ffc76b;
      }

      .cls-13 {
        fill: #ffbd50;
      }

      .cls-14 {
        fill: #fe9245;
      }

      .cls-15 {
        fill: #fbe9e7;
      }

      .cls-16 {
        fill: #091324;
      }

      .cls-17 {
        fill: #054c53;
      }

      .cls-19 {
        fill: #ececec;
      }

      .cls-20 {
        fill: #ffd3ce;
      }

      .cls-21 {
        fill: #5d5d5d;
      }

      .cls-22, .cls-23 {
        fill: none;
        stroke: #112b17;
        stroke-miterlimit: 10;
      }

      .cls-22 {
        stroke-width: 1.184px;
      }

      .cls-23 {
        stroke-width: 0.592px;
      }

      .cls-24, .cls-25 {
        stroke: none;
      }

      .cls-25 {
        fill: #707070;
      }
    </style>
    <clipPath id="clip-path">
      <path id="Path_47200" data-name="Path 47200" class="cls-1" d="M28,0H132a28,28,0,0,1,28,28V132a28,28,0,0,1-28,28H28A28,28,0,0,1,0,132V28A28,28,0,0,1,28,0Z" transform="translate(2032 1658)"/>
    </clipPath>
  </defs>
  <g id="box-2" transform="translate(-2192 -1658)">
    <g id="Path_47201" data-name="Path 47201" class="cls-2" transform="translate(2192 1658)">
      <path class="cls-24" d="M 159.5 159.5 L 0.5 159.5 L 0.5 0.5 L 159.5 0.5 L 159.5 159.5 Z"/>
      <path class="cls-25" d="M 1 1 L 1 159 L 159 159 L 159 1 L 1 1 M 0 0 L 160 0 L 160 160 L 0 160 L 0 0 Z"/>
    </g>
    <g id="Mask_Group_160" data-name="Mask Group 160" class="cls-3" transform="translate(160)">
      <rect id="Rectangle_9235" data-name="Rectangle 9235" class="cls-4" width="232" height="60" transform="translate(2074 1639.863) rotate(45)"/>
      <rect id="Rectangle_9236" data-name="Rectangle 9236" class="cls-4" width="232" height="60" transform="translate(2021 1682.863) rotate(45)"/>
    </g>
    <g id="Group_37707" data-name="Group 37707" transform="translate(-537.714 -4.857)">
      <g id="degree" transform="translate(2789 1673.857)">
        <path id="Path_46795" data-name="Path 46795" class="cls-5" d="M152.905,0h58.75a2.909,2.909,0,0,1,2.937,2.937V14.883a3.208,3.208,0,0,1-.294,1.292l-29.375,58.75a3.007,3.007,0,0,1-2.644,1.645H152.905a2.909,2.909,0,0,1-2.937-2.937V2.937A2.909,2.909,0,0,1,152.905,0Zm0,0" transform="translate(-149.968)"/>
        <path id="Path_46796" data-name="Path 46796" class="cls-6" d="M329.929,2.938v70.7a2.909,2.909,0,0,0,2.937,2.937H359.3V0H332.866a2.909,2.909,0,0,0-2.937,2.937Zm0,0" transform="translate(-329.929 0)"/>
        <path id="Path_46797" data-name="Path 46797" class="cls-7" d="M299.937,63.926a2.909,2.909,0,0,0,2.938,2.937H320.5a2.937,2.937,0,0,0,0-5.875H302.876A2.909,2.909,0,0,0,299.937,63.926Zm0,0" transform="translate(-288.188 -49.042)"/>
        <g id="Group_37667" data-name="Group 37667" transform="translate(11.749 11.946)">
          <path id="Path_46798" data-name="Path 46798" class="cls-7" d="M302.876,126.852H320.5a2.937,2.937,0,1,0,0-5.875H302.876a2.937,2.937,0,1,0,0,5.875Zm0,0" transform="translate(-299.937 -109.227)"/>
          <path id="Path_46799" data-name="Path 46799" class="cls-7" d="M302.876,186.836H320.5a2.938,2.938,0,0,0,0-5.875H302.876a2.938,2.938,0,1,0,0,5.875Zm0,0" transform="translate(-299.937 -157.461)"/>
          <path id="Path_46800" data-name="Path 46800" class="cls-7" d="M302.876,246.824H320.5a2.938,2.938,0,0,0,0-5.875H302.876a2.938,2.938,0,1,0,0,5.875Zm0,0" transform="translate(-299.937 -205.699)"/>
          <path id="Path_46801" data-name="Path 46801" class="cls-7" d="M302.876,306.813H320.5a2.937,2.937,0,1,0,0-5.875H302.876a2.937,2.937,0,1,0,0,5.875Zm0,0" transform="translate(-299.937 -253.938)"/>
          <path id="Path_46802" data-name="Path 46802" class="cls-7" d="M329.93,63.926a2.909,2.909,0,0,0,2.938,2.937h14.688V60.988H332.868A2.909,2.909,0,0,0,329.93,63.926Zm0,0" transform="translate(-329.93 -60.988)"/>
        </g>
        <path id="Path_46803" data-name="Path 46803" class="cls-5" d="M2.937,60.988h58.75a2.909,2.909,0,0,1,2.937,2.937v70.7a2.909,2.909,0,0,1-2.937,2.937H2.937A2.909,2.909,0,0,1,0,134.622v-70.7A2.909,2.909,0,0,1,2.937,60.988Zm0,0" transform="translate(29.375 -49.042)"/>
        <path id="Path_46804" data-name="Path 46804" class="cls-6" d="M179.961,63.926v70.7a2.909,2.909,0,0,0,2.937,2.937h26.438V60.988H182.9a2.909,2.909,0,0,0-2.937,2.937Zm0,0" transform="translate(-150.586 -49.042)"/>
        <path id="Path_46805" data-name="Path 46805" class="cls-8" d="M122.914,375.922h17.625a2.909,2.909,0,0,1,2.937,2.937v20.758a2.962,2.962,0,0,1-4.582,2.468l-7.167-4.817-7.168,4.817a3.323,3.323,0,0,1-1.645.471,2.909,2.909,0,0,1-2.937-2.938V378.859a2.909,2.909,0,0,1,2.937-2.937Zm0,0" transform="translate(-72.977 -302.288)"/>
        <path id="Path_46806" data-name="Path 46806" class="cls-9" d="M107.606,240.949A17.625,17.625,0,1,1,89.98,258.574,17.677,17.677,0,0,1,107.606,240.949Zm0,0" transform="translate(-48.856 -193.753)"/>
        <path id="Path_46807" data-name="Path 46807" class="cls-10" d="M59.988,123.914a2.909,2.909,0,0,0,2.938,2.937h35.25a2.937,2.937,0,1,0,0-5.875H62.926A2.909,2.909,0,0,0,59.988,123.914Zm0,0" transform="translate(-18.864 -97.281)"/>
        <path id="Path_46808" data-name="Path 46808" class="cls-10" d="M59.988,183.9a2.909,2.909,0,0,0,2.938,2.937h35.25a2.938,2.938,0,0,0,0-5.875H62.926A2.909,2.909,0,0,0,59.988,183.9Zm0,0" transform="translate(-18.864 -145.515)"/>
        <path id="Path_46809" data-name="Path 46809" class="cls-11" d="M179.961,378.859v20.758a2.909,2.909,0,0,0,2.937,2.938,3.323,3.323,0,0,0,1.645-.471l7.168-4.817V375.922H182.9a2.909,2.909,0,0,0-2.937,2.937Zm0,0" transform="translate(-132.961 -302.288)"/>
        <path id="Path_46810" data-name="Path 46810" class="cls-7" d="M179.961,183.9a2.909,2.909,0,0,0,2.938,2.937h14.688v-5.875H182.9A2.909,2.909,0,0,0,179.961,183.9Zm0,0" transform="translate(-138.836 -145.515)"/>
        <path id="Path_46811" data-name="Path 46811" class="cls-7" d="M182.9,126.852h14.688v-5.875H182.9a2.937,2.937,0,1,0,0,5.875Zm0,0" transform="translate(-138.836 -97.281)"/>
        <path id="Path_46812" data-name="Path 46812" class="cls-12" d="M179.961,258.574A17.677,17.677,0,0,0,197.586,276.2V240.95A17.677,17.677,0,0,0,179.961,258.574Zm0,0" transform="translate(-138.836 -193.754)"/>
        <path id="Path_46813" data-name="Path 46813" class="cls-13" d="M155.844,300.938a5.875,5.875,0,1,1-5.875,5.875A5.892,5.892,0,0,1,155.844,300.938Zm0,0" transform="translate(-97.094 -241.992)"/>
        <path id="Path_46814" data-name="Path 46814" class="cls-14" d="M185.836,312.688v-11.75a5.875,5.875,0,1,0,0,11.75Zm0,0" transform="translate(-127.086 -241.992)"/>
      </g>
      <g id="Group_37640" data-name="Group 37640" transform="translate(2549.039 1677.214)">
        <g id="Group_10833" data-name="Group 10833" transform="translate(218.961 97.244)">
          <g id="Group_10831" data-name="Group 10831">
            <path id="Path_12504" data-name="Path 12504" class="cls-15" d="M267.2,215.7s-.33.941-.753,2.636c-.471,1.695-1.036,4.236-1.6,7.39a113.147,113.147,0,0,0-1.459,11.344,119.446,119.446,0,0,0-.329,14.5s-.188.141-.565.377a5.747,5.747,0,0,1-1.412.612,3.6,3.6,0,0,1-1.883.141,3.684,3.684,0,0,1-1.977-1.036,79.6,79.6,0,0,1-.894-8.473c-.188-3.107-.188-6.449-.094-9.791s.329-6.59.706-9.65a60.251,60.251,0,0,1,1.506-8.049,2.872,2.872,0,0,1,1.506-1.789,4.932,4.932,0,0,1,2.542-.518,7.222,7.222,0,0,1,2.683.612A5.15,5.15,0,0,1,267.2,215.7Z" transform="translate(-256.169 -213.385)"/>
          </g>
          <g id="Group_10832" data-name="Group 10832" transform="translate(0.485 34.652)">
            <path id="Path_12505" data-name="Path 12505" class="cls-16" d="M263.508,287.235v2.4a4.305,4.305,0,0,0,.047.8s-.188.141-.565.377a5.745,5.745,0,0,1-1.412.612,3.6,3.6,0,0,1-1.883.141,3.684,3.684,0,0,1-1.977-1.036,7.344,7.344,0,0,1-.235-.753q-.071-.424-.141-.989c-.047-.329-.047-.659-.094-.988,0-.329-.047-.612-.047-.8a9.841,9.841,0,0,0,1.412.518,6.269,6.269,0,0,0,1.6.235,6.342,6.342,0,0,0,1.647-.094,3.18,3.18,0,0,0,1.648-.424C263.508,287.518,263.037,287.518,263.508,287.235Z" transform="translate(-257.2 -287)"/>
          </g>
        </g>
        <g id="Group_10836" data-name="Group 10836" transform="translate(230.321 97.621)">
          <g id="Group_10834" data-name="Group 10834">
            <path id="Path_12506" data-name="Path 12506" class="cls-15" d="M280.6,216.546s.235.847.565,2.448.8,4,1.177,7.108.753,6.872.894,11.3A149.954,149.954,0,0,1,283,252.414a2.661,2.661,0,0,0,.518.377,4.94,4.94,0,0,0,1.318.612,3.217,3.217,0,0,0,1.789.141,3.732,3.732,0,0,0,1.93-1.036c.424-2.448.753-5.178,1.036-8.049s.471-5.931.518-9.085c.094-3.107.094-6.308-.047-9.508-.141-3.154-.329-6.308-.706-9.32a2.3,2.3,0,0,0-1.271-1.836,5.009,5.009,0,0,0-2.589-.518,7.3,7.3,0,0,0-2.824.659A4.705,4.705,0,0,0,280.6,216.546Z" transform="translate(-280.6 -214.185)"/>
          </g>
          <g id="Group_10835" data-name="Group 10835" transform="translate(2.401 35.169)">
            <path id="Path_12507" data-name="Path 12507" class="cls-16" d="M285.888,289.088a3.564,3.564,0,0,1-.047.706c0,.235-.047.471-.047.706s-.047.471-.047.706-.047.471-.047.706a2.661,2.661,0,0,0,.518.377,4.941,4.941,0,0,0,1.318.612,3.216,3.216,0,0,0,1.789.141,3.732,3.732,0,0,0,1.93-1.036c.047-.235.094-.518.141-.753s.094-.518.141-.753a182063.476,182063.476,0,0,1,.188-1.6,5.227,5.227,0,0,1-1.365.471,7.308,7.308,0,0,1-1.459.141,8.553,8.553,0,0,1-1.506-.141,5.334,5.334,0,0,1-1.506-.282C285.841,289.324,286.359,289.229,285.888,289.088Z" transform="translate(-285.7 -288.9)"/>
          </g>
        </g>
        <path id="Path_12512" data-name="Path 12512" class="cls-17" d="M247.442,189.778s-.141.8-.424,2.118c-.282,1.271-.612,3.013-1.036,4.848s-.894,3.766-1.365,5.413a29.355,29.355,0,0,1-1.318,3.86s1.271.329,3.342.706,4.99.847,8.285,1.13a60.9,60.9,0,0,0,10.591.094,32.076,32.076,0,0,0,10.309-2.4s-.188-.518-.518-1.412-.753-2.212-1.271-3.766-1.083-3.342-1.647-5.272-1.13-3.954-1.6-6.025c-.282-1.224-1.6-2.118-3.53-2.73a22.429,22.429,0,0,0-6.967-.847,28.337,28.337,0,0,0-7.578,1.083A10.953,10.953,0,0,0,247.442,189.778Z" transform="translate(-30.43 -100.959)"/>
        <g id="Group_10840" data-name="Group 10840" transform="translate(228.728 84.737)">
          <path id="Path_12513" data-name="Path 12513" class="cls-18" d="M277,190.189s.141.471.33,1.13c.188.706.471,1.6.753,2.542s.565,1.883.847,2.636a4.34,4.34,0,0,0,.659,1.365,10.764,10.764,0,0,0,1.647.141,31.952,31.952,0,0,0,3.436-.188,17.025,17.025,0,0,0,3.86-.8,6.318,6.318,0,0,0,2.918-1.695s-.094-.329-.235-.847-.329-1.177-.518-1.93-.377-1.506-.565-2.165-.282-1.271-.377-1.6A3.746,3.746,0,0,0,287.638,186a6.229,6.229,0,0,0-3.766-.424,10.1,10.1,0,0,0-4.048,1.506A8.529,8.529,0,0,0,277,190.189Z" transform="translate(-277 -185.466)"/>
          <path id="Path_12514" data-name="Path 12514" class="cls-19" d="M292.474,198.1l-2.918,1.271-2.918,1.271-2.918,1.271-2.918,1.271c0,.047.047.094.047.141s.047.094.047.141.047.094.047.141.047.094.047.141l2.871-1.224,2.871-1.224,2.871-1.224,2.871-1.224v-.141a.173.173,0,0,0-.047-.141c0-.047-.047-.094-.047-.141C292.521,198.147,292.474,198.1,292.474,198.1Z" transform="translate(-279.011 -192.153)"/>
          <path id="Path_12515" data-name="Path 12515" class="cls-18" d="M287.091,188.8l-2.448.941-2.448.941-2.448.941-2.448.941c0,.047,0,.047.047.094,0,.047,0,.094.047.094,0,.047,0,.094.047.094a.173.173,0,0,0,.047.141L280.03,192l2.542-.988,2.542-.989,2.542-.988c-.047-.047-.047-.047-.094-.047s-.047-.047-.094-.047a.164.164,0,0,1-.094-.047C287.185,188.847,287.138,188.8,287.091,188.8Z" transform="translate(-277.159 -187.23)"/>
          <path id="Path_12516" data-name="Path 12516" class="cls-19" d="M290.862,192.2l-2.965,1.224-2.965,1.224-2.965,1.224L279,197.1c0,.047,0,.094.047.094,0,.047,0,.094.047.094,0,.047,0,.094.047.094,0,.047,0,.094.047.094l2.966-1.13,2.965-1.13,2.965-1.13,2.965-1.13v-.377a.356.356,0,0,0-.047-.188C290.909,192.294,290.862,192.247,290.862,192.2Z" transform="translate(-278.059 -189.03)"/>
          <path id="Path_12517" data-name="Path 12517" class="cls-19" d="M281.2,190.235l.941,2.542.941,2.542.941,2.542.941,2.542a.173.173,0,0,0,.141.047h.282c.047,0,.094-.047.141-.047l-1.036-2.589-1.036-2.589-1.036-2.589L281.577,190c-.047,0-.047.047-.094.047s-.047.047-.094.047-.047.047-.094.047C281.247,190.235,281.247,190.235,281.2,190.235Z" transform="translate(-279.223 -187.866)"/>
          <path id="Path_12518" data-name="Path 12518" class="cls-19" d="M296.188,188.029c-.094-.047-.141-.047-.235-.094s-.188-.047-.235-.094c-.094-.047-.188-.047-.235-.094a.6.6,0,0,0-.282-.047l.847,2.589.847,2.589.847,2.589.847,2.589h.188c.047,0,.141-.047.188-.047.047-.047.094-.047.188-.094l.141-.141-.753-2.448-.753-2.448-.753-2.448Z" transform="translate(-286.633 -186.648)"/>
          <path id="Path_12519" data-name="Path 12519" class="cls-19" d="M286.7,187.741l1.036,2.777,1.036,2.777,1.036,2.777,1.036,2.777h.188a.512.512,0,0,0,.235-.047c.094,0,.141-.047.235-.047a2.038,2.038,0,0,0,.235-.047l-1.036-2.777-1.036-2.777-1.036-2.777-1.036-2.777c-.094,0-.141.047-.235.047s-.141.047-.235.047-.141.047-.235.047C286.841,187.694,286.794,187.694,286.7,187.741Z" transform="translate(-282.134 -186.595)"/>
        </g>
        <g id="Group_10841" data-name="Group 10841" transform="translate(214.889 84.763)">
          <path id="Path_12520" data-name="Path 12520" class="cls-18" d="M262.239,190.689s-.141.471-.377,1.13-.518,1.6-.847,2.495c-.329.941-.659,1.836-.941,2.589a4.149,4.149,0,0,1-.706,1.318,8.2,8.2,0,0,1-1.648,0,27.139,27.139,0,0,1-3.436-.424,22.273,22.273,0,0,1-3.86-1.036,6.622,6.622,0,0,1-2.824-1.883s.094-.33.235-.8c.141-.518.377-1.177.565-1.883.235-.706.471-1.459.659-2.118s.377-1.224.424-1.553a3.726,3.726,0,0,1,2.212-2.636,6.708,6.708,0,0,1,3.766-.188,10.607,10.607,0,0,1,3.954,1.742A7.81,7.81,0,0,1,262.239,190.689Z" transform="translate(-247.6 -185.522)"/>
          <path id="Path_12521" data-name="Path 12521" class="cls-19" d="M249.788,197.3l2.824,1.412,2.824,1.412,2.824,1.459L261.085,203c0,.047-.047.094-.047.141s-.047.094-.047.141-.047.094-.047.141a.164.164,0,0,1-.047.094l-2.824-1.412-2.824-1.412-2.824-1.412-2.824-1.412v-.141a.173.173,0,0,1,.047-.141c0-.047.047-.094.047-.141A.582.582,0,0,1,249.788,197.3Z" transform="translate(-248.659 -191.756)"/>
          <path id="Path_12522" data-name="Path 12522" class="cls-18" d="M257.265,188.4l2.4,1.083,2.4,1.083,2.4,1.083,2.4,1.083c0,.047,0,.047-.047.094,0,.047,0,.047-.047.094a.164.164,0,0,1-.047.094c0,.047-.047.094-.047.141l-2.495-1.13-2.495-1.13-2.495-1.13-2.495-1.13c.047,0,.047-.047.094-.047a811.891,811.891,0,0,1,.188-.094C257.171,188.447,257.218,188.447,257.265,188.4Z" transform="translate(-252.417 -187.045)"/>
          <path id="Path_12523" data-name="Path 12523" class="cls-19" d="M251.488,191.5l2.918,1.412,2.918,1.412,2.918,1.412,2.918,1.412a324.683,324.683,0,0,0-.094.188,405.906,405.906,0,0,0-.094.188l-2.918-1.318-2.918-1.318-2.918-1.318-2.918-1.318v-.377c0-.047.047-.094.047-.188C251.441,191.594,251.441,191.547,251.488,191.5Z" transform="translate(-249.558 -188.686)"/>
          <path id="Path_12524" data-name="Path 12524" class="cls-19" d="M269.2,191.035l-1.083,2.448-1.083,2.448-1.083,2.448-1.083,2.448c-.047,0-.094.047-.141.047h-.141a.173.173,0,0,1-.141-.047c-.047,0-.094-.047-.141-.047l1.13-2.495,1.13-2.495,1.13-2.495,1.13-2.495c.047,0,.047.047.094.047s.047.047.094.047.047.047.094.047Z" transform="translate(-256.439 -188.315)"/>
          <path id="Path_12525" data-name="Path 12525" class="cls-19" d="M254.625,187.782c.094-.047.141-.047.235-.094s.188-.047.235-.094a2.039,2.039,0,0,0,.235-.047c.094,0,.188-.047.282-.047l-.988,2.542-.989,2.542-.988,2.542-.989,2.542a.356.356,0,0,1-.188-.047c-.047,0-.141-.047-.188-.047-.047-.047-.094-.047-.141-.094l-.141-.141.847-2.4.847-2.4.847-2.4Z" transform="translate(-249.4 -186.569)"/>
          <path id="Path_12526" data-name="Path 12526" class="cls-19" d="M263,187.824l-1.177,2.683-1.177,2.683-1.177,2.683-1.177,2.683a.356.356,0,0,1-.188-.047,2.04,2.04,0,0,0-.235-.047c-.094,0-.141-.047-.235-.047a.359.359,0,0,1-.235-.094l1.13-2.73,1.13-2.73,1.13-2.73,1.13-2.73c.094,0,.141.047.235.047s.141.047.235.047.141.047.235.047A1.628,1.628,0,0,0,263,187.824Z" transform="translate(-252.787 -186.516)"/>
        </g>
        <path id="Union_117" data-name="Union 117" class="cls-7" d="M-2539.147-1723.256a10.629,10.629,0,0,1-1.789-1.318,12.32,12.32,0,0,1-1.976-2.307,10.227,10.227,0,0,1-1.412-3.342,30.16,30.16,0,0,0,3.388-1.365,41.38,41.38,0,0,0,7.484-4.472,28.933,28.933,0,0,0,7.484-7.955,22.455,22.455,0,0,0,3.389-11.956,1.717,1.717,0,0,1,.471-1.036,1.689,1.689,0,0,1,1.13-.518,2.02,2.02,0,0,1,1.459.706q.077.084.154.177a8.407,8.407,0,0,1,1.736-1.635,14.839,14.839,0,0,1,6.967-2.4,14.389,14.389,0,0,1,4.749.228c0-.153-.006-.233-.006-.233a3.577,3.577,0,0,1,.842-1.739,1.475,1.475,0,0,1,1.05-.425,2.2,2.2,0,0,1,.878.22,1.94,1.94,0,0,1,.371.209q.276,2.056.685,3.821a5.732,5.732,0,0,1,1.929,4.226q.033.84.073,1.645a17.374,17.374,0,0,0,2.776,4.182,12.589,12.589,0,0,0,8.419,4.137,19.974,19.974,0,0,0,7.723-.967,21.53,21.53,0,0,0,3.395-1.372,10.512,10.512,0,0,1,2.031,4.493,9.311,9.311,0,0,1-.111,3.635,8.365,8.365,0,0,1-.986,2.444,5.456,5.456,0,0,1-.622.861c-6.563,1.953-11.6,1.655-15.491,0-.307-.13-.608-.27-.9-.417a16.225,16.225,0,0,1-4.972-3.791c.277,1.7.578,3.127.879,4.3a25.743,25.743,0,0,0,1.177,3.907,11.113,11.113,0,0,0,.517,1.13,104.628,104.628,0,0,1-11.485,1.129,72.9,72.9,0,0,1-8.52,0c-2.354-.141-4.095-.329-5.319-.517s-1.836-.329-1.836-.329c.771-2.585,1.322-4.728,1.754-6.531a32.816,32.816,0,0,1-5.95,7.142,34.2,34.2,0,0,1-10.779,6.448S-2538.677-1722.974-2539.147-1723.256Z" transform="translate(2738.732 1820.248)"/>
        <path id="Union_121" data-name="Union 121" class="cls-20" d="M-2046.094-1617.391a12.941,12.941,0,0,1-1.657-.193c-.575-.09-1.175-.243-1.688-.358a6.564,6.564,0,0,1-1.164-.391,7.9,7.9,0,0,1-1.146-.794c-.377-.312-.752-.624-1.11-.979a6.06,6.06,0,0,1-1.418-.656,8.011,8.011,0,0,1-2.157-1.785,9.862,9.862,0,0,1-1.529-2.1c0,.009-.032-.054-.135-.248-.079-.162-.111-.229-.114-.239a7.846,7.846,0,0,1-.685-2.093,5.644,5.644,0,0,1,.088-1.959c-.112-.257-.219-.51-.068-.175l.07.164v0q-.036-.079-.071-.16a13.308,13.308,0,0,1-.749-2.21,7.729,7.729,0,0,1-.144-2.311,7.288,7.288,0,0,1,.733-2.451,11.251,11.251,0,0,1,1.926-2.608c.357-.36.715-.72,1.108-1.167a14.555,14.555,0,0,0,1.194-1.487,10.946,10.946,0,0,0,1.056-2.007,13.225,13.225,0,0,0,.652-2.74,9.554,9.554,0,0,0-.075-2.231c-.1-.859-.26-1.8-.381-2.719a11.023,11.023,0,0,1-.1-2.651,4.209,4.209,0,0,1,.654-2.024,3.46,3.46,0,0,1,2.171-1.38,3.612,3.612,0,0,1,2.332.53,7.01,7.01,0,0,1,2.146,1.933,10.7,10.7,0,0,1,1.592,2.875,9.409,9.409,0,0,1,.588,3.676,9.866,9.866,0,0,1-.682,2.932c-.325.885-.717,1.69-1.03,2.426a8.14,8.14,0,0,0-.381,1.354c.176-.011.356-.016.542-.012a10.354,10.354,0,0,1,2.084.271c.748.164,1.54.346,2.313.572a19.3,19.3,0,0,1,2.117.8,4.935,4.935,0,0,1,1.406.9,2.362,2.362,0,0,1,.548,1,4.378,4.378,0,0,1,.135,1.49,6.488,6.488,0,0,1-.3,1.663,5.7,5.7,0,0,1-.785,1.61,1.133,1.133,0,0,0-.165.749,7.068,7.068,0,0,0,.152,1.087c.088.4.14.877.209,1.316a5.933,5.933,0,0,1-.013,1.477,1.809,1.809,0,0,1-.374.761c-.191.328-.461.725-.732,1.121s-.523.75-.738,1.016a3.951,3.951,0,0,0-.369.508,2.354,2.354,0,0,0-.141.452,6.94,6.94,0,0,0-.158.853c-.085.321-.128.661-.194.94a1.7,1.7,0,0,1-.214.625,2.917,2.917,0,0,1-.431.533c-.2.223-.473.515-.733.763s-.517.5-.758.7c-.178.18-.338.316-.419.384-.061.025-.135.2-.27.4s-.264.5-.418.742c-.172.285-.345.571-.5.812a6.535,6.535,0,0,1-.554.583,1.627,1.627,0,0,1-.756.113C-2045.878-1617.387-2045.983-1617.389-2046.094-1617.391Z" transform="translate(2313.851 1708.813)"/>
        <path id="Union_122" data-name="Union 122" class="cls-15" d="M-2051.266-1618.925c-.1,0-.219,0-.342,0-.383-.061-.828-.1-1.3-.193s-.915-.133-1.237-.219c-.34-.042-.575-.091-.575-.091l-.39-.166a2.377,2.377,0,0,1-.484-.307c-.154-.117-.352-.252-.508-.369-.156-.214-.248-.354-.316-.436l0,0v0l-.006-.007,0-.005,0,0-.012-.014-.02-.024.012.015c-.133-.154-.3-.326-.5-.555a7.521,7.521,0,0,1-.677-.7c-.248-.258-.452-.5-.656-.739a1.947,1.947,0,0,1-.355-.611.989.989,0,0,1-.082-.29c-.007-.106-.013-.212-.02-.316a.658.658,0,0,1,.023-.3c.037-.087.031-.192.111-.26a.437.437,0,0,1,.283-.186.3.3,0,0,1,.26.11,3.2,3.2,0,0,0,.291.277,2.157,2.157,0,0,1,.231.3c.179.179.427.437.65.635.267.215.515.474.781.69a7.6,7.6,0,0,0,.819.6,2.911,2.911,0,0,0,.8.392c.5.159,1.1.312,1.652.446.575.09,1.151.181,1.683.253a12.9,12.9,0,0,1,1.341.212,1.272,1.272,0,0,1,.669.232c.068.08.031.167-.085.322-.1.112-.277.291-.455.471a3.017,3.017,0,0,1-.6.46,2.913,2.913,0,0,1-.611.355.473.473,0,0,1-.134.011C-2051.09-1618.921-2051.171-1618.923-2051.266-1618.925Zm-5.143-1.776Zm-.031-.037,0,0,.008.009.009.011Zm5.264-2.1c-.5-.264-1.109-.521-1.7-.822s-1.152-.54-1.61-.786a6.525,6.525,0,0,1-.9-.535c-.156-.117-.36-.357-.652-.635-.273-.32-.633-.678-.931-1.06s-.6-.764-.825-1.066a2.119,2.119,0,0,1-.405-.734,1.7,1.7,0,0,1-.007-.464,1.3,1.3,0,0,1,.123-.409.7.7,0,0,1,.172-.285.37.37,0,0,1,.247-.1,2.755,2.755,0,0,1,.9.281l1.69.717,1.646.7.737.313,1.688.358,1.689.359,1.687.359,1.688.359a3.661,3.661,0,0,1-.535,2.227,3.665,3.665,0,0,1-1.424,1.185,5.5,5.5,0,0,1-1.445.512c-.4.087-.668.126-.668.126C-2050.24-1622.389-2050.674-1622.573-2051.176-1622.838Zm-11.1-2.767a3.092,3.092,0,0,1-.771-1.2,6.9,6.9,0,0,1-.394-1.6,11.274,11.274,0,0,1-.111-1.427c0-.359,0-.612,0-.612a.643.643,0,0,0,.47.1,3.566,3.566,0,0,0,.674-.021,3.123,3.123,0,0,0,.63-.039,2.377,2.377,0,0,1,.272-.038,6.03,6.03,0,0,1-.8-.393,3.266,3.266,0,0,1-.824-.707,3.763,3.763,0,0,1-.7-1.117,10.9,10.9,0,0,1-.438-1.617,3.413,3.413,0,0,1,.315-2.065,12.008,12.008,0,0,1,1.253-2.23c.5-.706,1.052-1.394,1.544-1.952.511-.6.948-1.029,1.226-1.32a5.005,5.005,0,0,0,1.089-1.481c.288-.563.553-1.184.8-1.769.038-.13.071-.249.1-.354a8.562,8.562,0,0,0,.243-1.174c.06-.383.1-.724.163-1.107a9.73,9.73,0,0,0,.076-1.144,11.4,11.4,0,0,0-.053-1.2c-.083-.649-.24-1.483-.336-2.342a15.555,15.555,0,0,1-.164-2.626,5.047,5.047,0,0,1,.536-2.227,2.124,2.124,0,0,1,1.683-1.076,4.422,4.422,0,0,1,2.351.487,6.114,6.114,0,0,1,2.07,1.748,9.8,9.8,0,0,1,1.474,2.671,11.521,11.521,0,0,1,.648,3.292,6.892,6.892,0,0,1-.277,1.978,10.223,10.223,0,0,1-.766,1.925c-.3.589-.6,1.176-.928,1.7-.3.467-.553.951-.776,1.358l-.023.041c-.092.217-.357.36-.858.454a10.643,10.643,0,0,1-1.457.3q-.844.18-1.872.433a10.582,10.582,0,0,0-1.67.631c-.063.086-.128.175-.193.266-.252.353-.548.688-.818,1.084a12.321,12.321,0,0,0-.855,1.172,7.744,7.744,0,0,0-.78,1.356,10.943,10.943,0,0,0-.594,1.64,5.625,5.625,0,0,0-.21,1.7,5.35,5.35,0,0,0,.153,1.446,6.673,6.673,0,0,0,.294.994l.149.371a4.8,4.8,0,0,0-.384,1.626c-.084.68-.143,1.423-.184,2.121a7.209,7.209,0,0,1-.3,1.663c-.069.244-.191.4-.369.4A.55.55,0,0,1-2062.273-1625.605Zm14.693-2.813c-.642-.171-1.434-.354-2.183-.518s-1.479-.373-2.078-.525a11.665,11.665,0,0,1-1.182-.348c-.173-.073-.5-.264-.935-.447-.415-.229-.978-.467-1.48-.731-.544-.283-1.064-.5-1.479-.731s-.743-.418-.873-.473a.723.723,0,0,1-.3-.487,2.543,2.543,0,0,1-.035-.884,3.694,3.694,0,0,1,.275-1.009,2.073,2.073,0,0,1,.621-.861,3.135,3.135,0,0,1,.921-.121c.463-.008,1.074,0,1.668.043.655.023,1.292.089,1.842.118s1.039.082,1.292.088a19.21,19.21,0,0,1,2.633.3c.854.158,1.583.365,2.228.537a12.1,12.1,0,0,1,1.528.495l.563.238a4.162,4.162,0,0,1,.917,2.537,2.748,2.748,0,0,1-.673,1.708,4.115,4.115,0,0,1-1.184.981,2.83,2.83,0,0,1-.635.293A10.683,10.683,0,0,1-2047.58-1628.419Zm.674-7.129c-.55-.029-1.125-.12-1.657-.192s-1.045-.188-1.559-.3c-.471-.1-.958-.15-1.386-.23a10.537,10.537,0,0,0-1.125-.12c-.489-.054-1.144-.076-1.78-.141s-1.274-.132-1.762-.186a4.085,4.085,0,0,1-.984-.212c-.129-.055-.186-.284-.224-.555a4.877,4.877,0,0,1,.083-1.039,3.516,3.516,0,0,1,.391-1.162,2.826,2.826,0,0,1,.7-.931,2.56,2.56,0,0,1,.882-.392c.475-.156,1.074-.362,1.654-.525s1.2-.307,1.767-.426a6.509,6.509,0,0,1,1.3-.167c.192.031.619.11,1.238.22s1.367.273,2.116.437a19.744,19.744,0,0,1,2.19.622,5.846,5.846,0,0,1,1.5.688,1.517,1.517,0,0,1,.609.975,3.491,3.491,0,0,1,.172,1.4,2.227,2.227,0,0,1-.614,1.325,3.134,3.134,0,0,1-1.784.828,7.49,7.49,0,0,1-1.238.1C-2046.584-1635.534-2046.746-1635.539-2046.906-1635.547Zm-5.113-7.592.023-.041c.1-.176.058-.092.015-.008a.721.721,0,0,1-.055.1S-2052.033-1643.106-2052.019-1643.139Z" transform="translate(2319.177 1709.709)"/>
        <path id="Union_116" data-name="Union 116" class="cls-15" d="M-2537.724-1753.35a4.256,4.256,0,0,1-1.976-.895,4.158,4.158,0,0,1-1.13-1.788,4.7,4.7,0,0,1-.2-1.9,5.017,5.017,0,0,1-.46.215,3.536,3.536,0,0,1-1.365.283,1.387,1.387,0,0,1-1.035-.376,1.6,1.6,0,0,1-.424-.989,2.445,2.445,0,0,1,.236-1.271,4.3,4.3,0,0,1,.847-1.271,5.682,5.682,0,0,1,1.459-.988,11.294,11.294,0,0,1,1.789-.565,7.078,7.078,0,0,1,1.695-.094,3.931,3.931,0,0,1,.5.077,5.3,5.3,0,0,1,1.762-.412,8.185,8.185,0,0,1,2.119.095,4.256,4.256,0,0,1,1.976.895,4.134,4.134,0,0,1,1.13,1.695,5.36,5.36,0,0,1,.235,2.118,6.484,6.484,0,0,1-.561,2.02c.025-.043.011-.012-.1.192a6.037,6.037,0,0,1-1.319,1.695,6.372,6.372,0,0,1-1.6.988,5.778,5.778,0,0,1-1.788.377c-.164.013-.324.018-.483.018A8.467,8.467,0,0,1-2537.724-1753.35Z" transform="translate(2731 1853.495)"/>
        <g id="Group_10845" data-name="Group 10845" transform="translate(216.683 58.221)">
          <path id="Path_12528" data-name="Path 12528" class="cls-18" d="M274.488,133.219a2.547,2.547,0,0,1-.847,1.789,7.2,7.2,0,0,1-2.306,1.459,16,16,0,0,1-3.389.988,23.1,23.1,0,0,1-4.189.377,22.625,22.625,0,0,1-4.378-.424,17.279,17.279,0,0,1-3.813-1.083,10.435,10.435,0,0,1-2.73-1.553,2.488,2.488,0,0,1-1.036-1.836,2.324,2.324,0,0,1,1.036-1.742,8.2,8.2,0,0,1,2.73-1.318,21.666,21.666,0,0,1,3.813-.847,33.005,33.005,0,0,1,4.378-.329,23.907,23.907,0,0,1,4.189.377,15.222,15.222,0,0,1,3.389.988,7.2,7.2,0,0,1,2.306,1.459A2.287,2.287,0,0,1,274.488,133.219Z" transform="translate(-251.612 -128.7)"/>
          <g id="Group_10843" data-name="Group 10843" transform="translate(10.826 1.224)">
            <path id="Path_12529" data-name="Path 12529" class="cls-18" d="M274.4,139.062s.282.33.659.847c.424.518.941,1.224,1.506,1.93s1.177,1.412,1.647,1.93a3.21,3.21,0,0,0,1.036.894,7.255,7.255,0,0,0,1.647-1.177,24.944,24.944,0,0,0,2.871-2.965,13.134,13.134,0,0,0,2.259-3.766,4.071,4.071,0,0,0-.235-3.624,3.55,3.55,0,0,0-2.871-1.647,6.894,6.894,0,0,0-3.672.941,10.923,10.923,0,0,0-3.295,2.777A9.959,9.959,0,0,0,274.4,139.062Z" transform="translate(-274.4 -131.39)"/>
            <path id="Path_12530" data-name="Path 12530" class="cls-19" d="M290.7,137.1l-2.024,2.4-2.024,2.4-2.024,2.4-2.024,2.4.094.094.094.094.094.094.094.094,1.977-2.306,1.977-2.306,1.977-2.306,1.977-2.306v-.424C290.743,137.194,290.7,137.147,290.7,137.1Z" transform="translate(-278.74 -134.37)"/>
            <path id="Path_12531" data-name="Path 12531" class="cls-19" d="M283.208,131.3l-1.977,2.024-1.977,2.024-1.977,2.024L275.3,139.4c0,.047.047.047.047.094s.047.047.047.094.047.047.047.094.047.047.094.094l2.071-2.071,2.071-2.071,2.071-2.071,2.071-2.071H283.4C283.255,131.3,283.208,131.3,283.208,131.3Z" transform="translate(-274.876 -131.3)"/>
            <path id="Path_12532" data-name="Path 12532" class="cls-19" d="M287.173,132.6l-2.118,2.4-2.118,2.4-2.118,2.354-2.118,2.4c0,.047.047.047.047.094s.047.047.047.094.047.047.047.094.047.047.047.094l2.165-2.354,2.165-2.354,2.165-2.354,2.165-2.354-.094-.094c-.047-.047-.094-.047-.094-.094-.047-.047-.094-.047-.094-.094C287.267,132.647,287.22,132.647,287.173,132.6Z" transform="translate(-276.676 -131.988)"/>
            <path id="Path_12533" data-name="Path 12533" class="cls-19" d="M276.8,140.777l1.553,1.647,1.553,1.647,1.553,1.647,1.553,1.648.094-.094.094-.094.094-.094.094-.094-1.6-1.647-1.6-1.647-1.6-1.648-1.6-1.647c0,.047-.047.047-.047.094s-.047.047-.047.094-.047.047-.047.094A.164.164,0,0,0,276.8,140.777Z" transform="translate(-275.67 -136.117)"/>
            <path id="Path_12534" data-name="Path 12534" class="cls-19" d="M289.93,131.4a.6.6,0,0,0-.282.047c-.094,0-.188.047-.282.047s-.188.047-.282.047-.188.047-.282.047l1.177,1.365,1.177,1.365,1.177,1.365,1.177,1.365c.047-.047.047-.141.094-.188,0-.047.047-.141.047-.188s.047-.141.047-.188.047-.141.047-.188l-.988-1.224-.989-1.224-.988-1.224Z" transform="translate(-282.022 -131.353)"/>
            <path id="Path_12535" data-name="Path 12535" class="cls-19" d="M281.1,135.253l1.695,1.553,1.695,1.553,1.695,1.553,1.695,1.553c.047-.047.047-.094.094-.141s.047-.094.094-.141.047-.094.094-.141.047-.094.094-.141l-1.6-1.6-1.6-1.6-1.6-1.6-1.6-1.6c-.047.047-.141.094-.188.141s-.141.094-.188.141-.141.094-.188.141A.8.8,0,0,1,281.1,135.253Z" transform="translate(-277.946 -132.994)"/>
          </g>
          <g id="Group_10844" data-name="Group 10844" transform="translate(0 1.539)">
            <path id="Path_12536" data-name="Path 12536" class="cls-18" d="M262.786,139.233s-.235.329-.612.8-.894,1.13-1.412,1.789-1.083,1.318-1.553,1.836-.8.847-.988.847a5.83,5.83,0,0,1-1.553-1.13,22.557,22.557,0,0,1-2.683-2.824,12.792,12.792,0,0,1-2.118-3.577,3.973,3.973,0,0,1,.188-3.436,3.3,3.3,0,0,1,2.636-1.553,6.219,6.219,0,0,1,3.389.894,10.149,10.149,0,0,1,3.06,2.636A7.771,7.771,0,0,1,262.786,139.233Z" transform="translate(-251.489 -131.969)"/>
            <path id="Path_12537" data-name="Path 12537" class="cls-19" d="M251.588,137.5l1.883,2.259,1.883,2.259,1.883,2.259,1.883,2.259-.094.094-.094.094-.094.094-.094.094-1.836-2.212-1.836-2.212-1.836-2.212-1.836-2.212v-.424C251.588,137.594,251.588,137.547,251.588,137.5Z" transform="translate(-251.4 -134.897)"/>
            <path id="Path_12538" data-name="Path 12538" class="cls-18" d="M258.577,132l1.836,1.93,1.836,1.93,1.836,1.93,1.836,1.93a.164.164,0,0,0-.047.094c0,.047-.047.047-.047.094s-.047.047-.047.094-.047.047-.047.094l-1.883-1.977-1.883-1.977-1.883-1.977-1.883-1.977h.282C258.529,132,258.529,132,258.577,132Z" transform="translate(-254.999 -131.986)"/>
            <path id="Path_12539" data-name="Path 12539" class="cls-19" d="M254.277,133.2l1.977,2.259,1.977,2.259,1.977,2.259,1.977,2.259c0,.047-.047.047-.047.094s-.047.047-.047.094-.047.047-.047.094-.047.047-.047.094l-2.024-2.259-2.024-2.259-2.024-2.259-2.024-2.259.094-.094.094-.094.094-.094Z" transform="translate(-252.723 -132.621)"/>
            <path id="Path_12540" data-name="Path 12540" class="cls-19" d="M266.213,141.088l-1.459,1.6-1.459,1.6-1.459,1.6-1.459,1.6-.094-.094c-.047-.047-.094-.047-.094-.094l-.094-.094-.094-.094,1.506-1.553,1.506-1.553,1.506-1.553,1.506-1.553c0,.047.047.047.047.094s.047.047.047.094.047.047.047.094C266.166,141.041,266.213,141.088,266.213,141.088Z" transform="translate(-255.952 -136.696)"/>
            <path id="Path_12541" data-name="Path 12541" class="cls-19" d="M255.566,132.1a.424.424,0,0,1,.235.047c.094,0,.141.047.235.047s.141.047.235.047a2.037,2.037,0,0,1,.235.047l-1.13,1.271-1.13,1.271-1.13,1.271-1.13,1.271c0-.047-.047-.141-.047-.188s-.047-.141-.047-.188-.047-.141-.047-.188-.047-.141-.047-.188l.941-1.13.941-1.13.941-1.13Z" transform="translate(-251.612 -132.039)"/>
            <path id="Path_12542" data-name="Path 12542" class="cls-19" d="M261.79,135.965l-1.553,1.506-1.553,1.506-1.553,1.506-1.553,1.506c-.047-.047-.047-.094-.094-.141s-.047-.094-.094-.141-.047-.094-.094-.141-.047-.094-.094-.141l1.459-1.506,1.459-1.506,1.459-1.506,1.459-1.506c.047.047.141.094.188.141s.141.094.188.141.141.094.188.141C261.7,135.824,261.743,135.918,261.79,135.965Z" transform="translate(-253.411 -133.785)"/>
          </g>
        </g>
        <g id="Group_10830" data-name="Group 10830" transform="translate(192.146 -2.952)">
          <path id="Path_12503" data-name="Path 12503" class="cls-21" d="M258.315,52.51c2.306,6.166,4.048,20.382.329,26.172,10.214-15.91,8.944-34.315,8.049-51.872C265.987,12.781,252.666.731,236.568.072,230.778-.163,224,1.249,221.6,5.862c-5.272-1.271-11.015.894-14.827,4.331-19.629,17.558-.471,47.73,10.45,64.535-3.06-4.707-1.836-11.721-3.2-16.851-1.271-4.754-2.212-7.861,1.036-12.568a2.417,2.417,0,0,1,1.13-1.036,2.028,2.028,0,0,1,2.118.706A4.474,4.474,0,0,1,219.1,47c1.365,6.119,2.824,15.439,7.626,20.382,4.331,4.472,12.9,5.272,15.863-.659,3.342-6.684,8.755-12.662,11.862-19.629.706-.471,1.6.377,1.93,1.13A38.564,38.564,0,0,1,258.315,52.51Z" transform="translate(-198.298 -0.048)"/>
        </g>
        <path id="Union_115" data-name="Union 115" class="cls-15" d="M22.477,52.465a45.79,45.79,0,0,1-8.708-3.907,40.253,40.253,0,0,1-6.5-4.66c-1.6-1.459-2.542-2.777-2.589-3.625a30.673,30.673,0,0,1,.125-4.164,2.6,2.6,0,0,1-2.149-.4A6.362,6.362,0,0,1,.588,32.742a9.072,9.072,0,0,1-.565-3.765A2.448,2.448,0,0,1,1.341,26.67a3.039,3.039,0,0,1,2.024-.094,3.629,3.629,0,0,1,1.412.894,7.013,7.013,0,0,1,.8,1.083c.041.062.078.121.11.176.177-1.163.376-2.345.6-3.518a85.286,85.286,0,0,1,1.93-8.52,21.09,21.09,0,0,1,2.219-5.521c-.039.052-.019.023.088-.128,1.979-2.742,1.292-1.783.6-.824l-.237.329A26.176,26.176,0,0,1,21.253,1.911,21.5,21.5,0,0,1,32.456.121a26.022,26.022,0,0,1,9.885,3.2,21.524,21.524,0,0,1,6.684,5.742,26.319,26.319,0,0,1,2.636,5.508c.941,2.494,1.883,5.413,2.73,8.425a90.284,90.284,0,0,1,2.071,8.8,29.384,29.384,0,0,1,.612,6.731,8.406,8.406,0,0,1-2.4,4.142,30.625,30.625,0,0,1-5.837,5.037,39.684,39.684,0,0,1-8.049,4.283,27.588,27.588,0,0,1-8.99,1.977q-.306.009-.614.009A29.193,29.193,0,0,1,22.477,52.465Z" transform="translate(197.866 14.602)"/>
        <g id="Group_10863" data-name="Group 10863" transform="translate(201.848 12.26)">
          <path id="Path_12569" data-name="Path 12569" class="cls-21" d="M273.367,38.6c-.753-.424-12.992-6.072-13.886-6.213-.894-.094-22.076.235-22.688.659s-14.5,7.626-15.581,7.767L219.8,56.529l1.883,9.791s.424-12.709,2.871-16.8c2.542-4.283,8.52-7.2,12.1-11.015-3.295,3.53,14.545,7.108,16.051,7.484a17.262,17.262,0,0,1,12.427,13.18,62.22,62.22,0,0,1-.377,27.631A41.6,41.6,0,0,0,274.5,68.062c.988-5.084,2.259-11.956,1.553-16.993C275.721,48.716,275.909,40.054,273.367,38.6Z" transform="translate(-219.8 -32.366)"/>
        </g>
        <g id="Group_10857" data-name="Group 10857" transform="translate(216.371 19.478)">
          <g id="Group_10856" data-name="Group 10856">
            <path id="Path_12561" data-name="Path 12561" class="cls-22" d="M250.5,44.7" transform="translate(-250.5 -44.7)"/>
          </g>
        </g>
        <g id="Group_10859" data-name="Group 10859" transform="translate(234.796 20.749)">
          <g id="Group_10858" data-name="Group 10858">
            <path id="Path_12562" data-name="Path 12562" class="cls-23" d="M290.1,47.4" transform="translate(-290.1 -47.4)"/>
          </g>
        </g>
      </g>
    </g>
  </g>
</svg>
