<svg xmlns="http://www.w3.org/2000/svg" xmlns:xlink="http://www.w3.org/1999/xlink" viewBox="0 0 160 160">
  <defs>
    <style>
      .cls-1 {
        fill: #f3e6d9;
      }

      .cls-2 {
        fill: #fff;
        stroke: #707070;
        opacity: 0;
      }

      .cls-3 {
        clip-path: url(#clip-path);
      }

      .cls-4 {
        fill: #8aadff;
      }

      .cls-5 {
        fill: #e198bc;
      }

      .cls-6 {
        fill: #51c9d4;
      }

      .cls-7 {
        fill: #bffaff;
      }

      .cls-8 {
        fill: #32c5d2;
      }

      .cls-9 {
        fill: #8e8e8e;
      }

      .cls-10 {
        fill: #262626;
      }

      .cls-11 {
        fill: #104348;
      }

      .cls-12 {
        fill: #fefefe;
      }

      .cls-13 {
        fill: #bfbfbf;
      }

      .cls-14 {
        fill: #fbfbfb;
      }

      .cls-15 {
        fill: #5c5c5c;
      }

      .cls-16 {
        fill: #fbe9e7;
      }

      .cls-17 {
        fill: #306e74;
      }

      .cls-18 {
        fill: #212121;
      }

      .cls-19 {
        stroke: none;
      }

      .cls-20 {
        fill: none;
      }
    </style>
    <clipPath id="clip-path">
      <path id="Path_47197" data-name="Path 47197" class="cls-1" d="M32,0h96a32,32,0,0,1,32,32v96a32,32,0,0,1-32,32H32A32,32,0,0,1,0,128V32A32,32,0,0,1,32,0Z" transform="translate(2573 1689)"/>
    </clipPath>
  </defs>
  <g id="box-3" transform="translate(-2573 -1689)">
    <g id="Rectangle_9211" data-name="Rectangle 9211" class="cls-2" transform="translate(2573 1689)">
      <rect class="cls-19" width="160" height="160"/>
      <rect class="cls-20" x="0.5" y="0.5" width="159" height="159"/>
    </g>
    <g id="Mask_Group_159" data-name="Mask Group 159" class="cls-3">
      <path id="Path_47198" data-name="Path 47198" class="cls-1" d="M32,0h96a32,32,0,0,1,32,32v96a32,32,0,0,1-32,32H32A32,32,0,0,1,0,128V32A32,32,0,0,1,32,0Z" transform="translate(2682.282 1659.718) rotate(60)"/>
    </g>
    <g id="Group_37714" data-name="Group 37714" transform="translate(94.493 56.046)">
      <g id="income-graph" transform="translate(2511.583 1661)">
        <path id="Path_46893" data-name="Path 46893" class="cls-4" d="M83.944,433.463H67.719V417.8a.566.566,0,0,1,.566-.566H83.377a.566.566,0,0,1,.566.566Zm0,0" transform="translate(-50.742 -314.576)"/>
        <path id="Path_46894" data-name="Path 46894" class="cls-4" d="M83.377,354.874H68.285a.566.566,0,0,1-.566-.566V339.215a.565.565,0,0,1,.566-.566H83.377a.566.566,0,0,1,.566.566v15.093A.566.566,0,0,1,83.377,354.874Zm0,0" transform="translate(-50.742 -255.323)"/>
        <path id="Path_46895" data-name="Path 46895" class="cls-4" d="M83.952,260.64v15.087a.568.568,0,0,1-.566.566H68.293a.564.564,0,0,1-.566-.566V260.64a.564.564,0,0,1,.566-.566H83.385A.568.568,0,0,1,83.952,260.64Zm0,0" transform="translate(-50.748 -196.082)"/>
        <g id="Group_37709" data-name="Group 37709">
          <path id="Path_46896" data-name="Path 46896" class="cls-5" d="M215.825,433.463H199.6V417.8a.566.566,0,0,1,.566-.566H215.26a.565.565,0,0,1,.565.566Zm0,0" transform="translate(-150.175 -314.576)"/>
          <path id="Path_46897" data-name="Path 46897" class="cls-5" d="M215.26,354.874H200.168a.566.566,0,0,1-.566-.566V339.215a.565.565,0,0,1,.566-.566H215.26a.565.565,0,0,1,.565.566v15.093A.566.566,0,0,1,215.26,354.874Zm0,0" transform="translate(-150.175 -255.323)"/>
          <path id="Path_46898" data-name="Path 46898" class="cls-5" d="M215.26,276.281H200.168a.566.566,0,0,1-.566-.566V260.622a.566.566,0,0,1,.566-.567H215.26a.566.566,0,0,1,.565.567v15.093A.566.566,0,0,1,215.26,276.281Zm0,0" transform="translate(-150.175 -196.068)"/>
          <path id="Path_46899" data-name="Path 46899" class="cls-5" d="M215.26,197.768H200.168a.566.566,0,0,1-.566-.566V182.109a.566.566,0,0,1,.566-.566H215.26a.565.565,0,0,1,.565.566V197.2A.566.566,0,0,1,215.26,197.768Zm0,0" transform="translate(-150.175 -136.873)"/>
        </g>
        <g id="Group_37708" data-name="Group 37708" transform="translate(81.874 25.332)">
          <path id="Path_46900" data-name="Path 46900" class="cls-6" d="M347.7,433.463H331.473V417.8a.566.566,0,0,1,.566-.566h15.093a.566.566,0,0,1,.566.566Zm0,0" transform="translate(-331.473 -339.908)"/>
          <path id="Path_46901" data-name="Path 46901" class="cls-6" d="M347.131,354.874H332.039a.566.566,0,0,1-.566-.566V339.215a.565.565,0,0,1,.566-.566h15.093a.566.566,0,0,1,.566.566v15.093A.567.567,0,0,1,347.131,354.874Zm0,0" transform="translate(-331.472 -280.656)"/>
          <path id="Path_46902" data-name="Path 46902" class="cls-6" d="M347.131,276.281H332.039a.566.566,0,0,1-.566-.566V260.622a.566.566,0,0,1,.566-.567h15.093a.567.567,0,0,1,.566.567v15.093A.567.567,0,0,1,347.131,276.281Zm0,0" transform="translate(-331.472 -221.4)"/>
          <path id="Path_46903" data-name="Path 46903" class="cls-6" d="M347.131,197.768H332.039a.566.566,0,0,1-.566-.566V182.109a.566.566,0,0,1,.566-.566h15.093a.566.566,0,0,1,.566.566V197.2A.567.567,0,0,1,347.131,197.768Zm0,0" transform="translate(-331.472 -162.206)"/>
          <path id="Path_46904" data-name="Path 46904" class="cls-6" d="M347.131,119.179H332.039a.566.566,0,0,1-.566-.566V103.52a.566.566,0,0,1,.566-.566h15.093a.566.566,0,0,1,.566.566v15.093A.567.567,0,0,1,347.131,119.179Zm0,0" transform="translate(-331.472 -102.954)"/>
        </g>
        <path id="Path_46905" data-name="Path 46905" class="cls-7" d="M40.03,216.593A11.183,11.183,0,1,1,28.847,205.41,11.182,11.182,0,0,1,40.03,216.593Zm0,0" transform="translate(-13.004 -154.868)"/>
        <path id="Path_46906" data-name="Path 46906" class="cls-8" d="M42.159,241.9h-.064a1.557,1.557,0,0,1-1.123-.551l-2.556-3.02a1.556,1.556,0,0,1,2.377-2.01l1.462,1.728,5.471-5.471a1.556,1.556,0,0,1,2.2,2.2l-6.666,6.667a1.56,1.56,0,0,1-1.1.456Zm0,0" transform="translate(-28.372 -175.007)"/>
        <path id="Path_46907" data-name="Path 46907" class="cls-7" d="M171.924,138.109a11.183,11.183,0,1,1-11.183-11.183A11.183,11.183,0,0,1,171.924,138.109Zm0,0" transform="translate(-112.445 -95.695)"/>
        <path id="Path_46908" data-name="Path 46908" class="cls-8" d="M174.054,163.418h-.064a1.554,1.554,0,0,1-1.124-.55l-2.556-3.021a1.556,1.556,0,0,1,2.377-2.01l1.462,1.729,5.471-5.471a1.556,1.556,0,1,1,2.2,2.2l-6.666,6.666a1.55,1.55,0,0,1-1.1.456Zm0,0" transform="translate(-127.813 -115.836)"/>
        <g id="Group_37710" data-name="Group 37710">
          <path id="Path_46909" data-name="Path 46909" class="cls-9" d="M456.976,5.049l-4.9-4.681a1.322,1.322,0,0,0-1.83,0l-4.9,4.68a1.325,1.325,0,0,0,.915,2.283H449.6V19.1a1.556,1.556,0,1,0,3.112,0V7.331h3.343a1.324,1.324,0,0,0,.916-2.282Zm0,0" transform="translate(-335.145)"/>
          <path id="Path_46910" data-name="Path 46910" class="cls-9" d="M465.466,99.027a1.556,1.556,0,0,0-1.556,1.556V113.52a1.557,1.557,0,0,0,3.113,0V100.583A1.556,1.556,0,0,0,465.466,99.027Zm0,0" transform="translate(-349.45 -74.661)"/>
          <path id="Path_46911" data-name="Path 46911" class="cls-9" d="M116.016,182.086a1.556,1.556,0,0,0-1.556,1.556v69.065A3.467,3.467,0,0,1,111,256.171H1.973a1.556,1.556,0,1,0,0,3.112H111a6.584,6.584,0,0,0,6.576-6.576V183.642a1.556,1.556,0,0,0-1.557-1.556Zm0,0" transform="translate(0 -137.283)"/>
        </g>
        <path id="Path_46912" data-name="Path 46912" class="cls-7" d="M303.78,59.464A11.183,11.183,0,1,1,292.6,48.281,11.183,11.183,0,0,1,303.78,59.464Zm0,0" transform="translate(-211.858 -36.401)"/>
        <path id="Path_46913" data-name="Path 46913" class="cls-8" d="M307.759,67.428l.809,2.491a1.082,1.082,0,0,0,1.029.748h2.619a1.082,1.082,0,0,1,.636,1.957l-2.119,1.539a1.083,1.083,0,0,0-.393,1.21l.809,2.491a1.082,1.082,0,0,1-1.665,1.209l-2.118-1.54a1.082,1.082,0,0,0-1.273,0l-2.118,1.54a1.082,1.082,0,0,1-1.665-1.209l.809-2.491a1.083,1.083,0,0,0-.393-1.21l-2.119-1.539a1.082,1.082,0,0,1,.636-1.957h2.619a1.083,1.083,0,0,0,1.029-.748l.809-2.491a1.081,1.081,0,0,1,2.057,0Zm0,0" transform="translate(-225.991 -50.273)"/>
      </g>
      <g id="Group_37713" data-name="Group 37713">
        <g id="Group_37711" data-name="Group 37711" transform="translate(2467.877 1638.347)">
          <g id="Group_37591" data-name="Group 37591" transform="translate(18.629 1.607)">
            <g id="Group_37712" data-name="Group 37712" transform="translate(-3 1)">
              <path id="Path_46650" data-name="Path 46650" class="cls-10" d="M104.524,371.059a38.694,38.694,0,0,1-1.224,6.686,15.449,15.449,0,0,0,8.758-.377s.047-4.662-1.083-7.063C109.8,367.951,106.643,368.469,104.524,371.059Z" transform="translate(-86.83 -235.167)"/>
              <path id="Path_46651" data-name="Path 46651" class="cls-10" d="M151.469,370.35s.565,2.919,1.7,6.545c0,0-4.379,1.883-8.523.753,0,0-.565-4.615.565-7.2S149.4,367.948,151.469,370.35Z" transform="translate(-108.63 -235.023)"/>
              <path id="Path_46652" data-name="Path 46652" class="cls-11" d="M144.765,302.222s3.72,24.956,6.121,31.642a47.411,47.411,0,0,1-13.42,1.789s-2.972-25.111-1.983-29.019C136.52,302.679,141.987,297.937,144.765,302.222Z" transform="translate(-104.657 -198.255)"/>
              <path id="Path_46653" data-name="Path 46653" class="cls-11" d="M101.45,306.665s-.407,21.3-2.95,28.219c0,0,8.283,3.448,13.8,0,0,0,.989-25.832,0-29.552C111.26,301.611,104.322,302.1,101.45,306.665Z" transform="translate(-84.29 -198.285)"/>
              <path id="Path_46654" data-name="Path 46654" class="cls-12" d="M107.062,218.313c-.518,3.579-1.271,7.958-2.119,12.808a220.371,220.371,0,0,0-3.343,27.4s14.314,2.4,27.169-.659c0,0-4.144-26.039-7.016-41.86C119.681,204.281,108.522,207.907,107.062,218.313Z" transform="translate(-85.93 -150.461)"/>
              <path id="Path_46655" data-name="Path 46655" class="cls-13" d="M130.168,266.2l-1.978-23.5,1.13-2.4-2.213-1.554V238.7h-.047v.047l-2.166,1.554,1.083,2.4L124,266.2" transform="translate(-97.783 -166.328)"/>
              <path id="Path_46656" data-name="Path 46656" class="cls-14" d="M136.815,231.3l-1.507,8.476-4.709-4.52Z" transform="translate(-101.275 -162.412)"/>
              <path id="Path_46657" data-name="Path 46657" class="cls-14" d="M117.4,231.3l1.6,8.381,4.567-4.426Z" transform="translate(-94.29 -162.412)"/>
              <path id="Path_46658" data-name="Path 46658" class="cls-15" d="M129.2,225.55l2.119,4.285a9.153,9.153,0,0,0,4.85-6.357s-.424-2.4-.895-2.778C135.227,220.7,132.92,224.7,129.2,225.55Z" transform="translate(-100.534 -156.804)"/>
              <path id="Path_46659" data-name="Path 46659" class="cls-15" d="M121.422,227.243l-2.59,3.673A6.264,6.264,0,0,1,114.5,226.3s.612-2.072,1.224-2.4A8.557,8.557,0,0,0,121.422,227.243Z" transform="translate(-92.756 -158.497)"/>
              <path id="Path_46660" data-name="Path 46660" class="cls-16" d="M92.559,237.484s-7.2,6.4-8.523,12.76,6.733,16.48,6.733,16.48,6.969-2.072,4.426-4.615c-2.919-2.872-7.3-8.24-7.3-10.83.047-2.59,6.545-11.725,6.545-11.725S96.749,235.977,92.559,237.484Z" transform="translate(-76.559 -165.489)"/>
              <path id="Union_123" data-name="Union 123" class="cls-8" d="M-2436.741-1609.525c.471-4.19-.895-10.5.518-14.079a6.649,6.649,0,0,0,.264-.978c-1.379,1.542-3.78,4.016-5.585,4.745-2.684,1.084-3.249-8.051-6.451-13.419s9.653-13.938,9.653-13.938,9.1-10.571,6.5,3.736c.57.938,1.33,2.181,2.541,2.245.941.047.047,1.083,5.744,11.254.048.047.094.047.094,0,1.083-3.437,3.437-11.442,4.9-11.819,1.931-.471.895-1.836,2.167-1.648.422.074.783.157,1.1.239a36.974,36.974,0,0,0,2.424-6.11s5.629,14.009,19.534,0a8.312,8.312,0,0,1,2.1,0c10.3.935-2.1,7.078-2.1,7.078s-10.8,9.593-15.237,5.76a18.423,18.423,0,0,0-3.5-2.36c1.962,9.854,2.514,29.011,2.514,29.011-5,.513-10.219.669-14.732.669C-2431.4-1609.138-2436.741-1609.525-2436.741-1609.525Zm1.181-17.347c.6-3.941,1.269-10.235,1.691-13.678C-2442.652-1638.9-2437.569-1629.917-2435.56-1626.872Z" transform="translate(2452.411 1719.001)"/>
              <path id="Union_124" data-name="Union 124" class="cls-17" d="M-2431.791-1650.954l3.014,2.307.094,5.886-2.307,1.177,1.553,1.318-9.182,10.547Zm-15.962,10.688,1.507-1.318-2.26-1.177.048-5.886,3.013-2.307,6.827,21.235Z" transform="translate(2467.567 1718.476)"/>
              <g id="Group_37589" data-name="Group 37589">
                <path id="Path_46671" data-name="Path 46671" class="cls-16" d="M173.356,172.042s1.224-4.238,5.085-3.531,1.836,13.325-4.426,10.783A20.507,20.507,0,0,1,173.356,172.042Z" transform="translate(-123.878 -129.146)"/>
                <path id="Path_46672" data-name="Path 46672" class="cls-16" d="M76.269,172.642s-1.413-4.238-5.745-3.531-2.072,13.42,4.991,10.877C75.562,179.941,76.551,177.351,76.269,172.642Z" transform="translate(-68.321 -129.464)"/>
                <path id="Path_46673" data-name="Path 46673" class="cls-16" d="M84.69,117.839c-1.318,1.883-8.1,27.875-6.78,36.209,1.366,8.334,16.716,17.139,24.344,17.139,10.971,0,23.167-10.076,23.637-17.187.706-10.642-2.872-35.786-4.238-38.281C117.321,107.621,92.318,107.056,84.69,117.839Z" transform="translate(-73.305 -98.063)"/>
                <path id="Path_46674" data-name="Path 46674" class="cls-18" d="M123.563,130.2l-.518.612s-.188-9.511-.8-11.913c0,0-1.413-5.368-3.579-6.451,0,0,1.931-6.639-3.108-8.805A23.759,23.759,0,0,1,99.5,109.767,22.86,22.86,0,0,1,86.27,106a6.745,6.745,0,0,0-.283,5.65s-4.049,4.285-4.567,9.511c0,0-.188,6.828.094,8.617a10.091,10.091,0,0,1-1.789-1.7,9.3,9.3,0,0,1-1.978-4.379c-1.224-4.9-1.224-12.337-.141-16.292,0,0,1.554-6.686,2.919-7.2,0,0-3.108-9.511-2.448-11.913,0,0,1.836,4.614,7.958,4.1,0,0-2.59-3.579-2.025-7.393,0,0,4.662,3.437,9.606,2.543a24.339,24.339,0,0,0,5.18-1.13,12.955,12.955,0,0,1,2.637-.753c3.484-.612,10.877-1.271,14.5,3.2,0,0,2.825,2.966,3.3,5.933,0,0,7.628,5.321,8,14.644a62.4,62.4,0,0,1-.188,12.713,20.674,20.674,0,0,1-1.931,5.98h0A21.6,21.6,0,0,1,123.563,130.2Z" transform="translate(-72.813 -85)"/>
              </g>
              <path id="Path_46667" data-name="Path 46667" class="cls-16" d="M102.184,289.459s4.756,1.177,3.955,3.531-3.673.471-3.673.471,2.684,5.745-.471,7.2c-3.155,1.507-5.6-2.072-5.745-4.52s0-5.745,1.318-7.44C98.888,286.964,102.184,289.459,102.184,289.459Z" transform="translate(-83.076 -192.461)"/>
            </g>
          </g>
        </g>
        <path id="Path_46916" data-name="Path 46916" class="cls-16" d="M3.777,11.8S-.623,10.632.139,8.272C.9,5.866,3.563,7.76,3.563,7.76S1.12,1.962,4.08.421,9.248,2.472,9.35,4.962s-.024,5.876-1.3,7.584C6.82,14.3,3.777,11.8,3.777,11.8Z" transform="translate(2552.806 1703.836) rotate(82)"/>
      </g>
    </g>
  </g>
</svg>
