<svg xmlns="http://www.w3.org/2000/svg" viewBox="0 0 160 160">
  <defs>
    <style>
      .cls-1, .cls-13 {
        fill: #fff;
      }

      .cls-1 {
        stroke: #707070;
        opacity: 0;
      }

      .cls-2 {
        fill: #ffaeae;
      }

      .cls-3 {
        fill: #97564a;
      }

      .cls-4 {
        fill: #efedee;
      }

      .cls-5 {
        fill: #ababab;
      }

      .cls-6 {
        fill: #b7f9ff;
      }

      .cls-7 {
        fill: #64e2ee;
      }

      .cls-8 {
        fill: #f88282;
      }

      .cls-9 {
        fill: #c86d5c;
      }

      .cls-10 {
        fill: #212121;
      }

      .cls-11 {
        fill: #284547;
      }

      .cls-12 {
        fill: #32c5d2;
      }

      .cls-14 {
        fill: #fbe9e7;
      }

      .cls-15 {
        fill: #5d5d5d;
      }

      .cls-16 {
        stroke: none;
      }

      .cls-17 {
        fill: none;
      }
    </style>
  </defs>
  <g id="box-1" transform="translate(-2526 -1593)">
    <g id="Rectangle_9209" data-name="Rectangle 9209" class="cls-1" transform="translate(2526 1593)">
      <rect class="cls-16" width="160" height="160"/>
      <rect class="cls-17" x="0.5" y="0.5" width="159" height="159"/>
    </g>
    <rect id="Rectangle_9234" data-name="Rectangle 9234" class="cls-2" width="160" height="160" rx="80" transform="translate(2526 1593)"/>
    <g id="Group_37666" data-name="Group 37666" transform="translate(497.181 -30.444)">
      <g id="goal" transform="translate(2045 1634.444)">
        <g id="Group_37665" data-name="Group 37665" transform="translate(108.436 0)">
          <path id="Path_46788" data-name="Path 46788" class="cls-3" d="M412.694.981l-9.407,9.407a3.326,3.326,0,0,0-.974,2.352V28.62L418.371,7.725V3.332A3.326,3.326,0,0,0,412.694.981Z" transform="translate(-402.312 0)"/>
          <path id="Path_46789" data-name="Path 46789" class="cls-3" d="M431.1,50.107h-4.393L405.817,66.166H421.7a3.325,3.325,0,0,0,2.352-.974l9.408-9.407A3.326,3.326,0,0,0,431.1,50.107Z" transform="translate(-404.872 -36.602)"/>
        </g>
        <path id="Path_46790" data-name="Path 46790" class="cls-4" d="M64.306,163.446a64.306,64.306,0,1,1,64.306-64.305A64.378,64.378,0,0,1,64.306,163.446Z" transform="translate(0 -25.446)"/>
        <path id="Path_46791" data-name="Path 46791" class="cls-5" d="M101.229,186.745a50.681,50.681,0,1,1,50.681-50.682A50.739,50.739,0,0,1,101.229,186.745Z" transform="translate(-36.924 -62.369)"/>
        <path id="Path_46792" data-name="Path 46792" class="cls-6" d="M138.152,210.045a37.057,37.057,0,1,1,37.057-37.057A37.1,37.1,0,0,1,138.152,210.045Z" transform="translate(-73.847 -99.293)"/>
        <path id="Path_46793" data-name="Path 46793" class="cls-7" d="M175.075,233.343a23.433,23.433,0,1,1,23.433-23.433A23.46,23.46,0,0,1,175.075,233.343Z" transform="translate(-110.77 -136.215)"/>
        <ellipse id="Ellipse_1525" data-name="Ellipse 1525" class="cls-8" cx="9.81" cy="9.81" rx="9.81" ry="9.81" transform="translate(54.495 63.885)"/>
        <path id="Path_46794" data-name="Path 46794" class="cls-9" d="M235.339,88.851a4.087,4.087,0,0,0,5.78,5.78l60.189-60.189-5.78-5.78Z" transform="translate(-171.034 -20.937)"/>
      </g>
      <g id="ico-144" transform="translate(-429 729)">
        <g id="Group_37656" data-name="Group 37656" transform="translate(2462.819 905.831)">
          <g id="Group_37651" data-name="Group 37651" transform="translate(4.843 0)">
            <path id="Path_9725_1_" class="cls-10" d="M576.2,282.714c-.2,2.318-.5,4.58-.9,6.843,0,0,4.851,1.324,9.052-.386,0,0-.05-4.8-1.6-7.23C581.251,279.514,578.1,280.065,576.2,282.714Z" transform="translate(-535.243 -152.433)"/>
            <path id="Path_9726_1_" class="cls-11" d="M570.809,253.492s1.65,15.016,0,24.7c0,0,5.05,2.761,13.4-1.4,0,0-1.9-19.742-3.5-25.037C579.061,246.533,573.11,246.986,570.809,253.492Z" transform="translate(-532.35 -146.748)"/>
            <path id="Path_9727_1_" class="cls-10" d="M552.1,279.166c.15,2.318.4,4.58.75,6.843,0,0-4.251,1.324-7.852-.386,0,0,0-4.8,1.4-7.23C547.8,275.91,550.551,276.4,552.1,279.166Z" transform="translate(-520.738 -149.164)"/>
            <path id="Path_9728_1_" class="cls-11" d="M552.147,245.05c2.351,5.461-.549,16.656.806,25.1,0,0-5.25,3.63-12.452,0,0,0,1.7-17.224,3.051-21.843C545,243.756,549.8,239.591,552.147,245.05Z" transform="translate(-518.507 -139.288)"/>
            <path id="Union_80" data-name="Union 80" class="cls-12" d="M11.541,38.972s2.365-18.724,3.476-27.532c-1.258,1.509-2.964-1.722,0,0C16.549-.654,29.816-5.534,33.445,8.73c0,0,5.051,15.287,5.7,30.242a41.174,41.174,0,0,1-13.87,2.257,42.261,42.261,0,0,1-13.736-2.258Z" transform="translate(11.484 66.48)"/>
            <path id="Path_12465" data-name="Path 12465" class="cls-13" d="M566.55,189.421v1.656l-1.35,23.675,2.65,6.954,3.5-6.236L567.4,191.353,569,189.2Z" transform="translate(-530.466 -117.907)"/>
            <path id="Union_113" data-name="Union 113" class="cls-13" d="M7.792,5.022c3.5-.829,5.6-4.968,5.6-5.022a9.6,9.6,0,0,1,.851,2.869,9.218,9.218,0,0,1-4.5,6.568ZM0,4.039s.549-2.1,1.15-2.483A7.754,7.754,0,0,0,6.5,5.032L4.051,8.785S1.05,8.124,0,4.039Z" transform="translate(30.014 72.355)"/>
            <path id="Union_79" data-name="Union 79" class="cls-14" d="M31.407,65.395c-12.068-.661-20.1-5.021-23.516-11.206q-.258-.476-.481-.991c-2.419,3.525-7.43,2.163-4.854-5.076C3.9,44.314-1.332,41.39.328,35.484,1,32.992,4.246,32.153,6.625,33.2A124,124,0,0,1,9.911,18.487C13.9,4.691,26.849,0,36.432,0,48.294-.055,58.912,5.74,61.14,20.308c.833,5.448,1.579,11,1.929,16.174,2.178-1.745,6.239-1.1,6.877,1.489,1.243,5.128-3.731,7.393-2.59,10.649,2.223,6.8-3.377,7.358-5.082,3.286A14.521,14.521,0,0,1,60.053,56.9c-5.372,7.164-9.8,8.855-18.93,8.855C38.365,65.754,35.179,65.6,31.407,65.395Z" transform="translate(0.001 13.443)"/>
            <path id="Path_12468" data-name="Path 12468" class="cls-15" d="M566.277,107.77s4.219-22.35-1.875-23.9c0,0,2.084-4.691-1.146-8.385a16.142,16.142,0,0,1-3.489-6.4,12.854,12.854,0,0,0,0,3.477s-3.75-4.3-7.239-5.463c0,0,2.344,2.539,1.875,3.7,0,0-2.448-5.132-10.051-6.236,0,0,3.021,2.153,2.812,3.091a9.759,9.759,0,0,0-5.26-3.091s1.1.994,1.041,1.38a33.053,33.053,0,0,0-4.635-1.656s1.51.994,1.146,1.048c-.26.055-3.958-.331-4.427-1.711A1.272,1.272,0,0,0,535.5,65s-3.125-.221-3.958-1.159a1.8,1.8,0,0,0,1.1,1.324s-3.854-.718-5.469-1.766a9.962,9.962,0,0,0,2.448,1.821s-5.1.441-6.979-.165a3.056,3.056,0,0,0,1.823,1.324,5.149,5.149,0,0,1-2.188-.11s1.2,1.711.47,1.932a1.039,1.039,0,0,1-1.3-1.048s-.627,1.159-1.458,1.048c-.885-.11.157-1.711.157-1.711a11.4,11.4,0,0,0-5.677,3.37c-2.031,2.594-4.219,8.057-4.219,8.057s-3.542,8.385-3.438,12.913c.208,10.044,1.146,19.37,2.5,21.578,0,0,.627-8.719,4.375-10.872.885-.5-1.1-6.567,1.667-10.982,3.437-5.407,6.406-4.746,13.958-2.649,10.208,2.815,18.958-2.539,21.978-2.262,11.979,1.048,8.7,14.514,10.1,16.446,3.125,4.415,2.761,7.395,4.635,10.319Z" transform="translate(-502.581 -63.404)"/>
          </g>
          <path id="Path_9731_1_" class="cls-12" d="M16,7.045S18.809,2.2,16.1,0c-3.2.627-3.745,1.808-3.745,1.808A43.435,43.435,0,0,0,3.33,10.192C-.634,15.235-.422,16.855.724,18.825s3.975.915,6.533-.08C7.667,16.885,10.662,7.095,16,7.045Z" transform="translate(59.244 93.507) rotate(-138.999)"/>
          <path id="Path_9732_1_" class="cls-14" d="M1.834,10.37S-1.456,6,.777,4.325C2.892,2.652,4.183,6.384,4.183,6.384S5.476-.823,9.118.078c3.642.773,3.407,5.791,2,8.111s-3.642,5.4-5.875,5.917C3.126,15.008,1.834,10.37,1.834,10.37Z" transform="matrix(0.928, 0.375, -0.375, 0.928, 68.983, 66.195)"/>
          <path id="Path_9731_1_2" data-name="Path_9731_1_" class="cls-12" d="M16.88,13.658s3.064,5.067.324,7.241c-3.335-.745-3.938-1.976-3.938-1.976a49.1,49.1,0,0,1-9.614-8.9C-.613,4.72-.444,3.063.681,1.075S4.772.26,7.454,1.363C7.937,3.287,11.348,13.439,16.88,13.658Z" transform="matrix(0.755, -0.656, 0.656, 0.755, 8.375, 78.46)"/>
          <path id="Path_9732_1_2" data-name="Path_9732_1_" class="cls-14" d="M1.84,3.826S-1.535,8.166.857,9.9c2.269,1.735,3.549-2,3.549-2s1.523,7.3,5.346,6.475c3.826-.7,3.467-5.771,1.928-8.143S7.719.7,5.352.13C3.1-.827,1.84,3.826,1.84,3.826Z" transform="matrix(-0.927, 0.375, -0.375, -0.927, 17.252, 79.36)"/>
        </g>
      </g>
    </g>
  </g>
</svg>
