<svg id="checked1" xmlns="http://www.w3.org/2000/svg" viewBox="0 0 504.12 504.12">
  <defs>
    <style>
      .cls-1 {
        fill: #32c5d2;
      }

      .cls-2 {
        fill: #37a18e;
      }

      .cls-3 {
        fill: #f2f1ef;
      }

      .cls-4 {
        fill: #e6e5e3;
      }
    </style>
  </defs>
  <circle id="Ellipse_1524" data-name="Ellipse 1524" class="cls-1" cx="252.06" cy="252.06" r="252.06" transform="translate(0 0)"/>
  <path id="Path_46785" data-name="Path 46785" class="cls-2" d="M463.163,114.609,240.246,345.4l.394,24.812h10.24l241.428-194.56A256.324,256.324,0,0,0,463.163,114.609Z"/>
  <path id="Path_46786" data-name="Path 46786" class="cls-3" d="M499.4,103.582,454.892,59.471c-5.908-5.908-15.754-5.908-22.055,0L242.609,256l-82.314-81.132c-5.908-5.908-15.754-5.908-22.055,0L98.855,213.859a15.453,15.453,0,0,0,0,21.662L230.4,365.883c3.545,3.545,8.271,4.726,13,4.332,4.726.394,9.452-.788,13-4.332l243-240.246C505.3,119.335,505.3,109.489,499.4,103.582Z"/>
  <path id="Path_46787" data-name="Path 46787" class="cls-4" d="M256.394,365.883l243-240.246a15.453,15.453,0,0,0,0-21.662l-7.089-6.695L243,342.252l-137.846-134.3-5.908,5.908a15.453,15.453,0,0,0,0,21.662L230.794,365.884c3.545,3.545,8.271,4.726,13,4.332A15.61,15.61,0,0,0,256.394,365.883Z"/>
</svg>
