<svg xmlns="http://www.w3.org/2000/svg" xmlns:xlink="http://www.w3.org/1999/xlink" viewBox="0 0 560 143">
  <defs>
    <style>
      .cls-1, .cls-11, .cls-16 {
        fill: #fff;
      }

      .cls-1 {
        stroke: #707070;
        opacity: 0;
      }

      .cls-2 {
        clip-path: url(#clip-path);
      }

      .cls-3 {
        fill: rgba(50,197,210,0.35);
        opacity: 0.59;
      }

      .cls-4 {
        fill: rgba(50,197,210,0.44);
      }

      .cls-17, .cls-20, .cls-5, .cls-6 {
        fill: #32c5d2;
      }

      .cls-5 {
        opacity: 0.18;
      }

      .cls-6 {
        opacity: 0.17;
      }

      .cls-7 {
        fill: #bdbdbd;
      }

      .cls-8 {
        clip-path: url(#clip-path-2);
      }

      .cls-9 {
        fill: #fbe9e7;
      }

      .cls-10 {
        fill: #212121;
      }

      .cls-12 {
        fill: #5c5c5c;
      }

      .cls-13 {
        fill: #616161;
      }

      .cls-14, .cls-15, .cls-19 {
        fill: none;
      }

      .cls-14, .cls-15 {
        stroke: silver;
        stroke-miterlimit: 10;
      }

      .cls-14 {
        stroke-width: 0.669px;
      }

      .cls-15 {
        stroke-width: 0.335px;
      }

      .cls-17 {
        font-size: 14px;
        font-family: ArialMT, Arial;
      }

      .cls-18, .cls-20 {
        stroke: none;
      }
    </style>
    <clipPath id="clip-path">
      <rect id="Rectangle_9214" data-name="Rectangle 9214" class="cls-1" width="560" height="143" transform="translate(2974 1990)"/>
    </clipPath>
    <clipPath id="clip-path-2">
      <circle id="Ellipse_1508" data-name="Ellipse 1508" cx="40" cy="40" r="40"/>
    </clipPath>
  </defs>
  <g id="img-1" transform="translate(-2974 -1990)">
    <g id="Rectangle_9213" data-name="Rectangle 9213" class="cls-1" transform="translate(2974 1990)">
      <rect class="cls-18" width="560" height="143"/>
      <rect class="cls-19" x="0.5" y="0.5" width="559" height="142"/>
    </g>
    <g id="Mask_Group_157" data-name="Mask Group 157" class="cls-2">
      <circle id="Ellipse_1528" data-name="Ellipse 1528" class="cls-3" cx="71.5" cy="71.5" r="71.5" transform="translate(3244 1990)"/>
      <circle id="Ellipse_1534" data-name="Ellipse 1534" class="cls-4" cx="44.5" cy="44.5" r="44.5" transform="translate(3069 2002)"/>
      <circle id="Ellipse_1533" data-name="Ellipse 1533" class="cls-5" cx="29.5" cy="29.5" r="29.5" transform="translate(3475 2062)"/>
      <path id="Path_47177" data-name="Path 47177" class="cls-6" d="M11,0A11,11,0,1,1,0,11,11,11,0,0,1,11,0Z" transform="translate(2974 2111)"/>
    </g>
    <g id="Group_37548" data-name="Group 37548" transform="translate(3354 2008)">
      <g id="Group_37547" data-name="Group 37547">
        <circle id="Ellipse_1507" data-name="Ellipse 1507" class="cls-7" cx="40" cy="40" r="40"/>
        <g id="Group_37546" data-name="Group 37546" class="cls-8">
          <path id="Path_46551" data-name="Path 46551" class="cls-9" d="M360.779,412.021s-5.45,4.8-6.4,9.6c-1,4.8,4.55,8.8,4.55,8.8s3.3-2.4,1.4-4.3c-2.2-2.15-3.05-1.75-3.05-3.7s4.9-8.8,4.9-8.8S363.88,410.869,360.779,412.021Z" transform="translate(-329.48 -348.569)"/>
          <path id="Path_46552" data-name="Path 46552" class="cls-9" d="M405.151,413.637s4.7,5.05,6.4,9.6c1.8,4.8-6.25,8-6.25,8s-4.85-5.65-1.3-5.1c3.05.45,4.7-.15,4.649-2.1,0-1.946-4.9-8.8-4.9-8.8S402,412.537,405.151,413.637Z" transform="translate(-353.701 -349.387)"/>
          <path id="Union_86" data-name="Union 86" class="cls-10" d="M2.2,28.453S3.253,20.967,4.163,14.48A6.668,6.668,0,0,1,0,11.345s2.753-3.7,5.05-3.208C6.395-.548,16.942-3.956,19.849,6.4c0,0,.248.675.63,1.856,2.36-1.017,5.42,3.09,5.42,3.09a6.671,6.671,0,0,1-3.68,3,73.719,73.719,0,0,1,2.231,14.113A38.332,38.332,0,0,1,13.324,30.1,38.332,38.332,0,0,1,2.2,28.453Z" transform="translate(27.201 53.401)"/>
          <path id="Path_46553" data-name="Path 46553" class="cls-9" d="M365.019,439.167s3.55.9,2.95,2.65-2.75.35-2.75.35,2,4.3-.35,5.4c-2.4,1.1-4.2-1.55-4.3-3.4s0-4.35,1-5.6C362.52,437.317,365.019,439.167,365.019,439.167Z" transform="translate(-332.619 -361.767)"/>
          <path id="Path_46554" data-name="Path 46554" class="cls-9" d="M398.381,438.367s-3.55.9-2.95,2.65,2.75.35,2.75.35-2,4.3.35,5.4c2.4,1.1,4.2-1.55,4.3-3.4s0-4.35-1-5.6S398.381,438.367,398.381,438.367Z" transform="translate(-350.032 -360.285)"/>
          <g id="Group_37545" data-name="Group 37545" transform="translate(35.204 54.898)">
            <path id="Path_46555" data-name="Path 46555" class="cls-11" d="M383.45,402.7v1.25L382.4,421.2l2.1,5.1,2.85-4.55-3.2-17.6,1.3-1.55Z" transform="translate(-378.755 -398.898)"/>
            <path id="Path_46556" data-name="Path 46556" class="cls-12" d="M385.5,398.9l1.55,3.2a6.934,6.934,0,0,0,3.65-4.8,6.811,6.811,0,0,0-.7-2.1A7.784,7.784,0,0,1,385.5,398.9Z" transform="translate(-380.304 -395.199)"/>
            <path id="Path_46557" data-name="Path 46557" class="cls-12" d="M380.3,400.1l-1.946,2.75a4.714,4.714,0,0,1-3.25-3.45s.45-1.55.95-1.8A6.088,6.088,0,0,0,380.3,400.1Z" transform="translate(-375.104 -396.399)"/>
          </g>
          <path id="Union_87" data-name="Union 87" class="cls-9" d="M24.406,47.753c-9.406-.45-15.65-3.65-18.3-8.2q-.177-.307-.332-.636C3.883,41.482-.009,40.492,2.007,35.2c1.05-2.8-3.048-4.9-1.75-9.25.542-1.8,3.016-2.4,4.864-1.663A88.052,88.052,0,0,1,7.656,13.5C10.806,3.45,20.857.05,28.356,0c9.2,0,17.5,4.2,19.2,14.85.636,3.986,1.216,8.049,1.491,11.827,1.691-1.29,4.866-.821,5.359,1.073,1,3.751-2.9,5.4-2,7.8,1.765,5.023-2.659,5.395-3.968,2.374a10.158,10.158,0,0,1-1.732,3.628c-4.166,5.236-7.6,6.47-14.642,6.47C29.9,48.023,27.386,47.906,24.406,47.753Z" transform="translate(11.894 14.899)"/>
          <path id="Path_9749_2_" class="cls-10" d="M336.519,326.888c-.5-4.45-1.1-11.25,1-18.15,1.3-4.35,3.1-10.4,7.15-12.3,4.95-2.4,1.6,1.3,12.05-1.25,4.45-1.1,8.6-3.6,15.95-1.75,0,0,7.25,2.75,9.9,19.45v.05a53.709,53.709,0,0,1,.995,11.648c0,1.1-.85,6.4-1.7,7.05-1.25,1.05-1.3-.15-1.45-.2-.45-.15.4-6.4.25-6.85-.5-2.8-2.65-11.65-7.2-13.7,0,0-2.85-.85-7.3,1.65-8.7,4.8-12.95,1.05-14.1.75-.05,0-1.45-.75-1.55-.8-.85-.4-6.054-2.35-8.4,2.55,0,.05-.05.1-.1.15-.35.55-2.5,4-3.05,11.65-.05.45-1.35,5.05-1.45,5.65h0C337.469,332.188,336.819,329.234,336.519,326.888Z" transform="translate(-320.369 -289.088)"/>
        </g>
      </g>
    </g>
    <g id="Group_37578" data-name="Group 37578" transform="translate(3221 2046)">
      <g id="Group_37577" data-name="Group 37577">
        <circle id="Ellipse_1513" data-name="Ellipse 1513" class="cls-7" cx="40" cy="40" r="40"/>
        <g id="Group_37576" data-name="Group 37576" class="cls-8">
          <path id="Union_107" data-name="Union 107" class="cls-13" d="M47.2,26.332a43.12,43.12,0,0,1-3.486-9.23c.012.112.025.222.038.332.4,3.049.849,5.35,1.249,7.15a33,33,0,0,0,1.155,3.751,6,6,0,0,0,.5,1.1,110.393,110.393,0,0,1-11,1,72.709,72.709,0,0,1-8.2-.05c-2.251-.149-3.95-.349-5.1-.5a17.459,17.459,0,0,1-1.75-.3c.846-3.051,1.5-5.406,1.946-7.352q.045-.188.088-.377l-.042.076a31.088,31.088,0,0,1-6.55,8.2A31.946,31.946,0,0,1,5.7,36.284s-.3-.15-.75-.4a17.771,17.771,0,0,1-1.7-1.249,12.123,12.123,0,0,1-1.9-2.2A10.1,10.1,0,0,1,0,29.185a28.989,28.989,0,0,0,3.25-1.3,40.292,40.292,0,0,0,7.2-4.25,27.883,27.883,0,0,0,7.2-7.649,21,21,0,0,0,3.3-11.45,1.306,1.306,0,0,1,.45-.95,1.512,1.512,0,0,1,1.1-.5,1.975,1.975,0,0,1,1.406.7q.2.215.376.448A5.835,5.835,0,0,1,26.2,2.384a14.641,14.641,0,0,1,6.7-2.3,12.64,12.64,0,0,1,6.8,1.1,5.5,5.5,0,0,1,2.756,2.739,24.911,24.911,0,0,1,.393-3.59,3.545,3.545,0,0,1,1.151.9,4.266,4.266,0,0,1,.7,1.05,7.854,7.854,0,0,1,.35.849c.05.2.1.35.1.35a39.382,39.382,0,0,0,4,13.3,35.672,35.672,0,0,0,6.2,8.649,35.018,35.018,0,0,0,5.7,4.7,22.435,22.435,0,0,0,2.5,1.4,6.874,6.874,0,0,1-.9,3.4,8.921,8.921,0,0,1-2,2.45,13.122,13.122,0,0,1-2,1.45,6.9,6.9,0,0,1-.9.5A42.565,42.565,0,0,1,47.2,26.332Z" transform="translate(8.048 64.366)"/>
          <g id="Group_37569" data-name="Group 37569" transform="translate(30.065 62.85)">
            <path id="Union_108" data-name="Union 108" class="cls-11" d="M14.034,8.85c-.5-.349-1.05-.8-1.6-1.25s-1.051-.9-1.45-1.249c-.2-.175-.361-.312-.473-.406-.1.09-.229.21-.375.357-.35.3-.849.75-1.35,1.15s-1.049.85-1.5,1.15a3.424,3.424,0,0,1-.95.551,7.415,7.415,0,0,1-1.5-.751,17.909,17.909,0,0,1-2.55-1.85,8.346,8.346,0,0,1-2-2.3,1.8,1.8,0,0,1,.2-2.2,3.685,3.685,0,0,1,2-.964A11.357,11.357,0,0,1,3.786.75,34.588,34.588,0,0,1,7.485.2c1.35-.1,2.75-.2,4.2-.2a33.7,33.7,0,0,1,4,.25A16.872,16.872,0,0,1,18.934.9q.314.076.62.18a3.891,3.891,0,0,1,1.88.972,1.8,1.8,0,0,1,.2,2.3,8.814,8.814,0,0,1-2.2,2.4,25.359,25.359,0,0,1-2.8,1.9,8.3,8.3,0,0,1-1.6.75A2.488,2.488,0,0,1,14.034,8.85Z" transform="translate(0)"/>
          </g>
          <g id="Group_37554" data-name="Group 37554" transform="translate(6.144 2.07)">
            <path id="Path_46585" data-name="Path 46585" class="cls-10" d="M69.943,340.521c2.2,5.9,3.8,19.6.2,25.1,9.85-15.25,8.75-32.95,7.95-49.75-.6-13.45-13.35-25.1-28.85-25.8-5.55-.25-12.05,1.1-14.4,5.5-5.05-1.25-10.55.8-14.25,4.1-18.9,16.75-.649,45.8,9.8,62-2.95-4.55-1.7-11.25-3-16.2-1.2-4.6-2.054-7.55,1.05-12.05a2.261,2.261,0,0,1,1.1-.95,1.9,1.9,0,0,1,2.054.7,4.42,4.42,0,0,1,.75,1.946c1.3,5.9,2.65,14.85,7.25,19.6,4.15,4.3,13.475-1.45,16.375-7.15,3.25-6.4,7.325-5.5,10.375-12.2.7-.45,1.5.4,1.85,1.1C68.793,337.721,69.393,339.121,69.943,340.521Z" transform="translate(-12.387 -290.042)"/>
          </g>
          <path id="Union_85" data-name="Union 85" class="cls-9" d="M19.369,50.475a43.861,43.861,0,0,1-8.35-3.8,40.847,40.847,0,0,1-6.2-4.5c-1.551-1.4-2.451-2.7-2.5-3.5q-.023-.876,0-1.753a2.364,2.364,0,0,1-.368-.271,5.491,5.491,0,0,1-1.65-3A9.164,9.164,0,0,1,.1,30c.2-1.049.651-1.9,1.35-2.1a2.559,2.559,0,0,1,1.85.049l.018.008c.2-1.231.414-2.488.65-3.737.551-2.9,1.2-5.75,1.9-8.15a19.791,19.791,0,0,1,2.184-5.29l.077-.1a27.587,27.587,0,0,1,10.3-8.9,21.228,21.228,0,0,1,10.8-1.65,24.523,24.523,0,0,1,9.45,3.1,20.276,20.276,0,0,1,6.4,5.55,26.653,26.653,0,0,1,2.5,5.3c.894,2.4,1.8,5.2,2.595,8.1s1.5,5.851,1.946,8.5a30.733,30.733,0,0,1,.551,6.5c-.051,1.05-.9,2.45-2.3,4a31.449,31.449,0,0,1-5.649,4.8,38.05,38.05,0,0,1-7.751,4.1,27.614,27.614,0,0,1-8.649,1.85h-.249A26.825,26.825,0,0,1,19.369,50.475ZM8.064,10.759l-.013.022-.024.032Zm.053-.088c1.9-2.62,1.237-1.7.577-.79-.267.371-.534.743-.63.878Z" transform="translate(13.634 17.43)"/>
          <g id="Group_37575" data-name="Group 37575" transform="translate(15.901 16.724)">
            <path id="Path_46629" data-name="Path 46629" class="cls-10" d="M83.35,325.375c-.75-.45-12.45-5.9-13.3-6s-21.2.1-21.75.55c-.6.4-13.946,7.25-15,7.351l-1.4,15.1,1.75,9.45s.45-12.2,2.8-16.1c2.45-4.1,8.2-6.85,11.65-10.55-3.15,3.4,13.946,6.9,15.351,7.25a16.7,16.7,0,0,1,11.9,12.7,60.239,60.239,0,0,1-.45,26.55,39.51,39.51,0,0,0,9.4-17.946c.95-4.9,2.2-11.5,1.55-16.3C85.55,335.125,85.8,326.825,83.35,325.375Z" transform="translate(-31.9 -319.349)"/>
          </g>
          <g id="Group_37572" data-name="Group 37572" transform="translate(29.75 24.901)">
            <g id="Group_37571" data-name="Group 37571">
              <path id="Path_46627" data-name="Path 46627" class="cls-14" d="M59.6,335.7" transform="translate(-59.6 -335.7)"/>
            </g>
          </g>
          <g id="Group_37574" data-name="Group 37574" transform="translate(47.65 23.499)">
            <g id="Group_37573" data-name="Group 37573">
              <path id="Path_46628" data-name="Path 46628" class="cls-15" d="M95.4,332.9" transform="translate(-95.4 -332.9)"/>
            </g>
          </g>
        </g>
      </g>
    </g>
    <g id="Group_37722" data-name="Group 37722" transform="translate(3015 2016)">
      <g id="Path_47145" data-name="Path 47145" class="cls-16">
        <path class="cls-18" d="M 177.905517578125 67.96108245849609 L 141.3052978515625 51.54380035400391 L 141.2076721191406 51.5 L 141.1006774902344 51.5 L 12 51.5 C 8.928224563598633 51.5 6.040325164794922 50.30379867553711 3.868274927139282 48.1317253112793 C 1.696200013160706 45.95967483520508 0.5 43.07177352905273 0.5 40 L 0.5 12 C 0.5 8.928224563598633 1.696200013160706 6.040325164794922 3.868274927139282 3.868274927139282 C 6.040325164794922 1.696200013160706 8.928224563598633 0.5 12 0.5 L 186 0.5 C 189.0717468261719 0.5 191.9596557617188 1.696200013160706 194.1317291259766 3.868274927139282 C 196.3037719726563 6.040325164794922 197.5 8.928250312805176 197.5 12 L 197.5 40 C 197.5 43.07175064086914 196.3037719726563 45.95967483520508 194.1317291259766 48.1317253112793 C 191.9596557617188 50.30379867553711 189.0717468261719 51.5 186 51.5 L 170.2850952148438 51.5 L 169.4669036865234 51.5 L 169.8401489257813 52.22809982299805 L 177.905517578125 67.96108245849609 Z"/>
        <path class="cls-20" d="M 12 1 C 9.061798095703125 1 6.299453735351563 2.144203186035156 4.221832275390625 4.221824645996094 C 2.144195556640625 6.299449920654297 1 9.061798095703125 1 12 L 1 40 C 1 42.93820190429688 2.144195556640625 45.7005500793457 4.221832275390625 47.77817535400391 C 6.299453735351563 49.85580062866211 9.061798095703125 51 12 51 L 141.1006469726563 51 L 141.3146514892578 51 L 141.5099182128906 51.08757781982422 L 176.8110504150391 66.92212677001953 L 169.3952331542969 52.45619964599609 L 168.6487274169922 51 L 170.2850952148438 51 L 185.9999694824219 51 C 188.9381713867188 51 191.7005310058594 49.85580062866211 193.7781524658203 47.77817535400391 C 195.8558044433594 45.7005500793457 197 42.93820190429688 197 40 L 197 12 C 197 9.061798095703125 195.8558044433594 6.299449920654297 193.7781524658203 4.221824645996094 C 191.7005310058594 2.144203186035156 188.9381713867188 1 185.9999694824219 1 L 12 1 M 12 0 L 185.9999694824219 0 C 192.6273803710938 0 198 5.372573852539063 198 12 L 198 40 C 198 46.62742614746094 192.6273803710938 52 185.9999694824219 52 L 170.2850952148438 52 L 179 69 L 141.1006469726563 52 L 12 52 C 5.372573852539063 52 0 46.62742614746094 0 40 L 0 12 C 0 5.372573852539063 5.372573852539063 0 12 0 Z"/>
      </g>
      <text id="the_quick_brown_fox_jumps_over_the_lazy_dog..." data-name="the quick brown fox jumps 
over the lazy dog..." class="cls-17" transform="translate(16 22)"><tspan x="0" y="0">the quick brown fox jumps </tspan><tspan x="0" y="18">over the lazy dog...</tspan></text>
    </g>
    <g id="Group_37723" data-name="Group 37723" transform="translate(3443.65 2005)">
      <g id="Path_47146" data-name="Path 47146" class="cls-16" transform="translate(0 -7)">
        <path class="cls-18" d="M 10.73256587982178 45.45899963378906 L 10.73256587982178 31.5504035949707 L 10.73256587982178 31.0504035949707 L 10.23256587982178 31.0504035949707 C 4.866015911102295 31.0504035949707 0.5000057220458984 26.68439292907715 0.5000057220458984 21.31784248352051 L 0.5000057220458984 10.23256301879883 C 0.5000057220458984 4.866013050079346 4.866015911102295 0.5000030994415283 10.23256587982178 0.5000030994415283 L 38.37211608886719 0.5000030994415283 C 43.73866653442383 0.5000030994415283 48.10467529296875 4.866013050079346 48.10467529296875 10.23256301879883 L 48.10467529296875 21.31784248352051 C 48.10467529296875 26.68439292907715 43.73866653442383 31.0504035949707 38.37211608886719 31.0504035949707 L 22.35009574890137 31.0504035949707 L 22.10779571533203 31.0504035949707 L 21.95765495300293 31.2405834197998 L 10.73256587982178 45.45899963378906 Z"/>
        <path class="cls-20" d="M 10.23256683349609 1.000003814697266 C 5.141704559326172 1.000003814697266 0.9999961853027344 5.141712188720703 0.9999961853027344 10.23256301879883 L 0.9999961853027344 21.31784248352051 C 0.9999961853027344 26.40869331359863 5.141704559326172 30.5504035949707 10.23256683349609 30.5504035949707 L 11.23256683349609 30.5504035949707 L 11.23256683349609 31.5504035949707 L 11.23256683349609 44.01874923706055 L 21.56521606445313 30.93075180053711 L 21.8654956817627 30.5504035949707 L 22.35009574890137 30.5504035949707 L 38.37211608886719 30.5504035949707 C 43.46296691894531 30.5504035949707 47.60466766357422 26.40869331359863 47.60466766357422 21.31784248352051 L 47.60466766357422 10.23256301879883 C 47.60466766357422 5.141712188720703 43.46296691894531 1.000003814697266 38.37211608886719 1.000003814697266 L 10.23256683349609 1.000003814697266 M 10.23256683349609 3.814697265625e-06 L 38.37211608886719 3.814697265625e-06 C 44.02340698242188 3.814697265625e-06 48.60466384887695 4.581272125244141 48.60466384887695 10.23256301879883 L 48.60466384887695 21.31784248352051 C 48.60466384887695 26.96912384033203 44.02340698242188 31.5504035949707 38.37211608886719 31.5504035949707 L 22.35009574890137 31.5504035949707 L 10.23256683349609 46.89924240112305 L 10.23256683349609 31.5504035949707 C 4.581275939941406 31.5504035949707 -3.814697265625e-06 26.96912384033203 -3.814697265625e-06 21.31784248352051 L -3.814697265625e-06 10.23256301879883 C -3.814697265625e-06 4.581272125244141 4.581275939941406 3.814697265625e-06 10.23256683349609 3.814697265625e-06 Z"/>
      </g>
      <text id="_" data-name="???" class="cls-17" transform="translate(12.607 13.254)"><tspan x="0" y="0">???</tspan></text>
    </g>
  </g>
</svg>
