<svg xmlns="http://www.w3.org/2000/svg" xmlns:xlink="http://www.w3.org/1999/xlink" viewBox="0 0 560 143">
  <defs>
    <style>
      .cls-1 {
        fill: #fff;
        stroke: #707070;
        opacity: 0;
      }

      .cls-2 {
        clip-path: url(#clip-path);
      }

      .cls-3, .cls-4, .cls-5 {
        fill: #959adc;
      }

      .cls-3 {
        opacity: 0.18;
      }

      .cls-4 {
        opacity: 0.46;
      }

      .cls-5 {
        opacity: 0.53;
      }

      .cls-6, .cls-7 {
        fill: #ef8fdc;
      }

      .cls-6 {
        opacity: 0.1;
      }

      .cls-7 {
        opacity: 0.11;
      }

      .cls-8 {
        fill: gray;
      }

      .cls-9 {
        fill: #4d4d4d;
      }

      .cls-10 {
        fill: #e5e5e5;
      }

      .cls-11 {
        fill: #cbcbcb;
      }

      .cls-12 {
        fill: #57d0e6;
      }

      .cls-13 {
        fill: #3cc0e4;
      }

      .cls-14 {
        fill: #232323;
      }

      .cls-15 {
        fill: #fadc60;
      }

      .cls-16 {
        fill: #f2c42c;
      }

      .cls-17 {
        fill: #fd6f71;
      }

      .cls-18 {
        fill: #e34b4c;
      }

      .cls-19 {
        fill: #4db8cc;
      }

      .cls-20 {
        fill: #58b78c;
      }
    </style>
    <clipPath id="clip-path">
      <rect id="Rectangle_9216" data-name="Rectangle 9216" class="cls-1" width="560" height="143" transform="translate(2971 1990)"/>
    </clipPath>
  </defs>
  <g id="img-3" transform="translate(-3289 -1931)">
    <g id="Mask_Group_158" data-name="Mask Group 158" class="cls-2" transform="translate(318 -59)">
      <circle id="Ellipse_1538" data-name="Ellipse 1538" class="cls-3" cx="71.5" cy="71.5" r="71.5" transform="translate(3180 1990)"/>
      <circle id="Ellipse_1541" data-name="Ellipse 1541" class="cls-4" cx="43" cy="43" r="43" transform="translate(3445 1990)"/>
      <circle id="Ellipse_1542" data-name="Ellipse 1542" class="cls-5" cx="10" cy="10" r="10" transform="translate(3130 2000)"/>
      <circle id="Ellipse_1539" data-name="Ellipse 1539" class="cls-6" cx="120.5" cy="120.5" r="120.5" transform="translate(2880 1990)"/>
      <circle id="Ellipse_1540" data-name="Ellipse 1540" class="cls-7" cx="16" cy="16" r="16" transform="translate(3413 2076)"/>
    </g>
    <g id="comparison" transform="translate(3372 1851)">
      <path id="Path_47165" data-name="Path 47165" class="cls-8" d="M161.364,227.643H4.87A4.846,4.846,0,0,1,0,222.821H0A4.846,4.846,0,0,1,4.87,218H161.364a4.846,4.846,0,0,1,4.87,4.821h0A4.846,4.846,0,0,1,161.364,227.643Z" transform="translate(0 -78.297)"/>
      <path id="Path_47166" data-name="Path 47166" class="cls-9" d="M471.554,218H459.5a4.821,4.821,0,0,1,0,9.643h12.054a4.821,4.821,0,1,0,0-9.643Z" transform="translate(-310.141 -78.297)"/>
      <path id="Path_47167" data-name="Path 47167" class="cls-9" d="M243.143,286.571H220L228.135,248h6.872Z" transform="translate(-148.455 -98.071)"/>
      <path id="Path_47168" data-name="Path 47168" class="cls-10" d="M228.884,376.071H185.17a1.286,1.286,0,0,1-1.286-1.286v-13.5A1.286,1.286,0,0,1,185.17,360h43.714a1.286,1.286,0,0,1,1.286,1.286v13.5A1.286,1.286,0,0,1,228.884,376.071Z" transform="translate(-123.948 -174.071)"/>
      <path id="Path_47169" data-name="Path 47169" class="cls-11" d="M306.311,376.071h-8.324V360h8.324a1.286,1.286,0,0,1,1.286,1.286v13.5A1.286,1.286,0,0,1,306.311,376.071Z" transform="translate(-201.178 -174.071)"/>
      <path id="Path_47170" data-name="Path 47170" class="cls-12" d="M82.286,139.286h-36A1.286,1.286,0,0,1,45,138V103.286A1.286,1.286,0,0,1,46.286,102h36a1.286,1.286,0,0,1,1.286,1.286V138A1.286,1.286,0,0,1,82.286,139.286Z" transform="translate(-30.536)"/>
      <path id="Path_47171" data-name="Path 47171" class="cls-12" d="M384.286,139.286h-36A1.286,1.286,0,0,1,347,138V103.286A1.286,1.286,0,0,1,348.286,102h36a1.286,1.286,0,0,1,1.286,1.286V138A1.286,1.286,0,0,1,384.286,139.286Z" transform="translate(-233.802)"/>
      <path id="Path_47172" data-name="Path 47172" class="cls-13" d="M437,102v37.286h8.357A1.286,1.286,0,0,0,446.643,138V103.286A1.286,1.286,0,0,0,445.357,102Z" transform="translate(-294.873)"/>
      <path id="Path_47173" data-name="Path 47173" class="cls-13" d="M135,102v37.286h8.357A1.286,1.286,0,0,0,144.643,138V103.286A1.286,1.286,0,0,0,143.357,102Z" transform="translate(-91.142)"/>
      <circle id="Ellipse_1530" data-name="Ellipse 1530" class="cls-14" cx="9.643" cy="9.643" r="9.643" transform="translate(122.841 111.293)"/>
      <g id="Group_37728" data-name="Group 37728" transform="translate(21.375 109.232)">
        <path id="Path_47174" data-name="Path 47174" class="cls-14" d="M88.839,129.321H68.911a2.411,2.411,0,1,1,0-4.821H88.839a2.411,2.411,0,1,1,0,4.821Z" transform="translate(-66.5 -124.5)"/>
        <path id="Path_47175" data-name="Path 47175" class="cls-14" d="M88.839,157.321H68.911a2.411,2.411,0,1,1,0-4.821H88.839a2.411,2.411,0,1,1,0,4.821Z" transform="translate(-66.5 -143.5)"/>
        <path id="Path_47176" data-name="Path 47176" class="cls-14" d="M88.839,185.321H68.911a2.411,2.411,0,1,1,0-4.821H88.839a2.411,2.411,0,1,1,0,4.821Z" transform="translate(-66.5 -162.5)"/>
      </g>
      <circle id="Ellipse_1531" data-name="Ellipse 1531" class="cls-10" cx="10.607" cy="10.607" r="10.607" transform="translate(72.51 133.905)"/>
    </g>
    <g id="statistics" transform="translate(3602.763 1942)">
      <path id="Path_47138" data-name="Path 47138" class="cls-15" d="M80.59,304.248h-17.6a5.178,5.178,0,0,0-5.178,5.178v39.148a5.177,5.177,0,0,0,5.178,5.178h17.6a5.177,5.177,0,0,0,5.178-5.178V309.426A5.177,5.177,0,0,0,80.59,304.248Z" transform="translate(-38.522 -231.751)"/>
      <path id="Path_47139" data-name="Path 47139" class="cls-16" d="M65.173,348.574V309.426a5.178,5.178,0,0,1,5.178-5.178H62.987a5.178,5.178,0,0,0-5.178,5.178v39.148a5.177,5.177,0,0,0,5.178,5.178h7.364A5.178,5.178,0,0,1,65.173,348.574Z" transform="translate(-38.522 -231.751)"/>
      <path id="Path_47140" data-name="Path 47140" class="cls-17" d="M239.9,228.9H222.3a5.177,5.177,0,0,0-5.178,5.178v57.1a5.177,5.177,0,0,0,5.178,5.178h17.6a5.177,5.177,0,0,0,5.178-5.178v-57.1A5.177,5.177,0,0,0,239.9,228.9Z" transform="translate(-159.873 -174.356)"/>
      <path id="Path_47141" data-name="Path 47141" class="cls-18" d="M224.487,291.177v-57.1a5.177,5.177,0,0,1,5.178-5.178H222.3a5.177,5.177,0,0,0-5.178,5.178v57.1a5.177,5.177,0,0,0,5.178,5.178h7.364A5.177,5.177,0,0,1,224.487,291.177Z" transform="translate(-159.874 -174.355)"/>
      <path id="Path_47142" data-name="Path 47142" class="cls-12" d="M399.214,153.547h-17.6a5.177,5.177,0,0,0-5.178,5.178v75.057a5.177,5.177,0,0,0,5.178,5.178h17.6a5.177,5.177,0,0,0,5.178-5.178V158.725A5.178,5.178,0,0,0,399.214,153.547Z" transform="translate(-281.224 -116.959)"/>
      <path id="Path_47143" data-name="Path 47143" class="cls-19" d="M383.8,233.782V158.725a5.177,5.177,0,0,1,5.178-5.178h-7.364a5.177,5.177,0,0,0-5.178,5.178v75.057a5.177,5.177,0,0,0,5.178,5.178h7.364A5.177,5.177,0,0,1,383.8,233.782Z" transform="translate(-281.225 -116.959)"/>
      <path id="Path_47144" data-name="Path 47144" class="cls-20" d="M122.889.023,105.107,2.34l4.3,5.749L94.177,19.476l-8.01-7.062a3.848,3.848,0,0,0-4.848-.2L47.26,37.682l-7.967-5.968a3.847,3.847,0,0,0-4.61,0L7.237,52.231l4.607,6.163L36.983,39.6l7.967,5.968a3.847,3.847,0,0,0,4.61,0L83.422,20.252l8.01,7.062a3.847,3.847,0,0,0,4.848.2l17.732-13.258,4.3,5.754L125.565,3.6A2.563,2.563,0,0,0,122.889.023Z" transform="translate(0 0)"/>
    </g>
  </g>
</svg>
