<svg id="more" xmlns="http://www.w3.org/2000/svg" viewBox="0 0 48 48">
  <defs>
    <style>
      .cls-1 {
        fill: #444;
      }
    </style>
  </defs>
  <g id="Group_37729" data-name="Group 37729">
    <path id="Path_47180" data-name="Path 47180" class="cls-1" d="M40.635,0H7.344A7.386,7.386,0,0,0,0,7.365V40.656A7.365,7.365,0,0,0,7.365,48h33.27A7.386,7.386,0,0,0,48,40.656V7.365A7.386,7.386,0,0,0,40.635,0ZM11.429,27.746A3.746,3.746,0,1,1,15.175,24,3.746,3.746,0,0,1,11.429,27.746Zm12.571,0A3.746,3.746,0,1,1,27.746,24,3.746,3.746,0,0,1,24,27.746Zm12.7,0a3.746,3.746,0,1,1,3.66-3.83c0,.028,0,.056,0,.084A3.767,3.767,0,0,1,36.7,27.746Z"/>
  </g>
</svg>
