<svg xmlns="http://www.w3.org/2000/svg" viewBox="0 0 512 512">
  <defs>
    <style>
      .cls-1 {
        fill: #512375;
      }

      .cls-2 {
        fill: #673389;
      }

      .cls-3 {
        fill: #d8d4ce;
      }

      .cls-4 {
        fill: #f2efea;
      }

      .cls-5 {
        fill: #f71c55;
      }

      .cls-6 {
        fill: #151a1c;
      }

      .cls-7 {
        fill: #9fc2cc;
      }

      .cls-8 {
        fill: #c1dce5;
      }

      .cls-9 {
        fill: #f6ba97;
      }

      .cls-10 {
        fill: #eaa27f;
      }

      .cls-11 {
        fill: #2f373b;
      }

      .cls-12 {
        fill: #fff;
      }
    </style>
  </defs>
  <g id="profile-2" transform="translate(0 0)">
    <path id="Path_47109" data-name="Path 47109" class="cls-1" d="M512,256c0,141.383-114.617,256-256,256A255,255,0,0,1,82.016,443.777q-7.324-6.768-14.1-14.117A254.658,254.658,0,0,1,28.454,373.4,256.052,256.052,0,0,1,256,0C397.383,0,512,114.613,512,256Zm0,0"/>
    <g id="Group_37793" data-name="Group 37793">
      <path id="Path_47110" data-name="Path 47110" class="cls-2" d="M138.973,384.523a11.487,11.487,0,0,1-11.5,11.492h-5.508a31.071,31.071,0,0,0-31.062,31.074v5.5a11.472,11.472,0,0,1-8.891,11.191q-7.324-6.768-14.1-14.117v-2.57A31.072,31.072,0,0,0,41.91,396.433,255.76,255.76,0,0,1,28.453,373.4a11.012,11.012,0,0,1,2.895-.375h5.5a31.062,31.062,0,0,0,31.066-31.062v-5.508a11.494,11.494,0,1,1,22.988,0v5.508a31.061,31.061,0,0,0,31.063,31.063h5.508a11.49,11.49,0,0,1,11.5,11.5Zm0,0"/>
      <path id="Path_47111" data-name="Path 47111" class="cls-2" d="M480.652,272.723h-5.5a31.069,31.069,0,0,1-31.066-31.07v-5.5a11.494,11.494,0,1,0-22.988,0v5.5a31.07,31.07,0,0,1-31.07,31.07h-5.5a11.494,11.494,0,1,0,0,22.988h5.5a31.069,31.069,0,0,1,31.07,31.066v5.5a11.494,11.494,0,0,0,22.988,0v-5.5a31.068,31.068,0,0,1,31.066-31.066h5.5a11.494,11.494,0,0,0,0-22.988Zm0,0"/>
      <path id="Path_47112" data-name="Path 47112" class="cls-2" d="M126.434,87.77v.012a11.5,11.5,0,0,1-11.5,11.5h-5.5A31.062,31.062,0,0,0,78.368,130.34v5.508a11.494,11.494,0,0,1-22.988,0V130.34a30.9,30.9,0,0,0-8.785-21.629A256.45,256.45,0,0,1,85.516,65.035a30.959,30.959,0,0,0,23.918,11.254h5.5a11.492,11.492,0,0,1,11.5,11.48Zm0,0"/>
    </g>
    <path id="Path_47113" data-name="Path 47113" class="cls-3" d="M382.117,449.578v29.246a255.761,255.761,0,0,1-252.238,0V449.578a95.126,95.126,0,0,1,87.352-94.812c2.57-.211,5.16-.316,7.785-.316h61.953a95,95,0,0,1,95.148,95.129Zm0,0"/>
    <path id="Path_47114" data-name="Path 47114" class="cls-4" d="M382.117,449.578v29.246a256.717,256.717,0,0,1-203.648,21.223V449.578a94.719,94.719,0,0,1,22.34-61.242,179.926,179.926,0,0,0,143.566-14.617,94.91,94.91,0,0,1,37.742,75.859Zm0,0"/>
    <path id="Path_47115" data-name="Path 47115" class="cls-3" d="M262.547,376.3V511.918c-2.184.051-4.355.082-6.551.082s-4.379-.031-6.551-.094V376.3Zm0,0"/>
    <path id="Path_47116" data-name="Path 47116" class="cls-5" d="M289.434,430.781h71.051v41.793H289.434Zm0,0"/>
    <path id="Path_47117" data-name="Path 47117" class="cls-3" d="M289.434,445.41h71.051v12.535H289.434Zm0,0"/>
    <path id="Path_47118" data-name="Path 47118" class="cls-4" d="M435.348,198.813A179.354,179.354,0,1,1,256,19.461,179.353,179.353,0,0,1,435.348,198.813Zm0,0"/>
    <path id="Path_47119" data-name="Path 47119" class="cls-3" d="M254.559,378.16c-98.387-.766-177.914-80.773-177.914-179.348S156.172,20.23,254.559,19.464c-60.449,1.246-79.434,81.066-79.434,179.348s18.984,178.1,79.434,179.348Zm0,0"/>
    <path id="Path_47120" data-name="Path 47120" class="cls-6" d="M435.344,213.66c0,37.293-33.77,70.02-84.531,88.4q-5.221,1.9-10.68,3.582c-25.1,7.766-53.738,12.164-84.145,12.164a302.365,302.365,0,0,1-48.23-3.812,264.158,264.158,0,0,1-35.895-8.352q-5.437-1.658-10.656-3.562c-50.773-18.391-84.562-51.113-84.562-88.418,0-35.871,31.211-67.488,78.73-86.215A249.142,249.142,0,0,1,201,114.512a299.006,299.006,0,0,1,54.992-5c37.293,0,71.922,6.613,100.613,17.918,47.523,18.727,78.742,50.355,78.742,86.227Zm0,0"/>
    <path id="Path_47121" data-name="Path 47121" class="cls-7" d="M173.336,234.086c0,20.8-11.48,38.051-26.512,41.254a24.106,24.106,0,0,1-5.055.535c-17.438,0-31.566-18.7-31.566-41.789S124.332,192.3,141.77,192.3a24.106,24.106,0,0,1,5.055.535c15.031,3.2,26.512,20.449,26.512,41.25Zm0,0"/>
    <path id="Path_47122" data-name="Path 47122" class="cls-7" d="M338.652,234.086c0,20.8,11.477,38.051,26.508,41.254a24.143,24.143,0,0,0,5.059.535c17.434,0,31.563-18.7,31.563-41.789S387.652,192.3,370.218,192.3a24.143,24.143,0,0,0-5.059.535c-15.031,3.2-26.508,20.449-26.508,41.25Zm0,0"/>
    <path id="Path_47123" data-name="Path 47123" class="cls-7" d="M373.434,188.039v44.723a116.805,116.805,0,0,1-22.621,69.3c-27.512,9.98-60.008,15.746-94.824,15.746a302.365,302.365,0,0,1-48.23-3.812,257.5,257.5,0,0,1-46.551-11.914,116.749,116.749,0,0,1-22.652-69.316V188.039a116.886,116.886,0,0,1,16.82-60.594A249.142,249.142,0,0,1,201,114.512a299.006,299.006,0,0,1,54.992-5c37.293,0,71.922,6.613,100.613,17.918a116.8,116.8,0,0,1,16.832,60.605Zm0,0"/>
    <path id="Path_47124" data-name="Path 47124" class="cls-8" d="M373.434,188.039v44.723a117.048,117.048,0,0,1-7.656,41.8q-2.039,5.361-4.578,10.449a116.161,116.161,0,0,1-10.387,17.043c-27.512,9.98-60.008,15.746-94.824,15.746a302.365,302.365,0,0,1-48.23-3.812,117.022,117.022,0,0,1-32.633-81.23V188.039a116.737,116.737,0,0,1,12-51.742q6.8-1.664,13.875-2.98a299.353,299.353,0,0,1,54.992-4.992c37.293,0,71.922,6.613,100.613,17.918q5.566,2.2,10.816,4.609a117.071,117.071,0,0,1,6.016,37.188Zm0,0"/>
    <path id="Path_47125" data-name="Path 47125" class="cls-9" d="M364.188,237.629a107.682,107.682,0,0,1-24.055,68.012c-25.1,7.766-53.738,12.164-84.145,12.164a302.365,302.365,0,0,1-48.23-3.812,264.158,264.158,0,0,1-35.895-8.352,108.191,108.191,0,1,1,192.324-68.012Zm0,0"/>
    <path id="Path_47126" data-name="Path 47126" class="cls-10" d="M255.988,129.43a107.878,107.878,0,0,0-78.152,33.383c-.328.344-.645.7-.969,1.043a108.152,108.152,0,0,0-5,141.785,264.162,264.162,0,0,0,35.895,8.352,117.022,117.022,0,0,1-32.633-81.23V228.34c.008-43.609,34.449-79.988,78.039-81.109q1.406-.035,2.824-.035a108.194,108.194,0,0,1,107.836,99.285c.238-2.914.363-5.871.363-8.852a108.2,108.2,0,0,0-108.2-108.2Zm0,0"/>
    <path id="Path_47127" data-name="Path 47127" class="cls-11" d="M230.984,225.922A13.324,13.324,0,1,1,217.66,212.6,13.323,13.323,0,0,1,230.984,225.922Zm0,0"/>
    <path id="Path_47128" data-name="Path 47128" class="cls-11" d="M307.652,225.922A13.322,13.322,0,1,1,294.328,212.6,13.323,13.323,0,0,1,307.652,225.922Zm0,0"/>
    <path id="Path_47129" data-name="Path 47129" class="cls-12" d="M228.266,223.57a5.707,5.707,0,1,1-5.707-5.707A5.706,5.706,0,0,1,228.266,223.57Zm0,0"/>
    <path id="Path_47130" data-name="Path 47130" class="cls-12" d="M305.59,223.57a5.709,5.709,0,1,1-5.707-5.707A5.706,5.706,0,0,1,305.59,223.57Zm0,0"/>
    <path id="Path_47131" data-name="Path 47131" class="cls-10" d="M269.316,259.465H242.672a5.746,5.746,0,1,1,0-11.492h26.645a5.746,5.746,0,1,1,0,11.492Zm0,0"/>
    <path id="Path_47132" data-name="Path 47132" class="cls-10" d="M256,290.6a59.337,59.337,0,0,1-28.633-7.395,5.224,5.224,0,1,1,5.031-9.156,48.745,48.745,0,0,0,47.2,0,5.224,5.224,0,0,1,5.031,9.156A59.323,59.323,0,0,1,256,290.6Zm0,0"/>
    <path id="Path_47133" data-name="Path 47133" class="cls-5" d="M263.18,49.379l1.691,3.426a8.012,8.012,0,0,0,6.035,4.383l3.781.551a8.015,8.015,0,0,1,4.441,13.672l-2.734,2.668a8,8,0,0,0-2.3,7.094l.645,3.766a8.012,8.012,0,0,1-11.629,8.445l-3.383-1.777a8.016,8.016,0,0,0-7.457,0l-3.383,1.777a8.013,8.013,0,0,1-11.629-8.445l.645-3.766a8,8,0,0,0-2.3-7.094L232.86,71.41A8.015,8.015,0,0,1,237.3,57.738l3.781-.551a8.012,8.012,0,0,0,6.035-4.383l1.688-3.426a8.015,8.015,0,0,1,14.375,0Zm0,0"/>
    <path id="Path_47134" data-name="Path 47134" class="cls-11" d="M334.211,264.117H320.938a13.218,13.218,0,0,0-13.215,13.219v1.777a13.214,13.214,0,0,0,13.215,13.215h13.273a13.215,13.215,0,0,0,13.219-13.215v-1.777A13.218,13.218,0,0,0,334.211,264.117Zm0,0"/>
    <path id="Path_47135" data-name="Path 47135" class="cls-11" d="M367.344,273q-2.039,5.361-4.574,10.449H328.621V273Zm0,0"/>
    <path id="Path_47136" data-name="Path 47136" class="cls-4" d="M445.629,213.66c0-25.391-4.988-45.977-11.145-45.977s-11.148,20.586-11.148,45.977,4.992,45.977,11.148,45.977S445.629,239.051,445.629,213.66Zm0,0"/>
    <path id="Path_47137" data-name="Path 47137" class="cls-4" d="M88.652,213.66c0-25.391-4.992-45.977-11.148-45.977S66.359,188.269,66.359,213.66s4.988,45.977,11.145,45.977S88.652,239.051,88.652,213.66Zm0,0"/>
  </g>
</svg>
