<svg id="profile-1" xmlns="http://www.w3.org/2000/svg" viewBox="0 0 182 182.001">
  <defs>
    <style>
      .cls-1 {
        fill: #27ba9e;
      }

      .cls-2 {
        fill: #f46d11;
      }

      .cls-3 {
        fill: #d65a05;
      }

      .cls-4 {
        fill: #e8c018;
      }

      .cls-5 {
        fill: #ffd833;
      }

      .cls-6 {
        fill: #f71c55;
      }

      .cls-7 {
        fill: #f2efea;
      }

      .cls-8 {
        fill: #d8d4ce;
      }

      .cls-9 {
        fill: #c4bfb7;
      }

      .cls-10 {
        fill: #fff;
      }

      .cls-11 {
        fill: #2f373b;
      }

      .cls-12 {
        fill: #dd104f;
      }
    </style>
  </defs>
  <path id="Path_47077" data-name="Path 47077" class="cls-1" d="M182,91A91,91,0,1,1,91,0,91,91,0,0,1,182,91Zm0,0"/>
  <path id="Path_47078" data-name="Path 47078" class="cls-2" d="M201.221,67.364A67.364,67.364,0,1,1,133.856,0,67.364,67.364,0,0,1,201.221,67.364Zm0,0" transform="translate(-42.856)"/>
  <path id="Path_47079" data-name="Path 47079" class="cls-3" d="M88.777,67.365A67.379,67.379,0,0,1,145,.922a67.367,67.367,0,1,0-11.142,133.807A67.91,67.91,0,0,0,145,133.807,67.38,67.38,0,0,1,88.777,67.365Zm0,0" transform="translate(-42.856 0)"/>
  <path id="Path_47080" data-name="Path 47080" class="cls-4" d="M219.546,388.265v10.4a90.464,90.464,0,0,1-41.859,11.744c-.989.033-1.976.049-2.972.049s-1.987-.015-2.972-.049a90.49,90.49,0,0,1-41.861-11.744v-10.4a33.815,33.815,0,0,1,31.052-33.7c.914-.074,1.834-.111,2.767-.111h22.021a33.768,33.768,0,0,1,33.822,33.815Zm0,0" transform="translate(-83.713 -228.453)"/>
  <path id="Path_47081" data-name="Path 47081" class="cls-5" d="M250.863,388.264v10.4a90.3,90.3,0,0,1-36.452,11.407q-4.139.383-8.379.386t-8.384-.383a90.662,90.662,0,0,1-19.176-3.866v-17.94a33.818,33.818,0,0,1,33.822-33.815h4.746a33.817,33.817,0,0,1,33.822,33.815Zm0,0" transform="translate(-115.031 -228.453)"/>
  <path id="Path_47082" data-name="Path 47082" class="cls-6" d="M253.587,379.016v47.223c-.989.033-1.976.049-2.971.049s-1.987-.015-2.971-.049V379.016Zm0,0" transform="translate(-159.614 -244.287)"/>
  <path id="Path_47083" data-name="Path 47083" class="cls-7" d="M122.2,229.19a11.218,11.218,0,1,1-9.424-11.076A11.222,11.222,0,0,1,122.2,229.19Zm0,0" transform="translate(-64.295 -140.487)"/>
  <path id="Path_47084" data-name="Path 47084" class="cls-8" d="M143.1,229.451a11.222,11.222,0,0,1-9.424,11.077,41.955,41.955,0,0,1,0-22.153A11.221,11.221,0,0,1,143.1,229.451Zm0,0" transform="translate(-85.199 -140.749)"/>
  <path id="Path_47085" data-name="Path 47085" class="cls-8" d="M128.06,242.264a4.01,4.01,0,1,1-4.01-4.01A4.01,4.01,0,0,1,128.06,242.264Zm0,0" transform="translate(-77.369 -153.562)"/>
  <path id="Path_47086" data-name="Path 47086" class="cls-7" d="M349.1,229.19a11.217,11.217,0,1,0,9.423-11.076A11.22,11.22,0,0,0,349.1,229.19Zm0,0" transform="translate(-225.007 -140.487)"/>
  <path id="Path_47087" data-name="Path 47087" class="cls-6" d="M228.8,332.429c0-2.535,4.243-6.182,3.055-8.413-1.129-2.118-6.718-.855-8.715-2.552-1.818-1.544-1.194-7.233-3.576-8.315-2.187-.994-6.176,3.142-8.72,2.624-2.369-.483-4.348-5.89-6.93-5.89s-4.561,5.406-6.93,5.89c-2.542.518-6.532-3.62-8.719-2.626-2.381,1.083-1.758,6.772-3.576,8.316-2,1.7-7.587.435-8.715,2.552-1.189,2.231,3.053,5.878,3.053,8.413s-4.242,6.183-3.053,8.413c1.129,2.118,6.718.855,8.715,2.552,1.818,1.544,1.194,7.233,3.576,8.316,2.187.994,6.176-3.144,8.719-2.624,2.37.483,4.349,5.889,6.932,5.889s4.56-5.406,6.929-5.889c2.544-.519,6.533,3.619,8.72,2.624,2.381-1.083,1.758-6.772,3.576-8.316,2-1.7,7.587-.435,8.715-2.552C233.047,338.612,228.8,334.965,228.8,332.429Zm0,0" transform="translate(-113.288 -199.729)"/>
  <path id="Path_47088" data-name="Path 47088" class="cls-8" d="M349.1,229.451a11.22,11.22,0,0,0,9.423,11.077,41.918,41.918,0,0,0,0-22.153A11.22,11.22,0,0,0,349.1,229.451Zm0,0" transform="translate(-225.007 -140.749)"/>
  <path id="Path_47089" data-name="Path 47089" class="cls-8" d="M377.407,242.264a4.01,4.01,0,1,1-4.01-4.01A4.01,4.01,0,0,1,377.407,242.264Zm0,0" transform="translate(-238.081 -153.562)"/>
  <path id="Path_47090" data-name="Path 47090" class="cls-9" d="M246.183,317.8v14.808a12.066,12.066,0,0,1-24.132,0V317.8Zm0,0" transform="translate(-143.119 -204.832)"/>
  <path id="Path_47091" data-name="Path 47091" class="cls-8" d="M259.3,356.82v.937a12.064,12.064,0,0,1-8.5,11.525,12.059,12.059,0,0,1-8.4-9.953q1.208.073,2.43.074A41.7,41.7,0,0,0,259.3,356.82Zm0,0" transform="translate(-156.238 -229.981)"/>
  <path id="Path_47092" data-name="Path 47092" class="cls-8" d="M222.047,157.062A41.751,41.751,0,0,1,187,198.27a41.287,41.287,0,0,1-6.7.539,41.747,41.747,0,1,1,0-83.495,41.287,41.287,0,0,1,6.7.539,41.752,41.752,0,0,1,35.047,41.21Zm0,0" transform="translate(-89.301 -74.323)"/>
  <path id="Path_47093" data-name="Path 47093" class="cls-7" d="M246.345,158.038A41.751,41.751,0,0,1,211.3,199.246a41.751,41.751,0,0,1,0-82.418,41.76,41.76,0,0,1,34.842,37.047c.136,1.369.206,2.76.206,4.163Zm0,0" transform="translate(-113.599 -75.299)"/>
  <path id="Path_47094" data-name="Path 47094" class="cls-10" d="M222.318,291.478a28.645,28.645,0,0,1-13.758-3.546,9.286,9.286,0,1,1,8.948-16.274,9.91,9.91,0,0,0,9.62,0,9.285,9.285,0,0,1,8.946,16.274A28.64,28.64,0,0,1,222.318,291.478Zm0,0" transform="translate(-131.319 -174.35)"/>
  <g id="Group_37792" data-name="Group 37792" transform="translate(74.039 70.3)">
    <path id="Path_47095" data-name="Path 47095" class="cls-6" d="M289.747,219.805a3.1,3.1,0,0,1-3.1-3.1V200.861a3.1,3.1,0,0,1,6.192,0v15.848A3.1,3.1,0,0,1,289.747,219.805Zm0,0" transform="translate(-258.795 -197.766)"/>
    <path id="Path_47096" data-name="Path 47096" class="cls-6" d="M211.38,219.805a3.1,3.1,0,0,1-3.1-3.1V200.861a3.1,3.1,0,1,1,6.19,0v15.848A3.1,3.1,0,0,1,211.38,219.805Zm0,0" transform="translate(-208.285 -197.766)"/>
    <path id="Path_47097" data-name="Path 47097" class="cls-6" d="M235.794,297.522a21.093,21.093,0,0,1-10.178-2.629,1.857,1.857,0,0,1,1.788-3.255,17.327,17.327,0,0,0,16.778,0,1.857,1.857,0,0,1,1.788,3.255A21.088,21.088,0,0,1,235.794,297.522Zm0,0" transform="translate(-218.835 -258.122)"/>
  </g>
  <path id="Path_47098" data-name="Path 47098" class="cls-11" d="M213.811,217.334a4.736,4.736,0,1,1-4.735-4.736A4.735,4.735,0,0,1,213.811,217.334Zm0,0" transform="translate(-131.703 -137.026)"/>
  <path id="Path_47099" data-name="Path 47099" class="cls-11" d="M290.48,217.334a4.736,4.736,0,1,1-4.736-4.736A4.736,4.736,0,0,1,290.48,217.334Zm0,0" transform="translate(-181.118 -137.026)"/>
  <path id="Path_47100" data-name="Path 47100" class="cls-10" d="M220.911,219.889a2.029,2.029,0,1,1-2.029-2.03A2.028,2.028,0,0,1,220.911,219.889Zm0,0" transform="translate(-139.768 -140.417)"/>
  <path id="Path_47101" data-name="Path 47101" class="cls-10" d="M298.235,219.889a2.029,2.029,0,1,1-2.03-2.03A2.03,2.03,0,0,1,298.235,219.889Zm0,0" transform="translate(-189.605 -140.417)"/>
  <path id="Path_47102" data-name="Path 47102" class="cls-2" d="M223.069,110.205V98.32H158.794l-17.306,24.95-2.937,17.882h5.962v-3.383a13.079,13.079,0,0,1,13.079-13.079H202.8a13.079,13.079,0,0,1,13.079,13.079v3.383h11.535V110.205Zm0,0" transform="translate(-89.301 -63.37)"/>
  <path id="Path_47103" data-name="Path 47103" class="cls-8" d="M248.439,252.058h-9.471a2.043,2.043,0,0,1,0-4.085h9.471a2.043,2.043,0,0,1,0,4.085Zm0,0" transform="translate(-152.706 -159.826)"/>
  <path id="Path_47104" data-name="Path 47104" class="cls-6" d="M287.893,450.644a5.757,5.757,0,1,1-5.757-5.757A5.757,5.757,0,0,1,287.893,450.644Zm0,0" transform="translate(-178.135 -286.743)"/>
  <path id="Path_47105" data-name="Path 47105" class="cls-12" d="M247.723,235.283a10.164,10.164,0,1,1-6.522-9.495,10.168,10.168,0,0,1,6.522,9.495Zm0,0" transform="translate(-146.555 -145.092)"/>
  <path id="Path_47106" data-name="Path 47106" class="cls-6" d="M260.943,236.507A10.168,10.168,0,0,1,254.421,246a10.169,10.169,0,0,1,0-18.988,10.17,10.17,0,0,1,6.522,9.495Zm0,0" transform="translate(-159.776 -146.316)"/>
  <path id="Path_47107" data-name="Path 47107" class="cls-10" d="M284.936,167.643a11.953,11.953,0,0,0-23.905,0" transform="translate(-168.242 -100.348)"/>
  <path id="Path_47108" data-name="Path 47108" class="cls-10" d="M207.615,167.643a11.952,11.952,0,0,0-23.9,0" transform="translate(-118.407 -100.348)"/>
</svg>
