<svg xmlns="http://www.w3.org/2000/svg" viewBox="0 0 290.548 299.001">
  <defs>
    <style>
      .cls-1 {
        opacity: 0.24;
      }

      .cls-2 {
        fill: #fff;
      }
    </style>
  </defs>
  <g id="statistics-white" class="cls-1" transform="translate(-7.237 0)">
    <path id="Path_47138" data-name="Path 47138" class="cls-2" d="M113.64,304.248H70.5a12.689,12.689,0,0,0-12.689,12.689v95.945A12.689,12.689,0,0,0,70.5,425.572H113.64a12.689,12.689,0,0,0,12.689-12.689V316.937A12.689,12.689,0,0,0,113.64,304.248Z" transform="translate(-21.039 -126.572)"/>
    <path id="Path_47139" data-name="Path 47139" class="cls-2" d="M75.858,412.883V316.937a12.689,12.689,0,0,1,12.689-12.689H70.5a12.689,12.689,0,0,0-12.689,12.689v95.946A12.689,12.689,0,0,0,70.5,425.573H88.546A12.69,12.69,0,0,1,75.858,412.883Z" transform="translate(-21.039 -126.572)"/>
    <path id="Path_47140" data-name="Path 47140" class="cls-2" d="M272.953,228.9H229.811a12.689,12.689,0,0,0-12.689,12.689V381.537a12.689,12.689,0,0,0,12.689,12.689h43.141a12.689,12.689,0,0,0,12.689-12.689V241.587A12.689,12.689,0,0,0,272.953,228.9Z" transform="translate(-87.315 -95.225)"/>
    <path id="Path_47141" data-name="Path 47141" class="cls-2" d="M235.171,381.536V241.586A12.689,12.689,0,0,1,247.86,228.9H229.812a12.689,12.689,0,0,0-12.689,12.689V381.536a12.689,12.689,0,0,0,12.689,12.689H247.86A12.689,12.689,0,0,1,235.171,381.536Z" transform="translate(-87.316 -95.224)"/>
    <path id="Path_47142" data-name="Path 47142" class="cls-2" d="M432.265,153.547H389.123a12.689,12.689,0,0,0-12.689,12.689V350.189a12.689,12.689,0,0,0,12.689,12.689h43.141a12.689,12.689,0,0,0,12.689-12.689V166.236A12.69,12.69,0,0,0,432.265,153.547Z" transform="translate(-153.591 -63.878)"/>
    <path id="Path_47143" data-name="Path 47143" class="cls-2" d="M394.483,350.189V166.236a12.689,12.689,0,0,1,12.689-12.689H389.124a12.689,12.689,0,0,0-12.689,12.689V350.189a12.689,12.689,0,0,0,12.689,12.689h18.048A12.689,12.689,0,0,1,394.483,350.189Z" transform="translate(-153.592 -63.878)"/>
    <path id="Path_47144" data-name="Path 47144" class="cls-2" d="M290.681.056,247.1,5.735l10.535,14.09L220.311,47.731,200.679,30.422a9.43,9.43,0,0,0-11.882-.479L105.325,92.35,85.8,77.723a9.428,9.428,0,0,0-11.3-.005L7.237,128.007l11.292,15.1L80.14,97.047l19.527,14.628a9.428,9.428,0,0,0,11.3.005l82.987-62.047,19.632,17.309a9.429,9.429,0,0,0,11.882.479l43.458-32.492,10.544,14.1L297.239,8.824A6.282,6.282,0,0,0,290.681.056Z" transform="translate(0 0)"/>
  </g>
</svg>
