<svg xmlns="http://www.w3.org/2000/svg" viewBox="0 0 80 80">
  <defs>
    <style>
      .cls-1 {
        fill: #5fbac2;
      }

      .cls-2 {
        fill: #32c5d2;
      }

      .cls-3 {
        fill: #ffd400;
      }

      .cls-4 {
        fill: #fdbf00;
      }
    </style>
  </defs>
  <g id="title" transform="translate(-1870.797 -3209)">
    <path id="Path_47213" data-name="Path 47213" class="cls-1" d="M417.3,40a40.061,40.061,0,0,1-40,40V0A40.06,40.06,0,0,1,417.3,40Zm0,0" transform="translate(1533.5 3209)"/>
    <path id="Path_47214" data-name="Path 47214" class="cls-2" d="M40,40A40.061,40.061,0,0,1,0,80V0A40.06,40.06,0,0,1,40,40Zm0,0" transform="translate(1910.797 3289) rotate(180)"/>
    <path id="Path_47211" data-name="Path 47211" class="cls-3" d="M347.67,75.81a4.422,4.422,0,0,0-3.645-3.023l-9.333-1.422-4.177-8.444a4.617,4.617,0,0,0-8,0l-4.178,8.444L309,72.787a4.42,4.42,0,0,0-3.644,3.023,4.325,4.325,0,0,0,1.155,4.533l6.756,6.578-1.6,9.333a4.48,4.48,0,0,0,6.489,4.711l8.355-4.444,8.356,4.444a4.48,4.48,0,0,0,6.488-4.711l-1.6-9.333,6.756-6.578A4.323,4.323,0,0,0,347.67,75.81Zm0,0" transform="translate(1584.277 3167.827)"/>
    <path id="Path_47212" data-name="Path 47212" class="cls-4" d="M397.3,80.342l-6.755,6.578,1.6,9.333a4.481,4.481,0,0,1-6.489,4.712L377.3,96.52V60.609a4.481,4.481,0,0,1,4,2.311l4.177,8.444,9.334,1.422a4.422,4.422,0,0,1,3.644,3.023A4.323,4.323,0,0,1,397.3,80.342Zm0,0" transform="translate(1533.494 3167.827)"/>
  </g>
</svg>
