<svg xmlns="http://www.w3.org/2000/svg" viewBox="0 0 318.97 318.97">
  <defs>
    <style>
      .cls-1 {
        fill: #32c5d2;
      }

      .cls-2 {
        fill: #95f6ff;
      }

      .cls-3 {
        fill: #73e7e6;
      }
    </style>
  </defs>
  <g id="title-icon" transform="translate(-3558 -1764)">
    <path id="Path_46936" data-name="Path 46936" class="cls-1" d="M455.533,498.384H329.251a49.632,49.632,0,0,1-49.632-49.632V322.47a49.632,49.632,0,0,1,49.632-49.632H455.533a49.632,49.632,0,0,1,49.632,49.632V448.752A49.632,49.632,0,0,1,455.533,498.384Z" transform="translate(3325.381 1538.162)"/>
    <path id="Path_46938" data-name="Path 46938" class="cls-2" d="M455.533,498.384H329.251a49.632,49.632,0,0,1-49.632-49.632V322.47a49.632,49.632,0,0,1,49.632-49.632H455.533a49.632,49.632,0,0,1,49.632,49.632V448.752A49.632,49.632,0,0,1,455.533,498.384Z" transform="translate(3580.298 2455.678) rotate(-120)"/>
    <path id="Path_46937" data-name="Path 46937" class="cls-3" d="M455.533,498.384H329.251a49.632,49.632,0,0,1-49.632-49.632V322.47a49.632,49.632,0,0,1,49.632-49.632H455.533a49.632,49.632,0,0,1,49.632,49.632V448.752A49.632,49.632,0,0,1,455.533,498.384Z" transform="translate(3712.69 1373.354) rotate(45)"/>
  </g>
</svg>
