<svg xmlns="http://www.w3.org/2000/svg" viewBox="0 0 242 120">
  <defs>
    <style>
      .cls-1 {
        fill: #65ac5b;
      }

      .cls-2 {
        fill: #1a455a;
      }

      .cls-3 {
        fill: #b8cbd1;
      }

      .cls-4 {
        fill: #fff;
      }

      .cls-5 {
        fill: #c1d64b;
      }

      .cls-6 {
        fill: #9fb603;
      }

      .cls-7 {
        fill: #003d47;
      }

      .cls-8 {
        opacity: 0.1;
      }

      .cls-9 {
        fill: #003894;
      }

      .cls-10, .cls-9 {
        fill-rule: evenodd;
      }

      .cls-10 {
        fill: #e60012;
      }
    </style>
  </defs>
  <g id="Group_71342" data-name="Group 71342" transform="translate(-163 -1411)">
    <rect id="Rectangle_2426" data-name="Rectangle 2426" class="cls-1" width="242" height="120" rx="10" transform="translate(163 1411)"/>
    <g id="Group_7617" data-name="Group 7617" transform="translate(163 1411)">
      <path id="Path_9793" data-name="Path 9793" class="cls-2" d="M0,0,52.867.184l.379,114.779L.379,114.779Z" transform="translate(15.618 85.63) rotate(-73.399)"/>
      <g id="Group_7615" data-name="Group 7615" transform="translate(11.39 27.387)">
        <path id="Path_9794" data-name="Path 9794" class="cls-3" d="M0,0,54.863.187l.4,117.318L.4,117.318Z" transform="translate(128.393 33.571) rotate(106.601)"/>
        <path id="Path_9795" data-name="Path 9795" class="cls-4" d="M.172.381,112.952,0l-.172,50.368L0,50.749Z" transform="translate(17.3 2.828) rotate(16.601)"/>
        <g id="Group_7614" data-name="Group 7614" transform="translate(12.845 12.692)">
          <path id="Path_9796" data-name="Path 9796" class="cls-5" d="M.019.071l21-.071L21,5.609,0,5.68Z" transform="translate(85.549 20.141) rotate(16.601)"/>
          <path id="Path_9797" data-name="Path 9797" class="cls-5" d="M.009.131,38.8,0l-.009,2.774L0,2.905Z" transform="translate(7.537 0) rotate(16.601)"/>
          <path id="Path_9798" data-name="Path 9798" class="cls-6" d="M.009.343,101.513,0,101.5,2.773,0,3.115Z" transform="translate(5.078 8.038) rotate(16.601)"/>
          <path id="Path_9799" data-name="Path 9799" class="cls-6" d="M.009.343,101.513,0,101.5,2.773,0,3.115Z" transform="translate(2.993 14.94) rotate(16.601)"/>
          <path id="Path_9800" data-name="Path 9800" class="cls-6" d="M.009.343,101.513,0,101.5,2.773,0,3.115Z" transform="translate(0.89 21.898) rotate(16.601)"/>
          <path id="Path_9801" data-name="Path 9801" class="cls-7" d="M.009.142,42.2,0l-.009,2.774L0,2.917Z" transform="translate(54.739 48.945) rotate(16.601)"/>
        </g>
      </g>
      <path id="Path_9786" data-name="Path 9786" class="cls-8" d="M141.479,130.054c.119,0,.179-.059.3-.059.12-.059.3-.059.418-.118s.179-.059.3-.118c.06,0,.179-.059.239-.059a4.393,4.393,0,0,0-1.434.413C141.419,130.113,141.479,130.113,141.479,130.054Z" transform="translate(-56.897 -53.164)"/>
      <path id="Path_9787" data-name="Path 9787" class="cls-8" d="M93.483,70.966C90.974,67.545,81.715,48.432,78.49,47.016a92.4,92.4,0,0,0-8.96-2.832l-1.135-2.242a37.447,37.447,0,0,1-10.453-1.18l.119.177c-3.4-.944-6.332-1.711-7.646-2.065-4.3-1.121-9.975,3.363-9.975,3.363-5.555-3.3-13.8,5.309-27.418,15.751A53.525,53.525,0,0,1,0,65.48v41.058l14.037-4.66s12.663,3.068,22.639.354c2.807-.767,5.436-1.652,7.945-2.6h0c2.33,7.846,9.318,7.2,11.17,4.306s.836-5.073.836-5.073,3.106,2.537,6.391,1.534c1.971-.59,4.062-3.539,5.436-5.84l3.226-.177c1.434,1.77,3.584,3.893,5.973,4.188,2.807.295,4.719-3.186,5.734-5.6.179-.059.358-.059.478-.118.119,0,.179-.059.3-.059a2.617,2.617,0,0,0,.3-.059,4.391,4.391,0,0,1,1.434-.413c.06,0,.119-.059.179-.059.119-.059.179-.059.3-.118a.871.871,0,0,1,.418-.118c.06,0,.119-.059.179-.059a2.5,2.5,0,0,1,.3.413c2.27.295,4.54,1.534,6.69.767l-.239-.767a32.685,32.685,0,0,0-1.553-4.247A5.86,5.86,0,0,0,93,86.717c1.852.295,3.4-.118,4.122-1.062C99.994,81.88,95.991,74.447,93.483,70.966Z" transform="translate(0 -15.844)"/>
      <g id="Group_7616" data-name="Group 7616" transform="translate(0 0)">
        <path id="Path_9788" data-name="Path 9788" class="cls-3" d="M119.089,78.345l-2.807-13.8L95.614,45.9,82.771,55.929,80.8,75.573s18.517,6.666,19.115,6.371C100.572,81.649,119.089,78.345,119.089,78.345Z" transform="translate(-32.535 -18.799)"/>
        <path id="Path_9789" data-name="Path 9789" class="cls-3" d="M111.541,113.8s-1.434,8.377-5.615,8.377c-4.241-.059-8.422-5.9-8.422-5.9s-2.748,7.9-5.914,9.2-6.511-.885-6.511-.885,1.254,2.006-.239,5.132c-1.493,3.068-8.363,4.483-11.529-3.068C70.026,119.054,96.428,105.191,111.541,113.8Z" transform="translate(-29.407 -45.527)"/>
        <path id="Path_9790" data-name="Path 9790" class="cls-4" d="M89.361,61.384c-2.867-3.186-14.1-21.178-17.442-22.24-3.345-1.121-24.371-4.483-28.791-5.191-4.361-.708-9.557,4.365-9.557,4.365C27.716,35.6,20.429,45.043,8,56.842a59.283,59.283,0,0,1-8,6.312v43.418l13.619-6.194s12.962,1.711,22.519-2.006c9.617-3.716,16.486-8.908,26.223-10.265s21.146-2.95,25.446-7.079a10.493,10.493,0,0,0,2.748-4.011c1.911.118,3.345-.472,4-1.475C97.007,71.531,92.228,64.511,89.361,61.384ZM54.477,66.575c-2.33-2.419-1.732-12.506-.717-14.63,1.075-2.124,6.212-3.6,6.212-3.6,6.75-.236,14.336,14.04,19.593,21.355-2.628.236-5.436.59-7.825.767C65.766,70.941,56.806,68.994,54.477,66.575Z" transform="translate(0 -13.872)"/>
        <path id="Path_9791" data-name="Path 9791" class="cls-7" d="M67.923,7.162l41.321,58.545a36.878,36.878,0,0,0,4.161,4.9l6.213,6.129a.9.9,0,0,0,1.465-.992l-3.165-7.763a33.967,33.967,0,0,0-3.224-6.129L75.543,2.026A4.576,4.576,0,0,0,69.916.333c-.059,0-.059.058-.117.058A4.579,4.579,0,0,0,67.923,7.162Z" transform="translate(-27.462 0.041)"/>
        <path id="Path_9792" data-name="Path 9792" class="cls-4" d="M119.738,95.139c5.973-.472,14.4-2.006,17.024.236,2.569,2.242,3.4,6.253-.956,10.383-2.33,2.183-6.69,3.716-11.767,4.837-2.509-4.9-4.6-10.088-4.838-15.4A1.341,1.341,0,0,0,119.738,95.139Z" transform="translate(-47.998 -38.601)"/>
      </g>
    </g>
    <g id="Group_7605" data-name="Group 7605" transform="translate(317.6 1412.4)">
      <ellipse id="Ellipse_346" data-name="Ellipse 346" class="cls-4" cx="27.482" cy="27.482" rx="27.482" ry="27.482" transform="translate(17.546 13.365)"/>
      <path id="Path_9765" data-name="Path 9765" class="cls-9" d="M45.4,10.6a30,30,0,1,0,30,30,30,30,0,0,0-30-30Zm0,56.534h0A26.534,26.534,0,1,1,71.934,40.6,26.54,26.54,0,0,1,45.4,67.134Z" transform="translate(0)"/>
      <path id="Path_9766" data-name="Path 9766" class="cls-10" d="M89.314,70.3V82.205h15V70.3Zm11.142,8.067h-7.3v-4.23h7.3v4.23ZM89.314,89.138h4.23v3.838H88.922V104.9h15.371v-3.838H93.523V97.226h10.77v-12.3h-15v4.209Zm7.675,0h3.838v3.838H96.989V89.138ZM83.867,80.843h0L85.455,82.6l2.311-2.311-3.776-4.147-3.528,2.352V74.138h6.149V70.3H76.6v8.171L73.55,76.057l-4.23,4.23,1.919,2.682,2.682-2.311,2.1,2.125.578-.578v4.312L73.53,84.124l-4.23,4.23,1.919,2.682L73.9,88.725l2.146,2.146.578-.578v2.682H70.455v3.838H76.6v4.23H70.455V104.9H86.611v-3.838H80.462v-4.23h6.149V93H80.462V91.2l3.4-2.27,1.589,1.754,2.311-2.311-3.776-4.147-3.528,2.352V83.113Z" transform="translate(-42.779 -47.382)"/>
    </g>
  </g>
</svg>
