<svg xmlns="http://www.w3.org/2000/svg" xmlns:xlink="http://www.w3.org/1999/xlink" viewBox="0 0 120 120">
  <defs>
    <style>
      .cls-1 {
        fill: #fdd756;
      }

      .cls-2 {
        clip-path: url(#clip-path);
      }

      .cls-3 {
        fill: #ecb92b;
      }

      .cls-4 {
        fill: #6ac3c0;
      }

      .cls-5 {
        fill: #ea5b4d;
      }

      .cls-6 {
        fill: #fff;
      }

      .cls-7 {
        fill: #2c3c4e;
      }
    </style>
    <clipPath id="clip-path">
      <rect id="Rectangle_2428" data-name="Rectangle 2428" class="cls-1" width="120" height="120" rx="10" transform="translate(851 1045)"/>
    </clipPath>
  </defs>
  <g id="Mask_Group_41" data-name="Mask Group 41" class="cls-2" transform="translate(-851 -1045)">
    <g id="Group_7620" data-name="Group 7620" transform="translate(4 8)">
      <rect id="Rectangle_2411" data-name="Rectangle 2411" class="cls-1" width="120" height="120" transform="translate(847 1037)"/>
      <g id="Group_7613" data-name="Group 7613" transform="translate(874.097 1052.484)">
        <path id="Path_9779" data-name="Path 9779" class="cls-3" d="M197.973,76.2,226.6,94.695v85.638H180.65L133.7,159.9Z" transform="translate(-133.7 -76.2)"/>
        <g id="Group_7612" data-name="Group 7612" transform="translate(0 0)">
          <rect id="Rectangle_2413" data-name="Rectangle 2413" class="cls-4" width="56.832" height="28.728" transform="translate(4.257 4.121)"/>
          <rect id="Rectangle_2414" data-name="Rectangle 2414" class="cls-5" width="17.596" height="28.865" transform="translate(10.195 41.852)"/>
          <rect id="Rectangle_2415" data-name="Rectangle 2415" class="cls-6" width="25.545" height="28.553" transform="translate(32.673 39.704)"/>
          <path id="Path_9780" data-name="Path 9780" class="cls-6" d="M152.6,264.1l.742.02,27.674.644-.527,8.925h-4.355l.078-3.789-2.344-.781L158.54,268.9l-.625,4.785H151.9Z" transform="translate(-148.346 -227.404)"/>
          <g id="Group_7611" data-name="Group 7611">
            <g id="Group_7610" data-name="Group 7610">
              <path id="Path_9781" data-name="Path 9781" class="cls-7" d="M195.753,146.68h4.14l1.113,3.711h3.515L200.03,135.9h-4.3L191.3,150.391h3.4Zm1.328-5.527c.234-.84.449-1.933.664-2.793h.039c.215.859.469,1.933.723,2.793l.9,3.066h-3.2Z" transform="translate(-180.051 -124.241)"/>
              <path id="Path_9782" data-name="Path 9782" class="cls-7" d="M260.686,150.491h3.3V138.754h3.945V136H256.8v2.754h3.886Z" transform="translate(-232.759 -124.321)"/>
              <path id="Path_9783" data-name="Path 9783" class="cls-7" d="M326.561,144.984c.1-1.8.176-4.043.254-6h.039c.352,1.894.84,3.965,1.309,5.664l1.543,5.605h2.558l1.758-5.664c.566-1.7,1.152-3.769,1.621-5.605h.059c0,2.109.059,4.218.137,5.957l.215,5.546h3.2L338.475,136H334.2l-1.543,4.824c-.469,1.621-.976,3.535-1.367,5.195h-.059c-.312-1.7-.781-3.5-1.23-5.175L328.573,136h-4.355l-.918,14.491h3.027Z" transform="translate(-286.272 -124.321)"/>
              <path id="Path_9784" data-name="Path 9784" class="cls-7" d="M133.7,76.2v83.7h64.292V76.2Zm26.4,67.514H144.676v-25H160.1Zm4.472-26.971h0v3.925h-2.344v-3.925H142.547v3.925H140.2V114.4h24.373Zm6.953,26.385h-4.765v-4.765h4.765Zm0-7.148h-4.765v-4.765h4.765Zm0-6.972h-4.765v-4.765h4.765Zm0-7.148h-4.765V117.1h4.765Zm9.57,21.268h-4.765v-4.765H181.1Zm0-7.148h-4.765v-4.765H181.1Zm0-6.972h-4.765v-4.765H181.1Zm0-7.148h-4.765V117.1H181.1Zm9.55,21.268h-4.765v-4.765h4.765Zm0-7.148h-4.765v-4.765h4.765Zm0-6.972h-4.765v-4.765h4.765Zm0-7.148h-4.765V117.1h4.765Zm1.387-14.218h-52.4V81.864h52.379v25.779Z" transform="translate(-133.7 -76.2)"/>
            </g>
          </g>
        </g>
      </g>
    </g>
  </g>
</svg>
