<svg xmlns="http://www.w3.org/2000/svg" viewBox="0 0 75.849 67">
  <defs>
    <style>
      .cls-1 {
        fill: #f59942;
      }
    </style>
  </defs>
  <g id="homearea1" transform="translate(0 -28)">
    <g id="Group_167436" data-name="Group 167436" transform="translate(0 28)">
      <path id="Path_157490" data-name="Path 157490" class="cls-1" d="M53.094,52.307V50.755h6.321a1.264,1.264,0,0,0,.894-2.158L51.83,40.118V29.264A1.264,1.264,0,0,0,50.566,28H45.509a1.264,1.264,0,0,0-1.264,1.264V33.8L38.818,28.37a1.264,1.264,0,0,0-1.76-.027L15.567,48.57a1.264,1.264,0,0,0,.867,2.184h6.321v1.552C8.9,55.83,0,63.769,0,72.725,0,85.007,17.013,95,37.925,95s37.925-9.993,37.925-22.275C75.849,63.769,66.945,55.83,53.094,52.307Zm-33.473-4.08L37.9,31.025l6.718,6.718a1.264,1.264,0,0,0,2.158-.894V30.528H49.3V40.642a1.265,1.265,0,0,0,.37.894l6.691,6.691H51.83a1.264,1.264,0,0,0-1.264,1.264V65.925H25.283V49.491a1.264,1.264,0,0,0-1.264-1.264Zm4.4,20.226H51.83a1.264,1.264,0,0,0,1.264-1.264V62.712a6.01,6.01,0,0,1,2.528,4.477c0,4.8-8.1,8.849-17.7,8.849s-17.7-4.052-17.7-8.849a6.011,6.011,0,0,1,2.528-4.477v4.477A1.264,1.264,0,0,0,24.019,68.453ZM37.925,92.472c-19.518,0-35.4-8.858-35.4-19.747,0-7.633,7.891-14.515,20.226-17.807v4.7C19.5,61.686,17.7,64.348,17.7,67.189c0,6.38,8.884,11.377,20.226,11.377s20.226-5,20.226-11.377c0-2.841-1.8-5.5-5.057-7.569v-4.7C65.43,58.21,73.321,65.092,73.321,72.725,73.321,83.613,57.442,92.472,37.925,92.472Z" transform="translate(0 -28)"/>
    </g>
  </g>
</svg>
