<svg xmlns="http://www.w3.org/2000/svg" viewBox="0 0 55.936 78.296">
  <defs>
    <style>
      .cls-1 {
        fill: #f59942;
      }
    </style>
  </defs>
  <g id="jobarea" transform="translate(0 0)">
    <path id="Path_78249" data-name="Path 78249" class="cls-1" d="M87.409,839.665a3.466,3.466,0,0,1-.311,1.682,1.146,1.146,0,0,1-1,.374,1.224,1.224,0,0,1-1.059-.561,2.891,2.891,0,0,1-.249-1.246l-1.993.249a3.618,3.618,0,0,0,.81,2.492,3.15,3.15,0,0,0,2.367.872,3.693,3.693,0,0,0,2.118-.561,3.128,3.128,0,0,0,1.121-1.433,7.42,7.42,0,0,0,.249-1.993V833H87.409v6.665Z" transform="translate(-69.284 -816.369)"/>
    <path id="Path_78250" data-name="Path 78250" class="cls-1" d="M106.528,838.057a5.291,5.291,0,0,0-1.37-3.924,4.925,4.925,0,0,0-3.675-1.433,5.151,5.151,0,0,0-2.242.436,3.18,3.18,0,0,0-1.308.934A3.575,3.575,0,0,0,97,835.5a6.628,6.628,0,0,0-.5,2.678,5.235,5.235,0,0,0,1.37,3.862,4.925,4.925,0,0,0,3.675,1.433,5.024,5.024,0,0,0,3.675-1.433A6.377,6.377,0,0,0,106.528,838.057Zm-2.99,2.616a2.6,2.6,0,0,1-2.056.872,2.661,2.661,0,0,1-2.056-.934,4.834,4.834,0,0,1,0-5.357,2.858,2.858,0,0,1,4.111,0,4.039,4.039,0,0,1,.81,2.678A3.9,3.9,0,0,1,103.539,840.673Z" transform="translate(-74.45 -816.256)"/>
    <path id="Path_78251" data-name="Path 78251" class="cls-1" d="M121.28,843.177a3.565,3.565,0,0,0,1.433-.5,2.433,2.433,0,0,0,.872-1.059,2.612,2.612,0,0,0,.311-1.37,2.583,2.583,0,0,0-.5-1.557,2.638,2.638,0,0,0-1.433-.934,2.2,2.2,0,0,0,1.059-.934,2.616,2.616,0,0,0,.374-1.308,2.385,2.385,0,0,0-.311-1.183,2.714,2.714,0,0,0-.81-.872,3.174,3.174,0,0,0-1.059-.436,11.507,11.507,0,0,0-1.806-.125H115.3v10.34h3.55A21.613,21.613,0,0,0,121.28,843.177Zm-3.986-8.533h1.183a11.216,11.216,0,0,1,1.806.062,1.408,1.408,0,0,1,.81.374,1.057,1.057,0,0,1,.249.81,1.184,1.184,0,0,1-.311.81,1.616,1.616,0,0,1-.872.374c-.187,0-.685.062-1.495.062h-1.37v-2.491Zm0,4.111h1.682a10.62,10.62,0,0,1,1.869.125.856.856,0,0,1,.623.5,1.558,1.558,0,0,1,.249.81,1.232,1.232,0,0,1-.311.872,1.155,1.155,0,0,1-.747.436,7.267,7.267,0,0,1-1.433.062h-1.931Z" transform="translate(-81.54 -816.331)"/>
    <path id="Path_78252" data-name="Path 78252" class="cls-1" d="M115.54,851.708H103.767c3.862-6.789,7.1-15.011,7.1-23.607a21.8,21.8,0,0,0-43.6,0c0,8.658,3.177,16.818,7.1,23.607H62.595A1.516,1.516,0,0,0,61.1,853.2v29.9a1.516,1.516,0,0,0,1.495,1.495H115.54a1.516,1.516,0,0,0,1.495-1.495V853.2A1.475,1.475,0,0,0,115.54,851.708ZM89.067,809.29a18.768,18.768,0,0,1,18.749,18.749c0,17.441-14.638,33.76-18.749,37.933-4.049-4.173-18.749-20.493-18.749-37.933A18.768,18.768,0,0,1,89.067,809.29Zm24.977,72.254H64.09V854.7H76.174a84.114,84.114,0,0,0,11.772,14.513,1.766,1.766,0,0,0,1.059.436,1.458,1.458,0,0,0,1.059-.436A80.968,80.968,0,0,0,101.836,854.7H113.92v26.846Z" transform="translate(-61.1 -806.3)"/>
  </g>
</svg>
