<svg xmlns="http://www.w3.org/2000/svg" viewBox="0 0 60.73 54.627">
  <defs>
    <style>
      .cls-1 {
        fill: #f59942;
      }
    </style>
  </defs>
  <path id="jobcategory" class="cls-1" d="M712.674,834.643h-15.51v-7.848a1.516,1.516,0,0,0-1.495-1.495H672a1.516,1.516,0,0,0-1.495,1.495v7.848h-15.51a1.516,1.516,0,0,0-1.495,1.495v42.293a1.516,1.516,0,0,0,1.495,1.495h57.741a1.516,1.516,0,0,0,1.495-1.495V836.138A1.53,1.53,0,0,0,712.674,834.643Zm-39.179-6.353h20.617v6.353H673.494ZM672,837.7h39.179v7.973H693.053v-1.62a1.516,1.516,0,0,0-1.495-1.495H676.11a1.516,1.516,0,0,0-1.495,1.495v1.62H656.49V837.7Zm18,7.848v3.3h-12.4v-3.3ZM656.49,876.937V848.72h18.126v1.62a1.516,1.516,0,0,0,1.495,1.495h15.447a1.516,1.516,0,0,0,1.495-1.495v-1.62h18.126v28.216Z" transform="translate(-653.5 -825.3)"/>
</svg>
