<svg xmlns="http://www.w3.org/2000/svg" viewBox="0 0 427.364 400.27">
  <defs>
    <style>
      .cls-1 {
        fill: none;
      }

      .cls-2 {
        fill: #73d0f4;
      }

      .cls-3 {
        fill: #3d6889;
      }
    </style>
  </defs>
  <g id="alarm-clock" transform="translate(0 -13.547)">
    <g id="Group_72826" data-name="Group 72826">
      <path id="Path_77425" data-name="Path 77425" class="cls-1" d="M213.682,65.323c-86.434,0-156.754,70.318-156.754,156.752s70.32,156.752,156.754,156.752,156.752-70.318,156.752-156.752S300.116,65.323,213.682,65.323Zm0,300.674c-79.359,0-143.923-64.563-143.923-143.922S134.323,78.153,213.682,78.153,357.6,142.716,357.6,222.075,293.042,366,213.682,366Z"/>
      <path id="Path_77426" data-name="Path 77426" class="cls-1" d="M213.682,102.153A119.922,119.922,0,1,0,333.6,222.075,120.058,120.058,0,0,0,213.682,102.153Zm75.232,155a12,12,0,0,1-3.723-.594l-44.67-14.566a33.418,33.418,0,1,1-53.034-40.661l-37.572-53.553a12,12,0,1,1,19.647-13.783l38.658,55.1a33.408,33.408,0,0,1,38.737,29.752l45.673,14.893a12,12,0,0,1-3.716,23.412Z"/>
      <path id="Path_77427" data-name="Path 77427" class="cls-1" d="M213.682,212.639a9.437,9.437,0,1,0,9.435,9.436A9.447,9.447,0,0,0,213.682,212.639Z"/>
      <path id="Path_77428" data-name="Path 77428" class="cls-2" d="M69.892,37.547a45.93,45.93,0,0,0-39.835,68.791L92.768,43.627A45.67,45.67,0,0,0,69.892,37.547Z"/>
      <path id="Path_77429" data-name="Path 77429" class="cls-2" d="M357.471,37.547a45.667,45.667,0,0,0-22.877,6.08L397.3,106.338a45.929,45.929,0,0,0-39.834-68.791Z"/>
      <path id="Path_77430" data-name="Path 77430" class="cls-3" d="M213.682,78.153c-79.359,0-143.923,64.563-143.923,143.922S134.322,366,213.682,366,357.6,301.434,357.6,222.075,293.042,78.153,213.682,78.153Zm0,263.844A119.922,119.922,0,1,1,333.6,222.075,120.058,120.058,0,0,1,213.682,342Z"/>
      <path id="Path_77431" data-name="Path 77431" class="cls-3" d="M394.434,222.075c0-99.668-81.086-180.752-180.752-180.752S32.928,122.407,32.928,222.075A180.357,180.357,0,0,0,93.961,357.37L70.7,395.575a12,12,0,1,0,20.5,12.48l21.859-35.9a180.4,180.4,0,0,0,201.248,0l21.859,35.9a12,12,0,1,0,20.5-12.48L333.4,357.37A180.357,180.357,0,0,0,394.434,222.075ZM213.682,378.827c-86.434,0-156.754-70.318-156.754-156.752S127.248,65.323,213.682,65.323s156.752,70.318,156.752,156.752S300.116,378.827,213.682,378.827Z"/>
      <path id="Path_77432" data-name="Path 77432" class="cls-3" d="M292.631,233.737l-45.673-14.893a33.408,33.408,0,0,0-38.737-29.752l-38.658-55.1a12,12,0,1,0-19.647,13.783l37.572,53.553a33.418,33.418,0,1,0,53.034,40.661l44.67,14.566a12,12,0,1,0,7.439-22.818Zm-78.949-2.225a9.437,9.437,0,1,1,9.435-9.438A9.449,9.449,0,0,1,213.682,231.512Z"/>
      <path id="Path_77433" data-name="Path 77433" class="cls-3" d="M119.338,51a12,12,0,0,0,0-16.97,69.925,69.925,0,1,0-98.89,98.888,12,12,0,0,0,16.97,0Zm-81.92,0a45.984,45.984,0,0,1,55.35-7.371L30.057,106.338A46.011,46.011,0,0,1,37.418,51Z"/>
      <path id="Path_77434" data-name="Path 77434" class="cls-3" d="M406.917,34.028a69.925,69.925,0,0,0-98.89,0,12,12,0,0,0,0,16.97l81.919,81.918a12,12,0,0,0,16.97,0A70.006,70.006,0,0,0,406.917,34.028Zm-9.612,72.31L334.594,43.627A45.942,45.942,0,0,1,397.3,106.338Z"/>
    </g>
  </g>
</svg>
