<svg xmlns="http://www.w3.org/2000/svg" viewBox="0 0 392.276 278.255">
  <defs>
    <style>
      .cls-1 {
        fill: #3d6889;
      }
    </style>
  </defs>
  <path id="envelope" class="cls-1" d="M380.276,57.011H12a12,12,0,0,0-12,12V323.266a12,12,0,0,0,12,12H380.276a12,12,0,0,0,12-12V69.011A12,12,0,0,0,380.276,57.011ZM24,96.471l57.35,53.085L24,203.836Zm18.629-15.46H349.646L196.138,223.1ZM368.276,96.47V203.834l-57.35-54.279ZM24,311.266V236.881l75-70.986,88.986,82.369a12,12,0,0,0,16.3,0l88.986-82.369,73.279,69.355a12.045,12.045,0,0,0,1.722,1.349v74.667Z" transform="translate(0 -57.011)"/>
</svg>
