<svg xmlns="http://www.w3.org/2000/svg" viewBox="0 0 393.261 393.26">
  <defs>
    <style>
      .cls-1 {
        fill: none;
      }

      .cls-2 {
        fill: #73d0f4;
      }

      .cls-3 {
        fill: #3d6889;
      }
    </style>
  </defs>
  <g id="telephone" transform="translate(0 0)">
    <path id="Path_77421" data-name="Path 77421" class="cls-1" d="M220.987,285.55c-30.954-4.661-105.48-74.205-113.276-113.276-2.52-12.633,1.13-22.8,3.978-29.522l-75.43-75.43c-.173.14-28.831,29.748,6.229,94.854,11.337,21.052,40.75,71.006,80.268,110.436,38.815,38.729,87.653,67.027,108.33,78.162,65.105,35.061,94.715,6.4,94.855,6.23L250.51,281.572C243.787,284.421,236.425,287.876,220.987,285.55Z"/>
    <path id="Path_77422" data-name="Path 77422" class="cls-2" d="M269.586,266.707l73.325,73.325,20.041-20.041-83.178-63.472Z"/>
    <path id="Path_77423" data-name="Path 77423" class="cls-2" d="M53.229,50.351l73.324,73.323,10.188-10.189L73.27,30.31Z"/>
    <path id="Path_77424" data-name="Path 77424" class="cls-3" d="M285.993,231.072a12,12,0,0,0-15.767,1.054L244.77,257.581c-25.876,25.877-72.966-28.63-76.932-32.158-3.529-3.967-56.4-52.7-32.16-76.934l25.456-25.455a12,12,0,0,0,1.053-15.768L83.9,4.718a12,12,0,0,0-18.023-1.2L20.548,48.84c-6.359,7.352-43.291,40.994.706,124.52,30.287,57.5,65.019,95.688,84.29,114.356,18.668,19.271,56.86,54,114.355,84.289,83.525,44,117.169,7.067,124.519.706l45.327-45.327a12,12,0,0,0-1.2-18.023Zm-159.44-107.4L53.229,50.351,73.27,30.31l63.471,83.176ZM325.941,357c-.14.173-29.75,28.83-94.855-6.23-20.677-11.135-69.515-39.433-108.33-78.162-39.518-39.43-68.931-89.384-80.268-110.436-35.061-65.1-6.4-94.714-6.229-94.854l75.43,75.43c-2.849,6.724-6.5,16.89-3.978,29.522,7.8,39.071,82.323,108.615,113.276,113.276,15.438,2.326,22.8-1.129,29.523-3.979Zm16.97-16.971-73.325-73.325,10.188-10.188,83.178,63.473Z"/>
  </g>
</svg>
