<svg xmlns="http://www.w3.org/2000/svg" viewBox="0 0 120 120">
  <defs>
    <style>
      .cls-1, .cls-2 {
        fill: #fff;
      }

      .cls-1 {
        stroke: #707070;
        opacity: 0;
      }

      .cls-3 {
        stroke: none;
      }

      .cls-4 {
        fill: none;
      }
    </style>
  </defs>
  <g id="Group_72831" data-name="Group 72831" transform="translate(9534 8246)">
    <g id="Rectangle_20896" data-name="Rectangle 20896" class="cls-1" transform="translate(-9534 -8246)">
      <rect class="cls-3" width="120" height="120"/>
      <rect class="cls-4" x="0.5" y="0.5" width="119" height="119"/>
    </g>
    <g id="Group_72830" data-name="Group 72830" transform="translate(0 5)">
      <path id="Path_77438" data-name="Path 77438" class="cls-2" d="M950.957,893.21h22.891a2.487,2.487,0,0,0,2.453-2.453v-14.1a13.907,13.907,0,0,0-6.642-11.854,10.655,10.655,0,0,0,3.474-7.869,10.832,10.832,0,1,0-21.664,0,10.488,10.488,0,0,0,3.474,7.869,13.907,13.907,0,0,0-6.642,11.854v14.1A2.673,2.673,0,0,0,950.957,893.21Zm5.62-36.38a5.825,5.825,0,1,1,5.825,5.825A5.758,5.758,0,0,1,956.577,856.83Zm-3.168,19.825a8.993,8.993,0,0,1,17.985,0V888.2H953.512V876.655Z" transform="translate(-10392.3 -9042.1)"/>
      <path id="Path_77440" data-name="Path 77440" class="cls-2" d="M950.957,893.21h22.891a2.487,2.487,0,0,0,2.453-2.453v-14.1a13.907,13.907,0,0,0-6.642-11.854,10.655,10.655,0,0,0,3.474-7.869,10.832,10.832,0,1,0-21.664,0,10.488,10.488,0,0,0,3.474,7.869,13.907,13.907,0,0,0-6.642,11.854v14.1A2.673,2.673,0,0,0,950.957,893.21Zm5.62-36.38a5.825,5.825,0,1,1,5.825,5.825A5.758,5.758,0,0,1,956.577,856.83Zm-3.168,19.825a8.993,8.993,0,0,1,17.985,0V888.2H953.512V876.655Z" transform="translate(-10480.3 -9042.1)"/>
      <path id="Path_77439" data-name="Path 77439" class="cls-2" d="M1276.4,885.823v26.3a2.667,2.667,0,0,0,2.63,2.63h42.74a2.667,2.667,0,0,0,2.63-2.63v-26.3a24.073,24.073,0,0,0-13.917-21.808,18.192,18.192,0,1,0-20.384,0A24.256,24.256,0,0,0,1276.4,885.823ZM1287.688,849a12.822,12.822,0,1,1,12.822,12.822A12.838,12.838,0,0,1,1287.688,849Zm12.712,18.192a18.8,18.8,0,0,1,18.74,18.74V909.6H1281.77V885.823A18.614,18.614,0,0,1,1300.4,867.193Z" transform="translate(-10774.4 -9063.7)"/>
    </g>
  </g>
</svg>
