<svg xmlns="http://www.w3.org/2000/svg" viewBox="0 0 120 120">
  <defs>
    <style>
      .cls-1 {
        fill: #fff;
      }
    </style>
  </defs>
  <g id="Group_72829" data-name="Group 72829" transform="translate(-1238.899 -53.8)">
    <path id="Path_52501" data-name="Path 52501" class="cls-1" d="M1287.142,150.284a47.789,47.789,0,0,0,26.039-7.67l28.158,28.158a10.276,10.276,0,1,0,14.533-14.533l-28.158-28.158a48.217,48.217,0,1,0-40.572,22.2Zm65.3,9.386a5.352,5.352,0,0,1-7.569,7.569l-27.552-27.553a44.761,44.761,0,0,0,7.569-7.569Zm-65.3-101.026a43.4,43.4,0,1,1-43.4,43.4A43.46,43.46,0,0,1,1287.142,58.644Z" transform="translate(0 0)"/>
    <path id="Path_52502" data-name="Path 52502" class="cls-1" d="M1265.415,113.117a6.738,6.738,0,0,0,2.624-3.431,14.681,14.681,0,0,0,.5-4.743V89.4H1263.6v15.845c0,2.019-.2,3.331-.706,3.936a2.762,2.762,0,0,1-2.321.908,2.529,2.529,0,0,1-2.422-1.312,5.672,5.672,0,0,1-.606-3.028l-4.642.5a8.162,8.162,0,0,0,2.018,5.955,7.565,7.565,0,0,0,5.652,2.019A8.048,8.048,0,0,0,1265.415,113.117Z" transform="translate(0.129 0.329)"/>
    <path id="Path_52503" data-name="Path 52503" class="cls-1" d="M1284.609,114.332a11.635,11.635,0,0,0,8.68-3.331c2.119-2.22,3.229-5.349,3.229-9.285,0-4.037-1.11-7.166-3.229-9.386a11.481,11.481,0,0,0-8.68-3.331,12.97,12.97,0,0,0-5.349,1.009,9.379,9.379,0,0,0-3.129,2.22,12.386,12.386,0,0,0-2.321,3.331,16.518,16.518,0,0,0-1.11,6.257c0,3.936,1.11,6.964,3.23,9.184A11.481,11.481,0,0,0,1284.609,114.332Zm-4.945-19.075a6.829,6.829,0,0,1,9.891,0c1.211,1.413,1.817,3.532,1.817,6.257,0,2.826-.605,4.945-1.918,6.459a6.712,6.712,0,0,1-9.79,0c-1.312-1.413-1.918-3.532-1.918-6.358A9.56,9.56,0,0,1,1279.664,95.257Z" transform="translate(0.313 0.326)"/>
    <path id="Path_52504" data-name="Path 52504" class="cls-1" d="M1314.531,113.822a6.046,6.046,0,0,0,3.331-1.211,6.469,6.469,0,0,0,2.119-2.523,7.283,7.283,0,0,0,.807-3.23,6.125,6.125,0,0,0-1.211-3.734,6.4,6.4,0,0,0-3.432-2.22,5.826,5.826,0,0,0,2.523-2.119,5.916,5.916,0,0,0,.908-3.129,5.12,5.12,0,0,0-.706-2.826,6.116,6.116,0,0,0-1.918-2.019,6.976,6.976,0,0,0-2.523-1.009,24.612,24.612,0,0,0-4.34-.2h-9.79v24.626h8.377C1311.7,113.923,1313.723,113.822,1314.531,113.822Zm-9.386-20.387h2.826a37.331,37.331,0,0,1,4.239.1,3.124,3.124,0,0,1,1.918.908,2.818,2.818,0,0,1,.605,1.817,2.512,2.512,0,0,1-.706,1.918,3.146,3.146,0,0,1-2.018.908,28.8,28.8,0,0,1-3.633.1h-3.23V93.435Zm0,9.79h4.037a20.383,20.383,0,0,1,4.441.3,2.515,2.515,0,0,1,1.514,1.11,2.877,2.877,0,0,1,.5,1.918,2.843,2.843,0,0,1-.706,2.119,4.036,4.036,0,0,1-1.817,1.009,25.9,25.9,0,0,1-3.432.1h-4.642v-6.56Z" transform="translate(0.568 0.331)"/>
  </g>
</svg>
