<svg xmlns="http://www.w3.org/2000/svg" xmlns:xlink="http://www.w3.org/1999/xlink" viewBox="0 0 46 44">
  <defs>
    <style>
      .cls-1, .cls-2, .cls-7 {
        fill: #fff;
      }

      .cls-1 {
        clip-rule: evenodd;
      }

      .cls-3 {
        fill: none;
      }

      .cls-4 {
        clip-path: url(#clip-path);
      }

      .cls-5 {
        clip-path: url(#clip-path-2);
      }

      .cls-6, .cls-7 {
        stroke: none;
      }
    </style>
    <clipPath id="clip-path">
      <path id="Path_48404" data-name="Path 48404" class="cls-1" d="M1300.072-96.953a.828.828,0,0,1,.386-.619A12.139,12.139,0,0,1,1307-99.286a12.129,12.129,0,0,1,6.542,1.713.824.824,0,0,1,.386.619.876.876,0,0,1-.253.721.862.862,0,0,1-1.075.123,9.74,9.74,0,0,0-2.258-1.1l-1.021-.345v2.121h-4.642v-2.121l-1.021.344a9.751,9.751,0,0,0-2.257,1.1.861.861,0,0,1-1.076-.123A.876.876,0,0,1,1300.072-96.953Zm4.607-6.189a2.321,2.321,0,0,1,2.321-2.314,2.32,2.32,0,0,1,2.321,2.314,2.32,2.32,0,0,1-2.321,2.314A2.321,2.321,0,0,1,1304.679-103.143Zm-2.425,8.32a8.044,8.044,0,0,1,.878-.5v1.438h7.736v-1.438a7.954,7.954,0,0,1,.878.5,2.413,2.413,0,0,0,3.023-.319,2.4,2.4,0,0,0,.7-1.983,2.366,2.366,0,0,0-1.1-1.752,12.778,12.778,0,0,0-4.507-1.692,3.822,3.822,0,0,0,1.008-2.574A3.867,3.867,0,0,0,1307-107a3.867,3.867,0,0,0-3.868,3.857,3.822,3.822,0,0,0,1.008,2.574,12.778,12.778,0,0,0-4.507,1.692,2.37,2.37,0,0,0-1.1,1.752,2.407,2.407,0,0,0,.7,1.983A2.416,2.416,0,0,0,1302.254-94.823Zm-11.092,13.464a12.026,12.026,0,0,1,.387-6.734,12.052,12.052,0,0,1,3.656-5.673.819.819,0,0,1,.532-.194.9.9,0,0,1,.177.018.876.876,0,0,1,.609.464.853.853,0,0,1-.214,1.057,9.712,9.712,0,0,0-1.743,1.8l-.643.862,2.022.656-1.434,4.4-2.022-.655.012,1.075a9.715,9.715,0,0,0,.347,2.479.853.853,0,0,1-.45.981.879.879,0,0,1-.764.017A.827.827,0,0,1,1291.162-81.359Zm-4.009-5.724a2.3,2.3,0,0,1-1.35-1.15,2.289,2.289,0,0,1-.139-1.766,2.325,2.325,0,0,1,2.208-1.6,2.332,2.332,0,0,1,.716.113,2.315,2.315,0,0,1,1.49,2.915h0v0A2.323,2.323,0,0,1,1287.153-87.083Zm5.947,7.64a2.4,2.4,0,0,0,1.24-2.769,7.673,7.673,0,0,1-.207-.987l1.37.444,2.392-7.337-1.371-.444a8.124,8.124,0,0,1,.749-.679,2.4,2.4,0,0,0,.629-2.965,2.419,2.419,0,0,0-1.675-1.274,2.386,2.386,0,0,0-2.012.5,12.684,12.684,0,0,0-3.005,3.75,3.832,3.832,0,0,0-2.145-1.75,3.876,3.876,0,0,0-4.873,2.476,3.814,3.814,0,0,0,.232,2.943,3.838,3.838,0,0,0,2.251,1.917,3.894,3.894,0,0,0,1.2.191,3.858,3.858,0,0,0,1.565-.34,12.691,12.691,0,0,0,.222,4.786,2.373,2.373,0,0,0,1.333,1.585,2.431,2.431,0,0,0,1,.217A2.439,2.439,0,0,0,1293.1-79.443Zm11.332,11.637a.814.814,0,0,1-.679.274,12.113,12.113,0,0,1-6.3-2.447,12.078,12.078,0,0,1-4.282-5.221h0a.826.826,0,0,1,.053-.727.875.875,0,0,1,.628-.434.961.961,0,0,1,.14-.011.852.852,0,0,1,.8.541,9.737,9.737,0,0,0,1.18,2.209l.624.877,1.25-1.716,3.755,2.721-1.249,1.715,1.028.32a9.728,9.728,0,0,0,2.472.437.858.858,0,0,1,.8.729A.874.874,0,0,1,1304.432-67.805Zm-7.376,2.307a2.313,2.313,0,0,1-1.515.926,2.32,2.32,0,0,1-1.727-.413,2.3,2.3,0,0,1-.928-1.51,2.293,2.293,0,0,1,.414-1.722,2.313,2.313,0,0,1,1.515-.926,2.476,2.476,0,0,1,.368-.029,2.3,2.3,0,0,1,1.359.443A2.313,2.313,0,0,1,1297.056-65.5Zm6.866-5.31a7.951,7.951,0,0,1-1.007-.11l.848-1.164-6.258-4.534-.849,1.163a8.152,8.152,0,0,1-.415-.92,2.407,2.407,0,0,0-2.633-1.513,2.417,2.417,0,0,0-1.732,1.195,2.369,2.369,0,0,0-.145,2.062,12.7,12.7,0,0,0,2.648,4.01,3.833,3.833,0,0,0-2.331,1.492,3.818,3.818,0,0,0-.692,2.871,3.83,3.83,0,0,0,1.547,2.517,3.841,3.841,0,0,0,2.265.738,3.94,3.94,0,0,0,.614-.049,3.85,3.85,0,0,0,2.525-1.542,3.821,3.821,0,0,0,.7-2.673,12.8,12.8,0,0,0,4.643,1.273c.053,0,.106.005.159.005a2.383,2.383,0,0,0,1.764-.78,2.409,2.409,0,0,0,.6-2.013A2.407,2.407,0,0,0,1303.922-70.808Zm17.194,4.312a2.3,2.3,0,0,1-.929,1.51,2.316,2.316,0,0,1-1.726.413,2.313,2.313,0,0,1-1.516-.926,2.312,2.312,0,0,1,.515-3.232,2.323,2.323,0,0,1,1.726-.413,2.313,2.313,0,0,1,1.515.926A2.3,2.3,0,0,1,1321.116-66.5Zm-10.869-1.035a.812.812,0,0,1-.678-.274.872.872,0,0,1-.22-.731.859.859,0,0,1,.8-.73,9.763,9.763,0,0,0,2.472-.437l1.027-.32-1.248-1.715,3.755-2.721,1.25,1.716.624-.877a9.694,9.694,0,0,0,1.179-2.209.865.865,0,0,1,.943-.531.877.877,0,0,1,.629.434.828.828,0,0,1,.052.727,12.069,12.069,0,0,1-4.282,5.22A12.1,12.1,0,0,1,1310.247-67.531Zm9.373-3.087a12.694,12.694,0,0,0,2.648-4.009,2.366,2.366,0,0,0-.144-2.063,2.421,2.421,0,0,0-1.732-1.195,2.41,2.41,0,0,0-2.634,1.513,8.023,8.023,0,0,1-.414.92l-.849-1.163-6.258,4.534.848,1.164a8.135,8.135,0,0,1-1.007.11,2.41,2.41,0,0,0-2.257,2.03,2.408,2.408,0,0,0,.6,2.012,2.386,2.386,0,0,0,1.764.78c.053,0,.106,0,.159-.005a12.78,12.78,0,0,0,4.643-1.273,3.821,3.821,0,0,0,.7,2.673h0a3.843,3.843,0,0,0,2.524,1.542,3.936,3.936,0,0,0,.613.049,3.844,3.844,0,0,0,2.266-.738,3.83,3.83,0,0,0,1.547-2.517,3.818,3.818,0,0,0-.692-2.871A3.833,3.833,0,0,0,1319.62-70.618Zm8.577-17.615a2.3,2.3,0,0,1-1.35,1.15,2.326,2.326,0,0,1-2.925-1.486,2.315,2.315,0,0,1,1.49-2.916,2.313,2.313,0,0,1,.716-.113,2.325,2.325,0,0,1,2.209,1.6A2.283,2.283,0,0,1,1328.2-88.233Zm-5.358,6.874a.83.83,0,0,1-.472.559.874.874,0,0,1-.765-.018.853.853,0,0,1-.449-.98,9.677,9.677,0,0,0,.347-2.48l.013-1.075-2.023.655-1.434-4.4,2.022-.656-.643-.862a9.717,9.717,0,0,0-1.743-1.8.853.853,0,0,1-.214-1.057.878.878,0,0,1,.609-.464.831.831,0,0,1,.71.176,12.059,12.059,0,0,1,3.656,5.674A12.049,12.049,0,0,1,1322.839-81.359Zm6.969-9.116a3.877,3.877,0,0,0-4.874-2.477,3.83,3.83,0,0,0-2.144,1.75,12.715,12.715,0,0,0-3.005-3.75,2.385,2.385,0,0,0-2.012-.5,2.417,2.417,0,0,0-1.675,1.274,2.4,2.4,0,0,0,.628,2.965,8.012,8.012,0,0,1,.75.679l-1.371.444,2.391,7.337,1.371-.444a7.685,7.685,0,0,1-.207.988,2.4,2.4,0,0,0,1.239,2.767,2.437,2.437,0,0,0,1.1.266,2.444,2.444,0,0,0,1-.217,2.379,2.379,0,0,0,1.333-1.585h0a12.694,12.694,0,0,0,.221-4.786,3.849,3.849,0,0,0,1.565.34,3.89,3.89,0,0,0,1.2-.191,3.841,3.841,0,0,0,2.251-1.917A3.815,3.815,0,0,0,1329.808-90.475Z"/>
    </clipPath>
    <clipPath id="clip-path-2">
      <path id="Path_48403" data-name="Path 48403" class="cls-2" d="M1284-62h46v-46h-46Z"/>
    </clipPath>
  </defs>
  <g id="Group_72832" data-name="Group 72832" transform="translate(2786 -2379)">
    <g id="Path_77441" data-name="Path 77441" class="cls-3" transform="translate(-2771 2395)">
      <path class="cls-6" d="M8,0A8,8,0,1,1,0,8,8,8,0,0,1,8,0Z"/>
      <path class="cls-7" d="M 8 1.600000381469727 C 4.471030235290527 1.600000381469727 1.600000381469727 4.471030235290527 1.600000381469727 8 C 1.600000381469727 11.52896976470947 4.471030235290527 14.39999961853027 8 14.39999961853027 C 11.52896976470947 14.39999961853027 14.39999961853027 11.52896976470947 14.39999961853027 8 C 14.39999961853027 4.471030235290527 11.52896976470947 1.600000381469727 8 1.600000381469727 M 8 0 C 12.41827964782715 0 16 3.581720352172852 16 8 C 16 12.41827964782715 12.41827964782715 16 8 16 C 3.581720352172852 16 0 12.41827964782715 0 8 C 0 3.581720352172852 3.581720352172852 0 8 0 Z"/>
    </g>
    <g id="Group_39400" data-name="Group 39400" class="cls-4" transform="translate(-4070 2486)">
      <g id="Group_39399" data-name="Group 39399" class="cls-5">
        <path id="Path_48402" data-name="Path 48402" class="cls-2" d="M1279-58h56v-54h-56Z"/>
      </g>
    </g>
  </g>
</svg>
