<svg id="arrow-up-on-a-black-circle-background" xmlns="http://www.w3.org/2000/svg" viewBox="0 0 20 20">
  <defs>
    <style>
      .cls-1 {
        fill: #7fba00;
      }
    </style>
  </defs>
  <path id="Path_8943" data-name="Path 8943" class="cls-1" d="M18.659,4.98A9.958,9.958,0,0,0,15.02,1.341,9.782,9.782,0,0,0,10,0a9.782,9.782,0,0,0-5.02,1.341A9.956,9.956,0,0,0,1.341,4.98,9.781,9.781,0,0,0,0,10a9.784,9.784,0,0,0,1.341,5.02,9.958,9.958,0,0,0,3.639,3.639A9.783,9.783,0,0,0,10,20a9.783,9.783,0,0,0,5.02-1.341,9.955,9.955,0,0,0,3.639-3.639A9.783,9.783,0,0,0,20,10,9.784,9.784,0,0,0,18.659,4.98Zm-2.175,5.593L15.3,11.758a.818.818,0,0,1-1.172,0L11.667,9.3v6.536a.845.845,0,0,1-.833.833H9.167a.845.845,0,0,1-.833-.833V9.3L5.873,11.758a.851.851,0,0,1-1.172,0L3.516,10.573a.85.85,0,0,1,0-1.172L8.229,4.687,9.414,3.5a.85.85,0,0,1,1.172,0l1.185,1.185L16.484,9.4a.85.85,0,0,1,0,1.172Z" transform="translate(0 0)"/>
</svg>
