<svg xmlns="http://www.w3.org/2000/svg" xmlns:xlink="http://www.w3.org/1999/xlink" width="262" height="196" viewBox="0 0 262 196">
  <defs>
    <clipPath id="clip-path">
      <path id="Path_158040" data-name="Path 158040" d="M364.773,41.115c-40.738,0-34.393-87.546,30.35-75,42.961,8.446,54.4-50.139,116.947-35.275,62.562,14.989,57.238,110.272,6.674,110.272Z" fill="none"/>
    </clipPath>
    <clipPath id="clip-path-2">
      <rect id="Rectangle_30814" data-name="Rectangle 30814" width="1267.346" height="808.617" transform="translate(-645.957 -307.183)" fill="none"/>
    </clipPath>
    <clipPath id="clip-path-3">
      <rect id="Rectangle_30813" data-name="Rectangle 30813" width="221.182" height="118.377" transform="translate(338.238 -72.494)" fill="none"/>
    </clipPath>
    <clipPath id="clip-path-4">
      <rect id="Rectangle_30794" data-name="Rectangle 30794" width="219.432" height="113.451" transform="translate(338.397 -72.335)" fill="none"/>
    </clipPath>
    <clipPath id="clip-path-5">
      <path id="Path_158036" data-name="Path 158036" d="M361.13-50.249h81.648a.167.167,0,0,1,.17.159V45.724a.167.167,0,0,1-.17.159H361.13a.167.167,0,0,1-.17-.159V-50.09A.167.167,0,0,1,361.13-50.249Z" fill="none"/>
    </clipPath>
    <clipPath id="clip-path-7">
      <rect id="Rectangle_30796" data-name="Rectangle 30796" width="83.579" height="97.72" transform="translate(360.166 -51.043)" fill="none"/>
    </clipPath>
    <clipPath id="clip-path-8">
      <rect id="Rectangle_30795" data-name="Rectangle 30795" width="81.988" height="91.364" transform="translate(360.96 -50.249)" fill="none"/>
    </clipPath>
    <clipPath id="clip-path-9">
      <path id="Path_158039" data-name="Path 158039" d="M364.3-50.249h75.317a.161.161,0,0,1,.16.159V45.724a.16.16,0,0,1-.16.159H364.3a.158.158,0,0,1-.158-.158h0V-50.09A.158.158,0,0,1,364.3-50.249Z" fill="none"/>
    </clipPath>
    <clipPath id="clip-path-11">
      <rect id="Rectangle_30803" data-name="Rectangle 30803" width="150.315" height="97.72" transform="translate(321.872 -51.043)" fill="none"/>
    </clipPath>
    <clipPath id="clip-path-12">
      <rect id="Rectangle_30798" data-name="Rectangle 30798" width="75.635" height="91.364" transform="translate(364.138 -50.249)" fill="none"/>
    </clipPath>
    <clipPath id="clip-path-13">
      <path id="Path_158037" data-name="Path 158037" d="M324.414,14.672H398.2s2-7.975-12.01-5.317-11.818-4.841-20.2-6.572-12.4,5.324-25.185,1.731S318.623,14.672,324.414,14.672Z" fill="none"/>
    </clipPath>
    <clipPath id="clip-path-15">
      <path id="Path_158038" data-name="Path 158038" d="M397.506,1.645H471.3s2-7.977-12.01-5.318-11.818-4.84-20.2-6.574S426.68-4.922,413.9-8.513,391.717,1.645,397.506,1.645Z" fill="none"/>
    </clipPath>
    <clipPath id="clip-path-16">
      <rect id="Rectangle_30800" data-name="Rectangle 30800" width="75.635" height="91.364" transform="translate(364.138 -50.248)" fill="none"/>
    </clipPath>
    <clipPath id="clip-path-17">
      <rect id="Rectangle_30802" data-name="Rectangle 30802" width="116.471" height="3.178" transform="translate(343.005 -21.807)" fill="none"/>
    </clipPath>
    <clipPath id="clip-path-19">
      <rect id="Rectangle_30806" data-name="Rectangle 30806" width="108.684" height="14.3" transform="translate(450.736 -15.61)" fill="none"/>
    </clipPath>
    <clipPath id="clip-path-21">
      <rect id="Rectangle_30808" data-name="Rectangle 30808" width="125.209" height="14.3" transform="translate(434.211 -1.309)" fill="none"/>
    </clipPath>
    <clipPath id="clip-path-23">
      <rect id="Rectangle_30810" data-name="Rectangle 30810" width="139.67" height="14.3" transform="translate(419.751 12.991)" fill="none"/>
    </clipPath>
    <clipPath id="clip-path-24">
      <rect id="Rectangle_30809" data-name="Rectangle 30809" width="219.432" height="113.451" transform="translate(338.397 -72.336)" fill="none"/>
    </clipPath>
    <clipPath id="clip-path-25">
      <rect id="Rectangle_30812" data-name="Rectangle 30812" width="150.631" height="14.3" transform="translate(403.226 27.292)" fill="none"/>
    </clipPath>
    <linearGradient id="linear-gradient" x1="-6.858" y1="3.761" x2="-6.858" y2="3.769" gradientUnits="objectBoundingBox">
      <stop offset="0" stop-color="gray" stop-opacity="0.251"/>
      <stop offset="0.54" stop-color="gray" stop-opacity="0.122"/>
      <stop offset="1" stop-color="gray" stop-opacity="0.102"/>
    </linearGradient>
  </defs>
  <g id="card-3" transform="translate(-317.4 117.84)">
    <rect id="Rectangle_4205" data-name="Rectangle 4205" width="262" height="196" transform="translate(317.4 -117.84)" fill="#a1dbf8"/>
    <g id="Group_167249" data-name="Group 167249" opacity="0.82">
      <g id="undraw_connecting_teams3_1pgn" data-name="undraw connecting teams3 1pgn">
        <ellipse id="Ellipse_1231" data-name="Ellipse 1231" cx="0.443" cy="0.831" rx="0.443" ry="0.831" transform="translate(386.697 -20.656)" fill="#ccc"/>
      </g>
    </g>
    <g id="Group_167333" data-name="Group 167333">
      <g id="Group_167776" data-name="Group 167776">
        <g id="Group_167775" data-name="Group 167775" clip-path="url(#clip-path)">
          <g id="Group_167306" data-name="Group 167306">
            <g id="Group_167774" data-name="Group 167774">
              <g id="Group_167773" data-name="Group 167773" clip-path="url(#clip-path-2)">
                <g id="Group_167305" data-name="Group 167305">
                  <g id="Group_167772" data-name="Group 167772">
                    <g id="Group_167771" data-name="Group 167771" clip-path="url(#clip-path-3)">
                      <g id="Group_167304" data-name="Group 167304">
                        <g id="Group_167726" data-name="Group 167726">
                          <g id="Group_167725" data-name="Group 167725" clip-path="url(#clip-path-4)">
                            <g id="Group_167281" data-name="Group 167281">
                              <path id="Path_155011" data-name="Path 155011" d="M338.395,41.911H558.626V-72.38H338.395Z" fill="#bde8fe"/>
                            </g>
                          </g>
                        </g>
                        <g id="Group_167734" data-name="Group 167734">
                          <g id="Group_167733" data-name="Group 167733" clip-path="url(#clip-path-5)">
                            <g id="Group_167285" data-name="Group 167285">
                              <g id="Group_167732" data-name="Group 167732">
                                <g id="Group_167731" data-name="Group 167731" clip-path="url(#clip-path-4)">
                                  <g id="Group_167284" data-name="Group 167284">
                                    <g id="Group_167730" data-name="Group 167730">
                                      <g id="Group_167729" data-name="Group 167729" clip-path="url(#clip-path-7)">
                                        <g id="Group_167283" data-name="Group 167283">
                                          <g id="Group_167728" data-name="Group 167728">
                                            <g id="Group_167727" data-name="Group 167727" clip-path="url(#clip-path-8)">
                                              <g id="Group_167282" data-name="Group 167282">
                                                <path id="Path_155013" data-name="Path 155013" d="M360.165,46.678h83.578V-51.044H360.165Z" fill="#fff"/>
                                              </g>
                                            </g>
                                          </g>
                                        </g>
                                      </g>
                                    </g>
                                  </g>
                                </g>
                              </g>
                            </g>
                          </g>
                        </g>
                        <g id="Group_167754" data-name="Group 167754">
                          <g id="Group_167753" data-name="Group 167753" clip-path="url(#clip-path-9)">
                            <g id="Group_167295" data-name="Group 167295">
                              <g id="Group_167752" data-name="Group 167752">
                                <g id="Group_167751" data-name="Group 167751" clip-path="url(#clip-path-4)">
                                  <g id="Group_167294" data-name="Group 167294">
                                    <g id="Group_167750" data-name="Group 167750">
                                      <g id="Group_167749" data-name="Group 167749" clip-path="url(#clip-path-11)">
                                        <g id="Group_167293" data-name="Group 167293">
                                          <g id="Group_167736" data-name="Group 167736">
                                            <g id="Group_167735" data-name="Group 167735" clip-path="url(#clip-path-12)">
                                              <g id="Group_167286" data-name="Group 167286">
                                                <path id="Path_155017" data-name="Path 155017" d="M363.343,46.678h77.223V-51.044H363.343Z" fill="#d8f2ff"/>
                                              </g>
                                            </g>
                                          </g>
                                          <g id="Group_167740" data-name="Group 167740">
                                            <g id="Group_167739" data-name="Group 167739" clip-path="url(#clip-path-13)">
                                              <g id="Group_167288" data-name="Group 167288">
                                                <g id="Group_167738" data-name="Group 167738">
                                                  <g id="Group_167737" data-name="Group 167737" clip-path="url(#clip-path-12)">
                                                    <g id="Group_167287" data-name="Group 167287">
                                                      <path id="Path_155019" data-name="Path 155019" d="M321.872,15.468H399.1V1.71H321.872Z" fill="#f1f4f9"/>
                                                    </g>
                                                  </g>
                                                </g>
                                              </g>
                                            </g>
                                          </g>
                                          <g id="Group_167744" data-name="Group 167744">
                                            <g id="Group_167743" data-name="Group 167743" clip-path="url(#clip-path-15)">
                                              <g id="Group_167290" data-name="Group 167290">
                                                <g id="Group_167742" data-name="Group 167742">
                                                  <g id="Group_167741" data-name="Group 167741" clip-path="url(#clip-path-16)">
                                                    <g id="Group_167289" data-name="Group 167289">
                                                      <path id="Path_155022" data-name="Path 155022" d="M394.962,2.439h77.223V-11.319H394.962Z" fill="#f1f4f9"/>
                                                    </g>
                                                  </g>
                                                </g>
                                              </g>
                                            </g>
                                          </g>
                                          <g id="Group_167748" data-name="Group 167748">
                                            <g id="Group_167747" data-name="Group 167747" clip-path="url(#clip-path-17)">
                                              <g id="Group_167292" data-name="Group 167292">
                                                <g id="Group_167746" data-name="Group 167746">
                                                  <g id="Group_167745" data-name="Group 167745" clip-path="url(#clip-path-16)">
                                                    <g id="Group_167291" data-name="Group 167291">
                                                      <path id="Path_155025" data-name="Path 155025" d="M342.21-17.834H460.269V-22.6H342.21Z" fill="#fff"/>
                                                    </g>
                                                  </g>
                                                </g>
                                              </g>
                                            </g>
                                          </g>
                                        </g>
                                      </g>
                                    </g>
                                  </g>
                                </g>
                              </g>
                            </g>
                          </g>
                        </g>
                        <g id="Group_167758" data-name="Group 167758">
                          <g id="Group_167757" data-name="Group 167757" clip-path="url(#clip-path-19)">
                            <g id="Group_167297" data-name="Group 167297">
                              <g id="Group_167756" data-name="Group 167756">
                                <g id="Group_167755" data-name="Group 167755" clip-path="url(#clip-path-4)">
                                  <g id="Group_167296" data-name="Group 167296">
                                    <path id="Path_155030" data-name="Path 155030" d="M449.94-.514H560.213V-16.4H449.94Z" fill="#90cae8"/>
                                  </g>
                                </g>
                              </g>
                            </g>
                          </g>
                        </g>
                        <g id="Group_167762" data-name="Group 167762">
                          <g id="Group_167761" data-name="Group 167761" clip-path="url(#clip-path-21)">
                            <g id="Group_167299" data-name="Group 167299">
                              <g id="Group_167760" data-name="Group 167760">
                                <g id="Group_167759" data-name="Group 167759" clip-path="url(#clip-path-4)">
                                  <g id="Group_167298" data-name="Group 167298">
                                    <path id="Path_155033" data-name="Path 155033" d="M433.417,13.787h126.8V-2.1h-126.8Z" fill="#aadbf5"/>
                                  </g>
                                </g>
                              </g>
                            </g>
                          </g>
                        </g>
                        <g id="Group_167766" data-name="Group 167766">
                          <g id="Group_167765" data-name="Group 167765" clip-path="url(#clip-path-23)">
                            <g id="Group_167301" data-name="Group 167301">
                              <g id="Group_167764" data-name="Group 167764">
                                <g id="Group_167763" data-name="Group 167763" clip-path="url(#clip-path-24)">
                                  <g id="Group_167300" data-name="Group 167300">
                                    <path id="Path_155036" data-name="Path 155036" d="M418.958,28.085H560.215V12.2H418.958Z" fill="#bfe5f8"/>
                                  </g>
                                </g>
                              </g>
                            </g>
                          </g>
                        </g>
                        <g id="Group_167770" data-name="Group 167770">
                          <g id="Group_167769" data-name="Group 167769" clip-path="url(#clip-path-25)">
                            <g id="Group_167303" data-name="Group 167303">
                              <g id="Group_167768" data-name="Group 167768">
                                <g id="Group_167767" data-name="Group 167767" clip-path="url(#clip-path-4)">
                                  <g id="Group_167302" data-name="Group 167302">
                                    <path id="Path_155039" data-name="Path 155039" d="M402.432,42.386H554.653V26.5H402.432Z" fill="#d5f1ff"/>
                                  </g>
                                </g>
                              </g>
                            </g>
                          </g>
                        </g>
                      </g>
                    </g>
                  </g>
                </g>
              </g>
            </g>
          </g>
        </g>
      </g>
      <g id="undraw_business_deal_cpi9" data-name="undraw business deal cpi9">
        <ellipse id="Ellipse_2170" data-name="Ellipse 2170" cx="12.578" cy="41.391" rx="12.578" ry="41.391" transform="translate(450.261 -2.973) rotate(-78.45)" fill="#a8d3e9"/>
        <path id="Path_154819" data-name="Path 154819" d="M488.657-42.33s2.2-10.806,10.607-9.8c0,0,5.809.4,7,4.2v8.405Z" fill="#3a3768"/>
        <path id="Path_154820" data-name="Path 154820" d="M534.687-38.325l-74.85-6.206-9.606,2,.6,13.409.654.079.747,20.137L525.68,4.3l7.807-6.6V-24.131l1-.587Z" fill="#d48a9b"/>
        <path id="Path_154821" data-name="Path 154821" d="M534.788-38.326l-.2,13.608-8.105,3.8-.1-14.21Z" opacity="0.05"/>
        <path id="Path_154822" data-name="Path 154822" d="M533.487-24.117l.1,21.415-7.8,6.6.5-24.817Z" opacity="0.05"/>
        <path id="Path_154823" data-name="Path 154823" d="M451.587-28.239l74.755,9.122.039-1.731-74.85-8.072Z" opacity="0.05"/>
        <path id="Path_154824" data-name="Path 154824" d="M533.487-23.331v-.786l-7.406,3.268v1.735Z" opacity="0.05"/>
        <path id="Path_154825" data-name="Path 154825" d="M450.131-42.529l9.606-2,74.85,6.206-8.4,3.2Z" fill="#efc6cd"/>
        <path id="Path_154826" data-name="Path 154826" d="M526.614-37.94l3.673.24L524.2-35.878l-3.1-.223Z" opacity="0.1"/>
        <path id="Path_154827" data-name="Path 154827" d="M526.614-38.1l3.673.24L524.2-36.037l-3.1-.225Z" fill="#fff"/>
        <path id="Path_154828" data-name="Path 154828" d="M526.173-37.689c.145-.062.3.056.453.085.089.017.18,0,.269.017.18.023.358.143.531.083" fill="#d3dae1"/>
        <path id="Path_154829" data-name="Path 154829" d="M525.984-37.579c.143-.062.3.054.453.085.089.016.18,0,.269.016.18.025.358.145.531.085" fill="#d3dae1"/>
        <path id="Path_154830" data-name="Path 154830" d="M525.546-37.353c.145-.062.3.054.455.083.087.017.18,0,.267.017.182.025.36.145.531.083" fill="#d3dae1"/>
        <path id="Path_154831" data-name="Path 154831" d="M510.736-39.749l3.673.242-6.088,1.822-3.1-.225Z" opacity="0.1"/>
        <path id="Path_154832" data-name="Path 154832" d="M510.736-39.908l3.673.24-6.088,1.822-3.1-.223Z" fill="#fff"/>
        <path id="Path_154833" data-name="Path 154833" d="M510.3-39.5c.145-.062.3.054.453.085.089.016.18,0,.269.016.18.025.358.145.531.085" fill="#d3dae1"/>
        <path id="Path_154834" data-name="Path 154834" d="M510.106-39.385c.143-.062.3.054.453.083.089.017.18,0,.269.017.18.025.358.145.531.083" fill="#d3dae1"/>
        <path id="Path_154835" data-name="Path 154835" d="M509.669-39.166c.145-.062.3.056.455.085.087.017.18,0,.267.017.182.023.36.145.531.083" fill="#d3dae1"/>
        <path id="Path_154836" data-name="Path 154836" d="M518.351-38.845l3.675.24-6.088,1.824-3.1-.225Z" opacity="0.1"/>
        <path id="Path_154837" data-name="Path 154837" d="M518.351-39l3.675.24-6.088,1.822-3.1-.225Z" fill="#fff"/>
        <path id="Path_154838" data-name="Path 154838" d="M517.912-38.591c.145-.062.3.054.455.083.087.017.178,0,.267.017.18.023.36.145.531.083" fill="#d3dae1"/>
        <path id="Path_154839" data-name="Path 154839" d="M517.722-38.483c.145-.062.3.056.455.085.087.017.178,0,.267.017.18.023.36.145.531.083" fill="#d3dae1"/>
        <path id="Path_154840" data-name="Path 154840" d="M517.286-38.262c.143-.062.3.054.453.085.089.015.18,0,.269.015.18.025.358.145.531.085" fill="#d3dae1"/>
        <ellipse id="Ellipse_2171" data-name="Ellipse 2171" cx="39.205" cy="8.07" rx="39.205" ry="8.07" transform="translate(395.986 20.238)" fill="#90cae8"/>
        <path id="Path_154841" data-name="Path 154841" d="M478.119-37.78a26.268,26.268,0,0,0-2.074-7.182l.126-1.239s.027-.62-.014-1.549a7.076,7.076,0,0,1,.227-1.719,3.541,3.541,0,0,0-.509-2.517c-.085-.122.043-2.478-.72-3.634s-5.844-3.305-5.844-3.305-.273-.571-.658-1.239l.035-.068a7.268,7.268,0,0,0-1.162-1.566c-.312-.333-.612-.523-.854-.43a6.848,6.848,0,0,1-.225-.982c.05.014.1.027.153.037a1.581,1.581,0,0,0,.639.016,1.9,1.9,0,0,0,1.049-.929,14.81,14.81,0,0,0,2.674-6.543,4.162,4.162,0,0,0-.063-1.442,4.895,4.895,0,0,0-.453-1.055,8.479,8.479,0,0,0-1.278-1.884,7.288,7.288,0,0,0-3.433-1.88,11.9,11.9,0,0,0-4.434-.331c-.387.045-.775.108-1.162.134a11.871,11.871,0,0,1-1.473-.025l-2.535-.147-.012-.039-.422-.025a1.068,1.068,0,0,0,.207,1.034,1.769,1.769,0,0,1,.428,1,2.035,2.035,0,0,1-.49.968.932.932,0,0,0-.157,1.013.562.562,0,0,0,.1.112,1.277,1.277,0,0,0,.931.248h.058a6.3,6.3,0,0,0-1.284,3.818,6.42,6.42,0,0,0,3.5,5.689c.037.126.074.256.108.387a11.856,11.856,0,0,1,.407,4.186l-.045.1-.027-.1s-2.986,2.025-3.872,2.562a5.6,5.6,0,0,0-1.82,2.85c-.043.5-1.441,7.972-1.441,7.972a18.21,18.21,0,0,0-.7,2.308l-1.781,1.555a27.335,27.335,0,0,1-4.744.083l.031.2a16.1,16.1,0,0,0-2.858-.387,3.038,3.038,0,0,0-1.549.207l-.037.017-.029.014a6.172,6.172,0,0,0-1.626.457c-.062.025-.118.05-.172.076l.012-.254-3.981-.205-2.033-.412s-.72-.581-1.144-.5-1.313-.5-1.313-.5a3.591,3.591,0,0,0-.654-.407c-.068-.469-.11-.753-.11-.753s-1.582-6.277-2.767-9.968a8.5,8.5,0,0,0-2.61-4.207c-.3-.523-.5-.86-.5-.86a3.855,3.855,0,0,0-1.024-1.5c-.029-.046-.05-.07-.062-.07a.234.234,0,0,0-.114.017,12.316,12.316,0,0,1-.017-5.545,6.12,6.12,0,0,0,2.234-4.717V-71a6.09,6.09,0,0,0-1.439-3.931L423.247-75a.388.388,0,0,0,.05-.041,1.037,1.037,0,0,0,.366-1,6.85,6.85,0,0,0-.527-1.017,6.555,6.555,0,0,1-.215-.829,2.555,2.555,0,0,0-.61-1.063l.029.077a3.681,3.681,0,0,0-3.239-1.088c-.873.139-1.686.546-2.564.672-.629.089-1.27.031-1.9.1a4.958,4.958,0,0,0-1.688.488.972.972,0,0,0-.358.263,1.42,1.42,0,0,0-.178.5,6.566,6.566,0,0,1-1.39,2,4.681,4.681,0,0,0-.937,2.583,2.032,2.032,0,0,0,.068.707c.043.137.108.267.139.407a2.779,2.779,0,0,1-.234,1.272,2.472,2.472,0,0,0,.137,1.615c.765,1.712,3.276,2.283,3.8,4.08a4.989,4.989,0,0,0,1.257.387c.035.178.066.358.091.54a.135.135,0,0,0-.033.019,3.854,3.854,0,0,0-.846,1.936l-.081.066c-.277.228-1.224,1-2.08,1.586-1.017.7-2.711,3.057-3.9,3.76s-2.161,5.034-1.9,6.608,1.313,5.989.889,7.6.635,8.963.635,8.963a10.885,10.885,0,0,1,2.076.616l-.021.321-.064.968s-1.919,6.94-1.185,12.282-.339,5.892-.339,5.892.225,2.368-.339,3.195a6.881,6.881,0,0,0-.678,2.643s-.056,4.076.056,5.228S407.7.582,407.3,1.078a14.346,14.346,0,0,0-1.073,4.734c.056.991-1.411,3.251-.622,6.169s-2.323,2.974-2.323,2.974.4,4.453,1.243,5.727l.124.182c-.021.074-.043.151-.066.234-.32,1.162-.757,3-.453,3.439.451.662.678.55.678.55l.168,2.974s3.388,2.864,5.987,2.755,2.089-2.755,2.089-2.755l-2.213-5.739-.076-.194,2.459-4.647s.678-2.037.846-2.753,1.088-3.255,1.088-3.255,2.324-5.507,2.372-6.169.227-4.238.678-4.957A45.788,45.788,0,0,0,419.9-4.494l.031.027a1.63,1.63,0,0,1,.422,1.624A12.98,12.98,0,0,0,420.241.35a21.612,21.612,0,0,1-.339,2.755,58.915,58.915,0,0,0,.114,10.407,29.542,29.542,0,0,1,.29,5.207c-.265,1.094-.5,2.453-.066,2.614a27.18,27.18,0,0,0,4.463.221s1.58-.552,3.727,1.377,8.752-.55,8.752-.55,2.033-.552-1.977-2.147a34,34,0,0,1-5.786-2.649c.027-.052.056-.1.081-.161,0,0-1.638-1.549-.283-4.3a11.956,11.956,0,0,0,1.3-5.067l.227-9.253-.678-12.284-.525-12.892.093-.031c.089,2.37.552,8.012,2.974,6.918,3.05-1.377.451-4.957.451-4.957L431.69-27.1l.409-.139-1.532-4.949a11.182,11.182,0,0,1-.058-2.918,11.623,11.623,0,0,0-.035-1.7,30.625,30.625,0,0,1,4.271-.637c.407.1,2.682.118,3.576.122-.292.228-.527.455-.527.455l3.642,2.451s1.235-.676,1.493-1.392a1.6,1.6,0,0,0,.69-.359c.039.846.263,1.762,1.046,1.783a1.358,1.358,0,0,0,.569-.112l5.956-1.179-.511,3.193.356.633c-.18,2.693-.387,5.553-.569,8.068l-.083.55.043.01c-.283,3.872-.509,6.806-.509,6.806a3.563,3.563,0,0,1,1.485-1.493l.039,5.747s.3,9.087.3,10.326.041,4.006.041,4.006.637,3.387,1.017,4.5a49.632,49.632,0,0,1,.678,6.2s.891,1.4.509,1.936,1.483,1.692,1.483,1.692a7.255,7.255,0,0,0-1.272,2.686c-.01.124.112.256.333.387-.07.056-.141.112-.221.167a3.866,3.866,0,0,1-2.568.519c-3.3-.29-5.634,2.767-3.6,3.387s8.132.743,8.132.743,1.847-1.152,3.292-.633c-.021,1.212.039,2.324.048,2.471l-.017.014a13.435,13.435,0,0,1-4.132,2.651c-2.323.784-2.839,3.965.168,4.378a27.44,27.44,0,0,0,7.412-.5,13.656,13.656,0,0,1,4.024-2.064c1.737-.372,3.22-1.2,2.924-2.19-.194-.633-.691-2.292-1.028-3.408-.019-.066-.039-.131-.058-.194.052-.116.1-.236.153-.36,0,0-.889-4.626-.168-5.782s.339-12.723.339-12.723-1.23-2.931-.592-4.707-1.017-4.3-1.017-4.3a78.476,78.476,0,0,1,.664-7.867l.064-.349a15.765,15.765,0,0,0,2.362-.912s.424-6.363.678-7.807c.025-.136.06-.354.1-.639l.194-1.02h0l.228-1.162h0l.774-3.96,1.4-1.808,3.6-3.679A11.638,11.638,0,0,0,478.119-37.78ZM422.58-60.5l-.027.019a.3.3,0,0,1-.01-.043.152.152,0,0,0,.041.024Zm35.582,4.51-.139.3.509-.507-.691.775.232-.488Zm-3.439,7.106c-.134.354-.277.738-.426,1.137l.273-.815Z" fill="url(#linear-gradient)"/>
        <path id="Path_154842" data-name="Path 154842" d="M443.616-37.3s-.474,3.158.949,3.2,2.374-2.436,2.374-2.436l-.581-1.981Z" fill="#585b8a"/>
        <path id="Path_154843" data-name="Path 154843" d="M443.616-37.3s-.474,3.158.949,3.2,2.374-2.436,2.374-2.436l-.581-1.981Z" opacity="0.2"/>
        <path id="Path_154844" data-name="Path 154844" d="M411.739,31.06c-2.533.11-5.836-2.751-5.836-2.751l-.165-2.972s-.219.11-.66-.55c-.3-.443.13-2.281.441-3.437.151-.565.275-.968.275-.968l5.557,1.487.265.7,2.157,5.735S414.27,30.95,411.739,31.06Z" fill="#636992"/>
        <path id="Path_154845" data-name="Path 154845" d="M437.273,22.641s-6.438,2.476-8.52.55-3.632-1.372-3.632-1.372a25.92,25.92,0,0,1-4.349-.221c-.422-.161-.194-1.537.07-2.633.178-.757.372-1.382.372-1.382s6.328-2.147,7.319-.827a4.735,4.735,0,0,0,1.055,1.007,30.716,30.716,0,0,0,5.77,2.736C439.253,22.089,437.273,22.641,437.273,22.641Z" fill="#636992"/>
        <path id="Path_154846" data-name="Path 154846" d="M431.5-27.661l1.76,3.522s2.533,3.578-.44,4.953-2.92-7.925-2.92-7.925Z" fill="#ffd6d6"/>
        <path id="Path_154847" data-name="Path 154847" d="M424.12-58.2s1.927.881,3.082,4.568,2.7,9.962,2.7,9.962,1.046,7.1.879,8.86a11.43,11.43,0,0,0,.056,2.916l1.485,4.953L429.35-25.9l-4.568-17.5Z" fill="#dce6f2"/>
        <path id="Path_154848" data-name="Path 154848" d="M424.12-58.2s1.927.881,3.082,4.568,2.7,9.962,2.7,9.962,1.046,7.1.879,8.86a11.43,11.43,0,0,0,.056,2.916l1.485,4.953L429.35-25.9l-4.568-17.5Z" opacity="0.05"/>
        <path id="Path_154849" data-name="Path 154849" d="M411.354,21.87l.265.7-.325.622c-1.266.55-4.4.11-4.4.11s-.581-.738-1.375-1.952c.151-.565.275-.968.275-.968Z" opacity="0.1"/>
        <path id="Path_154850" data-name="Path 154850" d="M429.789,18.019c-1.605,3.636-7.061,2.287-8.578,1.832-.25-.076-.387-.126-.387-.126s.01-.3.014-.763c.178-.757.372-1.382.372-1.382s6.328-2.147,7.319-.827a4.735,4.735,0,0,0,1.055,1.007A1.823,1.823,0,0,0,429.789,18.019Z" opacity="0.1"/>
        <path id="Path_154851" data-name="Path 154851" d="M429.512,13.4c-1.32,2.749.277,4.293.277,4.293-1.605,3.634-7.062,2.287-8.578,1.83-.25-.074-.387-.124-.387-.124a33.464,33.464,0,0,0-.275-5.615,60.3,60.3,0,0,1-.11-10.4,22.142,22.142,0,0,0,.329-2.753,13.367,13.367,0,0,1,.11-3.191,1.647,1.647,0,0,0-.41-1.623l-.029-.029A45.842,45.842,0,0,1,418.787.624c-.441.713-.6,4.293-.66,4.953s-2.312,6.165-2.312,6.165-.879,2.531-1.044,3.245-.827,2.753-.827,2.753l-2.653,5.119c-1.266.55-4.4.11-4.4.11s-.6-.774-1.431-2.037-1.21-5.722-1.21-5.722,3.026-.056,2.256-2.972.66-5.174.606-6.165a14.642,14.642,0,0,1,1.046-4.732c.385-.5.329-2.587.219-3.743s-.054-5.228-.054-5.228a7,7,0,0,1,.66-2.641c.55-.825.331-3.193.331-3.193s1.044-.55.329-5.888S410.8-31.624,410.8-31.624l.064-.968.1-1.568s15.74-.991,17.006.219a4.191,4.191,0,0,1,.8,1.152,11.492,11.492,0,0,1,.91,2.93l.66,16.675.66,12.272-.221,9.246A12.3,12.3,0,0,1,429.512,13.4Z" fill="#565988"/>
        <path id="Path_154852" data-name="Path 154852" d="M424.845-19.515l-1.652,35.77-1.983,3.261c-.25-.074-.387-.124-.387-.124a33.464,33.464,0,0,0-.275-5.615,60.3,60.3,0,0,1-.11-10.4,22.136,22.136,0,0,0,.329-2.753,13.367,13.367,0,0,1,.11-3.191,1.647,1.647,0,0,0-.41-1.623l.027-.194Z" opacity="0.1"/>
        <path id="Path_154853" data-name="Path 154853" d="M407.059,18.9s4.293-1.706,4.953-1.162-5.061,1.375-5.061,1.375Z" opacity="0.1"/>
        <path id="Path_154854" data-name="Path 154854" d="M428.247,14.385c-.165.056-4.347,1.549-3.962,3.137S428.247,14.385,428.247,14.385Z" opacity="0.1"/>
        <path id="Path_154855" data-name="Path 154855" d="M415.178-67.035s1.4,3.385.66,5.119,8.006,4.705,8.006,4.705-2.558-6.6-.081-10.32S415.178-67.035,415.178-67.035Z" fill="#ffd6d6"/>
        <path id="Path_154856" data-name="Path 154856" d="M466.4,30.95a13.215,13.215,0,0,0-3.921,2.064,26.076,26.076,0,0,1-7.224.5c-2.932-.412-2.434-3.592-.165-4.376a13.174,13.174,0,0,0,4.029-2.647c.372-.343.592-.581.592-.581l8.216-1.652.319,1.092c.329,1.117.815,2.775,1,3.406C469.537,29.753,468.092,30.578,466.4,30.95Z" fill="#505484"/>
        <path id="Path_154857" data-name="Path 154857" d="M464.294,24.593s-3.468.372-4.912-.453-3.508.5-3.508.5-5.944-.124-7.925-.744.289-3.679,3.508-3.385a3.7,3.7,0,0,0,2.5-.519,2.636,2.636,0,0,0,1.09-1.634l6.971.412.968,2.471Z" fill="#505484"/>
        <path id="Path_154858" data-name="Path 154858" d="M463.1,22.364s-8.1-1.324-9.135-2.376a2.636,2.636,0,0,0,1.09-1.634l6.971.412.968,2.471Z" opacity="0.1"/>
        <path id="Path_154859" data-name="Path 154859" d="M451.086-23.982l.083,12.092s.289,9.081.289,10.32.041,4,.041,4,.62,3.385.991,4.5a50.576,50.576,0,0,1,.66,6.2s.867,1.4.5,1.936,1.444,1.692,1.444,1.692a7.226,7.226,0,0,0-1.237,2.684c-.076,1.073,9.244,2.6,9.244,2.6l-3.63-37.228-2.891-9.327Z" fill="#575988"/>
        <path id="Path_154860" data-name="Path 154860" d="M451.086-23.982l.083,12.092s.289,9.081.289,10.32.041,4,.041,4,.62,3.385.991,4.5a50.576,50.576,0,0,1,.66,6.2s.867,1.4.5,1.936,1.444,1.692,1.444,1.692a7.226,7.226,0,0,0-1.237,2.684c-.076,1.073,9.244,2.6,9.244,2.6l-3.63-37.228-2.891-9.327Z" opacity="0.1"/>
        <path id="Path_154861" data-name="Path 154861" d="M468.246,25.356c-2.7,6.43-9.112,1.468-9.112,1.468s0-.124-.015-.337c.372-.343.592-.581.592-.581l8.216-1.652S468.061,24.723,468.246,25.356Z" opacity="0.1"/>
        <path id="Path_154862" data-name="Path 154862" d="M468.34,24.8c-2.643,6.777-9.2,1.692-9.2,1.692a23.676,23.676,0,0,1,.207-5.117c.414-1.609-.455-6.44-.455-6.44a34.809,34.809,0,0,0-.949-5.282,9.411,9.411,0,0,1-.412-3.137,5.991,5.991,0,0,0-.207-2.4,16.085,16.085,0,0,1-.581-3.137,33.128,33.128,0,0,0-.372-4.994l-1.28-6.39L452.779-23.49l.722-.124,12.94-2.269s2.436,12.392,1.609,13.662a5.312,5.312,0,0,0-.465,1.675c-.472,2.811-.649,7.859-.649,7.859s1.609,2.517.991,4.293.581,4.7.581,4.7.372,11.557-.331,12.713S468.34,24.8,468.34,24.8Z" fill="#575988"/>
        <path id="Path_154863" data-name="Path 154863" d="M467.1-59.688s-11.722,8.254-9.081,4.126c1.423-2.223,1.162-5.054.6-7.191a16.949,16.949,0,0,0-1.162-3.154s9.96-4.237,8.64-.44a7.12,7.12,0,0,0-.387,2.757A7.353,7.353,0,0,0,467.1-59.688Z" fill="#d28690"/>
        <path id="Path_154864" data-name="Path 154864" d="M445.995-40.784s-4.953-1.431-5.778-.027.248,4.484,1.743,4.98,4.926-1.679,4.926-1.679Z" fill="#d28690"/>
        <path id="Path_154865" data-name="Path 154865" d="M451.664-43.219l-2.064,1.9a26.066,26.066,0,0,1-4.624.081s.951,6.357-.412,7.141l8.337-1.692Z" fill="#585b8a"/>
        <path id="Path_154866" data-name="Path 154866" d="M451.664-43.219l-2.064,1.9a26.066,26.066,0,0,1-4.624.081s.951,6.357-.412,7.141l8.337-1.692Z" opacity="0.1"/>
        <path id="Path_154867" data-name="Path 154867" d="M425.165-70.5a6.2,6.2,0,0,1-6.2,6.2h0c-3.179-1.528-6.2-2.771-6.2-6.2a6.2,6.2,0,0,1,5.857-6.525,6.2,6.2,0,0,1,6.525,5.857,6.205,6.205,0,0,1,0,.668Z" opacity="0.1"/>
        <path id="Path_154868" data-name="Path 154868" d="M425.165-70.669a6.184,6.184,0,0,1-6.182,6.186,6.184,6.184,0,0,1-6.186-6.183,6.184,6.184,0,0,1,6.182-6.185,6.183,6.183,0,0,1,4.786,2.265A6.182,6.182,0,0,1,425.165-70.669Z" fill="#ffd6d6"/>
        <path id="Path_154869" data-name="Path 154869" d="M428.776-32.781a13.927,13.927,0,0,1-1.919,1s-3.137-.455-3.59.081-4.453.744-4.453.744-6.109-.289-7.017-1.073a3.727,3.727,0,0,0-.927-.55l.1-1.568s15.74-.991,17.006.219a4.177,4.177,0,0,1,.8,1.152Z" opacity="0.1"/>
        <path id="Path_154870" data-name="Path 154870" d="M429.546-33.892c-.124.7-2.684,1.774-2.684,1.774s-3.137-.453-3.59.083-4.453.743-4.453.743-6.109-.29-7.017-1.075a7.882,7.882,0,0,0-2.931-1.162s-1.032-7.346-.618-8.955-.62-6.028-.867-7.6.7-5.9,1.857-6.6,2.808-3.055,3.8-3.756c.835-.591,1.756-1.355,2.025-1.586l.079-.066a3.9,3.9,0,0,1,.827-1.936c.66-.656,6.727,4.169,6.727,4.169s.043.372.455-.329c.093-.157.893,1,1.032,1.485,0,0,3.3,5.78,3.509,6.971s1.073,5.077,1.237,6.026c.043.244.112,1.1.194,2.246.015.225.029.463.046.711.122,1.9.254,4.329.333,6.165,0,.209.017.41.023.6A20.558,20.558,0,0,1,429.546-33.892Z" fill="#dce6f2"/>
        <path id="Path_154871" data-name="Path 154871" d="M408.581-48.793s2.269,2.765,3.013,2.765S408.581-48.793,408.581-48.793Z" opacity="0.1"/>
        <path id="Path_154872" data-name="Path 154872" d="M413.361-42.849s-3.716,4.045-3.22,4.788S413.361-42.849,413.361-42.849Z" opacity="0.1"/>
        <path id="Path_154873" data-name="Path 154873" d="M410.637-34.8s4.26-4.664,4.453-6.273Z" opacity="0.1"/>
        <path id="Path_154874" data-name="Path 154874" d="M416-34.47s4.912-2.6,5.325-4.664S416-34.47,416-34.47Z" opacity="0.1"/>
        <path id="Path_154875" data-name="Path 154875" d="M422.236-59.565l-.682,1.65,1.135.536,1.115,3.117s3.075,6.15,2.951,9.348a56.575,56.575,0,0,0,.558,8.006l1.774-.329-.836-9.408a13.576,13.576,0,0,0-1.08-4.223c-1.417-3.245-4.055-9.236-4.221-9.236-.227,0-.068.083-.068.083Z" opacity="0.1"/>
        <path id="Path_154876" data-name="Path 154876" d="M422.4-59.731l-.682,1.652,1.137.536,1.113,3.117s3.075,6.15,2.951,9.348a56.571,56.571,0,0,0,.558,8.006l1.776-.329-.838-9.408a13.539,13.539,0,0,0-1.078-4.223c-1.417-3.247-4.055-9.236-4.219-9.236-.229,0-.07.083-.07.083Z" fill="#575989"/>
        <path id="Path_154877" data-name="Path 154877" d="M442.5-35.474a15.457,15.457,0,0,1-3.758-1.549l-.349-.194.043-3.2a5.652,5.652,0,0,1,.631-.319c1.1-.48,3.356-1.133,4.486.968C445.08-36.942,443.6-35.4,442.5-35.474Z" fill="#ffd6d6"/>
        <path id="Path_154878" data-name="Path 154878" d="M423.764-74.586a.9.9,0,0,1-.289.118c-.718.157-1.535-.461-2.151-.064a1.56,1.56,0,0,0-.513,1.195q-.132,1.163-.263,2.308a2.843,2.843,0,0,1-.17.8,2,2,0,0,1-1.9,1.011,1.132,1.132,0,0,1-.819-.271c-.134-.136-.2-.325-.352-.449-.968-.811-1.262,1.177-1.007,1.743.41.924,1.868,1.814,1.257,2.988a1.12,1.12,0,0,1-.449.451,6.2,6.2,0,0,1-4.079-7.761,6.2,6.2,0,0,1,7.761-4.08,6.2,6.2,0,0,1,2.975,2.016Z" opacity="0.1"/>
        <path id="Path_154879" data-name="Path 154879" d="M417.141-69.95c.145.122.219.312.352.447a1.134,1.134,0,0,0,.819.271,1.985,1.985,0,0,0,1.9-1.013,2.771,2.771,0,0,0,.172-.794l.263-2.308a1.552,1.552,0,0,1,.513-1.195c.616-.387,1.433.221,2.151.064a1.051,1.051,0,0,0,.775-1.212,6.887,6.887,0,0,0-.511-1.015,6.543,6.543,0,0,1-.211-.827,3.278,3.278,0,0,0-3.7-2.1c-.852.141-1.644.548-2.5.672-.612.089-1.237.031-1.855.1a4.678,4.678,0,0,0-1.646.486.963.963,0,0,0-.349.263,1.46,1.46,0,0,0-.174.5,6.629,6.629,0,0,1-1.355,2,4.756,4.756,0,0,0-.918,2.577,2.055,2.055,0,0,0,.066.707c.041.136.1.267.136.407a2.824,2.824,0,0,1-.228,1.27,2.538,2.538,0,0,0,.136,1.615c.744,1.71,3.193,2.281,3.7,4.076a4.06,4.06,0,0,0,1.441.387,1.39,1.39,0,0,0,1.27-.649c.61-1.162-.846-2.064-1.257-2.986C415.877-68.777,416.168-70.763,417.141-69.95Z" fill="#353045"/>
        <path id="Path_154880" data-name="Path 154880" d="M466.112-66.347a7.119,7.119,0,0,0-.387,2.757c-.3.254-.623-.505-.968-.31-.945.546-2.037,1.845-3.206,1.845a6.409,6.409,0,0,1-2.918-.7,16.949,16.949,0,0,0-1.162-3.154S467.432-70.144,466.112-66.347Z" opacity="0.1"/>
        <path id="Path_154881" data-name="Path 154881" d="M467.981-68.824a6.44,6.44,0,0,1-6.44,6.44,6.44,6.44,0,0,1-6.44-6.44,6.44,6.44,0,0,1,6.44-6.44,6.44,6.44,0,0,1,6.44,6.44Z" fill="#d28690"/>
        <path id="Path_154882" data-name="Path 154882" d="M467.706-58.26s-1.212,1.32-1.377,1.429-3.678,14.911-3.739,15.084-4.184,13.536-4.184,13.536l-6.6,3.247.552-16.346L457.2-54.79s1.6-1.816,2.091-2.476,6.659-4.624,6.659-4.624L467-59.719Z" fill="#f0f3f7"/>
        <path id="Path_154883" data-name="Path 154883" d="M466.833-59.388l-7.594,5.437-.122-2.988c.5-.66,6.659-4.622,6.659-4.622Z" opacity="0.1"/>
        <path id="Path_154884" data-name="Path 154884" d="M467-59.719,459.4-54.282l-.118-2.984c.5-.662,6.659-4.624,6.659-4.624Z" fill="#f0f3f7"/>
        <path id="Path_154885" data-name="Path 154885" d="M459.028-58.594l.254,1.328-1.7,1.725,1.355-3.034s-2.9,2.023-3.776,2.56a5.514,5.514,0,0,0-1.776,2.848c-.033.5-1.4,7.966-1.4,7.966s-1.032,2.765-.742,3.549-1.568,25.508-1.568,25.508a3.678,3.678,0,0,1,2.482-1.9l-.662-14.611s.8-9.72.846-9.844l1.878-5.758Z" fill="#585b8a"/>
        <path id="Path_154886" data-name="Path 154886" d="M459.452-57.1l-.132,2.711a66.228,66.228,0,0,1-2.455,6.748,67.57,67.57,0,0,0-2.5,6.6l-1.059,9.825-1.816.827-.892-1.644,1.487-9.488s2.806-8.006,3.22-8.833l2.07-4.36Z" opacity="0.1"/>
        <path id="Path_154887" data-name="Path 154887" d="M459.285-57.266l-.13,2.711a65.906,65.906,0,0,1-2.457,6.748,67.057,67.057,0,0,0-2.5,6.6l-1.053,9.823-1.816.825-.908-1.65,1.487-9.488s2.806-8.008,3.218-8.833l2.085-4.355Z" fill="#663d5c"/>
        <path id="Path_154888" data-name="Path 154888" d="M437.879-36.576l3.549,2.457s2.5-1.4,1.046-2.312a6.475,6.475,0,0,0-3.22-1.046C438.785-37.476,437.879-36.576,437.879-36.576Z" fill="#d28690"/>
        <path id="Path_154889" data-name="Path 154889" d="M440.529-41.118a.547.547,0,0,0-.258.467c0,.753.085,2.748.716,1.847.774-1.1.633-2.091,1.816-1.377a6.987,6.987,0,0,1,1.9,1.743l-.329-2.366S441.941-42.008,440.529-41.118Z" fill="#d28690"/>
        <path id="Path_154890" data-name="Path 154890" d="M468.049-12.223a5.311,5.311,0,0,0-.465,1.675,13.989,13.989,0,0,1-12.533-2.418,62.975,62.975,0,0,1-1.568-6.6,21.458,21.458,0,0,1,.019-4.047l12.94-2.269S468.876-13.505,468.049-12.223Z" opacity="0.1"/>
        <path id="Path_154891" data-name="Path 154891" d="M475.482-49.165a12.829,12.829,0,0,0-.2,3.261L472.3-31.87s-1.444,10.814-1.692,12.258-.66,7.8-.66,7.8A13.979,13.979,0,0,1,455.044-13.3a63.222,63.222,0,0,1-1.568-6.6c-.414-2.451.8-12.272,1.383-16.634.172-1.291.288-2.1.288-2.1l2.167-8.049s2.662-6.79,3.654-8.771,4.972-6.43,4.972-6.43c.494-.314,1.284.794,1.87,1.8.443.763.775,1.472.775,1.472s4.953,2.145,5.694,3.292.62,3.509.7,3.632A3.639,3.639,0,0,1,475.482-49.165Z" fill="#585b8a"/>
        <path id="Path_154892" data-name="Path 154892" d="M463.8-54.159s.372,2.188-.581,2.848c-.92.639-7.766,14.1-8.192,14.942.172-1.293.289-2.107.289-2.107l2.167-8.047s2.664-6.79,3.654-8.773,4.974-6.43,4.974-6.43c.494-.314,1.282.794,1.868,1.8C467.093-58.085,465.247-54.612,463.8-54.159Z" opacity="0.1"/>
        <path id="Path_154893" data-name="Path 154893" d="M463.635-54.323s.37,2.188-.581,2.848-7.764,14.1-8.2,14.94c.172-1.292.288-2.1.288-2.1l2.167-8.049s2.662-6.79,3.654-8.771,4.972-6.43,4.972-6.43c.494-.314,1.284.794,1.87,1.8C466.929-58.251,465.081-54.776,463.635-54.323Z" fill="#585b8a"/>
        <path id="Path_154894" data-name="Path 154894" d="M473.457-34.552l-2.33,12.119h0l-.223,1.16h0l-.5,2.608-2.14-.453-1-.211-13.8-2.924-1.015-.215-2.312-.49.453-3.009.188-1.251,1.671-11.095Z" fill="#4285f4"/>
        <path id="Path_154895" data-name="Path 154895" d="M460.579-24.646s-5.489,1.981-4.293,4.333,8.874-1.816,8.874-1.816Z" fill="#d28690"/>
        <path id="Path_154896" data-name="Path 154896" d="M464.5-7.766c0,.165.207,2.271,1.032,3.013S464.5-7.766,464.5-7.766Z" opacity="0.1"/>
        <path id="Path_154897" data-name="Path 154897" d="M458.97-.3s.989,2.724,4.91,3.84S458.97-.3,458.97-.3Z" opacity="0.1"/>
        <path id="Path_154898" data-name="Path 154898" d="M467.981-68.823a6.44,6.44,0,0,1-3.228,5.582,3.419,3.419,0,0,1-.968-.807,1.251,1.251,0,0,1-.331-1.212c.136-.327.494-.534.581-.873a1.289,1.289,0,0,0-.031-.623c-.072-.319-.139-.639-.209-.957-.06-.271-.167-.591-.436-.656s-.494.159-.7.325a2.209,2.209,0,0,1-2.13.35c-.622-.335-.447-1.456-.548-2.062a.365.365,0,0,0-.136-.273.57.57,0,0,0-.281-.019.808.808,0,0,1-.7-.622,5.335,5.335,0,0,1-.112-1,1.115,1.115,0,0,0-.445-.862,1.383,1.383,0,0,0-.734-.12l-1.214.014a6.439,6.439,0,0,1,9.007-1.346,6.439,6.439,0,0,1,2.61,5.164Z" opacity="0.1"/>
        <path id="Path_154899" data-name="Path 154899" d="M462.827-68.045c.211-.167.443-.387.7-.323s.374.387.434.654l.209.955a1.3,1.3,0,0,1,.033.625c-.1.341-.455.546-.592.873a1.25,1.25,0,0,0,.331,1.21,3.483,3.483,0,0,0,1.992,1.191,1.466,1.466,0,0,0,.622.014,1.842,1.842,0,0,0,1.022-.927,15.026,15.026,0,0,0,2.606-6.539,4.211,4.211,0,0,0-.066-1.442,4.81,4.81,0,0,0-.442-1.055,8.537,8.537,0,0,0-1.245-1.884,7.067,7.067,0,0,0-3.346-1.876,11.328,11.328,0,0,0-4.32-.339c-.387.045-.759.108-1.14.134a11.3,11.3,0,0,1-1.437-.023l-2.85-.17a1.105,1.105,0,0,0,.194,1.034,1.86,1.86,0,0,1,.418,1,2.047,2.047,0,0,1-.478.968.953.953,0,0,0-.153,1.013,1.082,1.082,0,0,0,.968.318l1.437-.015a1.381,1.381,0,0,1,.73.126,1.116,1.116,0,0,1,.445.862,5.7,5.7,0,0,0,.112,1,.805.805,0,0,0,.7.622.527.527,0,0,1,.281.021.359.359,0,0,1,.136.271c.1.606-.085,1.725.548,2.062A2.227,2.227,0,0,0,462.827-68.045Z" fill="#663d5c"/>
        <path id="Path_154900" data-name="Path 154900" d="M471.011-55.322a3.156,3.156,0,0,0-3.321,2.12c-.774,2.2-2.066,6.184-1.743,7.757.455,2.229.991,5.944.991,5.944s2.353,1.355,1.162,2.722a7.717,7.717,0,0,0-1.528,3.3,3.434,3.434,0,0,0-1.857,2.064c-.329,1.4-2.56,3.342-2.56,3.342l-3.342,3.344s5.53,5.615,6.645,5.9l3.425-4,4.045-5.365,3.509-3.679a12.073,12.073,0,0,0,.412-5.615,26.872,26.872,0,0,0-2.023-7.182l.124-1.239S475.331-54.79,471.011-55.322Z" opacity="0.1"/>
        <path id="Path_154901" data-name="Path 154901" d="M471.34-55.324a3.156,3.156,0,0,0-3.317,2.12c-.774,2.2-2.066,6.184-1.743,7.757.453,2.229.989,5.944.989,5.944s2.353,1.355,1.162,2.722a7.7,7.7,0,0,0-1.526,3.3,3.44,3.44,0,0,0-1.859,2.064c-.331,1.4-2.558,3.342-2.558,3.342l-3.344,3.344s5.53,5.615,6.645,5.9l3.425-4,4.035-5.365,3.509-3.679a12.047,12.047,0,0,0,.412-5.615,26.993,26.993,0,0,0-2.022-7.182l.124-1.239S475.66-54.79,471.34-55.324Z" fill="#585b8a"/>
        <path id="Path_154902" data-name="Path 154902" d="M467.885-42.765s3.509,4.291,5,3.342S467.885-42.765,467.885-42.765Z" opacity="0.1"/>
        <path id="Path_154903" data-name="Path 154903" d="M469.2-46.069c.372.124,3.427,4.376,5,3.872S469.2-46.069,469.2-46.069Z" opacity="0.1"/>
        <path id="Path_154904" data-name="Path 154904" d="M470.073-38.765a2.3,2.3,0,0,0,2.454,2.135,2.214,2.214,0,0,0,.27-.035C475.314-36.991,470.073-38.765,470.073-38.765Z" opacity="0.1"/>
        <path id="Path_154905" data-name="Path 154905" d="M458.949-58.41l-1.361,3.034,1.7-1.725Z" opacity="0.1"/>
        <path id="Path_154906" data-name="Path 154906" d="M458.949-58.575l-1.361,3.034,1.7-1.725Z" fill="#f0f3f7"/>
        <path id="Path_154907" data-name="Path 154907" d="M453.467-22.249l-1.015-.215-1.863-3.5.188-1.251Z" opacity="0.3"/>
        <path id="Path_154908" data-name="Path 154908" d="M471.128-22.431l-.223,1.16h0l-2.641,2.155-1-.211Z" opacity="0.3"/>
        <path id="Path_154909" data-name="Path 154909" d="M429.515-35.971c-.511.085-1.007.163-1.46.221-2.517.331-8.5-2.641-8.5-2.641s-7.3-6.109-9.41-11.887,2.517-6.645,2.517-6.645c1.743-.991,5.532,1.774,6.068,2.229a3.449,3.449,0,0,1,.949,2.353c-.043.743,1.239,1.692,1.239,1.692a36.616,36.616,0,0,0,2.724,4.209,2.154,2.154,0,0,1,.825,1.487c.165.7,1.609,1.28,2.229,1.237s1.355.207,1.355.536c0,.265.606.4,1.1.44C429.3-40.624,429.444-37.856,429.515-35.971Z" opacity="0.1"/>
        <path id="Path_154910" data-name="Path 154910" d="M429.491-36.575c-.387.062-.759.118-1.108.165-2.517.331-8.5-2.641-8.5-2.641s-7.3-6.109-9.41-11.887,2.518-6.645,2.518-6.645c1.743-.991,5.53,1.774,6.066,2.229A3.457,3.457,0,0,1,420.008-53c-.041.743,1.237,1.692,1.237,1.692a36.616,36.616,0,0,0,2.724,4.209,2.164,2.164,0,0,1,.827,1.487c.167.7,1.609,1.278,2.229,1.237s1.355.207,1.355.536c0,.194.345.323.728.387.016.225.029.463.046.711C429.282-40.839,429.414-38.406,429.491-36.575Z" opacity="0.1"/>
        <path id="Path_154911" data-name="Path 154911" d="M439.068-40.732l-.157,3.71h-.168l-.349-.194.043-3.2A5.631,5.631,0,0,1,439.068-40.732Z" opacity="0.1"/>
        <path id="Path_154912" data-name="Path 154912" d="M412.658-57.255s-4.622.867-2.517,6.645,9.41,11.889,9.41,11.889,5.985,2.97,8.5,2.641,6.355-1.2,6.85-1.073,3.84.124,3.84.124l.165-3.872-3.872-.207-1.981-.412s-.7-.581-1.115-.5-1.278-.5-1.278-.5a2.468,2.468,0,0,0-1.162-.536c-.5,0-1.444-.124-1.444-.453s-.743-.581-1.355-.536-2.074-.536-2.244-1.247a2.154,2.154,0,0,0-.825-1.485,36.727,36.727,0,0,1-2.724-4.211s-1.28-.949-1.239-1.69a3.462,3.462,0,0,0-.949-2.354C418.184-55.48,414.389-58.244,412.658-57.255Z" fill="#dce6f2"/>
        <path id="Path_154913" data-name="Path 154913" d="M424.547-43.964s-1.776,1.776-1.322,2.1Z" opacity="0.1"/>
        <path id="Path_154914" data-name="Path 154914" d="M426.445-42.56s-2.312,1.776-1.692,1.9S426.445-42.56,426.445-42.56Z" opacity="0.1"/>
        <path id="Path_154915" data-name="Path 154915" d="M422.522-39.927c.331.166,5.241,3.1,7.1,3.055Z" opacity="0.1"/>
        <path id="Path_154916" data-name="Path 154916" d="M422.855-59.524s-.867,2.848-1.2,2.848c-.26,0-4.616-3.528-6.434-5.011l.079-.066a3.9,3.9,0,0,1,.825-1.936C416.786-64.345,422.855-59.524,422.855-59.524Z" opacity="0.1"/>
        <path id="Path_154917" data-name="Path 154917" d="M422.689-59.855s-.865,2.848-1.2,2.848c-.261,0-4.618-3.528-6.436-5.011l.079-.066a3.9,3.9,0,0,1,.827-1.936C416.622-64.676,422.689-59.855,422.689-59.855Z" fill="#dce6f2"/>
        <g id="Group_167254" data-name="Group 167254" opacity="0.15">
          <path id="Path_154918" data-name="Path 154918" d="M411-69.06h0c.581,1.326,2.18,1.969,3.108,3.026C413.556-67.333,411.943-67.97,411-69.06Z"/>
          <path id="Path_154919" data-name="Path 154919" d="M416.919-66a1.392,1.392,0,0,1-1.27.649,3.679,3.679,0,0,1-1.274-.325,2.465,2.465,0,0,1,.329.7,4.039,4.039,0,0,0,1.441.387,1.377,1.377,0,0,0,1.27-.649c.37-.707-.016-1.311-.467-1.882A1.229,1.229,0,0,1,416.919-66Z"/>
          <path id="Path_154920" data-name="Path 154920" d="M424.1-75.705a6.649,6.649,0,0,0-.511-1.015,6.374,6.374,0,0,1-.211-.829,2.574,2.574,0,0,0-.594-1.063,2.514,2.514,0,0,1,.1.292,6.662,6.662,0,0,0,.217.833,6.652,6.652,0,0,1,.511,1.015,1.051,1.051,0,0,1-.774,1.212c-.716.157-1.534-.463-2.149-.064a1.548,1.548,0,0,0-.515,1.193q-.131,1.162-.263,2.31a2.768,2.768,0,0,1-.17.794,2,2,0,0,1-1.9,1.013,1.138,1.138,0,0,1-.817-.271,5.3,5.3,0,0,0-.354-.449c-.968-.813-1.262,1.175-1.007,1.743a3.488,3.488,0,0,0,.472.711c-.213-.639.085-2.478,1.03-1.69a5.074,5.074,0,0,1,.352.449,1.142,1.142,0,0,0,.819.271,2,2,0,0,0,1.9-1.013,2.774,2.774,0,0,0,.17-.8q.132-1.161.263-2.308a1.553,1.553,0,0,1,.513-1.193c.618-.4,1.435.221,2.151.062A1.049,1.049,0,0,0,424.1-75.705Z"/>
        </g>
        <path id="Path_154921" data-name="Path 154921" d="M466.973-63.34a1.5,1.5,0,0,1-.622-.016,3.479,3.479,0,0,1-1.99-1.189,1.247,1.247,0,0,1-.331-1.212c.135-.327.492-.532.581-.873a1.3,1.3,0,0,0-.033-.625l-.209-.955c-.06-.271-.165-.591-.434-.654s-.494.157-.7.323a2.2,2.2,0,0,1-2.13.35c-.62-.337-.447-1.456-.548-2.062a.362.362,0,0,0-.135-.271.556.556,0,0,0-.283-.021.81.81,0,0,1-.7-.622,5.506,5.506,0,0,1-.11-1,1.117,1.117,0,0,0-.447-.862,1.392,1.392,0,0,0-.73-.126l-1.437.015c-.354,0-.774-.023-.968-.318a.963.963,0,0,1,.153-1.013,2,2,0,0,0,.478-.968,1.828,1.828,0,0,0-.418-1,1.785,1.785,0,0,1-.244-.554l-.412-.025a1.111,1.111,0,0,0,.194,1.034,1.849,1.849,0,0,1,.418,1,2.047,2.047,0,0,1-.478.968A.948.948,0,0,0,455.287-73a1.081,1.081,0,0,0,.968.319l1.437-.017a1.392,1.392,0,0,1,.73.128,1.114,1.114,0,0,1,.447.862,5.338,5.338,0,0,0,.112,1,.8.8,0,0,0,.7.62.571.571,0,0,1,.281.021.365.365,0,0,1,.136.273c.1.6-.085,1.725.548,2.062a2.2,2.2,0,0,0,2.13-.35c.211-.167.445-.387.707-.325s.374.387.432.654l.211.956a1.3,1.3,0,0,1,.031.625c-.1.339-.455.546-.591.871a1.249,1.249,0,0,0,.331,1.212,3.482,3.482,0,0,0,2,1.189,1.482,1.482,0,0,0,.622.015,1.457,1.457,0,0,0,.8-.612A1.085,1.085,0,0,1,466.973-63.34Z" opacity="0.1"/>
        <ellipse id="Ellipse_2173" data-name="Ellipse 2173" cx="4.68" cy="0.718" rx="4.68" ry="0.718" transform="translate(536.867 2.059)" fill="#4285f4" opacity="0.1"/>
        <ellipse id="Ellipse_2177" data-name="Ellipse 2177" cx="13.554" cy="2.08" rx="13.554" ry="2.08" transform="translate(344.559 32.376)" fill="#90cae8"/>
        <path id="Path_154922" data-name="Path 154922" d="M378.357-8.471s.531.693-.244,1.743-1.413,1.936-1.162,2.583c0,0,1.162-1.936,2.13-1.971S379.4-7.3,378.357-8.471Z" fill="#4285f4"/>
        <path id="Path_154923" data-name="Path 154923" d="M378.356-8.471a.772.772,0,0,1,.108.217c.929,1.092,1.423,2.109.531,2.13-.831.023-1.828,1.51-2.066,1.886a.65.65,0,0,0,.027.085s1.162-1.936,2.13-1.971S379.4-7.3,378.356-8.471Z" opacity="0.1"/>
        <path id="Path_154924" data-name="Path 154924" d="M379.344-7.588c0,.244-.029.442-.062.442s-.062-.194-.062-.442.035-.128.068-.128S379.344-7.832,379.344-7.588Z" fill="#ffd037"/>
        <path id="Path_154925" data-name="Path 154925" d="M379.679-7.3c-.213.116-.4.194-.416.157s.143-.147.358-.265.13-.031.145,0S379.9-7.414,379.679-7.3Z" fill="#ffd037"/>
        <path id="Path_154926" data-name="Path 154926" d="M375.556-8.471s-.531.693.244,1.743,1.415,1.936,1.162,2.583c0,0-1.162-1.936-2.12-1.971S374.5-7.3,375.556-8.471Z" fill="#4285f4"/>
        <path id="Path_154927" data-name="Path 154927" d="M375.557-8.471a.846.846,0,0,0-.108.217c-.929,1.092-1.423,2.109-.531,2.13.831.023,1.828,1.51,2.068,1.886a.853.853,0,0,1-.029.085s-1.162-1.936-2.12-1.971S374.5-7.3,375.557-8.471Z" opacity="0.1"/>
        <path id="Path_154928" data-name="Path 154928" d="M374.571-7.588c0,.244.027.442.06.442s.062-.194.062-.442-.035-.128-.068-.128S374.571-7.832,374.571-7.588Z" fill="#ffd037"/>
        <path id="Path_154929" data-name="Path 154929" d="M374.232-7.3c.215.116.4.194.418.157s-.145-.147-.36-.265-.13-.031-.145,0S374.017-7.414,374.232-7.3Z" fill="#ffd037"/>
        <ellipse id="Ellipse_2178" data-name="Ellipse 2178" cx="5.543" cy="0.85" rx="5.543" ry="0.85" transform="translate(371.413 -0.544)" fill="#90cae8"/>
        <path id="Path_154930" data-name="Path 154930" d="M379.81-5.086l-.027.217-.037.306-.015.128-.037.306L379.677-4l-.037.306L379.216-.21c-.037.31-.544.552-1.162.552h-2.2c-.612,0-1.119-.242-1.162-.552l-.424-3.485L374.231-4l-.015-.128-.039-.306-.015-.128-.037-.306-.027-.217c-.021-.176.254-.323.6-.323h4.51C379.557-5.406,379.832-5.259,379.81-5.086Z" fill="#65617d"/>
        <path id="Path_154931" data-name="Path 154931" d="M379.783-4.866l-.037.306h-5.577l-.037-.306Z" fill="#9d9cb5"/>
        <path id="Path_154932" data-name="Path 154932" d="M379.731-4.432l-.037.306H374.22l-.038-.306Z" fill="#9d9cb5"/>
        <path id="Path_154933" data-name="Path 154933" d="M379.679-4l-.039.306h-5.367L374.236-4Z" fill="#9d9cb5"/>
        <path id="Path_154934" data-name="Path 154934" d="M537.854-4.106s-.662,3.082,2.283,3.446L540.319-1S538.041-3.15,537.854-4.106Z" fill="#4285f4"/>
        <path id="Path_154935" data-name="Path 154935" d="M541.261-1.031l-.686.145-.068.016a6.186,6.186,0,0,1-1.8-4.794,8.1,8.1,0,0,0,.873,1.381A8.256,8.256,0,0,1,541.261-1.031Z" fill="#4285f4"/>
        <path id="Path_154936" data-name="Path 154936" d="M541.491-.71a.428.428,0,0,1-.368.048c-1.758-.41-1.162-6.14-1.162-6.14.1.044.194.774.608,1.716C541.276-3.434,542.056-1.124,541.491-.71Z" fill="#4285f4"/>
        <path id="Path_154937" data-name="Path 154937" d="M545.391-4.106s.114,3.082-2.831,3.446l-.184-.346S545.209-3.15,545.391-4.106Z" fill="#4285f4"/>
        <path id="Path_154938" data-name="Path 154938" d="M544.547-5.655A5.7,5.7,0,0,1,542.2-.861l-.07-.015-.683-.145a8.351,8.351,0,0,1,1.683-3.253A7.466,7.466,0,0,1,544.547-5.655Z" fill="#4285f4"/>
        <path id="Path_154939" data-name="Path 154939" d="M542.116-1.009a1.071,1.071,0,0,1-.387.3h0a.747.747,0,0,1-.145.048c-.432.1-.581-.211-.558-.742a13.721,13.721,0,0,1,1.162-3.8,4.749,4.749,0,0,1,1.1-1.594S543.265-2.341,542.116-1.009Z" fill="#4285f4"/>
        <path id="Path_154940" data-name="Path 154940" d="M541.625-8.811S539.662-1.84,541.352-.8,542.059-8.195,541.625-8.811Z" fill="#4285f4"/>
        <path id="Path_154941" data-name="Path 154941" d="M537.854-4.106s-.662,3.082,2.283,3.446L540.319-1S538.041-3.15,537.854-4.106Z" opacity="0.1"/>
        <path id="Path_154942" data-name="Path 154942" d="M541.261-1.031l-.686.145-.068.016a6.186,6.186,0,0,1-1.8-4.794,8.1,8.1,0,0,0,.873,1.381A8.256,8.256,0,0,1,541.261-1.031Z" opacity="0.1"/>
        <path id="Path_154943" data-name="Path 154943" d="M541.491-.71a.428.428,0,0,1-.368.048c-1.758-.41-1.162-6.14-1.162-6.14.1.044.194.774.608,1.716C541.276-3.434,542.056-1.124,541.491-.71Z" opacity="0.1"/>
        <path id="Path_154944" data-name="Path 154944" d="M545.391-4.106s.114,3.082-2.831,3.446l-.184-.346S545.209-3.15,545.391-4.106Z" opacity="0.1"/>
        <path id="Path_154945" data-name="Path 154945" d="M544.547-5.655A5.7,5.7,0,0,1,542.2-.861l-.07-.015-.683-.145a8.351,8.351,0,0,1,1.683-3.253A7.466,7.466,0,0,1,544.547-5.655Z" opacity="0.1"/>
        <path id="Path_154946" data-name="Path 154946" d="M542.116-1.009a1.071,1.071,0,0,1-.387.3h0a.747.747,0,0,1-.145.048c-.432.1-.581-.211-.558-.742a13.721,13.721,0,0,1,1.162-3.8,4.749,4.749,0,0,1,1.1-1.594S543.265-2.341,542.116-1.009Z" opacity="0.1"/>
        <path id="Path_154947" data-name="Path 154947" d="M541.625-8.811S539.662-1.84,541.352-.8,542.059-8.195,541.625-8.811Z" opacity="0.1"/>
        <path id="Path_154948" data-name="Path 154948" d="M537.859-4.106s-.387,3.082,2.556,3.446L540.6-1S538.041-3.15,537.859-4.106Z" fill="#4285f4"/>
        <path id="Path_154949" data-name="Path 154949" d="M541.534-1.027l-.686.145-.068.016A5.884,5.884,0,0,1,538.7-5.655s.538.581,1.146,1.381A8.126,8.126,0,0,1,541.534-1.027Z" fill="#4285f4"/>
        <path id="Path_154950" data-name="Path 154950" d="M541.534-1.028l-.685.145c-.649-.569-.906-2.056-1-3.4A8.269,8.269,0,0,1,541.534-1.028Z" opacity="0.1"/>
        <path id="Path_154951" data-name="Path 154951" d="M541.766-.71a.432.432,0,0,1-.37.048c-1.758-.41-1.437-6.14-1.437-6.14a7.977,7.977,0,0,1,.881,1.716C541.552-3.434,542.33-1.124,541.766-.71Z" fill="#4285f4"/>
        <path id="Path_154952" data-name="Path 154952" d="M545.391-4.106s.387,3.082-2.556,3.446L542.653-1S545.209-3.15,545.391-4.106Z" fill="#4285f4"/>
        <path id="Path_154953" data-name="Path 154953" d="M544.547-5.655a5.876,5.876,0,0,1-2.078,4.794L542.4-.876l-.686-.145A8.327,8.327,0,0,1,543.4-4.274C544.008-5.074,544.547-5.655,544.547-5.655Z" fill="#4285f4"/>
        <path id="Path_154954" data-name="Path 154954" d="M543.4-4.281a6.335,6.335,0,0,1-.873,3.27.953.953,0,0,1-.126.128l-.686-.145A8.229,8.229,0,0,1,543.4-4.281Z" opacity="0.1"/>
        <path id="Path_154955" data-name="Path 154955" d="M542.39-1.009a1.045,1.045,0,0,1-.387.3h0a.729.729,0,0,1-.143.048c-.434.1-.581-.211-.56-.742a13.858,13.858,0,0,1,1.162-3.8,7.483,7.483,0,0,1,.831-1.594S543.538-2.341,542.39-1.009Z" fill="#4285f4"/>
        <path id="Path_154956" data-name="Path 154956" d="M541.766-.71a.466.466,0,0,1-.279-.089c-.827-.515-.844-2.447-.647-4.287C541.551-3.434,542.329-1.126,541.766-.71Z" opacity="0.1"/>
        <path id="Path_154957" data-name="Path 154957" d="M542.39-1.008c-.1.207-.223.316-.387.3h0a.524.524,0,0,1-.234-.089,1.247,1.247,0,0,1-.469-.6,13.858,13.858,0,0,1,1.162-3.8A10.8,10.8,0,0,1,542.39-1.008Z" opacity="0.1"/>
        <path id="Path_154958" data-name="Path 154958" d="M541.625-8.811s-1.688,6.971,0,8.012S542.059-8.195,541.625-8.811Z" fill="#4285f4"/>
        <path id="Path_154959" data-name="Path 154959" d="M544.867-1.14h-7.031V.024h1.073l.027.137.43,2.26h4.087l.43-2.26.025-.137h.958Z" fill="#4b4770"/>
        <path id="Path_154960" data-name="Path 154960" d="M544.867-1.14h-7.031V.024h1.073l.027.137.43,2.26h4.087l.43-2.26.025-.137h.958Z" opacity="0.1"/>
        <path id="Path_154961" data-name="Path 154961" d="M544.27-.456l-.118.618-.43,2.26h-4.087l-.43-2.26-.118-.618Z" fill="#4b4770"/>
        <path id="Path_154962" data-name="Path 154962" d="M544.27-.456l-.118.618h-4.947l-.118-.618Z" opacity="0.1"/>
        <rect id="Rectangle_30336" data-name="Rectangle 30336" width="7.031" height="1.164" transform="translate(538.109 -1.14)" fill="#4b4770"/>
        <path id="Path_154963" data-name="Path 154963" d="M365.693,11.726a3.377,3.377,0,0,0-.441.833c-.027.072-.054.155-.081.234a.817.817,0,0,0-.153-.054,2.145,2.145,0,0,0-.691-.058c0-.091.012-.194.014-.285.029-1.02-.091-2.442-1.065-1.839-.933.581-.267,1.549.335,2.169.052.054.1.1.155.153-.55.387-.654,1.3-.745,2.254a5.255,5.255,0,0,1-1.435,2.581c-.054.06-.1.114-.151.165a1.966,1.966,0,0,0-1.559-.4c-.021-.083-.046-.17-.072-.261-.434-1.566-1.334-4.279-2.482-4.874l.151-.194c.488-.637,1.038-1.586.227-1.828s-.885.821-.84,1.619c.008.1.016.2.023.285a1.187,1.187,0,0,0-.848.414l-.126-.149c-.658-.775-1.865-2.008-2.231-1.077-.341.867.722,1.994,1.47,2.647l.046.041c-.5,2.035,1.688,3.694,2.868,4.42l.153.093a17.8,17.8,0,0,0-2.631,5.511l4.554.813s3.021-2.606,2.633-5.054h.031c3.019-.6,3.7-3.822,3.234-5.733l.054-.021a3.414,3.414,0,0,0,1.4-1.057,1.123,1.123,0,0,0-1.8-1.348Z" fill="#4285f4"/>
        <path id="Path_154964" data-name="Path 154964" d="M365.693,11.726a3.377,3.377,0,0,0-.441.833c-.027.072-.054.155-.081.234a.817.817,0,0,0-.153-.054,2.145,2.145,0,0,0-.691-.058c0-.091.012-.194.014-.285.029-1.02-.091-2.442-1.065-1.839-.933.581-.267,1.549.335,2.169.052.054.1.1.155.153-.55.387-.654,1.3-.745,2.254a5.255,5.255,0,0,1-1.435,2.581c-.054.06-.1.114-.151.165a1.966,1.966,0,0,0-1.559-.4c-.021-.083-.046-.17-.072-.261-.434-1.566-1.334-4.279-2.482-4.874l.151-.194c.488-.637,1.038-1.586.227-1.828s-.885.821-.84,1.619c.008.1.016.2.023.285a1.187,1.187,0,0,0-.848.414l-.126-.149c-.658-.775-1.865-2.008-2.231-1.077-.341.867.722,1.994,1.47,2.647l.046.041c-.5,2.035,1.688,3.694,2.868,4.42l.153.093a17.8,17.8,0,0,0-2.631,5.511l4.554.813s3.021-2.606,2.633-5.054h.031c3.019-.6,3.7-3.822,3.234-5.733l.054-.021a3.414,3.414,0,0,0,1.4-1.057,1.123,1.123,0,0,0-1.8-1.348Z" opacity="0.1"/>
        <path id="Path_154965" data-name="Path 154965" d="M356.628,13.05,356.1,14.6a8.057,8.057,0,0,1-.67-.538c-.747-.652-1.81-1.779-1.47-2.647.366-.931,1.572.3,2.231,1.077C356.449,12.8,356.628,13.05,356.628,13.05Z" fill="#4285f4"/>
        <path id="Path_154966" data-name="Path 154966" d="M357.75,12.154a7.383,7.383,0,0,1-.519.612,8.1,8.1,0,0,1-.1-.821c-.045-.8.041-1.857.84-1.619S358.238,11.513,357.75,12.154Z" fill="#4285f4"/>
        <path id="Path_154967" data-name="Path 154967" d="M364.628,12.4c-.016.513-.066.924-.066.924a6.669,6.669,0,0,1-.664-.594c-.6-.625-1.268-1.59-.335-2.169C364.527,9.953,364.647,11.376,364.628,12.4Z" fill="#4285f4"/>
        <path id="Path_154968" data-name="Path 154968" d="M367.765,13.068a3.414,3.414,0,0,1-1.4,1.057,4.1,4.1,0,0,1-.469.17l-.627-.881a6.243,6.243,0,0,1,.259-.856,3.377,3.377,0,0,1,.441-.833,1.121,1.121,0,0,1,1.8,1.343Z" fill="#4285f4"/>
        <path id="Path_154969" data-name="Path 154969" d="M356.186,12.491c.265.31.441.55.441.55L356.1,14.59a8.063,8.063,0,0,1-.67-.538,3.038,3.038,0,0,1,.6-1.369Z" opacity="0.1"/>
        <path id="Path_154970" data-name="Path 154970" d="M357.751,12.15a7.4,7.4,0,0,1-.519.612,8.1,8.1,0,0,1-.1-.821A1.078,1.078,0,0,1,357.751,12.15Z" opacity="0.1"/>
        <path id="Path_154971" data-name="Path 154971" d="M360.369,18.338l-1.324.581a7.757,7.757,0,0,1-.7-.4c-1.392-.856-4.19-3.011-2.324-5.551s3.441,2.016,4.066,4.244C360.27,17.891,360.369,18.338,360.369,18.338Z" fill="#4285f4"/>
        <path id="Path_154972" data-name="Path 154972" d="M363.889,12.725a1.092,1.092,0,0,1,.73-.329c-.016.513-.066.924-.066.924A6.679,6.679,0,0,1,363.889,12.725Z" opacity="0.1"/>
        <path id="Path_154973" data-name="Path 154973" d="M366.371,14.124a4.1,4.1,0,0,1-.469.17l-.627-.881a6.251,6.251,0,0,1,.259-.856A2.284,2.284,0,0,1,366.371,14.124Z" opacity="0.1"/>
        <path id="Path_154974" data-name="Path 154974" d="M363.08,19.88c-.072.016-.147.029-.223.041-4.44.674-1.464-1.721-1.464-1.721s.194-.194.471-.486a5.24,5.24,0,0,0,1.435-2.581c.139-1.439.3-2.788,2-2.393C366.964,13.13,367.283,19.039,363.08,19.88Z" fill="#4285f4"/>
        <rect id="Rectangle_30337" data-name="Rectangle 30337" width="8.483" height="2.231" transform="translate(354.513 30.934)" fill="#d4dfec"/>
        <rect id="Rectangle_30338" data-name="Rectangle 30338" width="11.083" height="7.784" transform="translate(353.166 23.684)" fill="#d4dfec"/>
        <rect id="Rectangle_30339" data-name="Rectangle 30339" width="8.483" height="2.231" transform="translate(354.513 30.934)" opacity="0.1"/>
        <rect id="Rectangle_30340" data-name="Rectangle 30340" width="11.083" height="7.784" transform="translate(353.166 23.684)" opacity="0.1"/>
        <rect id="Rectangle_30341" data-name="Rectangle 30341" width="8.483" height="2.231" transform="translate(355.071 30.934)" fill="#d4dfec"/>
        <path id="Path_154975" data-name="Path 154975" d="M360.082,17.215c.194.666.287,1.123.287,1.123l-1.324.581a7.757,7.757,0,0,1-.7-.4A3.4,3.4,0,0,1,360.082,17.215Z" opacity="0.1"/>
        <path id="Path_154976" data-name="Path 154976" d="M363.08,19.88c-.072.016-.147.029-.223.041-4.44.674-1.464-1.721-1.464-1.721s.194-.194.471-.486A2.944,2.944,0,0,1,363.08,19.88Z" opacity="0.1"/>
        <path id="Path_154977" data-name="Path 154977" d="M355.861,24.126s2.486-8.907,5.973-6.159-1.419,6.971-1.419,6.971Z" fill="#4285f4"/>
        <circle id="Ellipse_2179" data-name="Ellipse 2179" cx="0.279" cy="0.279" r="0.279" transform="translate(356.837 14.086)" opacity="0.1"/>
        <circle id="Ellipse_2180" data-name="Ellipse 2180" cx="0.279" cy="0.279" r="0.279" transform="translate(356.814 15.387)" opacity="0.1"/>
        <circle id="Ellipse_2181" data-name="Ellipse 2181" cx="0.279" cy="0.279" r="0.279" transform="translate(364.901 14.342)" opacity="0.1"/>
        <circle id="Ellipse_2182" data-name="Ellipse 2182" cx="0.279" cy="0.279" r="0.279" transform="translate(358.395 21.012)" opacity="0.1"/>
        <circle id="Ellipse_2183" data-name="Ellipse 2183" cx="0.279" cy="0.279" r="0.279" transform="translate(364.32 16.503)" opacity="0.1"/>
        <circle id="Ellipse_2184" data-name="Ellipse 2184" cx="0.279" cy="0.279" r="0.279" transform="translate(361.439 19.386)" opacity="0.1"/>
        <circle id="Ellipse_2185" data-name="Ellipse 2185" cx="0.279" cy="0.279" r="0.279" transform="translate(357.789 14.644)" opacity="0.1"/>
        <circle id="Ellipse_2186" data-name="Ellipse 2186" cx="0.279" cy="0.279" r="0.279" transform="translate(364.134 15.178)" opacity="0.1"/>
        <circle id="Ellipse_2187" data-name="Ellipse 2187" cx="0.279" cy="0.279" r="0.279" transform="translate(363.182 17.339)" opacity="0.1"/>
        <circle id="Ellipse_2188" data-name="Ellipse 2188" cx="0.279" cy="0.279" r="0.279" transform="translate(360.254 20.803)" opacity="0.1"/>
        <circle id="Ellipse_2189" data-name="Ellipse 2189" cx="0.279" cy="0.279" r="0.279" transform="translate(359.65 19.432)" opacity="0.1"/>
        <circle id="Ellipse_2190" data-name="Ellipse 2190" cx="0.279" cy="0.279" r="0.279" transform="translate(358.208 16.34)" opacity="0.1"/>
        <rect id="Rectangle_30342" data-name="Rectangle 30342" width="8.483" height="0.815" transform="translate(355.071 30.934)" opacity="0.1"/>
        <rect id="Rectangle_30343" data-name="Rectangle 30343" width="11.083" height="7.784" transform="translate(353.723 23.684)" fill="#d4dfec"/>
        <circle id="Ellipse_2191" data-name="Ellipse 2191" cx="0.279" cy="0.279" r="0.279" transform="translate(360.626 22.058)" opacity="0.1"/>
        <circle id="Ellipse_2192" data-name="Ellipse 2192" cx="0.279" cy="0.279" r="0.279" transform="translate(358.953 22.406)" opacity="0.1"/>
      </g>
    </g>
  </g>
</svg>
