<svg xmlns="http://www.w3.org/2000/svg" xmlns:xlink="http://www.w3.org/1999/xlink" width="262" height="196" viewBox="0 0 262 196">
  <defs>
    <linearGradient id="linear-gradient" x1="15.431" y1="13.746" x2="15.431" y2="13.792" gradientUnits="objectBoundingBox">
      <stop offset="0" stop-color="gray" stop-opacity="0.251"/>
      <stop offset="0.54" stop-color="gray" stop-opacity="0.122"/>
      <stop offset="1" stop-color="gray" stop-opacity="0.102"/>
    </linearGradient>
    <linearGradient id="linear-gradient-2" x1="15.804" y1="11.618" x2="15.858" y2="11.618" xlink:href="#linear-gradient"/>
    <linearGradient id="linear-gradient-3" x1="8.028" y1="3.28" x2="8.028" y2="3.291" xlink:href="#linear-gradient"/>
    <linearGradient id="linear-gradient-4" x1="3.199" y1="3.994" x2="3.199" y2="4.005" xlink:href="#linear-gradient"/>
    <linearGradient id="linear-gradient-5" x1="15.356" y1="15.78" x2="15.356" y2="15.826" xlink:href="#linear-gradient"/>
  </defs>
  <g id="card-2" transform="translate(504.6 49.777)">
    <rect id="Rectangle_4205" data-name="Rectangle 4205" width="262" height="196" transform="translate(-504.6 -49.778)" fill="#a1dbf8"/>
    <g id="Group_167249" data-name="Group 167249" opacity="0.82">
      <g id="undraw_connecting_teams3_1pgn" data-name="undraw connecting teams3 1pgn">
        <ellipse id="Ellipse_1231" data-name="Ellipse 1231" cx="0.443" cy="0.831" rx="0.443" ry="0.831" transform="translate(-435.303 47.406)" fill="#ccc"/>
      </g>
    </g>
    <g id="undraw_people_search_wctu" data-name="undraw people search wctu">
      <path id="Path_155789" data-name="Path 155789" d="M-285.554,53.522c-7.032,9.648-4.711,23.42-.647,34.393,1.361,3.673,2.908,7.558,2.2,11.554-.862,4.885-4.914,8.546-9.126,10.539a24.179,24.179,0,0,1-23.616-1.525c-5.927-3.951-10.1-10.518-16.141-14.28-10.112-6.3-23.239-3.483-34.493,1.324-7.962,3.4-16.683,7.779-24.442,4.639-5.46-2.209-9.136-7.833-11.071-13.844-.934-2.9-1.588-6.053-3.448-8.325a12.749,12.749,0,0,0-4.072-3.078c-13.72-7.184-31.368-2.694-44.669-10.71-8.98-5.413-14.57-15.918-16.892-26.962s-1.748-22.7-.823-34.161c.657-8.143,1.7-16.845,6.593-23.244,5.178-6.766,13.857-9.454,21.617-8.395s14.719,5.37,20.805,10.516c7.613,6.419,14.618,14.478,24.087,16.915,6.45,1.66,13.3.485,20.006-.034,11.207-.866,22.375.131,33.475,1.257,10.625,1.078,21.324,2.281,31.388,5.814,7.121,2.5,12.766,7.225,19.471,10.455,4.37,2.1,9.178,2.593,13.291,5.313,5.076,3.35,9.663,9.284,8.174,16.405C-275.291,44.856-281.818,48.4-285.554,53.522Z" fill="#bde8fe"/>
      <g id="Group_167355" data-name="Group 167355" opacity="0.5">
        <path id="Path_155790" data-name="Path 155790" d="M-320.04,97.529s.593-17.558,10.092-27.48a26.612,26.612,0,0,0,7.3-15.173,44.77,44.77,0,0,0,.223-8.185" fill="none" stroke="#535461" stroke-miterlimit="10" stroke-width="2"/>
        <path id="Path_155791" data-name="Path 155791" d="M-296.476,40.407c-.65,1.961-6.085,6.466-6.085,6.466s-1.665-6.863-1.015-8.822a3.74,3.74,0,0,1,4.727-2.372,3.74,3.74,0,0,1,2.373,4.727h0Z" fill="#4285f4"/>
        <path id="Path_155792" data-name="Path 155792" d="M-294.211,53.213c-1.621,1.293-8.621,2.123-8.621,2.123s2.335-6.665,3.951-7.956a3.738,3.738,0,0,1,5.273.389A3.738,3.738,0,0,1-294,53.042c-.069.06-.141.118-.215.172Z" fill="#4285f4"/>
        <path id="Path_155793" data-name="Path 155793" d="M-300.62,71.684c-2.044.3-8.515-2.514-8.515-2.514s5.377-4.576,7.421-4.878a3.741,3.741,0,0,1,4.247,3.153,3.74,3.74,0,0,1-3.153,4.247Z" fill="#4285f4"/>
        <path id="Path_155794" data-name="Path 155794" d="M-308.617,84.569c-1.963.643-8.819-1.045-8.819-1.045s4.528-5.419,6.491-6.062a3.742,3.742,0,0,1,4.721,2.386,3.74,3.74,0,0,1-2.386,4.721h-.007Z" fill="#4285f4"/>
        <path id="Path_155795" data-name="Path 155795" d="M-310.413,53.243c.954,1.832,7.042,5.419,7.042,5.419s.553-7.039-.4-8.872a3.74,3.74,0,0,0-5.044-1.591,3.739,3.739,0,0,0-1.591,5.043Z" fill="#4285f4"/>
        <path id="Path_155796" data-name="Path 155796" d="M-319.575,68.429c1.458,1.464,8.334,3.066,8.334,3.066s-1.579-6.882-3.035-8.346a3.74,3.74,0,0,0-5.289-.01,3.739,3.739,0,0,0-.011,5.289Z" fill="#4285f4"/>
        <path id="Path_155797" data-name="Path 155797" d="M-326.454,84.412c1.189,1.688,7.7,4.431,7.7,4.431s-.392-7.049-1.582-8.74a3.739,3.739,0,0,0-5.182-1.052,3.738,3.738,0,0,0-1.053,5.181c.041.062.084.122.128.181Z" fill="#4285f4"/>
        <path id="Path_155798" data-name="Path 155798" d="M-317.953,90.262s-5.388-7.838-4.443-15.213a14.41,14.41,0,0,0-1.7-8.955,24.362,24.362,0,0,0-2.536-3.635" fill="none" stroke="#535461" stroke-miterlimit="10" stroke-width="2"/>
        <path id="Path_155799" data-name="Path 155799" d="M-326.065,57.807c.347,1.063-.569,4.774-.569,4.774s-2.933-2.453-3.28-3.515a2.025,2.025,0,0,1,1.241-2.581,2.026,2.026,0,0,1,2.581,1.241l.027.083Z" fill="#4285f4"/>
        <path id="Path_155800" data-name="Path 155800" d="M-320.96,62.655c-.286,1.078-3.073,3.7-3.073,3.7s-1.128-3.653-.842-4.734a2.026,2.026,0,0,1,2.492-1.411,2.026,2.026,0,0,1,1.423,2.447Z" fill="#4285f4"/>
        <path id="Path_155801" data-name="Path 155801" d="M-317.809,72.76c-.792.788-4.519,1.642-4.519,1.642s.869-3.723,1.663-4.512a2.026,2.026,0,0,1,2.865.04,2.025,2.025,0,0,1-.009,2.834Z" fill="#4285f4"/>
        <path id="Path_155802" data-name="Path 155802" d="M-317.147,80.944c-.648.911-4.185,2.378-4.185,2.378s.228-3.817.876-4.727a2.025,2.025,0,0,1,2.834-.411,2.025,2.025,0,0,1,.466,2.757Z" fill="#4285f4"/>
        <path id="Path_155803" data-name="Path 155803" d="M-328.005,67.876c1,.492,4.806.1,4.806.1s-2.024-3.244-3.028-3.734a2.023,2.023,0,0,0-2.707.93,2.024,2.024,0,0,0,.929,2.707Z" fill="#4285f4"/>
        <path id="Path_155804" data-name="Path 155804" d="M-327.109,77.44c1.106.169,4.616-1.345,4.616-1.345s-2.9-2.489-4.007-2.651a2.026,2.026,0,0,0-2.379,1.6,2.025,2.025,0,0,0,1.594,2.379c.058.011.117.02.176.026Z" fill="#4285f4"/>
        <path id="Path_155805" data-name="Path 155805" d="M-324.965,86.612c1.061.359,4.778-.539,4.778-.539s-2.439-2.944-3.5-3.3a2.025,2.025,0,0,0-2.56,1.284,2.025,2.025,0,0,0,1.283,2.56Z" fill="#4285f4"/>
        <path id="Path_155806" data-name="Path 155806" d="M-326.065,57.807c.347,1.063-.569,4.774-.569,4.774s-2.933-2.453-3.28-3.515a2.025,2.025,0,0,1,1.241-2.581,2.026,2.026,0,0,1,2.581,1.241l.027.083Z" fill="#fff" opacity="0.5"/>
        <path id="Path_155807" data-name="Path 155807" d="M-320.96,62.655c-.286,1.078-3.073,3.7-3.073,3.7s-1.128-3.653-.842-4.734a2.026,2.026,0,0,1,2.492-1.411,2.026,2.026,0,0,1,1.423,2.447Z" fill="#aed4fb"/>
        <path id="Path_155808" data-name="Path 155808" d="M-317.809,72.76c-.792.788-4.519,1.642-4.519,1.642s.869-3.723,1.663-4.512a2.026,2.026,0,0,1,2.865.04,2.025,2.025,0,0,1-.009,2.834Z" fill="#aed4fb"/>
        <path id="Path_155809" data-name="Path 155809" d="M-317.147,80.944c-.648.911-4.185,2.378-4.185,2.378s.228-3.817.876-4.727a2.025,2.025,0,0,1,2.834-.411,2.025,2.025,0,0,1,.466,2.757Z" fill="#aed4fb"/>
        <path id="Path_155810" data-name="Path 155810" d="M-328.005,67.876c1,.492,4.806.1,4.806.1s-2.024-3.244-3.028-3.734a2.023,2.023,0,0,0-2.707.93,2.024,2.024,0,0,0,.929,2.707Z" fill="#fff" opacity="0.5"/>
        <path id="Path_155811" data-name="Path 155811" d="M-327.109,77.44c1.106.169,4.616-1.345,4.616-1.345s-2.9-2.489-4.007-2.651a2.026,2.026,0,0,0-2.379,1.6,2.025,2.025,0,0,0,1.594,2.379c.058.011.117.02.176.026Z" fill="#aed4fb"/>
        <path id="Path_155812" data-name="Path 155812" d="M-324.965,86.612c1.061.359,4.778-.539,4.778-.539s-2.439-2.944-3.5-3.3a2.025,2.025,0,0,0-2.56,1.284,2.025,2.025,0,0,0,1.283,2.56Z" fill="#aed4fb"/>
        <path id="Path_155813" data-name="Path 155813" d="M-327.924,111.515H-312.6l3.833-23.372h-22.989Z" fill="#474059"/>
      </g>
      <rect id="Rectangle_30547" data-name="Rectangle 30547" width="112.433" height="135.655" transform="translate(-437.449 -21.72)" fill="#aecedf"/>
      <rect id="Rectangle_30548" data-name="Rectangle 30548" width="109.559" height="132.189" transform="translate(-436.012 -19.985)" fill="#fff"/>
      <rect id="Rectangle_30549" data-name="Rectangle 30549" width="44.183" height="2.155" transform="translate(-393.446 -5.078)" fill="#c0bccf"/>
      <rect id="Rectangle_30550" data-name="Rectangle 30550" width="44.183" height="2.155" transform="translate(-393.446 1.747)" fill="#c0bccf"/>
      <rect id="Rectangle_30551" data-name="Rectangle 30551" width="22.989" height="2.155" transform="translate(-382.849 8.572)" fill="#4285f4"/>
      <rect id="Rectangle_30552" data-name="Rectangle 30552" width="44.183" height="2.155" transform="translate(-393.446 38.207)" fill="#dfdde6"/>
      <rect id="Rectangle_30553" data-name="Rectangle 30553" width="44.183" height="2.155" transform="translate(-393.446 45.032)" fill="#dfdde6"/>
      <rect id="Rectangle_30554" data-name="Rectangle 30554" width="22.989" height="2.155" transform="translate(-382.849 51.857)" fill="#9fc1f9"/>
      <rect id="Rectangle_30555" data-name="Rectangle 30555" width="44.183" height="2.155" transform="translate(-393.446 81.492)" fill="#dfdde6"/>
      <rect id="Rectangle_30556" data-name="Rectangle 30556" width="44.183" height="2.155" transform="translate(-393.446 88.317)" fill="#dfdde6"/>
      <rect id="Rectangle_30557" data-name="Rectangle 30557" width="22.989" height="2.155" transform="translate(-382.849 95.142)" fill="#9fc1f9"/>
      <g id="Group_167356" data-name="Group 167356">
        <path id="Path_155815" data-name="Path 155815" d="M-405.659,46.107a12.153,12.153,0,0,1-2.94,7.948c-.093.11-.19.217-.289.323-.049.056-.1.11-.151.162a11.95,11.95,0,0,1-1.3,1.184l-.032.023a12.164,12.164,0,0,1-3.617,1.943l-.163.052c-.1.034-.2.065-.307.093l-.041.013a12.268,12.268,0,0,1-6.744,0h-.022c-.18-.052-.359-.106-.524-.165l-.153-.054a11.706,11.706,0,0,1-1.688-.747l-.034-.018a12.245,12.245,0,0,1-2.392-1.694l-.059-.056a11.413,11.413,0,0,1-1.043-1.078c-.043-.048-.084-.1-.126-.149-.079-.093-.154-.19-.23-.287a12.213,12.213,0,0,1,2.153-17.137,12.213,12.213,0,0,1,17.137,2.153,12.214,12.214,0,0,1,2.568,7.491Z" fill="#c0bccf"/>
        <path id="Path_155816" data-name="Path 155816" d="M-409,50.228l-.927-.417a3.744,3.744,0,0,0,.018-.424,3.575,3.575,0,0,0,0-.359,8.106,8.106,0,0,0-1.119-2.631,7.464,7.464,0,0,1-.731-2.514,12.144,12.144,0,0,0-.4-3.208,5.788,5.788,0,0,0-1.638-2.1,8.329,8.329,0,0,0-2.631-1.669,4.66,4.66,0,0,0-3.134-.084,6.761,6.761,0,0,0-2.258,1.631,7.6,7.6,0,0,0-1.275,1.451,6.293,6.293,0,0,0-.718,2.195,33.5,33.5,0,0,0-.442,3.668,3.536,3.536,0,0,1-1.056,2.818c-.427.307-1.029.48-1.225.945a.961.961,0,0,0-.065.44,1.654,1.654,0,0,0,.027.372c.013.072.027.142.045.214a15.757,15.757,0,0,0-.632,1.918c-.131.485-.251.961-.359,1.422h.445l1.674.039h.023l1.8.041h.009l1.674.04h.041l.483.034h.158l6.694.154h.036l.445.011h.156l1.34.031h0l1.976.045h.014l1.487.036h.463l-.079-1.559C-408.353,50.377-409,50.228-409,50.228Zm-7.52-.19a5.845,5.845,0,0,1-1.415,2.94l-1.424-1.94.052-.075,1.372,1.868a5.841,5.841,0,0,0,1.415-2.94,1.63,1.63,0,0,1,.113-.194l.032.1a1.938,1.938,0,0,0-.15.241Zm2.177,5.187a1.032,1.032,0,0,0-.013-.2c-.013-.066-.011-.126-.02-.19s-.016-.128-.025-.192-.022-.128-.034-.192-.025-.128-.04-.192a.291.291,0,0,0-.014-.065c-.02-.084-.042-.169-.065-.253s-.038-.137-.059-.2a.264.264,0,0,0-.029-.09c-.011-.029-.031-.1-.047-.145l-.032-.093c-.014-.041-.029-.084-.045-.126-.027-.075-.056-.149-.084-.224s-.059-.149-.09-.223c-.061-.151-.128-.3-.194-.451-.26-.582-.553-1.155-.823-1.722a9.024,9.024,0,0,1-.384-.912l-.034.045a1.913,1.913,0,0,0-.145.242,5.845,5.845,0,0,1-1.415,2.94l-1.424-1.94-1.246,1.8a1.457,1.457,0,0,0-.5.83c-.039.117-.077.246-.113.381-.025.092-.048.18-.07.282-.013.048-.023.1-.034.147l-.032.153v.023c-.022.1-.043.212-.063.321s-.043.235-.063.36c-.015.078-.027.155-.038.232-.025.148-.047.3-.068.45-.013.089-.025.18-.036.26l-.043.335c.092.275.194.539.3.815a1.3,1.3,0,0,1,.117.462,13.091,13.091,0,0,0,6.744,0,.043.043,0,0,1,0-.016,1.863,1.863,0,0,1-.043-.458h0a11.6,11.6,0,0,1,.18-1.286,4.455,4.455,0,0,0,.034-.632v-.075c-.005-.068-.007-.129-.009-.189Zm0,0a1.032,1.032,0,0,0-.013-.2c-.013-.066-.011-.126-.02-.19s-.016-.128-.025-.192-.022-.128-.034-.192-.025-.128-.04-.192a.291.291,0,0,0-.014-.065c-.02-.084-.042-.169-.065-.253s-.038-.137-.059-.2a.264.264,0,0,0-.029-.09c-.011-.029-.031-.1-.047-.145l-.032-.093c-.014-.041-.029-.084-.045-.126-.027-.075-.056-.149-.084-.224s-.059-.149-.09-.223c-.061-.151-.128-.3-.194-.451-.26-.582-.553-1.155-.823-1.722a9.024,9.024,0,0,1-.384-.912l-.034.045a1.913,1.913,0,0,0-.145.242,5.845,5.845,0,0,1-1.415,2.94l-1.424-1.94-1.246,1.8a1.457,1.457,0,0,0-.5.83c-.039.117-.077.246-.113.381-.025.092-.048.18-.07.282-.013.048-.023.1-.034.147l-.032.153v.023c-.022.1-.043.212-.063.321s-.043.235-.063.36c-.015.078-.027.155-.038.232-.025.148-.047.3-.068.45-.013.089-.025.18-.036.26l-.043.335c.092.275.194.539.3.815a1.3,1.3,0,0,1,.117.462,13.091,13.091,0,0,0,6.744,0,.043.043,0,0,1,0-.016,1.863,1.863,0,0,1-.043-.458h0a11.6,11.6,0,0,1,.18-1.286,4.455,4.455,0,0,0,.034-.632v-.075c-.005-.068-.007-.129-.009-.189Zm0,0a1.032,1.032,0,0,0-.013-.2c-.013-.066-.011-.126-.02-.19s-.016-.128-.025-.192-.022-.128-.034-.192-.025-.128-.04-.192a.291.291,0,0,0-.014-.065c-.02-.084-.042-.169-.065-.253s-.038-.137-.059-.2a.264.264,0,0,0-.029-.09c-.011-.029-.031-.1-.047-.145l-.032-.093c-.014-.041-.029-.084-.045-.126-.027-.075-.056-.149-.084-.224s-.059-.149-.09-.223c-.061-.151-.128-.3-.194-.451-.26-.582-.553-1.155-.823-1.722a9.024,9.024,0,0,1-.384-.912l-.034.045a1.913,1.913,0,0,0-.145.242,5.845,5.845,0,0,1-1.415,2.94l-1.424-1.94-1.246,1.8a1.457,1.457,0,0,0-.5.83c-.039.117-.077.246-.113.381-.025.092-.048.18-.07.282-.013.048-.023.1-.034.147l-.032.153v.023c-.022.1-.043.212-.063.321s-.043.235-.063.36c-.015.078-.027.155-.038.232-.025.148-.047.3-.068.45-.013.089-.025.18-.036.26l-.043.335c.092.275.194.539.3.815a1.3,1.3,0,0,1,.117.462,13.091,13.091,0,0,0,6.744,0,.043.043,0,0,1,0-.016,1.863,1.863,0,0,1-.043-.458h0a11.6,11.6,0,0,1,.18-1.286,4.455,4.455,0,0,0,.034-.632v-.075c-.005-.068-.007-.129-.009-.189Zm0,0a1.032,1.032,0,0,0-.013-.2c-.013-.066-.011-.126-.02-.19s-.016-.128-.025-.192-.022-.128-.034-.192-.025-.128-.04-.192a.291.291,0,0,0-.014-.065c-.02-.084-.042-.169-.065-.253s-.038-.137-.059-.2a.264.264,0,0,0-.029-.09c-.011-.029-.031-.1-.047-.145l-.032-.093c-.014-.041-.029-.084-.045-.126-.027-.075-.056-.149-.084-.224s-.059-.149-.09-.223c-.061-.151-.128-.3-.194-.451-.26-.582-.553-1.155-.823-1.722a9.024,9.024,0,0,1-.384-.912l-.034.045a1.913,1.913,0,0,0-.145.242,5.845,5.845,0,0,1-1.415,2.94l-1.424-1.94-1.246,1.8a1.457,1.457,0,0,0-.5.83c-.039.117-.077.246-.113.381-.025.092-.048.18-.07.282-.013.048-.023.1-.034.147l-.032.153v.023c-.022.1-.043.212-.063.321s-.043.235-.063.36c-.015.078-.027.155-.038.232-.025.148-.047.3-.068.45-.013.089-.025.18-.036.26l-.043.335c.092.275.194.539.3.815a1.3,1.3,0,0,1,.117.462,13.091,13.091,0,0,0,6.744,0,.043.043,0,0,1,0-.016,1.863,1.863,0,0,1-.043-.458h0a11.6,11.6,0,0,1,.18-1.286,4.455,4.455,0,0,0,.034-.632v-.075c-.005-.068-.007-.129-.009-.189Z" fill="url(#linear-gradient)"/>
        <rect id="Rectangle_30558" data-name="Rectangle 30558" width="8.262" height="5.568" transform="translate(-422.542 42.697)" fill="#493545"/>
        <path id="Path_155817" data-name="Path 155817" d="M-412.908,48.837l-3.457,4.871-3.614-.314s-4.715.313-1.572-3.3a7.748,7.748,0,0,0,2.11-4.217,3.269,3.269,0,0,0-.224-1.753l3.928-.471a2.935,2.935,0,0,0-.065,1.64C-415.309,47.334-412.908,48.837-412.908,48.837Z" fill="#c77485"/>
        <path id="Path_155818" data-name="Path 155818" d="M-415.8,45.289a3.925,3.925,0,0,1-3.639.586,3.259,3.259,0,0,0-.225-1.753l3.928-.471A2.928,2.928,0,0,0-415.8,45.289Z" opacity="0.1"/>
        <circle id="Ellipse_2280" data-name="Ellipse 2280" cx="3.928" cy="3.928" r="3.928" transform="translate(-422.1 38.072)" fill="#c77485"/>
        <path id="Path_155819" data-name="Path 155819" d="M-413.051,49.039l-.092-.359-.079-.316-.117-.467-.022-.086-.018-.072s.093-.282-.523-.19l-.115.02c-.1.02-.21.047-.339.083l-.117.036-.154.049h0a3.369,3.369,0,0,0-1.3.787,2.979,2.979,0,0,0-.436.528c-.013.018-.022.034-.032.048a1.673,1.673,0,0,0-.113.208,6.4,6.4,0,0,1-1.415,3.143l-1.381-2-.027-.04-.329-.478-.117-.154-.04-.054-.718-.964-.18-.241-.059-.081-.088-.117-.207-.275-.808.472-1.078.629-.629,4.086v.113l.02.338.131,2.22v.031l-.23.92.034.018a11.707,11.707,0,0,0,1.688.747l.153.054c.18.059.348.113.524.165a.757.757,0,0,1,.014.081v-.077a12.268,12.268,0,0,0,6.744,0l.041-.013c.1-.029.207-.059.307-.093l.163-.052a11.947,11.947,0,0,0,1.3-.521l.151-3.215.108-2.319V51.5Z" opacity="0.1"/>
        <path id="Path_155820" data-name="Path 155820" d="M-414.344,55.01a1.208,1.208,0,0,0-.013-.216c-.013-.072-.011-.135-.02-.2s-.016-.137-.025-.2-.022-.136-.034-.2-.025-.137-.04-.2a.316.316,0,0,0-.014-.068c-.02-.09-.041-.18-.065-.271s-.038-.145-.059-.217a.326.326,0,0,0-.029-.1c-.011-.031-.031-.1-.047-.156l-.032-.1q-.021-.068-.045-.135c-.027-.081-.056-.16-.084-.241s-.059-.16-.09-.239c-.061-.162-.128-.322-.194-.481-.26-.621-.553-1.234-.823-1.841a9.971,9.971,0,0,1-.384-.975l-.034.048a2.195,2.195,0,0,0-.145.259,6.411,6.411,0,0,1-1.415,3.143l-1.424-2.074-1.246,1.916a1.565,1.565,0,0,0-.5.887c-.04.126-.077.262-.113.408-.025.1-.048.2-.07.3-.013.052-.023.1-.034.158l-.032.163V54.4c-.022.111-.043.226-.063.343s-.043.251-.063.379c-.015.083-.027.166-.038.248-.025.16-.047.321-.068.481-.013.093-.025.18-.036.278l-.043.359c.092.295.194.586.3.871a1.457,1.457,0,0,1,.117.494,12.268,12.268,0,0,0,6.744,0,.054.054,0,0,1,0-.018,2.119,2.119,0,0,1-.043-.49h0a13.249,13.249,0,0,1,.18-1.374,5.065,5.065,0,0,0,.034-.675v-.081C-414.34,55.139-414.342,55.075-414.344,55.01Zm0,0a1.208,1.208,0,0,0-.013-.216c-.013-.072-.011-.135-.02-.2s-.016-.137-.025-.2-.022-.136-.034-.2-.025-.137-.04-.2a.316.316,0,0,0-.014-.068c-.02-.09-.041-.18-.065-.271s-.038-.145-.059-.217a.326.326,0,0,0-.029-.1c-.011-.031-.031-.1-.047-.156l-.032-.1q-.021-.068-.045-.135c-.027-.081-.056-.16-.084-.241s-.059-.16-.09-.239c-.061-.162-.128-.322-.194-.481-.26-.621-.553-1.234-.823-1.841a9.971,9.971,0,0,1-.384-.975l-.034.048a2.195,2.195,0,0,0-.145.259,6.411,6.411,0,0,1-1.415,3.143l-1.424-2.074-1.246,1.916a1.565,1.565,0,0,0-.5.887c-.04.126-.077.262-.113.408-.025.1-.048.2-.07.3-.013.052-.023.1-.034.158l-.032.163V54.4c-.022.111-.043.226-.063.343s-.043.251-.063.379c-.015.083-.027.166-.038.248-.025.16-.047.321-.068.481-.013.093-.025.18-.036.278l-.043.359c.092.295.194.586.3.871a1.457,1.457,0,0,1,.117.494,12.268,12.268,0,0,0,6.744,0,.054.054,0,0,1,0-.018,2.119,2.119,0,0,1-.043-.49h0a13.249,13.249,0,0,1,.18-1.374,5.065,5.065,0,0,0,.034-.675v-.081C-414.34,55.139-414.342,55.075-414.344,55.01Zm0,0a1.208,1.208,0,0,0-.013-.216c-.013-.072-.011-.135-.02-.2s-.016-.137-.025-.2-.022-.136-.034-.2-.025-.137-.04-.2a.316.316,0,0,0-.014-.068c-.02-.09-.041-.18-.065-.271s-.038-.145-.059-.217a.326.326,0,0,0-.029-.1c-.011-.031-.031-.1-.047-.156l-.032-.1q-.021-.068-.045-.135c-.027-.081-.056-.16-.084-.241s-.059-.16-.09-.239c-.061-.162-.128-.322-.194-.481-.26-.621-.553-1.234-.823-1.841a9.971,9.971,0,0,1-.384-.975l-.034.048a2.195,2.195,0,0,0-.145.259,6.411,6.411,0,0,1-1.415,3.143l-1.424-2.074-1.246,1.916a1.565,1.565,0,0,0-.5.887c-.04.126-.077.262-.113.408-.025.1-.048.2-.07.3-.013.052-.023.1-.034.158l-.032.163V54.4c-.022.111-.043.226-.063.343s-.043.251-.063.379c-.015.083-.027.166-.038.248-.025.16-.047.321-.068.481-.013.093-.025.18-.036.278l-.043.359c.092.295.194.586.3.871a1.457,1.457,0,0,1,.117.494,12.268,12.268,0,0,0,6.744,0,.054.054,0,0,1,0-.018,2.119,2.119,0,0,1-.043-.49h0a13.249,13.249,0,0,1,.18-1.374,5.065,5.065,0,0,0,.034-.675v-.081C-414.34,55.139-414.342,55.075-414.344,55.01Zm1.9-3.371-.637-2.555-.11-.438-.031-.12h0l-.156-.625v-.016h0a.144.144,0,0,0-.013-.081c-.023-.047-.083-.1-.221-.108a1.389,1.389,0,0,0-.158,0h0a2.893,2.893,0,0,0-.462.086c-.074.02-.153.041-.237.068l-.154.049h-.014a3.443,3.443,0,0,0-1.132.629,3.051,3.051,0,0,0-.575.636l-.034.048a2.195,2.195,0,0,0-.145.259,6.407,6.407,0,0,1-1.415,3.143l-1.428-2.08-.081-.117-.014-.02-.207-.3-.156-.208-.041-.054-.736-.982h0l-.233-.318v-.011l-.081-.11-.154-.2-.539.314-1.347.785-.621,4.043V53.4l.018.3.133,2.25v.128l-.2.81a11.707,11.707,0,0,0,1.688.747l.153.054c.18.059.348.113.524.165a.757.757,0,0,1,.014.081v-.077a12.268,12.268,0,0,0,6.744,0l.041-.013c.1-.029.207-.059.307-.093l.163-.052a11.946,11.946,0,0,0,1.3-.521l.149-3.211.108-2.294Zm-8.833,6.2a.757.757,0,0,1,.014.081v-.077Zm6.929-2.831a1.208,1.208,0,0,0-.013-.216c-.013-.072-.011-.135-.02-.2s-.016-.137-.025-.2-.022-.136-.034-.2-.025-.137-.04-.2a.316.316,0,0,0-.014-.068c-.02-.09-.041-.18-.065-.271s-.038-.145-.059-.217a.327.327,0,0,0-.029-.1c-.011-.031-.031-.1-.047-.156l-.032-.1q-.021-.068-.045-.135c-.027-.081-.056-.16-.084-.241s-.059-.16-.09-.239c-.061-.162-.128-.322-.194-.481-.26-.621-.553-1.234-.823-1.841a9.971,9.971,0,0,1-.384-.975l-.034.048a2.2,2.2,0,0,0-.145.259,6.411,6.411,0,0,1-1.415,3.143l-1.424-2.074-1.246,1.916a1.565,1.565,0,0,0-.5.887c-.04.126-.077.262-.113.408-.025.1-.048.2-.07.3-.013.052-.023.1-.034.158l-.032.163V54.4c-.022.111-.043.226-.063.343s-.043.251-.063.379c-.015.083-.027.166-.038.248-.025.16-.047.321-.068.481-.013.093-.025.18-.036.278l-.043.359c.092.3.194.586.3.871a1.457,1.457,0,0,1,.117.494,12.268,12.268,0,0,0,6.744,0,.054.054,0,0,1,0-.018,2.118,2.118,0,0,1-.043-.49h0a13.249,13.249,0,0,1,.18-1.374,5.071,5.071,0,0,0,.034-.675v-.081c0-.077,0-.141-.006-.206Zm0,0a1.208,1.208,0,0,0-.013-.216c-.013-.072-.011-.135-.02-.2s-.016-.137-.025-.2-.022-.136-.034-.2-.025-.137-.04-.2a.316.316,0,0,0-.014-.068c-.02-.09-.041-.18-.065-.271s-.038-.145-.059-.217a.327.327,0,0,0-.029-.1c-.011-.031-.031-.1-.047-.156l-.032-.1q-.021-.068-.045-.135c-.027-.081-.056-.16-.084-.241s-.059-.16-.09-.239c-.061-.162-.128-.322-.194-.481-.26-.621-.553-1.234-.823-1.841a9.971,9.971,0,0,1-.384-.975l-.034.048a2.2,2.2,0,0,0-.145.259,6.411,6.411,0,0,1-1.415,3.143l-1.424-2.074-1.246,1.916a1.565,1.565,0,0,0-.5.887c-.04.126-.077.262-.113.408-.025.1-.048.2-.07.3-.013.052-.023.1-.034.158l-.032.163V54.4c-.022.111-.043.226-.063.343s-.043.251-.063.379c-.015.083-.027.166-.038.248-.025.16-.047.321-.068.481-.013.093-.025.18-.036.278l-.043.359c.092.3.194.586.3.871a1.457,1.457,0,0,1,.117.494,12.268,12.268,0,0,0,6.744,0,.054.054,0,0,1,0-.018,2.118,2.118,0,0,1-.043-.49h0a13.249,13.249,0,0,1,.18-1.374,5.071,5.071,0,0,0,.034-.675v-.081c0-.077,0-.141-.006-.206Zm0,0a1.208,1.208,0,0,0-.013-.216c-.013-.072-.011-.135-.02-.2s-.016-.137-.025-.2-.022-.136-.034-.2-.025-.137-.04-.2a.316.316,0,0,0-.014-.068c-.02-.09-.041-.18-.065-.271s-.038-.145-.059-.217a.327.327,0,0,0-.029-.1c-.011-.031-.031-.1-.047-.156l-.032-.1q-.021-.068-.045-.135c-.027-.081-.056-.16-.084-.241s-.059-.16-.09-.239c-.061-.162-.128-.322-.194-.481-.26-.621-.553-1.234-.823-1.841a9.971,9.971,0,0,1-.384-.975l-.034.048a2.2,2.2,0,0,0-.145.259,6.411,6.411,0,0,1-1.415,3.143l-1.424-2.074-1.246,1.916a1.565,1.565,0,0,0-.5.887c-.04.126-.077.262-.113.408-.025.1-.048.2-.07.3-.013.052-.023.1-.034.158l-.032.163V54.4c-.022.111-.043.226-.063.343s-.043.251-.063.379c-.015.083-.027.166-.038.248-.025.16-.047.321-.068.481-.013.093-.025.18-.036.278l-.043.359c.092.3.194.586.3.871a1.457,1.457,0,0,1,.117.494,12.268,12.268,0,0,0,6.744,0,.054.054,0,0,1,0-.018,2.118,2.118,0,0,1-.043-.49h0a13.249,13.249,0,0,1,.18-1.374,5.071,5.071,0,0,0,.034-.675v-.081c0-.077,0-.141-.006-.206Zm0,0a1.208,1.208,0,0,0-.013-.216c-.013-.072-.011-.135-.02-.2s-.016-.137-.025-.2-.022-.136-.034-.2-.025-.137-.04-.2a.316.316,0,0,0-.014-.068c-.02-.09-.041-.18-.065-.271s-.038-.145-.059-.217a.327.327,0,0,0-.029-.1c-.011-.031-.031-.1-.047-.156l-.032-.1q-.021-.068-.045-.135c-.027-.081-.056-.16-.084-.241s-.059-.16-.09-.239c-.061-.162-.128-.322-.194-.481-.26-.621-.553-1.234-.823-1.841a9.971,9.971,0,0,1-.384-.975l-.034.048a2.2,2.2,0,0,0-.145.259,6.411,6.411,0,0,1-1.415,3.143l-1.424-2.074-1.246,1.916a1.565,1.565,0,0,0-.5.887c-.04.126-.077.262-.113.408-.025.1-.048.2-.07.3-.013.052-.023.1-.034.158l-.032.163V54.4c-.022.111-.043.226-.063.343s-.043.251-.063.379c-.015.083-.027.166-.038.248-.025.16-.047.321-.068.481-.013.093-.025.18-.036.278l-.043.359c.092.3.194.586.3.871a1.457,1.457,0,0,1,.117.494,12.268,12.268,0,0,0,6.744,0,.054.054,0,0,1,0-.018,2.118,2.118,0,0,1-.043-.49h0a13.249,13.249,0,0,1,.18-1.374,5.071,5.071,0,0,0,.034-.675v-.081c0-.077,0-.141-.006-.206Zm0,0a1.208,1.208,0,0,0-.013-.216c-.013-.072-.011-.135-.02-.2s-.016-.137-.025-.2-.022-.136-.034-.2-.025-.137-.04-.2a.316.316,0,0,0-.014-.068c-.02-.09-.041-.18-.065-.271s-.038-.145-.059-.217a.327.327,0,0,0-.029-.1c-.011-.031-.031-.1-.047-.156l-.032-.1q-.021-.068-.045-.135c-.027-.081-.056-.16-.084-.241s-.059-.16-.09-.239c-.061-.162-.128-.322-.194-.481-.26-.621-.553-1.234-.823-1.841a9.971,9.971,0,0,1-.384-.975l-.034.048a2.2,2.2,0,0,0-.145.259,6.411,6.411,0,0,1-1.415,3.143l-1.424-2.074-1.246,1.916a1.565,1.565,0,0,0-.5.887c-.04.126-.077.262-.113.408-.025.1-.048.2-.07.3-.013.052-.023.1-.034.158l-.032.163V54.4c-.022.111-.043.226-.063.343s-.043.251-.063.379c-.015.083-.027.166-.038.248-.025.16-.047.321-.068.481-.013.093-.025.18-.036.278l-.043.359c.092.3.194.586.3.871a1.457,1.457,0,0,1,.117.494,12.268,12.268,0,0,0,6.744,0,.054.054,0,0,1,0-.018,2.118,2.118,0,0,1-.043-.49h0a13.249,13.249,0,0,1,.18-1.374,5.071,5.071,0,0,0,.034-.675v-.081c0-.077,0-.141-.006-.206Zm0,0a1.208,1.208,0,0,0-.013-.216c-.013-.072-.011-.135-.02-.2s-.016-.137-.025-.2-.022-.136-.034-.2-.025-.137-.04-.2a.316.316,0,0,0-.014-.068c-.02-.09-.041-.18-.065-.271s-.038-.145-.059-.217a.327.327,0,0,0-.029-.1c-.011-.031-.031-.1-.047-.156l-.032-.1q-.021-.068-.045-.135c-.027-.081-.056-.16-.084-.241s-.059-.16-.09-.239c-.061-.162-.128-.322-.194-.481-.26-.621-.553-1.234-.823-1.841a9.971,9.971,0,0,1-.384-.975l-.034.048a2.2,2.2,0,0,0-.145.259,6.411,6.411,0,0,1-1.415,3.143l-1.424-2.074-1.246,1.916a1.565,1.565,0,0,0-.5.887c-.04.126-.077.262-.113.408-.025.1-.048.2-.07.3-.013.052-.023.1-.034.158l-.032.163V54.4c-.022.111-.043.226-.063.343s-.043.251-.063.379c-.015.083-.027.166-.038.248-.025.16-.047.321-.068.481-.013.093-.025.18-.036.278l-.043.359c.092.3.194.586.3.871a1.457,1.457,0,0,1,.117.494,12.268,12.268,0,0,0,6.744,0,.054.054,0,0,1,0-.018,2.118,2.118,0,0,1-.043-.49h0a13.249,13.249,0,0,1,.18-1.374,5.071,5.071,0,0,0,.034-.675v-.081c0-.077,0-.141-.006-.206Zm0,0a1.208,1.208,0,0,0-.013-.216c-.013-.072-.011-.135-.02-.2s-.016-.137-.025-.2-.022-.136-.034-.2-.025-.137-.04-.2a.316.316,0,0,0-.014-.068c-.02-.09-.041-.18-.065-.271s-.038-.145-.059-.217a.327.327,0,0,0-.029-.1c-.011-.031-.031-.1-.047-.156l-.032-.1q-.021-.068-.045-.135c-.027-.081-.056-.16-.084-.241s-.059-.16-.09-.239c-.061-.162-.128-.322-.194-.481-.26-.621-.553-1.234-.823-1.841a9.971,9.971,0,0,1-.384-.975l-.034.048a2.2,2.2,0,0,0-.145.259,6.411,6.411,0,0,1-1.415,3.143l-1.424-2.074-1.246,1.916a1.565,1.565,0,0,0-.5.887c-.04.126-.077.262-.113.408-.025.1-.048.2-.07.3-.013.052-.023.1-.034.158l-.032.163V54.4c-.022.111-.043.226-.063.343s-.043.251-.063.379c-.015.083-.027.166-.038.248-.025.16-.047.321-.068.481-.013.093-.025.18-.036.278l-.043.359c.092.3.194.586.3.871a1.457,1.457,0,0,1,.117.494,12.268,12.268,0,0,0,6.744,0,.054.054,0,0,1,0-.018,2.118,2.118,0,0,1-.043-.49h0a13.249,13.249,0,0,1,.18-1.374,5.071,5.071,0,0,0,.034-.675v-.081c0-.077,0-.141-.006-.206Zm0,0a1.208,1.208,0,0,0-.013-.216c-.013-.072-.011-.135-.02-.2s-.016-.137-.025-.2-.022-.136-.034-.2-.025-.137-.04-.2a.316.316,0,0,0-.014-.068c-.02-.09-.041-.18-.065-.271s-.038-.145-.059-.217a.327.327,0,0,0-.029-.1c-.011-.031-.031-.1-.047-.156l-.032-.1q-.021-.068-.045-.135c-.027-.081-.056-.16-.084-.241s-.059-.16-.09-.239c-.061-.162-.128-.322-.194-.481-.26-.621-.553-1.234-.823-1.841a9.971,9.971,0,0,1-.384-.975l-.034.048a2.2,2.2,0,0,0-.145.259,6.411,6.411,0,0,1-1.415,3.143l-1.424-2.074-1.246,1.916a1.565,1.565,0,0,0-.5.887c-.04.126-.077.262-.113.408-.025.1-.048.2-.07.3-.013.052-.023.1-.034.158l-.032.163V54.4c-.022.111-.043.226-.063.343s-.043.251-.063.379c-.015.083-.027.166-.038.248-.025.16-.047.321-.068.481-.013.093-.025.18-.036.278l-.043.359c.092.3.194.586.3.871a1.457,1.457,0,0,1,.117.494,12.268,12.268,0,0,0,6.744,0,.054.054,0,0,1,0-.018,2.118,2.118,0,0,1-.043-.49h0a13.249,13.249,0,0,1,.18-1.374,5.071,5.071,0,0,0,.034-.675v-.081c0-.077,0-.141-.006-.206Z" fill="#fff"/>
        <path id="Path_155821" data-name="Path 155821" d="M-419.335,50.413l-.12-.016a4.113,4.113,0,0,1-.539-.108l-.066-.018c-.438-.124-.918-.347-1.026-.738a.7.7,0,0,1,.011-.383,3.308,3.308,0,0,1,.244-.618v-.011c.014-.027.029-.055.045-.081a1.8,1.8,0,0,1,.648-.706l-.216.034-1.825.3-2.829.456s-.5-.1-1.187,1.785a.275.275,0,0,1-.023.07c-.165.462-.339,1.038-.519,1.758-.124.5-.237.99-.341,1.466q-.047.216-.09.426a11.417,11.417,0,0,0,1.043,1.078l.059.056a12.246,12.246,0,0,0,2.392,1.694l.034.018a11.709,11.709,0,0,0,1.688.747l.153.054c.032-.332.068-.7.111-1.078a.29.29,0,0,1,.014-.113l.043-.359c.011-.092.023-.18.036-.278.022-.16.043-.322.068-.481.011-.082.023-.165.038-.248.02-.128.041-.255.063-.379s.041-.232.063-.343v-.025l.032-.163c.011-.054.022-.106.034-.158.022-.1.045-.2.07-.3.036-.146.074-.282.113-.408a1.537,1.537,0,0,1,.5-.887l1.246-1.916.052-.081.023-.036Z" opacity="0.1"/>
        <path id="Path_155822" data-name="Path 155822" d="M-419.442,50.416l-1.324,2.033a1.521,1.521,0,0,0-.49.86c-.041.133-.083.278-.122.431a21.548,21.548,0,0,0-.406,2.351.28.28,0,0,1-.014.108c-.061.5-.111.99-.153,1.422a11.707,11.707,0,0,1-1.688-.747l-.034-.018a12.245,12.245,0,0,1-2.392-1.694l-.059-.056a11.427,11.427,0,0,1-1.044-1.078c-.043-.048-.084-.1-.126-.149.02-.093.04-.18.061-.28.1-.476.216-.964.339-1.462a17.864,17.864,0,0,1,.611-2.012c.007-.019.014-.038.023-.057.636-1.636,1.094-1.545,1.094-1.545l2.987-.481,1.886-.305-.059.034a1.914,1.914,0,0,0-.519.553l-.052.088c-.022.034-.041.072-.063.11a3.176,3.176,0,0,0-.248.629.662.662,0,0,0,.043.514,1.706,1.706,0,0,0,1.108.643l.07.018A4.239,4.239,0,0,0-419.442,50.416Z" fill="#444176"/>
        <path id="Path_155823" data-name="Path 155823" d="M-409.063,54.05l-.074-1.595c.314-2.514-.314-2.671-.314-2.671l-.747-.359h-.02l-3-1.457-.117-.057-.036-.016h0l-.392-.19h0l-.248-.12-.463-.224-.156-.075v.623c0,.18.016.39.031.634.032.614.092,1.437.2,2.407.059.562.135,1.176.228,1.836.056.39.1.778.12,1.157a20.3,20.3,0,0,1-.119,3.826l.163-.052a12.164,12.164,0,0,0,3.617-1.943l.032-.023a11.947,11.947,0,0,0,1.3-1.184Z" opacity="0.1"/>
        <path id="Path_155824" data-name="Path 155824" d="M-408.9,54.046l-.074-1.6c.314-2.514-.314-2.671-.314-2.671l-.9-.435h-.018l-3.014-1.462-.138-.066-.027-.013-.221-.108-.293-.142-.578-.28v.255h0v.316c0,.18.016.415.032.682.031.573.084,1.324.18,2.216.065.612.145,1.293.251,2.026q.082.588.119,1.162a20.319,20.319,0,0,1-.111,3.772,12.164,12.164,0,0,0,3.617-1.943l.032-.023a11.947,11.947,0,0,0,1.3-1.184c.053-.052.1-.106.151-.162Z" fill="#444176"/>
        <path id="Path_155825" data-name="Path 155825" d="M-421.6,37.691a2.616,2.616,0,0,0-.246.9c-.192.7-.954,1.142-1.128,1.85-.1.413.016.851-.054,1.272-.128.774-.835,1.3-1.23,1.976a2.664,2.664,0,0,0-.163,2.317,3.765,3.765,0,0,1,.228.586,2.137,2.137,0,0,1-.056.9,2.845,2.845,0,0,0,.036,1.92,1.835,1.835,0,0,0,1.345.862,5.2,5.2,0,0,0,1.647-.075,4.761,4.761,0,0,0,1.721-.5L-421.449,45a3.919,3.919,0,0,1-.4-1.478,3.251,3.251,0,0,1,.242-1.1,9.556,9.556,0,0,1,1.622-2.8c.282.327.26.824.5,1.187a1.863,1.863,0,0,0,.8.6,26.314,26.314,0,0,0,2.836,1.185.373.373,0,0,1,.323.416.371.371,0,0,1-.046.137l-.733,3.025a2.345,2.345,0,0,0,.111,1.976c.415.539,1.351.794,1.356,1.489a2.273,2.273,0,0,0,0,.33c.048.325.435.481.763.5a2.275,2.275,0,0,0,2.283-1.863c.18-1.189-.607-2.285-.936-3.443-.553-1.949.18-4.235-.907-5.947-.88-1.388-2.484-1.766-4.007-1.938C-418.714,37.147-420.851,36.7-421.6,37.691Z" opacity="0.1"/>
        <path id="Path_155826" data-name="Path 155826" d="M-421.6,37.511a2.616,2.616,0,0,0-.246.9c-.192.7-.954,1.142-1.128,1.85-.1.413.016.851-.054,1.272-.128.774-.835,1.3-1.23,1.976a2.664,2.664,0,0,0-.163,2.317,3.765,3.765,0,0,1,.228.586,2.137,2.137,0,0,1-.056.9,2.845,2.845,0,0,0,.036,1.92,1.835,1.835,0,0,0,1.345.862,5.205,5.205,0,0,0,1.647-.075,4.761,4.761,0,0,0,1.721-.5l-1.945-4.695a3.924,3.924,0,0,1-.4-1.478,3.251,3.251,0,0,1,.242-1.1,9.556,9.556,0,0,1,1.622-2.8c.282.327.26.824.5,1.187a1.863,1.863,0,0,0,.8.6,26.518,26.518,0,0,0,2.836,1.185.373.373,0,0,1,.323.416.371.371,0,0,1-.046.137l-.733,3.025a2.345,2.345,0,0,0,.111,1.976c.415.539,1.351.794,1.356,1.489a2.273,2.273,0,0,0,0,.33c.048.325.435.481.763.5a2.275,2.275,0,0,0,2.283-1.863c.18-1.189-.607-2.285-.936-3.443-.553-1.949.18-4.235-.907-5.947-.88-1.388-2.484-1.766-4.007-1.938C-418.714,36.967-420.851,36.518-421.6,37.511Z" fill="#493545"/>
      </g>
      <g id="Group_167357" data-name="Group 167357">
        <path id="Path_155827" data-name="Path 155827" d="M-405.659,89.393a12.153,12.153,0,0,1-2.94,7.948c-.093.11-.19.217-.289.323-.049.056-.1.11-.151.162a11.95,11.95,0,0,1-1.3,1.184l-.032.023a12.164,12.164,0,0,1-3.617,1.943l-.163.052c-.1.034-.2.065-.307.093l-.041.013a12.269,12.269,0,0,1-6.744,0h-.022c-.18-.052-.359-.106-.524-.165l-.153-.054a11.706,11.706,0,0,1-1.688-.747l-.034-.018a12.245,12.245,0,0,1-2.392-1.694l-.059-.056a11.412,11.412,0,0,1-1.043-1.078c-.043-.048-.084-.1-.126-.149-.079-.093-.154-.19-.23-.287a12.213,12.213,0,0,1,2.153-17.137A12.213,12.213,0,0,1-408.224,81.9a12.216,12.216,0,0,1,2.568,7.491Z" fill="#c0bccf"/>
        <path id="Path_155828" data-name="Path 155828" d="M-408.9,97.263l-.074-1.616c.314-2.556-.314-2.716-.314-2.716l-.9-.442-.018-.009L-413.224,91l-.138-.068-.018-.074s.059-.18-.239-.21a1.1,1.1,0,0,1-.075-.458,1.964,1.964,0,0,1,.494-.9,3.693,3.693,0,0,0,.591-2.617,6.157,6.157,0,0,0-1-2.529l-.057-.084a3.039,3.039,0,0,0,.106-.794c0-2.067-2.091-3.743-4.67-3.743-2.335,0-4.28,1.381-4.618,3.183a1.679,1.679,0,0,0-.142.223c-.474.887.259,1.55.282,2.435a3.148,3.148,0,0,1-.718,1.651,1.649,1.649,0,0,0-.232,1.715c.11.169.275.3.374.472.347.612-.23,1.315-.44,1.986a2.027,2.027,0,0,0-.057.239l-1.387.226s-.458-.093-1.094,1.57c-.009.02-.016.039-.023.059a18.068,18.068,0,0,0-.611,2.046q-.186.761-.339,1.485c-.022.1-.041.19-.061.286l.126.151a11.423,11.423,0,0,0,1.043,1.1l.059.057a12.178,12.178,0,0,0,2.392,1.722l.034.018a11.616,11.616,0,0,0,1.688.76l.153.054c.18.061.348.115.524.169a.84.84,0,0,1,.014.083v-.079a12.066,12.066,0,0,0,6.744,0l.041-.013c.1-.029.207-.06.307-.1l.163-.052a12.119,12.119,0,0,0,3.617-1.977l.032-.023a11.9,11.9,0,0,0,1.3-1.2c.053-.052.1-.107.151-.163Z" fill="url(#linear-gradient-2)"/>
        <path id="Path_155829" data-name="Path 155829" d="M-422.709,85.619a3.021,3.021,0,0,1-.718,1.616,1.6,1.6,0,0,0-.232,1.686c.11.165.275.293.374.465.347.6-.23,1.293-.44,1.954a2.45,2.45,0,0,0,.55,2.236,5.942,5.942,0,0,0,1.925,1.406,17.143,17.143,0,0,0,4.763,1.7,4.556,4.556,0,0,0,2.611-.117,2.777,2.777,0,0,0,1.568-3.053,17.439,17.439,0,0,0-1.257-2.6,1.211,1.211,0,0,1-.119-.562,1.9,1.9,0,0,1,.494-.88,3.591,3.591,0,0,0,.582-2.556,6,6,0,0,0-1-2.489,2.736,2.736,0,0,0-.718-.79,3.168,3.168,0,0,0-1.343-.406c-1.951-.273-3.971-.571-5.938-.672a1.275,1.275,0,0,0-1.385.672C-423.463,84.1-422.732,84.747-422.709,85.619Z" fill="#444176"/>
        <path id="Path_155830" data-name="Path 155830" d="M-412.664,91.727l-3.7,5.264-3.614-.314s-.119,1.257-1.572-3.3c-.812-2.549.839-1.663,1.164-2.369s.9-1.329.947-1.85a3.259,3.259,0,0,0-.225-1.753l3.928-.471a2.935,2.935,0,0,0-.065,1.64C-415.309,90.615-412.664,91.727-412.664,91.727Z" fill="#c77485"/>
        <ellipse id="Ellipse_2281" data-name="Ellipse 2281" cx="4.67" cy="3.682" rx="4.67" ry="3.682" transform="translate(-422.901 79.875)" fill="#444176"/>
        <path id="Path_155831" data-name="Path 155831" d="M-415.8,88.573a3.925,3.925,0,0,1-3.639.586,3.259,3.259,0,0,0-.225-1.753l3.928-.471A2.928,2.928,0,0,0-415.8,88.573Z" opacity="0.1"/>
        <circle id="Ellipse_2282" data-name="Ellipse 2282" cx="3.928" cy="3.928" r="3.928" transform="translate(-422.1 81.357)" fill="#c77485"/>
        <path id="Path_155832" data-name="Path 155832" d="M-413.051,92.323l-.092-.359-.079-.316-.117-.467-.022-.086-.018-.072s.093-.282-.523-.19l-.115.02c-.1.02-.21.047-.339.083l-.117.036-.154.048h0a3.369,3.369,0,0,0-1.3.787,2.979,2.979,0,0,0-.436.528c-.013.018-.022.034-.032.049a1.81,1.81,0,0,0-.113.208,6.4,6.4,0,0,1-1.415,3.143l-1.381-2-.027-.04-.329-.478-.117-.154-.04-.054-.718-.964-.18-.241-.059-.081-.088-.117-.207-.275-.808.472-1.078.629-.629,4.086v.113l.02.338.131,2.22v.031l-.23.92.034.018a11.707,11.707,0,0,0,1.688.747l.153.054c.18.059.348.113.524.165a.757.757,0,0,1,.014.081v-.077a12.268,12.268,0,0,0,6.744,0l.041-.013c.1-.029.207-.059.307-.093l.163-.052a11.946,11.946,0,0,0,1.3-.521l.151-3.215.108-2.319v-.133Z" opacity="0.1"/>
        <path id="Path_155833" data-name="Path 155833" d="M-414.344,98.295a1.208,1.208,0,0,0-.013-.216c-.013-.072-.011-.135-.02-.2s-.016-.136-.025-.2-.022-.136-.034-.2-.025-.136-.04-.2a.316.316,0,0,0-.014-.068c-.02-.09-.041-.18-.065-.271s-.038-.146-.059-.217a.326.326,0,0,0-.029-.1c-.011-.031-.031-.1-.047-.156l-.032-.1q-.021-.067-.045-.135c-.027-.081-.056-.16-.084-.241s-.059-.16-.09-.239c-.061-.162-.128-.321-.194-.481-.26-.621-.553-1.234-.823-1.841a9.971,9.971,0,0,1-.384-.975l-.034.049a2.2,2.2,0,0,0-.145.259,6.411,6.411,0,0,1-1.415,3.143l-1.424-2.074-1.246,1.916a1.565,1.565,0,0,0-.5.887c-.04.126-.077.262-.113.408-.025.1-.048.2-.07.3-.013.052-.023.1-.034.158l-.032.163v.025c-.022.112-.043.226-.063.343s-.043.251-.063.38c-.015.082-.027.165-.038.248-.025.159-.047.32-.068.481-.013.093-.025.18-.036.278l-.043.359c.092.295.194.586.3.871a1.446,1.446,0,0,1,.117.494,12.287,12.287,0,0,0,6.744,0,.054.054,0,0,1,0-.018,2.128,2.128,0,0,1-.043-.49h0a13.213,13.213,0,0,1,.18-1.374,5.074,5.074,0,0,0,.034-.675V98.5C-414.34,98.424-414.342,98.36-414.344,98.295Zm0,0a1.208,1.208,0,0,0-.013-.216c-.013-.072-.011-.135-.02-.2s-.016-.136-.025-.2-.022-.136-.034-.2-.025-.136-.04-.2a.316.316,0,0,0-.014-.068c-.02-.09-.041-.18-.065-.271s-.038-.146-.059-.217a.326.326,0,0,0-.029-.1c-.011-.031-.031-.1-.047-.156l-.032-.1q-.021-.067-.045-.135c-.027-.081-.056-.16-.084-.241s-.059-.16-.09-.239c-.061-.162-.128-.321-.194-.481-.26-.621-.553-1.234-.823-1.841a9.971,9.971,0,0,1-.384-.975l-.034.049a2.2,2.2,0,0,0-.145.259,6.411,6.411,0,0,1-1.415,3.143l-1.424-2.074-1.246,1.916a1.565,1.565,0,0,0-.5.887c-.04.126-.077.262-.113.408-.025.1-.048.2-.07.3-.013.052-.023.1-.034.158l-.032.163v.025c-.022.112-.043.226-.063.343s-.043.251-.063.38c-.015.082-.027.165-.038.248-.025.159-.047.32-.068.481-.013.093-.025.18-.036.278l-.043.359c.092.295.194.586.3.871a1.446,1.446,0,0,1,.117.494,12.287,12.287,0,0,0,6.744,0,.054.054,0,0,1,0-.018,2.128,2.128,0,0,1-.043-.49h0a13.213,13.213,0,0,1,.18-1.374,5.074,5.074,0,0,0,.034-.675V98.5C-414.34,98.424-414.342,98.36-414.344,98.295Zm0,0a1.208,1.208,0,0,0-.013-.216c-.013-.072-.011-.135-.02-.2s-.016-.136-.025-.2-.022-.136-.034-.2-.025-.136-.04-.2a.316.316,0,0,0-.014-.068c-.02-.09-.041-.18-.065-.271s-.038-.146-.059-.217a.326.326,0,0,0-.029-.1c-.011-.031-.031-.1-.047-.156l-.032-.1q-.021-.067-.045-.135c-.027-.081-.056-.16-.084-.241s-.059-.16-.09-.239c-.061-.162-.128-.321-.194-.481-.26-.621-.553-1.234-.823-1.841a9.971,9.971,0,0,1-.384-.975l-.034.049a2.2,2.2,0,0,0-.145.259,6.411,6.411,0,0,1-1.415,3.143l-1.424-2.074-1.246,1.916a1.565,1.565,0,0,0-.5.887c-.04.126-.077.262-.113.408-.025.1-.048.2-.07.3-.013.052-.023.1-.034.158l-.032.163v.025c-.022.112-.043.226-.063.343s-.043.251-.063.38c-.015.082-.027.165-.038.248-.025.159-.047.32-.068.481-.013.093-.025.18-.036.278l-.043.359c.092.295.194.586.3.871a1.446,1.446,0,0,1,.117.494,12.287,12.287,0,0,0,6.744,0,.054.054,0,0,1,0-.018,2.128,2.128,0,0,1-.043-.49h0a13.213,13.213,0,0,1,.18-1.374,5.074,5.074,0,0,0,.034-.675V98.5C-414.34,98.424-414.342,98.36-414.344,98.295Zm1.9-3.371-.637-2.555-.11-.438-.031-.12h0l-.156-.625V91.17h0a.144.144,0,0,0-.013-.081c-.023-.047-.083-.1-.221-.108a1.385,1.385,0,0,0-.158,0h0a2.892,2.892,0,0,0-.462.086c-.074.02-.153.041-.237.068l-.154.048h-.014a3.443,3.443,0,0,0-1.132.629,3.051,3.051,0,0,0-.575.636l-.034.049a2.2,2.2,0,0,0-.145.259,6.407,6.407,0,0,1-1.415,3.143l-1.428-2.08-.081-.117-.014-.02-.207-.3-.156-.208-.041-.054-.736-.982h0l-.233-.318v-.011l-.081-.11-.154-.2-.539.314-1.347.785-.621,4.043v.043l.018.295.133,2.25v.128l-.2.81a11.707,11.707,0,0,0,1.688.747l.153.054c.18.059.348.113.524.165a.757.757,0,0,1,.014.081v-.077a12.268,12.268,0,0,0,6.744,0l.041-.013c.1-.029.207-.059.307-.093l.163-.052a11.946,11.946,0,0,0,1.3-.521l.149-3.211.108-2.294Zm-8.833,6.2a.757.757,0,0,1,.014.081v-.077Zm6.929-2.831a1.208,1.208,0,0,0-.013-.216c-.013-.072-.011-.135-.02-.2s-.016-.136-.025-.2-.022-.136-.034-.2-.025-.136-.04-.2a.316.316,0,0,0-.014-.068c-.02-.09-.041-.18-.065-.271s-.038-.146-.059-.217a.326.326,0,0,0-.029-.1c-.011-.031-.031-.1-.047-.156l-.032-.1q-.021-.067-.045-.135c-.027-.081-.056-.16-.084-.241s-.059-.16-.09-.239c-.061-.162-.128-.321-.194-.481-.26-.621-.553-1.234-.823-1.841a9.971,9.971,0,0,1-.384-.975l-.034.049a2.194,2.194,0,0,0-.145.259A6.407,6.407,0,0,1-417.94,95.9l-1.424-2.074-1.246,1.916a1.565,1.565,0,0,0-.5.887c-.04.126-.077.262-.113.408-.025.1-.048.2-.07.3-.013.052-.023.1-.034.158l-.032.164v.025c-.022.111-.043.226-.063.343s-.043.251-.063.379c-.015.082-.027.165-.038.248-.025.16-.047.321-.068.481-.013.093-.025.18-.036.278l-.043.359c.092.295.194.586.3.871a1.446,1.446,0,0,1,.117.494,12.287,12.287,0,0,0,6.744,0,.054.054,0,0,1,0-.018,2.128,2.128,0,0,1-.043-.49h0a13.213,13.213,0,0,1,.18-1.374,5.079,5.079,0,0,0,.034-.675V98.5c0-.079,0-.143-.006-.208Zm0,0a1.208,1.208,0,0,0-.013-.216c-.013-.072-.011-.135-.02-.2s-.016-.136-.025-.2-.022-.136-.034-.2-.025-.136-.04-.2a.316.316,0,0,0-.014-.068c-.02-.09-.041-.18-.065-.271s-.038-.146-.059-.217a.326.326,0,0,0-.029-.1c-.011-.031-.031-.1-.047-.156l-.032-.1q-.021-.067-.045-.135c-.027-.081-.056-.16-.084-.241s-.059-.16-.09-.239c-.061-.162-.128-.321-.194-.481-.26-.621-.553-1.234-.823-1.841a9.971,9.971,0,0,1-.384-.975l-.034.049a2.194,2.194,0,0,0-.145.259A6.407,6.407,0,0,1-417.94,95.9l-1.424-2.074-1.246,1.916a1.565,1.565,0,0,0-.5.887c-.04.126-.077.262-.113.408-.025.1-.048.2-.07.3-.013.052-.023.1-.034.158l-.032.164v.025c-.022.111-.043.226-.063.343s-.043.251-.063.379c-.015.082-.027.165-.038.248-.025.16-.047.321-.068.481-.013.093-.025.18-.036.278l-.043.359c.092.295.194.586.3.871a1.446,1.446,0,0,1,.117.494,12.287,12.287,0,0,0,6.744,0,.054.054,0,0,1,0-.018,2.128,2.128,0,0,1-.043-.49h0a13.213,13.213,0,0,1,.18-1.374,5.079,5.079,0,0,0,.034-.675V98.5c0-.079,0-.143-.006-.208Zm0,0a1.208,1.208,0,0,0-.013-.216c-.013-.072-.011-.135-.02-.2s-.016-.136-.025-.2-.022-.136-.034-.2-.025-.136-.04-.2a.316.316,0,0,0-.014-.068c-.02-.09-.041-.18-.065-.271s-.038-.146-.059-.217a.326.326,0,0,0-.029-.1c-.011-.031-.031-.1-.047-.156l-.032-.1q-.021-.067-.045-.135c-.027-.081-.056-.16-.084-.241s-.059-.16-.09-.239c-.061-.162-.128-.321-.194-.481-.26-.621-.553-1.234-.823-1.841a9.971,9.971,0,0,1-.384-.975l-.034.049a2.194,2.194,0,0,0-.145.259A6.407,6.407,0,0,1-417.94,95.9l-1.424-2.074-1.246,1.916a1.565,1.565,0,0,0-.5.887c-.04.126-.077.262-.113.408-.025.1-.048.2-.07.3-.013.052-.023.1-.034.158l-.032.164v.025c-.022.111-.043.226-.063.343s-.043.251-.063.379c-.015.082-.027.165-.038.248-.025.16-.047.321-.068.481-.013.093-.025.18-.036.278l-.043.359c.092.295.194.586.3.871a1.446,1.446,0,0,1,.117.494,12.287,12.287,0,0,0,6.744,0,.054.054,0,0,1,0-.018,2.128,2.128,0,0,1-.043-.49h0a13.213,13.213,0,0,1,.18-1.374,5.079,5.079,0,0,0,.034-.675V98.5c0-.079,0-.143-.006-.208Zm0,0a1.208,1.208,0,0,0-.013-.216c-.013-.072-.011-.135-.02-.2s-.016-.136-.025-.2-.022-.136-.034-.2-.025-.136-.04-.2a.316.316,0,0,0-.014-.068c-.02-.09-.041-.18-.065-.271s-.038-.146-.059-.217a.326.326,0,0,0-.029-.1c-.011-.031-.031-.1-.047-.156l-.032-.1q-.021-.067-.045-.135c-.027-.081-.056-.16-.084-.241s-.059-.16-.09-.239c-.061-.162-.128-.321-.194-.481-.26-.621-.553-1.234-.823-1.841a9.971,9.971,0,0,1-.384-.975l-.034.049a2.194,2.194,0,0,0-.145.259A6.407,6.407,0,0,1-417.94,95.9l-1.424-2.074-1.246,1.916a1.565,1.565,0,0,0-.5.887c-.04.126-.077.262-.113.408-.025.1-.048.2-.07.3-.013.052-.023.1-.034.158l-.032.164v.025c-.022.111-.043.226-.063.343s-.043.251-.063.379c-.015.082-.027.165-.038.248-.025.16-.047.321-.068.481-.013.093-.025.18-.036.278l-.043.359c.092.295.194.586.3.871a1.446,1.446,0,0,1,.117.494,12.287,12.287,0,0,0,6.744,0,.054.054,0,0,1,0-.018,2.128,2.128,0,0,1-.043-.49h0a13.213,13.213,0,0,1,.18-1.374,5.079,5.079,0,0,0,.034-.675V98.5c0-.079,0-.143-.006-.208Zm0,0a1.208,1.208,0,0,0-.013-.216c-.013-.072-.011-.135-.02-.2s-.016-.136-.025-.2-.022-.136-.034-.2-.025-.136-.04-.2a.316.316,0,0,0-.014-.068c-.02-.09-.041-.18-.065-.271s-.038-.146-.059-.217a.326.326,0,0,0-.029-.1c-.011-.031-.031-.1-.047-.156l-.032-.1q-.021-.067-.045-.135c-.027-.081-.056-.16-.084-.241s-.059-.16-.09-.239c-.061-.162-.128-.321-.194-.481-.26-.621-.553-1.234-.823-1.841a9.971,9.971,0,0,1-.384-.975l-.034.049a2.194,2.194,0,0,0-.145.259A6.407,6.407,0,0,1-417.94,95.9l-1.424-2.074-1.246,1.916a1.565,1.565,0,0,0-.5.887c-.04.126-.077.262-.113.408-.025.1-.048.2-.07.3-.013.052-.023.1-.034.158l-.032.164v.025c-.022.111-.043.226-.063.343s-.043.251-.063.379c-.015.082-.027.165-.038.248-.025.16-.047.321-.068.481-.013.093-.025.18-.036.278l-.043.359c.092.295.194.586.3.871a1.446,1.446,0,0,1,.117.494,12.287,12.287,0,0,0,6.744,0,.054.054,0,0,1,0-.018,2.128,2.128,0,0,1-.043-.49h0a13.213,13.213,0,0,1,.18-1.374,5.079,5.079,0,0,0,.034-.675V98.5c0-.079,0-.143-.006-.208Zm0,0a1.208,1.208,0,0,0-.013-.216c-.013-.072-.011-.135-.02-.2s-.016-.136-.025-.2-.022-.136-.034-.2-.025-.136-.04-.2a.316.316,0,0,0-.014-.068c-.02-.09-.041-.18-.065-.271s-.038-.146-.059-.217a.326.326,0,0,0-.029-.1c-.011-.031-.031-.1-.047-.156l-.032-.1q-.021-.067-.045-.135c-.027-.081-.056-.16-.084-.241s-.059-.16-.09-.239c-.061-.162-.128-.321-.194-.481-.26-.621-.553-1.234-.823-1.841a9.971,9.971,0,0,1-.384-.975l-.034.049a2.194,2.194,0,0,0-.145.259A6.407,6.407,0,0,1-417.94,95.9l-1.424-2.074-1.246,1.916a1.565,1.565,0,0,0-.5.887c-.04.126-.077.262-.113.408-.025.1-.048.2-.07.3-.013.052-.023.1-.034.158l-.032.164v.025c-.022.111-.043.226-.063.343s-.043.251-.063.379c-.015.082-.027.165-.038.248-.025.16-.047.321-.068.481-.013.093-.025.18-.036.278l-.043.359c.092.295.194.586.3.871a1.446,1.446,0,0,1,.117.494,12.287,12.287,0,0,0,6.744,0,.054.054,0,0,1,0-.018,2.128,2.128,0,0,1-.043-.49h0a13.213,13.213,0,0,1,.18-1.374,5.079,5.079,0,0,0,.034-.675V98.5c0-.079,0-.143-.006-.208Zm0,0a1.208,1.208,0,0,0-.013-.216c-.013-.072-.011-.135-.02-.2s-.016-.136-.025-.2-.022-.136-.034-.2-.025-.136-.04-.2a.316.316,0,0,0-.014-.068c-.02-.09-.041-.18-.065-.271s-.038-.146-.059-.217a.326.326,0,0,0-.029-.1c-.011-.031-.031-.1-.047-.156l-.032-.1q-.021-.067-.045-.135c-.027-.081-.056-.16-.084-.241s-.059-.16-.09-.239c-.061-.162-.128-.321-.194-.481-.26-.621-.553-1.234-.823-1.841a9.971,9.971,0,0,1-.384-.975l-.034.049a2.194,2.194,0,0,0-.145.259A6.407,6.407,0,0,1-417.94,95.9l-1.424-2.074-1.246,1.916a1.565,1.565,0,0,0-.5.887c-.04.126-.077.262-.113.408-.025.1-.048.2-.07.3-.013.052-.023.1-.034.158l-.032.164v.025c-.022.111-.043.226-.063.343s-.043.251-.063.379c-.015.082-.027.165-.038.248-.025.16-.047.321-.068.481-.013.093-.025.18-.036.278l-.043.359c.092.295.194.586.3.871a1.446,1.446,0,0,1,.117.494,12.287,12.287,0,0,0,6.744,0,.054.054,0,0,1,0-.018,2.128,2.128,0,0,1-.043-.49h0a13.213,13.213,0,0,1,.18-1.374,5.079,5.079,0,0,0,.034-.675V98.5c0-.079,0-.143-.006-.208Zm0,0a1.208,1.208,0,0,0-.013-.216c-.013-.072-.011-.135-.02-.2s-.016-.136-.025-.2-.022-.136-.034-.2-.025-.136-.04-.2a.316.316,0,0,0-.014-.068c-.02-.09-.041-.18-.065-.271s-.038-.146-.059-.217a.326.326,0,0,0-.029-.1c-.011-.031-.031-.1-.047-.156l-.032-.1q-.021-.067-.045-.135c-.027-.081-.056-.16-.084-.241s-.059-.16-.09-.239c-.061-.162-.128-.321-.194-.481-.26-.621-.553-1.234-.823-1.841a9.971,9.971,0,0,1-.384-.975l-.034.049a2.194,2.194,0,0,0-.145.259A6.407,6.407,0,0,1-417.94,95.9l-1.424-2.074-1.246,1.916a1.565,1.565,0,0,0-.5.887c-.04.126-.077.262-.113.408-.025.1-.048.2-.07.3-.013.052-.023.1-.034.158l-.032.164v.025c-.022.111-.043.226-.063.343s-.043.251-.063.379c-.015.082-.027.165-.038.248-.025.16-.047.321-.068.481-.013.093-.025.18-.036.278l-.043.359c.092.295.194.586.3.871a1.446,1.446,0,0,1,.117.494,12.287,12.287,0,0,0,6.744,0,.054.054,0,0,1,0-.018,2.128,2.128,0,0,1-.043-.49h0a13.213,13.213,0,0,1,.18-1.374,5.079,5.079,0,0,0,.034-.675V98.5c0-.079,0-.143-.006-.208Z" fill="#444176"/>
        <path id="Path_155834" data-name="Path 155834" d="M-419.335,93.7l-.12-.016a4.113,4.113,0,0,1-.539-.108l-.066-.018c-.438-.124-.918-.347-1.026-.738a.7.7,0,0,1,.011-.383,3.308,3.308,0,0,1,.244-.618v-.011a.819.819,0,0,1,.045-.081,1.8,1.8,0,0,1,.648-.706l-.216.034-1.825.3-2.829.456s-.5-.1-1.187,1.785a.275.275,0,0,1-.023.07c-.165.462-.339,1.038-.519,1.758-.124.5-.237.99-.341,1.466q-.047.216-.09.426a11.417,11.417,0,0,0,1.043,1.078l.059.057a12.241,12.241,0,0,0,2.392,1.693l.034.018a11.708,11.708,0,0,0,1.688.747l.153.055c.032-.332.068-.7.111-1.078a.286.286,0,0,1,.014-.113l.043-.359c.011-.092.023-.18.036-.278.022-.16.043-.321.068-.482.011-.082.023-.165.038-.247.02-.128.041-.255.063-.38s.041-.232.063-.343v-.025l.032-.163c.011-.054.022-.106.034-.158.022-.1.045-.2.07-.3.036-.146.074-.282.113-.408a1.537,1.537,0,0,1,.5-.887l1.246-1.916.052-.081.023-.036Z" opacity="0.1"/>
        <path id="Path_155835" data-name="Path 155835" d="M-419.442,93.7l-1.324,2.033a1.521,1.521,0,0,0-.49.86c-.041.133-.083.278-.122.431a21.548,21.548,0,0,0-.406,2.351.28.28,0,0,1-.014.108c-.061.5-.111.99-.153,1.422a11.706,11.706,0,0,1-1.688-.747l-.034-.018a12.245,12.245,0,0,1-2.392-1.694l-.059-.056a11.428,11.428,0,0,1-1.044-1.078c-.043-.049-.084-.1-.126-.149.02-.093.04-.18.061-.28.1-.476.216-.964.339-1.462a17.864,17.864,0,0,1,.611-2.012c.007-.019.014-.038.023-.057.636-1.636,1.094-1.545,1.094-1.545l2.987-.481,1.886-.305-.059.034a1.914,1.914,0,0,0-.519.553l-.052.088c-.022.034-.041.072-.063.11a3.177,3.177,0,0,0-.248.629.662.662,0,0,0,.043.514,1.706,1.706,0,0,0,1.108.643l.07.018A4.238,4.238,0,0,0-419.442,93.7Z" fill="#f1d2d7"/>
        <path id="Path_155836" data-name="Path 155836" d="M-409.063,97.335l-.074-1.6c.314-2.514-.314-2.671-.314-2.671l-.747-.359h-.02l-3-1.457-.117-.057-.036-.016h0l-.392-.19h0l-.248-.12-.463-.224-.156-.075v.623c0,.18.016.39.031.634.032.614.092,1.437.2,2.407.059.562.135,1.176.228,1.836.056.39.1.778.12,1.157a20.3,20.3,0,0,1-.119,3.826l.163-.052a12.164,12.164,0,0,0,3.617-1.943l.032-.023a11.947,11.947,0,0,0,1.3-1.184Z" opacity="0.1"/>
        <path id="Path_155837" data-name="Path 155837" d="M-408.9,97.331l-.074-1.6c.314-2.514-.314-2.671-.314-2.671l-.9-.435h-.018l-3.014-1.462-.138-.066-.027-.013-.221-.108-.293-.142-.578-.28v.255h0v.316c0,.18.016.415.032.682.031.573.084,1.324.18,2.216.065.612.145,1.293.251,2.026q.082.588.119,1.162a20.319,20.319,0,0,1-.111,3.772,12.164,12.164,0,0,0,3.617-1.943l.032-.023a11.947,11.947,0,0,0,1.3-1.184c.053-.052.1-.106.151-.162Z" fill="#f1d2d7"/>
        <path id="Path_155838" data-name="Path 155838" d="M-419.035,84.135a4.508,4.508,0,0,1,1.681-.18,5.523,5.523,0,0,1,1.284.623,3.311,3.311,0,0,0,1.325.35.775.775,0,0,0,.487-.1.752.752,0,0,0,.217-.74,4.253,4.253,0,0,0-1.078-2.019,3.972,3.972,0,0,0-.675-.684,3.569,3.569,0,0,0-2.3-.521,5.768,5.768,0,0,0-2.631.675c-.539.309-1.775,1.282-1.345,1.986C-421.616,84.268-419.741,84.254-419.035,84.135Z" opacity="0.1"/>
        <path id="Path_155839" data-name="Path 155839" d="M-419.035,83.956a4.487,4.487,0,0,1,1.681-.18,5.523,5.523,0,0,1,1.284.623,3.312,3.312,0,0,0,1.326.35.775.775,0,0,0,.487-.1.755.755,0,0,0,.217-.74,4.253,4.253,0,0,0-1.078-2.019,3.971,3.971,0,0,0-.675-.684,3.569,3.569,0,0,0-2.3-.521,5.768,5.768,0,0,0-2.631.675c-.539.309-1.775,1.282-1.345,1.986C-421.616,84.089-419.741,84.075-419.035,83.956Z" fill="#444176"/>
      </g>
      <path id="Path_155840" data-name="Path 155840" d="M-369.715,75.161h.027a4.834,4.834,0,0,0,.539,2.594c.783.718,4.03-.718,3.808-1.588-.045-.18-.12-.474-.216-.846a2.527,2.527,0,0,0,1.924-.873l.564,1.739.04.124h.043c.372,3.524,1.214,10.841,1.888,11.822.9,1.3,1.931,6.926,1.931,6.926l1.931,11.543s.744,6.645,1.189,7.364a.828.828,0,0,0,.489.253,7.065,7.065,0,0,1-1.078,2.2c-.9,1.009-2.08,3.03-3.12,2.886s-1.336,2.021.594,2.308a15.919,15.919,0,0,0,4.082-.239,1.461,1.461,0,0,0,1.414,1.394c1.931.289,5.941-.577,5.941-.577s3.412-1.437,3.565-2.453a32.17,32.17,0,0,0-.706-5.243c.539-.864-.036-8.319-.036-8.319l-1.04-14.284s.594-7.935,0-9.379c-.372-.9-.51-5.029-.562-7.983l.718.047a1.225,1.225,0,0,0,.111-.156l.18.013a2.385,2.385,0,0,0,.149-2.6c-.551-1.18-.447-6.507-.359-9.16h0l.106-1.257a.344.344,0,0,0,.088-.137,13.18,13.18,0,0,0,4.011-1.214,4.057,4.057,0,0,0,1.052-.639c.744-.718.3-5.05-1.189-11.543s-2.822-5.916-2.822-5.916-3.565-.289-5.2-2.453-2.732-2.135-2.732-2.135h0c-.041-.284-.07-.551-.09-.8,0-.093-.014-.18-.02-.273a4.737,4.737,0,0,0,1.236-1.873,9.225,9.225,0,0,0,1.065-.465,1.23,1.23,0,0,0,.221-.2,1.814,1.814,0,0,0,.573-1.13,4.617,4.617,0,0,0-.066-1.417,3.434,3.434,0,0,0-2.267-3.111q-2.356-1.236-4.725-2.45a2.625,2.625,0,0,0-1.011-.359,2.706,2.706,0,0,0-1.71.808,7.3,7.3,0,0,0-.584.512,3.352,3.352,0,0,0-.429.462,4.428,4.428,0,0,0-.587,3.3.451.451,0,0,0,.48.4,4.639,4.639,0,0,0-.494,2.083,4.722,4.722,0,0,0,2.193,3.967c0,.1,0,.2.009.3a10.622,10.622,0,0,1-.036,1.1s-3.951,2.135-4.4,3.145a4.694,4.694,0,0,1-2.08,1.731s-3.12,1.588-3.12,7.215l-1.634,7.935-.3,15.15s.2-.18.539-.435c-.011.1-.02.2-.029.311a16.842,16.842,0,0,0-.045,1.74Zm19.954,39.21c-.061.232-.151.539-.264.9-.05-.3-.1-.593-.151-.873.13-.015.268-.022.416-.028Z" fill="url(#linear-gradient-3)"/>
      <path id="Path_155841" data-name="Path 155841" d="M-355.157,112.509a10.958,10.958,0,0,1-1.437,3.576c-.864,1-2,3-2.994,2.861s-1.288,2,.573,2.288a22.184,22.184,0,0,0,5.713-.571s3.29-1.437,3.432-2.432a45.556,45.556,0,0,0-.859-6.151Z" fill="#53526b"/>
      <path id="Path_155842" data-name="Path 155842" d="M-355.157,112.509a10.958,10.958,0,0,1-1.437,3.576c-.864,1-2,3-2.994,2.861s-1.288,2,.573,2.288a22.184,22.184,0,0,0,5.713-.571s3.29-1.437,3.432-2.432a45.556,45.556,0,0,0-.859-6.151Z" opacity="0.05"/>
      <path id="Path_155843" data-name="Path 155843" d="M-349.863,113.653a10.937,10.937,0,0,1-1.437,3.576c-.864,1-2,3-3,2.861s-1.288,2,.573,2.288a22.21,22.21,0,0,0,5.722-.573s3.29-1.437,3.432-2.432a45.556,45.556,0,0,0-.859-6.151Z" fill="#53526b"/>
      <path id="Path_155844" data-name="Path 155844" d="M-362.881,74.462s1.144,12.3,2,13.589,1.859,6.866,1.859,6.866l1.859,11.443s.718,6.581,1.144,7.3,5.735.408,5.735.408l-3.3-37.886Z" fill="#5f5d7e"/>
      <path id="Path_155845" data-name="Path 155845" d="M-362.881,74.462s1.144,12.3,2,13.589,1.859,6.866,1.859,6.866l1.859,11.443s.718,6.581,1.144,7.3,5.735.408,5.735.408l-3.3-37.886Z" opacity="0.05"/>
      <path id="Path_155846" data-name="Path 155846" d="M-365.169,68.594l.374,1.187,2.021,6.414.039.122h.011c.271.061,6,1.378,7.233,1.782a2,2,0,0,1,.2.074c.573.286,1.288,10.584,1.288,10.584s.429,9.727.718,10.442,1.437,15.446,2.146,15.019,5.864,0,5.864,0c.573-.573,0-8.3,0-8.3l-1.017-14.158s.573-7.867,0-9.3-.573-11.013-.573-11.013l-11.708-1.83-1.131-.18Z" fill="#5f5d7e"/>
      <path id="Path_155847" data-name="Path 155847" d="M-364.8,69.783l2.021,6.414.048.126c.271.061,6,1.378,7.233,1.782h.124l-3.2-8.481-.092-.244-1.04.066Z" opacity="0.02"/>
      <path id="Path_155848" data-name="Path 155848" d="M-351.436,39.988s-5.293,5.722-8.583,1l-3.147,2.146.573,3.29-1.861,24.889a29.029,29.029,0,0,1,8.3,1,5.321,5.321,0,0,0,5.578-1.288l-.566-21.883,1.288-6.723Z" opacity="0.1"/>
      <path id="Path_155849" data-name="Path 155849" d="M-351.436,39.559s-5.293,5.722-8.583,1l-3.147,2.146.573,3.29-1.861,24.889a29.029,29.029,0,0,1,8.3,1,5.321,5.321,0,0,0,5.578-1.288l-.566-21.883,1.288-6.723Z" fill="#53526b"/>
      <g id="TESLA">
        <g id="g8">
          <path id="polyline10" d="M-362,65.041v.9h-.287v-.6h-1.051v.6h-.289v-.9H-362" fill="#e82127"/>
          <path id="path12" d="M-362.259,64.75h-1.11a.409.409,0,0,1-.3-.3h1.712a.41.41,0,0,1-.3.3" fill="#e82127"/>
        </g>
        <g id="g30">
          <path id="path32" d="M-352.223,64.463a.415.415,0,0,1-.3.3h-.467l-.023.009V65.95h-.287V64.772l-.027-.009h-.467a.42.42,0,0,1-.3-.3h1.871" fill="#e82127"/>
        </g>
      </g>
      <path id="Path_155850" data-name="Path 155850" d="M-362.451,69.169s0,3.72-.859,5.293-5.864.718-5.864.718l1-5.293Z" fill="#d6dbe6"/>
      <path id="Path_155851" data-name="Path 155851" d="M-368.63,77.754c.754.718,3.881-.718,3.666-1.573-.151-.605-.679-2.771-.979-4l-.208-.864s-1.832-.573-2.479,0a4.077,4.077,0,0,0-.478,2.021C-369.241,75.06-369.106,77.3-368.63,77.754Z" fill="#fdc2cc"/>
      <path id="Path_155852" data-name="Path 155852" d="M-361.742,42.133l5.006,3.861s7.437-.429,5.579-4.005a13.317,13.317,0,0,1-1.437-5.054,10.475,10.475,0,0,1,0-1.956s-6.866-6.286-6.008.858a16.319,16.319,0,0,1,.119,1.652C-358.382,42.853-361.742,42.133-361.742,42.133Z" fill="#fdc2cc"/>
      <path id="Path_155853" data-name="Path 155853" d="M-358.588,35.839a16.032,16.032,0,0,1,.119,1.652,4.679,4.679,0,0,0,2.6.779c1.281,0,2.224-1.246,3.075-2.074-.1-1.187.214-1.216.214-1.216S-359.447,28.688-358.588,35.839Z" opacity="0.1"/>
      <circle id="Ellipse_2283" data-name="Ellipse 2283" cx="4.72" cy="4.72" r="4.72" transform="translate(-360.591 28.546)" fill="#fdc2cc"/>
      <path id="Path_155854" data-name="Path 155854" d="M-352.511,37.77s.787.072,2.36,2.216,5.006,2.432,5.006,2.432,1.288-.573,2.717,5.864,1.859,10.728,1.144,11.443a10.411,10.411,0,0,1-5.013,1.719s-.429,9.011.286,10.584a2.438,2.438,0,0,1-.144,2.576l-6.286-.429a14.952,14.952,0,0,1-2.576-7.437c-.429-4.72-1.859-18.167-1.144-19.74s3.862-5.579,3.72-6.008A25.818,25.818,0,0,1-352.511,37.77Z" opacity="0.1"/>
      <path id="Path_155855" data-name="Path 155855" d="M-352.494,37.727s1.058-.029,2.631,2.118,5,2.432,5,2.432,1.288-.573,2.717,5.864,1.859,10.728,1.144,11.443a10.4,10.4,0,0,1-5.006,1.717s-.429,9.011.286,10.584a2.438,2.438,0,0,1-.144,2.576l-6.286-.429a14.962,14.962,0,0,1-2.576-7.437c-.429-4.72-1.862-18.165-1.148-19.731s3.862-5.579,3.72-6.008S-352.494,37.727-352.494,37.727Z" fill="#d6dbe6"/>
      <path id="Path_155856" data-name="Path 155856" d="M-369.106,73.335a4.7,4.7,0,0,1,3.165-1.157l-.208-.864s-1.832-.573-2.479,0A4.009,4.009,0,0,0-369.106,73.335Z" opacity="0.1"/>
      <path id="Path_155857" data-name="Path 155857" d="M-358.509,38.629s-3.648,2.36-4.077,3.362a4.553,4.553,0,0,1-2,1.717s-3,1.573-3,7.152l-1.573,7.867,7.152,10.013s.858-10.013,1.288-12.445,1-7,1-7,2.146-2.717,1.859-3.432S-358.509,38.629-358.509,38.629Z" opacity="0.1"/>
      <path id="Path_155858" data-name="Path 155858" d="M-358.509,38.586s-3.8,2.118-4.231,3.118a4.553,4.553,0,0,1-2,1.717s-3,1.573-3,7.152l-1.573,7.867-.286,15.019s2.576-2.432,4.434-1.288,3-3.72,3-3.72.859-10.013,1.288-12.445,1-7,1-7,2.146-2.717,1.859-3.432A68.587,68.587,0,0,1-358.509,38.586Z" fill="#d6dbe6"/>
      <path id="Path_155859" data-name="Path 155859" d="M-360.015,27.52a4.7,4.7,0,0,1,.833-.823,2.554,2.554,0,0,1,1.647-.8,2.474,2.474,0,0,1,.973.348q2.282,1.2,4.549,2.428a4.239,4.239,0,0,1,1.525,1.164,4.487,4.487,0,0,1,.657,1.922,4.732,4.732,0,0,1,.065,1.4,1.756,1.756,0,0,1-.621,1.18c-.408.3-.966.3-1.308.686a3.851,3.851,0,0,0-.424.812c-.14.273-.383.539-.659.49a.691.691,0,0,1-.483-.638,3.878,3.878,0,0,1,.052-.9,2.126,2.126,0,0,0-.327-1.51c-.216-.273-.524-.438-.733-.718-.5-.675-.271-1.8-.819-2.43a1.3,1.3,0,0,0-1.257-.359,5.417,5.417,0,0,0-1.257.539,9.319,9.319,0,0,1-1.722.665c-.5.137-1.078.463-1.248-.2A4.428,4.428,0,0,1-360.015,27.52Z" opacity="0.1"/>
      <path id="Path_155860" data-name="Path 155860" d="M-359.867,27.382a4.7,4.7,0,0,1,.833-.823,2.554,2.554,0,0,1,1.647-.8,2.474,2.474,0,0,1,.973.348c1.519.8,2.782.043,4.549,2.428.377.51,1.135.621,1.525,1.164a4.487,4.487,0,0,1,.657,1.922,4.732,4.732,0,0,1,.065,1.4,1.756,1.756,0,0,1-.621,1.18c-.408.3-.966.3-1.308.686a3.851,3.851,0,0,0-.424.812c-.14.273-.383.539-.659.49a.691.691,0,0,1-.483-.638,3.876,3.876,0,0,1,.052-.9,2.126,2.126,0,0,0-.327-1.51c-.216-.273-.524-.438-.733-.718-.5-.675-.271-1.8-.819-2.43a1.3,1.3,0,0,0-1.257-.359,5.418,5.418,0,0,0-1.257.539,9.29,9.29,0,0,1-1.722.665c-.5.137-1.078.463-1.248-.2A4.419,4.419,0,0,1-359.867,27.382Z" fill="#865a61"/>
      <path id="Path_155861" data-name="Path 155861" d="M-346.979,49.213s1.907,4.864.476,6.866l-3.147-.718s2.861.859,2.432-.859S-346.979,49.213-346.979,49.213Z" opacity="0.1"/>
      <path id="Path_155862" data-name="Path 155862" d="M-345.937,61.23s-4.149.286-5.293-.573a10.951,10.951,0,0,0,5.164,2.146Z" opacity="0.1"/>
      <path id="Path_155863" data-name="Path 155863" d="M-363.81,52.07s-2.146,6.581-2,7.581.429,12.016.429,12.016l.429-.144-.144-12.016Z" opacity="0.1"/>
      <path id="Path_155864" data-name="Path 155864" d="M-345.432,60.113-394.464,20.6a3.074,3.074,0,0,0-2.173-.9h-2.083a26.58,26.58,0,0,0-4.6-37.308,26.581,26.581,0,0,0-37.309,4.6,26.581,26.581,0,0,0,4.6,37.308,26.579,26.579,0,0,0,32.709,0v2.082a3.065,3.065,0,0,0,.9,2.173l49.032,39.513a3.053,3.053,0,0,0,4.318.019l.018-.019,3.614-3.61A3.084,3.084,0,0,0-345.432,60.113ZM-419.689,19.7a16.353,16.353,0,0,1-16.338-16.37,16.355,16.355,0,0,1,16.37-16.338,16.354,16.354,0,0,1,16.338,16.37,16.35,16.35,0,0,1-4.791,11.549A16.367,16.367,0,0,1-419.689,19.7Z" fill="url(#linear-gradient-4)"/>
      <path id="Path_155865" data-name="Path 155865" d="M-345.073,59.754l-49.032-39.513a3.074,3.074,0,0,0-2.173-.9h-2.083a26.582,26.582,0,0,0-4.6-37.31,26.583,26.583,0,0,0-37.31,4.6,26.582,26.582,0,0,0,4.6,37.31,26.581,26.581,0,0,0,32.71,0v2.082a3.065,3.065,0,0,0,.9,2.173l49.032,39.513a3.053,3.053,0,0,0,4.318.019l.018-.019,3.614-3.61A3.084,3.084,0,0,0-345.073,59.754ZM-419.33,19.343a16.353,16.353,0,0,1-16.338-16.37A16.355,16.355,0,0,1-419.3-13.365,16.354,16.354,0,0,1-402.96,3.005a16.35,16.35,0,0,1-4.791,11.549A16.367,16.367,0,0,1-419.33,19.343Z" fill="#4285f4"/>
      <path id="Path_155866" data-name="Path 155866" d="M-348.719,56.151s-7.157-8.208-6.151-2.576c.718,4.005,3.432,6.151,4.72,6.581S-348.719,56.151-348.719,56.151Z" fill="#fdc2cc"/>
      <path id="Path_155867" data-name="Path 155867" d="M-347,48.57s.144,5.293.859,6.008-.429,1.573-.429,1.573l-2.861-.718s.718,4.72-2.288,4.149a9.113,9.113,0,0,0,4.005,2.146c2,.287,1.859-.429,1.859-.429l3-3.576Z" fill="#d6dbe6"/>
      <path id="Path_155868" data-name="Path 155868" d="M-346.206,61.376l2.9-.638-.388-1.338-1.8-.718-2.335,1.078Z" fill="#d6dbe6"/>
      <path id="Path_155869" data-name="Path 155869" d="M-430.929,2.823a12.157,12.157,0,0,0,2.439,7.324c.16.214.327.42.5.623.093.11.19.217.289.323.049.056.1.11.151.162a11.947,11.947,0,0,0,1.3,1.184l.032.023A12.164,12.164,0,0,0-422.6,14.4l.163.052c.1.034.2.065.307.093l.041.013c.052.014.1.031.158.043a12.136,12.136,0,0,0,3.2.426c.18,0,.368,0,.551-.013a12.029,12.029,0,0,0,2.832-.463h.018c.171-.05.339-.1.506-.16h.018l.153-.054a11.707,11.707,0,0,0,1.688-.747l.034-.018.18-.1a12.2,12.2,0,0,0,2.216-1.6l.059-.056a11.423,11.423,0,0,0,1.044-1.078l.038-.045c.031-.034.059-.068.088-.1.079-.093.154-.19.23-.287a12.212,12.212,0,0,0-2.16-17.136,12.212,12.212,0,0,0-17.136,2.16,12.215,12.215,0,0,0-2.565,7.485Z" fill="#c0bccf"/>
      <path id="Path_155870" data-name="Path 155870" d="M-426.7,6.748s2.649-.225,3.863-1.909c1.184-1.64,1.988-1.66,2.028-1.66h0c.031-.219.052-.427.066-.621V2.531a.346.346,0,0,1-.167.074c-.237.036-.445-.189-.564-.427a3.367,3.367,0,0,0-.359-.708c-.293-.338-.772-.339-1.121-.6a1.538,1.538,0,0,1-.539-1.027,2.808,2.808,0,0,1-.022-.449,4.957,4.957,0,0,1,.075-.957,3.944,3.944,0,0,1,.564-1.672c.332-.469.982-.569,1.306-1.013,1.514-2.076,2.594-1.417,3.9-2.114a2.1,2.1,0,0,1,.833-.3,2.18,2.18,0,0,1,1.41.7,4.032,4.032,0,0,1,.718.718,3.9,3.9,0,0,1,.568,2.18,3.261,3.261,0,0,1-.083.853c-.1.413-.386.386-.7.293a3.731,3.731,0,0,1-1.268,4.684v.189a.278.278,0,0,0,0,.041,8.475,8.475,0,0,0,.029.859c.031.016,2.935,1.663,3.263,2.444a3.539,3.539,0,0,0,1.546,1.347,4.835,4.835,0,0,1,1.976,2.974l-.038.045a11.31,11.31,0,0,1-1.044,1.1l-.059.057a12.149,12.149,0,0,1-2.216,1.616c-.057.034-.117.068-.18.1l-.034.018a11.616,11.616,0,0,1-1.688.76l-.153.056h-.018c-.167.059-.336.111-.507.162h-.018a11.879,11.879,0,0,1-2.832.471c-.18.009-.359.013-.551.013a11.956,11.956,0,0,1-3.193-.415c-.054-.013-.106-.029-.158-.043l-.041-.013c-.1-.029-.207-.061-.307-.1l-.163-.052a12.082,12.082,0,0,1-3.623-1.977l-.032-.023a11.9,11.9,0,0,1-1.3-1.2c-.051-.052-.1-.107-.151-.165-.1-.108-.2-.217-.289-.329-.18-.207-.341-.417-.5-.634C-427.519,6.381-426.7,6.748-426.7,6.748Z" fill="url(#linear-gradient-5)"/>
      <path id="Path_155871" data-name="Path 155871" d="M-417.543,9.758l3.863-2.98s-2.588.555-2.514-3.581a.278.278,0,0,1,0-.041,10.642,10.642,0,0,1,.09-1.234c.663-5.519-4.636-.663-4.636-.663a7.838,7.838,0,0,1,0,1.469v.04a10.266,10.266,0,0,1-1.1,3.9C-423.282,9.426-417.543,9.758-417.543,9.758Z" fill="#fdc2cc"/>
      <path id="Path_155872" data-name="Path 155872" d="M-420.246,1.961c.656.638,1.056,1.8,2.042,1.8a3.614,3.614,0,0,0,2.006-.6,10.642,10.642,0,0,1,.09-1.234c.663-5.519-4.636-.663-4.636-.663S-420.176,1.063-420.246,1.961Z" opacity="0.1"/>
      <circle id="Ellipse_2284" data-name="Ellipse 2284" cx="3.642" cy="3.642" r="3.642" transform="translate(-421.847 -3.708)" fill="#fdc2cc"/>
      <path id="Path_155873" data-name="Path 155873" d="M-414.711-4.73a4.034,4.034,0,0,0-.718-.7,2.184,2.184,0,0,0-1.41-.686,2.119,2.119,0,0,0-.833.3c-1.3.686-2.382.038-3.9,2.078-.323.436-.972.539-1.306,1a3.822,3.822,0,0,0-.564,1.645,4.061,4.061,0,0,0-.056,1.2,1.507,1.507,0,0,0,.539,1.009c.348.253.828.255,1.121.587a3.237,3.237,0,0,1,.359.7c.119.233.327.454.564.42a.58.58,0,0,0,.413-.539,3.287,3.287,0,0,0-.045-.767,1.834,1.834,0,0,1,.28-1.293c.18-.235.449-.375.627-.614.427-.577.233-1.545.7-2.08a1.114,1.114,0,0,1,1.078-.3,4.635,4.635,0,0,1,1.078.463,7.973,7.973,0,0,0,1.475.569c.427.117.923.4,1.069-.18A3.8,3.8,0,0,0-414.711-4.73Z" opacity="0.1"/>
      <path id="Path_155874" data-name="Path 155874" d="M-414.711-4.909a4.034,4.034,0,0,0-.718-.7,2.184,2.184,0,0,0-1.41-.686,2.119,2.119,0,0,0-.833.3c-1.3.686-2.382.038-3.9,2.078-.323.436-.972.539-1.306,1a3.822,3.822,0,0,0-.564,1.645,4.061,4.061,0,0,0-.056,1.2,1.507,1.507,0,0,0,.539,1.009c.348.253.828.255,1.121.587a3.237,3.237,0,0,1,.359.7c.119.233.327.454.564.42a.58.58,0,0,0,.413-.539,3.287,3.287,0,0,0-.045-.767,1.834,1.834,0,0,1,.28-1.293c.18-.235.449-.375.627-.614.427-.577.233-1.545.7-2.08a1.114,1.114,0,0,1,1.078-.3,4.635,4.635,0,0,1,1.078.463,7.973,7.973,0,0,0,1.475.569c.427.117.923.4,1.069-.18A3.8,3.8,0,0,0-414.711-4.909Z" fill="#865a61"/>
      <path id="Path_155875" data-name="Path 155875" d="M-421.847,11.674l-.072,2.757a12.136,12.136,0,0,0,3.2.426c.18,0,.368,0,.551-.013a12.029,12.029,0,0,0,2.832-.463h.018c.171-.05.339-.1.507-.16h.018l.153-.054a11.706,11.706,0,0,0,1.688-.747l.034-.018.18-.1-.278-3.716.444-2.549L-415,5.383a4.24,4.24,0,0,1-.456.553,3.033,3.033,0,0,1-.83.614c-1.742.859-3.725-.506-4.711-1.351l-.225-.2c-.255-.232-.4-.39-.4-.39l-1.214,1.875Z" opacity="0.1"/>
      <path id="Path_155876" data-name="Path 155876" d="M-421.847,11.853l-.072,2.757a12.136,12.136,0,0,0,3.2.426c.18,0,.368,0,.551-.013a12.029,12.029,0,0,0,2.832-.463h.018c.171-.05.339-.1.507-.16h.018l.153-.054a11.706,11.706,0,0,0,1.688-.747l.034-.018.18-.1-.278-3.716.444-2.549L-415,5.562a4.24,4.24,0,0,1-.456.553,3.033,3.033,0,0,1-.83.614c-1.742.859-3.725-.506-4.711-1.351l-.225-.2c-.255-.232-.4-.39-.4-.39l-1.214,1.875Z" fill="#53526b"/>
      <path id="Path_155877" data-name="Path 155877" d="M-428.49,10.147c.16.214.327.42.5.623.093.11.19.217.289.323.049.056.1.11.151.162a11.947,11.947,0,0,0,1.3,1.184l.032.023A12.164,12.164,0,0,0-422.6,14.4l.163.052c.1.034.2.065.307.093l.041.013c.052.014.1.031.158.043a12.136,12.136,0,0,0,3.2.426c.18,0,.368,0,.551-.013a17.281,17.281,0,0,0-.04-4.6,7.619,7.619,0,0,0-.444-.794c-.887-1.426-2.514-3.571-2.426-3.842a2.848,2.848,0,0,0,.074-.4c.1-.708.19-2,.19-2h0c-.04,0-.844.02-2.028,1.633-1.214,1.656-3.863,1.877-3.863,1.877S-427.518,6.524-428.49,10.147Z" fill="#555388"/>
      <path id="Path_155878" data-name="Path 155878" d="M-415.116,12.075s.133,1.058.307,2.322h.018l.153-.054a11.707,11.707,0,0,0,1.688-.747l.034-.018.18-.1a12.2,12.2,0,0,0,2.216-1.595l.059-.056a11.427,11.427,0,0,0,1.044-1.078l.038-.045a4.752,4.752,0,0,0-1.976-2.926A3.53,3.53,0,0,1-412.9,6.453c-.332-.772-3.265-2.4-3.265-2.4v.013c0,.138-.047,1.4-.117,2.678-.045.828-.1,1.66-.165,2.188a2.551,2.551,0,0,1-.093.506C-416.77,9.979-415.116,12.075-415.116,12.075Z" fill="#555388"/>
    </g>
  </g>
</svg>
