<svg xmlns="http://www.w3.org/2000/svg" xmlns:xlink="http://www.w3.org/1999/xlink" width="262" height="196" viewBox="0 0 262 196">
  <defs>
    <linearGradient id="linear-gradient" x1="-1.377" y1="5.235" x2="-1.377" y2="5.243" gradientUnits="objectBoundingBox">
      <stop offset="0" stop-color="gray" stop-opacity="0.251"/>
      <stop offset="0.54" stop-color="gray" stop-opacity="0.122"/>
      <stop offset="1" stop-color="gray" stop-opacity="0.102"/>
    </linearGradient>
    <linearGradient id="linear-gradient-2" x1="-5.984" y1="5.617" x2="-5.984" y2="5.625" xlink:href="#linear-gradient"/>
  </defs>
  <g id="card-19" transform="translate(50.218 381.797)">
    <rect id="Rectangle_8569-3" data-name="Rectangle 8569-3" width="262" height="196" transform="translate(-50.218 -381.797)" fill="#f6afc7"/>
    <g id="undraw_report_mx0a" data-name="undraw report mx0a">
      <path id="Path_157238" data-name="Path 157238" d="M24.153-360.676c-6.431-.237-13.149-.4-18.964,2.353s-10.311,9.436-8.361,15.576a29.669,29.669,0,0,0,2.921,5.569,32.109,32.109,0,0,1,.623,30.216c-3.73,7.177-10.052,12.638-14.6,19.325s-7.138,15.954-2.66,22.69c3.066,4.612,8.755,6.857,14.266,7.4s11.055-.313,16.59-.533a71.457,71.457,0,0,1,31.375,5.933c13.6,5.961,25.31,16.159,39.626,20.094a11.956,11.956,0,0,0,5.273.533c3.117-.568,5.384-3.145,7.824-5.18,7.791-6.451,18.577-7.656,28.69-7.956s20.646-.068,29.787-4.411c7.981-3.791,14.127-10.844,17.946-18.81s5.48-16.82,6.1-25.635c.37-5.247.357-10.664-1.521-15.576-2.11-5.523-6.392-9.92-10.882-13.765-4.692-4.018-9.806-7.66-15.6-9.828-6.919-2.59-14.431-2.96-21.8-3.574a299.342,299.342,0,0,1-44.84-7.2c-13.993-3.345-29.356-7-42.1-13.813C37.462-360.689,31.362-360.417,24.153-360.676Z" fill="#ffccde"/>
      <g id="Group_167405" data-name="Group 167405">
        <path id="Path_157239" data-name="Path 157239" d="M112.86-244.3s.655-9.178,5.821-14.183a13.94,13.94,0,0,0,4.117-7.8,23.573,23.573,0,0,0,.279-4.279" fill="#f5a6c1"/>
        <path id="Path_157240" data-name="Path 157240" d="M126.311-273.73c-.379,1.014-3.312,3.267-3.312,3.267s-.74-3.624-.357-4.638a1.96,1.96,0,0,1,2.521-1.149,1.958,1.958,0,0,1,1.148,2.52Z" fill="#f5a6c1"/>
        <path id="Path_157241" data-name="Path 157241" d="M127.248-266.983c-.87.644-4.555.942-4.555.942s1.351-3.443,2.22-4.089a1.959,1.959,0,0,1,2.732.465,1.959,1.959,0,0,1-.4,2.68Z" fill="#f5a6c1"/>
        <path id="Path_157242" data-name="Path 157242" d="M123.531-257.441c-1.077.118-4.409-1.48-4.409-1.48s2.9-2.29,3.98-2.4a1.957,1.957,0,0,1,2.067,1.841A1.958,1.958,0,0,1,123.531-257.441Z" fill="#f5a6c1"/>
        <path id="Path_157243" data-name="Path 157243" d="M119.093-250.854c-1.039.3-4.6-.72-4.6-.72s2.474-2.747,3.515-3.045a1.959,1.959,0,0,1,2.454,1.284,1.958,1.958,0,0,1-1.284,2.455c-.03.01-.06.018-.09.026Z" fill="#f5a6c1"/>
        <path id="Path_157244" data-name="Path 157244" d="M118.768-267.284c.463.977,3.574,2.973,3.574,2.973s.429-3.672-.035-4.651a1.958,1.958,0,0,0-2.632-.862A1.959,1.959,0,0,0,118.768-267.284Z" fill="#f5a6c1"/>
        <path id="Path_157245" data-name="Path 157245" d="M113.674-259.515c.74.794,4.3,1.769,4.3,1.769s-.69-3.634-1.425-4.429a1.96,1.96,0,0,0-2.769-.108,1.961,1.961,0,0,0-.108,2.769Z" fill="#f5a6c1"/>
        <path id="Path_157246" data-name="Path 157246" d="M109.76-251.285c.588.907,3.941,2.47,3.941,2.47s-.067-3.7-.657-4.6a1.959,1.959,0,0,0-2.722-.513,1.959,1.959,0,0,0-.562,2.648Z" fill="#f5a6c1"/>
        <path id="Path_157247" data-name="Path 157247" d="M126.311-273.73c-.379,1.014-3.312,3.267-3.312,3.267s-.74-3.624-.357-4.638a1.96,1.96,0,0,1,2.521-1.149,1.958,1.958,0,0,1,1.148,2.52Z" fill="#f5a6c1"/>
        <path id="Path_157248" data-name="Path 157248" d="M127.248-266.983c-.87.644-4.555.942-4.555.942s1.351-3.443,2.22-4.089a1.959,1.959,0,0,1,2.732.465,1.959,1.959,0,0,1-.4,2.68Z" fill="#f5a6c1"/>
        <path id="Path_157249" data-name="Path 157249" d="M123.531-257.441c-1.077.118-4.409-1.48-4.409-1.48s2.9-2.29,3.98-2.4a1.957,1.957,0,0,1,2.067,1.841A1.958,1.958,0,0,1,123.531-257.441Z" fill="#f5a6c1"/>
        <path id="Path_157250" data-name="Path 157250" d="M119.093-250.854c-1.039.3-4.6-.72-4.6-.72s2.474-2.747,3.515-3.045a1.959,1.959,0,0,1,2.454,1.284,1.958,1.958,0,0,1-1.284,2.455c-.03.01-.06.018-.09.026Z" fill="#f5a6c1"/>
        <path id="Path_157251" data-name="Path 157251" d="M118.768-267.284c.463.977,3.574,2.973,3.574,2.973s.429-3.672-.035-4.651a1.958,1.958,0,0,0-2.632-.862A1.959,1.959,0,0,0,118.768-267.284Z" fill="#f5a6c1"/>
        <path id="Path_157252" data-name="Path 157252" d="M113.674-259.515c.74.794,4.3,1.769,4.3,1.769s-.69-3.634-1.425-4.429a1.96,1.96,0,0,0-2.769-.108,1.961,1.961,0,0,0-.108,2.769Z" fill="#f5a6c1"/>
        <path id="Path_157253" data-name="Path 157253" d="M109.76-251.285c.588.907,3.941,2.47,3.941,2.47s-.067-3.7-.657-4.6a1.959,1.959,0,0,0-2.722-.513,1.959,1.959,0,0,0-.562,2.648Z" fill="#f5a6c1"/>
      </g>
      <g id="Group_167406" data-name="Group 167406">
        <path id="Path_157254" data-name="Path 157254" d="M114.672-279.037s.656-9.179,5.82-14.183a13.938,13.938,0,0,0,4.118-7.8,23.131,23.131,0,0,0,.278-4.279" fill="#f5a6c1"/>
        <path id="Path_157255" data-name="Path 157255" d="M128.125-308.473c-.37,1.012-3.31,3.265-3.31,3.265s-.74-3.624-.36-4.636a1.96,1.96,0,0,1,2.521-1.149,1.959,1.959,0,0,1,1.149,2.52Z" fill="#f5a6c1"/>
        <path id="Path_157256" data-name="Path 157256" d="M129.067-301.726c-.868.646-4.555.942-4.555.942s1.351-3.441,2.219-4.087a1.959,1.959,0,0,1,2.749.345,1.959,1.959,0,0,1-.344,2.749c-.023.017-.046.035-.069.051Z" fill="#f5a6c1"/>
        <path id="Path_157257" data-name="Path 157257" d="M125.344-292.182c-1.075.118-4.407-1.48-4.407-1.48s2.9-2.289,3.98-2.4a1.959,1.959,0,0,1,2.161,1.734,1.959,1.959,0,0,1-1.734,2.161Z" fill="#f5a6c1"/>
        <path id="Path_157258" data-name="Path 157258" d="M120.906-285.6c-1.039.3-4.6-.72-4.6-.72s2.476-2.747,3.515-3.047a1.958,1.958,0,0,1,2.422,1.344A1.959,1.959,0,0,1,120.9-285.6Z" fill="#f5a6c1"/>
        <path id="Path_157259" data-name="Path 157259" d="M120.583-302.027c.463.979,3.576,2.975,3.576,2.975s.427-3.674-.034-4.651a1.96,1.96,0,0,0-2.61-.933,1.959,1.959,0,0,0-.932,2.609Z" fill="#f5a6c1"/>
        <path id="Path_157260" data-name="Path 157260" d="M115.486-294.258c.74.8,4.3,1.769,4.3,1.769s-.692-3.634-1.426-4.427a1.958,1.958,0,0,0-2.769-.068,1.959,1.959,0,0,0-.108,2.727Z" fill="#f5a6c1"/>
        <path id="Path_157261" data-name="Path 157261" d="M111.573-286.027c.591.907,3.941,2.47,3.941,2.47s-.067-3.7-.657-4.6a1.958,1.958,0,0,0-2.7-.635,1.959,1.959,0,0,0-.636,2.7l.048.074Z" fill="#f5a6c1"/>
        <path id="Path_157262" data-name="Path 157262" d="M128.125-308.473c-.37,1.012-3.31,3.265-3.31,3.265s-.74-3.624-.36-4.636a1.96,1.96,0,0,1,2.521-1.149,1.959,1.959,0,0,1,1.149,2.52Z" fill="#f5a6c1"/>
        <path id="Path_157263" data-name="Path 157263" d="M129.067-301.726c-.868.646-4.555.942-4.555.942s1.351-3.441,2.219-4.087a1.959,1.959,0,0,1,2.749.345,1.959,1.959,0,0,1-.344,2.749c-.023.017-.046.035-.069.051Z" fill="#f5a6c1"/>
        <path id="Path_157264" data-name="Path 157264" d="M125.344-292.182c-1.075.118-4.407-1.48-4.407-1.48s2.9-2.289,3.98-2.4a1.959,1.959,0,0,1,2.161,1.734,1.959,1.959,0,0,1-1.734,2.161Z" fill="#f5a6c1"/>
        <path id="Path_157265" data-name="Path 157265" d="M120.906-285.6c-1.039.3-4.6-.72-4.6-.72s2.476-2.747,3.515-3.047a1.958,1.958,0,0,1,2.422,1.344A1.959,1.959,0,0,1,120.9-285.6Z" fill="#f5a6c1"/>
        <path id="Path_157266" data-name="Path 157266" d="M120.583-302.027c.463.979,3.576,2.975,3.576,2.975s.427-3.674-.034-4.651a1.96,1.96,0,0,0-2.61-.933,1.959,1.959,0,0,0-.932,2.609Z" fill="#f5a6c1"/>
        <path id="Path_157267" data-name="Path 157267" d="M115.486-294.258c.74.8,4.3,1.769,4.3,1.769s-.692-3.634-1.426-4.427a1.958,1.958,0,0,0-2.769-.068,1.959,1.959,0,0,0-.108,2.727Z" fill="#f5a6c1"/>
        <path id="Path_157268" data-name="Path 157268" d="M111.573-286.027c.591.907,3.941,2.47,3.941,2.47s-.067-3.7-.657-4.6a1.958,1.958,0,0,0-2.7-.635,1.959,1.959,0,0,0-.636,2.7l.048.074Z" fill="#f5a6c1"/>
      </g>
      <g id="Group_167407" data-name="Group 167407">
        <path id="Path_157269" data-name="Path 157269" d="M16.528-267.011s-7.9-4.71-10.054-11.571a13.926,13.926,0,0,0-5.114-7.184,23.281,23.281,0,0,0-3.7-2.172" fill="#f5a6c1"/>
        <path id="Path_157270" data-name="Path 157270" d="M-3.721-292.261c.74.794,1.43,4.427,1.43,4.427s-3.569-.971-4.3-1.765a1.96,1.96,0,0,1,.178-2.765,1.959,1.959,0,0,1,2.7.1Z" fill="#f5a6c1"/>
        <path id="Path_157271" data-name="Path 157271" d="M2.727-290.053c.185,1.066-1.205,4.492-1.205,4.492s-2.468-2.755-2.653-3.821a1.959,1.959,0,0,1,1.544-2.3,1.959,1.959,0,0,1,2.3,1.544c0,.028.01.056.014.084Z" fill="#f5a6c1"/>
        <path id="Path_157272" data-name="Path 157272" d="M9.58-282.453c-.37,1.014-3.31,3.269-3.31,3.269s-.74-3.624-.36-4.636a1.959,1.959,0,0,1,2.5-1.2,1.959,1.959,0,0,1,1.2,2.5c-.008.024-.017.048-.026.071Z" fill="#f5a6c1"/>
        <path id="Path_157273" data-name="Path 157273" d="M13.467-275.528c-.2,1.064-2.709,3.791-2.709,3.791s-1.341-3.447-1.14-4.509a1.958,1.958,0,0,1,2.288-1.56,1.957,1.957,0,0,1,1.56,2.287Z" fill="#f5a6c1"/>
        <path id="Path_157274" data-name="Path 157274" d="M-1.354-282.623c1.08.026,4.265-1.85,4.265-1.85s-3.09-2.035-4.172-2.061a1.96,1.96,0,0,0-2,1.912,1.96,1.96,0,0,0,1.912,2.005Z" fill="#f5a6c1"/>
        <path id="Path_157275" data-name="Path 157275" d="M3.3-274.582c1.04-.3,3.515-3.049,3.515-3.049s-3.556-1.016-4.6-.716a1.959,1.959,0,0,0-1.3,2.447,1.959,1.959,0,0,0,2.381,1.318Z" fill="#f5a6c1"/>
        <path id="Path_157276" data-name="Path 157276" d="M8.886-267.385c1.077-.118,3.98-2.4,3.98-2.4s-3.33-1.6-4.409-1.48A1.957,1.957,0,0,0,6.616-269.2a1.958,1.958,0,0,0,2.067,1.841A1.964,1.964,0,0,0,8.886-267.385Z" fill="#f5a6c1"/>
        <path id="Path_157277" data-name="Path 157277" d="M-3.721-292.261c.74.794,1.43,4.427,1.43,4.427s-3.569-.971-4.3-1.765a1.96,1.96,0,0,1,.178-2.765,1.959,1.959,0,0,1,2.7.1Z" fill="#f5a6c1"/>
        <path id="Path_157278" data-name="Path 157278" d="M2.727-290.053c.185,1.066-1.205,4.492-1.205,4.492s-2.468-2.755-2.653-3.821a1.959,1.959,0,0,1,1.544-2.3,1.959,1.959,0,0,1,2.3,1.544c0,.028.01.056.014.084Z" fill="#f5a6c1"/>
        <path id="Path_157279" data-name="Path 157279" d="M9.58-282.453c-.37,1.014-3.31,3.269-3.31,3.269s-.74-3.624-.36-4.636a1.959,1.959,0,0,1,2.5-1.2,1.959,1.959,0,0,1,1.2,2.5c-.008.024-.017.048-.026.071Z" fill="#f5a6c1"/>
        <path id="Path_157280" data-name="Path 157280" d="M13.467-275.528c-.2,1.064-2.709,3.791-2.709,3.791s-1.341-3.447-1.14-4.509a1.958,1.958,0,0,1,2.288-1.56,1.957,1.957,0,0,1,1.56,2.287Z" fill="#f5a6c1"/>
        <path id="Path_157281" data-name="Path 157281" d="M-1.354-282.623c1.08.026,4.265-1.85,4.265-1.85s-3.09-2.035-4.172-2.061a1.96,1.96,0,0,0-2,1.912,1.96,1.96,0,0,0,1.912,2.005Z" fill="#f5a6c1"/>
        <path id="Path_157282" data-name="Path 157282" d="M3.3-274.582c1.04-.3,3.515-3.049,3.515-3.049s-3.556-1.016-4.6-.716a1.959,1.959,0,0,0-1.3,2.447,1.959,1.959,0,0,0,2.381,1.318Z" fill="#f5a6c1"/>
        <path id="Path_157283" data-name="Path 157283" d="M8.886-267.385c1.077-.118,3.98-2.4,3.98-2.4s-3.33-1.6-4.409-1.48A1.957,1.957,0,0,0,6.616-269.2a1.958,1.958,0,0,0,2.067,1.841A1.964,1.964,0,0,0,8.886-267.385Z" fill="#f5a6c1"/>
      </g>
      <path id="Path_157284" data-name="Path 157284" d="M113.387-211.607c5.312,2.311,11.794.9,17.82,1.068a4.881,4.881,0,0,1,2.359.49,6.027,6.027,0,0,1,1.441,1.6c1.689,2.061,5.151,2.723,8.176,2.374s5.8-1.508,8.654-2.388c4.934-1.525,10.573-2.22,15.44-.555a3.2,3.2,0,0,0,1.4.266c1.068-.135,1.385-1.241,2.13-1.872,1.347-1.141,4.274-.831,4.867-2.335.346-.881-.451-1.784-1.321-2.385-3.33-2.3-8.085-2.681-12.438-2.326s-8.633,1.334-13.008,1.338c-5.452,0-10.72-1.5-16.118-2.118a25.758,25.758,0,0,0-11.327.883C117.657-216.214,116.821-213.163,113.387-211.607Z" fill="#f5a6c1"/>
      <path id="Path_157285" data-name="Path 157285" d="M12.865-218.7c9.066,2.611,20.129,1.021,30.416,1.206a12.041,12.041,0,0,1,4.03.555,8.96,8.96,0,0,1,2.461,1.809c2.883,2.329,8.791,3.079,13.952,2.683s9.9-1.7,14.771-2.7c8.422-1.722,18.05-2.507,26.357-.629a7.868,7.868,0,0,0,2.383.3c1.821-.154,2.363-1.4,3.637-2.117,2.3-1.3,7.293-.938,8.3-2.636.592-1-.77-2.017-2.253-2.7-5.676-2.6-13.8-3.029-21.23-2.627s-14.736,1.506-22.2,1.512c-9.306,0-18.3-1.7-27.513-2.394-6.383-.481-13.349-.422-19.334,1C20.155-223.894,18.724-220.448,12.865-218.7Z" fill="#f5a6c1"/>
      <path id="Path_157286" data-name="Path 157286" d="M-11.4-212.3c2.59,1.558,5.735.611,8.67.72a1.843,1.843,0,0,1,1.149.329,3.882,3.882,0,0,1,.7,1.081,3.825,3.825,0,0,0,3.976,1.6A18.665,18.665,0,0,0,7.3-210.179c2.405-1.027,5.145-1.495,7.512-.37a1.181,1.181,0,0,0,.681.185c.518-.093.673-.838,1.036-1.264.655-.77,2.08-.555,2.366-1.574a1.731,1.731,0,0,0-.642-1.608,7.354,7.354,0,0,0-6.052-1.569c-2.118.239-4.2.886-6.329.886-2.651,0-5.214-1.012-7.841-1.428a9.19,9.19,0,0,0-5.512.6C-9.323-215.4-9.73-213.343-11.4-212.3Z" fill="#f5a6c1"/>
      <path id="Path_157287" data-name="Path 157287" d="M109.455-354.193H23.494a7.872,7.872,0,0,0-7.884,7.859v119.1a7.871,7.871,0,0,0,7.884,7.856h85.962a7.873,7.873,0,0,0,7.885-7.859v-119.1a7.873,7.873,0,0,0-7.883-7.861Z" fill="url(#linear-gradient)"/>
      <rect id="Rectangle_30596" data-name="Rectangle 30596" width="99.3" height="131.996" rx="20" transform="translate(16.821 -352.578)" fill="#535461"/>
      <rect id="Rectangle_30597" data-name="Rectangle 30597" width="89.21" height="107.025" transform="translate(21.866 -340.094)" fill="#f6f7f9"/>
      <circle id="Ellipse_2425" data-name="Ellipse 2425" cx="1.212" cy="1.212" r="1.212" transform="translate(64.856 -347.736)" fill="#f6f7f9"/>
      <circle id="Ellipse_2426" data-name="Ellipse 2426" cx="3.634" cy="3.634" r="3.634" transform="translate(62.434 -230.675)" fill="#f6f7f9"/>
      <g id="Group_167408" data-name="Group 167408" opacity="0.2">
        <rect id="Rectangle_30598" data-name="Rectangle 30598" width="89.21" height="5.334" transform="translate(21.866 -340.094)" fill="#f06292"/>
      </g>
      <circle id="Ellipse_2427" data-name="Ellipse 2427" cx="1.138" cy="1.138" r="1.138" transform="translate(23.519 -338.563)" fill="#f6f7f9"/>
      <circle id="Ellipse_2428" data-name="Ellipse 2428" cx="1.138" cy="1.138" r="1.138" transform="translate(26.418 -338.563)" fill="#f6f7f9"/>
      <circle id="Ellipse_2429" data-name="Ellipse 2429" cx="1.138" cy="1.138" r="1.138" transform="translate(29.315 -338.563)" fill="#f6f7f9"/>
      <rect id="Rectangle_30599" data-name="Rectangle 30599" width="83.073" height="0.278" transform="translate(24.531 -308.632)" fill="#dce0ed"/>
      <rect id="Rectangle_30600" data-name="Rectangle 30600" width="83.073" height="0.278" transform="translate(24.531 -302.188)" fill="#dce0ed"/>
      <rect id="Rectangle_30601" data-name="Rectangle 30601" width="83.073" height="0.278" transform="translate(24.531 -295.742)" fill="#dce0ed"/>
      <rect id="Rectangle_30602" data-name="Rectangle 30602" width="83.073" height="0.278" transform="translate(24.531 -289.298)" fill="#dce0ed"/>
      <rect id="Rectangle_30603" data-name="Rectangle 30603" width="83.073" height="0.278" transform="translate(24.531 -282.854)" fill="#dce0ed"/>
      <g id="Group_167409" data-name="Group 167409" opacity="0.2">
        <path id="Path_157288" data-name="Path 157288" d="M107.6-282.581H24.429v-12.67l7.628,3.759,7.9,1.071,6.928-2.089,8.356-6.481,4.2-2.427,3.073-.592,2.94.157,4.834,2.389,6.574,4.187,5.158.662,4.089-1.41,8.67-7.1L99.2-304.7l4.631.716,3.771,2.178Z" fill="#f06292"/>
      </g>
      <path id="Path_157289" data-name="Path 157289" d="M38.927-290.423c-7.491,0-14.413-4.581-14.5-4.64l.207-.307c.106.072,10.76,7.119,19.812,3.589a27.442,27.442,0,0,0,7.925-5.227c2.373-2.022,4.614-3.932,7.67-4.76a11.476,11.476,0,0,1,10.244,2.3c2.488,2.044,7.443,5.327,12.677,4.346,2.668-.5,4.916-2.45,7.3-4.512,4.564-3.956,9.286-8.046,17.452-2.178l-.216.3c-7.93-5.7-12.536-1.7-16.993,2.157-2.42,2.1-4.7,4.07-7.471,4.6-5.384,1.01-10.442-2.339-12.981-4.424a11.115,11.115,0,0,0-9.913-2.229c-2.975.807-5.18,2.69-7.528,4.685a27.539,27.539,0,0,1-8.028,5.29A15.482,15.482,0,0,1,38.927-290.423Z" fill="#f06292"/>
      <circle id="Ellipse_2430" data-name="Ellipse 2430" cx="2.059" cy="2.059" r="2.059" transform="translate(62.445 -304.086)" fill="#f06292"/>
      <g id="Group_167410" data-name="Group 167410" opacity="0.2">
        <path id="Path_157290" data-name="Path 157290" d="M91.365-329.276H65.389a.422.422,0,0,0-.422.422v17.567a.424.424,0,0,0,.423.422A.418.418,0,0,0,65.7-311l4.5-4.8a.422.422,0,0,1,.307-.133h20.86a.421.421,0,0,0,.422-.422v-12.5A.422.422,0,0,0,91.365-329.276Z" fill="#f06292"/>
      </g>
      <rect id="Rectangle_30604" data-name="Rectangle 30604" width="14.792" height="1.85" transform="translate(70.98 -326.023)" fill="#f6f7f9"/>
      <rect id="Rectangle_30605" data-name="Rectangle 30605" width="4.061" height="1.85" transform="translate(70.98 -321.923)" fill="#f6f7f9"/>
      <g id="Group_167411" data-name="Group 167411" opacity="0.2">
        <rect id="Rectangle_30606" data-name="Rectangle 30606" width="4.061" height="1.85" transform="translate(31.546 -269.337)" fill="#f06292"/>
      </g>
      <g id="Group_167412" data-name="Group 167412" opacity="0.2">
        <rect id="Rectangle_30607" data-name="Rectangle 30607" width="4.061" height="1.85" transform="translate(31.546 -265.761)" fill="#f06292"/>
      </g>
      <g id="Group_167413" data-name="Group 167413" opacity="0.2">
        <rect id="Rectangle_30608" data-name="Rectangle 30608" width="4.061" height="1.85" transform="translate(31.546 -262.185)" fill="#f06292"/>
      </g>
      <g id="Group_167414" data-name="Group 167414" opacity="0.2">
        <rect id="Rectangle_30609" data-name="Rectangle 30609" width="4.061" height="1.85" transform="translate(31.546 -258.606)" fill="#f06292"/>
      </g>
      <g id="Group_167415" data-name="Group 167415" opacity="0.2">
        <rect id="Rectangle_30610" data-name="Rectangle 30610" width="4.061" height="1.85" transform="translate(31.546 -255.03)" fill="#f06292"/>
      </g>
      <g id="Group_167416" data-name="Group 167416" opacity="0.2">
        <rect id="Rectangle_30611" data-name="Rectangle 30611" width="4.061" height="1.85" transform="translate(31.546 -251.454)" fill="#f06292"/>
      </g>
      <g id="Group_167417" data-name="Group 167417" opacity="0.2">
        <rect id="Rectangle_30612" data-name="Rectangle 30612" width="4.061" height="1.85" transform="translate(31.546 -247.876)" fill="#f06292"/>
      </g>
      <g id="Group_167418" data-name="Group 167418" opacity="0.2">
        <rect id="Rectangle_30613" data-name="Rectangle 30613" width="4.061" height="1.85" transform="translate(31.546 -244.299)" fill="#f06292"/>
      </g>
      <g id="Group_167419" data-name="Group 167419" opacity="0.2">
        <rect id="Rectangle_30614" data-name="Rectangle 30614" width="4.061" height="1.85" transform="translate(39.193 -242.449)" fill="#f06292"/>
      </g>
      <g id="Group_167420" data-name="Group 167420" opacity="0.2">
        <rect id="Rectangle_30615" data-name="Rectangle 30615" width="4.061" height="1.85" transform="translate(46.347 -242.449)" fill="#f06292"/>
      </g>
      <g id="Group_167421" data-name="Group 167421" opacity="0.2">
        <rect id="Rectangle_30616" data-name="Rectangle 30616" width="4.061" height="1.85" transform="translate(53.502 -242.449)" fill="#f06292"/>
      </g>
      <g id="Group_167422" data-name="Group 167422" opacity="0.2">
        <rect id="Rectangle_30617" data-name="Rectangle 30617" width="4.061" height="1.85" transform="translate(60.654 -242.449)" fill="#f06292"/>
      </g>
      <g id="Group_167423" data-name="Group 167423" opacity="0.2">
        <rect id="Rectangle_30618" data-name="Rectangle 30618" width="4.061" height="1.85" transform="translate(67.809 -242.449)" fill="#f06292"/>
      </g>
      <g id="Group_167424" data-name="Group 167424" opacity="0.2">
        <rect id="Rectangle_30619" data-name="Rectangle 30619" width="4.061" height="1.85" transform="translate(74.963 -242.449)" fill="#f06292"/>
      </g>
      <g id="Group_167425" data-name="Group 167425" opacity="0.2">
        <rect id="Rectangle_30620" data-name="Rectangle 30620" width="4.061" height="1.85" transform="translate(82.116 -242.449)" fill="#f06292"/>
      </g>
      <g id="Group_167426" data-name="Group 167426" opacity="0.2">
        <rect id="Rectangle_30621" data-name="Rectangle 30621" width="4.061" height="1.85" transform="translate(89.27 -242.449)" fill="#f06292"/>
      </g>
      <g id="Group_167427" data-name="Group 167427" opacity="0.2">
        <rect id="Rectangle_30622" data-name="Rectangle 30622" width="4.061" height="1.85" transform="translate(96.425 -242.449)" fill="#f06292"/>
      </g>
      <rect id="Rectangle_30623" data-name="Rectangle 30623" width="6.166" height="1.85" transform="translate(79.605 -321.923)" fill="#f6f7f9"/>
      <rect id="Rectangle_30624" data-name="Rectangle 30624" width="4.061" height="11.595" transform="translate(39.193 -255.894)" fill="#f06292"/>
      <rect id="Rectangle_30625" data-name="Rectangle 30625" width="4.061" height="16.96" transform="translate(46.347 -261.259)" fill="#f06292"/>
      <rect id="Rectangle_30626" data-name="Rectangle 30626" width="4.061" height="21.462" transform="translate(53.502 -265.761)" fill="#f06292"/>
      <rect id="Rectangle_30627" data-name="Rectangle 30627" width="4.061" height="19.127" transform="translate(60.654 -263.428)" fill="#f06292"/>
      <rect id="Rectangle_30628" data-name="Rectangle 30628" width="4.061" height="23.188" transform="translate(67.809 -267.487)" fill="#f06292"/>
      <g id="Group_167428" data-name="Group 167428" opacity="0.2">
        <rect id="Rectangle_30629" data-name="Rectangle 30629" width="4.061" height="14.307" transform="translate(74.963 -258.606)" fill="#f06292"/>
      </g>
      <g id="Group_167429" data-name="Group 167429" opacity="0.2">
        <rect id="Rectangle_30630" data-name="Rectangle 30630" width="4.061" height="14.307" transform="translate(82.116 -258.606)" fill="#f06292"/>
      </g>
      <g id="Group_167430" data-name="Group 167430" opacity="0.2">
        <rect id="Rectangle_30631" data-name="Rectangle 30631" width="4.061" height="14.307" transform="translate(89.27 -258.606)" fill="#f06292"/>
      </g>
      <g id="Group_167431" data-name="Group 167431" opacity="0.2">
        <rect id="Rectangle_30632" data-name="Rectangle 30632" width="4.061" height="14.307" transform="translate(96.425 -258.606)" fill="#f06292"/>
      </g>
      <path id="Path_157291" data-name="Path 157291" d="M163.85-310.377a50.983,50.983,0,0,0-6.068-3.16l-.089-.065a3.666,3.666,0,0,1-1.11-1.4v-.27a6.629,6.629,0,0,1,1.928-3.623l2.31-2.72a2.622,2.622,0,0,0,.6-.944,2.091,2.091,0,0,0,.063-.579v-.237c-.011-.675-.031-1.352-.055-2.035-.022-.59-.174-1.334-.764-1.456-.307-.063-.711.048-.875-.216a.5.5,0,0,1-.039-.35v-.005a7.757,7.757,0,0,0,.22-1.389,1.893,1.893,0,0,0-.1-.7c-.342-.981-1.519-1.382-2.56-1.567a4.485,4.485,0,0,1-2.86-1.158,8.717,8.717,0,0,0-.568-.783,2.258,2.258,0,0,0-1.064-.525,6.015,6.015,0,0,0-3.87.337,3.486,3.486,0,0,1-1.56.494c-.552-.033-1.065-.431-1.63-.527a2.326,2.326,0,0,0-2.24,1.31,3.214,3.214,0,0,0-.414,1.547v.091h0a2.259,2.259,0,0,0,.594,1.578c.394.409.982.69,1.146,1.228.067.218.049.455.109.677a.233.233,0,0,0,.026.081l-.031.039a6.862,6.862,0,0,0-1.451,4.233,7.012,7.012,0,0,0,4.927,6.649v.207a2.978,2.978,0,0,1-.955,2.327l-6.229,2.505s-3.754-.446-5.107,5.042a9.248,9.248,0,0,0-.233,2.784,8.165,8.165,0,0,1-1.027,4.17c-1.541,3.016-1.19,9.939,1.959,10.625a10.408,10.408,0,0,0,4.255.346v.12c-.048,1.3-.52,12.505-2.235,13.861-.474.37-.385.629,0,.8,0,0,0,.072-.011.2-.052.82-.316,3.941-1.463,5.717-1.33,2.055-1.191,13.917-1.191,13.917l-.894,7s.555,4.318,0,5.073c-.5.672-1.166,16.651-1.3,20.113h-.059a1.682,1.682,0,0,0-1.345.82,23.659,23.659,0,0,1-3.312,3.4c-.555.794-2.625,1.552-3.719,1.911a2.234,2.234,0,0,0-.422.185,2.218,2.218,0,0,0-.938.988,1.067,1.067,0,0,0-.1.825c.281.685,6.091,1.164,7.56.479,1.156-.54,5.735-1.249,7.635-1.526a1.572,1.572,0,0,0,1.36-1.358.908.908,0,0,0-.185-.681h0a5.967,5.967,0,0,1-.635-2.485,1.632,1.632,0,0,0,.427-.253,18.231,18.231,0,0,1,1.049-7.334c1.4-3.7,1.821-10.559,1.48-15.014,0,0,4.27-18.372,7.63-20.087h0c.052.065,1.682,2.159,1.889,8.636a26.2,26.2,0,0,0,2.59,10.9s-1.051,11.175,0,15.356l-1.375,6.6c-.1-.087-.165-.154-.165-.154s.041.185.1.477l-.03.139.059.015a13.072,13.072,0,0,1,.292,3.106c-.055.479-.185,1.138-.281,1.784-.144,1.016-.185,2,.35,2.22.875.352,6.02.833,6.9-.3a1.626,1.626,0,0,0,.255-1.7,1.768,1.768,0,0,0-.255-.431s-1.365-2.233-.981-3.808a1.154,1.154,0,0,0-.163-.9,46.04,46.04,0,0,1,1.179-7.388c.875-3.3,2.723-10.531,1.364-15.288h0c-.052-.185-.111-.37-.174-.555a20.481,20.481,0,0,1-.77-8.02,16.329,16.329,0,0,1,0-6.993c.84-3.839,1.426-7.61,1.426-7.61a48.066,48.066,0,0,0,.059-8.181l-.028-.2.222-.05s-1.19-5.278-1.61-8.636c-.1-.794-.229-1.8-.37-2.871a6.905,6.905,0,0,0,1.142-.283c3.767-1.308,4.951-13.1,4.951-13.1v-3.736S168.261-307.84,163.85-310.377Zm-28.159,91.04c-.117-.059-.185-.1-.185-.1h0Z" fill="url(#linear-gradient-2)"/>
      <path id="Path_157292" data-name="Path 157292" d="M161.569-242.337c1.638,4.714-.274,12.364-1.162,15.78a47.616,47.616,0,0,0-1.159,7.517,15.79,15.79,0,0,1-6.011-.139l1.434-7.03c-1.025-4.167,0-15.3,0-15.3a26.533,26.533,0,0,1-2.527-10.862c-.2-6.457-1.793-8.542-1.85-8.607h0c-3.278,1.708-7.447,20.018-7.447,20.018.342,4.44-.068,11.271-1.434,14.96a18.524,18.524,0,0,0-1.025,7.31,2.253,2.253,0,0,1-1.859.357,12.814,12.814,0,0,1-4.278-2s.739-19.946,1.3-20.7,0-5.056,0-5.056l.886-6.968s-.135-11.82,1.162-13.876c1.121-1.771,1.378-4.881,1.428-5.7a1.665,1.665,0,0,1,.011-.2l1.976-2.368s19.13-1.434,20.564,0a4.082,4.082,0,0,1,.7,2.161,48.9,48.9,0,0,1-.057,8.154s-.573,3.758-1.393,7.586a16.6,16.6,0,0,0,0,6.968A20.809,20.809,0,0,0,161.569-242.337Z" fill="#65617d"/>
      <path id="Path_157293" data-name="Path 157293" d="M160.373-212.379c-.854,1.127-5.875.648-6.731.3-.521-.216-.481-1.2-.34-2.209.089-.644.22-1.3.274-1.778a16.263,16.263,0,0,0-.411-3.724s1.129,1.2,1.4,0a1.3,1.3,0,0,1,.975-.925,2.564,2.564,0,0,1,1.774.111c.886.385,2.368,1.206,2.1,2.316-.37,1.569.957,3.795.957,3.795a1.719,1.719,0,0,1,.248.429A1.64,1.64,0,0,1,160.373-212.379Z" fill="#a27772"/>
      <path id="Path_157294" data-name="Path 157294" d="M160.372-212.379c-.855,1.127-5.876.648-6.731.3-.522-.216-.481-1.2-.34-2.209a5.8,5.8,0,0,0,2.984.32A8.777,8.777,0,0,1,157.36-214a24.806,24.806,0,0,0,3.26-.065A1.641,1.641,0,0,1,160.372-212.379Z" opacity="0.1"/>
      <path id="Path_157295" data-name="Path 157295" d="M142.849-240.969c.342,4.44-.068,11.271-1.434,14.96a18.543,18.543,0,0,0-1.026,7.31,2.252,2.252,0,0,1-1.859.357c.414-2.886,2.169-15.3,3.3-25.1A41.007,41.007,0,0,1,149.1-262.3l1.2,1.315C147.014-259.28,142.849-240.969,142.849-240.969Z" opacity="0.1"/>
      <path id="Path_157296" data-name="Path 157296" d="M158.323-312.771l-.834,4.1L153.4-301.8l-5.038-2.152s-6.845-7.173-2.544-8.2a3.755,3.755,0,0,0,1.428-.636,2.932,2.932,0,0,0,1.11-2.47,7.714,7.714,0,0,0-.7-2.94l8.812-2.775a14.123,14.123,0,0,0-.633,3.571c-.067,2.4.825,3.582,1.556,4.146a2.669,2.669,0,0,0,.927.49Z" fill="#fbbebe"/>
      <path id="Path_157297" data-name="Path 157297" d="M156.478-320.969a14.123,14.123,0,0,0-.633,3.571,6.272,6.272,0,0,1-.513.544,6.967,6.967,0,0,1-6.968,1.591,7.714,7.714,0,0,0-.7-2.94Z" opacity="0.1"/>
      <path id="Path_157298" data-name="Path 157298" d="M157.488-322.1a6.938,6.938,0,0,1-6.969,6.907,6.937,6.937,0,0,1-6.906-6.969,6.938,6.938,0,0,1,6.969-6.907,6.937,6.937,0,0,1,4.877,2.035A6.966,6.966,0,0,1,157.488-322.1Z" fill="#fbbebe"/>
      <path id="Path_157299" data-name="Path 157299" d="M158.323-312.771l-.834,4.1L153.4-301.8l-5.039-2.157s-6.845-7.173-2.544-8.2a3.755,3.755,0,0,0,1.428-.636c-.777,2.137,2.431,6.581,2.431,6.581.37.555,1.23.2,1.23.2,2.065-.311,5.87-6.255,6.49-7.243A2.675,2.675,0,0,0,158.323-312.771Z" opacity="0.1"/>
      <path id="Path_157300" data-name="Path 157300" d="M162.269-273.032c-1.212.276-7.924,1.763-10.47,1.391-2.8-.411-8.246-.683-8.246-.683s-3.467.185-4.535-.3a1.34,1.34,0,0,1,.011-.2l1.976-2.368s19.13-1.434,20.564,0A4.076,4.076,0,0,1,162.269-273.032Z" opacity="0.1"/>
      <path id="Path_157301" data-name="Path 157301" d="M149.681-306.009s-3.6-5-2.245-6.936l-6.089,2.5s-3.665-.444-5,5.025a9.454,9.454,0,0,0-.229,2.775,8.259,8.259,0,0,1-1,4.155c-1.5,3.006-1.161,9.906,1.914,10.59s4.167.34,4.167.34-.409,12.5-2.185,13.937,4.526,1.093,4.526,1.093,5.448.274,8.248.683,10.659-1.433,10.659-1.433-1.162-5.262-1.571-8.609-1.367-10.475-1.367-10.475l6.969-9.436s1.229-5.7-3.075-8.231a48.58,48.58,0,0,0-5.92-3.145s-4.318,7.03-6.572,7.376C150.911-305.8,150.054-305.459,149.681-306.009Z" fill="#7c7cdd"/>
      <path id="Path_157302" data-name="Path 157302" d="M141.686-304.027a10.294,10.294,0,0,0,.341,3.145c.409.89,1.913,5.808,1.913,5.808h-3.413s1.849-1.981,1.708-2.938S141.686-304.027,141.686-304.027Z" opacity="0.1"/>
      <path id="Path_157303" data-name="Path 157303" d="M151.8-287.015s-7.545-1.85-8.248-3.417-2.645-5.086-2.645-5.086l.8-1.073,3.671,2.881s4.373,3.484,6.422,3.826S151.8-287.015,151.8-287.015Z" fill="#fbbebe"/>
      <path id="Path_157304" data-name="Path 157304" d="M151.8-287.015s-7.545-1.85-8.248-3.417-2.645-5.086-2.645-5.086l.8-1.073,3.671,2.881s4.373,3.484,6.422,3.826S151.8-287.015,151.8-287.015Z" opacity="0.05"/>
      <path id="Path_157305" data-name="Path 157305" d="M158.324-295.9v4.092h-.659a19.169,19.169,0,0,0-9.287,2.4l-1.234.686-.331.185L144.7-293.3l1.982-1.776h.1a11.865,11.865,0,0,0,3.469-.078,5.617,5.617,0,0,1,4.375-.555c1.225.313,2.27,1.685,3.458,1.256Z" fill="#fbbebe"/>
      <path id="Path_157306" data-name="Path 157306" d="M164.915-303.342l1.367,1.536v3.724s-1.161,11.747-4.851,13.047-10.274-.753-10.274-.753-1.7-4.509-.907-4.781,7.03-1.92,7.03-1.92-.087-6.894,1.278-8.944c0,0-.888-6.42,2.187-6.557S164.915-303.342,164.915-303.342Z" opacity="0.1"/>
      <path id="Path_157307" data-name="Path 157307" d="M165.121-303.342l1.367,1.536v3.724s-1.158,11.747-4.858,13.047-10.276-.753-10.276-.753-1.7-4.509-.9-4.781,7.031-1.92,7.031-1.92-.089-6.894,1.278-8.944c0,0-.888-6.42,2.187-6.557S165.121-303.342,165.121-303.342Z" fill="#7c7cdd"/>
      <path id="Path_157308" data-name="Path 157308" d="M155.578-319.136a2.705,2.705,0,0,0-.155-1.33,1.03,1.03,0,0,0-1.084-.625c-.585.137-.836.9-1.41,1.08a1.11,1.11,0,0,1-1.24-.64,3.3,3.3,0,0,1-.239-1.48v-1.711a2.817,2.817,0,0,0-.4-1.78,3.138,3.138,0,0,0-2.342-.849,1.989,1.989,0,0,0-1.338.54,1.724,1.724,0,0,1-1.408.5,1.217,1.217,0,0,1-.981-.847v-.022a6.969,6.969,0,0,1,9.761-1.354,6.969,6.969,0,0,1,1.354,9.761,6.864,6.864,0,0,1-.754.844A18.48,18.48,0,0,0,155.578-319.136Z" opacity="0.1"/>
      <path id="Path_157309" data-name="Path 157309" d="M145.954-325.642a1.218,1.218,0,0,1-.981-.849c-.057-.22-.043-.455-.107-.675-.159-.537-.74-.816-1.11-1.223a2.749,2.749,0,0,1-.174-3.145,2.268,2.268,0,0,1,2.185-1.306c.555.1,1.031.49,1.591.525a3.234,3.234,0,0,0,1.523-.492,5.742,5.742,0,0,1,3.776-.335,2.195,2.195,0,0,1,1.04.524,9.023,9.023,0,0,1,.555.779,4.329,4.329,0,0,0,2.794,1.154c1.016.183,2.163.585,2.5,1.562a4.1,4.1,0,0,1-.12,2.024.591.591,0,0,0,.026.416c.159.263.555.154.855.216.577.12.725.862.74,1.451q.038,1.011.055,2.02a1.982,1.982,0,0,1-.642,1.689l-2.255,2.71c-1,1.2-2.063,2.6-1.861,4.154a.963.963,0,0,1-1.185-.673l-.006-.021a3.116,3.116,0,0,1,.074-1.537,18.709,18.709,0,0,0,.357-2.668,2.705,2.705,0,0,0-.155-1.33,1.02,1.02,0,0,0-1.084-.627c-.585.137-.836.9-1.41,1.08a1.112,1.112,0,0,1-1.24-.64,3.287,3.287,0,0,1-.239-1.48v-1.713a2.824,2.824,0,0,0-.4-1.78,3.138,3.138,0,0,0-2.342-.849,1.989,1.989,0,0,0-1.338.54A1.754,1.754,0,0,1,145.954-325.642Z" fill="#7c5c5c"/>
      <path id="Path_157310" data-name="Path 157310" d="M147.529-304.2l2.139,8.788S151.355-295.418,147.529-304.2Z" opacity="0.1"/>
      <path id="Path_157311" data-name="Path 157311" d="M154.839-305.666s-2.8,4.588-1.708,9.33l.522.039S152.722-298.493,154.839-305.666Z" opacity="0.1"/>
      <path id="Path_157312" data-name="Path 157312" d="M156.615-279.7s3.44-1.138,3.69,1.5C160.3-278.2,159.655-280.012,156.615-279.7Z" opacity="0.1"/>
      <path id="Path_157313" data-name="Path 157313" d="M146.675-294.863s-.683,4.783.555,6.7a15.009,15.009,0,0,1-6.013.82l-.417-7.52Z" opacity="0.1"/>
      <path id="Path_157314" data-name="Path 157314" d="M147.143-288.715l-.331.185-2.118-4.77,1.982-1.776h.1C146.746-294.847,146.194-290.739,147.143-288.715Z" opacity="0.1"/>
      <path id="Path_157315" data-name="Path 157315" d="M146.676-295.076s-.683,4.781.555,6.694a15,15,0,0,1-6.013.82l-2.39-7.513Z" fill="#7c7cdd"/>
      <path id="Path_157316" data-name="Path 157316" d="M140.765-215.287a1.543,1.543,0,0,1-1.327,1.352c-1.85.278-6.324.984-7.452,1.521-1.434.683-7.1.205-7.378-.477a1.089,1.089,0,0,1,.1-.821,2.211,2.211,0,0,1,.925-.986,2.329,2.329,0,0,1,.411-.185c1.068-.357,3.084-1.11,3.63-1.906a23.064,23.064,0,0,0,3.23-3.389,1.648,1.648,0,0,1,1.314-.818c.6-.028,1.266.274,1.537,1.586,0,0,3.278,1.87,4.165.229,0,0,.137,2.52.681,3.208h0A.909.909,0,0,1,140.765-215.287Z" fill="#a27772"/>
      <path id="Path_157317" data-name="Path 157317" d="M140.765-215.29a1.543,1.543,0,0,1-1.327,1.352c-1.85.278-6.324.984-7.452,1.521-1.434.683-7.1.205-7.378-.477a1.089,1.089,0,0,1,.1-.821,2.211,2.211,0,0,1,.925-.986c.925.614,2.977,1.214,7.491.509a32.959,32.959,0,0,0,7.476-1.78h0a.91.91,0,0,1,.167.683Z" opacity="0.1"/>
      <g id="Group_167432" data-name="Group 167432" opacity="0.1">
        <path id="Path_157318" data-name="Path 157318" d="M159.41-327v-.033a6.3,6.3,0,0,0,.212-1.552,9.9,9.9,0,0,1-.212,1.245A.78.78,0,0,0,159.41-327Z"/>
        <path id="Path_157319" data-name="Path 157319" d="M155.418-320.606a2.039,2.039,0,0,1,.168.781,2.34,2.34,0,0,0-.168-1.088,1.022,1.022,0,0,0-1.082-.627c-.585.137-.836.9-1.41,1.08a1.112,1.112,0,0,1-1.241-.64,3.232,3.232,0,0,1-.237-1.48v-1.713a2.83,2.83,0,0,0-.4-1.78,3.145,3.145,0,0,0-2.342-.849,1.987,1.987,0,0,0-1.338.54,1.729,1.729,0,0,1-1.408.5,1.218,1.218,0,0,1-.982-.849c-.057-.22-.043-.455-.107-.675-.161-.537-.739-.816-1.109-1.223a2.223,2.223,0,0,1-.576-1.445,2.33,2.33,0,0,0,.576,1.752c.385.407.956.688,1.109,1.225.065.218.05.453.107.673a1.218,1.218,0,0,0,.982.849,1.717,1.717,0,0,0,1.408-.5,1.987,1.987,0,0,1,1.338-.54,3.158,3.158,0,0,1,2.342.849,2.851,2.851,0,0,1,.4,1.78v1.713a3.1,3.1,0,0,0,.237,1.48,1.127,1.127,0,0,0,1.241.64c.574-.185.825-.944,1.41-1.08A1.022,1.022,0,0,1,155.418-320.606Z"/>
        <path id="Path_157320" data-name="Path 157320" d="M161.037-322.487a2.626,2.626,0,0,1-.581.94q-1.128,1.356-2.255,2.71c-.949,1.142-1.956,2.463-1.882,3.919a6.663,6.663,0,0,1,1.882-3.611l2.255-2.709a2.662,2.662,0,0,0,.581-.942,2.592,2.592,0,0,0,.059-.74A1.807,1.807,0,0,1,161.037-322.487Z"/>
        <path id="Path_157321" data-name="Path 157321" d="M155.155-315.377a1.6,1.6,0,0,1-.068-.37,1.842,1.842,0,0,0,.068.673.963.963,0,0,0,1.173.7l.02,0q-.02-.15-.024-.3a.955.955,0,0,1-1.166-.682Z"/>
      </g>
      <path id="Path_157322" data-name="Path 157322" d="M132.446-219.563s.714,1.256,3.3.15" opacity="0.1"/>
      <path id="Path_157323" data-name="Path 157323" d="M154.321-219.254s2.232,2.627,5.044.86" opacity="0.1"/>
      <path id="Path_157324" data-name="Path 157324" d="M160.817-250.331s-1.578.986-1.628,1.55.814-.411.814-.411Z" opacity="0.1"/>
      <path id="Path_157325" data-name="Path 157325" d="M161.445-242.777a3.3,3.3,0,0,1-1.943.759c-1.179.052-1.081,1.589-.311,1.127A19.7,19.7,0,0,0,161.445-242.777Z" opacity="0.1"/>
      <path id="Path_157326" data-name="Path 157326" d="M161.739-241.791s-.757,3.719-1.371,3" opacity="0.1"/>
      <path id="Path_157327" data-name="Path 157327" d="M6.084-224.492s1.016,1.328-.47,3.33-2.71,3.7-2.22,4.951c0,0,2.241-3.726,4.07-3.778S8.092-222.252,6.084-224.492Z" fill="#f06292"/>
      <path id="Path_157328" data-name="Path 157328" d="M6.085-224.492a1.586,1.586,0,0,1,.207.416c1.78,2.091,2.73,4.043,1.019,4.092-1.593.044-3.515,2.9-3.963,3.615a1.555,1.555,0,0,0,.054.163s2.24-3.726,4.07-3.778S8.093-222.252,6.085-224.492Z" opacity="0.1"/>
      <path id="Path_157329" data-name="Path 157329" d="M7.974-222.8c0,.468-.052.847-.117.847s-.118-.379-.118-.847.067-.246.131-.246S7.974-223.263,7.974-222.8Z" fill="#ffd037"/>
      <path id="Path_157330" data-name="Path 157330" d="M8.623-222.24c-.411.224-.77.359-.8.3s.278-.285.688-.509.248-.061.28,0S9.034-222.461,8.623-222.24Z" fill="#ffd037"/>
      <path id="Path_157331" data-name="Path 157331" d="M.715-224.492s-1.016,1.328.47,3.33,2.71,3.7,2.22,4.951c0,0-2.241-3.726-4.07-3.778S-1.291-222.252.715-224.492Z" fill="#f06292"/>
      <path id="Path_157332" data-name="Path 157332" d="M.716-224.492a1.72,1.72,0,0,0-.207.416c-1.78,2.091-2.729,4.043-1.018,4.092,1.595.044,3.515,2.9,3.963,3.615a1.153,1.153,0,0,1-.054.163s-2.241-3.726-4.07-3.778S-1.29-222.252.716-224.492Z" opacity="0.1"/>
      <path id="Path_157333" data-name="Path 157333" d="M-1.173-222.8c0,.468.052.847.117.847s.118-.379.118-.847-.067-.246-.131-.246S-1.173-223.263-1.173-222.8Z" fill="#ffd037"/>
      <path id="Path_157334" data-name="Path 157334" d="M-1.821-222.24c.411.224.768.359.8.3s-.278-.285-.688-.509-.248-.061-.279,0S-2.232-222.461-1.821-222.24Z" fill="#ffd037"/>
      <path id="Path_157335" data-name="Path 157335" d="M-.85-216.379s2.842-.087,3.7-.7,4.37-1.338,4.583-.359,4.27,4.864,1.062,4.89-7.454-.5-8.309-1.021S-.85-216.379-.85-216.379Z" fill="#a8a8a8"/>
      <path id="Path_157336" data-name="Path 157336" d="M8.55-212.886c-3.208.026-7.454-.5-8.309-1.021-.651-.4-.91-1.819-1-2.475H-.85s.185,2.292,1.034,2.812,5.1,1.047,8.309,1.021c.925,0,1.247-.337,1.228-.825C9.594-213.073,9.241-212.892,8.55-212.886Z" opacity="0.2"/>
    </g>
  </g>
</svg>
