<svg xmlns="http://www.w3.org/2000/svg" xmlns:xlink="http://www.w3.org/1999/xlink" width="262" height="196" viewBox="0 0 262 196">
  <defs>
    <linearGradient id="linear-gradient" x1="6.708" y1="4.955" x2="6.718" y2="4.955" gradientUnits="objectBoundingBox">
      <stop offset="0" stop-color="gray" stop-opacity="0.251"/>
      <stop offset="0.54" stop-color="gray" stop-opacity="0.122"/>
      <stop offset="1" stop-color="gray" stop-opacity="0.102"/>
    </linearGradient>
  </defs>
  <g id="card-16" transform="translate(872.218 381.797)">
    <rect id="Rectangle_8569-4" data-name="Rectangle 8569-4" width="262" height="196" transform="translate(-872.218 -381.797)" fill="#f6afc7"/>
    <g id="undraw_group_selfie_ijc6" data-name="undraw group selfie ijc6">
      <path id="Path_156506" data-name="Path 156506" d="M-635.425-326.756a53.053,53.053,0,0,0-8.635-13.767L-763.874-341.7l98.642-13.85a55.968,55.968,0,0,0-20.013-3.963,56.1,56.1,0,0,0-67.011-2.276,55.839,55.839,0,0,0-25.645-6.179c-26.619,0-48.8,18.436-53.776,42.885Z" fill="#ffccde"/>
      <path id="Path_156507" data-name="Path 156507" d="M-631.218-306.254a51.787,51.787,0,0,0-3.734-19.353l-207.643,21.8a52.178,52.178,0,0,0-4.864,12.286l64.314,9.585-65.778,6.982c1.98,27.678,25.707,49.535,54.692,49.535a55.5,55.5,0,0,0,37.672-14.57,55.711,55.711,0,0,0,78.732-2.971,55.693,55.693,0,0,0,8.814-12.64,54.059,54.059,0,0,0,36.043-37.251l-81.313-12.609h83.06C-631.222-305.723-631.218-305.986-631.218-306.254Z" fill="#ffccde"/>
      <path id="Path_156508" data-name="Path 156508" d="M-709.609-206.831s6.573-11.642,16.479-15a20.272,20.272,0,0,0,10.261-7.674,34.354,34.354,0,0,0,3.018-5.434" fill="none" stroke="#535461" stroke-miterlimit="10" stroke-width="2"/>
      <path id="Path_156509" data-name="Path 156509" d="M-673.632-237.1c-1.128,1.093-6.381,2.226-6.381,2.226s1.289-5.215,2.418-6.31a2.846,2.846,0,0,1,4.022.146,2.847,2.847,0,0,1-.059,3.938Z" fill="#f06292"/>
      <path id="Path_156510" data-name="Path 156510" d="M-676.6-227.661c-1.542.307-6.567-1.6-6.567-1.6s3.916-3.677,5.458-3.984a2.846,2.846,0,0,1,3.3,2.3,2.846,2.846,0,0,1-2.193,3.279Z" fill="#f06292"/>
      <path id="Path_156511" data-name="Path 156511" d="M-687.418-217.446c-1.485-.515-4.862-4.7-4.862-4.7s5.24-1.2,6.725-.684a2.847,2.847,0,0,1,1.708,3.646,2.847,2.847,0,0,1-3.571,1.734Z" fill="#f06292"/>
      <path id="Path_156512" data-name="Path 156512" d="M-697.345-211.561c-1.55-.257-5.584-3.807-5.584-3.807s4.961-2.065,6.511-1.809a2.846,2.846,0,0,1,2.41,3.223,2.846,2.846,0,0,1-3.223,2.411l-.114-.019Z" fill="#f06292"/>
      <path id="Path_156513" data-name="Path 156513" d="M-687.545-233.337c0,1.573,2.843,6.133,2.843,6.133s2.847-4.558,2.847-6.128a2.846,2.846,0,0,0-2.9-2.793,2.848,2.848,0,0,0-2.793,2.793Z" fill="#f06292"/>
      <path id="Path_156514" data-name="Path 156514" d="M-699.067-226.307c.469,1.5,4.547,5.006,4.547,5.006s1.354-5.2.884-6.7a2.844,2.844,0,0,0-3.652-1.687,2.845,2.845,0,0,0-1.771,3.387Z" fill="#f06292"/>
      <path id="Path_156515" data-name="Path 156515" d="M-709.327-217.936c.208,1.556,3.638,5.7,3.638,5.7s2.213-4.9,2-6.454a2.847,2.847,0,0,0-3.348-2.237,2.848,2.848,0,0,0-2.285,3Z" fill="#f06292"/>
      <path id="Path_156516" data-name="Path 156516" d="M-673.632-237.1c-1.128,1.093-6.381,2.226-6.381,2.226s1.289-5.215,2.418-6.31a2.846,2.846,0,0,1,4.022.146,2.847,2.847,0,0,1-.059,3.938Z" opacity="0.25"/>
      <path id="Path_156517" data-name="Path 156517" d="M-676.6-227.661c-1.542.307-6.567-1.6-6.567-1.6s3.916-3.677,5.458-3.984a2.846,2.846,0,0,1,3.3,2.3,2.846,2.846,0,0,1-2.193,3.279Z" opacity="0.25"/>
      <path id="Path_156518" data-name="Path 156518" d="M-687.418-217.446c-1.485-.515-4.862-4.7-4.862-4.7s5.24-1.2,6.725-.684a2.847,2.847,0,0,1,1.708,3.646,2.847,2.847,0,0,1-3.571,1.734Z" opacity="0.25"/>
      <path id="Path_156519" data-name="Path 156519" d="M-697.345-211.561c-1.55-.257-5.584-3.807-5.584-3.807s4.961-2.065,6.511-1.809a2.846,2.846,0,0,1,2.41,3.223,2.846,2.846,0,0,1-3.223,2.411l-.114-.019Z" opacity="0.25"/>
      <path id="Path_156520" data-name="Path 156520" d="M-687.545-233.337c0,1.573,2.843,6.133,2.843,6.133s2.847-4.558,2.847-6.128a2.846,2.846,0,0,0-2.9-2.793,2.848,2.848,0,0,0-2.793,2.793Z" opacity="0.25"/>
      <path id="Path_156521" data-name="Path 156521" d="M-699.067-226.307c.469,1.5,4.547,5.006,4.547,5.006s1.354-5.2.884-6.7a2.844,2.844,0,0,0-3.652-1.687,2.845,2.845,0,0,0-1.771,3.387Z" opacity="0.25"/>
      <path id="Path_156522" data-name="Path 156522" d="M-709.327-217.936c.208,1.556,3.638,5.7,3.638,5.7s2.213-4.9,2-6.454a2.847,2.847,0,0,0-3.348-2.237,2.848,2.848,0,0,0-2.285,3Z" opacity="0.25"/>
      <path id="Path_156523" data-name="Path 156523" d="M-709.231-207.062s1.291-13.306,8.969-20.386a20.257,20.257,0,0,0,6.271-11.174,34.1,34.1,0,0,0,.56-6.2" fill="none" stroke="#535461" stroke-miterlimit="10" stroke-width="2"/>
      <path id="Path_156524" data-name="Path 156524" d="M-688.6-249.317c-.588,1.46-4.931,4.622-4.931,4.622s-.934-5.292-.348-6.75a2.846,2.846,0,0,1,3.7-1.576,2.846,2.846,0,0,1,1.576,3.7Z" fill="#f06292"/>
      <path id="Path_156525" data-name="Path 156525" d="M-687.492-239.482c-1.287.9-6.652,1.2-6.652,1.2s2.086-4.95,3.377-5.855a2.846,2.846,0,0,1,3.965.691,2.847,2.847,0,0,1-.69,3.965Z" fill="#f06292"/>
      <path id="Path_156526" data-name="Path 156526" d="M-693.241-225.761c-1.568.131-6.347-2.322-6.347-2.322s4.3-3.219,5.87-3.35a2.846,2.846,0,0,1,3.075,2.6,2.846,2.846,0,0,1-2.6,3.075h0Z" fill="#f06292"/>
      <path id="Path_156527" data-name="Path 156527" d="M-699.935-216.357c-1.523.394-6.648-1.216-6.648-1.216s3.7-3.9,5.215-4.295a2.847,2.847,0,0,1,3.471,2.042,2.846,2.846,0,0,1-2.042,3.47Z" fill="#f06292"/>
      <path id="Path_156528" data-name="Path 156528" d="M-699.8-240.235c.636,1.437,5.083,4.453,5.083,4.453s.757-5.319.121-6.756a2.848,2.848,0,0,0-3.731-1.52,2.848,2.848,0,0,0-1.52,3.731l.036.083Z" fill="#f06292"/>
      <path id="Path_156529" data-name="Path 156529" d="M-707.486-229.14c1.044,1.183,6.185,2.728,6.185,2.728s-.87-5.3-1.907-6.483a2.846,2.846,0,0,0-4.016-.261,2.847,2.847,0,0,0-.262,4.016Z" fill="#f06292"/>
      <path id="Path_156530" data-name="Path 156530" d="M-713.474-217.329c.834,1.339,5.632,3.734,5.632,3.734s.04-5.373-.784-6.713a2.845,2.845,0,0,0-3.914-.934A2.844,2.844,0,0,0-713.474-217.329Z" fill="#f06292"/>
      <ellipse id="Ellipse_2306" data-name="Ellipse 2306" cx="6.959" cy="0.955" rx="6.959" ry="0.955" transform="translate(-851.218 -210.308)" fill="#f5a6c1"/>
      <ellipse id="Ellipse_2307" data-name="Ellipse 2307" cx="6.959" cy="0.955" rx="6.959" ry="0.955" transform="translate(-841.437 -199.805)" fill="#f5a6c1"/>
      <path id="Path_156531" data-name="Path 156531" d="M-830.648-201.021a2.757,2.757,0,0,0,.916-1.383,1.226,1.226,0,0,0-.64-1.406c-.586-.225-1.214.184-1.69.6a2.256,2.256,0,0,1-1.644.793,2.5,2.5,0,0,0,.774-2.342.98.98,0,0,0-.209-.476c-.325-.348-.916-.209-1.306.075-1.252.874-1.587,2.559-1.6,4.078a7.761,7.761,0,0,1-.023-1.669,1.741,1.741,0,0,0-.626-1.485,1.906,1.906,0,0,0-.962-.227,1.983,1.983,0,0,0-1.56.444,1.552,1.552,0,0,0,.06,1.915,6.148,6.148,0,0,0,1.615,1.3,3.584,3.584,0,0,1,1.156,1.1,1.22,1.22,0,0,1,.086.209h3.486a9.8,9.8,0,0,0,2.163-1.514Z" fill="#f06292"/>
      <path id="Path_156532" data-name="Path 156532" d="M-840.3-211.47a2.752,2.752,0,0,0,.916-1.381,1.227,1.227,0,0,0-.64-1.406,1.8,1.8,0,0,0-1.69.592,2.265,2.265,0,0,1-1.644.795,2.5,2.5,0,0,0,.774-2.343.967.967,0,0,0-.209-.476c-.325-.348-.916-.209-1.306.075-1.252.874-1.589,2.559-1.6,4.078a7.869,7.869,0,0,1-.023-1.681,1.728,1.728,0,0,0-.626-1.485,1.906,1.906,0,0,0-.962-.225,1.99,1.99,0,0,0-1.56.442,1.552,1.552,0,0,0,.06,1.917,6.154,6.154,0,0,0,1.615,1.293,3.605,3.605,0,0,1,1.156,1.1,1.138,1.138,0,0,1,.086.2h3.5A9.621,9.621,0,0,0-840.3-211.47Z" fill="#f06292"/>
      <ellipse id="Ellipse_2308" data-name="Ellipse 2308" cx="9.787" cy="1.343" rx="9.787" ry="1.343" transform="translate(-676.796 -199.987)" fill="#f5a6c1"/>
      <path id="Path_156533" data-name="Path 156533" d="M-664.093-213.623s1.312,1.715-.6,4.3-3.5,4.777-2.86,6.389c0,0,2.893-4.808,5.246-4.875S-661.5-210.732-664.093-213.623Z" fill="#f06292"/>
      <path id="Path_156534" data-name="Path 156534" d="M-664.094-213.623a2.127,2.127,0,0,1,.267.538c2.3,2.7,3.521,5.215,1.315,5.279-2.057.058-4.524,3.736-5.115,4.664a1.89,1.89,0,0,0,.068.209s2.9-4.806,5.246-4.873S-661.506-210.732-664.094-213.623Z" opacity="0.1"/>
      <path id="Path_156535" data-name="Path 156535" d="M-661.657-211.44c0,.6-.069,1.093-.152,1.093s-.15-.49-.15-1.093.083-.319.167-.319S-661.657-212.04-661.657-211.44Z" fill="#ffd037"/>
      <path id="Path_156536" data-name="Path 156536" d="M-660.822-210.717c-.53.29-.992.463-1.033.39s.357-.367.886-.655.321-.079.361,0S-660.283-211.005-660.822-210.717Z" fill="#ffd037"/>
      <path id="Path_156537" data-name="Path 156537" d="M-671.022-213.623s-1.312,1.715.6,4.3,3.5,4.777,2.858,6.389c0,0-2.891-4.808-5.246-4.875S-673.61-210.732-671.022-213.623Z" fill="#f06292"/>
      <path id="Path_156538" data-name="Path 156538" d="M-671.022-213.623a2.133,2.133,0,0,0-.269.538c-2.294,2.7-3.518,5.215-1.312,5.279,2.057.058,4.524,3.736,5.115,4.664a1.431,1.431,0,0,1-.071.209s-2.891-4.806-5.24-4.873S-673.611-210.732-671.022-213.623Z" opacity="0.1"/>
      <path id="Path_156539" data-name="Path 156539" d="M-673.46-211.44c0,.6.069,1.093.152,1.093s.15-.49.15-1.093-.083-.319-.167-.319S-673.46-212.04-673.46-211.44Z" fill="#ffd037"/>
      <path id="Path_156540" data-name="Path 156540" d="M-674.3-210.717c.531.29.993.463,1.034.39s-.357-.367-.889-.655-.319-.079-.361,0S-674.825-211.005-674.3-210.717Z" fill="#ffd037"/>
      <path id="Path_156541" data-name="Path 156541" d="M-673.043-203.154s3.667-.113,4.773-.9,5.633-1.725,5.914-.463,5.511,6.277,1.37,6.31-9.617-.645-10.722-1.316S-673.043-203.154-673.043-203.154Z" fill="#a8a8a8"/>
      <path id="Path_156542" data-name="Path 156542" d="M-660.909-198.643c-4.141.033-9.618-.645-10.722-1.316-.834-.511-1.174-2.347-1.287-3.194h-.123s.235,2.958,1.336,3.63,6.583,1.35,10.721,1.316c1.2-.01,1.608-.436,1.586-1.066C-659.566-198.891-660.023-198.643-660.909-198.643Z" opacity="0.2"/>
      <ellipse id="Ellipse_2309" data-name="Ellipse 2309" cx="73.398" cy="9.347" rx="73.398" ry="9.347" transform="translate(-823.591 -215.227)" fill="#f5a6c1"/>
      <path id="Path_156543" data-name="Path 156543" d="M-695.955-293.762a5.742,5.742,0,0,1-.626-2s-1.06-.559-.636-2.313a2.582,2.582,0,0,0-1.2-2.712h0a20.458,20.458,0,0,1-.417-2.937,5.5,5.5,0,0,0-1.2-2.449,6.545,6.545,0,0,0-.5-3.264c-.705-1.21-2.119-3.582-3.886-4.358,0,0-3.755-5.749-4.875-6.2a4.033,4.033,0,0,1-1.41-1.877h0a3.3,3.3,0,0,1,0-.344.361.361,0,0,1,0-.046h0v-.175a4.608,4.608,0,0,0,1.2-1.548,12.226,12.226,0,0,1,.682-3.436h0c.044-.115.088-.227.135-.338s.114-.261.177-.39a13.526,13.526,0,0,0,1.081-2.18c.017-.058.031-.117.046-.173h0a4.584,4.584,0,0,0-.7-3.438,9.673,9.673,0,0,0-2.712-2.637,12.117,12.117,0,0,0-3.442-1.8,6.287,6.287,0,0,0-3.84-.027c-1.229.423-2.295,1.339-3.561,1.669a13.055,13.055,0,0,0-1.608.373,3.422,3.422,0,0,0-1.907,2.545,3.606,3.606,0,0,0-.079.768,2.157,2.157,0,0,0,.144.749,1.069,1.069,0,0,0,.747.718l.115.029.142.029c-.038.075-.079.148-.115.225a7.4,7.4,0,0,0-.688,3.129,7.493,7.493,0,0,0,5.319,7.149l.1.24a8.21,8.21,0,0,1,.3.884c-.914.507-5.04,2.831-6.037,3.99a11.271,11.271,0,0,0-.8-4.435,6.67,6.67,0,0,0-4.007-3.842c-1.043-.313-2.141-.309-3.2-.526-.835-.169-1.628-.474-2.457-.645a5.612,5.612,0,0,0-1-.115,8.8,8.8,0,0,0-1.835-1.5,6.769,6.769,0,0,0-2.1-1.043,11.481,11.481,0,0,0-3.963.194c-1.4.15-2.743-.209-4.12-.131a13.292,13.292,0,0,0-3.546.636,5.2,5.2,0,0,0-.82.378c.017-.027.038-.05.054-.077s.038-.073.056-.111a.773.773,0,0,0,.038-.077c.01-.027.033-.092.048-.14a.394.394,0,0,0,.019-.058,1.386,1.386,0,0,0,.038-.167v-.035a1.4,1.4,0,0,0,.019-.194.019.019,0,0,0,0-.015,2.156,2.156,0,0,0-.035-.526,6.609,6.609,0,0,0-.688-1.652,3.276,3.276,0,0,1-.448-1.715.4.4,0,0,1,.02-.146,1.408,1.408,0,0,1,.035-.171v-.013a1.708,1.708,0,0,1,.048-.169h0c.019-.056.038-.113.058-.169h0c.021-.056.044-.111.067-.167h0l.075-.167h0c.025-.058.052-.115.079-.171.056-.113.111-.225.165-.338s.092-.209.136-.3l.025-.056c.086-.209.163-.417.229-.626a.232.232,0,0,1,.021-.063,6.044,6.044,0,0,0,.159-.626v-.052a4.559,4.559,0,0,0,.063-.64v-.067a3.113,3.113,0,0,0-.236-1.224,4.819,4.819,0,0,0-1.8-1.94,2.935,2.935,0,0,0-1.669-.661c-.715.015-1.343.5-2.053.6a3.1,3.1,0,0,1-1.354-.169c-.99-.311-1.9-.834-2.891-1.135a7.229,7.229,0,0,0-2.941-.28,1.887,1.887,0,0,0-1.144.432,3.3,3.3,0,0,0-.562,1.137,3.311,3.311,0,0,1-1.206,1.481c-.59.4-1.3.6-1.915.955a2.263,2.263,0,0,0-1.126,1.32h0a.808.808,0,0,0-.025.146.164.164,0,0,0,0,.031.771.771,0,0,0,0,.152h0a6.118,6.118,0,0,0,.146.807h0v.046a2.728,2.728,0,0,1-.509,1.819,4.953,4.953,0,0,0-.748,1.3c-.148.033-.3.071-.45.111h-1.556a.417.417,0,0,0-.417.417v.244a45.748,45.748,0,0,0-4.52,2.03s-3.5,4.616-3.869,5.246a1.391,1.391,0,0,0-.111.378h0c-.688.209-1.479,5.97-1.479,5.97s1,1.489,2.109,2.879c.438,1.281,1.729,2.3,1.775,3.995.067,2.57,0,6.715,0,6.715s.991,6.35.28,9.234.129,7.03.34,8.657a29.683,29.683,0,0,1,0,7.186c-.371,1.836-.53,4.67,0,3.673v.417c.01.868.025,2.866,0,3.784-.035,1.189.388,3.427,0,4.266a22.717,22.717,0,0,0-.459,4.9,8.4,8.4,0,0,1-.563,3.638c-.709,1.748,0,8.325,0,8.325s-2.184,4.685-1.516,5.595-1.239.626-1.239.626-.417,4.479-2.474,6.646-5.511,17.418-5.017,21.264a14.6,14.6,0,0,0-1.625,1.819,30.47,30.47,0,0,0-.025,3.64,1.42,1.42,0,0,0-.469.732c-.494,1.923-1.1,5.492-1.1,5.492s-.672,1.992,3.673,2.167,4.274-.559,4.274-.559a28.281,28.281,0,0,1,.142-4.043,16.892,16.892,0,0,0,.209-2.954,1.3,1.3,0,0,1,.294.071c.776.348,1.907-1.043,1.341-2.38s1.554-8.463,1.554-8.463,5.935-11.306,5.935-16.089c0-.348,2.33-3.148,2.616-4.965a17.489,17.489,0,0,1,1.06-3.64s.987,4.827,0,6.715-2.192,16.65-1.272,18.118-.565,3.707-.778,4.126-.494,5.246-.494,5.246h.467l-.186,3.888s7.666-.1,8.97.559,9.255.626,9.255.626,3.673-1.364,1.625-2.764-5.722-1.537-5.722-1.537-3.045-4.174-3.617-4.349c-.382-.117-.974-.6-1.512-.494a11.03,11.03,0,0,1,.524-2.407c1.2-3.917.705-19.028.705-19.028a7.474,7.474,0,0,0,.92-3.148,4.638,4.638,0,0,1,1.412-2.868s4.1-16.788,5.006-20.634c.809-3.4,1.9-7.881,1.41-10.811a.12.12,0,0,0-.015-.067,29.11,29.11,0,0,0-.123-5.753c-.417-1.156-1.16-7.136-1.16-7.136s-.14-.578-.28-1.364l3.594,1.2a4.658,4.658,0,0,1,.234,2.687l-.044.1a3.851,3.851,0,0,0-.29,2.833,12.76,12.76,0,0,1,.3,2.368c.048,1.043.042,2.119.052,2.881v6.577h0v8.252a98.659,98.659,0,0,0,.44,10.386,20,20,0,0,1-.017,4.908h0c-.081.672-.177,1.241-.257,1.669h0c-.094.488-.165.772-.165.772a27.646,27.646,0,0,0-.811,10.544c.688,5.824-.184,4.72-.184,4.72a13.4,13.4,0,0,0,.342,2.939c.265.419-.342,2.2-.342,2.2s.232.209.594.476c-.025.115-.05.236-.073.367a9.4,9.4,0,0,0-.127,2.357c.013.173.017.355.013.547v.24a35.6,35.6,0,0,1-1.658,4.461c-.808,1.721,1.378,3.734,2.457,4.589a1.934,1.934,0,0,0,1.209.417h1.383a1.936,1.936,0,0,0,1.545-.766,5.271,5.271,0,0,0,1.3-2.987,20.578,20.578,0,0,0-1.356-4.589,1.6,1.6,0,0,0,.011-.184,5.149,5.149,0,0,0-.271-1.356l-.433-2.228-.062-.321a2.1,2.1,0,0,0,.177-.336s-.478-2.518,0-3.2,3.23-10.336,3.23-14.27a22.091,22.091,0,0,0,2.175-7.24s0-4.983.795-6.977a60.711,60.711,0,0,0,1.748-7.816l.432,5.455.363,9.443s-.8,3.306,0,4.408.53,4.249.53,4.249l-.582,11.018a10.443,10.443,0,0,1-.265,2.255c-.214.419-.336,5.763-1.171,6.235,0,0,.129.1.344.244-.063.083-.129.175-.209.284a5.753,5.753,0,0,0-.862,2.6,2.1,2.1,0,0,1-.025.238,1.813,1.813,0,0,0-.4.782,1.13,1.13,0,0,0,.133.782c-.363.774-1.731,3.894-.713,4.835.853.786,3.8.561,5.311.384a.973.973,0,0,0,.864-1.03,25.684,25.684,0,0,0-.378-3.129l11.055.282c-1.22.96-2.747,2.4-2.747,2.4a16.787,16.787,0,0,1-3.1,2.176c-1.033.392-1.715,1.969-.3,2.1s6.9.209,6.9.209l.194-.031c.017.33.209.611.745.705,1.325.236,13.406-1.521,13.406-1.521s-.017-.444-.05-1.043a19.772,19.772,0,0,0,6.337-.271,26.888,26.888,0,0,0,4.662-2.238v-.536c0-.328,0-.736-.017-1.191a5.865,5.865,0,0,0-.163-1.562,16.908,16.908,0,0,1-.989-2.687,2.53,2.53,0,0,0,1.715-.985s-1.786-1.539-1.272-1.877.688-1.89.688-1.89a12.267,12.267,0,0,1-.017-7.835c1.4-4.476.017-15.949-.69-16.848s-.282-2.668-.282-2.668c.989-1.608-.972-6.364-.972-6.364s.759-8.256.194-8.995.275-3.473.275-3.473a7.185,7.185,0,0,0,1.074-1.8,4.216,4.216,0,0,0,.761,1.055s.1-.315.223-.834a2.941,2.941,0,0,0,.209.209,19.849,19.849,0,0,0,.778-5.555c-.071-2.8-.282-8.344-.282-8.344l-.013-.676,2.979-3.809s2.758-2.768,2.772-5.307a1.025,1.025,0,0,0,.259-.232C-694.961-291.637-695.422-292.769-695.955-293.762Zm-39.917,6.884.049.864a11.276,11.276,0,0,1-.2-1.154l.154.273Zm24.481-35.081a1.826,1.826,0,0,0,.284-.173l-.269.248a.134.134,0,0,0-.013-.076Zm-42.324-4.512a3.941,3.941,0,0,0-.307.3c-1,1.1-1.325,2.8-2.591,3.588-.359.223-.768.357-1.12.588a3.969,3.969,0,0,0-1.446,2.591,1.812,1.812,0,0,1,.023-.221c-.069.28-.125.563-.177.834a3.306,3.306,0,0,0-.035,1.118c.035.517.221.98.7,1.1.242.061.5,0,.747.048a1.193,1.193,0,0,1,.876,1.024.231.231,0,0,1,0,.052v-.013c0,.056.017.115.021.171a.232.232,0,0,0,0,.038,5.538,5.538,0,0,1-.417,1.408l-.013-.05c-.053.148-.105.3-.148.446a1.286,1.286,0,0,0-.048.665.746.746,0,0,0,.083.371.942.942,0,0,0,.676.417,1.9,1.9,0,0,0,.955-.083,2.129,2.129,0,0,0-.209.74,2.547,2.547,0,0,0-1.93,1.819c-.05.171-.1.34-.156.509-.142.446-.3.887-.457,1.312a5.4,5.4,0,0,0-.209-1.7,25.5,25.5,0,0,1-1.27-3.936V-315.8c0-1.514-2.793-2.562-2.818-2.572a15.263,15.263,0,0,1,.553-2.572c.021-.071.046-.14.069-.209a8.055,8.055,0,0,0,7.326-5.229c.023-.063.042-.125.065-.188a1.977,1.977,0,0,0,.834.163,1.5,1.5,0,0,0,.421-.067Zm-5.29,34.086c0-1.635-.181-3.423-.181-3.423s.027-.363.071-.972c1.029-.914,2.04-1.848,2.472-2.251a2.285,2.285,0,0,0,.209-.209,1.567,1.567,0,0,1,.544.937,3.449,3.449,0,0,1,.024,1.373,12.023,12.023,0,0,0,.476,3.383h0a9.759,9.759,0,0,1,.186,2.424Zm19.191,76.1a14.471,14.471,0,0,1,1.644-5.455c1.483-2.728,3.339-12.382,3.339-12.382a50.9,50.9,0,0,0,.316-6.873,89.306,89.306,0,0,1,.645-9.969c.106.693.181,1.168.184,1.208,0,.134,1.393,5.976,1.836,8.552v11.9a4.762,4.762,0,0,1-.428,1.973l-1.366,3.033a4.288,4.288,0,0,0-.035,3.438c.221.53.35,1,.144,1.06a3.337,3.337,0,0,0-.507.209,1.161,1.161,0,0,0-.225-.175l-4.5,3.673-1.323.179v-.167a.875.875,0,0,0,.286-.206Zm17.785,5.947-.175-.78-.048-.209.417.031s-1.165-5.35-.371-7.607a8.571,8.571,0,0,0,.332-1.679c.04-.325.075-.676.106-1.043.344,1.043.647,2.119.461,2.355-.371.471-.046,3.148.056,3.3s.793,1.043.315,1.8a8.473,8.473,0,0,0-.419,3.093s.121.015.323.031a7.351,7.351,0,0,0-1,.7Zm5.941-1.16c-.032-.058-.065-.119-.1-.177a5.081,5.081,0,0,1,1.7-.159s-1.589-5.814-1.112-7.073-2.016-13.431-3.234-16.212.417-10.544.417-10.544l2.662-7.028,2.2,7.286c-.353,2.023.356,6.37,1.414,7.42a2.4,2.4,0,0,1,.417,3.008c-.43.561.209,5.734.209,5.734a56.188,56.188,0,0,1-.209,7.2,3.551,3.551,0,0,0,.918,3.5c.709.839-.776.77-1.625,1.569a1.312,1.312,0,0,0,0,1.79l.313-.023a4.665,4.665,0,0,1,.284,1.21.724.724,0,0,1-.209.526c-.567.49-1.485,2.9-2.294,3.5-.11.081-.217.167-.319.259a.832.832,0,0,0-.163.035,13.9,13.9,0,0,1-1.291-1.821Zm-59.467-112.694a7.6,7.6,0,0,0,3.6-1.679h2.024a7.885,7.885,0,0,0,.769,1.337c-.019.046-.032.09-.052.138a5.141,5.141,0,0,1-.4.795h0a9.282,9.282,0,0,0-3.6.772,2.505,2.505,0,0,0-.382.265c-.88.753-2.636.757-3.444.713l-.471-.294-.086.382-.049.042.028-3.519ZM-750.9-216.374v.284a2.238,2.238,0,0,1,0-.284Zm0,.325.024.227a2,2,0,0,0-.016-.232Z" fill="url(#linear-gradient)"/>
      <rect id="Rectangle_30592" data-name="Rectangle 30592" width="5.153" height="8.693" transform="translate(-762.848 -287.496) rotate(-71.348)" fill="#d38884"/>
      <path id="Path_156544" data-name="Path 156544" d="M-704.825-270.656s1.252,2.3-1.112,5.284c0,0-.834,2.7-.277,3.438s-.192,8.938-.192,8.938,1.93,4.729.957,6.329a3.806,3.806,0,0,0,.277,2.651c.7.9,2.053,12.3.678,16.748a12.312,12.312,0,0,0,.017,7.787s-.173,1.529-.678,1.877,1.252,1.877,1.252,1.877a2.426,2.426,0,0,1-2.8.834c-1.806-.626-7.021-.209-7.021-.209a1.312,1.312,0,0,1,0-1.777c.834-.795,2.294-.726,1.6-1.56a3.547,3.547,0,0,1-.9-3.477,55.947,55.947,0,0,0,.209-7.161s-.626-5.146-.209-5.7a2.413,2.413,0,0,0-.417-2.991c-1.043-1.043-1.738-5.363-1.391-7.374l-3.892-13-7.649-12.516,11.229-1.619Z" fill="#4c4981"/>
      <path id="Path_156545" data-name="Path 156545" d="M-712.056-319.19v7.927h-10.638l-.277-.778a17.157,17.157,0,0,1,2.434-4.5c.69-.8.369-2.259-.131-3.531a16.118,16.118,0,0,0-1.191-2.38s9.6-6.049,9.109-2.363a12.5,12.5,0,0,0-.1,2.376A7.518,7.518,0,0,0-712.056-319.19Z" fill="#febfba"/>
      <path id="Path_156546" data-name="Path 156546" d="M-712.751-324.822a12.665,12.665,0,0,0-.1,2.376,7.457,7.457,0,0,1-7.82,2.368,16.012,16.012,0,0,0-1.19-2.38S-712.26-328.505-712.751-324.822Z" opacity="0.1"/>
      <path id="Path_156547" data-name="Path 156547" d="M-711.122-327.424A7.428,7.428,0,0,1-718.554-320a7.429,7.429,0,0,1-7.424-7.432,7.429,7.429,0,0,1,7.433-7.424,7.424,7.424,0,0,1,5.246,2.174A7.438,7.438,0,0,1-711.122-327.424Z" fill="#febfba"/>
      <path id="Path_156548" data-name="Path 156548" d="M-721.372-317.471l-3.268,5.215-1.877,14.032v11.5l.416,4.1,7.75.557,3.446-11.579,2.643-11.852,2.849-2.434-6.745-7.649a14.638,14.638,0,0,1-2.771,2.887,1.252,1.252,0,0,1-1.747-.29,1.251,1.251,0,0,1-.154-1.17c.417-1.093.8-2.307.5-2.6a3.006,3.006,0,0,0-1.391-.715" opacity="0.1"/>
      <path id="Path_156549" data-name="Path 156549" d="M-721.58-317.263l-3.269,5.215-1.877,14.032v11.5l.417,4.1,7.749.557,3.446-11.579,2.643-11.852,2.849-2.434-6.744-7.649a14.671,14.671,0,0,1-2.772,2.887,1.252,1.252,0,0,1-1.747-.29,1.248,1.248,0,0,1-.153-1.17c.416-1.093.794-2.307.5-2.6a3.016,3.016,0,0,0-1.391-.715" fill="#e6e8ec"/>
      <path id="Path_156550" data-name="Path 156550" d="M-710.385-268.711h6.744l-.9-4.38-.14-1.911-3.268,2.05Z" opacity="0.1"/>
      <path id="Path_156551" data-name="Path 156551" d="M-710.385-269.128h6.744l-.9-4.38-.14-1.911-3.268,2.05Z" fill="#e6e8ec"/>
      <path id="Path_156552" data-name="Path 156552" d="M-719.981-319.092s-6.12,3.379-6.328,4.422-1.669,8.2-1.669,8.2V-300l6.049-2.217-.346-8.842,2.155-5.28A5.7,5.7,0,0,0-719.981-319.092Z" opacity="0.1"/>
      <path id="Path_156553" data-name="Path 156553" d="M-720.19-319.3s-6.12,3.379-6.329,4.422-1.669,8.2-1.669,8.2v6.466l6.049-2.217-.346-8.842,2.155-5.28A5.689,5.689,0,0,0-720.19-319.3Z" fill="#ff718d"/>
      <path id="Path_156554" data-name="Path 156554" d="M-703.364-271.63a20.009,20.009,0,0,1-.765,5.521c-1.044-.987-1.923-3.911-2.238-5.357-.526,1.781-4.714,4.981-4.714,4.981v.972c-.209,2.712-8.97.834-8.97.834l.557-34.9s.7-6.606-.209-8.6-.626-5.584-.626-5.584a6.059,6.059,0,0,1,1.738-1.946c.9-.486,5.955-5.271,6.114-5.423h0a4.279,4.279,0,0,0,0,.6h0c.129,1.75,1.389,1.863,1.389,1.863,1.112.446,4.8,6.162,4.8,6.162,1.738.77,3.129,3.129,3.824,4.33a6.584,6.584,0,0,1,.488,3.246,5.5,5.5,0,0,1,1.181,2.434,19.7,19.7,0,0,0,.417,2.92l-3.475,8.054.209,11.615S-703.433-274.406-703.364-271.63Z" opacity="0.1"/>
      <path id="Path_156555" data-name="Path 156555" d="M-702.947-272.257a19.973,19.973,0,0,1-.766,5.521c-1.043-.987-1.922-3.911-2.237-5.357-.526,1.781-4.714,4.981-4.714,4.981v.972c-.209,2.712-8.97.834-8.97.834l.046-2.847h0v-.269l.507-31.779s.7-6.606-.209-8.6-.626-5.584-.626-5.584a6.059,6.059,0,0,1,1.738-1.946c.9-.486,5.955-5.271,6.114-5.423h0a4.3,4.3,0,0,0,0,.6h0c.129,1.75,1.389,1.863,1.389,1.863,1.112.446,4.8,6.162,4.8,6.162,1.738.77,3.129,3.129,3.824,4.33a6.573,6.573,0,0,1,.488,3.246,5.5,5.5,0,0,1,1.181,2.434,19.716,19.716,0,0,0,.417,2.92l-3.077,7.146-.39.9.209,11.615S-703.016-275.037-702.947-272.257Z" fill="#ff718d"/>
      <path id="Path_156556" data-name="Path 156556" d="M-704.442-209.017a26.4,26.4,0,0,1-4.589,2.226,19.731,19.731,0,0,1-7.822,0c-1.071-.3-.5-1.337.226-2.165a7.242,7.242,0,0,1,1.024-.964c.8-.592,1.7-2.991,2.261-3.477s-.175-2.19-.175-2.19a8.165,8.165,0,0,1,1.914-1.738c.625-.209,3.718,1.564,3.718,1.564l2.261.382c-.244.313.8,2.92,1.008,3.3a5.877,5.877,0,0,1,.161,1.552C-704.432-209.764-704.442-209.017-704.442-209.017Z" opacity="0.1"/>
      <path id="Path_156557" data-name="Path 156557" d="M-704.442-208.808a26.4,26.4,0,0,1-4.589,2.226,19.731,19.731,0,0,1-7.822,0c-1.071-.3-.5-1.337.226-2.165a7.242,7.242,0,0,1,1.024-.964c.8-.592,1.7-2.991,2.261-3.477s-.175-2.19-.175-2.19a8.165,8.165,0,0,1,1.914-1.738c.625-.209,3.718,1.564,3.718,1.564l2.261.382c-.244.313.8,2.92,1.008,3.3a5.877,5.877,0,0,1,.161,1.552C-704.432-209.555-704.442-208.808-704.442-208.808Z" fill="#626696"/>
      <path id="Path_156558" data-name="Path 156558" d="M-704.442-208.809a26.4,26.4,0,0,1-4.589,2.226,19.731,19.731,0,0,1-7.822,0c-1.071-.3-.5-1.337.226-2.165a69.518,69.518,0,0,0,8.466.044l3.706-1.621C-704.432-209.555-704.442-208.809-704.442-208.809Z" opacity="0.1"/>
      <path id="Path_156559" data-name="Path 156559" d="M-709.483-210.1s-3.093-1.669-4.625-.939S-709.483-210.1-709.483-210.1Z" opacity="0.1"/>
      <path id="Path_156560" data-name="Path 156560" d="M-732.845-247.642v18.513a4.752,4.752,0,0,1-.417,1.961l-1.354,3.01a4.3,4.3,0,0,0-.034,3.415c.208.528.344.995.142,1.053a11.466,11.466,0,0,0-1.669.855s6.744,8.114,9.247,6.1,1.323-15.436,1.323-15.436.14-11.819.277-12.028.348-6.675.348-6.675Z" fill="#4c4981"/>
      <path id="Path_156561" data-name="Path 156561" d="M-710.664-319.092l-6.466,4.908h-2.781a6.068,6.068,0,0,1,1.737-1.946c.9-.486,5.956-5.271,6.115-5.423h0a1.351,1.351,0,0,0,0,.6h0A4.03,4.03,0,0,0-710.664-319.092Z" opacity="0.1"/>
      <path id="Path_156562" data-name="Path 156562" d="M-710.664-319.3l-6.466,4.908h-2.781a6.068,6.068,0,0,1,1.737-1.946c.9-.486,5.956-5.271,6.115-5.423h0a1.351,1.351,0,0,0,0,.6h0A4.03,4.03,0,0,0-710.664-319.3Z" fill="#ff718d"/>
      <path id="Path_156563" data-name="Path 156563" d="M-711.122-327.423a7.426,7.426,0,0,1-2.317,5.4v-.1c.069-1.172-.144.015.209-1.216a1.145,1.145,0,0,0-.388-.991.726.726,0,0,0-.966-.142c-.273.236-.252.693-.515.943a.788.788,0,0,1-1.092-.219.869.869,0,0,1-.051-.088,2.565,2.565,0,0,1-.181-1.335,1.841,1.841,0,0,0-.3-1.3c-.3-.346-.726-.453-.945-.809-.325-.528.038-1.252-.184-1.829a1.4,1.4,0,0,0-1.408-.747c-1.329.065-2.639.964-3.984.428-.53-.209-.909-.753-1.425-.947a3.22,3.22,0,0,0-.659-.154,7.441,7.441,0,0,1,9.871-3.647,7.439,7.439,0,0,1,4.329,6.747Z" opacity="0.1"/>
      <path id="Path_156564" data-name="Path 156564" d="M-726.2-331.516a2.629,2.629,0,0,1-.065-1.506,3.39,3.39,0,0,1,1.877-2.53,11.735,11.735,0,0,1,1.583-.371c1.252-.325,2.28-1.231,3.5-1.656a6.088,6.088,0,0,1,3.782.027,11.909,11.909,0,0,1,3.385,1.783,9.67,9.67,0,0,1,2.66,2.62,4.53,4.53,0,0,1,.642,3.59,13.6,13.6,0,0,1-1.064,2.167,11.226,11.226,0,0,0-.98,4.136c-.031.434-1.817,2.418-2.148,2.03a1.53,1.53,0,0,1-.209-1.1c.069-1.174-.144.013.209-1.216a1.158,1.158,0,0,0-.39-.993.726.726,0,0,0-.964-.142c-.271.234-.255.7-.518.943a.788.788,0,0,1-1.092-.219.876.876,0,0,1-.051-.088,2.526,2.526,0,0,1-.179-1.333,1.82,1.82,0,0,0-.3-1.3c-.3-.346-.726-.453-.943-.807-.325-.53.035-1.252-.185-1.831a1.4,1.4,0,0,0-1.408-.747c-1.328.067-2.639.964-3.985.428-.53-.209-.906-.753-1.424-.945C-725.187-330.853-725.825-330.6-726.2-331.516Z" fill="#36123a"/>
      <path id="Path_156565" data-name="Path 156565" d="M-727.388-211.425l-17.278-.444c-1.043-.576-1.31-1.179-1.208-1.721.19-1,1.625-1.788,1.625-1.788l4.589-.626,4.424-3.65c.707.417.9,1.669.9,1.669s5.667,3.823,6.432,3.963c.383.069.513.72.547,1.352A9.244,9.244,0,0,1-727.388-211.425Z" opacity="0.1"/>
      <path id="Path_156566" data-name="Path 156566" d="M-727.6-211.217l-17.278-.444c-1.043-.576-1.31-1.179-1.208-1.721.19-1,1.625-1.788,1.625-1.788l4.589-.626,4.424-3.65c.707.417.9,1.669.9,1.669s5.669,3.823,6.432,3.963c.383.069.513.72.547,1.352A9.245,9.245,0,0,1-727.6-211.217Z" fill="#626696"/>
      <path id="Path_156567" data-name="Path 156567" d="M-727.6-211.218l-17.278-.444c-1.043-.576-1.31-1.179-1.208-1.721l18.511.92A9.076,9.076,0,0,1-727.6-211.218Z" opacity="0.1"/>
      <g id="Group_167386" data-name="Group 167386" opacity="0.1">
        <path id="Path_156568" data-name="Path 156568" d="M-713.012-323.558a3.928,3.928,0,0,0,.209-.626,1.156,1.156,0,0,0-.391-.993.725.725,0,0,0-.963-.142c-.271.234-.255.7-.518.943a.788.788,0,0,1-1.092-.219.876.876,0,0,1-.051-.088,2.525,2.525,0,0,1-.179-1.333,1.821,1.821,0,0,0-.3-1.3c-.3-.346-.726-.453-.943-.807-.325-.53.036-1.252-.186-1.831a1.4,1.4,0,0,0-1.408-.747c-1.327.067-2.638.964-3.984.428-.53-.209-.907-.753-1.425-.945-.732-.273-1.37-.023-1.742-.943a2.646,2.646,0,0,1-.065-1.506c.013-.06.027-.121.042-.179a4.34,4.34,0,0,0-.25.805,2.655,2.655,0,0,0,.063,1.521c.371.92,1.01.67,1.742.943.517.192.9.734,1.425.945,1.345.536,2.657-.361,3.984-.428a1.387,1.387,0,0,1,1.408.747c.221.582-.14,1.3.186,1.831.209.355.674.49.943.807a1.973,1.973,0,0,1,.3,1.3,2.546,2.546,0,0,0,.179,1.333c.223.4.814.626,1.143.307.263-.248.242-.705.517-.943a.723.723,0,0,1,.964.142A1.151,1.151,0,0,1-713.012-323.558Z"/>
        <path id="Path_156569" data-name="Path 156569" d="M-712.814-321.858a1.534,1.534,0,0,1-.208-1.1,2.271,2.271,0,0,0,0-.582c-.354,1.212-.143.038-.209,1.208a1.49,1.49,0,0,0,.209,1.1c.331.388,2.117-1.6,2.148-2.03,0-.077.015-.156.021-.234C-711.327-322.782-712.544-321.545-712.814-321.858Z"/>
        <path id="Path_156570" data-name="Path 156570" d="M-709.684-328.024a7.989,7.989,0,0,0-.515,1.35,7.411,7.411,0,0,1,.307-.724,14.036,14.036,0,0,0,1.064-2.167c.017-.056.031-.115.044-.173C-709.033-329.147-709.4-328.6-709.684-328.024Z"/>
      </g>
      <path id="Path_156571" data-name="Path 156571" d="M-732.317-226.643a2.347,2.347,0,0,0,1.732,1.564C-729.293-224.9-732.317-226.643-732.317-226.643Z" opacity="0.1"/>
      <path id="Path_156572" data-name="Path 156572" d="M-733.777-219.655s1.252.035,2.486,0S-733.777-219.655-733.777-219.655Z" opacity="0.1"/>
      <path id="Path_156573" data-name="Path 156573" d="M-712.049-234.953a4.745,4.745,0,0,0,2.5-.59C-708.608-236.205-712.049-234.953-712.049-234.953Z" opacity="0.1"/>
      <path id="Path_156574" data-name="Path 156574" d="M-706.035-243.506s-2.469,1.252-1.982,1.773S-706.035-243.506-706.035-243.506Z" opacity="0.1"/>
      <path id="Path_156575" data-name="Path 156575" d="M-707.495-239.647c.173-.1,1.46-.8,1.773-1.494S-707.495-239.647-707.495-239.647Z" opacity="0.1"/>
      <path id="Path_156576" data-name="Path 156576" d="M-750.743-211.764l-1.564.626-2.347.521-2.057-.73-.551-1.669a22.269,22.269,0,0,0,.951-4.985c0-.19,0-.371-.013-.542a9.445,9.445,0,0,1,.125-2.345,8.462,8.462,0,0,1,.344-1.358h3.285l.357,1.852.417,2.215a5.047,5.047,0,0,1,.267,1.348,1.156,1.156,0,0,1-.058.4.421.421,0,0,0-.021.1h0a4.937,4.937,0,0,0,.1,1.091v.015C-751.265-213.827-750.743-211.764-750.743-211.764Z" fill="#b15885"/>
      <path id="Path_156577" data-name="Path 156577" d="M-741-209.47l-5.422-.678s.289-1.062.528-2.5c.09-.54.171-1.135.227-1.746a5.753,5.753,0,0,1,.849-2.58,3.538,3.538,0,0,1,.586-.732l3.232.73s.025.626.035,1.4a11.186,11.186,0,0,1-.192,3.006l-.013.025C-741.449-211.954-741-209.47-741-209.47Z" fill="#b15885"/>
      <path id="Path_156578" data-name="Path 156578" d="M-751.6-216.334l-.013-.728.091.232a1.156,1.156,0,0,1-.058.4A.348.348,0,0,0-751.6-216.334Z" opacity="0.1"/>
      <path id="Path_156579" data-name="Path 156579" d="M-750.743-211.764l-1.564.626-2.347.521-2.057-.73-.551-1.669a22.258,22.258,0,0,0,.951-4.985c.073-.242.113-.382.113-.382l-.417,5.006a1.135,1.135,0,0,0,1.04,1.223c.035,0,.07,0,.105,0l3.039-.044a1.134,1.134,0,0,0,1.119-1.148c0-.034,0-.069-.007-.1l-.184-1.788C-751.265-213.827-750.743-211.764-750.743-211.764Z" opacity="0.1"/>
      <path id="Path_156580" data-name="Path 156580" d="M-756.2-218.174a36.9,36.9,0,0,1-1.769,4.846c-.8,1.711,1.356,3.713,2.418,4.562a1.9,1.9,0,0,0,1.189.417H-753a1.9,1.9,0,0,0,1.523-.759,5.3,5.3,0,0,0,1.279-2.968,22.866,22.866,0,0,0-1.414-4.777l.015.859.282,2.764a1.136,1.136,0,0,1-1.012,1.246.818.818,0,0,1-.1.006l-3.039.042a1.133,1.133,0,0,1-1.149-1.117c0-.036,0-.071,0-.107Z" fill="#626696"/>
      <path id="Path_156581" data-name="Path 156581" d="M-752.569-222.246l.357,1.852c-.88,1.6-3,.252-3.986-.494a8.475,8.475,0,0,1,.344-1.358Z" opacity="0.1"/>
      <path id="Path_156582" data-name="Path 156582" d="M-740.957-215.577c-1.072.5-3.271-.982-3.855-1.4a3.6,3.6,0,0,1,.586-.732l3.233.73S-740.968-216.357-740.957-215.577Z" opacity="0.1"/>
      <path id="Path_156583" data-name="Path 156583" d="M-734.162-254.995c-.469.991-1.46,11.577-1.3,14.237a51.613,51.613,0,0,1-.313,6.831s-1.825,9.6-3.285,12.307a14.51,14.51,0,0,0-1.617,5.423c-1.043,1.147-4.276-1.3-4.276-1.3.834-.469.939-5.788,1.147-6.206a10.508,10.508,0,0,0,.26-2.242l.574-10.951s.261-3.129-.521-4.224,0-4.38,0-4.38l-.359-9.387-.417-5.423a60.319,60.319,0,0,1-1.721,7.77c-.782,1.982-.782,6.936-.782,6.936a22.122,22.122,0,0,1-2.138,7.2c0,3.911-2.711,13.506-3.181,14.184s0,3.181,0,3.181c-1.043,2.555-4.612-.678-4.612-.678s.6-1.773.336-2.19a13.536,13.536,0,0,1-.336-2.92s.857,1.1.179-4.693a27.826,27.826,0,0,1,.8-10.482,21.986,21.986,0,0,0,.434-7.3,99.154,99.154,0,0,1-.434-10.325v-8.2l.87-1.6s19.66-3.077,21.12-1.2a2.874,2.874,0,0,1,.417,1.185C-732.623-265.73-733.75-255.861-734.162-254.995Z" fill="#e6e8ec"/>
      <path id="Path_156584" data-name="Path 156584" d="M-736.093-243.237s-1.825.549-1.9.914C-737.994-242.323-736.273-242.866-736.093-243.237Z" opacity="0.1"/>
      <path id="Path_156585" data-name="Path 156585" d="M-736.327-240.942s-4.408,2.009-6.336-.261A9.228,9.228,0,0,0-736.327-240.942Z" opacity="0.1"/>
      <path id="Path_156586" data-name="Path 156586" d="M-742.052-239.4s4.537.991,5.344,0Z" opacity="0.1"/>
      <path id="Path_156587" data-name="Path 156587" d="M-753.619-244.7s-1.27.657-1.7.263Z" opacity="0.1"/>
      <path id="Path_156588" data-name="Path 156588" d="M-753.482-243.237s-2.039.209-2.086.457S-753.482-243.237-753.482-243.237Z" opacity="0.1"/>
      <path id="Path_156589" data-name="Path 156589" d="M-754.985-266.808s9.151-.079,10.716.521a2.513,2.513,0,0,0,2.687-.7l-2.5,5.5s-1.07-6.335-10.457-3.963Z" opacity="0.1"/>
      <path id="Path_156590" data-name="Path 156590" d="M-755.749-317.542c-.209.334-.417.768-.209,1.1a3.646,3.646,0,0,0,.282.3,1.375,1.375,0,0,1,.245.567,3.848,3.848,0,0,1-.259,3,12.3,12.3,0,0,0-.851,1.154,3.248,3.248,0,0,0-.121,1.98,7.446,7.446,0,0,0,.707,2.378,3.245,3.245,0,0,0,1.817,1.612c.463.142,1.022.184,1.293.584.3.438.127,1.16.578,1.441a1.121,1.121,0,0,0,1.043-.121,1.923,1.923,0,0,0,1.126-.982c.1-.309.042-.672.227-.937.15-.209.417-.317.569-.538a1.136,1.136,0,0,0,.136-.476l.279-2.119a2.24,2.24,0,0,0,.025-.584,2.372,2.372,0,0,0-.766-1.224,4.7,4.7,0,0,1-1.252-1.95c-.3-1.174.244-2.382.334-3.59a1.865,1.865,0,0,0-.057-.713,2.348,2.348,0,0,0-.552-.8,4.2,4.2,0,0,0-.834-.753,3.948,3.948,0,0,0-2.261-.338C-755.036-318.558-755.328-318.2-755.749-317.542Z" fill="#1e1637"/>
      <path id="Path_156591" data-name="Path 156591" d="M-756.21-300.208l-.834,1.564-.209.209c-.939.88-4.67,4.358-5.171,4.449-.574.1-3.5-4.547-3.5-4.547l4.4-3.711.175-.148Z" fill="#b15885"/>
      <path id="Path_156592" data-name="Path 156592" d="M-739.689-304.484l-7.091,2.816s-6.988.834-4.8-3.025a7.281,7.281,0,0,0,.7-1.692,10.286,10.286,0,0,0-.7-6.548s8.24-7.3,7.2-1.877a9.746,9.746,0,0,0,1.946,7.184A17.6,17.6,0,0,0-739.689-304.484Z" fill="#b15885"/>
      <circle id="Ellipse_2310" data-name="Ellipse 2310" cx="6.884" cy="6.884" r="6.884" transform="translate(-755.734 -324.509)" opacity="0.1"/>
      <circle id="Ellipse_2311" data-name="Ellipse 2311" cx="6.884" cy="6.884" r="6.884" transform="translate(-755.734 -324.718)" fill="#b15885"/>
      <path id="Path_156593" data-name="Path 156593" d="M-739.689-304.485l-7.091,2.816s-6.988.834-4.8-3.025a7.281,7.281,0,0,0,.7-1.692,6.519,6.519,0,0,0,4,2.318c2.818.294,3.356-1.842,4.448-3.559a17.568,17.568,0,0,0,2.748,3.141Z" opacity="0.1"/>
      <path id="Path_156594" data-name="Path 156594" d="M-756.21-300.208l-.834,1.564-.209.209-1.149-1-3.154-2.753.033-.06.175-.148Z" opacity="0.1"/>
      <path id="Path_156595" data-name="Path 156595" d="M-733.321-269.455a21.463,21.463,0,0,1-6.367,1.126,16.374,16.374,0,0,0-7.406,1.877c-3.685,1.738-8.64-.972-8.64-.972v-.417l.87-1.6s19.66-3.077,21.12-1.2A2.882,2.882,0,0,1-733.321-269.455Z" opacity="0.1"/>
      <path id="Path_156596" data-name="Path 156596" d="M-731.729-271.387c-.28,2.086-6.189,2.572-7.962,2.641a16.348,16.348,0,0,0-7.405,1.877c-3.686,1.738-8.64-.972-8.64-.972v-.284c0-.814.01-3.208,0-4.875v-1.379c0-.757,0-1.823-.052-2.864a12.726,12.726,0,0,0-.277-2.351,3.866,3.866,0,0,1,.286-2.816l.044-.1c.33-.763-.052-1.946-.33-3.058a9.894,9.894,0,0,1-.209-1.919c-.019-.64,0-1.141,0-1.141a7.538,7.538,0,0,0,.261-4.351h0a12.233,12.233,0,0,1-.469-3.365,3.443,3.443,0,0,0-.021-1.364,1.562,1.562,0,0,0-.536-.93l-1.156-1.008-3.154-2.749s.636-1.145,1.354-2.791a31.814,31.814,0,0,0,1.2-3.171c.054-.167.1-.336.154-.5.972-3.337,6.187-1.391,6.187-1.391a6.33,6.33,0,0,0,5.355,6.606c3.337.348,3.477-2.712,5.127-4.449s7.6,2.712,7.6,2.712.046,1.612-.031,3.769a45.383,45.383,0,0,1-.534,5.749,13.132,13.132,0,0,1-1.1,3.755,7.8,7.8,0,0,0-.417.951,9.2,9.2,0,0,0-.563,3.269q0,.306.021.611a11.228,11.228,0,0,0,.33,2.086,7.562,7.562,0,0,0,.221.724s.186.407.484,1.081c.417.941,1.044,2.4,1.706,3.99.367.9.743,1.834,1.087,2.745.5,1.331.943,2.6,1.206,3.6A5.345,5.345,0,0,1-731.729-271.387Z" fill="#ffcde5"/>
      <path id="Path_156597" data-name="Path 156597" d="M-734.4-301.618a45.383,45.383,0,0,1-.534,5.749,8.912,8.912,0,0,1-1.729.242c-.882.023-1.755-.156-2.638-.179-.948-.025-1.89.129-2.837.186a28.418,28.418,0,0,1-5.655-.417l-1.766-.257a13.343,13.343,0,0,1-1.445-.263c-.4-.1-.784-.24-1.177-.361a21.594,21.594,0,0,0-4.315-.8,1.572,1.572,0,0,0-.537-.93l-1.156-1.008q-.8-2.428-1.592-4.856c-.075-.225-.148-.453-.209-.682a31.8,31.8,0,0,0,1.2-3.171,16.741,16.741,0,0,0,.957,2.415,6.711,6.711,0,0,0,.847,1.37,7.039,7.039,0,0,0,3.25,1.932,44.14,44.14,0,0,0,9.716,1.7,26.944,26.944,0,0,0,3.212.186c.834-.021,1.669-.119,2.5-.209A28.05,28.05,0,0,0-734.4-301.618Z" fill="#ff90c9"/>
      <path id="Path_156598" data-name="Path 156598" d="M-736.463-291.157a9.2,9.2,0,0,0-.563,3.269h-.023a20.238,20.238,0,0,1-2.117.891,9.639,9.639,0,0,1-2.411.273q-1.816.053-3.638.1c-3.711.09-7.5.148-11.055-.87-.019-.64,0-1.141,0-1.141a7.538,7.538,0,0,0,.261-4.351c.361.177.749.453.914.53a15.191,15.191,0,0,0,2.048.786,23.407,23.407,0,0,0,5.678.834A74.7,74.7,0,0,0-738-290.98,11.346,11.346,0,0,0-736.463-291.157Z" fill="#ff90c9"/>
      <path id="Path_156599" data-name="Path 156599" d="M-734.267-279.389c-.318.058-.636.123-.953.188a22.849,22.849,0,0,0-2.589.638c-.771.257-1.512.594-2.294.855a20.083,20.083,0,0,1-5.74.859,64.773,64.773,0,0,1-9.954-.394,12.9,12.9,0,0,0-.277-2.351,3.856,3.856,0,0,1,.286-2.816,22.412,22.412,0,0,1,2.355.417,33.684,33.684,0,0,0,4.823.58,28.232,28.232,0,0,0,2.935-.167l2.407-.221a19.345,19.345,0,0,0,2.221-.292c.711-.15,1.4-.38,2.107-.572.969-.263,1.98-.457,2.958-.713C-735.559-282.438-734.921-280.98-734.267-279.389Z" fill="#ff90c9"/>
      <path id="Path_156600" data-name="Path 156600" d="M-731.974-273.047a18.533,18.533,0,0,0-3.394,1.439c-.834.476-1.635,1.043-2.518,1.443a13.771,13.771,0,0,1-3.016.857q-2.958.576-5.947,1.02a26.86,26.86,0,0,1-8.891.163c0-.814.01-3.208,0-4.875a14.176,14.176,0,0,1,3.4-.019,60.91,60.91,0,0,0,6.218.375,23.642,23.642,0,0,0,3.141-.484l5.893-1.181a2.868,2.868,0,0,0,.922-.3,4.138,4.138,0,0,0,.709-.626,8.1,8.1,0,0,1,2.265-1.408A33.723,33.723,0,0,1-731.974-273.047Z" fill="#ff90c9"/>
      <path id="Path_156601" data-name="Path 156601" d="M-737.307-279.019c.684-.083,1.368.269,2.053.175-.238.365-.736.417-1.166.48a11.974,11.974,0,0,0-1.373.315c-.181.048-1.222.438-1.352.309C-739.456-278.05-737.586-278.986-737.307-279.019Z" opacity="0.1"/>
      <path id="Path_156602" data-name="Path 156602" d="M-736.893-276.745a5.552,5.552,0,0,0-.864.693,4.281,4.281,0,0,1-1.638.847,1.765,1.765,0,0,0,1.992-.152,2.015,2.015,0,0,1,.531-.4c.161-.063.342-.056.5-.123.209-.09.651-.611.534-.866C-735.986-277.075-736.684-276.866-736.893-276.745Z" opacity="0.1"/>
      <path id="Path_156603" data-name="Path 156603" d="M-740.365-284.864c.188.209.509.209.774.311a3.578,3.578,0,0,1,.5.267,2.607,2.607,0,0,0,2.132.173,2.149,2.149,0,0,0-1.026-.96,2.463,2.463,0,0,0-1.179.038,2.106,2.106,0,0,1-.918.017C-740.334-285.089-740.737-285.277-740.365-284.864Z" opacity="0.1"/>
      <path id="Path_156604" data-name="Path 156604" d="M-754.677-325.214c-.987,1.1-1.3,2.778-2.551,3.567-.35.221-.755.355-1.1.584-1.018.674-1.325,2-1.55,3.2-.142.757-.117,1.8.626,1.988.24.06.494,0,.736.048a1.31,1.31,0,0,1,.887,1.473,9.5,9.5,0,0,1-.534,1.8,1.084,1.084,0,0,0,.01.811.929.929,0,0,0,.663.417,2.331,2.331,0,0,0,2.185-1.026,6.043,6.043,0,0,0,.9-2.359,34.919,34.919,0,0,0,.626-4.157,8.757,8.757,0,0,1,.734-3.509,2.578,2.578,0,0,1,2.992-1.391c.794.315,1.367,1.176,2.219,1.212a1.618,1.618,0,0,1,.747.071.977.977,0,0,1,.349.446,10.722,10.722,0,0,1,1.5,5.8c-.136,1.252-.67,2.482-.56,3.744.079.909.493,1.775.487,2.689a9.253,9.253,0,0,1-.661,2.576,8.157,8.157,0,0,0-.225,3.713,2.441,2.441,0,0,0,.44,1.151,1.042,1.042,0,0,0,1.106.39l.321,2.2a.929.929,0,0,0,.148.453c.386.5,1.16-.14,1.786-.069a2.413,2.413,0,0,0,1.959,1.5c.849.169,1.735.106,2.582.286.8.169,1.546.549,2.357.645a3.564,3.564,0,0,0,3.8-3.312c.005-.07.008-.139.009-.209-.052-1.364-.9-2.553-1.345-3.846-1.252-3.642.743-7.833-.588-11.452-.417-1.156-1.166-2.169-1.669-3.3-.8-1.794-1-3.9-2.257-5.407a8.436,8.436,0,0,0-1.847-1.537,6.788,6.788,0,0,0-2.065-1.043,11.043,11.043,0,0,0-3.89.192c-1.375.148-2.7-.209-4.055-.131a12.96,12.96,0,0,0-3.479.626A4.364,4.364,0,0,0-754.677-325.214Z" opacity="0.1"/>
      <path id="Path_156605" data-name="Path 156605" d="M-754.677-325.423c-.987,1.1-1.3,2.778-2.551,3.567-.35.221-.755.355-1.1.584-1.018.674-1.325,2-1.55,3.2-.142.757-.117,1.8.626,1.988.24.06.494,0,.736.048a1.31,1.31,0,0,1,.887,1.473,9.495,9.495,0,0,1-.534,1.8,1.084,1.084,0,0,0,.01.811.929.929,0,0,0,.663.417,2.331,2.331,0,0,0,2.185-1.026,6.043,6.043,0,0,0,.9-2.359,34.918,34.918,0,0,0,.626-4.157,8.757,8.757,0,0,1,.734-3.509,2.578,2.578,0,0,1,2.992-1.391c.794.315,1.367,1.176,2.219,1.212a1.618,1.618,0,0,1,.747.071.977.977,0,0,1,.349.446,10.722,10.722,0,0,1,1.5,5.8c-.136,1.252-.67,2.482-.56,3.744.079.909.493,1.775.487,2.689a9.253,9.253,0,0,1-.661,2.576,8.157,8.157,0,0,0-.225,3.713,2.441,2.441,0,0,0,.44,1.151,1.042,1.042,0,0,0,1.106.39l.321,2.2a.929.929,0,0,0,.148.453c.386.5,1.16-.14,1.786-.069a2.413,2.413,0,0,0,1.959,1.5c.849.169,1.735.106,2.582.286.8.169,1.546.549,2.357.645a3.564,3.564,0,0,0,3.8-3.312c.005-.07.008-.139.009-.209-.052-1.364-.9-2.553-1.345-3.846-1.252-3.642.743-7.833-.588-11.452-.417-1.156-1.166-2.169-1.669-3.3-.8-1.794-1-3.9-2.257-5.407a8.436,8.436,0,0,0-1.847-1.537,6.788,6.788,0,0,0-2.065-1.043,11.044,11.044,0,0,0-3.89.192c-1.375.148-2.7-.209-4.055-.131a12.96,12.96,0,0,0-3.479.626A4.364,4.364,0,0,0-754.677-325.423Z" fill="#1e1637"/>
      <path id="Path_156606" data-name="Path 156606" d="M-756.26-309.616c.172.567.7.947,1.044,1.431a2.544,2.544,0,0,1,.417,1.927c-.209,1.083-1.114,2.086-.816,3.146A2.911,2.911,0,0,0-755-302.1a5.737,5.737,0,0,0,3.169,2.368,1.25,1.25,0,0,0,.625-.025,1.275,1.275,0,0,0,.54-.44,3.179,3.179,0,0,0,.612-2.53,11.024,11.024,0,0,1-.279-1.218,4.735,4.735,0,0,1,.861-2.5,2.929,2.929,0,0,0,.4-2.551,2.88,2.88,0,0,0-1.425-1.208,14.208,14.208,0,0,0-3.963-1.262c-.626-.1-.922-.194-1.37.319A1.681,1.681,0,0,0-756.26-309.616Z" opacity="0.1"/>
      <path id="Path_156607" data-name="Path 156607" d="M-756.26-309.824c.172.567.7.947,1.044,1.431a2.544,2.544,0,0,1,.417,1.927c-.209,1.083-1.114,2.086-.816,3.146a2.911,2.911,0,0,0,.613,1.008,5.737,5.737,0,0,0,3.169,2.368,1.249,1.249,0,0,0,.625-.025,1.275,1.275,0,0,0,.54-.44,3.179,3.179,0,0,0,.612-2.53,11.022,11.022,0,0,1-.279-1.218,4.735,4.735,0,0,1,.861-2.5,2.929,2.929,0,0,0,.4-2.551,2.88,2.88,0,0,0-1.425-1.208,14.208,14.208,0,0,0-3.963-1.262c-.626-.1-.922-.194-1.37.319A1.681,1.681,0,0,0-756.26-309.824Z" fill="#1e1637"/>
      <path id="Path_156608" data-name="Path 156608" d="M-736.676-285.183a1.86,1.86,0,0,1-.524-.209,4.307,4.307,0,0,1-.876-.722,11.256,11.256,0,0,1-1.291-1.46,4.512,4.512,0,0,1-1.01-2.373,1.91,1.91,0,0,1,.815.334,2.976,2.976,0,0,1,.736.753,5.465,5.465,0,0,0,1.043.989,7.392,7.392,0,0,1,.749.559l.023.023A11.124,11.124,0,0,0-736.676-285.183Z" opacity="0.1"/>
      <g id="Group_167387" data-name="Group 167387" opacity="0.1">
        <path id="Path_156609" data-name="Path 156609" d="M-755.116-313.615a2.319,2.319,0,0,1-2.182,1.024.925.925,0,0,1-.665-.417.707.707,0,0,1-.07-.209c-.052.146-.1.294-.149.444a1.1,1.1,0,0,0,.011.811.921.921,0,0,0,.664.417,2.319,2.319,0,0,0,2.182-1.024,6.083,6.083,0,0,0,.9-2.359c.063-.3.12-.6.174-.9A5.7,5.7,0,0,1-755.116-313.615Z"/>
        <path id="Path_156610" data-name="Path 156610" d="M-757.643-314.758a3.567,3.567,0,0,0,.209-.857,1.33,1.33,0,0,0-.889-1.473c-.242-.044-.5.013-.734-.048-.68-.173-.761-1.053-.663-1.779-.067.277-.123.559-.175.834-.142.757-.117,1.8.626,1.988.238.061.492,0,.734.048A1.273,1.273,0,0,1-757.643-314.758Z"/>
        <path id="Path_156611" data-name="Path 156611" d="M-745.27-316.462a1.839,1.839,0,0,1-.034.267,10.778,10.778,0,0,0,.242-1.31,10.8,10.8,0,0,0-1.494-5.8.968.968,0,0,0-.348-.446,1.626,1.626,0,0,0-.749-.071c-.853-.035-1.425-.9-2.219-1.214a2.582,2.582,0,0,0-2.992,1.4,5.744,5.744,0,0,0-.59,2,4.652,4.652,0,0,1,.382-.953,2.583,2.583,0,0,1,2.992-1.393c.794.317,1.366,1.179,2.219,1.214a1.5,1.5,0,0,1,.749.071.982.982,0,0,1,.348.446A10.737,10.737,0,0,1-745.27-316.462Z"/>
        <path id="Path_156612" data-name="Path 156612" d="M-735.322-298.222c-.81-.1-1.558-.476-2.355-.645-.849-.179-1.733-.115-2.582-.286a2.413,2.413,0,0,1-1.959-1.5c-.626-.071-1.4.565-1.786.069a.929.929,0,0,1-.148-.453q-.164-1.1-.321-2.2a1.042,1.042,0,0,1-1.106-.39,2.453,2.453,0,0,1-.442-1.151,8.168,8.168,0,0,1-.044-2.443,8.188,8.188,0,0,0-.165,3.486,2.454,2.454,0,0,0,.442,1.151,1.042,1.042,0,0,0,1.106.39q.159,1.1.321,2.2a.93.93,0,0,0,.148.453c.386.5,1.16-.14,1.786-.069a2.413,2.413,0,0,0,1.959,1.5c.849.169,1.733.106,2.582.286.8.169,1.546.549,2.355.645a3.583,3.583,0,0,0,3.8-3.348A3.589,3.589,0,0,1-735.322-298.222Z"/>
        <path id="Path_156613" data-name="Path 156613" d="M-745.132-311.076c0-.914-.417-1.779-.488-2.689a4.773,4.773,0,0,1,.05-1.139,7.052,7.052,0,0,0-.259,2.182c.079.909.492,1.775.488,2.689a1.328,1.328,0,0,1-.013.209A4.517,4.517,0,0,0-745.132-311.076Z"/>
      </g>
      <path id="Path_156614" data-name="Path 156614" d="M-741-209.47l-5.422-.678s.289-1.062.528-2.5l-.078,1.252a.574.574,0,0,0,.531.609l3.5.277a.577.577,0,0,0,.625-.526v-.991l.1-.626c.015.029.027.063.042.1C-741.449-211.954-741-209.47-741-209.47Z" opacity="0.1"/>
      <path id="Path_156615" data-name="Path 156615" d="M-745.868-212.782s-1.932,3.917-.774,4.981c.834.782,3.737.559,5.227.382a.964.964,0,0,0,.849-1.024,16.113,16.113,0,0,0-.626-3.992l-.1.626v.987a.577.577,0,0,1-.62.529h-.006l-3.5-.275a.578.578,0,0,1-.53-.609Z" fill="#626696"/>
      <path id="Path_156616" data-name="Path 156616" d="M-745.5-318.89a6.835,6.835,0,0,0,.6,2.578,6.243,6.243,0,0,1-.4,4.522,13.2,13.2,0,0,0-.82,1.64,3.227,3.227,0,0,0,2.1,3.942,5.961,5.961,0,0,1,1.316.382,2.659,2.659,0,0,1,1.022,2.47,5.653,5.653,0,0,0,.29,2.764,3.283,3.283,0,0,0,1.819,1.431,6.171,6.171,0,0,0,4.107.065,3.254,3.254,0,0,0,1.224-.69,3.416,3.416,0,0,0,.889-2.161,7.245,7.245,0,0,0-.884-4.228c-.6-1.066-1.46-1.961-2.123-2.981a10.013,10.013,0,0,1-1.621-4.923,18.388,18.388,0,0,0-.159-2.674,4.812,4.812,0,0,0-2.086-3.052c-.519-.334-1.1-.561-1.608-.912s-.755-.932-1.327-.834A3.617,3.617,0,0,0-745.5-318.89Z" fill="#985c7e"/>
      <g id="Group_167388" data-name="Group 167388" opacity="0.1">
        <path id="Path_156617" data-name="Path 156617" d="M-744.873-312.954a6.254,6.254,0,0,0,.182-4.038,6.8,6.8,0,0,1-.6-2.578.6.6,0,0,1,.017-.094,2.375,2.375,0,0,0-.225.72,6.8,6.8,0,0,0,.6,2.578,6.253,6.253,0,0,1,.027,3.413Z"/>
        <path id="Path_156618" data-name="Path 156618" d="M-734.032-300.463a3.246,3.246,0,0,1-1.224.69,6.171,6.171,0,0,1-4.107-.065,3.258,3.258,0,0,1-1.818-1.431,5.763,5.763,0,0,1-.29-2.764,2.7,2.7,0,0,0-1.022-2.472,5.988,5.988,0,0,0-1.316-.38,3.242,3.242,0,0,1-2.171-3.659c-.048.111-.094.225-.133.34a3.227,3.227,0,0,0,2.1,3.945,5.986,5.986,0,0,1,1.316.38,2.669,2.669,0,0,1,1.022,2.472,5.641,5.641,0,0,0,.289,2.764,3.282,3.282,0,0,0,1.819,1.431,6.171,6.171,0,0,0,4.107.065,3.246,3.246,0,0,0,1.224-.69,2.9,2.9,0,0,0,.768-1.45A2.532,2.532,0,0,1-734.032-300.463Z"/>
      </g>
      <path id="Path_156619" data-name="Path 156619" d="M-722.926-209.078l-1.836.678-4.562-1.421.738-1.735.642-1.51,4.2.325.375,1.681Z" fill="#ffd2c6"/>
      <path id="Path_156620" data-name="Path 156620" d="M-715.768-209.261l-2.347,1.172-2.687-.626-.6-2-.382-1.252s4.929-2.217,4.12-1.279c-.323.375-.081,1.091.321,1.813A14.859,14.859,0,0,0-715.768-209.261Z" fill="#ffd2c6"/>
      <path id="Path_156621" data-name="Path 156621" d="M-723.369-211.061l-5.215-.388a.572.572,0,0,0-.013-.108l.643-1.51,4.2.328Z" opacity="0.1"/>
      <path id="Path_156622" data-name="Path 156622" d="M-715.869-255.416l-.526.3-6.883,3.874.521,21.485a89.853,89.853,0,0,1-.3,9.282,8.768,8.768,0,0,1-.328,1.669c-.782,2.242.365,7.562.365,7.562l-5.56-.417a13.04,13.04,0,0,1-.021-3.033c.209-1.206-1.2-8.859-1.2-8.859s-1.146-10.9-1.669-11.212-1.252-3.963-1.252-5.165-1.929-9.387-1.938-9.541-1.043-6.571-1.043-7.614-.665-7.768-.3-9.437c.142-.653.342-1.525.532-2.34.3-1.266.569-2.4.569-2.4s18.2,1.2,19.712,3.648a3,3,0,0,1,.348.943C-714.1-263.308-715.869-255.416-715.869-255.416Z" fill="#ceddf9"/>
      <path id="Path_156623" data-name="Path 156623" d="M-716.51-259.716l.224,4.3-.113.3-6.884,3.88.521,21.485a89.293,89.293,0,0,1-.3,9.282c-.348-1.289-1.043-3.058-1.005-3.233.052-.261-3.077-7.718-4.38-9.126s-2.067-4.8-2.067-4.8.19-6.988.92-7.927,2-12.616,2-12.616Z" opacity="0.1"/>
      <path id="Path_156624" data-name="Path 156624" d="M-717.348-211.438a.979.979,0,0,0-.607.4c-.242.448-2.174.4-3.453.319l-.382-1.252s4.929-2.217,4.12-1.279C-717.994-212.876-717.752-212.16-717.348-211.438Z" opacity="0.1"/>
      <path id="Path_156625" data-name="Path 156625" d="M-727.553-258.542s-.886,12.046-1.617,12.985-.918,7.927-.918,7.927.761,3.39,2.065,4.8,4.433,8.865,4.38,9.126,1.512,4.068,1.147,4.537-.046,3.129.056,3.285.778,1.024.309,1.79a8.617,8.617,0,0,0-.417,3.075s4.224.455,4.589-.223,2.19-.53,2.19-.53-1.564-5.78-1.1-7.032-1.978-13.35-3.177-16.117.417-10.482.417-10.482l3.755-10.013.1-4.589Z" fill="#ceddf9"/>
      <path id="Path_156626" data-name="Path 156626" d="M-736.5-290.317l4.242,2.952.625,6.713v5.876l-.555,2.745-3.76-.277.135-10.874Z" fill="#4c4981"/>
      <path id="Path_156627" data-name="Path 156627" d="M-736.5-290.317l4.242,2.952.625,6.713v5.876l-.555,2.745-3.76-.277.135-10.874Z" opacity="0.1"/>
      <path id="Path_156628" data-name="Path 156628" d="M-739.157-309.109s5.966,5.027,5.633,11.214,5.922-2.849,5.922-2.849l1.669-4.451s-7.409-3.607-6.61-8.273S-739.157-309.109-739.157-309.109Z" fill="#ffd2c6"/>
      <circle id="Ellipse_2312" data-name="Ellipse 2312" cx="6.402" cy="6.402" r="6.402" transform="translate(-743.208 -320.202)" opacity="0.1"/>
      <circle id="Ellipse_2313" data-name="Ellipse 2313" cx="6.402" cy="6.402" r="6.402" transform="translate(-743.208 -320.619)" fill="#ffd2c6"/>
      <path id="Path_156629" data-name="Path 156629" d="M-734.112-302.194s-1.877,2-2.484,2,.519,7.989-.563,9.529.563,4.493.563,4.493l.44,7.883s-1.164,8.73-1,9.109,1.669,0,1.669,0l.659-8.79a68.347,68.347,0,0,1,.069-7.411c.277-1.391-.188-6.218.323-7.351a10.315,10.315,0,0,0,.442-3.425Z" opacity="0.1"/>
      <path id="Path_156630" data-name="Path 156630" d="M-734.32-302.4s-1.877,2-2.484,2,.519,7.989-.563,9.529.563,4.493.563,4.493l.44,7.883s-1.164,8.73-1,9.109,1.669,0,1.669,0l.659-8.79a68.362,68.362,0,0,1,.069-7.411c.277-1.391-.188-6.218.323-7.351a10.315,10.315,0,0,0,.442-3.425Z" fill="#4c4981"/>
      <path id="Path_156631" data-name="Path 156631" d="M-714.843-266.675c-2.57.209-10.553.8-12.065-.071-1.7-.978-7.149-1.562-8.565-2.115.3-1.266.569-2.4.569-2.4s18.2,1.2,19.712,3.648A3.029,3.029,0,0,1-714.843-266.675Z" opacity="0.1"/>
      <path id="Path_156632" data-name="Path 156632" d="M-714.044-267.162s-11.055,1.043-12.864,0-7.895-1.636-8.795-2.226.442-5.922.97-7.061,1.147-1.909,1.066-2.388a4.623,4.623,0,0,1,.417-1.877c.2-.48.7-1.74.7-1.74s-.551-.486,0-1.892.075-.332-1.523-2.418-.582-7.718-.582-7.718l.332-7.916,1.481,1.6,1.758,1.894,2.712,2.9,3.686,1.043,3.615,4.1,3.686,7.689s.357,1.861.937,4.038c.269,1.012.588,2.086.941,3.083C-714.391-272.934-714.044-267.162-714.044-267.162Z" fill="#f86280"/>
      <path id="Path_156633" data-name="Path 156633" d="M-716.445-279.147a27.821,27.821,0,0,0-7.057,4.787c-1.6,1.5-4.518,1.425-4.31,0s-4.034-11.6-4.034-11.6a43.718,43.718,0,0,0-2.028-6.56c-1.252-3.139.611-7.388,1.043-8.285l1.758,1.894,2.712,2.9,3.686,1.043,3.615,4.1,3.686,7.689S-717.021-281.329-716.445-279.147Z" opacity="0.1"/>
      <path id="Path_156634" data-name="Path 156634" d="M-731.012-305.271l-1.534,3.874s-2.522,4.929-1.118,8.456a43.962,43.962,0,0,1,2.028,6.56s4.241,10.179,4.032,11.6,2.712,1.5,4.312,0,6.625-5.476,8.945-5.119a5.076,5.076,0,0,0,3.688-.688s-4.22-5.461-4.011-7.774-1.669-7.87-1.669-7.87a62.54,62.54,0,0,0-1.429-7.557c-.594-1.481-2.589-4.353-4.022-4.03a33.11,33.11,0,0,1-5.814-.025Z" fill="#4c4981"/>
      <path id="Path_156635" data-name="Path 156635" d="M-721.66-237.4s-2.086.939-2.841,1.147S-721.92-236.145-721.66-237.4Z" opacity="0.1"/>
      <path id="Path_156636" data-name="Path 156636" d="M-720.851-236.952s-5.4,1.93-5.19,2.4S-720.851-236.952-720.851-236.952Z" opacity="0.1"/>
      <path id="Path_156637" data-name="Path 156637" d="M-721.66-235.909s-2.19,2.66-1.589,2.816S-721.66-235.909-721.66-235.909Z" opacity="0.1"/>
      <path id="Path_156638" data-name="Path 156638" d="M-731.02-271.735s-3.052.181.521,1.12a7.9,7.9,0,0,0,5.709-.313Z" opacity="0.1"/>
      <circle id="Ellipse_2314" data-name="Ellipse 2314" cx="0.49" cy="0.49" r="0.49" transform="translate(-733.036 -294.422)" fill="#fff"/>
      <circle id="Ellipse_2315" data-name="Ellipse 2315" cx="0.49" cy="0.49" r="0.49" transform="translate(-728.336 -296.378)" fill="#fff"/>
      <circle id="Ellipse_2316" data-name="Ellipse 2316" cx="0.49" cy="0.49" r="0.49" transform="translate(-731.065 -287.855)" fill="#fff"/>
      <circle id="Ellipse_2317" data-name="Ellipse 2317" cx="0.49" cy="0.49" r="0.49" transform="translate(-728.583 -281.353)" fill="#fff"/>
      <path id="Path_156639" data-name="Path 156639" d="M-731.253-294.107h3.651l3.51-2.086.173.795-3.438,1.955h-3.706Z" fill="#fff"/>
      <path id="Path_156640" data-name="Path 156640" d="M-732.547-301.059l3.761.659.023-6.564-2.249,1.694Z" fill="#4c4981"/>
      <path id="Path_156641" data-name="Path 156641" d="M-738.887-318.746a2.809,2.809,0,0,1,1.19-.015,3.473,3.473,0,0,1,1.229.7,4.806,4.806,0,0,1,2.112,2.651c.211,1.137-.443,2.445.065,3.517.361.77,1.279,1.3,1.291,2.149a3.379,3.379,0,0,1-.261,1.012c-.584,1.775.209,3.677.976,5.38A1.888,1.888,0,0,0-730.7-302l1.058.29a1.259,1.259,0,0,0,.584.067c.484-.1.661-.69.726-1.181a10.949,10.949,0,0,1,.34-1.994,2.6,2.6,0,0,1,1.208-1.56c1.21-.6,2.62.25,3.963.277a1.5,1.5,0,0,0,.876-.209,1.383,1.383,0,0,0,.044-1.955c-.014-.016-.029-.03-.044-.045a6.144,6.144,0,0,0-1.934-1.158,6.778,6.778,0,0,1-1.8-1.275,3.228,3.228,0,0,1-.774-1.139,4.938,4.938,0,0,1-.119-1.977,12.377,12.377,0,0,0-.755-5.569,6.594,6.594,0,0,0-3.944-3.819c-1.018-.313-2.1-.309-3.148-.524-.818-.169-1.6-.471-2.42-.638a3.832,3.832,0,0,0-2.451.175c-1.055.521-1.629,1.7-2.622,2.338-.572.365-1.327.6-1.562,1.233-.282.757.365,1.625.094,2.384-.09.248-.269.455-.378.695a.647.647,0,0,0,.063.734.664.664,0,0,0,.338.146,2.036,2.036,0,0,0,2.011-.97A4.164,4.164,0,0,1-738.887-318.746Z" opacity="0.1"/>
      <path id="Path_156642" data-name="Path 156642" d="M-721.885-306.5a1.832,1.832,0,0,0-1.518,1.252,10.042,10.042,0,0,0-.6,4.735c.465,2.4.88,4.7.88,4.7v4.068s.106,3.911.732,4.9-2.451,9.547-2.451,9.547l-2.818,7.968s-4.276,9.752-.365,10.065,3.415-9,3.415-9l4.566-7.964,2.451-5.194a37.382,37.382,0,0,0,.625-7.562c-.054-4.433-.263-8.166-.263-8.166s-1.1-6.9-2.346-8.156A2.969,2.969,0,0,0-721.885-306.5Z" opacity="0.1"/>
      <path id="Path_156643" data-name="Path 156643" d="M-722.3-306.712a1.832,1.832,0,0,0-1.519,1.252,10.041,10.041,0,0,0-.6,4.735c.465,2.4.88,4.7.88,4.7v4.068s.106,3.911.732,4.9-2.451,9.547-2.451,9.547l-2.818,7.968s-4.276,9.752-.365,10.065,3.415-9.005,3.415-9.005l4.566-7.964,2.451-5.194a37.382,37.382,0,0,0,.625-7.562c-.054-4.433-.263-8.166-.263-8.166s-1.1-6.9-2.346-8.156A2.969,2.969,0,0,0-722.3-306.712Z" fill="#ffd2c6"/>
      <path id="Path_156644" data-name="Path 156644" d="M-738.679-318.955a2.814,2.814,0,0,1,1.191-.015,3.474,3.474,0,0,1,1.229.7,4.8,4.8,0,0,1,2.111,2.651c.211,1.137-.442,2.445.065,3.517.362.77,1.279,1.3,1.292,2.149a3.379,3.379,0,0,1-.261,1.012c-.584,1.775.209,3.678.976,5.38a1.888,1.888,0,0,0,1.589,1.348l1.058.29a1.257,1.257,0,0,0,.583.067c.485-.1.662-.69.727-1.181a10.955,10.955,0,0,1,.34-1.994,2.6,2.6,0,0,1,1.208-1.56c1.21-.6,2.62.25,3.963.277a1.5,1.5,0,0,0,.876-.209,1.382,1.382,0,0,0,.044-1.955c-.014-.016-.029-.03-.044-.045a6.145,6.145,0,0,0-1.934-1.158,6.776,6.776,0,0,1-1.8-1.274,3.229,3.229,0,0,1-.774-1.139,4.943,4.943,0,0,1-.119-1.978,12.377,12.377,0,0,0-.755-5.569,6.6,6.6,0,0,0-3.945-3.819c-1.018-.313-2.1-.309-3.149-.524-.817-.169-1.6-.471-2.419-.638a3.832,3.832,0,0,0-2.451.175c-1.055.521-1.63,1.7-2.622,2.338-.573.365-1.328.6-1.562,1.233-.282.757.364,1.625.094,2.384-.091.248-.269.455-.378.7a.648.648,0,0,0,.062.734.672.672,0,0,0,.339.146,2.034,2.034,0,0,0,2.01-.97A4.167,4.167,0,0,1-738.679-318.955Z" fill="#985c7e"/>
      <g id="Group_167389" data-name="Group 167389" opacity="0.1">
        <path id="Path_156645" data-name="Path 156645" d="M-722.168-306.877c-1.35-.027-2.76-.878-3.963-.277a2.326,2.326,0,0,0-1.026,1.085,1.988,1.988,0,0,1,.6-.467c1.211-.6,2.62.25,3.963.277a1.479,1.479,0,0,0,.876-.209.962.962,0,0,0,.4-.613A1.512,1.512,0,0,1-722.168-306.877Z"/>
        <path id="Path_156646" data-name="Path 156646" d="M-728.412-302.421a1.248,1.248,0,0,1-.584-.065l-1.06-.292a2.542,2.542,0,0,1-1.018-.453,2.516,2.516,0,0,1-.572-.9c-.772-1.7-1.558-3.6-.976-5.38a3.108,3.108,0,0,0,.263-1.01c-.013-.851-.93-1.381-1.293-2.151-.5-1.072.152-2.349-.063-3.515a4.742,4.742,0,0,0-2.113-2.653,3.545,3.545,0,0,0-1.227-.7,2.889,2.889,0,0,0-1.193.015,4.085,4.085,0,0,0-2.441,1.068,2.03,2.03,0,0,1-2.008.97.688.688,0,0,1-.341-.144.651.651,0,0,1-.062-.736c.109-.24.234-.834-.04-.069-.088.248-.267.455-.378.7a.646.646,0,0,0,.063.736.681.681,0,0,0,.34.144,2.033,2.033,0,0,0,2.009-.97,4.08,4.08,0,0,1,2.441-1.068,2.889,2.889,0,0,1,1.193-.015,3.551,3.551,0,0,1,1.226.7,4.815,4.815,0,0,1,2.113,2.653c.211,1.139-.442,2.443.063,3.515.363.77,1.281,1.3,1.293,2.151a3.135,3.135,0,0,1-.263,1.01c-.581,1.775.209,3.68.976,5.38a2.505,2.505,0,0,0,.573.895,2.53,2.53,0,0,0,1.018.453l1.06.292a1.245,1.245,0,0,0,.584.065.925.925,0,0,0,.625-.713A.618.618,0,0,1-728.412-302.421Z"/>
      </g>
      <path id="Path_156647" data-name="Path 156647" d="M-725.588-209.82a17,17,0,0,1-3.026-2.238c-.265-.538-4.153,3.162-4.153,3.162a16.582,16.582,0,0,1-3.05,2.163c-1.016.39-1.687,1.957-.3,2.086s6.788.209,6.788.209l4.641-.6,2.9-.511-.549-4.272S-725.343-209.23-725.588-209.82Z" fill="#cc8294"/>
      <path id="Path_156648" data-name="Path 156648" d="M-718.778-209.236s-2.447-2.294-3.45-1.752a26.057,26.057,0,0,0-3.36,2.9s-2.226,1.852-2.823,2.27-1.3,1.825,0,2.059,13.193-1.512,13.193-1.512-.148-4.337-.549-4.4S-717.909-208.766-718.778-209.236Z" fill="#cc8294"/>
      <path id="Path_156649" data-name="Path 156649" d="M-703.432-292.154l.209,11.615-5.287,6.823-1.237,1.738s-3.77,7.718-8.6,5.355a1.858,1.858,0,0,1-1.237-1.527h0a1.511,1.511,0,0,1,0-.269c.245-2.9,7.25-7.165,7.25-7.165s5.076-8.83,5.423-8.984,1.946-4.852,1.946-4.852l.7-3.369a9.3,9.3,0,0,1,1.224-.257Z" opacity="0.1"/>
      <path id="Path_156650" data-name="Path 156650" d="M-704.481-293.216l-.7,3.369s-1.6,4.7-1.948,4.852-5.422,8.984-5.422,8.984-10.847,6.606-6.018,8.97,8.606-5.355,8.606-5.355l1.237-1.738L-700.307-285s4.032-4.088,2.295-6.869S-704.481-293.216-704.481-293.216Z" fill="#febfba"/>
      <path id="Path_156651" data-name="Path 156651" d="M-702.042-301.391l1.877,1.391a2.6,2.6,0,0,1,1.181,2.712c-.416,1.746.626,2.295.626,2.295a5.788,5.788,0,0,0,.626,1.986c.557,1.074,1.043,2.295,0,2.831s-7.647.538-7.647.538.487-.442-1.043-2.307-3.269-4.03-3.408-5.346-2.015-4.862-1.806-5.841-.067-4.552-.017-5.471.989-3.463,1.823-3.237,3.826-1.483,5.772,2.295A20.932,20.932,0,0,1-702.042-301.391Z" opacity="0.1"/>
      <path id="Path_156652" data-name="Path 156652" d="M-701.834-301.6l1.877,1.391a2.6,2.6,0,0,1,1.182,2.712c-.417,1.746.625,2.3.625,2.3a5.789,5.789,0,0,0,.626,1.986c.557,1.074,1.043,2.3,0,2.831s-7.647.538-7.647.538.487-.442-1.043-2.307-3.269-4.03-3.408-5.346-2.015-4.862-1.806-5.841-.067-4.552-.017-5.471.989-3.463,1.823-3.237,3.826-1.483,5.772,2.3A20.932,20.932,0,0,1-701.834-301.6Z" fill="#ff718d"/>
      <path id="Path_156653" data-name="Path 156653" d="M-761.476-323.191a10.017,10.017,0,0,0-1.448,2.97,20.755,20.755,0,0,0-.481,8.4l-6.154-2.822s-5.006-4.38-2.19-6.414a5.93,5.93,0,0,0,2.124-2.6,4.212,4.212,0,0,0,.327-1.986S-758.347-327.467-761.476-323.191Z" fill="#d38884"/>
      <path id="Path_156654" data-name="Path 156654" d="M-761.476-323.191a9.97,9.97,0,0,0-1.448,2.97h-.169a7.926,7.926,0,0,1-6.533-3.438,4.238,4.238,0,0,0,.328-1.986S-758.347-327.467-761.476-323.191Z" opacity="0.1"/>
      <path id="Path_156655" data-name="Path 156655" d="M-755.167-328.354a7.926,7.926,0,0,1-7.915,7.938,7.927,7.927,0,0,1-7.938-7.916,7.926,7.926,0,0,1,7.915-7.938,7.916,7.916,0,0,1,3.325.726A7.926,7.926,0,0,1-755.167-328.354Z" fill="#d38884"/>
      <path id="Path_156656" data-name="Path 156656" d="M-755.165-328.353a7.888,7.888,0,0,1-.48,2.724h-.013a4.905,4.905,0,0,1-1.406-1.174l-1.927-2.071a2.125,2.125,0,0,0-1.416-.874c-.286,0-.588.106-.845-.019s-.363-.459-.484-.732a2.4,2.4,0,0,0-2.182-1.345,1.152,1.152,0,0,0-1.108.471,5.913,5.913,0,0,1-.995,1.46,2.346,2.346,0,0,1-1.877.684.65.65,0,0,0-.507.044.5.5,0,0,0-.142.269c-.136.532-.1,1.093-.19,1.633a1.563,1.563,0,0,1-.9,1.283,1.266,1.266,0,0,1-1.081-.209,7.928,7.928,0,0,1,5.463-9.79,7.927,7.927,0,0,1,9.79,5.463,7.921,7.921,0,0,1,.3,2.17Z" opacity="0.1"/>
      <path id="Path_156657" data-name="Path 156657" d="M-761.737-330.716c.121.275.209.6.484.734s.559.017.845.019a2.126,2.126,0,0,1,1.415.874l1.927,2.071a4.875,4.875,0,0,0,1.408,1.172,1.485,1.485,0,0,0,2.051-.453,1.48,1.48,0,0,0,.149-1.291,6.793,6.793,0,0,0-.675-1.644,3.343,3.343,0,0,1-.442-1.7,4.45,4.45,0,0,1,.551-1.529,4.589,4.589,0,0,0,.4-3.652,4.76,4.76,0,0,0-1.771-1.927,2.888,2.888,0,0,0-1.635-.657c-.7.015-1.321.5-2.02.6a3.024,3.024,0,0,1-1.333-.167c-.972-.309-1.877-.834-2.845-1.128a7.044,7.044,0,0,0-2.9-.277,1.833,1.833,0,0,0-1.124.428,3.259,3.259,0,0,0-.553,1.131,3.3,3.3,0,0,1-1.187,1.473c-.582.4-1.277.594-1.877.949a2.031,2.031,0,0,0-1.145,1.654q.057.428.154.847a2.71,2.71,0,0,1-.5,1.809c-.382.588-.924,1.214-.753,1.894.121.482.561.8.889,1.17.394.451.636,1.018,1.018,1.481a1.5,1.5,0,0,0,1.569.626,1.555,1.555,0,0,0,.9-1.281c.094-.54.054-1.1.19-1.633a.52.52,0,0,1,.142-.271c.136-.111.334-.067.507-.042a2.346,2.346,0,0,0,1.877-.684,6.152,6.152,0,0,0,1-1.46,1.148,1.148,0,0,1,1.106-.469,2.4,2.4,0,0,1,2.178,1.341Z" fill="#1e1637"/>
      <g id="Group_167390" data-name="Group 167390" opacity="0.1">
        <path id="Path_156658" data-name="Path 156658" d="M-771.864-333.812c-.028-.19-.081-.375-.118-.563a1.315,1.315,0,0,0-.037.342,6.356,6.356,0,0,0,.145.8A2.156,2.156,0,0,0-771.864-333.812Z"/>
        <path id="Path_156659" data-name="Path 156659" d="M-754.025-333.094a4.515,4.515,0,0,0-.552,1.529,1.993,1.993,0,0,0,.019.482,5.244,5.244,0,0,1,.532-1.385,5.566,5.566,0,0,0,.626-2.749,6.222,6.222,0,0,1-.626,2.123Z"/>
        <path id="Path_156660" data-name="Path 156660" d="M-753.915-326.58a1.663,1.663,0,0,1-1.744.108,4.881,4.881,0,0,1-1.406-1.172l-1.927-2.071a2.126,2.126,0,0,0-1.415-.874c-.287,0-.589.106-.845-.019s-.364-.459-.485-.734a2.4,2.4,0,0,0-2.182-1.343,1.156,1.156,0,0,0-1.108.469,5.888,5.888,0,0,1-.995,1.46,2.346,2.346,0,0,1-1.877.684c-.173-.025-.371-.069-.507.042a.5.5,0,0,0-.142.271c-.135.532-.1,1.093-.19,1.633a1.313,1.313,0,0,1-1.277,1.348,1.315,1.315,0,0,1-1.193-.693c-.382-.453-.626-1.03-1.02-1.481a3.387,3.387,0,0,1-.873-1.131,1.11,1.11,0,0,0-.013.586c.118.482.561.8.886,1.17.4.451.638,1.018,1.02,1.481a1.5,1.5,0,0,0,1.569.626,1.556,1.556,0,0,0,.9-1.281c.094-.54.054-1.1.19-1.633a.5.5,0,0,1,.142-.271c.136-.111.334-.067.507-.042a2.346,2.346,0,0,0,1.877-.684,6.1,6.1,0,0,0,.995-1.46,1.153,1.153,0,0,1,1.108-.469,2.4,2.4,0,0,1,2.182,1.343c.121.275.21.6.484.734s.559.017.845.019a2.125,2.125,0,0,1,1.416.874l1.927,2.071a4.9,4.9,0,0,0,1.406,1.172,1.663,1.663,0,0,0,1.744-.108,1.7,1.7,0,0,0,.471-1.531,1.456,1.456,0,0,1-.471.9Z"/>
      </g>
      <path id="Path_156661" data-name="Path 156661" d="M-776.408-210.915l-.244,5.179s7.546-.1,8.83.557,9.109.626,9.109.626,3.615-1.356,1.6-2.747-5.632-1.529-5.632-1.529-2.991-4.1-3.546-4.276-1.564-1.147-2.19.173a9.381,9.381,0,0,1-2.357,2.643Z" fill="#4c4981"/>
      <path id="Path_156662" data-name="Path 156662" d="M-759.339-261.395c-.9,3.824-4.937,20.511-4.937,20.511a4.641,4.641,0,0,0-1.389,2.851,7.447,7.447,0,0,1-.905,3.129s.488,15.019-.7,18.913c-1.139,3.755-.086,3.567,0,3.546l-3.4,2.779-6.258.069s.277-4.8.486-5.215,1.669-2.641.766-4.1.277-16.133,1.252-18.01,0-6.675,0-6.675a17.627,17.627,0,0,0-1.043,3.617c-.28,1.806-2.574,4.589-2.574,4.935,0,4.754-5.841,15.993-5.841,15.993s-2.086,7.092-1.529,8.413-.557,2.712-1.32,2.365-6.884,0-6.884,0-.14-4.172,0-4.52a15.352,15.352,0,0,1,1.6-1.809c-.486-3.824,2.92-18.982,4.937-21.137s2.424-6.6,2.424-6.6,1.878.28,1.22-.626,1.491-5.561,1.491-5.561-.7-6.537,0-8.275a8.387,8.387,0,0,0,.555-3.615,22.93,22.93,0,0,1,.453-4.869c.382-.834-.035-3.058,0-4.241.027-.912.013-2.9,0-3.755v-.417l.521-3.269,2.363-6.118,8.623,2.017,6.466,1.252s3.684,3.824,4.727,6.6a5.609,5.609,0,0,1,.275,1.074C-757.473-269.228-758.532-264.768-759.339-261.395Z" fill="#c4e0ff"/>
      <path id="Path_156663" data-name="Path 156663" d="M-789.375-209.977s-4.241-.384-4.73,1.529-1.075,5.459-1.075,5.459-.662,1.982,3.614,2.155,4.207-.557,4.207-.557a28.519,28.519,0,0,1,.138-4.018,17.194,17.194,0,0,0,.21-2.937S-787.734-210.707-789.375-209.977Z" fill="#4c4981"/>
      <path id="Path_156664" data-name="Path 156664" d="M-757.951-272.142c-.056,1.65-.136,3.029-.136,3.029s-3,.052-2.933-7.979c0,0-.665,6.1-1.4,6.258s-1.043-.939-3.546-.782-5.684-1.1-6.049-2.347-4.8-4.693-5.476-4.537-.835,2.712-.835,2.712a11.574,11.574,0,0,0-2.6,2.5v-.417l.521-3.269,2.363-6.118,8.623,2.017,6.466,1.252s3.684,3.824,4.727,6.6A5.77,5.77,0,0,1-757.951-272.142Z" opacity="0.1"/>
      <path id="Path_156665" data-name="Path 156665" d="M-758.086-269.53s-3,.052-2.934-7.979c0,0-.665,6.1-1.4,6.258s-1.043-.939-3.545-.782-5.684-1.1-6.05-2.347-4.8-4.693-5.476-4.537-.834,2.712-.834,2.712a11.826,11.826,0,0,0-2.607,2.5c-.521.991-.365-1.825,0-3.65a29.747,29.747,0,0,0,0-7.144c-.209-1.617-1.043-5.736-.336-8.6s-.275-9.178-.275-9.178.067-4.12,0-6.675-2.935-3.546-1.475-6.258,5.267-5.945,5.267-5.945,2.66.313,3.807-.678a2.5,2.5,0,0,1,.375-.263,9.069,9.069,0,0,1,3.546-.768l3.855,3.94a39.482,39.482,0,0,1,2.034,5.006.546.546,0,0,1,0,.127l.661-3.874s2.774,1.043,2.774,2.557v2.451a24.7,24.7,0,0,0,1.252,3.911c.626,1.252-.313,13.506-.313,13.506a27.936,27.936,0,0,1,.052,5.371,16.206,16.206,0,0,0,.477,4.85s.724,5.945,1.141,7.092S-758.086-269.53-758.086-269.53Z" fill="#ffd765"/>
      <path id="Path_156666" data-name="Path 156666" d="M-766.327-261.639s-.974,5.6-2.712,8.1a84.425,84.425,0,0,0-4.449,8.1" opacity="0.1"/>
      <rect id="Rectangle_30593" data-name="Rectangle 30593" width="11.95" height="4.866" rx="2" transform="translate(-775.538 -329.987)" fill="#3a3768"/>
      <circle id="Ellipse_2318" data-name="Ellipse 2318" cx="0.505" cy="0.505" r="0.505" transform="translate(-766.424 -328.057)" fill="#e6e8ec"/>
      <path id="Path_156667" data-name="Path 156667" d="M-775.714-311.093s-4.1,1.252-5.527.313-4.12-5.006-4.12-5.006.778-5.726,1.459-5.935.335,5.423.335,5.423.974,2.174,1.339,2.174,2.868-.313,3.181-.939a35.765,35.765,0,0,0,.834-4.485l.417-1.877,2.086,1.3,1.617,4.007Z" fill="#ffd765"/>
      <path id="Path_156668" data-name="Path 156668" d="M-781.157-313.9a2.971,2.971,0,0,1-3.129-2.8c-.005-.108-.005-.217,0-.325a28.6,28.6,0,0,1,.489-5.056c.364-.626,3.807-5.215,3.807-5.215s10.9-5.788,9.752-1.252a6.987,6.987,0,0,1-5.632,5.111l-2.034-1.043-.052,6.571S-778.413-314.1-781.157-313.9Z" fill="#d38884"/>
      <path id="Path_156669" data-name="Path 156669" d="M-780.2-248.253s-.626,1.389,1.669,1.806S-780.2-248.253-780.2-248.253Z" opacity="0.1"/>
      <path id="Path_156670" data-name="Path 156670" d="M-782.909-242.553s.209,2.712,1.39,3.269S-782.909-242.553-782.909-242.553Z" opacity="0.1"/>
      <path id="Path_156671" data-name="Path 156671" d="M-773.487-236.017a1.969,1.969,0,0,0,.658,2.157C-771.717-233.1-773.487-236.017-773.487-236.017Z" opacity="0.1"/>
      <path id="Path_156672" data-name="Path 156672" d="M-773.486-237.755a2.022,2.022,0,0,0,1.773,2.086" opacity="0.1"/>
      <path id="Path_156673" data-name="Path 156673" d="M-774.289-229.828s1.283,1.669,1.685,1.529S-774.289-229.828-774.289-229.828Z" opacity="0.1"/>
      <path id="Path_156674" data-name="Path 156674" d="M-764.136-208.761s-4.241-.209-3.2.834,3.2-.417,3.2-.417Z" opacity="0.1"/>
      <path id="Path_156675" data-name="Path 156675" d="M-793.2-205.463s5.353-.943,5.006,0S-793.2-205.463-793.2-205.463Z" opacity="0.1"/>
      <path id="Path_156676" data-name="Path 156676" d="M-780.615-308.469s3.463.486,4.86-.486,1.815.626.834,1.389S-780.615-308.469-780.615-308.469Z" opacity="0.1"/>
      <path id="Path_156677" data-name="Path 156677" d="M-780.129-304.3c1.114.14.868,1.46,2.868.277S-780.129-304.3-780.129-304.3Z" opacity="0.1"/>
      <path id="Path_156678" data-name="Path 156678" d="M-779.728-299.081s4.709.766,5.631-1.529" opacity="0.1"/>
      <path id="Path_156679" data-name="Path 156679" d="M-764.137-313.71v.167l-9.428-8.344a9.052,9.052,0,0,1,3.546-.768l3.855,3.94A39.574,39.574,0,0,1-764.137-313.71Z" opacity="0.1"/>
      <path id="Path_156680" data-name="Path 156680" d="M-764.137-313.918v.167l-9.428-8.344a9.07,9.07,0,0,1,3.546-.768l3.855,3.94A39.574,39.574,0,0,1-764.137-313.918Z" fill="#ffd765"/>
      <path id="Path_156681" data-name="Path 156681" d="M-781.172-311.04s5.563-.478,5.632-5.038C-775.54-316.082-774.593-310.972-781.172-311.04Z" opacity="0.1"/>
      <circle id="Ellipse_2319" data-name="Ellipse 2319" cx="0.444" cy="0.444" r="0.444" transform="translate(-764.476 -314.196)" fill="#fff"/>
    </g>
  </g>
</svg>
