<svg xmlns="http://www.w3.org/2000/svg" width="262" height="196" viewBox="0 0 262 196">
  <g id="card-21" transform="translate(-2575 -5317)">
    <rect id="Rectangle_8569" data-name="Rectangle 8569" width="262" height="196" transform="translate(2575 5317)" fill="#ffc5c5"/>
    <g id="Group_167642" data-name="Group 167642" transform="translate(2586 5333.028)">
      <path id="Path_158056" data-name="Path 158056" d="M284.947,154.452l-10.4,12.881,8.289-14.361a20.776,20.776,0,0,0-4.013-1.909,20.666,20.666,0,1,0-41.212-1.128l18.784,1.236-18.454,1.658a20.7,20.7,0,0,0,9.151,13.59l10.283-6.672-8.552,7.667a20.708,20.708,0,0,0,2.626,1.13A20.662,20.662,0,0,0,265.2,190.073a20.664,20.664,0,0,0,28.111,21.272,7.088,7.088,0,0,0,.956,2.278,6.786,6.786,0,0,0,2.616,2.424,7.059,7.059,0,0,0,3.713,5.82,7.072,7.072,0,0,0,3.713,5.817,7.067,7.067,0,0,0,3.711,5.822,6.811,6.811,0,0,0,1.1,3.393c1.678,2.628,4.667,3.721,6.676,2.447s2.276-4.451.6-7.082a6.818,6.818,0,0,0-2.612-2.429,7.071,7.071,0,0,0-3.719-5.826,7.067,7.067,0,0,0-3.715-5.818,7.059,7.059,0,0,0-3.713-5.818,6.809,6.809,0,0,0-1.1-3.393,7.056,7.056,0,0,0-1.631-1.807,20.662,20.662,0,0,0-7.322-34.573,20.678,20.678,0,0,0-7.632-18.148Z" transform="translate(-191.49 -128.39)" fill="#fbd9dc"/>
      <path id="Path_158057" data-name="Path 158057" d="M624.952,189.662l-1.856,1.177,1.128-2.049a1.835,1.835,0,0,0-1.124-.408h-.029a2.2,2.2,0,0,1-.385-.029l-.63.408.271-.491a2.243,2.243,0,0,1-1.1-.834l-1.126.714.712-1.293a3.3,3.3,0,0,0-2.522-1.276,3.456,3.456,0,0,0-2.887,1.782,2.155,2.155,0,0,1-1.909,1.02h-.063c-1.293,0-2.341,1.466-2.341,3.263s1.048,3.273,2.341,3.273a1.758,1.758,0,0,0,.816-.2,3.377,3.377,0,0,1,2.832-.055,2.961,2.961,0,0,0,2.408,0,3.381,3.381,0,0,1,2.808.055,1.755,1.755,0,0,0,.816.2c1.293,0,2.341-1.464,2.341-3.273a4.135,4.135,0,0,0-.5-1.982Z" transform="translate(-488.829 -173.941)" fill="#fbd9dc"/>
      <path id="Path_158058" data-name="Path 158058" d="M621.447,211.146a3.466,3.466,0,0,0-2,.218,2.961,2.961,0,0,1-2.408,0,3.381,3.381,0,0,0-2.834.055,1.743,1.743,0,0,1-.816.2c-1.15,0-2.1-1.156-2.3-2.681a2.229,2.229,0,0,0,.575-.612,3.229,3.229,0,0,1,5.76-.02,2.212,2.212,0,0,0,1.909,1.048h.031A2.376,2.376,0,0,1,621.447,211.146Z" transform="translate(-488.821 -190.635)" opacity="0.03"/>
      <path id="Path_158059" data-name="Path 158059" d="M961.952,150.662l-1.856,1.177,1.128-2.049a1.835,1.835,0,0,0-1.124-.408h-.029a2.2,2.2,0,0,1-.385-.029l-.63.408.271-.491a2.243,2.243,0,0,1-1.1-.834l-1.126.714.712-1.293a3.3,3.3,0,0,0-2.522-1.276,3.456,3.456,0,0,0-2.887,1.782,2.155,2.155,0,0,1-1.909,1.02h-.063c-1.293,0-2.341,1.466-2.341,3.263s1.048,3.273,2.341,3.273a1.758,1.758,0,0,0,.816-.2,3.377,3.377,0,0,1,2.832-.055,2.961,2.961,0,0,0,2.408,0,3.381,3.381,0,0,1,2.808.055,1.755,1.755,0,0,0,.816.2c1.293,0,2.341-1.464,2.341-3.273A4.135,4.135,0,0,0,961.952,150.662Z" transform="translate(-757.112 -142.893)" fill="#fbd9dc"/>
      <path id="Path_158060" data-name="Path 158060" d="M958.447,172.146a3.467,3.467,0,0,0-2,.218,2.961,2.961,0,0,1-2.408,0,3.381,3.381,0,0,0-2.834.055,1.744,1.744,0,0,1-.816.2c-1.15,0-2.1-1.156-2.3-2.681a2.229,2.229,0,0,0,.575-.612,3.229,3.229,0,0,1,5.76-.02,2.212,2.212,0,0,0,1.909,1.048h.031A2.376,2.376,0,0,1,958.447,172.146Z" transform="translate(-757.104 -159.587)" opacity="0.03"/>
      <path id="Path_158061" data-name="Path 158061" d="M788.258,235.469l2.989,1.9-1.811-3.293a2.952,2.952,0,0,1,1.8-.642h.047a3.479,3.479,0,0,0,.612-.045l1.009.64-.438-.787a3.625,3.625,0,0,0,1.768-1.342l1.809,1.146-1.13-2.078a5.289,5.289,0,0,1,4.052-2.039,5.561,5.561,0,0,1,4.639,2.855,3.466,3.466,0,0,0,3.059,1.654h.1c2.076,0,3.758,2.353,3.758,5.257s-1.682,5.259-3.758,5.259a2.826,2.826,0,0,1-1.311-.328,5.422,5.422,0,0,0-4.549-.088,4.747,4.747,0,0,1-3.874,0,5.432,5.432,0,0,0-4.51.088,2.834,2.834,0,0,1-1.295.32c-2.078,0-3.76-2.353-3.76-5.259A6.684,6.684,0,0,1,788.258,235.469Z" transform="translate(-629.242 -208.451)" fill="#fbd9dc"/>
      <path id="Path_158062" data-name="Path 158062" d="M818.89,269.912a5.579,5.579,0,0,1,3.222.351,4.747,4.747,0,0,0,3.874,0,5.426,5.426,0,0,1,4.551.088,2.818,2.818,0,0,0,1.309.328c1.845,0,3.379-1.858,3.7-4.309a3.555,3.555,0,0,1-.922-1,5.188,5.188,0,0,0-9.255-.024,3.556,3.556,0,0,1-3.059,1.682h-.047C820.782,267.018,819.51,268.2,818.89,269.912Z" transform="translate(-654.257 -235.192)" opacity="0.03"/>
      <ellipse id="Ellipse_2516" data-name="Ellipse 2516" cx="120" cy="4.282" rx="120" ry="4.282" transform="translate(0 122.572)" fill="#3f3d56"/>
      <rect id="Rectangle_30774" data-name="Rectangle 30774" width="170.059" height="92.982" rx="20.42" transform="translate(34.97 31.781)" fill="#f2f2f2"/>
      <path id="Path_158063" data-name="Path 158063" d="M353.059,288.524v2.361H183v-2.361a4.164,4.164,0,0,1,4.164-4.164H348.9A4.164,4.164,0,0,1,353.059,288.524Z" transform="translate(-148.03 -252.579)" fill="#3f3d56"/>
      <circle id="Ellipse_2517" data-name="Ellipse 2517" cx="1.223" cy="1.223" r="1.223" transform="translate(38.131 33.922)" fill="#e57373"/>
      <circle id="Ellipse_2518" data-name="Ellipse 2518" cx="1.223" cy="1.223" r="1.223" transform="translate(41.189 33.922)" fill="#e57373"/>
      <circle id="Ellipse_2519" data-name="Ellipse 2519" cx="1.223" cy="1.223" r="1.223" transform="translate(44.248 33.922)" fill="#e57373"/>
      <path id="Path_158064" data-name="Path 158064" d="M347.5,503.86" transform="translate(-278.987 -427.321)" fill="none" stroke="#f2f2f2" stroke-miterlimit="10" stroke-width="2"/>
      <path id="Path_158065" data-name="Path 158065" d="M333.5,502.86" transform="translate(-267.842 -426.525)" fill="none" stroke="#f2f2f2" stroke-miterlimit="10" stroke-width="2"/>
      <rect id="Rectangle_30775" data-name="Rectangle 30775" width="19.575" height="15.905" rx="2" transform="translate(60.867 49.114)" fill="#fff"/>
      <rect id="Rectangle_30776" data-name="Rectangle 30776" width="19.575" height="15.905" rx="2" transform="translate(83.704 49.114)" fill="#e57373"/>
      <rect id="Rectangle_30777" data-name="Rectangle 30777" width="19.575" height="15.905" rx="2" transform="translate(106.542 49.114)" fill="#fff"/>
      <rect id="Rectangle_30778" data-name="Rectangle 30778" width="19.575" height="15.905" rx="2" transform="translate(129.38 49.114)" fill="#fff"/>
      <rect id="Rectangle_30779" data-name="Rectangle 30779" width="19.575" height="15.905" rx="2" transform="translate(152.217 49.114)" fill="#e57373"/>
      <rect id="Rectangle_30780" data-name="Rectangle 30780" width="19.575" height="15.905" rx="2" transform="translate(60.867 75.826)" fill="#fff"/>
      <rect id="Rectangle_30781" data-name="Rectangle 30781" width="19.575" height="15.905" rx="2" transform="translate(83.704 75.826)" fill="#fff"/>
      <rect id="Rectangle_30782" data-name="Rectangle 30782" width="19.575" height="15.905" rx="2" transform="translate(106.542 75.826)" fill="#e57373"/>
      <rect id="Rectangle_30783" data-name="Rectangle 30783" width="19.575" height="15.905" rx="2" transform="translate(129.38 75.826)" fill="#fff"/>
      <rect id="Rectangle_30784" data-name="Rectangle 30784" width="19.575" height="15.905" rx="2" transform="translate(152.217 75.826)" fill="#fff"/>
      <rect id="Rectangle_30785" data-name="Rectangle 30785" width="19.575" height="15.905" rx="2" transform="translate(60.867 102.538)" fill="#fff"/>
      <rect id="Rectangle_30786" data-name="Rectangle 30786" width="19.575" height="15.905" rx="2" transform="translate(83.704 102.538)" fill="#fff"/>
      <rect id="Rectangle_30787" data-name="Rectangle 30787" width="19.575" height="15.905" rx="2" transform="translate(106.542 102.538)" fill="#fff"/>
      <rect id="Rectangle_30788" data-name="Rectangle 30788" width="19.575" height="15.905" rx="2" transform="translate(129.38 102.538)" fill="#ecc"/>
      <rect id="Rectangle_30789" data-name="Rectangle 30789" width="19.575" height="15.905" rx="2" transform="translate(152.217 102.538)" fill="#fff"/>
      <path id="Path_158066" data-name="Path 158066" d="M489.482,350.315l-1.032-1.038a.546.546,0,0,0-.777,0L481.2,355.7l-2.738-2.761a.542.542,0,0,0-.771,0l-1.042,1.03a.555.555,0,0,0,0,.779l4.158,4.19a.555.555,0,0,0,.779,0l7.9-7.842a.546.546,0,0,0,0-.779Z" transform="translate(-381.672 -304.13)" fill="#3acc6c"/>
      <path id="Path_158067" data-name="Path 158067" d="M829.482,350.315l-1.032-1.038a.547.547,0,0,0-.777,0L821.2,355.7l-2.738-2.761a.542.542,0,0,0-.771,0l-1.042,1.03a.555.555,0,0,0,0,.779l4.158,4.19a.555.555,0,0,0,.779,0l7.9-7.842a.546.546,0,0,0,0-.779Z" transform="translate(-652.343 -304.13)" fill="#3acc6c"/>
      <path id="Path_158068" data-name="Path 158068" d="M601.482,480.315l-1.032-1.038a.546.546,0,0,0-.777,0L593.2,485.7l-2.739-2.761a.542.542,0,0,0-.771,0l-1.042,1.03a.555.555,0,0,0,0,.779l4.158,4.19a.555.555,0,0,0,.779,0l7.9-7.842a.547.547,0,0,0,0-.779Z" transform="translate(-470.834 -407.621)" fill="#3acc6c"/>
      <path id="Path_158069" data-name="Path 158069" d="M712.482,616.315l-1.032-1.038a.546.546,0,0,0-.777,0L704.2,621.7l-2.738-2.761a.542.542,0,0,0-.771,0l-1.042,1.02a.555.555,0,0,0,0,.779l4.158,4.19a.555.555,0,0,0,.779,0l7.9-7.842A.546.546,0,0,0,712.482,616.315Z" transform="translate(-559.2 -515.89)" fill="#3acc6c"/>
      <path id="Path_158070" data-name="Path 158070" d="M1002.922,650.19c-.612-1.124.082-2.5.875-3.5s1.756-2.039,1.735-3.322c-.031-1.835-1.978-2.92-3.534-3.893a17.131,17.131,0,0,1-3.173-2.551,4.648,4.648,0,0,1-.975-1.305,5.291,5.291,0,0,1-.294-2.318q.1-3.927.389-7.848" transform="translate(-796.486 -524.117)" fill="none" stroke="#3f3d56" stroke-miterlimit="10" stroke-width="4"/>
      <path id="Path_158071" data-name="Path 158071" d="M984.989,614.1a2.855,2.855,0,0,1,1.427-2.345l.64,1.268-.02-1.535a2.9,2.9,0,0,1,.944-.114,2.855,2.855,0,1,1-2.991,2.726Z" transform="translate(-786.484 -512.905)" fill="#57b894"/>
      <path id="Path_158072" data-name="Path 158072" d="M1008.758,703.484a2.855,2.855,0,1,0-.139-2.3l1.788,1.454-1.968-.455A2.855,2.855,0,0,0,1008.758,703.484Z" transform="translate(-805.156 -582.925)" fill="#57b894"/>
      <path id="Path_158073" data-name="Path 158073" d="M1006.342,670.186a2.855,2.855,0,0,0,.9-5.605l.016,1.179-.648-1.283h0a2.855,2.855,0,0,0-2.991,2.724,2.822,2.822,0,0,0,.122.977A2.855,2.855,0,0,0,1006.342,670.186Z" transform="translate(-801.312 -555.184)" fill="#57b894"/>
      <path id="Path_158074" data-name="Path 158074" d="M972.23,647.537a2.855,2.855,0,1,0-1.266-5.357l.506,1.387-1.04-1a2.855,2.855,0,0,0-.924,1.976,2.811,2.811,0,0,0,.071.789,2.855,2.855,0,0,0,2.653,2.2Z" transform="translate(-774.157 -537.157)" fill="#57b894"/>
      <path id="Path_158075" data-name="Path 158075" d="M985.614,620.975c.661.071,1.3.277,1.966.318a2.138,2.138,0,0,0,1.811-.632,8.849,8.849,0,0,0,.528-.932,2.039,2.039,0,0,1,.722-.679,2.855,2.855,0,1,1-5.351,1.9Q985.453,620.957,985.614,620.975Z" transform="translate(-786.726 -519.023)" fill="#4ea585"/>
      <path id="Path_158076" data-name="Path 158076" d="M972.547,653.9a2.855,2.855,0,0,0,2.722-4.078,2.115,2.115,0,0,0-.575.575,9.343,9.343,0,0,1-.567.946,2.344,2.344,0,0,1-1.9.665c-.691-.031-1.358-.228-2.039-.292-.1,0-.192-.014-.29-.016A2.855,2.855,0,0,0,972.547,653.9Z" transform="translate(-774.474 -543.518)" fill="#4ea585"/>
      <path id="Path_158077" data-name="Path 158077" d="M1006.85,676.759a2.855,2.855,0,0,0,2.745-4.029,2.34,2.34,0,0,0-.612.581c-.222.314-.361.675-.612.964a2.65,2.65,0,0,1-2.025.712c-.73-.016-1.393-.19-2.1-.245A2.855,2.855,0,0,0,1006.85,676.759Z" transform="translate(-801.82 -561.757)" fill="#4ea585"/>
      <path id="Path_158078" data-name="Path 158078" d="M1010,710.625a2.858,2.858,0,1,0,5.218-2.335,2.773,2.773,0,0,0-.628.561,12.425,12.425,0,0,1-.767,1.02,3.565,3.565,0,0,1-2.371.834A12.223,12.223,0,0,1,1010,710.625Z" transform="translate(-806.398 -590.066)" fill="#4ea585"/>
      <path id="Path_158079" data-name="Path 158079" d="M1012.251,735.666a8.274,8.274,0,0,1-2.94-.555c-.681-.485-3.466-1.062-3.642-.286s-3.4,3.874-.846,3.887,5.926-.408,6.607-.816S1012.251,735.666,1012.251,735.666Z" transform="translate(-801.497 -610.888)" fill="#656380"/>
      <path id="Path_158080" data-name="Path 158080" d="M1004.811,743.183c2.551.02,5.926-.4,6.6-.816.518-.316.724-1.446.793-1.968h.076s-.143,1.823-.816,2.243-4.056.832-6.607.816c-.736,0-.989-.267-.975-.655C1003.984,743.032,1004.263,743.173,1004.811,743.183Z" transform="translate(-801.531 -615.628)" fill="#514f67"/>
      <path id="Path_158081" data-name="Path 158081" d="M164.9,599.455c-.9-1.656.12-3.687,1.287-5.165s2.59-3.014,2.561-4.894c-.045-2.706-2.916-4.3-5.212-5.738a25.41,25.41,0,0,1-4.678-3.76,6.891,6.891,0,0,1-1.427-1.925,7.8,7.8,0,0,1-.43-3.422q.147-5.791.571-11.572" transform="translate(-127.321 -474.386)" fill="none" stroke="#3f3d56" stroke-miterlimit="10" stroke-width="4"/>
      <path id="Path_158082" data-name="Path 158082" d="M138.392,546.188a4.217,4.217,0,0,1,2.106-3.466l.946,1.87-.029-2.263a4.221,4.221,0,1,1-3.024,3.852Z" transform="translate(-112.514 -457.807)" fill="#57b894"/>
      <path id="Path_158083" data-name="Path 158083" d="M173.473,677.993a4.219,4.219,0,1,0-.2-3.4l2.634,2.143-2.9-.671A4.2,4.2,0,0,0,173.473,677.993Z" transform="translate(-140.069 -561.052)" fill="#57b894"/>
      <path id="Path_158084" data-name="Path 158084" d="M169.829,628.883a4.221,4.221,0,0,0,1.338-8.279l.022,1.737-.956-1.89h-.01a4.221,4.221,0,1,0-.394,8.432Z" transform="translate(-134.341 -520.135)" fill="#57b894"/>
      <path id="Path_158085" data-name="Path 158085" d="M119.563,595.446a4.223,4.223,0,0,0,4.413-4.019,4.168,4.168,0,0,0-.408-2,4.215,4.215,0,0,0-5.879-1.878l.744,2.039-1.533-1.472a4.221,4.221,0,0,0,2.651,7.326Z" transform="translate(-94.319 -493.514)" fill="#57b894"/>
      <path id="Path_158086" data-name="Path 158086" d="M139.329,556.366c.973.108,1.921.408,2.9.471a3.142,3.142,0,0,0,2.669-.934,13.1,13.1,0,0,0,.781-1.372,3.012,3.012,0,0,1,1.062-1,4.221,4.221,0,1,1-7.889,2.8C139.009,556.338,139.17,556.35,139.329,556.366Z" transform="translate(-112.882 -466.863)" fill="#4ea585"/>
      <path id="Path_158087" data-name="Path 158087" d="M120,604.889a4.223,4.223,0,0,0,4.413-4.019,4.168,4.168,0,0,0-.408-2,3.138,3.138,0,0,0-.848.848,13.488,13.488,0,0,1-.836,1.395,3.466,3.466,0,0,1-2.8.979c-1.018-.041-2-.334-3.016-.428-.141-.012-.283-.022-.426-.026A4.219,4.219,0,0,0,120,604.889Z" transform="translate(-94.755 -502.957)" fill="#4ea585"/>
      <path id="Path_158088" data-name="Path 158088" d="M170.558,638.622a4.219,4.219,0,0,0,4.048-5.942,3.4,3.4,0,0,0-.891.858,14.877,14.877,0,0,1-.918,1.427,3.907,3.907,0,0,1-2.987,1.048c-1.044-.024-2.051-.279-3.089-.359A4.223,4.223,0,0,0,170.558,638.622Z" transform="translate(-135.069 -529.873)" fill="#4ea585"/>
      <path id="Path_158089" data-name="Path 158089" d="M175.32,688.554a4.221,4.221,0,0,0,7.693-3.444,4.261,4.261,0,0,0-.928.816,18.042,18.042,0,0,1-1.13,1.5,5.265,5.265,0,0,1-3.495,1.223A18.149,18.149,0,0,1,175.32,688.554Z" transform="translate(-141.916 -571.612)" fill="#4ea585"/>
      <path id="Path_158090" data-name="Path 158090" d="M178.615,725.491s-3.33-.1-4.335-.816-5.122-1.568-5.371-.422-5.006,5.709-1.246,5.732,8.737-.585,9.739-1.2S178.615,725.491,178.615,725.491Z" transform="translate(-134.673 -602.329)" fill="#656380"/>
      <path id="Path_158091" data-name="Path 158091" d="M167.639,736.587c3.76.031,8.737-.585,9.739-1.195.763-.465,1.068-2.133,1.168-2.9h.112s-.2,2.685-1.213,3.3-5.979,1.223-9.739,1.2c-1.085,0-1.46-.4-1.44-.966C166.416,736.364,166.824,736.58,167.639,736.587Z" transform="translate(-134.708 -609.331)" fill="#514f67"/>
      <path id="Path_158092" data-name="Path 158092" d="M849.666,689.613a.986.986,0,0,0-.065.267c-.324,2.135-2.19,3.711-2.871,5.76a5.526,5.526,0,0,0,.241,4.052,1.339,1.339,0,0,1,.186.585c0,.2-.163.426-.369.408a2.956,2.956,0,0,1-1.295-.673,4.61,4.61,0,0,1-1.317-1.224,2.279,2.279,0,0,1-.389-1.719c.245-1.113,1.1-2.106,1.36-3.216l.7-2.877a4.5,4.5,0,0,1,.571-1.535.948.948,0,0,1,.481-.408,1.139,1.139,0,0,1,.363-.029A8.668,8.668,0,0,1,849.666,689.613Z" transform="translate(-674.048 -574.71)" fill="#ffc1c7"/>
      <path id="Path_158093" data-name="Path 158093" d="M843.437,728.864a.385.385,0,0,1,.22.016.546.546,0,0,1,.2.261,2.389,2.389,0,0,0,.96.964,2.781,2.781,0,0,1,.469.265.544.544,0,0,1,.226.465c-.033.267-.324.408-.581.487a4.36,4.36,0,0,1-1.7.149,1.492,1.492,0,0,1-.612-.171,1.81,1.81,0,0,1-.471-.477,11.829,11.829,0,0,0-1.509-1.711,6.6,6.6,0,0,1-.791-.736,1.313,1.313,0,0,1-.332-1c.08-.53.581-.877.9-1.311a8.958,8.958,0,0,1,1.329,2.082,5.991,5.991,0,0,0,.379.9c.145.239.353.514.612.359S843.06,728.929,843.437,728.864Z" transform="translate(-670.676 -604.22)" fill="#ff6584"/>
      <path id="Path_158094" data-name="Path 158094" d="M861.725,615.27a2.683,2.683,0,0,1,.182,1.207l-.018,3.044a12.229,12.229,0,0,1-.094,1.772c-.161,1.058-.6,2.059-.785,3.114a26.346,26.346,0,0,1-.436,2.979c-.453,1.491-1.652,2.671-2.074,4.172a.473.473,0,0,1-.12.243.349.349,0,0,1-.171.073,1.821,1.821,0,0,1-.981-.184l-2.192-.86c-.151.065-.255-.108-.247-.275a.8.8,0,0,1,.218-.434,7.291,7.291,0,0,0,.706-1.087,9.765,9.765,0,0,0,1.02-3.933,29.077,29.077,0,0,0-.12-4.078q-.112-1.472-.224-2.94a2.11,2.11,0,0,1,.2-1.362,2.012,2.012,0,0,1,1.15-.685,18.7,18.7,0,0,1,3.984-.765Z" transform="translate(-682.834 -516.013)" fill="#3c354c"/>
      <path id="Path_158095" data-name="Path 158095" d="M861.725,615.27a2.683,2.683,0,0,1,.182,1.207l-.018,3.044a12.229,12.229,0,0,1-.094,1.772c-.161,1.058-.6,2.059-.785,3.114a26.346,26.346,0,0,1-.436,2.979c-.453,1.491-1.652,2.671-2.074,4.172a.473.473,0,0,1-.12.243.349.349,0,0,1-.171.073,1.821,1.821,0,0,1-.981-.184l-2.192-.86c-.151.065-.255-.108-.247-.275a.8.8,0,0,1,.218-.434,7.291,7.291,0,0,0,.706-1.087,9.765,9.765,0,0,0,1.02-3.933,29.077,29.077,0,0,0-.12-4.078q-.112-1.472-.224-2.94a2.11,2.11,0,0,1,.2-1.362,2.012,2.012,0,0,1,1.15-.685,18.7,18.7,0,0,1,3.984-.765Z" transform="translate(-682.834 -516.013)" opacity="0.1"/>
      <path id="Path_158096" data-name="Path 158096" d="M895.961,617.6a6.342,6.342,0,0,0-.732,1.409,7.551,7.551,0,0,0-.247,1.146,25.149,25.149,0,0,0-.463,5.436,1.146,1.146,0,0,1-1.02-.253,2.914,2.914,0,0,1-.667-.863,9.159,9.159,0,0,1-.549-1.1,6.869,6.869,0,0,1-.52-2.673.461.461,0,0,1,.037-.218.5.5,0,0,1,.108-.128,12.381,12.381,0,0,0,2.545-4.2A7.773,7.773,0,0,0,895,614.61a3.539,3.539,0,0,1,.457-1.564,1.967,1.967,0,0,1,1.293-.612,2.432,2.432,0,0,1,1.044.043c.371.114,1.25.548,1.3.987s-.732,1-.987,1.291a24.843,24.843,0,0,0-2.147,2.84Z" transform="translate(-712.27 -513.726)" fill="#ffc1c7"/>
      <path id="Path_158097" data-name="Path 158097" d="M889.5,655.8c.261.438.626.928.44,1.4a.862.862,0,0,1-1.272.287,1.962,1.962,0,0,1-.318-.306,31.369,31.369,0,0,1-3.059-4.025,3.953,3.953,0,0,1-.726-1.715.359.359,0,0,1,.029-.2.4.4,0,0,1,.159-.135,7.921,7.921,0,0,1,1.766-.734,3.746,3.746,0,0,0,.522,1.988,9.5,9.5,0,0,1,.673,1.362c.139.343.281.369.638.373.287,0,.493-.035.632.257A15.311,15.311,0,0,0,889.5,655.8Z" transform="translate(-706.536 -543.956)" fill="#ff6584"/>
      <path id="Path_158098" data-name="Path 158098" d="M857.638,590c2.622.041,5.24.224,7.857.408l1.7.12a6.355,6.355,0,0,1,1.482.22,6.5,6.5,0,0,1,1.313.651,1.152,1.152,0,0,1,.367.294,1.1,1.1,0,0,1,.155.408,2.322,2.322,0,0,1,.1.942,2.3,2.3,0,0,1-.251.646l-1.191,2.353c-.381-.124-.677-.373-1.05-.52a5.182,5.182,0,0,0-1.391-.265l-1.24-.122a.352.352,0,0,1-.035-.245c-1.089.379-2.174.732-3.263,1.111-2,.7-4,1.393-5.926,2.274a1.221,1.221,0,0,1-.9.157.941.941,0,0,1-.283-.188,2.914,2.914,0,0,1-.877-1.707,6.363,6.363,0,0,1,.029-1.947,5.632,5.632,0,0,1,1.6-3.591A2.853,2.853,0,0,1,857.638,590Z" transform="translate(-682.318 -495.894)" fill="#3c354c"/>
      <path id="Path_158099" data-name="Path 158099" d="M912.238,601.24a12.546,12.546,0,0,0-1.684.987,1.37,1.37,0,0,0-.222.181,1.673,1.673,0,0,0-.137.179,3.37,3.37,0,0,0-.575,1.146" transform="translate(-726.486 -504.844)" fill="none" stroke="#363044" stroke-miterlimit="10" stroke-width="1"/>
      <path id="Path_158100" data-name="Path 158100" d="M758.416,581.7a4.768,4.768,0,0,0-.842,1.156c-.622.979-1.515,1.766-2.129,2.751a5.13,5.13,0,0,1-.856,1.223,2.749,2.749,0,0,1-1.668.6,3.842,3.842,0,0,0-1.588.271,3,3,0,0,0-.954,1.02v.012a.461.461,0,0,0,.551.685,8.21,8.21,0,0,1,1.352-.393,8.569,8.569,0,0,0,1.2-.273,5.628,5.628,0,0,0,1.077-.573,7,7,0,0,0,.846-.593c.328-.279.612-.612.922-.907a14.409,14.409,0,0,1,1.427-1.036,10.888,10.888,0,0,0,3.189-3.485.791.791,0,0,0,.145-.463.838.838,0,0,0-.2-.408c-.361-.459-.689-.834-1.191-.408C759.3,581.2,758.8,581.36,758.416,581.7Z" transform="translate(-599.653 -488.48)" fill="#ffc1c7"/>
      <path id="Path_158101" data-name="Path 158101" d="M824.788,531.015a.612.612,0,0,0,.13.359c.135.137.357.108.549.1a1.813,1.813,0,0,1,1.44.5,3.306,3.306,0,0,1,.53,2.637,1.929,1.929,0,0,1-1.038,1.048,4.847,4.847,0,0,1-1.464.359,3.658,3.658,0,0,1-1.264,0,5.5,5.5,0,0,1-1.372-.655,7.5,7.5,0,0,1-.9-.51,1.427,1.427,0,0,1-.589-.828.449.449,0,0,1,.149-.479.848.848,0,0,1,.228-.069.967.967,0,0,0,.7-.683c.137-.528-.192-1.06-.224-1.6a.761.761,0,0,1,.1-.455,1,1,0,0,1,.459-.326l1.02-.457a6.094,6.094,0,0,1,.96-.426c.324-.084.347.141.408.408C824.672,530.294,824.739,530.654,824.788,531.015Z" transform="translate(-655.766 -447.735)" fill="#ffc1c7"/>
      <path id="Path_158102" data-name="Path 158102" d="M824.788,531.015a.612.612,0,0,0,.13.359c.135.137.357.108.549.1a1.813,1.813,0,0,1,1.44.5,3.306,3.306,0,0,1,.53,2.637,1.929,1.929,0,0,1-1.038,1.048,4.847,4.847,0,0,1-1.464.359,3.658,3.658,0,0,1-1.264,0,5.5,5.5,0,0,1-1.372-.655,7.5,7.5,0,0,1-.9-.51,1.427,1.427,0,0,1-.589-.828.449.449,0,0,1,.149-.479.848.848,0,0,1,.228-.069.967.967,0,0,0,.7-.683c.137-.528-.192-1.06-.224-1.6a.761.761,0,0,1,.1-.455,1,1,0,0,1,.459-.326l1.02-.457a6.094,6.094,0,0,1,.96-.426c.324-.084.347.141.408.408C824.672,530.294,824.739,530.654,824.788,531.015Z" transform="translate(-655.766 -447.735)" fill="#e5adb3"/>
      <circle id="Ellipse_2520" data-name="Ellipse 2520" cx="2.543" cy="2.543" r="2.543" transform="translate(163.826 79.047)" fill="#ffc1c7"/>
      <path id="Path_158103" data-name="Path 158103" d="M805.2,538.812a3.5,3.5,0,0,1,1.195-.3,1.413,1.413,0,0,1,1.113.44,6.833,6.833,0,0,1,.508.969c.375.612,1.107.891,1.692,1.309a1.276,1.276,0,0,1,.351.343,1.873,1.873,0,0,1,.145,1.075,5.192,5.192,0,0,0,.748,2.573,15.185,15.185,0,0,0,1.611,2.184,2.179,2.179,0,0,1,.351.52c.143.343.1.757.314,1.06a2.963,2.963,0,0,0-1.5.2c-.736.3-.771,1.38-1.117,2.1a27.323,27.323,0,0,1-2.376,3.723,4.756,4.756,0,0,0-.563.932,2.794,2.794,0,0,1-.065-1.054,21.3,21.3,0,0,0-.626-2.276,10.757,10.757,0,0,1-.067-1.174,5.62,5.62,0,0,0-.381-1.733,11.133,11.133,0,0,0-.905-1.7,2.4,2.4,0,0,0-.683-.816c-.339-.22-.805-.283-1.02-.626a1.365,1.365,0,0,0-.2-.33.763.763,0,0,0-.237-.12,10.413,10.413,0,0,1-1.207-.669,1.942,1.942,0,0,0-1.321-.287,16.31,16.31,0,0,1-2.82,2.586,2.286,2.286,0,0,0-.828.846,4.308,4.308,0,0,1-1.34-1,.678.678,0,0,1-.143-.2c-.1-.3.2-.565.449-.752a6.1,6.1,0,0,0,2.027-2.7,3.873,3.873,0,0,1,1.036-1.921,3.566,3.566,0,0,0,.536-.377,6.8,6.8,0,0,0,.408-.636,1.079,1.079,0,0,1,1.132-.383,5,5,0,0,1,.675.324,3.507,3.507,0,0,0,1.835.135l2.388-.243a.816.816,0,0,0-.175-.775,2.37,2.37,0,0,0-.316-.251,1.756,1.756,0,0,1-.616-.993Z" transform="translate(-635.873 -454.903)" fill="#ff6584"/>
      <path id="Path_158104" data-name="Path 158104" d="M814.19,506.608a2.2,2.2,0,0,1,1.279,1.252,5.11,5.11,0,0,0,.269.716,4.128,4.128,0,0,0,.663.738,1.107,1.107,0,0,1,.371.887c-.02.122-.073.237-.09.357-.071.528.528.891.712,1.391.239.657-.281,1.44.037,2.059a6.575,6.575,0,0,0,.475.612c.137.2.151.571-.08.7-.359.194-.775-.373-1.156-.224-.1.039-.173.122-.269.165-.267.12-.579-.116-.667-.4a2.082,2.082,0,0,1,.016-.869,1.05,1.05,0,0,0-.163-.834c-.155-.177-.408-.247-.569-.408a1.484,1.484,0,0,1-.2-1.193,2.958,2.958,0,0,0-.689-2.351.153.153,0,0,0-.108-.059.173.173,0,0,0-.108.067,5.078,5.078,0,0,1-.914.757.575.575,0,0,1-.326.118.207.207,0,0,1-.2-.23,2.4,2.4,0,0,0-.763.559.8.8,0,0,1-.061-.351,3.291,3.291,0,0,1-.408.624,5.076,5.076,0,0,0-.449.555.816.816,0,0,0-.114.679c.228.655,1.393.5,1.646,1.15.055.145.053.3.11.447.112.277.408.408.653.591s.457.5.31.754c-.128.222-.428.247-.677.3a1.631,1.631,0,0,0-1.02.767.962.962,0,0,1-.263.361.741.741,0,0,1-.332.082,1.228,1.228,0,0,1-.983-.2c-.32-.336-.169-.948-.5-1.279-.075-.073-.169-.126-.241-.2a.909.909,0,0,1-.182-.683,19.549,19.549,0,0,0,.245-2.023,11.566,11.566,0,0,0-.259-1.334,3.589,3.589,0,0,1,.726-2.934,3.145,3.145,0,0,1,2.1-1.02A4.265,4.265,0,0,1,814.19,506.608Z" transform="translate(-646.475 -429.412)" fill="#3c354c"/>
    </g>
  </g>
</svg>
