<svg xmlns="http://www.w3.org/2000/svg" xmlns:xlink="http://www.w3.org/1999/xlink" width="262" height="196" viewBox="0 0 262 196">
  <defs>
    <clipPath id="clip-path">
      <path id="Path_158048" data-name="Path 158048" d="M-562.423,293.758q-20.7-81.625,27.989-97.865c48.693-16.24,71.447,41.974,92.3,37.141s46.31-32.555,75.68-10.59q29.432,21.842,10.359,71.314Z" fill="none"/>
    </clipPath>
    <clipPath id="clip-path-2">
      <rect id="Rectangle_30824" data-name="Rectangle 30824" width="1332.5" height="842.041" transform="translate(-882.518 -256.902)" fill="none"/>
    </clipPath>
    <clipPath id="clip-path-3">
      <path id="Path_158049" data-name="Path 158049" d="M-562.987,288.252h207.87a2.635,2.635,0,0,1,2.5,2.753,2.635,2.635,0,0,1-2.5,2.753h-207.87a2.636,2.636,0,0,1-2.5-2.753A2.636,2.636,0,0,1-562.987,288.252Z" fill="none"/>
    </clipPath>
    <clipPath id="clip-path-4">
      <rect id="Rectangle_30825" data-name="Rectangle 30825" width="1328.5" height="933.927" transform="translate(-881.289 -316.993)" fill="none"/>
    </clipPath>
    <clipPath id="clip-path-5">
      <path id="Path_158050" data-name="Path 158050" d="M-374.641,288.252H-446.03V192.06c0-5.466,4.885-9.9,10.91-9.9h49.569c6.025,0,10.91,4.431,10.91,9.9Z" fill="none"/>
    </clipPath>
    <clipPath id="clip-path-6">
      <rect id="Rectangle_30826" data-name="Rectangle 30826" width="1463.745" height="846.246" transform="translate(-935.107 -260.169)" fill="none"/>
    </clipPath>
    <clipPath id="clip-path-7">
      <path id="Path_158059" data-name="Path 158059" d="M-379.046,288.252h-62.58V192.2c0-3.109,2.789-5.63,6.227-5.63h6.539q.933,0,.935.844c0,2.568,1.858,3.66,4.668,3.66h25.844c3,0,4.668-1.092,4.668-3.66,0-.562.313-.844.933-.844h6.54c3.439,0,6.226,2.522,6.226,5.63Z" fill="none"/>
    </clipPath>
    <clipPath id="clip-path-8">
      <rect id="Rectangle_30837" data-name="Rectangle 30837" width="1463.745" height="842.816" transform="translate(-935.108 -257.946)" fill="none"/>
    </clipPath>
    <clipPath id="clip-path-9">
      <rect id="Rectangle_30836" data-name="Rectangle 30836" width="64.415" height="103.344" transform="translate(-442.544 185.737)" fill="none"/>
    </clipPath>
    <clipPath id="clip-path-10">
      <rect id="Rectangle_30827" data-name="Rectangle 30827" width="62.58" height="101.687" transform="translate(-441.626 186.565)" fill="none"/>
    </clipPath>
    <clipPath id="clip-path-11">
      <path id="Path_158051" data-name="Path 158051" d="M-436.121,194.846h51.568a1.753,1.753,0,0,1,1.836,1.656v27a1.754,1.754,0,0,1-1.836,1.656h-51.568a1.754,1.754,0,0,1-1.835-1.656v-27A1.752,1.752,0,0,1-436.121,194.846Z" fill="none"/>
    </clipPath>
    <clipPath id="clip-path-13">
      <path id="Path_158052" data-name="Path 158052" d="M-435.2,230.122h49.733a2.63,2.63,0,0,1,2.753,2.484,2.629,2.629,0,0,1-2.753,2.484H-435.2a2.629,2.629,0,0,1-2.753-2.484A2.631,2.631,0,0,1-435.2,230.122Z" fill="none"/>
    </clipPath>
    <clipPath id="clip-path-15">
      <path id="Path_158053" data-name="Path 158053" d="M-435.2,238.4h49.733a2.629,2.629,0,0,1,2.753,2.484,2.629,2.629,0,0,1-2.753,2.484H-435.2a2.629,2.629,0,0,1-2.753-2.484A2.629,2.629,0,0,1-435.2,238.4Z" fill="none"/>
    </clipPath>
    <clipPath id="clip-path-17">
      <path id="Path_158054" data-name="Path 158054" d="M-435.2,246.684h49.733a2.63,2.63,0,0,1,2.753,2.485,2.629,2.629,0,0,1-2.753,2.483H-435.2a2.63,2.63,0,0,1-2.753-2.483A2.631,2.631,0,0,1-435.2,246.684Z" fill="none"/>
    </clipPath>
    <clipPath id="clip-path-18">
      <rect id="Rectangle_30831" data-name="Rectangle 30831" width="62.58" height="101.687" transform="translate(-441.626 186.566)" fill="none"/>
    </clipPath>
    <clipPath id="clip-path-19">
      <path id="Path_158055" data-name="Path 158055" d="M-435.2,254.964h49.733a2.628,2.628,0,0,1,2.753,2.483,2.629,2.629,0,0,1-2.753,2.485H-435.2a2.629,2.629,0,0,1-2.753-2.485A2.629,2.629,0,0,1-435.2,254.964Z" fill="none"/>
    </clipPath>
    <clipPath id="clip-path-21">
      <path id="Path_158056" data-name="Path 158056" d="M-435.2,263.246h49.733a2.63,2.63,0,0,1,2.753,2.484,2.63,2.63,0,0,1-2.753,2.485H-435.2a2.631,2.631,0,0,1-2.753-2.485A2.631,2.631,0,0,1-435.2,263.246Z" fill="none"/>
    </clipPath>
    <clipPath id="clip-path-23">
      <path id="Path_158057" data-name="Path 158057" d="M-435.2,271.526h49.733a2.628,2.628,0,0,1,2.753,2.483,2.629,2.629,0,0,1-2.753,2.484H-435.2a2.629,2.629,0,0,1-2.753-2.484A2.629,2.629,0,0,1-435.2,271.526Z" fill="none"/>
    </clipPath>
    <clipPath id="clip-path-25">
      <path id="Path_158058" data-name="Path 158058" d="M-435.2,279.808h49.733a2.628,2.628,0,0,1,2.753,2.483,2.629,2.629,0,0,1-2.753,2.485H-435.2a2.629,2.629,0,0,1-2.753-2.485A2.629,2.629,0,0,1-435.2,279.808Z" fill="none"/>
    </clipPath>
    <clipPath id="clip-path-27">
      <rect id="Rectangle_30839" data-name="Rectangle 30839" width="33.4" height="6.973" transform="translate(-533.912 266.856)" fill="none"/>
    </clipPath>
    <clipPath id="clip-path-28">
      <rect id="Rectangle_30838" data-name="Rectangle 30838" width="1463.745" height="933.927" transform="translate(-917.466 -314.898)" fill="none"/>
    </clipPath>
    <clipPath id="clip-path-29">
      <rect id="Rectangle_30841" data-name="Rectangle 30841" width="27.895" height="16.518" transform="translate(-531.334 271.736)" fill="none"/>
    </clipPath>
    <clipPath id="clip-path-30">
      <rect id="Rectangle_30840" data-name="Rectangle 30840" width="1463.745" height="933.927" transform="translate(-917.641 -316.992)" fill="none"/>
    </clipPath>
    <clipPath id="clip-path-31">
      <path id="Path_158060" data-name="Path 158060" d="M-524.318,276.691h13.213a1.834,1.834,0,0,1,1.834,1.834h0a1.835,1.835,0,0,1-1.833,1.835h-13.214a1.836,1.836,0,0,1-1.836-1.835,1.834,1.834,0,0,1,1.835-1.835Z" fill="none"/>
    </clipPath>
    <clipPath id="clip-path-32">
      <rect id="Rectangle_30842" data-name="Rectangle 30842" width="1463.745" height="933.927" transform="translate(-917.966 -316.992)" fill="none"/>
    </clipPath>
    <clipPath id="clip-path-33">
      <rect id="Rectangle_30844" data-name="Rectangle 30844" width="24.225" height="4.771" transform="translate(-529.611 252.379)" fill="none"/>
    </clipPath>
    <clipPath id="clip-path-34">
      <rect id="Rectangle_30843" data-name="Rectangle 30843" width="1463.745" height="933.927" transform="translate(-917.753 -313.226)" fill="none"/>
    </clipPath>
    <clipPath id="clip-path-35">
      <rect id="Rectangle_30846" data-name="Rectangle 30846" width="20.188" height="11.378" transform="translate(-527.711 256.25)" fill="none"/>
    </clipPath>
    <clipPath id="clip-path-36">
      <rect id="Rectangle_30845" data-name="Rectangle 30845" width="1463.745" height="933.927" transform="translate(-917.872 -314.126)" fill="none"/>
    </clipPath>
    <clipPath id="clip-path-37">
      <path id="Path_158061" data-name="Path 158061" d="M-522.618,260.014h9.727a1.284,1.284,0,0,1,1.284,1.284h0a1.284,1.284,0,0,1-1.283,1.285h-9.728A1.285,1.285,0,0,1-523.9,261.3h0A1.285,1.285,0,0,1-522.618,260.014Z" fill="none"/>
    </clipPath>
    <clipPath id="clip-path-38">
      <rect id="Rectangle_30847" data-name="Rectangle 30847" width="1463.745" height="933.927" transform="translate(-918.101 -313.849)" fill="none"/>
    </clipPath>
    <clipPath id="clip-path-39">
      <path id="Path_158062" data-name="Path 158062" d="M-538.526,276.874h2.586a.551.551,0,0,1,.551.549h0v10.827h-13.764V277.424a.55.55,0,0,1,.55-.55h3.331c-4.637-5.593-5.6-10.753-3.758-13.7,1.1-1.617,4.127,3.893,6.117,9.07-.156-9.049,1.705-22.317,4.527-20.265,4.76,3.373,5.694,12.652-.14,24.9Z" fill="none"/>
    </clipPath>
    <clipPath id="clip-path-40">
      <rect id="Rectangle_30848" data-name="Rectangle 30848" width="1463.745" height="933.927" transform="translate(-913.438 -316.992)" fill="none"/>
    </clipPath>
    <linearGradient id="linear-gradient" x1="5.857" y1="1.482" x2="5.857" y2="1.491" gradientUnits="objectBoundingBox">
      <stop offset="0" stop-color="gray" stop-opacity="0.251"/>
      <stop offset="0.54" stop-color="gray" stop-opacity="0.122"/>
      <stop offset="1" stop-color="gray" stop-opacity="0.102"/>
    </linearGradient>
  </defs>
  <g id="card-6" transform="translate(589.6 -140.16)">
    <rect id="Rectangle_29293-2" data-name="Rectangle 29293-2" width="262" height="196" transform="translate(-589.6 140.16)" fill="#a1dbf8"/>
    <g id="Group_167332" data-name="Group 167332">
      <g id="Group_167141" data-name="Group 167141">
        <g id="Group_167812" data-name="Group 167812">
          <g id="Group_167811" data-name="Group 167811" clip-path="url(#clip-path)">
            <g id="Group_167102" data-name="Group 167102">
              <g id="Group_167810" data-name="Group 167810">
                <g id="Group_167809" data-name="Group 167809" clip-path="url(#clip-path-2)">
                  <g id="Group_167101" data-name="Group 167101">
                    <path id="Path_154189" data-name="Path 154189" d="M-569.435,294.584h221.67V192.2h-221.67Z" fill="#bde8fe"/>
                  </g>
                </g>
              </g>
            </g>
          </g>
        </g>
        <g id="Group_167816" data-name="Group 167816">
          <g id="Group_167815" data-name="Group 167815" clip-path="url(#clip-path-3)">
            <g id="Group_167104" data-name="Group 167104">
              <g id="Group_167814" data-name="Group 167814">
                <g id="Group_167813" data-name="Group 167813" clip-path="url(#clip-path-4)">
                  <g id="Group_167103" data-name="Group 167103">
                    <path id="Path_154192" data-name="Path 154192" d="M-566.318,294.674h214.533v-7.34H-566.318Z" fill="#badef1"/>
                  </g>
                </g>
              </g>
            </g>
          </g>
        </g>
        <g id="Group_167820" data-name="Group 167820">
          <g id="Group_167819" data-name="Group 167819" clip-path="url(#clip-path-5)">
            <g id="Group_167106" data-name="Group 167106">
              <g id="Group_167818" data-name="Group 167818">
                <g id="Group_167817" data-name="Group 167817" clip-path="url(#clip-path-6)">
                  <g id="Group_167105" data-name="Group 167105">
                    <path id="Path_154195" data-name="Path 154195" d="M-446.948,289.085h73.224V181.329h-73.224Z" fill="#75afcc"/>
                  </g>
                </g>
              </g>
            </g>
          </g>
        </g>
        <g id="Group_167860" data-name="Group 167860">
          <g id="Group_167859" data-name="Group 167859" clip-path="url(#clip-path-7)">
            <g id="Group_167126" data-name="Group 167126">
              <g id="Group_167858" data-name="Group 167858">
                <g id="Group_167857" data-name="Group 167857" clip-path="url(#clip-path-8)">
                  <g id="Group_167125" data-name="Group 167125">
                    <g id="Group_167856" data-name="Group 167856">
                      <g id="Group_167855" data-name="Group 167855" clip-path="url(#clip-path-9)">
                        <g id="Group_167124" data-name="Group 167124">
                          <g id="Group_167822" data-name="Group 167822">
                            <g id="Group_167821" data-name="Group 167821" clip-path="url(#clip-path-10)">
                              <g id="Group_167107" data-name="Group 167107">
                                <path id="Path_154198" data-name="Path 154198" d="M-442.544,289.081h64.415V185.737h-64.415Z" fill="#f1f4f9"/>
                              </g>
                            </g>
                          </g>
                          <g id="Group_167826" data-name="Group 167826">
                            <g id="Group_167825" data-name="Group 167825" clip-path="url(#clip-path-11)">
                              <g id="Group_167109" data-name="Group 167109">
                                <g id="Group_167824" data-name="Group 167824">
                                  <g id="Group_167823" data-name="Group 167823" clip-path="url(#clip-path-10)">
                                    <g id="Group_167108" data-name="Group 167108">
                                      <path id="Path_154200" data-name="Path 154200" d="M-438.874,225.982H-381.8V194.019h-57.073Z" fill="#ccddef"/>
                                    </g>
                                  </g>
                                </g>
                              </g>
                            </g>
                          </g>
                          <g id="Group_167830" data-name="Group 167830">
                            <g id="Group_167829" data-name="Group 167829" clip-path="url(#clip-path-13)">
                              <g id="Group_167111" data-name="Group 167111">
                                <g id="Group_167828" data-name="Group 167828">
                                  <g id="Group_167827" data-name="Group 167827" clip-path="url(#clip-path-10)">
                                    <g id="Group_167110" data-name="Group 167110">
                                      <path id="Path_154203" data-name="Path 154203" d="M-438.874,235.917H-381.8v-6.623h-57.073Z" fill="#ccddef"/>
                                    </g>
                                  </g>
                                </g>
                              </g>
                            </g>
                          </g>
                          <g id="Group_167834" data-name="Group 167834">
                            <g id="Group_167833" data-name="Group 167833" clip-path="url(#clip-path-15)">
                              <g id="Group_167113" data-name="Group 167113">
                                <g id="Group_167832" data-name="Group 167832">
                                  <g id="Group_167831" data-name="Group 167831" clip-path="url(#clip-path-10)">
                                    <g id="Group_167112" data-name="Group 167112">
                                      <path id="Path_154206" data-name="Path 154206" d="M-438.874,244.2H-381.8v-6.623h-57.073Z" fill="#ccddef"/>
                                    </g>
                                  </g>
                                </g>
                              </g>
                            </g>
                          </g>
                          <g id="Group_167838" data-name="Group 167838">
                            <g id="Group_167837" data-name="Group 167837" clip-path="url(#clip-path-17)">
                              <g id="Group_167115" data-name="Group 167115">
                                <g id="Group_167836" data-name="Group 167836">
                                  <g id="Group_167835" data-name="Group 167835" clip-path="url(#clip-path-18)">
                                    <g id="Group_167114" data-name="Group 167114">
                                      <path id="Path_154209" data-name="Path 154209" d="M-438.874,252.48H-381.8v-6.623h-57.073Z" fill="#ccddef"/>
                                    </g>
                                  </g>
                                </g>
                              </g>
                            </g>
                          </g>
                          <g id="Group_167842" data-name="Group 167842">
                            <g id="Group_167841" data-name="Group 167841" clip-path="url(#clip-path-19)">
                              <g id="Group_167117" data-name="Group 167117">
                                <g id="Group_167840" data-name="Group 167840">
                                  <g id="Group_167839" data-name="Group 167839" clip-path="url(#clip-path-10)">
                                    <g id="Group_167116" data-name="Group 167116">
                                      <path id="Path_154212" data-name="Path 154212" d="M-438.874,260.76H-381.8v-6.623h-57.073Z" fill="#ccddef"/>
                                    </g>
                                  </g>
                                </g>
                              </g>
                            </g>
                          </g>
                          <g id="Group_167846" data-name="Group 167846">
                            <g id="Group_167845" data-name="Group 167845" clip-path="url(#clip-path-21)">
                              <g id="Group_167119" data-name="Group 167119">
                                <g id="Group_167844" data-name="Group 167844">
                                  <g id="Group_167843" data-name="Group 167843" clip-path="url(#clip-path-10)">
                                    <g id="Group_167118" data-name="Group 167118">
                                      <path id="Path_154215" data-name="Path 154215" d="M-438.874,269.042H-381.8v-6.623h-57.073Z" fill="#ccddef"/>
                                    </g>
                                  </g>
                                </g>
                              </g>
                            </g>
                          </g>
                          <g id="Group_167850" data-name="Group 167850">
                            <g id="Group_167849" data-name="Group 167849" clip-path="url(#clip-path-23)">
                              <g id="Group_167121" data-name="Group 167121">
                                <g id="Group_167848" data-name="Group 167848">
                                  <g id="Group_167847" data-name="Group 167847" clip-path="url(#clip-path-10)">
                                    <g id="Group_167120" data-name="Group 167120">
                                      <path id="Path_154218" data-name="Path 154218" d="M-438.874,277.322H-381.8V270.7h-57.073Z" fill="#ccddef"/>
                                    </g>
                                  </g>
                                </g>
                              </g>
                            </g>
                          </g>
                          <g id="Group_167854" data-name="Group 167854">
                            <g id="Group_167853" data-name="Group 167853" clip-path="url(#clip-path-25)">
                              <g id="Group_167123" data-name="Group 167123">
                                <g id="Group_167852" data-name="Group 167852">
                                  <g id="Group_167851" data-name="Group 167851" clip-path="url(#clip-path-10)">
                                    <g id="Group_167122" data-name="Group 167122">
                                      <path id="Path_154221" data-name="Path 154221" d="M-438.874,285.605H-381.8V278.98h-57.073Z" fill="#ccddef"/>
                                    </g>
                                  </g>
                                </g>
                              </g>
                            </g>
                          </g>
                        </g>
                      </g>
                    </g>
                  </g>
                </g>
              </g>
            </g>
          </g>
        </g>
        <g id="Group_167864" data-name="Group 167864">
          <g id="Group_167863" data-name="Group 167863" clip-path="url(#clip-path-27)">
            <g id="Group_167128" data-name="Group 167128">
              <g id="Group_167862" data-name="Group 167862">
                <g id="Group_167861" data-name="Group 167861" clip-path="url(#clip-path-28)">
                  <g id="Group_167127" data-name="Group 167127">
                    <path id="Path_154226" data-name="Path 154226" d="M-534.829,274.748h35.236v-8.809h-35.236Z" fill="#badef1"/>
                  </g>
                </g>
              </g>
            </g>
          </g>
        </g>
        <g id="Group_167868" data-name="Group 167868">
          <g id="Group_167867" data-name="Group 167867" clip-path="url(#clip-path-29)">
            <g id="Group_167130" data-name="Group 167130">
              <g id="Group_167866" data-name="Group 167866">
                <g id="Group_167865" data-name="Group 167865" clip-path="url(#clip-path-30)">
                  <g id="Group_167129" data-name="Group 167129">
                    <path id="Path_154229" data-name="Path 154229" d="M-532.252,289.169h29.728V270.818h-29.728Z" fill="#f8fbff"/>
                  </g>
                </g>
              </g>
            </g>
          </g>
        </g>
        <g id="Group_167872" data-name="Group 167872">
          <g id="Group_167871" data-name="Group 167871" clip-path="url(#clip-path-31)">
            <g id="Group_167132" data-name="Group 167132">
              <g id="Group_167870" data-name="Group 167870">
                <g id="Group_167869" data-name="Group 167869" clip-path="url(#clip-path-32)">
                  <g id="Group_167131" data-name="Group 167131">
                    <path id="Path_154232" data-name="Path 154232" d="M-527.071,281.28h18.719v-5.506h-18.719Z" fill="#ccddef"/>
                  </g>
                </g>
              </g>
            </g>
          </g>
        </g>
        <g id="Group_167876" data-name="Group 167876">
          <g id="Group_167875" data-name="Group 167875" clip-path="url(#clip-path-33)">
            <g id="Group_167134" data-name="Group 167134">
              <g id="Group_167874" data-name="Group 167874">
                <g id="Group_167873" data-name="Group 167873" clip-path="url(#clip-path-34)">
                  <g id="Group_167133" data-name="Group 167133">
                    <path id="Path_154235" data-name="Path 154235" d="M-530.528,258.069h26.06v-6.606h-26.06Z" fill="#badef1"/>
                  </g>
                </g>
              </g>
            </g>
          </g>
        </g>
        <g id="Group_167880" data-name="Group 167880">
          <g id="Group_167879" data-name="Group 167879" clip-path="url(#clip-path-35)">
            <g id="Group_167136" data-name="Group 167136">
              <g id="Group_167878" data-name="Group 167878">
                <g id="Group_167877" data-name="Group 167877" clip-path="url(#clip-path-36)">
                  <g id="Group_167135" data-name="Group 167135">
                    <path id="Path_154238" data-name="Path 154238" d="M-528.629,268.546h22.022V255.333h-22.022Z" fill="#f8fbff"/>
                  </g>
                </g>
              </g>
            </g>
          </g>
        </g>
        <g id="Group_167884" data-name="Group 167884">
          <g id="Group_167883" data-name="Group 167883" clip-path="url(#clip-path-37)">
            <g id="Group_167138" data-name="Group 167138">
              <g id="Group_167882" data-name="Group 167882">
                <g id="Group_167881" data-name="Group 167881" clip-path="url(#clip-path-38)">
                  <g id="Group_167137" data-name="Group 167137">
                    <path id="Path_154241" data-name="Path 154241" d="M-524.821,263.5h14.131v-4.4h-14.131Z" fill="#ccddef"/>
                  </g>
                </g>
              </g>
            </g>
          </g>
        </g>
        <g id="Group_167888" data-name="Group 167888">
          <g id="Group_167887" data-name="Group 167887" clip-path="url(#clip-path-39)">
            <g id="Group_167140" data-name="Group 167140">
              <g id="Group_167886" data-name="Group 167886">
                <g id="Group_167885" data-name="Group 167885" clip-path="url(#clip-path-40)">
                  <g id="Group_167139" data-name="Group 167139">
                    <path id="Path_154244" data-name="Path 154244" d="M-550.827,289.17h17.266V250.849h-17.266Z" fill="#badef1"/>
                  </g>
                </g>
              </g>
            </g>
          </g>
        </g>
      </g>
      <g id="undraw_videographer_nnc7" data-name="undraw videographer nnc7">
        <ellipse id="Ellipse_2127" data-name="Ellipse 2127" cx="45.135" cy="1.533" rx="45.135" ry="1.533" transform="translate(-510.013 289.662)" fill="#93c1d9"/>
        <g id="flowers-2">
          <path id="Path_148419" data-name="Path 148419" d="M-429.06,290.174s9.709-12.3,8.957-24.523a23.746,23.746,0,0,1,3.771-14.538,39.856,39.856,0,0,1,4.563-5.7" fill="none" stroke="#535461" stroke-miterlimit="10" stroke-width="2"/>
          <path id="Path_148420" data-name="Path 148420" d="M-412.2,237.706c-.686,1.711.417,7.911.417,7.911s5.087-3.714,5.773-5.424a3.337,3.337,0,0,0-1.853-4.34,3.338,3.338,0,0,0-4.341,1.853Z" fill="#4285f4"/>
          <path id="Path_148421" data-name="Path 148421" d="M-421.119,245.119c.353,1.808,4.65,6.413,4.65,6.413s2.251-5.882,1.9-7.69a3.337,3.337,0,0,0-3.913-2.636,3.337,3.337,0,0,0-2.636,3.913h0Z" fill="#4285f4"/>
          <path id="Path_148422" data-name="Path 148422" d="M-427.394,261.39c1.217,1.383,7.25,3.18,7.25,3.18s-1.026-6.214-2.243-7.6a3.336,3.336,0,0,0-4.707-.3,3.335,3.335,0,0,0-.3,4.707Z" fill="#4285f4"/>
          <path id="Path_148423" data-name="Path 148423" d="M-429.373,274.769c.966,1.568,6.609,4.369,6.609,4.369s.039-6.3-.927-7.867a3.335,3.335,0,0,0-4.59-1.09,3.335,3.335,0,0,0-1.091,4.59Z" fill="#4285f4"/>
          <path id="Path_148424" data-name="Path 148424" d="M-410.094,254.475c-1.706.7-7.913-.363-7.913-.363s3.683-5.112,5.383-5.81a3.337,3.337,0,0,1,4.362,1.8,3.336,3.336,0,0,1-1.8,4.361l-.034.014Z" fill="#4285f4"/>
          <path id="Path_148425" data-name="Path 148425" d="M-412.606,270.092c-1.841.157-7.442-2.714-7.442-2.714s5.04-3.776,6.875-3.934a3.336,3.336,0,0,1,3.608,3.04,3.336,3.336,0,0,1-3.04,3.608Z" fill="#4285f4"/>
          <path id="Path_148426" data-name="Path 148426" d="M-417.139,284.939c-1.783.464-7.792-1.418-7.792-1.418s4.329-4.573,6.111-5.038a3.336,3.336,0,0,1,4,2.5,3.335,3.335,0,0,1-2.326,3.955Z" fill="#4285f4"/>
          <path id="Path_148427" data-name="Path 148427" d="M-412.2,237.706c-.686,1.711.417,7.911.417,7.911s5.087-3.714,5.773-5.424a3.337,3.337,0,0,0-1.853-4.34,3.338,3.338,0,0,0-4.341,1.853Z" opacity="0.25"/>
          <path id="Path_148428" data-name="Path 148428" d="M-421.119,245.119c.353,1.808,4.65,6.413,4.65,6.413s2.251-5.882,1.9-7.69a3.337,3.337,0,0,0-3.913-2.636,3.337,3.337,0,0,0-2.636,3.913h0Z" opacity="0.25"/>
          <path id="Path_148429" data-name="Path 148429" d="M-427.394,261.39c1.217,1.383,7.25,3.18,7.25,3.18s-1.026-6.214-2.243-7.6a3.336,3.336,0,0,0-4.707-.3,3.335,3.335,0,0,0-.3,4.707Z" opacity="0.25"/>
          <path id="Path_148430" data-name="Path 148430" d="M-429.373,274.769c.966,1.568,6.609,4.369,6.609,4.369s.039-6.3-.927-7.867a3.335,3.335,0,0,0-4.59-1.09,3.335,3.335,0,0,0-1.091,4.59Z" opacity="0.25"/>
          <path id="Path_148431" data-name="Path 148431" d="M-410.094,254.475c-1.706.7-7.913-.363-7.913-.363s3.683-5.112,5.383-5.81a3.337,3.337,0,0,1,4.362,1.8,3.336,3.336,0,0,1-1.8,4.361l-.034.014Z" opacity="0.25"/>
          <path id="Path_148432" data-name="Path 148432" d="M-412.606,270.092c-1.841.157-7.442-2.714-7.442-2.714s5.04-3.776,6.875-3.934a3.336,3.336,0,0,1,3.608,3.04,3.336,3.336,0,0,1-3.04,3.608Z" opacity="0.25"/>
          <path id="Path_148433" data-name="Path 148433" d="M-417.139,284.939c-1.783.464-7.792-1.418-7.792-1.418s4.329-4.573,6.111-5.038a3.336,3.336,0,0,1,4,2.5,3.335,3.335,0,0,1-2.326,3.955Z" opacity="0.25"/>
          <path id="Path_148434" data-name="Path 148434" d="M-428.976,289.66s13.86-7.307,18.125-18.788a23.782,23.782,0,0,1,9.339-11.763,40.033,40.033,0,0,1,6.483-3.363" fill="none" stroke="#535461" stroke-miterlimit="10" stroke-width="2"/>
          <path id="Path_148435" data-name="Path 148435" d="M-392.3,248.524c-1.319,1.284-2.824,7.4-2.824,7.4s6.155-1.339,7.476-2.618a3.336,3.336,0,0,0,.066-4.717,3.337,3.337,0,0,0-4.718-.066Z" fill="#4285f4"/>
          <path id="Path_148436" data-name="Path 148436" d="M-403.459,251.689c-.41,1.8,1.652,7.747,1.652,7.747s4.441-4.464,4.854-6.26a3.336,3.336,0,0,0-2.367-4.081,3.336,3.336,0,0,0-4.081,2.367c-.02.075-.037.151-.052.227Z" fill="#4285f4"/>
          <path id="Path_148437" data-name="Path 148437" d="M-415.785,264.024c.552,1.758,5.336,5.859,5.336,5.859s1.58-6.1,1.028-7.854a3.336,3.336,0,0,0-4.142-2.258,3.336,3.336,0,0,0-2.258,4.143c.012.042.025.083.039.124Z" fill="#4285f4"/>
          <path id="Path_148438" data-name="Path 148438" d="M-423.02,275.452c.248,1.825,4.27,6.67,4.27,6.67s2.588-5.742,2.343-7.568a3.336,3.336,0,0,0-3.756-2.856,3.337,3.337,0,0,0-2.856,3.756h0Z" fill="#4285f4"/>
          <path id="Path_148439" data-name="Path 148439" d="M-397.178,264.71c-1.841-.052-7.087-3.539-7.087-3.539s5.435-3.181,7.277-3.13a3.336,3.336,0,0,1,3.273,3.4,3.335,3.335,0,0,1-3.4,3.273l-.065,0Z" fill="#4285f4"/>
          <path id="Path_148440" data-name="Path 148440" d="M-405.8,277.967c-1.741-.6-5.7-5.5-5.7-5.5s6.137-1.411,7.879-.81a3.336,3.336,0,0,1,1.989,4.278,3.336,3.336,0,0,1-4.165,2.028Z" fill="#4285f4"/>
          <path id="Path_148441" data-name="Path 148441" d="M-415.953,289.7c-1.818-.3-6.552-4.453-6.552-4.453s5.812-2.429,7.63-2.131a3.336,3.336,0,0,1,2.792,3.8,3.336,3.336,0,0,1-3.8,2.792Z" fill="#4285f4"/>
        </g>
        <path id="Path_148442" data-name="Path 148442" d="M-427.731,290.681h-1.482l-10.86-56.064-1.393,56.064h-1.577l-1.77-55.971L-455.4,290.681h-1.667l7.193-57.624.234-1.873,14.109-1.578.439,3.452Z" fill="#464353"/>
        <rect id="Rectangle_29387" data-name="Rectangle 29387" width="8.981" height="5.569" transform="translate(-466.674 218.396)" fill="#464353"/>
        <path id="Path_148443" data-name="Path 148443" d="M-414.587,215.961l5.43-2.193h1.19a.656.656,0,0,1,.654.655v15.293a.655.655,0,0,1-.654.654h-1.19l-5.43-2.261Z" fill="#464353"/>
        <rect id="Rectangle_29388" data-name="Rectangle 29388" width="11.103" height="10.755" transform="translate(-425.687 216.657)" fill="#464353"/>
        <rect id="Rectangle_29389" data-name="Rectangle 29389" width="7.148" height="1.299" transform="translate(-444.952 196.471)" fill="#514e7f"/>
        <rect id="Rectangle_29390" data-name="Rectangle 29390" width="20.119" height="14.689" transform="translate(-453.107 198.153)" fill="#514e7f"/>
        <rect id="Rectangle_29391" data-name="Rectangle 29391" width="20.119" height="1.741" transform="translate(-453.107 211.091)" opacity="0.1"/>
        <rect id="Rectangle_29392" data-name="Rectangle 29392" width="0.45" height="10.755" transform="translate(-425.857 216.657)" opacity="0.1"/>
        <rect id="Rectangle_29393" data-name="Rectangle 29393" width="3.063" height="5.569" transform="translate(-460.758 218.396)" opacity="0.1"/>
        <path id="Path_148444" data-name="Path 148444" d="M-435.09,233.082h-14.78l.234-1.873,14.109-1.578Z" opacity="0.1"/>
        <rect id="Rectangle_29394" data-name="Rectangle 29394" width="34.807" height="21.441" rx="10.7" transform="translate(-460.488 211.366)" fill="#514e7f"/>
        <path id="Path_148445" data-name="Path 148445" d="M-414.691,215.96h.105v12.148h-.105a.869.869,0,0,1-.869-.869h0v-10.41a.869.869,0,0,1,.869-.869Z" fill="#514e7f"/>
        <path id="Path_148446" data-name="Path 148446" d="M-409.158,213.773h1.127a.718.718,0,0,1,.718.718h0V229.66a.717.717,0,0,1-.718.718h-1.127Z" fill="#514e7f"/>
        <rect id="Rectangle_29395" data-name="Rectangle 29395" width="1.602" height="5.569" transform="translate(-466.673 218.396)" opacity="0.1"/>
        <path id="Rectangle_29396" data-name="Rectangle 29396" d="M-466.916,216.657h0a1.566,1.566,0,0,1,1.566,1.566v6.336a1.566,1.566,0,0,1-1.566,1.566h0a1.566,1.566,0,0,1-1.566-1.566v-6.336A1.566,1.566,0,0,1-466.916,216.657Z" fill="#514e7f"/>
        <circle id="Ellipse_2128" data-name="Ellipse 2128" cx="10.025" cy="10.025" r="10.025" transform="translate(-463.127 188.128)" fill="#464353"/>
        <circle id="Ellipse_2129" data-name="Ellipse 2129" cx="7.519" cy="7.519" r="7.519" transform="translate(-460.622 190.634)" fill="#4285f4"/>
        <circle id="Ellipse_2130" data-name="Ellipse 2130" cx="7.31" cy="7.31" r="7.31" transform="translate(-441.833 191.052)" fill="#464353"/>
        <circle id="Ellipse_2131" data-name="Ellipse 2131" cx="5.482" cy="5.482" r="5.482" transform="translate(-440.005 192.88)" fill="#4285f4"/>
        <circle id="Ellipse_2132" data-name="Ellipse 2132" cx="0.963" cy="0.963" r="0.963" transform="translate(-436.052 213.596)" fill="#4285f4"/>
        <circle id="Ellipse_2133" data-name="Ellipse 2133" cx="0.963" cy="0.963" r="0.963" transform="translate(-432.992 213.596)" fill="#4285f4" opacity="0.5"/>
        <path id="Path_148447" data-name="Path 148447" d="M-444.123,217.878l-.069-.136a6.1,6.1,0,0,1,1.215.559c-.167-1.454-5.747-5.537-6.751-5.537s-2.121-1.733-2.121-1.733-2.9-.447-3.348-.92-3.46-.2-4.185-.03a3.407,3.407,0,0,1-1.841-.447s-.614-1-1.394-1-1.615-1.118-1.615-1.118a3.468,3.468,0,0,0-1.4-.783,3.626,3.626,0,0,1-1.9-1.4c-.392-.561-2.343-.837-3.458-.669a23.972,23.972,0,0,1-4.13-.228,2.955,2.955,0,0,0,1.523-1.9c-1.1-.057-3.984-2.48-3.984-2.48s.119.783.256,1.876l-.186-.239-.025.02a18.139,18.139,0,0,1-.025-2.343c0-.06.01-.12.013-.182a5.207,5.207,0,0,0,1.634-5.135c-.03-.127-.065-.251-.105-.373a2.32,2.32,0,0,0,.67.167h.119a.977.977,0,0,0,.735-.325h0a.766.766,0,0,0,.082-.127.118.118,0,0,0,.015-.027.815.815,0,0,0,.05-.127.357.357,0,0,0,.012-.047c.008-.033.015-.066.02-.1v-.154a1.981,1.981,0,0,0-.167-.746,3.307,3.307,0,0,1-.41-1.325.859.859,0,0,1,.013-.112,6.017,6.017,0,0,1,.355-1.059v-.015a1.483,1.483,0,0,0,.042-.156.359.359,0,0,0,.013-.047,1.435,1.435,0,0,0,.025-.186v-.013a1.773,1.773,0,0,0-1.16-1.593,11.3,11.3,0,0,1-1.751-.669,6.663,6.663,0,0,1-1.368-1.638,3.123,3.123,0,0,0-2.678-1.315c-.634.072-1.21.4-1.841.534-.959.2-1.974-.09-2.928.132a1,1,0,0,0-.6.335.685.685,0,0,0-.121.3h0a1.159,1.159,0,0,0,0,.3v.008a2.111,2.111,0,0,0,.052.286l.015.059a.241.241,0,0,0,.013.059c.005.02.022.079.032.117.018.065.034.13.05.2v.023c.015.069.03.137.042.207h0a3.593,3.593,0,0,1,.054.438h0a2.02,2.02,0,0,1-.256,1.191c-.419.669-1.307.965-1.694,1.663a1.454,1.454,0,0,0-.167.544h0a1.367,1.367,0,0,0-.008.191v.025a.666.666,0,0,0,.015.167.265.265,0,0,0,0,.04,1.426,1.426,0,0,0,.034.147.148.148,0,0,0,.013.047,1.265,1.265,0,0,0,.067.167h0c.179.373.517.681.588,1.086h0a.067.067,0,0,0,.008.037,2.726,2.726,0,0,1-.152.9,1.06,1.06,0,0,0-.02.11h0v.223a.366.366,0,0,0,0,.047v.109a.258.258,0,0,0,.017.062l.012.042a.626.626,0,0,0,.027.059l.018.037a.611.611,0,0,0,.04.059.19.19,0,0,0,.02.027.475.475,0,0,0,.077.072c.231.167.591.124.78.335a.414.414,0,0,1,.054.084l.01.02a.458.458,0,0,1,.032.092h0a.912.912,0,0,1,0,.382c-.067.335-.209.639-.285.967-.014.066-.025.133-.033.2h0a.315.315,0,0,1-.008.092v.131a.537.537,0,0,0,.01.127c.01.042,0,.04.01.059l.01.049a.232.232,0,0,0,.018.065l.015.042c.008.023.02.047.03.07a.324.324,0,0,0,.017.032.588.588,0,0,0,.06.1,1.048,1.048,0,0,0,.887.368,2.75,2.75,0,0,0,.593-.067c.044.1.089.2.137.3a5.177,5.177,0,0,0,.942,1.325,1.142,1.142,0,0,1-.017.156c-.039.381-.085.791-.139,1.2-.434-.2-.768-.276-.9-.132-.561.616,0,2.741,0,2.741s-2.737,0-3.406.614-1.9,0-1.9,0-2.511.281-2.344.785-1.339,0-1.339,0-1.061.112-1,.837-1.619,1.061-1.4,1.564-1,.837-1,.837-1.227-.055-.78.669h0s-.67,1.566-1.227,1.673-1.284,1.4-1.284,1.4-2.149.392-2.052,1.062-3.3,5.471-3.3,5.471-1.116,2.3-.335,3.979a33.19,33.19,0,0,1,1.507,3.41c.167.614,2.2,3.318,2.179,3.822a11.933,11.933,0,0,0,1.187,2.078l-.2.207-.44.453s-1.4,3.467.278,3.634a11.014,11.014,0,0,0,2.946.1.694.694,0,0,0,.234-.1l.02-.015c.609.9,1.041,1.526,1.041,1.526s.06-.089.167-.241l.167.239s.134-.191.362-.5c-.074,1.521-.084,3.02-.084,3.02s.727-.112.392,3.243a9.058,9.058,0,0,0,2.009,6.094v4.978h0c0,.112.01.224.023.335a10.148,10.148,0,0,0,.869,3.514c.782,1.452,0,5.256,0,5.256s-.052,3.1.136,6.971c0,.1.012.214.017.321-3.385,2.828-7.015,6.576-7.015,6.576a1.834,1.834,0,0,1,.5.226l-.2.259-.922,1.136h0l-.713.88h0l1.13,3.479,1.234-.482a3.758,3.758,0,0,1,.529,1.946.831.831,0,0,1-.167.39.492.492,0,0,0-.087.192c-.323,1.26,1.024,6.693,3.162,6.929a.749.749,0,0,0,.958-.413,2.89,2.89,0,0,0-.141-1.685,2.783,2.783,0,0,1-.4-2.829c.428-.858,1.137-2.008,1.649-2.819l.211-.335c.46.581.743.954.743.954l1.644-1.767c.035.075.07.149.107.219a5.266,5.266,0,0,0,.425.706l1.115,4.419.45-.1c-.01.107-.017.221-.023.335a5.538,5.538,0,0,0,.367,2.557,1.523,1.523,0,0,0,1.495.935c2.6-.064,3.348-1.467,3.348-1.467v-3.514l.892-.2s-.065-7.72-.3-12.025c0-.1-.01-.187-.015-.278v-.038l5.73-6.159.44-.176a5.95,5.95,0,0,0,3.74-5.2,17.874,17.874,0,0,1,.445-3.8c.445-1.733.057-10.737-.78-12.973a22.758,22.758,0,0,1-1.117-4.755,1.817,1.817,0,0,0,0-2.147,4.268,4.268,0,0,1-.586-.957l1.09-.179.628-.1.335-.057c-.167,1.479-.2,2.615.2,2.886,1.229.837,5.357-1.958,5.357-1.958-1.506,0-2.344-11.239-2.037-11.519s.763-5.912.363-6.915,1.4-5.487,1.4-5.487l.278-.412h0s6.585,2.873,7.31,3.423,3.013-1.339,3.4-.607,2.846,1.82,2.846,1.82,3.627-.366,4.017.529a16.812,16.812,0,0,0,2.735,2.992,12.7,12.7,0,0,1,.089-1.471c.049.115.1.233.146.351,1.111,2.629,2.961,5.957,4.675,4.166C-441.7,223.535-443.174,219.774-444.123,217.878Zm-49.63,11.88v.032l-.013-.013Zm-1.3-12.9-.71,7.481-1.394,1.444-.167.177-1.441-1.568s-.727-.335,0-.95-1.227-2.008-1.227-2.008-.057-1,.67-1.285,1.674-2.125,1.674-2.125l2.623-1.339h0Zm9.334,38.29a.9.9,0,0,1,.167-.122c.313-.177.514.017.618.358a2.882,2.882,0,0,1-.119,1.72c-.39.9.559,4.474.559,4.474a2.722,2.722,0,0,0-1.451,1.621,1.091,1.091,0,0,1-.167.365c-.015-.094-.029-.184-.042-.271-.109-.669-.167-1.1-.167-1.1a7.125,7.125,0,0,1-.112-2.627c.177-1.076.536-3.261.67-4.089.034-.2.052-.321.054-.335Z" fill="url(#linear-gradient)"/>
        <path id="Path_148448" data-name="Path 148448" d="M-477.94,200.681l.362-.241,1.019,2.151-.392.46h-1.185s.042-1.172.07-1.214S-477.94,200.681-477.94,200.681Z" fill="#464353"/>
        <path id="Path_148449" data-name="Path 148449" d="M-484.935,285.9v4.6s-.753,1.4-3.348,1.465a1.521,1.521,0,0,1-1.5-.932,5.576,5.576,0,0,1-.367-2.553,10.183,10.183,0,0,1,.126-1.182Z" fill="#3f3d56"/>
        <path id="Path_148450" data-name="Path 148450" d="M-484.934,285.9v1.424l-5.209,1.158a10.19,10.19,0,0,1,.126-1.182Z" opacity="0.1"/>
        <path id="Path_148451" data-name="Path 148451" d="M-484.041,286.79l-6.528,1.451-1.115-4.409a5.419,5.419,0,0,1-.425-.7c-.072-.141-.142-.29-.209-.445-1.215-2.78-1.756-7.8-1.987-12.062q-.018-.324-.033-.641c-.187-3.86-.136-6.957-.136-6.957s.782-3.8,0-5.244a10.159,10.159,0,0,1-.869-3.515c-.017-.213-.023-.335-.023-.335l.121-.316.492-1.3h5.413l3.147,2.663.479.4-.054.335c-.136.827-.494,3.013-.67,4.081a7.091,7.091,0,0,0,.112,2.621s.065.425.167,1.1c.025.167.054.345.085.537.4,2.474,1.15,6.992,1.47,8.072a12.238,12.238,0,0,1,.226,2.046q.02.3.037.629C-484.107,279.087-484.041,286.79-484.041,286.79Z" fill="#514e7f"/>
        <path id="Path_148452" data-name="Path 148452" d="M-484.934,290.454v.047s-.753,1.4-3.348,1.465a1.521,1.521,0,0,1-1.495-.932A6.478,6.478,0,0,0-484.934,290.454Z" opacity="0.1"/>
        <path id="Path_148453" data-name="Path 148453" d="M-443.661,225.888c-1.721,1.786-3.562-1.535-4.675-4.158-.624-1.476-1.016-2.734-1.016-2.734l4.58-1.938s.281.447.634,1.155C-443.189,220.108-441.711,223.857-443.661,225.888Z" fill="#a1616a"/>
        <path id="Path_148454" data-name="Path 148454" d="M-477.551,199.755a20.927,20.927,0,0,0,.37,4.945s-9.317,1-8.48-.445a16.568,16.568,0,0,0,.986-4.811c.129-1.215.186-2.164.186-2.164s8.927-3.57,7.588-.557A8.873,8.873,0,0,0-477.551,199.755Z" fill="#a1616a"/>
        <path id="Path_148455" data-name="Path 148455" d="M-476.768,223.709l-1.252,14.953,5.747-.947-1-12.332.335-3.293Z" fill="#464353"/>
        <path id="Path_148456" data-name="Path 148456" d="M-472.273,237.738l-2.5.412-3.252.536.229-2.728,1.025-12.225,1.3-.552.924-.39,1.6-.676-.335,3.293Z" opacity="0.1"/>
        <path id="Path_148457" data-name="Path 148457" d="M-496.459,286.857a2.774,2.774,0,0,0,.4,2.824,2.845,2.845,0,0,1,.141,1.674.749.749,0,0,1-.957.412c-2.28-.251-3.661-6.4-3.075-7.106s-.357-2.323-.357-2.323l-1.234.48-1.13-3.472.713-.879.922-1.135.624-.77,6.235,6.506s-.266.4-.633.974C-495.323,284.848-496.031,286-496.459,286.857Z" fill="#3f3d56"/>
        <path id="Path_148458" data-name="Path 148458" d="M-484.336,274.789l-7.774,8.338c-1.363-2.661-1.948-8-2.2-12.509a21.361,21.361,0,0,1,3.9-2.744s3.579-2.59,4.334-3.832c.4,2.474,1.15,6.992,1.47,8.072A17.284,17.284,0,0,1-484.336,274.789Z" opacity="0.1"/>
        <path id="Path_148459" data-name="Path 148459" d="M-486.193,254.986l-9.053-1.361.492-1.3h5.413Z" opacity="0.1"/>
        <path id="Path_148460" data-name="Path 148460" d="M-484.366,274.16l-7.946,8.522c-1.222-2.78-1.763-7.8-1.994-12.062q-.018-.324-.033-.641a21.692,21.692,0,0,1,3.937-2.772,27.36,27.36,0,0,0,4.248-3.7c.025.167.054.345.085.537.4,2.474,1.15,6.992,1.47,8.072A13.381,13.381,0,0,1-484.366,274.16Z" opacity="0.1"/>
        <path id="Path_148461" data-name="Path 148461" d="M-494.178,283.072s-.266.4-.633.974c-1.331-1.682-4.486-5.556-6.227-6.711l.624-.77Z" opacity="0.1"/>
        <path id="Path_148462" data-name="Path 148462" d="M-474,259.168a17.828,17.828,0,0,0-.445,3.8,5.936,5.936,0,0,1-3.739,5.189l-.44.167-15.233,16.342s-5.636-7.365-7.477-7.812c0,0,7.42-7.645,10.936-9.319,0,0,4.242-3.068,4.464-4.128a2.733,2.733,0,0,1,1.451-1.619s-.949-3.57-.559-4.464a2.869,2.869,0,0,0,.119-1.716c-.1-.335-.3-.534-.618-.358a.906.906,0,0,0-.167.122l-9.652-1.451v-4.96a9.027,9.027,0,0,1-2.009-6.081c.335-3.348-.392-3.236-.392-3.236s.035-5.654.512-6.127a54.3,54.3,0,0,1,5.06-2.635l14.369,2.553.593,2.749a9.4,9.4,0,0,0,1.339,3.157,1.808,1.808,0,0,1,0,2.141,22.737,22.737,0,0,0,1.116,4.746C-473.932,248.458-473.55,257.439-474,259.168Z" fill="#514e7f"/>
        <path id="Path_148463" data-name="Path 148463" d="M-476.9,196.722a8.878,8.878,0,0,0-.65,3.033,5.188,5.188,0,0,1-7.124-.311c.129-1.215.186-2.164.186-2.164S-475.563,193.709-476.9,196.722Z" opacity="0.1"/>
        <path id="Path_148464" data-name="Path 148464" d="M-475.761,195.672a5.189,5.189,0,0,1-5.192,5.186,5.188,5.188,0,0,1-5.186-5.192,5.189,5.189,0,0,1,5.192-5.186,5.19,5.19,0,0,1,5.042,3.975A5.2,5.2,0,0,1-475.761,195.672Z" fill="#a1616a"/>
        <path id="Path_148465" data-name="Path 148465" d="M-479.968,204.684s-3.729-1.729-3.962-1.953-7.969,19.642-7.969,19.642l-2.177,9.879s11.6,4.965,14.116,4.3,2.733,0,2.733,0,2.568-14.4,3.4-15.678-.782-14.34-.782-14.34l-2.9-3.8Z" opacity="0.1"/>
        <path id="Path_148466" data-name="Path 148466" d="M-479.968,204.015s-3.729-1.729-3.962-1.953S-491.9,221.7-491.9,221.7l-2.177,9.879s11.6,4.965,14.116,4.3,2.733,0,2.733,0,2.568-14.4,3.4-15.678-.782-14.34-.782-14.34l-2.9-3.8Z" opacity="0.1"/>
        <path id="Path_148467" data-name="Path 148467" d="M-473.832,220.535a11.048,11.048,0,0,0-.7,2.238c-.2.8-.412,1.746-.631,2.767-.988,4.608-2.069,10.675-2.069,10.675s-.069-.2-.552-.275a5.756,5.756,0,0,0-2.176.275c-2.511.67-14.118-4.3-14.118-4.3l.335-1.507,1.841-8.37s7.757-19.864,7.98-19.64c.136.136,1.585.837,2.69,1.358.7.335,1.272.594,1.272.594l2.344-1.851.129-.1,2.887,3.795S-472.995,219.251-473.832,220.535Z" fill="#4285f4"/>
        <path id="Path_148468" data-name="Path 148468" d="M-482.7,206.308a7.4,7.4,0,0,1-.445,3.4s-2.678,6.585-3.46,9.628-5.253,9.176-5.253,9.176-.656.658-1.575,1.573c-.1.1-.209.208-.316.318l1.841-8.37s7.757-19.864,7.98-19.64c.136.136,1.585.837,2.69,1.358C-481.933,204.385-482.925,205.456-482.7,206.308Z" opacity="0.1"/>
        <path id="Path_148469" data-name="Path 148469" d="M-483.035,206.308a7.4,7.4,0,0,1-.445,3.4s-2.678,6.585-3.46,9.628-5.253,9.176-5.253,9.176-.656.658-1.575,1.573c-.109.109-.223.221-.335.335-1.794,1.786-4.317,4.29-5.105,5.022a2.2,2.2,0,0,1-.228.2.714.714,0,0,1-.234.1,11.014,11.014,0,0,1-2.946-.1c-1.674-.167-.278-3.626-.278-3.626l.44-.454.4-.415,4.56-4.692.335-.353,1.394-1.438.71-7.466.017-.179-.527-1.2c-.852-1.957-2.526-5.733-3.139-6.953-.07-.142-.126-.248-.167-.313a.045.045,0,0,0-.013-.023c-.447-.725.78-.67.78-.67s1.229-.335,1-.837,1.451-.837,1.4-1.562,1-.837,1-.837,1.507.5,1.339,0,2.344-.782,2.344-.782,1.227.614,1.9,0,3.416-.613,3.416-.613-.561-2.121,0-2.735,4.766,2.735,4.766,2.735S-483.37,205.023-483.035,206.308Z" fill="#464353"/>
        <path id="Path_148470" data-name="Path 148470" d="M-496.984,234.865s4.632,6.528,7.867,4.409-4.352-7.645-4.352-7.645Z" opacity="0.1"/>
        <path id="Path_148471" data-name="Path 148471" d="M-496.984,234.53s4.632,6.528,7.867,4.409-4.352-7.645-4.352-7.645Z" fill="#a1616a"/>
        <path id="Path_148472" data-name="Path 148472" d="M-474.769,238.133c.353-3.082,1.378-7.712.542-9.116a11.2,11.2,0,0,1-.944-3.477c-.121-.782-.216-1.6-.293-2.377-.2-2.061-.27-3.825-.27-3.825s-2.009-8.959-1.619-10.8a26.923,26.923,0,0,0-.281-6.036l.129-.1,2.888,3.8s1.617,13.057.78,14.34a11.112,11.112,0,0,0-.7,2.238l1.6-.67-.335,3.293,1,12.332Z" opacity="0.1"/>
        <path id="Path_148473" data-name="Path 148473" d="M-477.581,200.429s2.886,2.419,3.984,2.474a2.955,2.955,0,0,1-1.523,1.9,23.475,23.475,0,0,0,4.13.226c1.116-.172,3.068.109,3.458.67a3.615,3.615,0,0,0,1.907,1.391,3.442,3.442,0,0,1,1.4.782l-4.913,7.253s-1.786,4.464-1.4,5.469-.057,6.64-.363,6.918.531,11.5,2.037,11.5c0,0-4.128,2.79-5.356,1.953s1.563-9.876.335-11.942-1.507-9.679-1.507-9.679-2.009-8.957-1.617-10.8S-477.581,200.429-477.581,200.429Z" fill="#464353"/>
        <path id="Path_148474" data-name="Path 148474" d="M-444.138,218.217c-1.491-.465-3.776-.479-4.2,3.515-.624-1.476-1.016-2.734-1.016-2.734l4.58-1.938S-444.491,217.506-444.138,218.217Z" opacity="0.1"/>
        <path id="Path_148475" data-name="Path 148475" d="M-466.971,207.534l2.737.335s.837,1.116,1.615,1.116,1.394,1,1.394,1a3.416,3.416,0,0,0,1.841.445c.725-.167,3.738-.444,4.185.03s3.348.919,3.348.919,1.117,1.729,2.121,1.729,6.584,4.074,6.751,5.524c0,0-5.524-3.515-5.579,4.213a16.916,16.916,0,0,1-2.735-2.985c-.392-.892-4.017-.529-4.017-.529s-2.454-1.09-2.846-1.815-2.678,1.155-3.4.6-7.31-3.416-7.31-3.416l-2.037-3.828Z" fill="#464353"/>
        <circle id="Ellipse_2134" data-name="Ellipse 2134" cx="0.474" cy="0.474" r="0.474" transform="translate(-480.055 213.365)" fill="#3f3d56"/>
        <circle id="Ellipse_2135" data-name="Ellipse 2135" cx="0.474" cy="0.474" r="0.474" transform="translate(-480.529 223.252)" fill="#3f3d56"/>
        <circle id="Ellipse_2136" data-name="Ellipse 2136" cx="0.474" cy="0.474" r="0.474" transform="translate(-480.055 218.049)" fill="#3f3d56"/>
        <circle id="Ellipse_2137" data-name="Ellipse 2137" cx="0.474" cy="0.474" r="0.474" transform="translate(-481.422 228.456)" fill="#3f3d56"/>
        <path id="Path_148476" data-name="Path 148476" d="M-495.912,291.363a.749.749,0,0,1-.957.412c-2.28-.251-3.661-6.4-3.075-7.106s-.365-2.332-.365-2.332l-1.234.48-1.13-3.472.713-.879c.71,1.23,1.726,3,1.965,3.452a6.316,6.316,0,0,1,.628,3.013C-499.406,286.02-498.143,291.222-495.912,291.363Z" opacity="0.1"/>
        <path id="Path_148477" data-name="Path 148477" d="M-475.9,194.449c-.114-.038-.228-.084-.335-.129a2.169,2.169,0,0,1-1.019-.67c-.213-.311-.281-.75-.613-.927-.382-.2-.837.072-1.25.167a2.614,2.614,0,0,1-1.483-.2c-.713-.263-1.709-.747-2.441-.246-.569.388-.348,1.212-.494,1.8-.226.912-1.2,1.507-1.378,2.429-.082.407-.028.9-.358,1.157a.841.841,0,0,1-.321.141,5.188,5.188,0,0,1,2.374-6.943,5.189,5.189,0,0,1,6.944,2.374,5.209,5.209,0,0,1,.382,1.054Z" opacity="0.1"/>
        <path id="Path_148478" data-name="Path 148478" d="M-480.608,192.353a2.6,2.6,0,0,0,1.483.2c.42-.1.867-.375,1.249-.167.335.179.4.616.613.927a2.112,2.112,0,0,0,1.021.67,2.879,2.879,0,0,0,.909.254,1.028,1.028,0,0,0,.854-.323,1.324,1.324,0,0,0,.03-1.329,3.287,3.287,0,0,1-.41-1.324c.022-.552.422-1.033.455-1.584a1.77,1.77,0,0,0-1.16-1.59,11.206,11.206,0,0,1-1.751-.67,6.627,6.627,0,0,1-1.368-1.634,3.125,3.125,0,0,0-2.678-1.312c-.634.072-1.21.4-1.841.532-.959.2-1.974-.09-2.928.132a1.006,1.006,0,0,0-.6.326,1.326,1.326,0,0,0-.01,1.133,2.619,2.619,0,0,1-.105,2.052c-.418.678-1.307.964-1.694,1.661a1.471,1.471,0,0,0-.039,1.339c.184.385.541.7.6,1.122a2.7,2.7,0,0,1-.152.9.8.8,0,0,0,.2.837c.246.167.591.126.78.335a.67.67,0,0,1,.089.576c-.067.335-.209.638-.285.966a1.181,1.181,0,0,0,.129.966,1.451,1.451,0,0,0,1.507.295,1.05,1.05,0,0,0,.423-.167c.335-.253.276-.75.358-1.157.182-.921,1.152-1.518,1.378-2.429.146-.588-.075-1.413.494-1.8C-482.319,191.606-481.321,192.09-480.608,192.353Z" fill="#464353"/>
        <path id="Path_148479" data-name="Path 148479" d="M-481.423,252.88s5.254,3.348,5.422,4.632Z" opacity="0.1"/>
        <path id="Path_148480" data-name="Path 148480" d="M-481.692,255.557s6.026,2.9,5.691,3.9Z" opacity="0.1"/>
        <path id="Path_148481" data-name="Path 148481" d="M-482.092,258.122s3.4,1.786,3.627,2.846Z" opacity="0.1"/>
        <path id="Path_148482" data-name="Path 148482" d="M-480.641,262.139s2.231,1.953,2.678,1.451S-480.641,262.139-480.641,262.139Z" opacity="0.1"/>
        <path id="Path_148483" data-name="Path 148483" d="M-483.765,263.366s1.739,2.789.9,2.956S-483.765,263.366-483.765,263.366Z" opacity="0.1"/>
        <path id="Path_148484" data-name="Path 148484" d="M-491.4,213.839s-2.958,1.784-2.066,2.231S-491.4,213.839-491.4,213.839Z" opacity="0.1"/>
        <path id="Path_148485" data-name="Path 148485" d="M-491.4,207.256s-3.013,5.524-1.619,5.134S-491.4,207.256-491.4,207.256Z" opacity="0.1"/>
        <path id="Path_148486" data-name="Path 148486" d="M-459.39,212.777s-1.841,2.166-1.506,3.348Z" opacity="0.1"/>
        <path id="Path_148487" data-name="Path 148487" d="M-454.584,213.838s-2.764,2.454-2.359,2.734Z" opacity="0.1"/>
        <path id="Path_148488" data-name="Path 148488" d="M-452.864,216.852s-.28,1.614.167,1.674Z" opacity="0.1"/>
        <path id="Path_148489" data-name="Path 148489" d="M-483.011,250.887c-.711.921-.711,2.553-1.033,3.222-.176.368-.567,1-.885,1.52-.1-.335-.3-.534-.618-.358-.206-1.535-.569-4.185-.686-4.719-.167-.753,1.674-2.762,1.674-2.762s1.8.377,2.26,1.3S-482.3,249.965-483.011,250.887Z" opacity="0.05"/>
        <path id="Path_148490" data-name="Path 148490" d="M-492.3,231.52c-2.009.278-5.746,5.634-5.746,5.634s-.49-.713-1.172-1.709c-.857-1.264-2.009-2.986-2.846-4.292l4.9-5.059.892.961s1.731,1.729,1.731,2.064a3.141,3.141,0,0,0,.76.961C-493.12,230.755-492.3,231.52-492.3,231.52Z" opacity="0.1"/>
        <path id="Path_148491" data-name="Path 148491" d="M-498.7,208.875c-.07-.142-.126-.248-.167-.313l2.163.144,1.147,7.117C-496.416,213.872-498.09,210.092-498.7,208.875Z" opacity="0.1"/>
        <path id="Path_148492" data-name="Path 148492" d="M-494.105,230.421c-1.794,1.786-4.317,4.29-5.1,5.022-.073.071-.149.137-.228.2a.694.694,0,0,1-.234.1c-.788-1.158-1.913-2.827-2.784-4.185l.4-.415,4.565-4.689.564.608s1.731,1.729,1.731,2.064A5.216,5.216,0,0,0-494.105,230.421Z" opacity="0.1"/>
        <path id="Path_148493" data-name="Path 148493" d="M-496.366,208.706l-2.511-.167s-.67,1.562-1.227,1.674-1.284,1.393-1.284,1.393-2.149.392-2.056,1.061-3.3,5.459-3.3,5.459-1.117,2.3-.335,3.97a32.933,32.933,0,0,1,1.507,3.4c.167.613,2.149,3.293,2.133,3.795s5.065,7.867,5.065,7.867,3.738-5.357,5.747-5.636a15.7,15.7,0,0,1-2.231-2.4c0-.335-1.717-2.064-1.717-2.064l-2.176-2.343s-.726-.335,0-.949-1.227-2.009-1.227-2.009-.057-1,.67-1.284,1.674-2.119,1.674-2.119l2.623-1.339Z" fill="#464353"/>
        <path id="Path_148494" data-name="Path 148494" d="M-505.954,219.806s3.013-.613,3.068-.223S-505.954,219.806-505.954,219.806Z" opacity="0.1"/>
        <path id="Path_148495" data-name="Path 148495" d="M-503.444,222.846s2.554.335,2.442.881S-503.444,222.846-503.444,222.846Z" opacity="0.1"/>
        <path id="Path_148496" data-name="Path 148496" d="M-501.334,213.363s2.456,3.477,2.79,2.757Z" opacity="0.1"/>
        <g id="Group_160246" data-name="Group 160246" opacity="0.1">
          <path id="Path_148497" data-name="Path 148497" d="M-486.586,187.47a3.748,3.748,0,0,0-.151-1.2,3.718,3.718,0,0,1-.111-.5,2.069,2.069,0,0,0,.111.837A4.288,4.288,0,0,1-486.586,187.47Z"/>
          <path id="Path_148498" data-name="Path 148498" d="M-474.846,191.154c.065-.5.41-.959.442-1.473a1.291,1.291,0,0,0-.01-.256c-.065.519-.425.979-.445,1.507A1.27,1.27,0,0,0-474.846,191.154Z"/>
          <path id="Path_148499" data-name="Path 148499" d="M-474.48,193.581a1.027,1.027,0,0,1-.854.323,2.879,2.879,0,0,1-.909-.254,2.167,2.167,0,0,1-1.021-.67c-.213-.311-.281-.748-.613-.927-.382-.2-.837.072-1.25.167a2.6,2.6,0,0,1-1.481-.2c-.713-.263-1.711-.747-2.442-.248-.569.388-.348,1.214-.494,1.8-.226.911-1.2,1.507-1.378,2.429-.082.407-.028.9-.358,1.157a1.03,1.03,0,0,1-.425.167c-.532.117-1.189.144-1.507-.295a.9.9,0,0,1-.167-.427,1.058,1.058,0,0,0,.167.762,1.452,1.452,0,0,0,1.507.295,1.044,1.044,0,0,0,.425-.167c.335-.253.276-.75.358-1.157.182-.921,1.152-1.518,1.378-2.429.146-.588-.075-1.413.494-1.8.732-.5,1.729-.015,2.442.248a2.6,2.6,0,0,0,1.481.2c.422-.1.869-.375,1.25-.167.335.179.4.616.613.927a2.112,2.112,0,0,0,1.021.67,2.879,2.879,0,0,0,.909.254,1.027,1.027,0,0,0,.854-.323.99.99,0,0,0,.181-.768A.84.84,0,0,1-474.48,193.581Z"/>
          <path id="Path_148500" data-name="Path 148500" d="M-487.978,192.435c-.055-.424-.412-.737-.6-1.122a1.42,1.42,0,0,1-.131-.46,1.46,1.46,0,0,0,.131.8c.179.373.517.681.588,1.085A1.028,1.028,0,0,0-487.978,192.435Z"/>
          <path id="Path_148501" data-name="Path 148501" d="M-487.048,195.048a.636.636,0,0,0-.1-.531c-.189-.216-.549-.167-.78-.335a.584.584,0,0,1-.219-.4.752.752,0,0,0,.219.733c.219.159.591.126.78.335A.465.465,0,0,1-487.048,195.048Z"/>
        </g>
        <path id="Path_148502" data-name="Path 148502" d="M-526.755,281.7s-6.923-.418-6.108,4.434a1.174,1.174,0,0,0,.616,1.247s.012-.36.71-.238a3.154,3.154,0,0,0,.752.035,1.569,1.569,0,0,0,.921-.378h0s1.947-.8,2.7-3.986c0,0,.559-.7.537-.872l-1.172.5a2.086,2.086,0,0,1,.085,1.543s-.038-1.507-.263-1.478c-.045.008-.608.293-.608.293a3.442,3.442,0,0,1,.167,2.536s.2-1.809-.383-2.43l-.822.48a3.628,3.628,0,0,1,.258,2.755,5.165,5.165,0,0,0-.43-2.638l-.747.581a3.552,3.552,0,0,1,.295,2.523s-.06-2.211-.455-2.377a4.515,4.515,0,0,0-.752.81s.516,1.086.2,1.659c0,0-.2-1.473-.358-1.48a4.886,4.886,0,0,0-.716,1.644,3.562,3.562,0,0,1,.559-1.738,1.972,1.972,0,0,0-.994.516s.1-.69,1.155-.75a4.548,4.548,0,0,1,.681-.785,4.29,4.29,0,0,0-1.684.194,1.893,1.893,0,0,1,1.875-.355l.737-.6a6.14,6.14,0,0,0-1.965.02,2.386,2.386,0,0,1,2.164-.156l.8-.479a7.359,7.359,0,0,0-1.878-.167,2.885,2.885,0,0,1,2.112.033l.574-.258s-.862-.167-1.115-.2-.266-.1-.266-.1a3.007,3.007,0,0,1,1.619.181A7.394,7.394,0,0,0-526.755,281.7Z" fill="#4285f4"/>
        <ellipse id="Ellipse_2138" data-name="Ellipse 2138" cx="4.901" cy="0.829" rx="4.901" ry="0.829" transform="translate(-536.425 286.979)" fill="#91d4f5"/>
      </g>
    </g>
  </g>
</svg>
