<svg xmlns="http://www.w3.org/2000/svg" xmlns:xlink="http://www.w3.org/1999/xlink" width="262.006" height="196" viewBox="0 0 262.006 196">
  <defs>
    <linearGradient id="linear-gradient" x1="2.566" y1="13.659" x2="2.582" y2="13.659" gradientUnits="objectBoundingBox">
      <stop offset="0" stop-color="gray" stop-opacity="0.251"/>
      <stop offset="0.54" stop-color="gray" stop-opacity="0.122"/>
      <stop offset="1" stop-color="gray" stop-opacity="0.102"/>
    </linearGradient>
    <linearGradient id="linear-gradient-2" x1="0.813" y1="11.95" x2="0.813" y2="11.964" xlink:href="#linear-gradient"/>
  </defs>
  <g id="card-15" transform="translate(324.224 594.797)">
    <rect id="Rectangle_8569-2" data-name="Rectangle 8569-2" width="262" height="196" transform="translate(-324.217 -594.797)" fill="#ffc5c5"/>
    <g id="undraw_design_tools_42tf" data-name="undraw design tools 42tf">
      <path id="Path_156321" data-name="Path 156321" d="M-64.215-456.791a18.827,18.827,0,0,1-5.177,6.212c-.306.245-.619.482-.936.713q-.642.45-1.314.885A43.2,43.2,0,0,1-83.2-444.153q-1.63.45-3.27.846-1.384.336-2.771.626c-.351.077-.7.149-1.053.225s-.754.151-1.125.225l-.533.1a137.525,137.525,0,0,1-31.285,1.787l-.5-.025-.8-.041q-3.2-.166-6.417-.424l-.81-.065-.358-.029q-1.8-.151-3.6-.331-2.373-.225-4.751-.5l-.2-.022-.167-.02h0c-5.661-.637-11.334-1.4-17.015-2.188l-.8-.112-1.443-.2-1.215-.169h0l-.36-.049-5.753-.8-.311-.043c-3.6-.493-7.223-.968-10.833-1.4l-.47-.056h0q-2.217-.264-4.432-.5l-1.125-.119-1.5-.151c-4.148-.412-8.294-.74-12.431-.945q-2.985-.15-5.982-.225-2.477-.057-4.952-.065-3.358-.017-6.73.038h-.509c-3.167.052-6.34.142-9.516.25l-.572.018h-.2c-6.752.239-13.5.556-20.238.783l-1.645.053h-.239q-3.512.114-7.015.174h-1.388l-1.044.014q-1.627.015-3.248.018h-1.326c-3.966-.011-7.916-.1-11.841-.3l-.437-.025a149.771,149.771,0,0,1-22.579-2.81q-1.15-.24-2.3-.5a105.284,105.284,0,0,1-15.035-4.571,17.915,17.915,0,0,1-6.376-3.7c-4.447-4.5-2.777-13.317,3.009-15.881,4.526-2.005,9.829-.374,14.7-1.278a7.54,7.54,0,0,0,.885-.225,12.261,12.261,0,0,0,1.8-.743c.2-.1.4-.2.6-.315a15.011,15.011,0,0,0,1.332-.815,20.4,20.4,0,0,0,2.026-1.537q.428-.365.833-.756a15.961,15.961,0,0,0,2.458-2.942,10.488,10.488,0,0,0,.675-1.269,6.71,6.71,0,0,0,.279-.7,6.615,6.615,0,0,0,.268-1.04,4.814,4.814,0,0,0-1.774-4.677,4.953,4.953,0,0,0-.45-.34,7.08,7.08,0,0,0-.977-.565c-.137-.065-.279-.128-.423-.189-2.057-.866-4.711-1.2-6.948-1.8h0a12.266,12.266,0,0,1-1.99-.691c-.407-.189-.812-.387-1.211-.594h0l-.106-.058h0a27.081,27.081,0,0,1-8.778-7.2,23.2,23.2,0,0,1-1.634-2.372c-.151-.248-.3-.5-.437-.756-3.954-7.135-4.362-16.277-.248-23.292a22.02,22.02,0,0,1,1.666-2.444q.3-.384.614-.756c3.916-4.621,9.543-7.751,15.224-10.07a107.131,107.131,0,0,1,23.745-6.369q2.475-.393,4.952-.707c6.91-.882,13.9-1.35,20.841-1.706q9.738-.492,19.563-.637,3.329-.045,6.664-.038,7.515,0,15.03.29,2.475.1,4.952.225,6.348.33,12.674.9,3.037.276,6.063.605a248.739,248.739,0,0,1,45.108,8.953q2.487.753,4.952,1.576a191.6,191.6,0,0,1,18.093,6.993q.837.377,1.67.756,5.533,2.539,10.911,5.471a121.529,121.529,0,0,1,13.639,8.553q2.547,1.869,4.952,3.9a71.4,71.4,0,0,1,7.9,7.8q.324.377.641.756,1.647,1.979,3.128,4.1c4.816,6.923,8.049,14.841,10.434,22.93C-62.282-471.294-60.882-463.369-64.215-456.791Z" fill="#fbd9dc"/>
      <path id="Path_156322" data-name="Path 156322" d="M-67.242-480.936H-86.469v-24.459h8.553q-.318-.38-.641-.756h-7.9v-7.8q-2.4-2.025-4.952-3.9v11.7h-44.33v-25.73h19.763l-1.67-.756h-18.093v-6.984q-2.477-.816-4.952-1.575v8.553h-63.263l-.151-.144,18.3-17.371q-3.026-.333-6.063-.6l-12.674,12.028v-12.921q-2.476-.13-4.952-.225v13.975l-15.03-14.265q-3.333,0-6.664.038l20.382,19.345-.151.144h-60.635v-17.121q-2.477.313-4.952.707v16.43h-38.977q-.318.372-.614.756h39.583v25.721h-41.01c.14.254.286.509.437.756h40.573v24.458h-19.957q-.4.393-.833.756h20.79v25.028q2.475.354,4.952.738v-25.766h62.1v31.36q2.475,0,4.952.065v-31.425h63.856v38.39l.2.023q2.376.267,4.751.5v-38.913h44.314v37.938c.378-.07.756-.144,1.125-.225s.7-.142,1.053-.225q1.386-.294,2.771-.626v-36.862h19.386Zm-142.255,0h-62.1v-24.459h62.1Zm0-25.208h-62.1v-25.728h61.219l.873.689Zm68.8,25.208h-63.844v-24.459h63.849Zm0-25.208h-63.844v-25.728h63.849Zm49.27,25.208h-44.312v-24.459h44.314Z" fill="#f8ced0"/>
      <path id="Path_156323" data-name="Path 156323" d="M-257.329-446.4a.356.356,0,0,1-.025.074h0a.2.2,0,0,1,.027-.074Z" fill="#eaecf0"/>
      <path id="Path_156324" data-name="Path 156324" d="M-256.154-447.482h-1.391l-1.044.014-.115-1.186-.106-1.125-.491-5.134-.016-.158v-.07l-.137-1.445,2.1-.788.257,2.1.018.155v.018l.52,4.254.16,1.3.092.759.079.65v.022Z" fill="#eaecf0"/>
      <path id="Path_156325" data-name="Path 156325" d="M-248.607-446.406l.025.074h-.167l-.025-.074Z" fill="#3a3768"/>
      <path id="Path_156326" data-name="Path 156326" d="M-229.364-446.334" fill="#3a3768"/>
      <path id="Path_156327" data-name="Path 156327" d="M-216.009-476.059v.1a57.831,57.831,0,0,0-2.6,9.941q-.066.45-.108.9c-.032.317-.056.628-.07.93-.018.353-.023.7-.014,1.022v.225c0,.151.016.306.025.466s.023.32.036.486.027.313.043.473a103.746,103.746,0,0,0,2.323,12.2s.061.2.14.529h-.509c-3.167.052-6.34.142-9.516.25l-.572.018h-.189c-6.752.239-13.5.556-20.238.783l-1.645.054h-.238q-3.511.114-7.016.173h-.621a3.792,3.792,0,0,1,.545-.615,3.937,3.937,0,0,1,.551-.427,12.392,12.392,0,0,1,3.455-1.483,2.771,2.771,0,0,1,.79-.1l1.575.031h.243l2.417.047,20.733.412h.052l.146-.029a3.887,3.887,0,0,0,.7-.248,2.459,2.459,0,0,0,1.477-1.909c0-.07.018-.144.022-.224a3,3,0,0,0,0-.329,1.228,1.228,0,0,0-.018-.242c-.018-.083-.022-.166-.038-.252-.5-2.793-1.35-11.391-1.35-11.391v.027s0-.367.02-.984v-.284c0-.137.016-.286.025-.45,0-.1.014-.2.02-.3.011-.151.025-.306.038-.468a.14.14,0,0,1,0-.029c.009-.1.018-.2.027-.311v-.034c.335-3.32,1.391-8.575,4.726-10.521,1.564-.917,2.6-1.1,3.282-.922a2.021,2.021,0,0,1,1.3,1.969v.131A3.564,3.564,0,0,1-216.009-476.059Z" fill="#3a3768"/>
      <path id="Path_156328" data-name="Path 156328" d="M-257.329-446.4a.356.356,0,0,1-.025.074h0a.2.2,0,0,1,.027-.074Z" opacity="0.1"/>
      <path id="Path_156329" data-name="Path 156329" d="M-248.607-446.406l.025.074h-.167l-.025-.074Z" opacity="0.1"/>
      <path id="Path_156330" data-name="Path 156330" d="M-229.364-446.334" opacity="0.1"/>
      <path id="Path_156331" data-name="Path 156331" d="M-216.009-476.059v.07a61.191,61.191,0,0,0-2.39,8.663h0c-.054.3-.1.591-.149.871q-.033.216-.063.432-.066.45-.108.9c-.031.317-.056.628-.07.929-.018.354-.022.7-.013,1.022v.225c0,.151.016.306.025.466s.023.322.036.486.027.313.043.473.032.313.05.47c.072.637.162,1.3.266,1.985.7,4.585,2.008,9.721,2.008,9.721s.065.207.144.554h-.509c-3.167.052-6.34.143-9.516.25l-.572.018h-.189c-6.752.239-13.5.557-20.238.783l-1.645.055h-.239q-3.512.113-7.015.172h-.639a3.829,3.829,0,0,1,.563-.637,3.746,3.746,0,0,1,.554-.432,12.537,12.537,0,0,1,3.455-1.483,2.841,2.841,0,0,1,.79-.094l1.575.031h.243l2.424.047,20.749.41h.036a.533.533,0,0,0,.162-.034,3.575,3.575,0,0,0,.7-.254,2.458,2.458,0,0,0,1.456-1.87c0-.07.018-.144.022-.225a3.011,3.011,0,0,0,0-.329,1.224,1.224,0,0,0-.018-.241c-.018-.083-.023-.182-.038-.277-.5-2.793-1.35-11.391-1.35-11.391s0-.367.02-.984v-.284c0-.137.016-.286.025-.45,0-.1.013-.2.02-.3.011-.151.025-.306.038-.468a.071.071,0,0,1,0-.029c.008-.1.017-.2.027-.31v-.034c.04-.414.1-.86.162-1.326.468-3.259,1.639-7.515,4.555-9.229,1.524-.9,2.543-1.088,3.228-.934a2,2,0,0,1,1.35,2.01v.131A3.446,3.446,0,0,1-216.009-476.059Z" opacity="0.1"/>
      <path id="Path_156332" data-name="Path 156332" d="M-257.329-446.4a.356.356,0,0,1-.025.074h0a.2.2,0,0,1,.027-.074Z" fill="#3a3768"/>
      <path id="Path_156333" data-name="Path 156333" d="M-248.607-446.406l.025.074h-.167l-.025-.074Z" fill="#3a3768"/>
      <path id="Path_156334" data-name="Path 156334" d="M-229.364-446.334" fill="#3a3768"/>
      <path id="Path_156335" data-name="Path 156335" d="M-216.585-476.25s-2.937,8.026-2.8,12.829,2.435,13.828,2.435,13.828a8.473,8.473,0,0,1,.2.824c-3.167.052-6.34.142-9.516.25l-.572.018h-.189c-6.752.239-13.5.556-20.238.783l-1.645.054h-.225q-3.512.113-7.015.173h-1.4a4.051,4.051,0,0,1,1.236-1.3l.061-.043a12.543,12.543,0,0,1,3.453-1.452,2.841,2.841,0,0,1,.79-.094l2.08.041h.243l2.505.049,20.2.4a3.373,3.373,0,0,0,.835-.272,2.345,2.345,0,0,0,.257-.137h0a2.714,2.714,0,0,0,.675-.551,2.549,2.549,0,0,0,.52-2.251c-.5-2.793-1.35-11.391-1.35-11.391s-.144-10.461,4.871-13.4c2.026-1.186,3.164-1.146,3.8-.675a.541.541,0,0,1,.054.04A2.94,2.94,0,0,1-216.585-476.25Z" fill="#3a3768"/>
      <path id="Path_156336" data-name="Path 156336" d="M-297.408-456.557l-.081.839-.491,5.152q-1.15-.24-2.3-.5l.574-4.684.194-1.591Z" fill="#eaecf0"/>
      <path id="Path_156337" data-name="Path 156337" d="M-311.812-458.222l12.257-26.088,49.374,3.851,4.551,22.237Z" fill="#efc6cd"/>
      <path id="Path_156338" data-name="Path 156338" d="M-311.812-455.947v-2.275h66.18v3.327Z" fill="#d48a9b"/>
      <path id="Path_156339" data-name="Path 156339" d="M-293.15-462.033l29.61.6a.41.41,0,0,0,.42-.4.437.437,0,0,0-.02-.139l-4.616-12.448-19.943-.38-5.9,12.077a.491.491,0,0,0,.251.648.483.483,0,0,0,.2.041Z" fill="#dfe6f5"/>
      <path id="Path_156340" data-name="Path 156340" d="M-293.15-462.033l29.61.6a.41.41,0,0,0,.42-.4.437.437,0,0,0-.02-.139l-4.616-12.448-19.943-.38-5.9,12.077a.491.491,0,0,0,.251.648.483.483,0,0,0,.2.041Z" opacity="0.15"/>
      <path id="Path_156341" data-name="Path 156341" d="M-293.388-462.553l29.916.63-4.067-12.32a1.016,1.016,0,0,0-.943-.7l-19.225-.365Z" fill="#dfe6f5"/>
      <path id="Path_156342" data-name="Path 156342" d="M-290.916-465.341l3.585-7.889a.958.958,0,0,1,.869-.558h8.911a.953.953,0,0,1,.952.952h0v8.524a.955.955,0,0,1-.955.953h-.045L-290.1-464a.952.952,0,0,1-.9-1,.931.931,0,0,1,.084-.345Z" fill="#4c4c56"/>
      <path id="Path_156343" data-name="Path 156343" d="M-273.342-466.34l.153-4.5a.691.691,0,0,1,.689-.675h2.633a.69.69,0,0,1,.675.572l.774,4.477a.691.691,0,0,1-.564.8.6.6,0,0,1-.111.01l-3.563.032a.689.689,0,0,1-.687-.691v-.023Z" fill="#d1d9ec"/>
      <path id="Path_156344" data-name="Path 156344" d="M-308.228-495.618l9.928-.828a.676.676,0,0,1,.707.4L-288.2-474.8l-5.24,11.762c.164-.369.286,2.5-.9.013l-14.92-31.125C-309.466-494.564-308.694-495.559-308.228-495.618Z" fill="#4c4c56"/>
      <path id="Path_156345" data-name="Path 156345" d="M-308.228-495.618l9.928-.828a.676.676,0,0,1,.707.4L-288.2-474.8l-5.24,11.762c.164-.369.286,2.5-.9.013l-14.92-31.125C-309.466-494.564-308.694-495.559-308.228-495.618Z" opacity="0.15"/>
      <path id="Path_156346" data-name="Path 156346" d="M-308.229-495.618l10.432-1.332a.676.676,0,0,1,.707.4l9.39,21.249-5.681,12.75-15.379-32.1a.674.674,0,0,1,.312-.9.677.677,0,0,1,.221-.064Z" fill="#4c4c56"/>
      <path id="Path_156347" data-name="Path 156347" d="M-305.625-494.123l7.542-1.175a.677.677,0,0,1,.731.414l7.9,19.325a.614.614,0,0,1-.013.5l-3.617,7.558a.609.609,0,0,1-.811.294.6.6,0,0,1-.294-.294l-11.949-25.663a.675.675,0,0,1,.317-.9A.691.691,0,0,1-305.625-494.123Z" fill="#e57373"/>
      <path id="Path_156349" data-name="Path 156349" d="M-225.151-450.581s-.155.257-.383.675l-.02.038c-.2.36-.45.833-.7,1.35l-.572.018h-.189c-6.752.239-13.5.556-20.238.783l-1.645.054h-.239q-3.512.114-7.015.173h-1.391l-1.044.013q-1.627.016-3.248.018h-1.287c-3.966-.011-7.916-.1-11.841-.3l-.437-.025c.772-1.679,2.152-4.432,3.273-5.312.867-.675,7.09-1.425,12.813-1.974l.6-.059h.013l1.6-.149c2.19-.2,4.177-.362,5.6-.473l.131-.011-.738-2.476-1.069-3.6.3-3.025.025-.243h-.034a1.969,1.969,0,0,1-.9-.112l-10.689-.369h-.194l-4.1-.146h0c-2.2-.079-3.765-.137-3.826-.148a.88.88,0,0,1-.189-.052.826.826,0,0,1-.261-.157,1.025,1.025,0,0,1-.225-.27h-.144l-.581.038-.3.02c-.011-.031-.02-.063-.032-.092-.027-.088-.054-.171-.079-.257h-.155l-2.026-.043h-.036s-5.226.4-7.956-.6h0c-1-.365-1.668-.916-1.616-1.742a1.859,1.859,0,0,1,.117-.549c-.878-1.641,3.41-4.634,6.678-3.808a5.77,5.77,0,0,0,2.714.113,3.488,3.488,0,0,0,1.35-.614,1.323,1.323,0,0,0,.11-.088c-.054-.034-.11-.063-.162-.09a2.548,2.548,0,0,0-.713-.248l.887-.259h.014s3.151-.288,5.2-.4h.014c.61-.031,1.125-.052,1.431-.043a8.812,8.812,0,0,0,4.094-1.224c.113-.3,1.314,0,1.314,0l1.051-.41c1.051-.407,1.652-.963,1.652-1.373s.939-.853.939-.853a8.888,8.888,0,0,1,2.125-2.149c.754-.583,1.537-1.1,2.118-1.465a42.59,42.59,0,0,1,.9-4.33,5.642,5.642,0,0,1,2.077-2.636l.162-.108a11.757,11.757,0,0,0-.5-1.648q-.024-.069-.054-.135c-.045-.106-.092-.209-.14-.306l-.07-.135c-.115.023-.225.043-.347.059a7.714,7.714,0,0,1-1.125.083,7.721,7.721,0,0,1-7.461-5.627v-.013a7.574,7.574,0,0,1-.27-2.026,7.39,7.39,0,0,1,.257-1.945h0c.034-.135.074-.268.117-.4a.27.27,0,0,1,.016-.045c.02-.061.041-.124.063-.185a7.912,7.912,0,0,1-1.006.088h-.225a4.75,4.75,0,0,1-1.884-.313h0a2.491,2.491,0,0,1-.416-.225.047.047,0,0,1-.018-.013,2.063,2.063,0,0,1-.464-.367,2.386,2.386,0,0,0,.916-1.594,2.929,2.929,0,0,1,.27-1.425,2.05,2.05,0,0,1,.527-.45,33.5,33.5,0,0,0,3.23-2.9,6.314,6.314,0,0,1,3.849-1.846c1.954-.061,3.673,1.3,5.609,1.555a15.52,15.52,0,0,1,1.785.2,6.181,6.181,0,0,1,1.812.918,4.58,4.58,0,0,1,1.292,1.1,3.9,3.9,0,0,1,.527,1.258,13.994,13.994,0,0,1,.45,2.883c.052,1.02,0,2.046.108,3.059a5.233,5.233,0,0,0,.864,2.46h.029a3.155,3.155,0,0,0,.279.342c-.191.061-.383.115-.578.162a9.046,9.046,0,0,1-.988.2,2.858,2.858,0,0,1-.461.038,1.322,1.322,0,0,1-.32-.029l.2.133.549.369h0l.207.137.416.277c.094-.277.225-.351.376-.333.306-.288.763.335.763.335a4.5,4.5,0,0,0,1.625,1.4,12.5,12.5,0,0,0,1.155.6c8.411,5.012,7.877,12.512,8.373,13.106s.527,2.746.527,2.746,1.24,7.312,1.8,7.945.036.853.524,1.56a5.811,5.811,0,0,1,.376,2.6s.338,4.454,1.54,5.42c1.078.867,2.519,8.157,2.8,9.647Z" fill="url(#linear-gradient)"/>
      <path id="Path_156350" data-name="Path 156350" d="M-274.449-474.042s-1.168,1.839-4.477.992-7.686,2.354-6.437,3.934,9.3-.45,9.3-.45l3.09-.626-.2-2.573Z" fill="#d38884"/>
      <path id="Path_156351" data-name="Path 156351" d="M-274.449-474.042s-1.168,1.839-4.477.992-7.686,2.354-6.437,3.934,9.3-.45,9.3-.45l3.09-.626-.2-2.573Z" opacity="0.1"/>
      <path id="Path_156352" data-name="Path 156352" d="M-273.368-474.142l-1.434-.074-.882.257s2.8.406,2.026,4.193l3.014-.182Z" fill="#a36468"/>
      <path id="Path_156353" data-name="Path 156353" d="M-273.368-474.142l-1.434-.074-.882.257s2.8.406,2.026,4.193l3.014-.182Z" opacity="0.1"/>
      <path id="Path_156354" data-name="Path 156354" d="M-254.394-482.613s-3.934,2.251-5.039,4.121c0,0-.918.45-.918.846s-.59.954-1.618,1.35l-1.031.4s-1.177-.3-1.287,0a8.559,8.559,0,0,1-4.008,1.213c-1.326-.036-6.509.45-6.509.45a4.609,4.609,0,0,1,2.611,5.111l12.248-.513,4.632-1.031,2.723-2.721Z" fill="#444053"/>
      <path id="Path_156355" data-name="Path 156355" d="M-254.394-482.613s-3.934,2.251-5.039,4.121c0,0-.918.45-.918.846s-.59.954-1.618,1.35l-1.031.4s-1.177-.3-1.287,0a8.559,8.559,0,0,1-4.008,1.213c-1.326-.036-6.509.45-6.509.45a4.609,4.609,0,0,1,2.611,5.111l12.248-.513,4.632-1.031,2.723-2.721Z" opacity="0.1"/>
      <path id="Path_156356" data-name="Path 156356" d="M-272.443-466.341l-1.733-.034-2.025-.041s-9.565.736-9.379-2.323,7.544-4.132,8.568-3.255a10.573,10.573,0,0,0,3.392,1.418c.261.07.421.108.421.108Z" fill="#d38884"/>
      <path id="Path_156357" data-name="Path 156357" d="M-272.447-466.34l-1.733-.034c-.691-2.374.11-3.682.565-4.2.261.07.421.108.421.108Z" opacity="0.1"/>
      <path id="Path_156358" data-name="Path 156358" d="M-271.275-466.21l-1.8.126-.855.059c-1.177-3.457.725-4.819.725-4.819h.563l.921.11Z" fill="#a36468"/>
      <path id="Path_156359" data-name="Path 156359" d="M-249.466-489.158l-2.134,4.051s-.326-4.1-1.276-6.036a1.718,1.718,0,0,0-.858-.952c-.9-.284,4.276-5.958,4.276-5.958a20.889,20.889,0,0,1,2.377,1.5c1.335.9,2.942,2,4.022,2.7C-241.008-492.543-249.466-489.158-249.466-489.158Z" fill="#d38884"/>
      <path id="Path_156360" data-name="Path 156360" d="M-252.2-489.082a5.756,5.756,0,0,0-2.192,2.719,45.314,45.314,0,0,0-.921,4.524s.774,6.95,1.177,7.281,1.936,7.281,1.936,7.281l1.486-.992-1.949-8.753S-251.369-488.27-252.2-489.082Z" fill="#444053"/>
      <path id="Path_156361" data-name="Path 156361" d="M-252.2-489.082a5.756,5.756,0,0,0-2.192,2.719,45.314,45.314,0,0,0-.921,4.524s.774,6.95,1.177,7.281,1.936,7.281,1.936,7.281l1.486-.992-1.949-8.753S-251.369-488.27-252.2-489.082Z" opacity="0.1"/>
      <path id="Path_156362" data-name="Path 156362" d="M-244.739-473.577h-8.573l1.389-13.524h7.184Z" fill="#a36468"/>
      <path id="Path_156363" data-name="Path 156363" d="M-264.6-446.4h.1l-.194.074Z" fill="#67647e"/>
      <path id="Path_156364" data-name="Path 156364" d="M-248.473-452.564l-1.677.644-.225.083-6.036,2.321-2.3.885-3.133,1.2h-1.278c-3.966-.011-7.916-.1-11.841-.3.761-1.668,2.091-4.337,3.176-5.2.846-.675,6.9-1.4,12.489-1.954q1.05-.1,2.057-.194l.16-.016c2.219-.2,4.227-.367,5.627-.479l.225-.018,1.76-.135.185-.185.225.963.187.77Z" fill="#67647e"/>
      <path id="Path_156365" data-name="Path 156365" d="M-264.6-446.4h.1l-.194.074Z" opacity="0.1"/>
      <path id="Path_156366" data-name="Path 156366" d="M-248.473-452.564l-1.677.644-.225.083-6.036,2.321-2.3.885-3.133,1.2h-1.278c-3.966-.011-7.916-.1-11.841-.3.761-1.668,2.091-4.337,3.176-5.2.846-.675,6.9-1.4,12.489-1.954q1.05-.1,2.057-.194l.16-.016c2.219-.2,4.227-.367,5.627-.479l.225-.018,1.76-.135.185-.185.225.963.187.77Z" opacity="0.1"/>
      <path id="Path_156367" data-name="Path 156367" d="M-264.6-446.4h.1l-.194.074Z" fill="#67647e"/>
      <path id="Path_156368" data-name="Path 156368" d="M-257.329-446.4a.356.356,0,0,1-.025.074h0a.2.2,0,0,1,.027-.074Z" fill="#67647e"/>
      <path id="Path_156369" data-name="Path 156369" d="M-248.583-446.332h-.167l-.025-.074h.167Z" fill="#67647e"/>
      <path id="Path_156370" data-name="Path 156370" d="M-247.039-454.916l-.139,4.632v.274l-.07,2.294-1.645.054h-.239q-3.512.114-7.015.173h-1.391l-1.044.014q-1.627.017-3.248.018h-1.3c1.17-.725,2.685-1.524,4.315-2.323.731-.36,1.49-.718,2.251-1.071,2.026-.941,4.076-1.83,5.748-2.539l.214-.09c.648-.275,1.236-.52,1.738-.727,1.085-.45,1.774-.72,1.821-.738Z" fill="#67647e"/>
      <path id="Path_156371" data-name="Path 156371" d="M-262.071-473.953a8.437,8.437,0,0,0,1.551,2.458c.11.108.3.207.4.088a.286.286,0,0,0,.043-.167,2.155,2.155,0,0,0-.4-1.148c-.225-.347-.491-.662-.691-1.022s-.43-1.053-.88-1.148C-262.632-475.013-262.2-474.218-262.071-473.953Z" opacity="0.1"/>
      <path id="Path_156372" data-name="Path 156372" d="M-247.089-496.559c-.032.113-.065.225-.1.333a7.582,7.582,0,0,1-5.685,5.075,1.718,1.718,0,0,0-.858-.952c-.9-.284,4.276-5.958,4.276-5.958A24.3,24.3,0,0,1-247.089-496.559Z" opacity="0.1"/>
      <path id="Path_156373" data-name="Path 156373" d="M-246.818-498.721a7.561,7.561,0,0,1-7.577,7.544,7.56,7.56,0,0,1-7.543-7.577,7.56,7.56,0,0,1,7.576-7.543,7.562,7.562,0,0,1,5.33,2.214A7.58,7.58,0,0,1-246.818-498.721Z" fill="#d38884"/>
      <path id="Path_156374" data-name="Path 156374" d="M-251.489-487.468s-1.575,1.913-1.323,3.165h1.911l1.4-1.576Z" fill="#67647e"/>
      <path id="Path_156375" data-name="Path 156375" d="M-245.885-495.546l-6.009,8.262s1.544,2.208,2.28,2.318,4.934-9.773,4.934-9.773Z" opacity="0.1"/>
      <path id="Path_156376" data-name="Path 156376" d="M-245.808-495.694l-6.012,8.274s1.544,2.206,2.28,2.316,4.934-9.77,4.934-9.77Z" fill="#a36468"/>
      <path id="Path_156377" data-name="Path 156377" d="M-252.591-485.111a52.457,52.457,0,0,1-.59,5.552c-.295.921,0,9.377,0,9.377l2.759-1.139L-250.9-484.3Z" fill="#67647e"/>
      <path id="Path_156378" data-name="Path 156378" d="M-248.607-446.406l.025.074h-.167l-.025-.074Z" opacity="0.1"/>
      <path id="Path_156379" data-name="Path 156379" d="M-229.364-446.334" opacity="0.1"/>
      <path id="Path_156380" data-name="Path 156380" d="M-226-450.395l-.137.225c-.086.14-.178.313-.3.533a.127.127,0,0,0-.016.027c-.167.308-.365.686-.565,1.1-6.752.239-13.5.556-20.238.783l-1.645.054h-.239l-.707-2.386v-.025l-.074-.252-.45-1.5-.45-1.524-.466-1.625-.171-.59-.045-.148-.734-2.5-.995-3.392.322-3.236h0l.023-.245.29-2.9.04-.86h0l.023-.45v-.128h0l.05-1.044.148-3.106.077-1.589h0l.013-.241h0l.153-3.189.434-1.3.225-.648.5-1.506.108-.371h0c.158-.565.475-1.681.772-2.755h0l.027-.092h0l.02-.07.212-.763.263-.979c.1-.376.164-.644.18-.736a14.364,14.364,0,0,1,1.008-1.8h0c1.125-1.861,2.818-4.6,3.011-5.519v-.023a1.089,1.089,0,0,1,.047-.164c.092-.275.225-.349.365-.331a.481.481,0,0,1,.178.07,1.445,1.445,0,0,1,.351.338,4.461,4.461,0,0,0,1.591,1.389l.122.07.072.043c.518.3.936.484.936.484,8.238,4.965,7.724,12.395,8.2,12.982a6.979,6.979,0,0,1,.515,2.723s1.213,7.245,1.765,7.877.038.846.515,1.546a5.735,5.735,0,0,1,.367,2.55s.331,4.411,1.508,5.368S-226-450.395-226-450.395Z" opacity="0.1"/>
      <path id="Path_156381" data-name="Path 156381" d="M-225.781-450.462l-.1.171h0c-.079.139-.2.36-.356.637l-.016.031c-.171.317-.374.7-.574,1.125h-.189c-6.752.239-13.5.556-20.238.783l-1.645.054-.7-2.395v-.025l-.074-.252-.466-1.576-.45-1.53-.45-1.528-.178-.612h0l-.77-2.629L-253-461.672l.281-2.816.038-.376.311-3.2h0l.119-2.494.146-3.014.038-.79.043-.914.018-.385.146-3.011.434-1.3.187-.56.437-1.317.092-.279s.421-1.479.828-2.944q.024-.081.045-.162c.036-.126.07-.252.106-.376h0c.036-.126.07-.25.1-.374.115-.41.225-.792.3-1.107.11-.412.185-.711.2-.808a13.274,13.274,0,0,1,1.029-1.832,40.982,40.982,0,0,0,2.946-5.321c.017-.053.032-.108.045-.164h0a.854.854,0,0,1,.2-.45c.3-.29.749.333.749.333a4.453,4.453,0,0,0,1.591,1.389,11.658,11.658,0,0,0,1.125.6c8.238,4.965,7.724,12.395,8.2,12.984a6.973,6.973,0,0,1,.515,2.721s1.213,7.245,1.765,7.877.038.846.515,1.544a5.828,5.828,0,0,1,.367,2.575s.331,4.414,1.508,5.37S-225.781-450.462-225.781-450.462Z" fill="#444053"/>
      <path id="Path_156382" data-name="Path 156382" d="M-242.578-493.8a17.378,17.378,0,0,0-2.476,4.726s-1.287,1.326-1.767,1.251.45.993.45.993l-5.057,7.009.718-2.154s1.508-5.3,1.576-5.773,3.729-5.944,4.02-7.319c.225-1.1.945-.11.945-.11A4.473,4.473,0,0,0-242.578-493.8Z" opacity="0.1"/>
      <path id="Path_156383" data-name="Path 156383" d="M-242.578-493.948a17.441,17.441,0,0,0-2.476,4.715s-1.287,1.323-1.767,1.251.45.992.45.992l-5.057,7.009.718-2.154s1.508-5.3,1.576-5.775,3.729-5.942,4.02-7.317c.225-1.1.945-.11.945-.11A4.426,4.426,0,0,0-242.578-493.948Z" fill="#444053"/>
      <path id="Path_156384" data-name="Path 156384" d="M-235.785-479.427c.038,1.607-2.316,3.8-2.426,3.93s-7.319,6.077-7.319,6.077l-5.177,3.97a4.4,4.4,0,0,1-2.026.936l.353-3.552.349-7.2a8.234,8.234,0,0,0,1.609-2.147c.036-.623,1.35-1.287,1.35-1.287s.921-.772.772-1.213a9.764,9.764,0,0,1,.488-2.555c.331-6,6.509-6.583,6.509-6.583a42.529,42.529,0,0,1,5.075,2.426C-234.131-485.378-235.821-481.032-235.785-479.427Z" opacity="0.1"/>
      <path id="Path_156385" data-name="Path 156385" d="M-271.275-466.21l-1.8.126c-.761-1.294.286-4.76.286-4.76h.146l.921.11Z" opacity="0.1"/>
      <path id="Path_156386" data-name="Path 156386" d="M-241.3-489.417s-6.178.59-6.509,6.583a9.732,9.732,0,0,0-.479,2.539c.146.441-.772,1.213-.772,1.213s-1.323.662-1.35,1.287-3.376,4.038-3.376,4.038A6.735,6.735,0,0,1-258.419-472a10.192,10.192,0,0,0-4.745,1.157s-1.575-1.1-2.723-.772-6.73.772-6.73.772-1.483,4.916.367,5.224c.225.036,18.433.662,18.433.662s1.245.587,3.119-.846,5.177-3.972,5.177-3.972,7.2-5.958,7.319-6.077,2.476-2.325,2.426-3.93,1.656-5.946-.45-7.2A42.579,42.579,0,0,0-241.3-489.417Z" fill="#444053"/>
      <path id="Path_156387" data-name="Path 156387" d="M-246.819-498.722a7.6,7.6,0,0,1-.371,2.347,3.091,3.091,0,0,1-.279-.385l-1.056-1.621a4.411,4.411,0,0,0-1.074-1.265,1.5,1.5,0,0,0-1.575-.167,1.58,1.58,0,0,0-.675,1.263,13.971,13.971,0,0,0,.038,1.49.826.826,0,0,1-.137.538.875.875,0,0,1-.581.225l-.675.092a.483.483,0,0,1-.617-.3l0-.012c-.56-1.015-.948-2.275-2-2.764-.648-.3-1.5-.281-1.92-.862a1.874,1.874,0,0,1-.162-1.416,11.026,11.026,0,0,1,.394-1.6c.119-.369.385-1.105-.2-1.179a1.554,1.554,0,0,0-1.157.675,5.993,5.993,0,0,0-.4,1.049,2.5,2.5,0,0,1-1.384,1.285,3.953,3.953,0,0,1-.954.259,7.576,7.576,0,0,1,9.534-4.887,7.576,7.576,0,0,1,5.253,7.214Z" opacity="0.1"/>
      <path id="Path_156388" data-name="Path 156388" d="M-258.871-503.85a6.137,6.137,0,0,0-.4,1.047,2.509,2.509,0,0,1-1.382,1.285,5.3,5.3,0,0,1-1.9.338,3.556,3.556,0,0,1-2.894-.932,2.37,2.37,0,0,0,.9-1.575,2.918,2.918,0,0,1,.266-1.413,2.037,2.037,0,0,1,.513-.434,33.511,33.511,0,0,0,3.164-2.876,6.171,6.171,0,0,1,3.77-1.83c1.911-.059,3.6,1.287,5.492,1.542a15.31,15.31,0,0,1,1.747.2,6,6,0,0,1,1.776.9,4.569,4.569,0,0,1,1.268,1.085,3.951,3.951,0,0,1,.515,1.247,14.009,14.009,0,0,1,.45,2.856c.052,1.008,0,2.026.108,3.029a4.791,4.791,0,0,0,1.114,2.768,9.729,9.729,0,0,1-1.533.353,1.6,1.6,0,0,1-.975-.077,1.7,1.7,0,0,1-.594-.641l-1.056-1.621a4.4,4.4,0,0,0-1.074-1.265,1.5,1.5,0,0,0-1.576-.166,1.584,1.584,0,0,0-.675,1.263,13.974,13.974,0,0,0,.038,1.49.826.826,0,0,1-.137.538.88.88,0,0,1-.583.225l-.675.092a.483.483,0,0,1-.617-.3l0-.012c-.56-1.017-.948-2.275-2-2.764-.648-.3-1.5-.281-1.92-.862a1.878,1.878,0,0,1-.162-1.416,11.026,11.026,0,0,1,.394-1.6c.119-.369.385-1.1-.2-1.182A1.554,1.554,0,0,0-258.871-503.85Z" fill="#444053"/>
      <path id="Path_156389" data-name="Path 156389" d="M-241.734-486.055a3.315,3.315,0,0,1,1.7.088,6.228,6.228,0,0,0-4.913.432C-244.831-485.272-242.175-485.994-241.734-486.055Z" opacity="0.1"/>
      <path id="Path_156390" data-name="Path 156390" d="M-241.07-484.209a10.5,10.5,0,0,0,4.126-.164,15.187,15.187,0,0,0-3.464-.254,7.95,7.95,0,0,0-2.762-.178c-.376.1-1.76.734-1.665,1.2A7.485,7.485,0,0,1-241.07-484.209Z" opacity="0.1"/>
      <path id="Path_156391" data-name="Path 156391" d="M-244.737-481.18a2.108,2.108,0,0,1,.86.09,13.1,13.1,0,0,0,3.169.349,3.314,3.314,0,0,0,2.287-.675Z" opacity="0.1"/>
      <path id="Path_156392" data-name="Path 156392" d="M-249.2-474.139a6.328,6.328,0,0,0,3.1.563,13.611,13.611,0,0,0,3.115-.6,2.078,2.078,0,0,0,1.2-.691Z" opacity="0.1"/>
      <path id="Path_156393" data-name="Path 156393" d="M-239.231-473.151a16.514,16.514,0,0,0,6.869,2.127q-1.83-.734-3.687-1.389a26.844,26.844,0,0,0-3.882-1.04,2,2,0,0,1,.7.3Z" opacity="0.1"/>
      <path id="Path_156394" data-name="Path 156394" d="M-235.831-474.441a5.721,5.721,0,0,0,1.281.07.729.729,0,0,0,.626-.225,10.95,10.95,0,0,1-2.861-.421c-.268-.063-.749-.211-.975-.052A6.16,6.16,0,0,0-235.831-474.441Z" opacity="0.1"/>
      <path id="Path_156395" data-name="Path 156395" d="M-230.026-454.335a12.671,12.671,0,0,0,1.72,2.476,12.365,12.365,0,0,0,1.29,1.107,27.571,27.571,0,0,0-3.02-6.138c-.338-.468-.842-1.139-1.456-1.224-.176.52.268,1.44.482,1.929A18.39,18.39,0,0,0-230.026-454.335Z" opacity="0.1"/>
      <path id="Path_156396" data-name="Path 156396" d="M-254.633-470.257a1.527,1.527,0,0,0,.142,1.053.756.756,0,0,0,.428.3,5.048,5.048,0,0,1-.252-1.229c-.049-.3,0-.846-.209-1.065C-254.579-470.891-254.6-470.572-254.633-470.257Z" opacity="0.1"/>
      <path id="Path_156397" data-name="Path 156397" d="M-253.463-470.671a2.4,2.4,0,0,0,1.125,1.524,16.828,16.828,0,0,1-.864-1.659c-.11-.171-.239-.416-.45-.45A6.04,6.04,0,0,0-253.463-470.671Z" opacity="0.1"/>
      <path id="Path_156398" data-name="Path 156398" d="M-254.45-477.153a2.812,2.812,0,0,1-2.228.281c-.169-.05-.563-.225-.468-.473s.551-.076.738-.054l.979.124C-255.25-477.252-254.6-477.067-254.45-477.153Z" opacity="0.1"/>
      <path id="Path_156399" data-name="Path 156399" d="M-257.766-475.55c.461-.059.876.261,1.308.434a3.964,3.964,0,0,0,1.486.2.83.83,0,0,0,.7-.226A9.744,9.744,0,0,0-257.766-475.55Z" opacity="0.1"/>
      <path id="Path_156400" data-name="Path 156400" d="M-252.2-489.084h.074l.551,1.983-.626.666Z" fill="#a36468"/>
      <g id="Group_167384" data-name="Group 167384" opacity="0.1">
        <path id="Path_156401" data-name="Path 156401" d="M-264.4-504.8a4.6,4.6,0,0,0-.1.979,2.217,2.217,0,0,0,.061-.315C-264.409-504.357-264.412-504.584-264.4-504.8Z"/>
        <path id="Path_156402" data-name="Path 156402" d="M-257.682-504.549a.4.4,0,0,1,.371.427l0,.023c.106-.374.164-.833-.3-.9a1.546,1.546,0,0,0-1.157.686,6.227,6.227,0,0,0-.4,1.049,2.5,2.5,0,0,1-1.382,1.285,5.3,5.3,0,0,1-1.9.338,3.824,3.824,0,0,1-2.7-.734,2.278,2.278,0,0,1-.268.243,3.555,3.555,0,0,0,2.9.932,5.3,5.3,0,0,0,1.9-.338,2.513,2.513,0,0,0,1.384-1.285,6.147,6.147,0,0,1,.394-1.047A1.536,1.536,0,0,1-257.682-504.549Z"/>
        <path id="Path_156403" data-name="Path 156403" d="M-245.794-496.7a1.6,1.6,0,0,1-.975-.077,1.725,1.725,0,0,1-.594-.641l-1.056-1.621a4.371,4.371,0,0,0-1.071-1.265,1.5,1.5,0,0,0-1.576-.167,1.614,1.614,0,0,0-.686,1.263v.061a1.423,1.423,0,0,1,.614-.882,1.5,1.5,0,0,1,1.576.167,4.44,4.44,0,0,1,1.074,1.265q.527.81,1.056,1.621a1.686,1.686,0,0,0,.594.641,1.587,1.587,0,0,0,.972.077,9.983,9.983,0,0,0,1.535-.353,3.217,3.217,0,0,1-.275-.34A9.5,9.5,0,0,1-245.794-496.7Z"/>
        <path id="Path_156404" data-name="Path 156404" d="M-251.846-497.183a.9.9,0,0,1-.581.225l-.675.092a.483.483,0,0,1-.617-.3l0-.012c-.56-1.017-.948-2.275-2-2.764-.648-.3-1.5-.281-1.918-.862a1.653,1.653,0,0,1-.2-1.179c-.011.07-.027.137-.038.2a1.874,1.874,0,0,0,.164,1.416c.416.581,1.272.56,1.918.862,1.053.488,1.44,1.747,2,2.764a.64.64,0,0,0,.259.308.656.656,0,0,0,.362.016l.675-.092a.875.875,0,0,0,.581-.225.813.813,0,0,0,.137-.538h0A.668.668,0,0,1-251.846-497.183Z"/>
      </g>
      <path id="Path_156405" data-name="Path 156405" d="M-158.692-444.11l-1.443-.2v-21.3l.295.09.9.277v2.05l.011.925.02,1.9v2.6l.108,9.59v.257l.038,3.376v.052Z" fill="#eaecf0"/>
      <path id="Path_156406" data-name="Path 156406" d="M-157.883-444l-.8-.113v-.437l-.038-3.376v-.257l-.108-9.59v-2.6l-.02-1.9-.011-.925v-2.05h.866v2.753l.018,2.057v2.176h0l.083,10.065v.259l.027,3.347v.054Z" fill="#d3dae1"/>
      <path id="Path_156407" data-name="Path 156407" d="M-157.882-442.8" fill="#d3dae1"/>
      <path id="Path_156408" data-name="Path 156408" d="M-70.33-468.249v18.384q-.642.45-1.314.885l-.018-15.3V-465.9Z" fill="#eaecf0"/>
      <path id="Path_156409" data-name="Path 156409" d="M-69.394-468.515v17.938c-.306.245-.619.482-.936.713v-18.385Z" fill="#d3dae1"/>
      <path id="Path_156410" data-name="Path 156410" d="M-90.29-442.462c-.554.113-1.11.225-1.666.322l-.02-16.635v-.72l1.6-.675v1.529Z" fill="#eaecf0"/>
      <path id="Path_156411" data-name="Path 156411" d="M-89.236-460.7v18.006l-1.053.225-.074-16.176v-1.526l.106-.049h0Z" fill="#d3dae1"/>
      <path id="Path_156412" data-name="Path 156412" d="M-184.632-447.446l-1.5-.151-.191-18.758v-.893h1.47v1.02Z" fill="#eaecf0"/>
      <path id="Path_156413" data-name="Path 156413" d="M-183.517-447.327l-1.125-.119-.226-18.782v-1.02h1.137v1.119Z" fill="#d3dae1"/>
      <path id="Path_156414" data-name="Path 156414" d="M-90.269-460.216l1.029-.484v2.271l-1,.335Z" opacity="0.1"/>
      <path id="Path_156415" data-name="Path 156415" d="M-69.4-468.519v3.475l-.934.313-1.335.443v-1.625l1.337-2.339Z" opacity="0.1"/>
      <path id="Path_156416" data-name="Path 156416" d="M-69.4-475.2v9.622l-20.846,6.948-.135-10.29Z" fill="#d48a9b"/>
      <path id="Path_156417" data-name="Path 156417" d="M-186.6-475.867l27.4-5.213,89.805,5.881-20.985,6.279Z" fill="#efc6cd"/>
      <path id="Path_156418" data-name="Path 156418" d="M-183.723-467.248l.009,1.116-1.134-.1-1.474-.126-.007-.891Z" opacity="0.1"/>
      <path id="Path_156419" data-name="Path 156419" d="M-158.053-463.925l-.866-.076-1.215-.1v-1.5l1.2.365h.869Z" opacity="0.1"/>
      <path id="Path_156420" data-name="Path 156420" d="M-186.6-475.868v8.953l96.354,8.285-.135-10.29Z" fill="#d48a9b"/>
      <path id="Path_156421" data-name="Path 156421" d="M-110.2-465.222h-12.586v-4.567l12.586.887Z" fill="#d48a9b"/>
      <path id="Path_156422" data-name="Path 156422" d="M-110.2-465.222h-12.586v-4.567l12.586.887Z" opacity="0.1"/>
      <path id="Path_156423" data-name="Path 156423" d="M-139.69-470.79v7.216l48.311,3.675v-7.684l-18.842-1.067-1.873,1.67-7.684-.533-2.739-2.005Z" opacity="0.1"/>
      <path id="Path_156424" data-name="Path 156424" d="M-139.958-471.058v7.218l48.311,3.673v-7.684l-18.843-1.069-1.87,1.672-7.686-.536-2.739-2.005Z" fill="#fff"/>
      <path id="Path_156425" data-name="Path 156425" d="M-169.759-473l11.427.8-.133,3.63h-7.461l-4.99-1.96Z" fill="#d48a9b"/>
      <path id="Path_156426" data-name="Path 156426" d="M-169.759-473l11.427.8-.133,3.63h-7.461l-4.99-1.96Z" opacity="0.1"/>
      <path id="Path_156427" data-name="Path 156427" d="M-184.992-474v6.482l43.832,3.475v-6.883l-16.9-1-1.805,1.337-6.815-.4-2.807-1.738Z" opacity="0.1"/>
      <path id="Path_156428" data-name="Path 156428" d="M-185.26-474.265v6.48l43.832,3.475v-6.883l-16.9-1-1.8,1.335-6.817-.4L-169.752-473Z" fill="#fff"/>
      <path id="Path_156429" data-name="Path 156429" d="M-91.374-474.241l6.144.4-10.18,3.047-5.186-.374Z" opacity="0.1"/>
      <path id="Path_156430" data-name="Path 156430" d="M-91.374-474.506l6.144.4-10.18,3.047-5.186-.374Z" fill="#fff"/>
      <path id="Path_156431" data-name="Path 156431" d="M-92.108-473.815c.243-.106.5.09.761.14.146.029.3,0,.45.029.3.04.6.241.887.14Z" fill="#d3dae1"/>
      <path id="Path_156432" data-name="Path 156432" d="M-92.425-473.632c.241-.1.5.092.759.142.148.027.3,0,.45.027.3.04.6.243.886.142Z" fill="#d3dae1"/>
      <path id="Path_156433" data-name="Path 156433" d="M-93.154-473.26c.241-.1.5.09.759.14.149.029.3,0,.45.029.3.04.6.243.887.139Z" fill="#d3dae1"/>
      <path id="Path_156434" data-name="Path 156434" d="M-132.83-477.612l13.7.9-2.919,4.193-15.062-1.609Z" opacity="0.1"/>
      <path id="Path_156435" data-name="Path 156435" d="M-133.1-477.88l13.7.9-2.919,4.2-15.064-1.609Z" fill="#3a3768"/>
      <path id="Path_156436" data-name="Path 156436" d="M-132.494-477.572l11.949.731-2.546,3.417-13.137-1.312Z" fill="#d5e1f4"/>
      <path id="Path_156437" data-name="Path 156437" d="M-157.882-442.8" fill="#3a3768"/>
      <path id="Path_156438" data-name="Path 156438" d="M-157.882-442.8" opacity="0.1"/>
      <path id="Path_156439" data-name="Path 156439" d="M-157.986-442.8" fill="#3a3768"/>
      <path id="Path_156440" data-name="Path 156440" d="M-140.506-443.307a1.107,1.107,0,0,1-.011.191,1.588,1.588,0,0,1-.018.169,3.809,3.809,0,0,1-.326,1.146h0c-5.661-.637-11.335-1.4-17.015-2.188l-.8-.112-1.443-.2-1.215-.169h0a29.17,29.17,0,0,1-3.97-.371,20.286,20.286,0,0,1-2.453-.518c-3.6-.493-7.222-.968-10.833-1.4l-.47-.056c.085-.383.158-.614.158-.614s.774-3.043,1.418-6.444c.142-.738.277-1.49.394-2.235.094-.6.18-1.186.252-1.753.04-.313.074-.619.1-.918.016-.148.029-.3.04-.45s.025-.32.036-.475.016-.293.023-.434v-.212c0-.3,0-.621-.011-.948a27.958,27.958,0,0,0-.765-4.819c-.063-.27-.128-.54-.2-.8-.02-.085-.043-.169-.065-.252-.727-2.816-1.576-5.116-1.576-5.116a.239.239,0,0,1,0-.038.123.123,0,0,0,0-.027.527.527,0,0,0,0-.056v-.4a3.4,3.4,0,0,1,.122-.7,2.273,2.273,0,0,1,.086-.239,1.485,1.485,0,0,1,1.013-.936h0c.637-.164,1.6,0,3.054.862a5.348,5.348,0,0,1,.675.464,3.014,3.014,0,0,1,.315.272c1.665,1.551,2.552,4.11,3.025,6.446.018.083.034.166.049.25.056.288.1.569.146.846.076.486.137.954.182,1.389,0,.117.025.225.036.344s.022.225.029.333c.029.351.05.675.063.95.038.729.031,1.177.031,1.177v.023a.666.666,0,0,1-.011.1.054.054,0,0,0,0,.018v.2c-.009.1-.02.2-.034.331-.02.194-.043.421-.07.675-.018.189-.04.394-.063.61-.049.45-.1.972-.162,1.521-.013.1-.025.207-.036.311-.052.47-.106.961-.162,1.456h0c-.061.563-.128,1.125-.194,1.681-.016.121-.032.243-.045.362-.167,1.35-.333,2.577-.468,3.34a3.266,3.266,0,0,0-.045.342,1.142,1.142,0,0,0,0,.117,2.231,2.231,0,0,0,0,.306,2.585,2.585,0,0,0,2.188,2.251l9.433-.187,1.4-.027.815-.016,7.353-.146h0l.675-.013,3.657-.072a2.614,2.614,0,0,1,.736.088,11.708,11.708,0,0,1,3.2,1.4,3.785,3.785,0,0,1,.826.72.265.265,0,0,1,.031.036,3.9,3.9,0,0,1,.884,2.107v.155A2.076,2.076,0,0,1-140.506-443.307Z" fill="#3a3768"/>
      <path id="Path_156441" data-name="Path 156441" d="M-157.986-442.8" opacity="0.1"/>
      <path id="Path_156442" data-name="Path 156442" d="M-140.507-443.307a1.107,1.107,0,0,1-.011.191,1.584,1.584,0,0,1-.018.169,3.95,3.95,0,0,1-.338,1.146c-5.661-.637-11.334-1.4-17.015-2.188l-.8-.113-1.443-.2-1.215-.169h0a29.165,29.165,0,0,1-3.97-.371,20.286,20.286,0,0,1-2.453-.518c-3.6-.493-7.222-.968-10.833-1.4l-.47-.056h0c.086-.4.162-.637.162-.637s.633-2.476,1.233-5.476h0c.043-.207.083-.414.124-.623l.061-.317c.14-.736.275-1.492.394-2.235.094-.6.18-1.186.252-1.753q.062-.47.1-.918c.016-.148.029-.3.041-.45s.025-.32.036-.475.016-.293.022-.434v-.212c0-.3,0-.621-.011-.948a27.75,27.75,0,0,0-.758-4.819c-.064-.273-.13-.54-.2-.8-.023-.085-.043-.169-.065-.252-.729-2.825-1.575-5.138-1.575-5.138v-.5a3.4,3.4,0,0,1,.115-.7c.025-.079.052-.16.083-.238a1.488,1.488,0,0,1,1.067-.97,4.406,4.406,0,0,1,3.011.869,5.64,5.64,0,0,1,.7.491h0c.106.088.207.176.306.27,1.652,1.56,2.532,4.114,3,6.444.018.083.034.169.049.252.056.286.1.57.146.844.077.486.135.952.18,1.384.011.119.025.236.034.349s.023.225.029.333c.029.351.05.675.063.95.038.729.032,1.177.032,1.177v.119a.028.028,0,0,0,0,.018v.2c-.01.1-.021.205-.034.331-.02.194-.043.421-.07.675-.023.187-.043.392-.065.61-.049.45-.1.972-.162,1.522-.013.1-.025.207-.036.311-.052.47-.108.966-.162,1.461h0c-.065.563-.13,1.125-.2,1.679-.016.122-.029.243-.045.362-.164,1.35-.329,2.559-.464,3.318a2.85,2.85,0,0,0-.045.367.764.764,0,0,0,0,.117,2.236,2.236,0,0,0,0,.306,2.578,2.578,0,0,0,2.188,2.217l9.433-.185,1.4-.029.817-.016,7.367-.144.689-.013,3.644-.072a2.475,2.475,0,0,1,.736.088,11.585,11.585,0,0,1,3.221,1.384,3.758,3.758,0,0,1,.837.734.372.372,0,0,1,.032.036,3.868,3.868,0,0,1,.873,2.116v.155A2.456,2.456,0,0,0-140.507-443.307Z" opacity="0.1"/>
      <path id="Path_156443" data-name="Path 156443" d="M-157.986-442.8" fill="#3a3768"/>
      <path id="Path_156444" data-name="Path 156444" d="M-140.494-441.767l-.371-.043h0c-5.661-.637-11.335-1.4-17.015-2.188l-.8-.113-1.443-.2-1.215-.169h0a29.165,29.165,0,0,1-3.97-.371,20.286,20.286,0,0,1-2.453-.518c-3.6-.493-7.223-.968-10.833-1.4a8.909,8.909,0,0,1,.225-.936s2.138-8.42,2.271-12.9a23.3,23.3,0,0,0-.7-5.469h0c-.063-.272-.126-.542-.194-.808l-.061-.252c-.763-2.96-1.67-5.435-1.67-5.435a3.608,3.608,0,0,1,.052-.916c.014-.081.032-.161.054-.241a1.83,1.83,0,0,1,.581-.972h0a.368.368,0,0,1,.043-.032c.592-.45,1.654-.482,3.545.626a5.6,5.6,0,0,1,1.056.808c.09.086.18.175.265.268a13.271,13.271,0,0,1,2.748,6.421l.047.25c.049.281.092.558.133.826v.023h0c.052.356.1.7.131,1.02h0a27.065,27.065,0,0,1,.162,2.874s-.088.889-.225,2.17c-.052.5-.113,1.064-.178,1.659v.09l-.034.315c-.115,1.037-.241,2.145-.369,3.171-.014.126-.029.25-.045.371-.144,1.155-.288,2.181-.407,2.849a2.51,2.51,0,0,0,1.941,2.974c.065.014.131.025.2.033l8.9-.176,1.4-.027.817-.018h.452l7.058-.14h.675l4.051-.081a2.545,2.545,0,0,1,.736.09,11.621,11.621,0,0,1,3.223,1.382,3.861,3.861,0,0,1,.758.644.413.413,0,0,1,.038.045A3.9,3.9,0,0,1-140.494-441.767Z" fill="#3a3768"/>
      <path id="Path_156445" data-name="Path 156445" d="M-108.676-482.451l2.753,5.9h-.461l-3.227-5.827Z" fill="#4c4c56"/>
      <path id="Path_156446" data-name="Path 156446" d="M-108.676-482.451l2.753,5.9h-.461l-3.227-5.827Z" opacity="0.1"/>
      <path id="Path_156447" data-name="Path 156447" d="M-108.675-476.554h2.753v.617l-2.753.07Z" fill="#4c4c56"/>
      <path id="Path_156448" data-name="Path 156448" d="M-108.675-476.554h2.753v.617l-2.753.07Z" opacity="0.1"/>
      <path id="Path_156449" data-name="Path 156449" d="M-130.086-504.15v20.592a1.528,1.528,0,0,0,1.528,1.528h34.323a1.517,1.517,0,0,0,1.519-1.518v-.03l-.389-20.61a1.52,1.52,0,0,0-1.519-1.49h-33.934A1.529,1.529,0,0,0-130.086-504.15Z" fill="#4c4c56"/>
      <path id="Path_156450" data-name="Path 156450" d="M-130.086-504.15v20.592a1.528,1.528,0,0,0,1.528,1.528h34.323a1.517,1.517,0,0,0,1.519-1.518v-.03l-.389-20.61a1.52,1.52,0,0,0-1.519-1.49h-33.934A1.529,1.529,0,0,0-130.086-504.15Z" opacity="0.1"/>
      <path id="Path_156451" data-name="Path 156451" d="M-131.324-504.15v20.592a1.528,1.528,0,0,0,1.528,1.528h34.323a1.516,1.516,0,0,0,1.517-1.516v-.032l-.389-20.61a1.52,1.52,0,0,0-1.517-1.49h-33.925a1.529,1.529,0,0,0-1.537,1.519Z" fill="#4c4c56"/>
      <path id="Path_156452" data-name="Path 156452" d="M-129.974-502.863v18.129a1.528,1.528,0,0,0,1.528,1.528h31.782a1.519,1.519,0,0,0,1.519-1.519v-18.15a1.52,1.52,0,0,0-1.519-1.517h-31.782a1.528,1.528,0,0,0-1.528,1.528Z" fill="#e57373"/>
      <path id="Path_156453" data-name="Path 156453" d="M-116.222-482.368l3.018,5.814h6.82l-3.41-6.651Z" fill="#4c4c56"/>
      <path id="Path_156454" data-name="Path 156454" d="M-118.626-476.554l-.5.617h10.454v-.617Z" fill="#4c4c56"/>
      <path id="Path_156455" data-name="Path 156455" d="M-162.708-497.9c-.75-2.107-.745-4.445-1.654-6.487a7.826,7.826,0,0,1-.38-.9,2.6,2.6,0,0,1-.1-.587l-.056.014-.056.016-.056.023h0l-.052.031a1.674,1.674,0,0,0,.052.2,7.358,7.358,0,0,0,.385.9c.927,2.053.921,4.4,1.683,6.527a.589.589,0,0,0,.142.25.324.324,0,0,0,.115.07C-162.7-497.87-162.7-497.884-162.708-497.9Zm0,0c-.75-2.107-.745-4.445-1.654-6.487a7.826,7.826,0,0,1-.38-.9,2.6,2.6,0,0,1-.1-.587l-.056.014-.056.016-.056.023h0l-.052.031a1.674,1.674,0,0,0,.052.2,7.358,7.358,0,0,0,.385.9c.927,2.053.921,4.4,1.683,6.527a.589.589,0,0,0,.142.25.324.324,0,0,0,.115.07C-162.7-497.87-162.7-497.884-162.708-497.9Zm0,0c-.75-2.107-.745-4.445-1.654-6.487a7.826,7.826,0,0,1-.38-.9,2.6,2.6,0,0,1-.1-.587l-.056.014-.056.016-.056.023h0l-.052.031a1.674,1.674,0,0,0,.052.2,7.358,7.358,0,0,0,.385.9c.927,2.053.921,4.4,1.683,6.527a.589.589,0,0,0,.142.25.324.324,0,0,0,.115.07C-162.7-497.87-162.7-497.884-162.708-497.9Zm0,0c-.75-2.107-.745-4.445-1.654-6.487a7.826,7.826,0,0,1-.38-.9,2.6,2.6,0,0,1-.1-.587l-.056.014-.056.016-.056.023h0l-.052.031a1.674,1.674,0,0,0,.052.2,7.358,7.358,0,0,0,.385.9c.927,2.053.921,4.4,1.683,6.527a.589.589,0,0,0,.142.25.324.324,0,0,0,.115.07C-162.7-497.87-162.7-497.884-162.708-497.9Zm0,0c-.75-2.107-.745-4.445-1.654-6.487a7.826,7.826,0,0,1-.38-.9,2.6,2.6,0,0,1-.1-.587l-.056.014-.056.016-.056.023h0l-.052.031a1.674,1.674,0,0,0,.052.2,7.358,7.358,0,0,0,.385.9c.927,2.053.921,4.4,1.683,6.527a.589.589,0,0,0,.142.25.324.324,0,0,0,.115.07C-162.7-497.87-162.7-497.884-162.708-497.9Zm0,0c-.75-2.107-.745-4.445-1.654-6.487a7.826,7.826,0,0,1-.38-.9,2.6,2.6,0,0,1-.1-.587l-.056.014-.056.016-.056.023h0l-.052.031a1.674,1.674,0,0,0,.052.2,7.358,7.358,0,0,0,.385.9c.927,2.053.921,4.4,1.683,6.527a.589.589,0,0,0,.142.25.324.324,0,0,0,.115.07C-162.7-497.87-162.7-497.884-162.708-497.9Zm0,0c-.75-2.107-.745-4.445-1.654-6.487a7.826,7.826,0,0,1-.38-.9,2.6,2.6,0,0,1-.1-.587l-.056.014-.056.016-.056.023h0l-.052.031a1.674,1.674,0,0,0,.052.2,7.358,7.358,0,0,0,.385.9c.927,2.053.921,4.4,1.683,6.527a.589.589,0,0,0,.142.25.324.324,0,0,0,.115.07C-162.7-497.87-162.7-497.884-162.708-497.9Zm39.106,20.977h0l-.173-.032.225-.049h0a.308.308,0,0,0,.065-.016h0c.25-.054.5-.115.74-.18h0l.254-.072h0l.036-.011c2.1-.619-.349-1.188-3.459-1.611h-.011c-3.358-.45-7.477-.745-7.477-.745l-1.29.171h-.011c-1.575.207-4.062.549-4.459.675-.482.16-4.569.356-5.994.419a.635.635,0,0,0-.212-.225l-4.2-.194v.578h0l-.031-.013a5.79,5.79,0,0,0-.57-2.251l-.031-.063c-1.085-2.057-1.3-2.573-1.3-2.573h0a.483.483,0,0,0-.029-.11c-.365-1.265-1.708-3.464-3.986-6.619l-.079-.11-.286-1.4-.049-.245h-1.436a18.728,18.728,0,0,1,1-3.558c.029-.072.059-.144.09-.214l.018-.041c.032-.074.068-.149.1-.225h.25a6.849,6.849,0,0,0,6.581-6.37.055.055,0,0,0,0-.018c.009-.139.014-.279.014-.419a6.712,6.712,0,0,0-.9-3.376c-.018-.031-.036-.063-.056-.094l-.036-.061-.081-.126c.513-.122,1.125.113,1.576-.176a1.144,1.144,0,0,0,.385-.464,2.426,2.426,0,0,0,.224-.675h0a.121.121,0,0,0,0-.038.028.028,0,0,0,0-.013,2.567,2.567,0,0,0,.034-.464,2.5,2.5,0,0,0-.158-.936,2.58,2.58,0,0,0-1.449-1.454,10.024,10.024,0,0,0-1.052-.286c-1.44-.385-2.659-1.335-4.052-1.864a7.359,7.359,0,0,0-3.036-.468,4.368,4.368,0,0,0-1.8.45,7.83,7.83,0,0,0-1.2.871,24.719,24.719,0,0,0-3.008,2.408,5.38,5.38,0,0,0-.438.54c-.077.11-.146.225-.224.338a.6.6,0,0,0-.542-.225h0a1.017,1.017,0,0,0-.11,0,2.358,2.358,0,0,0-.279.029c-.225.038-1.9.482-1.9.711a7.948,7.948,0,0,0-1.927,1.184c-1.35,1.236-1.652,3.194-1.823,5a46.19,46.19,0,0,0-.225,6.3c.032.765.092,1.53.056,2.3a17.221,17.221,0,0,1-.4,2.674q-.291,1.374-.628,2.737c-.108.45-.281.952-.722,1.094l.164.023a.75.75,0,0,1-.164.079,4.758,4.758,0,0,0,.572.056h.133a1.524,1.524,0,0,0,.322-.038,1.173,1.173,0,0,0,.407-.189c.018-.045.034-.09.049-.137a.765.765,0,0,0,.27-.419,3.029,3.029,0,0,1-.045.761.5.5,0,0,1-.023.11,3.107,3.107,0,0,1-.774,1.467l.225-.171a3.493,3.493,0,0,1-.225.272q.486-.365.972-.745h0a.438.438,0,0,0,.056-.043h0l.554-.437v.437h0v.1c-.045,1.553-.11,5.368.243,6.279.02.054.043.108.061.16a4.494,4.494,0,0,1,.524,2.026,16.659,16.659,0,0,0,.4,2.307,2.882,2.882,0,0,1,.072,1.042,1.479,1.479,0,0,0,.04.621c.02.1.045.2.072.315a.441.441,0,0,0,.029.119c.2.819.5,1.832.191,2.235a1.789,1.789,0,0,0-.225.45,11.523,11.523,0,0,1-.578,1.972,1.846,1.846,0,0,0-.2,1.3v.011s-.016.088-.047.225c-.038.189-.1.479-.176.8v.018a11.6,11.6,0,0,1-.389,1.335h0c-.115.306-.225.527-.353.569-.45.164-.675,2.278-.675,2.278s-1.031,1.672-.835,2.084a2.61,2.61,0,0,0,.146.277l-.1.153c-.551.885-1.35,2.492-.576,3.356a3.8,3.8,0,0,0,.923.7c-.041.09-.083.187-.128.293-.851,1.994-2.161,6.626,2.879,8.58a15.669,15.669,0,0,0,1.528.5,20.292,20.292,0,0,0,2.453.518,29.923,29.923,0,0,0,3.6.322c.536.018,1.064.023,1.575.018s.975-.016,1.438-.036c.274-.01.541-.024.8-.04a41.928,41.928,0,0,0,4.621-.506l7.2-1.29s3.025.108,4.139.747l.034.02s.182-.106.488-.313h0c.133-.09.29-.2.464-.326a15.207,15.207,0,0,0,4.292-4.776l.025-.043.245-.031h.056l.176-.025.365-.052h.065c.912-.133,1.774-.279,1.774-.279s.034,1.006.074,2.172c.014.356.025.727.038,1.087.043,1.233.081,2.354.081,2.392s.927,2.476,1.965,4.934l.81.065q3.208.258,6.417.425l.8.04.5.025c-.36-2.181-.644-4.261-.644-4.261l-1.337-6.228s-.139-1.29-1.141-7.022c-.81-4.645-5.582-4.234-7.369-3.907-.182.034-.331.065-.45.09v-.349s-3.428.288-6.527.428l-.754.032c-.718.027-1.4.043-2,.043a14.276,14.276,0,0,1-1.575-.063,14.954,14.954,0,0,0-5.12.547,20.964,20.964,0,0,1-3.952.358,1.208,1.208,0,0,0-.394-.081h-.225a.361.361,0,0,0,.225-.4,2.436,2.436,0,0,1,.2-1.922c.171-.243.45-.626.7-.975l.608-.835v-.065l.016-.245.146-2.188.351-2.026.023-.128.031-.18.022-.131.068.023h0a4.88,4.88,0,0,0,2.926.311h.016a1.293,1.293,0,0,0,.184-.079h.036v.151l.014.263,3.756-.2h.056s.146-.725.3-1.724c.011-.081.025-.164.038-.25s.034-.225.049-.329a1.257,1.257,0,0,1,.022-.16h.225a23.6,23.6,0,0,0,5.163-.572h0a1.106,1.106,0,0,0,.34-.182,14,14,0,0,1,3.422-1.332h0l.592-.176c.43-.126.844-.243,1.211-.347.851-.225,1.458-.392,1.458-.392a33.055,33.055,0,0,0,10.223-.72h0l.072-.02C-120.625-476.111-121.646-476.552-123.6-476.923Zm-41.523-29.259a1.106,1.106,0,0,0,.025.2h0a.5.5,0,0,0,.013.086.148.148,0,0,0,.018.088,1.677,1.677,0,0,0,.052.2,7.356,7.356,0,0,0,.385.9c.927,2.053.921,4.4,1.683,6.527a.589.589,0,0,0,.142.25.324.324,0,0,0,.115.07l.054.018h.063l-.025.043c-.006.011-.012.022-.018.031l-.016.025c-.3.509-.623,1.008-.948,1.45a2.125,2.125,0,0,0-.781.32l-.126.083-.054.04c-.079-.387-.187-.77-.286-1.152a26.584,26.584,0,0,1-.869-6.243v-.425c0-.545.014-1.087.047-1.632a1.341,1.341,0,0,1,.191-.716h0a.493.493,0,0,1,.333-.162Zm2.417,8.285c-.75-2.107-.745-4.445-1.654-6.487a7.653,7.653,0,0,1-.38-.9,2.6,2.6,0,0,1-.1-.587l-.056.013-.056.016-.056.022h0l-.052.032a1.675,1.675,0,0,0,.052.2,7.359,7.359,0,0,0,.385.9c.927,2.053.921,4.4,1.683,6.527a.589.589,0,0,0,.142.25.324.324,0,0,0,.115.07c-.007-.027-.014-.041-.018-.056Zm0,0c-.75-2.107-.745-4.445-1.654-6.487a7.653,7.653,0,0,1-.38-.9,2.6,2.6,0,0,1-.1-.587l-.056.013-.056.016-.056.022h0l-.052.032a1.675,1.675,0,0,0,.052.2,7.359,7.359,0,0,0,.385.9c.927,2.053.921,4.4,1.683,6.527a.589.589,0,0,0,.142.25.324.324,0,0,0,.115.07c-.007-.027-.014-.041-.018-.056Zm0,0c-.75-2.107-.745-4.445-1.654-6.487a7.653,7.653,0,0,1-.38-.9,2.6,2.6,0,0,1-.1-.587l-.056.013-.056.016-.056.022h0l-.052.032a1.675,1.675,0,0,0,.052.2,7.359,7.359,0,0,0,.385.9c.927,2.053.921,4.4,1.683,6.527a.589.589,0,0,0,.142.25.324.324,0,0,0,.115.07c-.007-.027-.014-.041-.018-.056Zm0,0c-.75-2.107-.745-4.445-1.654-6.487a7.653,7.653,0,0,1-.38-.9,2.6,2.6,0,0,1-.1-.587l-.056.013-.056.016-.056.022h0l-.052.032a1.675,1.675,0,0,0,.052.2,7.359,7.359,0,0,0,.385.9c.927,2.053.921,4.4,1.683,6.527a.589.589,0,0,0,.142.25.324.324,0,0,0,.115.07c-.007-.027-.014-.041-.018-.056Zm0,0c-.75-2.107-.745-4.445-1.654-6.487a7.653,7.653,0,0,1-.38-.9,2.6,2.6,0,0,1-.1-.587l-.056.013-.056.016-.056.022h0l-.052.032a1.675,1.675,0,0,0,.052.2,7.359,7.359,0,0,0,.385.9c.927,2.053.921,4.4,1.683,6.527a.589.589,0,0,0,.142.25.324.324,0,0,0,.115.07c-.007-.027-.014-.041-.018-.056Zm0,0c-.75-2.107-.745-4.445-1.654-6.487a7.653,7.653,0,0,1-.38-.9,2.6,2.6,0,0,1-.1-.587l-.056.013-.056.016-.056.022h0l-.052.032a1.675,1.675,0,0,0,.052.2,7.359,7.359,0,0,0,.385.9c.927,2.053.921,4.4,1.683,6.527a.589.589,0,0,0,.142.25.324.324,0,0,0,.115.07c-.007-.027-.014-.041-.018-.056Z" fill="url(#linear-gradient-2)"/>
      <path id="Path_156456" data-name="Path 156456" d="M-155.181-496.716a5.236,5.236,0,0,0-.864,1.337c-.034.074-.068.146-.1.225a21.76,21.76,0,0,0-1.332,5.435s-.617-.277-1.49-.709a22.494,22.494,0,0,1-5.154-3.216c-.45-.484-.612-.912-.239-1.211a2.779,2.779,0,0,0,.248-.225,7.075,7.075,0,0,0,.786-.932c.324-.45.644-.952.945-1.467.178-.3.347-.605.5-.9l.063-.117c.675-1.281,1.168-2.375,1.168-2.375s.225.072.59.2C-158.375-500.07-153.745-498.244-155.181-496.716Z" fill="#efb7b9"/>
      <path id="Path_156457" data-name="Path 156457" d="M-124.374-444.57s.275,2.039.623,4.191l-.8-.041q-3.206-.166-6.417-.425c-1.215-2.816-2.476-6.158-2.476-6.21s-.038-1.152-.081-2.381c-.013-.432-.029-.878-.043-1.3h0c-.023-.635-.043-1.206-.054-1.562,0-.243-.013-.387-.013-.387s-1.157.2-2.2.344l-.461.061c-.239.029-.45.052-.641.065a1.612,1.612,0,0,1-.5,0c-.356-.137.383-3.6.383-3.6l1.837-4.445.513-1.238.225-.056c.11-.027.258-.059.437-.092,1.753-.322,6.437-.731,7.232,3.891.984,5.71,1.125,6.993,1.125,6.993Z" fill="#efb7b9"/>
      <path id="Path_156458" data-name="Path 156458" d="M-122.6-435.43h0Z" fill="#efb7b9"/>
      <path id="Path_156459" data-name="Path 156459" d="M-124.374-444.57s.275,2.039.623,4.191l-.8-.041q-3.206-.166-6.417-.425c-1.215-2.816-2.476-6.158-2.476-6.21s-.038-1.152-.081-2.381c-.013-.432-.029-.878-.043-1.3h0c-.023-.635-.043-1.206-.054-1.562,0-.243-.013-.387-.013-.387s-1.157.2-2.2.344l-.461.061c-.239.029-.45.052-.641.065a1.612,1.612,0,0,1-.5,0c-.356-.137.383-3.6.383-3.6l1.837-4.445.513-1.238.225-.056c.11-.027.258-.059.437-.092,1.753-.322,6.437-.731,7.232,3.891.984,5.71,1.125,6.993,1.125,6.993Z" opacity="0.05"/>
      <path id="Path_156460" data-name="Path 156460" d="M-122.6-435.43h0Z" opacity="0.05"/>
      <path id="Path_156461" data-name="Path 156461" d="M-124.55-440.42q-3.205-.166-6.417-.425l-.81-.065-.358-.029c-1.008-2.433-1.9-4.812-1.9-4.855s-.038-1.152-.081-2.381l-.11-3.245-.151.025-.063.011h-.081l-.362.061-.2.031c-.358.059-.79.124-1.213.185l-.094.014-.248.031-.225.027h0c-.173.022-.338.04-.486.054l-.182.016a1.553,1.553,0,0,1-.5,0c-.356-.137.383-3.6.383-3.6l2.35-5.683.081-.022c.124-.031.385-.092.738-.153.133-.023.279-.045.437-.065,2.039-.261,5.919-.187,6.637,3.984.984,5.71,1.125,6.993,1.125,6.993l1.312,6.207S-124.8-442.024-124.55-440.42Z" fill="#efb7b9"/>
      <path id="Path_156462" data-name="Path 156462" d="M-134.119-448.175l-.11-3.248s-2.251.394-3.3.47l.212-.716s3.853-1.065,3.934-.464A27.393,27.393,0,0,1-134.119-448.175Z" opacity="0.1"/>
      <path id="Path_156463" data-name="Path 156463" d="M-134.038-461.655v1.627a32.49,32.49,0,0,1-1.7,7.4c-.032.1-.065.191-.1.286a10.211,10.211,0,0,1-.558,1.256c-.423.058-.833.108-1.137.13a1.612,1.612,0,0,1-.5,0c-.356-.137.38-3.6.38-3.6l2.35-5.681.083-.022.511-1.24A6.255,6.255,0,0,1-134.038-461.655Z" opacity="0.1"/>
      <path id="Path_156464" data-name="Path 156464" d="M-134.475-461.911v1.884a32.5,32.5,0,0,1-1.695,7.4c-.038.117-.081.225-.124.344s-.1.261-.155.387c-.124.3-.263.59-.41.869h0a15.025,15.025,0,0,1-4.11,4.7c-.167.128-.322.242-.45.336h-.011c-.225.153-.387.263-.491.329l-.113.07c-1.067-.656-4.1-.766-4.1-.766l-7.076,1.285a40.78,40.78,0,0,1-4.675.531l-.8.038c-.464.019-.945.029-1.438.032-.4,0-.8,0-1.215-.016h0a29.325,29.325,0,0,1-3.97-.37,20,20,0,0,1-2.142-.475,15.1,15.1,0,0,1-1.483-.5c-4.951-1.945-3.662-6.556-2.827-8.553.045-.106.088-.2.128-.293.184-.407.322-.646.322-.646l.329-.794h0l.538-1.3.119-.286.034-.083.4-.966,5.627-.729,4.134-.536,1.258-.162.853-.11,1.627-.212.612-.079a7.514,7.514,0,0,1,1.141-.09,1.594,1.594,0,0,1,.608.09,20.619,20.619,0,0,0,3.88-.356,14.417,14.417,0,0,1,5.026-.547,28.046,28.046,0,0,0,3.491.022h0l.288-.013.373-.016h.081C-137.848-461.623-134.475-461.911-134.475-461.911Z" fill="#444053"/>
      <path id="Path_156465" data-name="Path 156465" d="M-154.72-456.258s-2.7,6.147-2.813,6.255a5.537,5.537,0,0,0,0,1.913c.108-.113,3.853-8.413,3.853-8.413Z" opacity="0.1"/>
      <path id="Path_156466" data-name="Path 156466" d="M-141.635-461.457a7.035,7.035,0,0,0-1.776,1.594c-.41.711-4.152,7.785-5.08,8.823a22.693,22.693,0,0,0-2.077,2.955c-.108.187-.108,1.362.547.241a9.148,9.148,0,0,1,1.776-2.7c1.283-1.391,2.7-4.535,3.25-5.163s1.312-2.514,2.269-3.635l1.832-2.14Z" opacity="0.1"/>
      <path id="Path_156467" data-name="Path 156467" d="M-141.306-449.319a1.358,1.358,0,0,0-1.857.464C-144.063-447.737-141.306-449.319-141.306-449.319Z" opacity="0.1"/>
      <path id="Path_156468" data-name="Path 156468" d="M-140.131-448.981s-.792,1.382-1.175,1.492S-140.131-448.981-140.131-448.981Z" opacity="0.1"/>
      <path id="Path_156469" data-name="Path 156469" d="M-141.311-448.637s-.628,1.094-1.175.984Z" opacity="0.1"/>
      <path id="Path_156470" data-name="Path 156470" d="M-145.728-478.168s5.791-.245,6.365-.437,5.654-.846,5.654-.846,15.053,1.064,10.765,2.35-10.108.736-10.108.736-5.683,1.477-6.556,2.251-7.322.792-7.322.792Z" fill="#efb7b9"/>
      <path id="Path_156471" data-name="Path 156471" d="M-145.728-478.168s5.791-.245,6.365-.437,5.654-.846,5.654-.846,15.053,1.064,10.765,2.35-10.108.736-10.108.736-5.683,1.477-6.556,2.251-7.322.792-7.322.792Z" opacity="0.05"/>
      <path id="Path_156472" data-name="Path 156472" d="M-166.329-491.361s-5.3,1.8-2.732,6.392a20.466,20.466,0,0,0,5.874,6.752l8.523,5.9s3.578,2.048,5.217,1.2l2.676-.225.45-7.022s-2.251,1.749-4.7-.675-5.465-4.072-5.71-5.381S-163.243-492.482-166.329-491.361Z" fill="#a36468"/>
      <path id="Path_156473" data-name="Path 156473" d="M-149.584-476.5s2.759.983,2.651,1.037-2.651,1.011-2.651,1.011l.191,3.743,3.743-.2s1.366-6.815.191-7.5l-4.126-.191Z" fill="#67647e"/>
      <path id="Path_156474" data-name="Path 156474" d="M-149.584-476.5s2.759.983,2.651,1.037-2.651,1.011-2.651,1.011l.191,3.743,3.743-.2s1.366-6.815.191-7.5l-4.126-.191Z" opacity="0.1"/>
      <path id="Path_156475" data-name="Path 156475" d="M-155.181-496.716a5.236,5.236,0,0,0-.864,1.337c-.034.074-.068.146-.1.225-2.01,0-3.455-1.562-4.688-2.96-.225-.259-.8.133-.981-.158-.02-.034-.041-.068-.063-.1l.063-.117c.675-1.281,1.168-2.375,1.168-2.375s.225.072.59.2C-158.375-500.069-153.745-498.244-155.181-496.716Z" opacity="0.1"/>
      <path id="Path_156476" data-name="Path 156476" d="M-149.329-502.149a6.775,6.775,0,0,1-6.711,6.772h-.065a6.764,6.764,0,0,1-5.082-2.3,6.712,6.712,0,0,1-.621-.822,6.777,6.777,0,0,1,2.042-9.364,6.778,6.778,0,0,1,9.364,2.042,6.781,6.781,0,0,1,1.074,3.667Z" fill="#efb7b9"/>
      <path id="Path_156477" data-name="Path 156477" d="M-156.221-460.138s-.515.63-1.085,1.218a4.237,4.237,0,0,1-1.184.968,38.8,38.8,0,0,0-3.77,2.6s-2.458,1.668-3.086,2.158-2.9.191-2.9.191a12.983,12.983,0,0,1-3.532-1.355,8.649,8.649,0,0,1,.45-.936l1.42-3.444,5.627-.727Z" opacity="0.1"/>
      <path id="Path_156478" data-name="Path 156478" d="M-156.331-460.574s-.513.63-1.083,1.218a4.386,4.386,0,0,1-1.184.968,38.218,38.218,0,0,0-3.77,2.6s-2.46,1.668-3.088,2.158-2.894.191-2.894.191-3.115-.675-4.209-1.913c-.765-.862.027-2.46.567-3.34a6.924,6.924,0,0,1,.416-.621Z" fill="#67647e"/>
      <path id="Path_156479" data-name="Path 156479" d="M-152.287-481.746c-1.859-.164-7.979-7.652-7.979-7.652l.139-.191,1.283-1.776h3l.331,1.639c2.282,3.2,3.626,5.426,3.99,6.7C-151.259-482.1-151.509-481.677-152.287-481.746Z" fill="#67647e"/>
      <path id="Path_156480" data-name="Path 156480" d="M-152.287-481.75c-1.859-.164-7.979-7.652-7.979-7.652l.139-.191a34.788,34.788,0,0,1,3.086,3.223c4.479,5.271,5.366,3.8,5.519,3.34C-151.259-482.1-151.509-481.677-152.287-481.75Z" opacity="0.1"/>
      <path id="Path_156481" data-name="Path 156481" d="M-156.332-460.574s-.513.63-1.083,1.218a3.061,3.061,0,0,1-.939.2,6.738,6.738,0,0,0-2.35,1.094,14.157,14.157,0,0,0-3.441.135,10.369,10.369,0,0,1-2.651.356c-3.851,1.1-4.916-.568-5.2-1.125a6.776,6.776,0,0,1,.416-.62Z" opacity="0.1"/>
      <path id="Path_156482" data-name="Path 156482" d="M-149.642-476.842a2.52,2.52,0,0,1-.034.313c-.014.1-.027.2-.043.3a4.959,4.959,0,0,1-.493,1.6c-.491.819-1.994,4.015-1.994,4.015l-.1.59-.052.308-.054.3-.367,2.154-.164,2.487s-.9,1.256-1.283,1.8a2.465,2.465,0,0,0-.191,1.913c.137.574-1.256.655-1.256.655a10.063,10.063,0,0,1-2.678.93,6.745,6.745,0,0,0-2.35,1.089,14.01,14.01,0,0,0-3.441.137,10.282,10.282,0,0,1-2.651.356c-4.123,1.173-5.053-.821-5.244-1.231s.819-2.075.819-2.075.225-2.1.655-2.269.957-2.948.957-2.948a1.947,1.947,0,0,1,.191-1.312c.356-.464.329-1.776.792-2.4s-.491-2.732-.326-3.279-.52-2.759-.466-3.333a4.963,4.963,0,0,0-.574-2.185c-.374-.979-.268-5.33-.225-6.577,0-.212.011-.333.011-.333s.382-1.231,1.393-3.689a5.01,5.01,0,0,1,3.277-2.8c.135-.04.273-.073.412-.1a2.979,2.979,0,0,1,.581.146,13.654,13.654,0,0,1,4.663,3.151,35.032,35.032,0,0,1,2.843,3c5.125,6.023,5.543,3.212,5.543,3.212s.225.513,1.281,2.561A6.529,6.529,0,0,1-149.642-476.842Z" fill="#a36468"/>
      <path id="Path_156483" data-name="Path 156483" d="M-158.08-491.7l-5.141-4.1s-1.852.225-2.618,3.336l5.292,4.634Z" opacity="0.1"/>
      <path id="Path_156484" data-name="Path 156484" d="M-158.08-491.7l-.9,1.258-.914,1.29-.689,1.011-4.225-3.558-.727-.63-.407-.347a4.756,4.756,0,0,1,1.726-2.926,2.153,2.153,0,0,1,.9-.4Z" fill="#67647e"/>
      <path id="Path_156485" data-name="Path 156485" d="M-122.728-475.462c-4.29,1.283-10.108.738-10.108.738s-5.683,1.474-6.556,2.251c-.563.493-3.437.675-5.4.75-1.092.04-1.909.043-1.909.043l1.2-4.846.693-.032c1.555-.072,5.222-.257,5.672-.407.574-.191,5.654-.846,5.654-.846S-118.441-476.747-122.728-475.462Z" fill="#efb7b9"/>
      <path id="Path_156486" data-name="Path 156486" d="M-149.719-476.239a4.959,4.959,0,0,1-.493,1.6c-.491.819-1.994,4.015-1.994,4.015l-.207,1.213a14.664,14.664,0,0,1-2.026-.932l-8.53-5.908A20.433,20.433,0,0,1-168.843-483c-2.568-4.594,2.732-6.392,2.732-6.392,3.086-1.125,9.343,5.627,9.588,6.939s3.252,2.951,5.71,5.381A4.945,4.945,0,0,0-149.719-476.239Z" opacity="0.1"/>
      <path id="Path_156487" data-name="Path 156487" d="M-149.642-476.843c-.02.214-.045.419-.077.615a4.96,4.96,0,0,1-.493,1.6c-.491.819-1.994,4.015-1.994,4.015l-.1.59a14.545,14.545,0,0,1-2.138-.972l-8.525-5.918a20.433,20.433,0,0,1-5.874-6.752c-2.568-4.594,2.732-6.394,2.732-6.394,3.086-1.125,9.343,5.627,9.588,6.939s3.252,2.951,5.71,5.384a4.885,4.885,0,0,0,1.17.891Z" opacity="0.1"/>
      <path id="Path_156488" data-name="Path 156488" d="M-146.113-476.718l-.437,7.02-2.678.225a1.267,1.267,0,0,1-.182.079c-1.706.626-5.035-1.281-5.035-1.281l-8.523-5.908a20.433,20.433,0,0,1-5.874-6.752c-2.568-4.594,2.732-6.392,2.732-6.392,3.086-1.125,9.343,5.627,9.588,6.939s3.252,2.951,5.71,5.381a4.876,4.876,0,0,0,1.229.9A3.355,3.355,0,0,0-146.113-476.718Z" fill="#a36468"/>
      <path id="Path_156489" data-name="Path 156489" d="M-146.113-476.719l-.437,7.02-2.678.225a1.267,1.267,0,0,1-.182.079l-.173-3.412s2.541-.956,2.651-1.011-2.651-1.037-2.651-1.037v-1.632A3.354,3.354,0,0,0-146.113-476.719Z" opacity="0.1"/>
      <path id="Path_156490" data-name="Path 156490" d="M-144.8-471.736c-1.092.04-1.909.043-1.909.043l1.211-4.835.693-.032C-144.364-475.792-144.555-473.536-144.8-471.736Z" opacity="0.1"/>
      <path id="Path_156491" data-name="Path 156491" d="M-149.366-474.862s2.759.984,2.651,1.038-2.651,1.01-2.651,1.01l.191,3.743,3.743-.2s1.366-6.815.191-7.5l-4.125-.191Z" fill="#67647e"/>
      <path id="Path_156492" data-name="Path 156492" d="M-165.733-470.381a5.63,5.63,0,0,1-1.695,1.105Z" opacity="0.1"/>
      <path id="Path_156493" data-name="Path 156493" d="M-167.941-467.786s2.266-.083,2.539-.547S-167.941-467.786-167.941-467.786Z" opacity="0.1"/>
      <path id="Path_156494" data-name="Path 156494" d="M-169.061-464.536c.137,0,2.867-.383,2.978-.738Z" opacity="0.1"/>
      <path id="Path_156495" data-name="Path 156495" d="M-169.908-462.458a7.478,7.478,0,0,0,2.649-1.094Z" opacity="0.1"/>
      <path id="Path_156496" data-name="Path 156496" d="M-163.543-461.914s5.928,0,6.2-1.092S-163.543-461.914-163.543-461.914Z" opacity="0.1"/>
      <path id="Path_156497" data-name="Path 156497" d="M-159.091-477.184c.11,0,4.672,0,5.109-.628S-159.091-477.184-159.091-477.184Z" opacity="0.1"/>
      <path id="Path_156498" data-name="Path 156498" d="M-164.115-495.073a4.5,4.5,0,0,1,.058.675,4.267,4.267,0,0,1-.068.749,6.512,6.512,0,0,1-.423,1.366l-.047.11c-.068.158-.14.311-.214.464a12.782,12.782,0,0,1-1.179,1.945,21.29,21.29,0,0,1-3.538,3.68q-.345.291-.7.574c0-.212.011-.333.011-.333s.383-1.231,1.393-3.689a5.01,5.01,0,0,1,3.277-2.8l-.407-.347a4.756,4.756,0,0,1,1.726-2.926C-164.185-495.433-164.142-495.26-164.115-495.073Z" opacity="0.1"/>
      <path id="Path_156499" data-name="Path 156499" d="M-150.32-505.67a.826.826,0,0,0-.2.079c-.428.236-.551.8-.9,1.15a2.594,2.594,0,0,1-1.607.551,1.984,1.984,0,0,0-1.519.707,3.626,3.626,0,0,0-.286,1.251.4.4,0,0,1-.088.207.4.4,0,0,1-.275.09,8.72,8.72,0,0,1-3-.581,1.6,1.6,0,0,0-1.449.225,1.645,1.645,0,0,0-.428,1.274v.04a8.825,8.825,0,0,1,.04,1.35,2.228,2.228,0,0,1-1.177,1.65,2.086,2.086,0,0,1-.851.243.685.685,0,0,1-.338-.05c.2-.342.392-.675.567-1.015a6.777,6.777,0,0,1,2.162-9.338,6.779,6.779,0,0,1,9.338,2.162Z" opacity="0.1"/>
      <path id="Path_156500" data-name="Path 156500" d="M-148.465-506.533a1.143,1.143,0,0,1-.376.461c-.513.333-1.249-.034-1.785.263-.43.236-.551.8-.9,1.15a2.582,2.582,0,0,1-1.607.551,1.984,1.984,0,0,0-1.519.707,3.648,3.648,0,0,0-.286,1.251.382.382,0,0,1-.088.207.406.406,0,0,1-.275.09,8.768,8.768,0,0,1-3-.581,1.6,1.6,0,0,0-1.447.225,1.569,1.569,0,0,0-.43,1.276,10.03,10.03,0,0,1,.043,1.386,2.25,2.25,0,0,1-2.026,1.893.552.552,0,0,1-.416-.106.589.589,0,0,1-.137-.248c-.75-2.107-.743-4.445-1.652-6.489a7.113,7.113,0,0,1-.38-.9c-.018-.063-.036-.128-.049-.194a2.893,2.893,0,0,1-.054-.394.568.568,0,0,0-.256.106.477.477,0,0,0-.072.077,1.329,1.329,0,0,0-.189.713,26.981,26.981,0,0,0,.81,8.366,8.781,8.781,0,0,1,.389,2.1,5.61,5.61,0,0,1-.54,2.226c-1.411,3.255-4.247,5.638-7.067,7.792a3.136,3.136,0,0,0,.837-2.325.918.918,0,0,1-.713.639,2.723,2.723,0,0,1-1.006-.016c.432-.142.6-.65.709-1.092q.33-1.35.614-2.726a17.286,17.286,0,0,0,.4-2.66c.034-.761-.025-1.524-.056-2.287a46.358,46.358,0,0,1,.224-6.268c.167-1.8.469-3.747,1.789-4.976a7.848,7.848,0,0,1,1.891-1.179c0-.225,1.651-.675,1.868-.707a1.961,1.961,0,0,1,.275-.031.565.565,0,0,1,.587.308c.081-.146.171-.29.266-.428a5.287,5.287,0,0,1,.428-.538A24.839,24.839,0,0,1-160.7-511.3a7.771,7.771,0,0,1,1.179-.869,4.265,4.265,0,0,1,1.767-.45,7.188,7.188,0,0,1,2.982.468c1.368.527,2.564,1.472,3.979,1.855a9.625,9.625,0,0,1,1.033.286,2.5,2.5,0,0,1,1.409,3.243,2.341,2.341,0,0,1-.1.228Z" fill="#444053"/>
      <g id="Group_167385" data-name="Group 167385" opacity="0.1">
        <path id="Path_156501" data-name="Path 156501" d="M-171.258-486.374a3.13,3.13,0,0,0,.2-1.328.924.924,0,0,1-.716.639,1.359,1.359,0,0,1-.261.038,1.132,1.132,0,0,1-.635.819,2.744,2.744,0,0,0,1.006.018A1.119,1.119,0,0,0-171.258-486.374Z"/>
        <path id="Path_156502" data-name="Path 156502" d="M-148.3-508.327a2.525,2.525,0,0,1-.27,1.022,1.17,1.17,0,0,1-.378.45c-.511.333-1.249-.031-1.785.263-.428.236-.551.8-.9,1.15a2.582,2.582,0,0,1-1.607.551,2.012,2.012,0,0,0-1.519.707,3.626,3.626,0,0,0-.286,1.251.317.317,0,0,1-.327.3l-.035,0a8.723,8.723,0,0,1-3-.583,1.6,1.6,0,0,0-1.449.225,1.651,1.651,0,0,0-.428,1.276,9.55,9.55,0,0,1,.041,1.384,2.237,2.237,0,0,1-2.026,1.9.553.553,0,0,1-.416-.106.6.6,0,0,1-.137-.25c-.749-2.107-.745-4.445-1.654-6.487a7.641,7.641,0,0,1-.378-.9,2.6,2.6,0,0,1-.106-.587.5.5,0,0,0-.329.182,1.381,1.381,0,0,0-.189.714,27.091,27.091,0,0,0,.225,5.4,27.125,27.125,0,0,1-.11-4.533,1.329,1.329,0,0,1,.189-.713.475.475,0,0,1,.329-.182,2.6,2.6,0,0,0,.1.587,7.481,7.481,0,0,0,.38.9c.9,2.044.9,4.38,1.652,6.486a.606.606,0,0,0,.139.25.54.54,0,0,0,.414.124,2.251,2.251,0,0,0,2.03-1.891,9.875,9.875,0,0,0-.043-1.386,1.69,1.69,0,0,1,.43-1.276,1.565,1.565,0,0,1,1.447-.225,8.744,8.744,0,0,0,3,.581.405.405,0,0,0,.275-.09.391.391,0,0,0,.088-.209,3.564,3.564,0,0,1,.286-1.249,1.984,1.984,0,0,1,1.519-.709,2.594,2.594,0,0,0,1.609-.549c.34-.353.461-.914.9-1.152.533-.3,1.272.072,1.785-.261a1.143,1.143,0,0,0,.376-.461,2.556,2.556,0,0,0,.16-1.9Z"/>
        <path id="Path_156503" data-name="Path 156503" d="M-164.275-495.387a5.629,5.629,0,0,1-.538,2.226c-1.263,2.91-3.666,5.125-6.176,7.1a3.153,3.153,0,0,1-.783,1.576c2.818-2.152,5.658-4.535,7.067-7.79a5.61,5.61,0,0,0,.54-2.226,5.045,5.045,0,0,0-.115-.979A.715.715,0,0,1-164.275-495.387Z"/>
      </g>
      <path id="Path_156504" data-name="Path 156504" d="M-163.993-508.352c-.2.932-.482,2.143-.691,2.766a3.247,3.247,0,0,1-.054-.394.557.557,0,0,0-.254.106c0-.655.079-1.63.146-2.359a.569.569,0,0,1,.59.308A3.917,3.917,0,0,1-163.993-508.352Z" opacity="0.1"/>
      <path id="Path_156505" data-name="Path 156505" d="M-164.1-508.352c-.2.932-.482,2.143-.691,2.766a2.892,2.892,0,0,1-.054-.394.568.568,0,0,0-.257.106c0-.655.079-1.63.148-2.359a.566.566,0,0,1,.588.308C-164.286-508.068-164.185-508.212-164.1-508.352Z" fill="#67647e"/>
    </g>
  </g>
</svg>
