<svg xmlns="http://www.w3.org/2000/svg" xmlns:xlink="http://www.w3.org/1999/xlink" width="262" height="196" viewBox="0 0 262 196">
  <defs>
    <clipPath id="clip-path">
      <path id="Path_158063" data-name="Path 158063" d="M-632.512-497.181c11.957,31.915-53.039,61.219-82.215,63.716-29.1,2.621-83.14,6.3-120.036-34.574-36.789-41.027-10.714-114.887,72.35-83.8C-679.28-520.676-644.4-528.995-632.512-497.181Z" fill="none"/>
    </clipPath>
    <clipPath id="clip-path-2">
      <rect id="Rectangle_30849" data-name="Rectangle 30849" width="1311.508" height="836.793" transform="translate(-1396.791 -608.254)" fill="none"/>
    </clipPath>
    <clipPath id="clip-path-3">
      <path id="Path_158064" data-name="Path 158064" d="M-725.916-519.009a.824.824,0,0,1-.147,1.154h0a.82.82,0,0,1-1.151-.15h0c-2.018-2.613-4.189-2.613-7,.091a.823.823,0,0,1-1.155-.013c-2.675-2.693-4.849-2.693-7-.058a.821.821,0,0,1-1.155.116h0a.819.819,0,0,1-.119-1.153l0,0c2.634-3.225,5.726-3.409,8.869-.6C-731.509-522.435-728.419-522.255-725.916-519.009Z" fill="none"/>
    </clipPath>
    <clipPath id="clip-path-4">
      <rect id="Rectangle_30850" data-name="Rectangle 30850" width="1311.508" height="836.793" transform="translate(-1396.79 -608.254)" fill="none"/>
    </clipPath>
    <clipPath id="clip-path-5">
      <path id="Path_158065" data-name="Path 158065" d="M-741.206-530.355a.824.824,0,0,1-.15,1.154.82.82,0,0,1-1.151-.149h0c-2.018-2.613-4.19-2.613-7,.091a.824.824,0,0,1-1.155-.013c-2.675-2.693-4.849-2.693-7-.058a.821.821,0,0,1-1.155.116h0a.822.822,0,0,1-.117-1.156c2.635-3.225,5.727-3.41,8.869-.6C-746.8-533.782-743.711-533.6-741.206-530.355Z" fill="none"/>
    </clipPath>
    <clipPath id="clip-path-7">
      <path id="Path_158066" data-name="Path 158066" d="M-770.306-434.181c-22.217-3.7-45.582-12.948-64.457-33.859a65.579,65.579,0,0,1-5.262-6.694V-511.24h69.719Z" fill="none"/>
    </clipPath>
    <clipPath id="clip-path-8">
      <rect id="Rectangle_30852" data-name="Rectangle 30852" width="1311.508" height="836.793" transform="translate(-1396.791 -608.255)" fill="none"/>
    </clipPath>
    <clipPath id="clip-path-9">
      <path id="Path_158067" data-name="Path 158067" d="M-826.87-504.662a6.577,6.577,0,0,1,6.577,6.577h0v11.018h-13.154v-11.018a6.576,6.576,0,0,1,6.577-6.577Z" fill="none"/>
    </clipPath>
    <clipPath id="clip-path-11">
      <path id="Path_158068" data-name="Path 158068" d="M-826.87-478.518a6.577,6.577,0,0,1,6.577,6.577h0v11.017h-13.154v-11.017a6.576,6.576,0,0,1,6.577-6.577Z" fill="none"/>
    </clipPath>
    <clipPath id="clip-path-13">
      <path id="Path_158069" data-name="Path 158069" d="M-805.165-504.662a6.577,6.577,0,0,1,6.577,6.577h0v11.018h-13.155v-11.018a6.577,6.577,0,0,1,6.578-6.577Z" fill="none"/>
    </clipPath>
    <clipPath id="clip-path-15">
      <path id="Path_158070" data-name="Path 158070" d="M-805.165-478.518a6.577,6.577,0,0,1,6.577,6.577h0v11.017h-13.155v-11.017a6.577,6.577,0,0,1,6.578-6.577Z" fill="none"/>
    </clipPath>
    <clipPath id="clip-path-17">
      <path id="Path_158071" data-name="Path 158071" d="M-783.459-504.662a6.578,6.578,0,0,1,6.577,6.577v11.018h-13.156v-11.018A6.578,6.578,0,0,1-783.459-504.662Z" fill="none"/>
    </clipPath>
    <clipPath id="clip-path-19">
      <path id="Path_158072" data-name="Path 158072" d="M-783.459-478.518a6.578,6.578,0,0,1,6.577,6.577v11.017h-13.156v-11.017A6.578,6.578,0,0,1-783.459-478.518Z" fill="none"/>
    </clipPath>
    <clipPath id="clip-path-21">
      <path id="Path_158073" data-name="Path 158073" d="M-805.165-452.373a6.578,6.578,0,0,1,6.577,6.578v11.017h-13.155V-445.8A6.578,6.578,0,0,1-805.165-452.373Z" fill="none"/>
    </clipPath>
    <clipPath id="clip-path-23">
      <path id="Path_158074" data-name="Path 158074" d="M-783.459-452.373a6.578,6.578,0,0,1,6.577,6.578v11.017h-13.156V-445.8a6.579,6.579,0,0,1,6.579-6.578Z" fill="none"/>
    </clipPath>
    <clipPath id="clip-path-25">
      <rect id="Rectangle_30862" data-name="Rectangle 30862" width="53.275" height="16.443" transform="translate(-831.803 -535.904)" fill="none"/>
    </clipPath>
    <clipPath id="clip-path-27">
      <rect id="Rectangle_30864" data-name="Rectangle 30864" width="48.343" height="11.51" transform="translate(-829.337 -533.438)" fill="none"/>
    </clipPath>
    <clipPath id="clip-path-29">
      <rect id="Rectangle_30866" data-name="Rectangle 30866" width="1.645" height="8.222" transform="translate(-823.253 -519.461)" fill="none"/>
    </clipPath>
    <clipPath id="clip-path-31">
      <rect id="Rectangle_30868" data-name="Rectangle 30868" width="1.643" height="8.222" transform="translate(-788.721 -519.461)" fill="none"/>
    </clipPath>
    <clipPath id="clip-path-33">
      <path id="Path_158075" data-name="Path 158075" d="M-638.766-496.976a.824.824,0,0,1-.148,1.153h0a.822.822,0,0,1-1.152-.149c-2.018-2.615-4.187-2.615-7,.09a.825.825,0,0,1-1.155-.013c-2.674-2.694-4.848-2.694-7-.06a.821.821,0,0,1-1.155.118h0a.824.824,0,0,1-.117-1.158c2.635-3.223,5.726-3.408,8.87-.6C-644.36-500.4-641.27-500.222-638.766-496.976Z" fill="none"/>
    </clipPath>
    <clipPath id="clip-path-34">
      <rect id="Rectangle_30869" data-name="Rectangle 30869" width="1311.508" height="836.793" transform="translate(-1396.79 -608.255)" fill="none"/>
    </clipPath>
    <clipPath id="clip-path-35">
      <path id="Path_158076" data-name="Path 158076" d="M-711.446-530.405a.82.82,0,0,1-.146,1.151l0,0a.823.823,0,0,1-1.154-.15h0c-2.018-2.615-4.187-2.615-7,.091a.825.825,0,0,1-1.156-.014c-2.674-2.692-4.848-2.692-7-.059a.819.819,0,0,1-1.154.118h0a.823.823,0,0,1-.117-1.157c2.635-3.224,5.727-3.408,8.869-.6C-717.039-533.834-713.949-533.652-711.446-530.405Z" fill="none"/>
    </clipPath>
    <clipPath id="clip-path-37">
      <path id="Path_158077" data-name="Path 158077" d="M-706.177-434.75a75.42,75.42,0,0,1-8.55,1.284c-14.209,1.282-34.37,2.814-55.579-.717v-51.57l32.065-24.665,32.064,24.665v51Z" fill="none"/>
    </clipPath>
    <clipPath id="clip-path-39">
      <path id="Path_158078" data-name="Path 158078" d="M-763.235-480.655h11.507a.494.494,0,0,1,.493.494h0v11.51a.492.492,0,0,1-.492.493h-11.512a.49.49,0,0,1-.492-.49v-11.513a.492.492,0,0,1,.49-.494Z" fill="none"/>
    </clipPath>
    <clipPath id="clip-path-41">
      <path id="Path_158079" data-name="Path 158079" d="M-744-480.655h11.506a.493.493,0,0,1,.493.493h0v11.51a.492.492,0,0,1-.492.493H-744a.491.491,0,0,1-.493-.491v-11.512a.493.493,0,0,1,.492-.494Z" fill="none"/>
    </clipPath>
    <clipPath id="clip-path-43">
      <path id="Path_158080" data-name="Path 158080" d="M-724.758-480.655h11.506a.493.493,0,0,1,.493.493h0v11.51a.492.492,0,0,1-.492.493h-11.511a.491.491,0,0,1-.493-.491v-11.512a.493.493,0,0,1,.492-.494Z" fill="none"/>
    </clipPath>
    <clipPath id="clip-path-45">
      <path id="Path_158081" data-name="Path 158081" d="M-763.235-464.87h11.507a.493.493,0,0,1,.493.493v11.507a.492.492,0,0,1-.492.493h-11.512a.491.491,0,0,1-.492-.49v-11.514a.492.492,0,0,1,.495-.489Z" fill="none"/>
    </clipPath>
    <clipPath id="clip-path-47">
      <path id="Path_158082" data-name="Path 158082" d="M-744-464.87h11.506a.493.493,0,0,1,.493.492h0v11.507a.492.492,0,0,1-.492.493H-744a.492.492,0,0,1-.493-.491v-11.513a.493.493,0,0,1,.5-.489Z" fill="none"/>
    </clipPath>
    <clipPath id="clip-path-49">
      <path id="Path_158083" data-name="Path 158083" d="M-724.758-464.87h11.506a.493.493,0,0,1,.493.492h0v11.507a.493.493,0,0,1-.492.493h-11.511a.492.492,0,0,1-.493-.491v-11.513a.493.493,0,0,1,.5-.489Z" fill="none"/>
    </clipPath>
    <clipPath id="clip-path-51">
      <path id="Path_158084" data-name="Path 158084" d="M-763.235-449.085h11.507a.493.493,0,0,1,.493.493v11.507a.492.492,0,0,1-.493.493h-11.511a.491.491,0,0,1-.492-.492h0V-448.6a.492.492,0,0,1,.495-.489Z" fill="none"/>
    </clipPath>
    <clipPath id="clip-path-53">
      <path id="Path_158085" data-name="Path 158085" d="M-744-449.085h11.506a.493.493,0,0,1,.493.492h0v11.507a.492.492,0,0,1-.492.493H-744a.492.492,0,0,1-.493-.493h0V-448.6a.493.493,0,0,1,.5-.489Z" fill="none"/>
    </clipPath>
    <clipPath id="clip-path-55">
      <path id="Path_158086" data-name="Path 158086" d="M-724.758-449.085h11.506a.493.493,0,0,1,.493.492h0v11.507a.492.492,0,0,1-.492.493h-11.511a.492.492,0,0,1-.493-.493h0V-448.6a.493.493,0,0,1,.5-.489Z" fill="none"/>
    </clipPath>
    <linearGradient id="linear-gradient" x1="20.742" y1="8.892" x2="20.742" y2="8.903" gradientUnits="objectBoundingBox">
      <stop offset="0" stop-color="gray" stop-opacity="0.251"/>
      <stop offset="0.54" stop-color="gray" stop-opacity="0.122"/>
      <stop offset="1" stop-color="gray" stop-opacity="0.102"/>
    </linearGradient>
    <linearGradient id="linear-gradient-2" x1="15.126" y1="8.368" x2="15.126" y2="8.378" xlink:href="#linear-gradient"/>
  </defs>
  <g id="card-13" transform="translate(872.218 594.797)">
    <rect id="Rectangle_8569-6" data-name="Rectangle 8569-6" width="262" height="196" transform="translate(-872.218 -594.797)" fill="#c0ebef"/>
    <g id="Group_167354" data-name="Group 167354">
      <g id="Group_167892" data-name="Group 167892">
        <g id="Group_167891" data-name="Group 167891" clip-path="url(#clip-path)">
          <g id="Group_160854" data-name="Group 160854">
            <g id="Group_167890" data-name="Group 167890">
              <g id="Group_167889" data-name="Group 167889" clip-path="url(#clip-path-2)">
                <g id="Group_160853" data-name="Group 160853">
                  <path id="Path_149366" data-name="Path 149366" d="M-851.884-431.184H-630.24V-560.1H-851.884Z" fill="#b8e4e8"/>
                </g>
              </g>
            </g>
          </g>
        </g>
      </g>
      <g id="Group_167896" data-name="Group 167896">
        <g id="Group_167895" data-name="Group 167895" clip-path="url(#clip-path-3)">
          <g id="Group_160930" data-name="Group 160930">
            <g id="Group_167894" data-name="Group 167894">
              <g id="Group_167893" data-name="Group 167893" clip-path="url(#clip-path-4)">
                <g id="Group_160929" data-name="Group 160929">
                  <path id="Path_149478" data-name="Path 149478" d="M-744.653-516.86h19.733v-5.56h-19.733Z" fill="#d3e0f0"/>
                </g>
              </g>
            </g>
          </g>
        </g>
      </g>
      <g id="Group_167900" data-name="Group 167900">
        <g id="Group_167899" data-name="Group 167899" clip-path="url(#clip-path-5)">
          <g id="Group_160932" data-name="Group 160932">
            <g id="Group_167898" data-name="Group 167898">
              <g id="Group_167897" data-name="Group 167897" clip-path="url(#clip-path-4)">
                <g id="Group_160931" data-name="Group 160931">
                  <path id="Path_149481" data-name="Path 149481" d="M-759.946-528.206h19.732v-5.559h-19.732Z" fill="#d3e0f0"/>
                </g>
              </g>
            </g>
          </g>
        </g>
      </g>
      <g id="Group_167904" data-name="Group 167904">
        <g id="Group_167903" data-name="Group 167903" clip-path="url(#clip-path-7)">
          <g id="Group_160934" data-name="Group 160934">
            <g id="Group_167902" data-name="Group 167902">
              <g id="Group_167901" data-name="Group 167901" clip-path="url(#clip-path-8)">
                <g id="Group_160933" data-name="Group 160933">
                  <path id="Path_149484" data-name="Path 149484" d="M-840.846-433.358h71.363v-78.7h-71.363Z" fill="#a5d1d5"/>
                </g>
              </g>
            </g>
          </g>
        </g>
      </g>
      <g id="Group_167908" data-name="Group 167908">
        <g id="Group_167907" data-name="Group 167907" clip-path="url(#clip-path-9)">
          <g id="Group_160936" data-name="Group 160936">
            <g id="Group_167906" data-name="Group 167906">
              <g id="Group_167905" data-name="Group 167905" clip-path="url(#clip-path-2)">
                <g id="Group_160935" data-name="Group 160935">
                  <path id="Path_149487" data-name="Path 149487" d="M-834.269-486.244h14.8v-19.239h-14.8Z" fill="#fff"/>
                </g>
              </g>
            </g>
          </g>
        </g>
      </g>
      <g id="Group_167912" data-name="Group 167912">
        <g id="Group_167911" data-name="Group 167911" clip-path="url(#clip-path-11)">
          <g id="Group_160938" data-name="Group 160938">
            <g id="Group_167910" data-name="Group 167910">
              <g id="Group_167909" data-name="Group 167909" clip-path="url(#clip-path-8)">
                <g id="Group_160937" data-name="Group 160937">
                  <path id="Path_149490" data-name="Path 149490" d="M-834.269-460.1h14.8v-19.238h-14.8Z" fill="#fff"/>
                </g>
              </g>
            </g>
          </g>
        </g>
      </g>
      <g id="Group_167916" data-name="Group 167916">
        <g id="Group_167915" data-name="Group 167915" clip-path="url(#clip-path-13)">
          <g id="Group_160940" data-name="Group 160940">
            <g id="Group_167914" data-name="Group 167914">
              <g id="Group_167913" data-name="Group 167913" clip-path="url(#clip-path-2)">
                <g id="Group_160939" data-name="Group 160939">
                  <path id="Path_149493" data-name="Path 149493" d="M-812.564-486.244h14.8v-19.239h-14.8Z" fill="#fff"/>
                </g>
              </g>
            </g>
          </g>
        </g>
      </g>
      <g id="Group_167920" data-name="Group 167920">
        <g id="Group_167919" data-name="Group 167919" clip-path="url(#clip-path-15)">
          <g id="Group_160942" data-name="Group 160942">
            <g id="Group_167918" data-name="Group 167918">
              <g id="Group_167917" data-name="Group 167917" clip-path="url(#clip-path-8)">
                <g id="Group_160941" data-name="Group 160941">
                  <path id="Path_149496" data-name="Path 149496" d="M-812.564-460.1h14.8v-19.238h-14.8Z" fill="#fff"/>
                </g>
              </g>
            </g>
          </g>
        </g>
      </g>
      <g id="Group_167924" data-name="Group 167924">
        <g id="Group_167923" data-name="Group 167923" clip-path="url(#clip-path-17)">
          <g id="Group_160944" data-name="Group 160944">
            <g id="Group_167922" data-name="Group 167922">
              <g id="Group_167921" data-name="Group 167921" clip-path="url(#clip-path-2)">
                <g id="Group_160943" data-name="Group 160943">
                  <path id="Path_149499" data-name="Path 149499" d="M-790.859-486.244h14.8v-19.239h-14.8Z" fill="#fff"/>
                </g>
              </g>
            </g>
          </g>
        </g>
      </g>
      <g id="Group_167928" data-name="Group 167928">
        <g id="Group_167927" data-name="Group 167927" clip-path="url(#clip-path-19)">
          <g id="Group_160946" data-name="Group 160946">
            <g id="Group_167926" data-name="Group 167926">
              <g id="Group_167925" data-name="Group 167925" clip-path="url(#clip-path-8)">
                <g id="Group_160945" data-name="Group 160945">
                  <path id="Path_149502" data-name="Path 149502" d="M-790.859-460.1h14.8v-19.238h-14.8Z" fill="#fff"/>
                </g>
              </g>
            </g>
          </g>
        </g>
      </g>
      <g id="Group_167932" data-name="Group 167932">
        <g id="Group_167931" data-name="Group 167931" clip-path="url(#clip-path-21)">
          <g id="Group_160948" data-name="Group 160948">
            <g id="Group_167930" data-name="Group 167930">
              <g id="Group_167929" data-name="Group 167929" clip-path="url(#clip-path-2)">
                <g id="Group_160947" data-name="Group 160947">
                  <path id="Path_149505" data-name="Path 149505" d="M-812.564-433.956h14.8v-19.238h-14.8Z" fill="#fff"/>
                </g>
              </g>
            </g>
          </g>
        </g>
      </g>
      <g id="Group_167936" data-name="Group 167936">
        <g id="Group_167935" data-name="Group 167935" clip-path="url(#clip-path-23)">
          <g id="Group_160950" data-name="Group 160950">
            <g id="Group_167934" data-name="Group 167934">
              <g id="Group_167933" data-name="Group 167933" clip-path="url(#clip-path-2)">
                <g id="Group_160949" data-name="Group 160949">
                  <path id="Path_149508" data-name="Path 149508" d="M-790.859-433.956h14.8v-19.238h-14.8Z" fill="#fff"/>
                </g>
              </g>
            </g>
          </g>
        </g>
      </g>
      <g id="Group_167940" data-name="Group 167940">
        <g id="Group_167939" data-name="Group 167939" clip-path="url(#clip-path-25)">
          <g id="Group_160952" data-name="Group 160952">
            <g id="Group_167938" data-name="Group 167938">
              <g id="Group_167937" data-name="Group 167937" clip-path="url(#clip-path-4)">
                <g id="Group_160951" data-name="Group 160951">
                  <path id="Path_149511" data-name="Path 149511" d="M-832.624-518.638h54.92v-18.088h-54.92Z" fill="#94c6cb"/>
                </g>
              </g>
            </g>
          </g>
        </g>
      </g>
      <g id="Group_167944" data-name="Group 167944">
        <g id="Group_167943" data-name="Group 167943" clip-path="url(#clip-path-27)">
          <g id="Group_160954" data-name="Group 160954">
            <g id="Group_167942" data-name="Group 167942">
              <g id="Group_167941" data-name="Group 167941" clip-path="url(#clip-path-2)">
                <g id="Group_160953" data-name="Group 160953">
                  <path id="Path_149514" data-name="Path 149514" d="M-830.159-521.1h49.988V-534.26h-49.988Z" fill="#fff"/>
                </g>
              </g>
            </g>
          </g>
        </g>
      </g>
      <g id="Group_167948" data-name="Group 167948">
        <g id="Group_167947" data-name="Group 167947" clip-path="url(#clip-path-29)">
          <g id="Group_160956" data-name="Group 160956">
            <g id="Group_167946" data-name="Group 167946">
              <g id="Group_167945" data-name="Group 167945" clip-path="url(#clip-path-2)">
                <g id="Group_160955" data-name="Group 160955">
                  <path id="Path_149517" data-name="Path 149517" d="M-824.075-510.418h3.289v-9.865h-3.289Z" fill="#e1eaf4"/>
                </g>
              </g>
            </g>
          </g>
        </g>
      </g>
      <g id="Group_167952" data-name="Group 167952">
        <g id="Group_167951" data-name="Group 167951" clip-path="url(#clip-path-31)">
          <g id="Group_160958" data-name="Group 160958">
            <g id="Group_167950" data-name="Group 167950">
              <g id="Group_167949" data-name="Group 167949" clip-path="url(#clip-path-4)">
                <g id="Group_160957" data-name="Group 160957">
                  <path id="Path_149520" data-name="Path 149520" d="M-789.543-510.418h3.288v-9.865h-3.288Z" fill="#e1eaf4"/>
                </g>
              </g>
            </g>
          </g>
        </g>
      </g>
      <g id="Group_167956" data-name="Group 167956">
        <g id="Group_167955" data-name="Group 167955" clip-path="url(#clip-path-33)">
          <g id="Group_160960" data-name="Group 160960">
            <g id="Group_167954" data-name="Group 167954">
              <g id="Group_167953" data-name="Group 167953" clip-path="url(#clip-path-34)">
                <g id="Group_160959" data-name="Group 160959">
                  <path id="Path_149523" data-name="Path 149523" d="M-657.5-494.828h19.73v-5.56H-657.5Z" fill="#d3e0f0"/>
                </g>
              </g>
            </g>
          </g>
        </g>
      </g>
      <g id="Group_167960" data-name="Group 167960">
        <g id="Group_167959" data-name="Group 167959" clip-path="url(#clip-path-35)">
          <g id="Group_160962" data-name="Group 160962">
            <g id="Group_167958" data-name="Group 167958">
              <g id="Group_167957" data-name="Group 167957" clip-path="url(#clip-path-34)">
                <g id="Group_160961" data-name="Group 160961">
                  <path id="Path_149526" data-name="Path 149526" d="M-730.184-528.259h19.73v-5.559h-19.73Z" fill="#d3e0f0"/>
                </g>
              </g>
            </g>
          </g>
        </g>
      </g>
      <g id="Group_167964" data-name="Group 167964">
        <g id="Group_167963" data-name="Group 167963" clip-path="url(#clip-path-37)">
          <g id="Group_160964" data-name="Group 160964">
            <g id="Group_167962" data-name="Group 167962">
              <g id="Group_167961" data-name="Group 167961" clip-path="url(#clip-path-8)">
                <g id="Group_160963" data-name="Group 160963">
                  <path id="Path_149529" data-name="Path 149529" d="M-771.128-431.185h65.772v-80.058h-65.772Z" fill="#aad7db"/>
                </g>
              </g>
            </g>
          </g>
        </g>
      </g>
      <g id="Group_167968" data-name="Group 167968">
        <g id="Group_167967" data-name="Group 167967" clip-path="url(#clip-path-39)">
          <g id="Group_160966" data-name="Group 160966">
            <g id="Group_167966" data-name="Group 167966">
              <g id="Group_167965" data-name="Group 167965" clip-path="url(#clip-path-4)">
                <g id="Group_160965" data-name="Group 160965">
                  <path id="Path_149532" data-name="Path 149532" d="M-764.549-467.336h14.14v-14.14h-14.14Z" fill="#fff"/>
                </g>
              </g>
            </g>
          </g>
        </g>
      </g>
      <g id="Group_167972" data-name="Group 167972">
        <g id="Group_167971" data-name="Group 167971" clip-path="url(#clip-path-41)">
          <g id="Group_160968" data-name="Group 160968">
            <g id="Group_167970" data-name="Group 167970">
              <g id="Group_167969" data-name="Group 167969" clip-path="url(#clip-path-2)">
                <g id="Group_160967" data-name="Group 160967">
                  <path id="Path_149535" data-name="Path 149535" d="M-745.312-467.336h14.141v-14.14h-14.141Z" fill="#fff"/>
                </g>
              </g>
            </g>
          </g>
        </g>
      </g>
      <g id="Group_167976" data-name="Group 167976">
        <g id="Group_167975" data-name="Group 167975" clip-path="url(#clip-path-43)">
          <g id="Group_160970" data-name="Group 160970">
            <g id="Group_167974" data-name="Group 167974">
              <g id="Group_167973" data-name="Group 167973" clip-path="url(#clip-path-2)">
                <g id="Group_160969" data-name="Group 160969">
                  <path id="Path_149538" data-name="Path 149538" d="M-726.074-467.336h14.141v-14.14h-14.141Z" fill="#fff"/>
                </g>
              </g>
            </g>
          </g>
        </g>
      </g>
      <g id="Group_167980" data-name="Group 167980">
        <g id="Group_167979" data-name="Group 167979" clip-path="url(#clip-path-45)">
          <g id="Group_160972" data-name="Group 160972">
            <g id="Group_167978" data-name="Group 167978">
              <g id="Group_167977" data-name="Group 167977" clip-path="url(#clip-path-4)">
                <g id="Group_160971" data-name="Group 160971">
                  <path id="Path_149541" data-name="Path 149541" d="M-764.549-451.549h14.14v-14.142h-14.14Z" fill="#fff"/>
                </g>
              </g>
            </g>
          </g>
        </g>
      </g>
      <g id="Group_167984" data-name="Group 167984">
        <g id="Group_167983" data-name="Group 167983" clip-path="url(#clip-path-47)">
          <g id="Group_160974" data-name="Group 160974">
            <g id="Group_167982" data-name="Group 167982">
              <g id="Group_167981" data-name="Group 167981" clip-path="url(#clip-path-2)">
                <g id="Group_160973" data-name="Group 160973">
                  <path id="Path_149544" data-name="Path 149544" d="M-745.312-451.549h14.141v-14.142h-14.141Z" fill="#fff"/>
                </g>
              </g>
            </g>
          </g>
        </g>
      </g>
      <g id="Group_167988" data-name="Group 167988">
        <g id="Group_167987" data-name="Group 167987" clip-path="url(#clip-path-49)">
          <g id="Group_160976" data-name="Group 160976">
            <g id="Group_167986" data-name="Group 167986">
              <g id="Group_167985" data-name="Group 167985" clip-path="url(#clip-path-2)">
                <g id="Group_160975" data-name="Group 160975">
                  <path id="Path_149547" data-name="Path 149547" d="M-726.074-451.549h14.141v-14.142h-14.141Z" fill="#fff"/>
                </g>
              </g>
            </g>
          </g>
        </g>
      </g>
      <g id="Group_167992" data-name="Group 167992">
        <g id="Group_167991" data-name="Group 167991" clip-path="url(#clip-path-51)">
          <g id="Group_160978" data-name="Group 160978">
            <g id="Group_167990" data-name="Group 167990">
              <g id="Group_167989" data-name="Group 167989" clip-path="url(#clip-path-34)">
                <g id="Group_160977" data-name="Group 160977">
                  <path id="Path_149550" data-name="Path 149550" d="M-764.549-435.766h14.14v-14.141h-14.14Z" fill="#fff"/>
                </g>
              </g>
            </g>
          </g>
        </g>
      </g>
      <g id="Group_167996" data-name="Group 167996">
        <g id="Group_167995" data-name="Group 167995" clip-path="url(#clip-path-53)">
          <g id="Group_160980" data-name="Group 160980">
            <g id="Group_167994" data-name="Group 167994">
              <g id="Group_167993" data-name="Group 167993" clip-path="url(#clip-path-8)">
                <g id="Group_160979" data-name="Group 160979">
                  <path id="Path_149553" data-name="Path 149553" d="M-745.312-435.766h14.141v-14.141h-14.141Z" fill="#fff"/>
                </g>
              </g>
            </g>
          </g>
        </g>
      </g>
      <g id="Group_168000" data-name="Group 168000">
        <g id="Group_167999" data-name="Group 167999" clip-path="url(#clip-path-55)">
          <g id="Group_160982" data-name="Group 160982">
            <g id="Group_167998" data-name="Group 167998">
              <g id="Group_167997" data-name="Group 167997" clip-path="url(#clip-path-8)">
                <g id="Group_160981" data-name="Group 160981">
                  <path id="Path_149556" data-name="Path 149556" d="M-726.074-435.766h14.141v-14.141h-14.141Z" fill="#fff"/>
                </g>
              </g>
            </g>
          </g>
        </g>
      </g>
    </g>
    <g id="undraw_doctors_hwty" data-name="undraw doctors hwty">
      <rect id="Rectangle_30522" data-name="Rectangle 30522" width="4.874" height="4.874" transform="translate(-681.631 -511.547)" fill="#54cad4" opacity="0.1"/>
      <rect id="Rectangle_30530" data-name="Rectangle 30530" width="4.874" height="4.874" transform="translate(-681.631 -499.525)" fill="#54cad4" opacity="0.1"/>
      <rect id="Rectangle_30532" data-name="Rectangle 30532" width="4.874" height="4.874" transform="translate(-681.631 -487.506)" fill="#54cad4" opacity="0.1"/>
      <rect id="Rectangle_30534" data-name="Rectangle 30534" width="4.874" height="4.874" transform="translate(-681.631 -475.485)" fill="#54cad4" opacity="0.1"/>
      <rect id="Rectangle_30536" data-name="Rectangle 30536" width="4.874" height="4.874" transform="translate(-681.631 -463.464)" fill="#54cad4" opacity="0.1"/>
      <path id="Path_155688" data-name="Path 155688" d="M-681.631-448.3v-3.143h4.872v2.7Z" fill="#54cad4" opacity="0.1"/>
      <path id="Path_155694" data-name="Path 155694" d="M-807.551-480.1c.045.055.086.117.129.171h.907v1.17l.293.343v-1.52h1.371v2.457h-.564c.055.057.108.117.171.171h10.424V-480.1Zm4.363,2.622h-1.371v-2.447h1.368Zm1.66,0H-802.9v-2.447h1.371Zm1.661,0h-1.371v-2.447h1.371Zm1.659,0h-1.372v-2.447h1.372Zm1.658,0h-1.371v-2.447h1.371Zm1.661,0h-1.372v-2.447h1.37Z" fill="#54cad4" opacity="0.1"/>
      <path id="Path_155695" data-name="Path 155695" d="M-798.4-471.979c.159.089.318.171.476.259v-.086h1.371v.773c.1.043.194.089.291.134v-.906h1.372v1.484a.48.48,0,0,0,.08.029v-1.687Z" fill="#54cad4" opacity="0.1"/>
      <ellipse id="Ellipse_2269" data-name="Ellipse 2269" cx="16.698" cy="2.682" rx="16.698" ry="2.682" transform="translate(-691.299 -429.298)" fill="#91d5db"/>
      <ellipse id="Ellipse_2270" data-name="Ellipse 2270" cx="16.698" cy="2.682" rx="16.698" ry="2.682" transform="translate(-766.604 -431.98)" fill="#91d5db"/>
      <path id="Path_155697" data-name="Path 155697" d="M-730.685-500.211a.09.09,0,0,0-.026-.045c-.255-.252-3.511-4.856-3.511-4.856s-.17-.514-.449-1.182a1.155,1.155,0,0,0,.2-.386,1.1,1.1,0,0,0,.033-.18c0-.019.014-.034.02-.053a1.312,1.312,0,0,0-.017-.706,1.291,1.291,0,0,1-.071.171,2.874,2.874,0,0,0-.256-.572c-.432-.744-1.05-1.371-1.5-2.1a5.675,5.675,0,0,1-.774-3.763v.2a5.894,5.894,0,0,1,.1-.771,5.307,5.307,0,0,1,.286-.847c.408-.934,1.068-1.748,1.469-2.685a5.171,5.171,0,0,0,.3-.982,5.513,5.513,0,0,0,.152-1.722,2.954,2.954,0,0,1-.043.41,5.582,5.582,0,0,0-1.576-3.713,9.272,9.272,0,0,0-5.333-2.241,4.886,4.886,0,0,1-2.245-.857,3.9,3.9,0,0,0-2.557-.488,4.22,4.22,0,0,0-2.6,1.287c-.913,1-1.309,2.426-2.375,3.273a10.483,10.483,0,0,1-2.217,1.1,2.976,2.976,0,0,0-1.705,1.607v.027l-.01.027a5.085,5.085,0,0,0,.485,2.677,10.809,10.809,0,0,1,.293,2.833c.019,1.158.036,2.319.017,3.479-.009.456-.024.917-.058,1.371a7.252,7.252,0,0,0-1.177.473,23.766,23.766,0,0,0-1.82,1.8l-2.809,10.731.038.043-.038.146.142-.033a14.465,14.465,0,0,0,2.867,2.409l.12,2.1a3.74,3.74,0,0,0,2.085,2.983c.045.732.183,3.7-.459,4.88a5.492,5.492,0,0,0-.607,2.79,9.461,9.461,0,0,1-.031,2.725,4.469,4.469,0,0,0-.033,1.912h0v.564c0,1.9.022,7.991,0,8.679-.033.814,0,12.852,0,12.852s-.159,6.017-.67,7.646-.382,7.026-.382,7.026-.32,6.428.812,7.7c0,.057-.01.115-.012.171v.081c-.014.488.081,1.008.5,1.167a7.173,7.173,0,0,1,2.2,1.6,4,4,0,0,0,3.085.8,23.44,23.44,0,0,1,3.066-.141h0s.641-.117.434-.913h0a7.134,7.134,0,0,0-.99-1.763c.065.017.129.031.189.043l.062.012h.048a.517.517,0,0,0,.079,0h.034a.552.552,0,0,0,.1,0h0a4.3,4.3,0,0,1,2.32,1.2,3.137,3.137,0,0,0,2.056.963,14.621,14.621,0,0,0,2.552-.161,9.213,9.213,0,0,0,1.429-.26c.226-.086.274-.36.209-.668h0a1.743,1.743,0,0,0-.592-1,4.807,4.807,0,0,1-.916-1.141l-.071-.115a27.069,27.069,0,0,0,1.6-2.255c.319-.375-.514-14.1-.514-14.1v-6.88l1.277-6.512.893-3.446.766-5.2s1.34-6.076.927-6.673h0c0-.012-.343-6.268-.7-7.771a17.018,17.018,0,0,1-.023-3.645.722.722,0,0,0,.171-.751,1.59,1.59,0,0,0-.1-.255v-.079a11.9,11.9,0,0,1,2.309-.785c1.277-.25.958-.908.958-.908s.288-.564.478-.908a19.888,19.888,0,0,0,0-3.635c-.012-.1-.091-.66-.182-1.294.41-.291.942-.653,1.523-1C-730.346-499.341-730.594-500.032-730.685-500.211Zm-16.656,43.445s-.958,2.444-.574,3.069-.063,2.947-.063,2.947l-.32,3.446s-.893,6.392-.574,7.895a53.248,53.248,0,0,1,.372,6.169h0a.612.612,0,0,0-.063.031l-.043.022c.147-.577.086-1.746-.646-4.1l-.062-9.711s-.113-11.217.773-12.472a9.437,9.437,0,0,0,1.2-3.384s-.192,3.073-.317,3.886a6.4,6.4,0,0,0,.316,2.2Zm-1.784,24.134c-.009.021-.019.041-.026.06l-.048-.062A.464.464,0,0,0-749.125-432.632Z" fill="url(#linear-gradient)"/>
      <path id="Path_155698" data-name="Path 155698" d="M-739.355-428.779a16.939,16.939,0,0,1-3.931.423,3.045,3.045,0,0,1-2.027-.968,4.174,4.174,0,0,0-2.293-1.2,1.541,1.541,0,0,1-.514-.072,6.34,6.34,0,0,1-.857-.329,1.57,1.57,0,0,1,.019-.651.975.975,0,0,1,.038-.127,1.135,1.135,0,0,1,.576-.641l.062-.029a1.739,1.739,0,0,1,.37-.113,50.48,50.48,0,0,1,6.9.26s.156.279.37.625a4.77,4.77,0,0,0,.9,1.148,1.762,1.762,0,0,1,.585,1.008C-739.084-429.14-739.132-428.866-739.355-428.779Z" fill="#fff"/>
      <path id="Path_155699" data-name="Path 155699" d="M-739.355-428.778a16.961,16.961,0,0,1-3.928.423,3.063,3.063,0,0,1-2.029-.968,4.185,4.185,0,0,0-2.291-1.2,3.96,3.96,0,0,1-1.371-.4,1.415,1.415,0,0,1,.281-1.153l.857.608s2.293.711,2.718,1.371A2.759,2.759,0,0,0-742.8-429a21.729,21.729,0,0,0,3.657-.434C-739.084-429.14-739.131-428.862-739.355-428.778Z" opacity="0.1"/>
      <path id="Path_155700" data-name="Path 155700" d="M-747.559-427.9a23.005,23.005,0,0,0-3.026.142,3.9,3.9,0,0,1-3.052-.8,7.155,7.155,0,0,0-2.175-1.611c-.415-.161-.514-.685-.5-1.176v-.081a4.854,4.854,0,0,1,.137-.92l6.668-.142.577.783.089.12.351.478s.159.209.368.514a7.32,7.32,0,0,1,.978,1.775h0C-746.925-428.022-747.559-427.9-747.559-427.9Z" fill="#fff"/>
      <path id="Path_155701" data-name="Path 155701" d="M-747.559-427.909a23.005,23.005,0,0,0-3.026.142,3.891,3.891,0,0,1-3.05-.8,6.952,6.952,0,0,0-2.175-1.607c-.416-.161-.515-.685-.5-1.176a3.809,3.809,0,0,1,1.869.891,4.055,4.055,0,0,0,2.743,1.844c1.056.057,3.626-.132,4.569-.207C-746.925-428.021-747.559-427.909-747.559-427.909Z" opacity="0.1"/>
      <path id="Path_155702" data-name="Path 155702" d="M-748.351-432.349c-.077.572-.315.727-.487.761a.338.338,0,0,1-.127,0,.371.371,0,0,1-.067-.01s-5.987,1.323-7.2.252a.723.723,0,0,1-.086-.089,4.7,4.7,0,0,1,.137-.92l6.667-.142.577.783a1.142,1.142,0,0,1,.576-.641Z" opacity="0.1"/>
      <path id="Path_155703" data-name="Path 155703" d="M-740.639-431.606c-.134.147-.245.231-.315.2-.315-.127-2.9-.567-3.72-.188s-3.6.062-3.6.062,0-.329-.016-.857a1.777,1.777,0,0,1,.37-.113,50.473,50.473,0,0,1,6.9.26S-740.849-431.952-740.639-431.606Z" opacity="0.1"/>
      <path id="Path_155704" data-name="Path 155704" d="M-736.73-470.368l-.757,5.233-.881,3.468-1.261,6.556v6.94s.819,13.808.5,14.185-1.513,2.524-1.828,2.4-2.9-.567-3.72-.19-3.6.063-3.6.063a66.581,66.581,0,0,0-.379-6.872c-.315-1.513.567-7.944.567-7.944l.315-3.467s.441-2.334.063-2.965.566-3.084.566-3.084a6.464,6.464,0,0,1-.314-2.209c.128-.819.314-3.909.314-3.909a9.62,9.62,0,0,1-1.189,3.4c-.876,1.259-.764,12.547-.764,12.547l.062,9.768c1.578,5.172,0,4.666,0,4.666s-5.987,1.325-7.2.252-.864-7.824-.864-7.824-.125-5.422.379-7.06.663-7.692.663-7.692-.033-12.107,0-12.924c.024-.685,0-6.822,0-8.74v-.567l.723-1.8,8.568-1.073h4.1s6.169,1.45,6.806,2.075a.151.151,0,0,1,.034.038C-735.405-476.482-736.73-470.368-736.73-470.368Z" fill="#54cad4"/>
      <path id="Path_155705" data-name="Path 155705" d="M-747.133-442.878s1.885,4.539,2.774,4.855S-747.133-442.878-747.133-442.878Z" opacity="0.1"/>
      <path id="Path_155706" data-name="Path 155706" d="M-746.435-436.2s6.364.315,6.3,1.009S-746.435-436.2-746.435-436.2Z" opacity="0.1"/>
      <path id="Path_155707" data-name="Path 155707" d="M-754.951-438.01c.253.238,4.855.685,4.477,1.121s-4.1,1.282-4.1,1.282Z" opacity="0.1"/>
      <path id="Path_155708" data-name="Path 155708" d="M-755.707-445.841a58.06,58.06,0,0,0,1.2,6.3,9.814,9.814,0,0,0,2.332.5Z" opacity="0.1"/>
      <path id="Path_155709" data-name="Path 155709" d="M-748.843-525.995c-.9,1.009-1.294,2.44-2.346,3.294a10.4,10.4,0,0,1-2.192,1.109,2.911,2.911,0,0,0-1.7,1.674,5.173,5.173,0,0,0,.48,2.692,11.2,11.2,0,0,1,.29,2.85c.017,1.167.036,2.334.015,3.5a10.141,10.141,0,0,1-1.146,5.261,40.782,40.782,0,0,0,10.842,1.4,10.9,10.9,0,0,0,2.106-.053,17.908,17.908,0,0,0,1.794-.454,13.733,13.733,0,0,1,3.575-.458,6,6,0,0,0,1.57-.1,1.55,1.55,0,0,0,1.133-1,1.853,1.853,0,0,0-.29-1.35c-.425-.747-1.028-1.371-1.484-2.108a5.791,5.791,0,0,1-.372-5.208c.4-.941,1.056-1.76,1.453-2.7a5.7,5.7,0,0,0-1.148-6.046,9.085,9.085,0,0,0-5.266-2.255,4.77,4.77,0,0,1-2.217-.857,3.8,3.8,0,0,0-2.526-.49,4.124,4.124,0,0,0-2.569,1.3Z" fill="#3f3d56"/>
      <g id="Group_167350" data-name="Group 167350" opacity="0.1">
        <path id="Path_155710" data-name="Path 155710" d="M-736.516-515.932a5.7,5.7,0,0,0-.438,2.617,5.622,5.622,0,0,1,.438-1.858c.4-.941,1.054-1.76,1.45-2.7a5.462,5.462,0,0,0,.4-2.488,5.317,5.317,0,0,1-.4,1.731C-735.462-517.69-736.114-516.873-736.516-515.932Z"/>
        <path id="Path_155711" data-name="Path 155711" d="M-754.261-514.609c.01.672.021,1.345.022,2.017q0-1.388-.022-2.773a11.159,11.159,0,0,0-.29-2.851,14.2,14.2,0,0,1-.515-1.772,5.935,5.935,0,0,0,.515,2.529A11.112,11.112,0,0,1-754.261-514.609Z"/>
        <path id="Path_155712" data-name="Path 155712" d="M-735.5-506.262a5.768,5.768,0,0,1-1.568.1,13.811,13.811,0,0,0-3.573.449,18.04,18.04,0,0,1-1.794.452,10.765,10.765,0,0,1-2.108.055,42.327,42.327,0,0,1-10.491-1.3,5.684,5.684,0,0,1-.343.651,40.864,40.864,0,0,0,10.84,1.4,10.762,10.762,0,0,0,2.108-.055,17.359,17.359,0,0,0,1.787-.451,13.8,13.8,0,0,1,3.566-.454,5.889,5.889,0,0,0,1.568-.106,1.548,1.548,0,0,0,1.133-.994,1.358,1.358,0,0,0-.017-.713A1.6,1.6,0,0,1-735.5-506.262Z"/>
      </g>
      <path id="Path_155713" data-name="Path 155713" d="M-740.575-508.292c-.127.284-.661,2.742-.787,2.994s-.819,4.284-.883,4.51-4.563-.946-4.563-.946l-2.709-2.271-2.786-2.771s-.082-2.5,1.969-3.3a3.226,3.226,0,0,1,.429-.134c2.488-.6,2.238-8.164,2.238-8.164l5.107,2.205a52.789,52.789,0,0,0-.913,5.266c.009.286.233.464.526.572a4.154,4.154,0,0,0,1.394.151S-740.447-508.575-740.575-508.292Z" fill="#fbbebe"/>
      <path id="Path_155714" data-name="Path 155714" d="M-731.433-500l.725.19s.536.816-.725,1.575a21.922,21.922,0,0,0-2.3,1.609l-3.727,1.134-.719-2.253,3.469-2.632Z" fill="#54cad4"/>
      <path id="Path_155715" data-name="Path 155715" d="M-731.433-500l.725.19s.536.816-.725,1.575a21.922,21.922,0,0,0-2.3,1.609l-3.727,1.134-.719-2.253,3.469-2.632Z" opacity="0.1"/>
      <path id="Path_155716" data-name="Path 155716" d="M-758.633-497.825l-1.45,1.419s2.615,3.026,4.627,3.215,3.309-2.3,3.309-2.3l-1.741-2.742Z" fill="#54cad4"/>
      <path id="Path_155717" data-name="Path 155717" d="M-758.633-497.825l-1.45,1.419s2.615,3.026,4.627,3.215,3.309-2.3,3.309-2.3l-1.741-2.742Z" opacity="0.1"/>
      <circle id="Ellipse_2271" data-name="Ellipse 2271" cx="5.043" cy="5.043" r="5.043" transform="translate(-749.906 -523.518)" opacity="0.1"/>
      <circle id="Ellipse_2272" data-name="Ellipse 2272" cx="5.043" cy="5.043" r="5.043" transform="translate(-749.906 -523.897)" fill="#fbbebe"/>
      <path id="Path_155718" data-name="Path 155718" d="M-735.814-476.515a16.3,16.3,0,0,0-3.374.756c-1.885.627-16.656.01-16.862,0v-.567l.723-1.8,8.567-1.073h4.1s6.169,1.45,6.807,2.075C-735.829-476.745-735.814-476.515-735.814-476.515Z" opacity="0.1"/>
      <path id="Path_155719" data-name="Path 155719" d="M-740.575-508.293c-.127.284-.661,2.742-.787,2.994s-.819,4.284-.883,4.51-4.563-.946-4.563-.946l-2.709-2.271-2.786-2.771s-.082-2.5,1.969-3.3l5.094,5.854,2.293-6.109a4.154,4.154,0,0,0,1.394.151S-740.447-508.575-740.575-508.293Z" opacity="0.1"/>
      <path id="Path_155720" data-name="Path 155720" d="M-745.241-504.034l-5.214-6a2.187,2.187,0,0,0-2.068-.152c-1.166.506-2.617.915-3,1.167a23.474,23.474,0,0,0-1.8,1.811l4.226,11.055-1.861,7.281s.284,3.72-.44,5.076a5.558,5.558,0,0,0-.6,2.8,9.761,9.761,0,0,1-.031,2.742,4.55,4.55,0,0,0-.033,1.923s14.975.631,16.865,0a16.168,16.168,0,0,1,3.374-.756s-.343-6.306-.685-7.819.284-7.281.284-7.281l-.41-6.179,2.457-6.34s-1.331-4.065-2.72-4.474a26.831,26.831,0,0,1-3.058-.883,10.752,10.752,0,0,0-2.113-.536l-.828.278Z" fill="#54cad4"/>
      <rect id="Rectangle_30538" data-name="Rectangle 30538" width="18.367" height="12.002" rx="2.94" transform="translate(-750.686 -481.024) rotate(-86.11)" opacity="0.1"/>
      <rect id="Rectangle_30539" data-name="Rectangle 30539" width="18.367" height="12.002" rx="2.94" transform="translate(-750.308 -481.4) rotate(-86.11)" fill="#3f3d56"/>
      <rect id="Rectangle_30540" data-name="Rectangle 30540" width="15.803" height="10.457" transform="translate(-749.457 -482.53) rotate(-86.11)" fill="#fff"/>
      <rect id="Rectangle_30541" data-name="Rectangle 30541" width="2.381" height="8.543" transform="translate(-747.576 -491.785) rotate(-85.996)" opacity="0.1"/>
      <rect id="Rectangle_30542" data-name="Rectangle 30542" width="1.241" height="1.355" transform="translate(-740.633 -482.978) rotate(-86.11)" opacity="0.1"/>
      <rect id="Rectangle_30543" data-name="Rectangle 30543" width="1.241" height="6.938" transform="translate(-747.537 -486.344) rotate(-86.11)" opacity="0.1"/>
      <rect id="Rectangle_30544" data-name="Rectangle 30544" width="1.907" height="7.225" transform="translate(-746.581 -496.764) rotate(-86.11)" fill="#3f3d56"/>
      <rect id="Rectangle_30545" data-name="Rectangle 30545" width="1.907" height="7.225" transform="translate(-746.581 -496.764) rotate(-86.11)" opacity="0.1"/>
      <path id="Path_155721" data-name="Path 155721" d="M-744.611-476.863s-.063,9.332-2.522,14.691c0,0,2.965-7.062,2.965-7.345s1.638-3.247,1.2-4.13S-744.611-476.863-744.611-476.863Z" opacity="0.1"/>
      <path id="Path_155722" data-name="Path 155722" d="M-744.477-520.114a3.507,3.507,0,0,1,.572-2.349,2.893,2.893,0,0,0,2.238,3.05.376.376,0,0,1-.108-.415,12.583,12.583,0,0,0,1.015,1.218,1.353,1.353,0,0,0,1.463.31c.635-.343.643-1.246.478-1.948a9.163,9.163,0,0,0-2.106-4.022,2.788,2.788,0,0,0-2.211-1.124,5.443,5.443,0,0,0-2.857.447,7.579,7.579,0,0,0-1.371.958l-2.4,1.957a2.267,2.267,0,0,0-.583.613,1.649,1.649,0,0,0-.182.643,3.459,3.459,0,0,0,1.614,3.268,2.554,2.554,0,0,1,1.53-2.4.667.667,0,0,1,.238.5l.506-.9a.986.986,0,0,1,.343-.406.9.9,0,0,1,.966.272,1.718,1.718,0,0,0,.881.581l.014-1.342" opacity="0.1"/>
      <path id="Path_155723" data-name="Path 155723" d="M-744.477-520.3a3.507,3.507,0,0,1,.571-2.351,2.9,2.9,0,0,0,2.24,3.05.373.373,0,0,1-.108-.413,12.74,12.74,0,0,0,1.018,1.218,1.345,1.345,0,0,0,1.462.308c.636-.343.643-1.246.478-1.947a9.163,9.163,0,0,0-2.106-4.022,3.393,3.393,0,0,0-1.177-.915,3.445,3.445,0,0,0-1.028-.209,5.432,5.432,0,0,0-2.857.446,7.635,7.635,0,0,0-1.371.96l-2.4,1.957a2.239,2.239,0,0,0-.583.613,1.648,1.648,0,0,0-.182.643,3.46,3.46,0,0,0,1.614,3.266,2.556,2.556,0,0,1,1.53-2.4.675.675,0,0,1,.238.5l.5-.9a.979.979,0,0,1,.343-.406.9.9,0,0,1,.966.272,1.727,1.727,0,0,0,.881.581l.014-1.344" fill="#3f3d56"/>
      <path id="Path_155724" data-name="Path 155724" d="M-742.088-488.493c-.44-.223-7.722.913-7.722.913q-2.03-.512-4.1-.819a3.675,3.675,0,0,1-3.084-3.311l-.317-5.674.978-.857,4.191,2.742a13.538,13.538,0,0,1,0,1.637,2.3,2.3,0,0,0-.141.514.169.169,0,0,0,.141.154c.284.072,4.161.7,4.161.7s8.985-.615,11.224,2.411a2.306,2.306,0,0,1,.4.747C-735.8-487.268-741.688-488.3-742.088-488.493Z" fill="#fbbebe"/>
      <path id="Path_155725" data-name="Path 155725" d="M-736.356-489.324c-.343.153-.555.262-.555.262a20.85,20.85,0,0,1-5.021-.749,11.789,11.789,0,0,0-4-.538s-7.526-1.3-6.359-2.987a.169.169,0,0,0,.141.154c.284.072,4.161.7,4.161.7s8.984-.615,11.224,2.411A2.3,2.3,0,0,1-736.356-489.324Z" opacity="0.1"/>
      <path id="Path_155726" data-name="Path 155726" d="M-733.226-499.308s.442,3.121.473,3.374a20.129,20.129,0,0,1,0,3.657c-.19.348-.473.913-.473.913s.315.661-.946.915a13.019,13.019,0,0,0-2.742,1.008,20.544,20.544,0,0,1-5.012-.756,11.582,11.582,0,0,0-4-.536s-9.553-1.64-5.454-3.641a6.31,6.31,0,0,1,7,.709l4.57-.283s1.7-1.042,2.176-.946a1.739,1.739,0,0,0,.977-.158l.033-3.311Z" fill="#fbbebe"/>
      <path id="Path_155727" data-name="Path 155727" d="M-756.405-506.968l-.916-.048-2.773,10.8s2.994-.757,4.284,0a10.4,10.4,0,0,0,3.657.913l-.883-8.606Z" opacity="0.1"/>
      <path id="Path_155728" data-name="Path 155728" d="M-756.405-507.158l-.916-.048-2.773,10.8s2.994-.757,4.284,0a10.4,10.4,0,0,0,3.657.913l-.883-8.606Z" fill="#54cad4"/>
      <path id="Path_155729" data-name="Path 155729" d="M-735.435-504.793l1.26.284s3.216,4.627,3.468,4.886-1.2,1.2-1.8,1.2-3.53.343-4.382,1.134-.5-3.192-.5-3.283,1.057-2.6,1.057-2.6Z" opacity="0.1"/>
      <path id="Path_155730" data-name="Path 155730" d="M-735.435-504.982l1.26.283s3.216,4.635,3.468,4.887-1.2,1.2-1.8,1.2-3.53.343-4.382,1.134-.5-3.192-.5-3.283,1.064-2.613,1.064-2.613Z" fill="#54cad4"/>
      <g id="Group_167351" data-name="Group 167351" opacity="0.1">
        <path id="Path_155731" data-name="Path 155731" d="M-743.915-522.639a2.471,2.471,0,0,1,.01-.394,3.51,3.51,0,0,0-.529,1.294v.478c0,.278,0,.557-.009.835h-.024v.129a.59.59,0,0,0-.009-.132,1.813,1.813,0,0,1-.842-.572c-.255-.23-.655-.449-.966-.272a.973.973,0,0,0-.343.406l-.509.9a.67.67,0,0,0-.238-.494,2.554,2.554,0,0,0-1.53,2.4,3.478,3.478,0,0,1-1.626-2.73,3.463,3.463,0,0,0,1.626,3.107,2.555,2.555,0,0,1,1.53-2.4.675.675,0,0,1,.238.5l.5-.9a.972.972,0,0,1,.343-.406.9.9,0,0,1,.966.272,1.727,1.727,0,0,0,.881.581q0-.657.014-1.313A3.486,3.486,0,0,1-743.915-522.639Z"/>
        <path id="Path_155732" data-name="Path 155732" d="M-744.494-520.913c.009-.117.022-.233.039-.343l.02-.473A3.493,3.493,0,0,0-744.494-520.913Z"/>
        <path id="Path_155733" data-name="Path 155733" d="M-739.295-518.869a1.348,1.348,0,0,1-1.462-.308,12.758,12.758,0,0,1-1.018-1.218.379.379,0,0,0,.108.415.4.4,0,0,1-.1-.026,11.466,11.466,0,0,0,1.009,1.2,1.359,1.359,0,0,0,1.462.308,1.4,1.4,0,0,0,.56-1.407A1.186,1.186,0,0,1-739.295-518.869Z"/>
        <path id="Path_155734" data-name="Path 155734" d="M-741.777-520.011a2.913,2.913,0,0,1-2.135-2.546,2.9,2.9,0,0,0,2.245,2.953A.378.378,0,0,1-741.777-520.011Z"/>
      </g>
      <path id="Path_155735" data-name="Path 155735" d="M-659.482-492s-.675-.094-.675-1.076a15.427,15.427,0,0,0-.483-2.821h0s-.418-3.2-1-3.707-1.318-3.486-1.318-3.486a7.083,7.083,0,0,0-.386-1.964,16.484,16.484,0,0,1-1.124-2.414c-.516-1.215-2.661-2.048-2.661-2.048s-3.888-2.255-4.99-2.99h0a1.608,1.608,0,0,1-.281-.212c-.193-.25-1.029-.255-1.029-.255a17.059,17.059,0,0,1-.2-1.762v-.185a5.923,5.923,0,0,0,2.606-3.225c.021-.065.039-.132.058-.2a.557.557,0,0,0,.343-.3,5.769,5.769,0,0,1,.224-.685,2.545,2.545,0,0,1,.633-.555,2.4,2.4,0,0,0,.66-1.952c-.017-.576-.11-1.155-.074-1.726a.7.7,0,0,1,.011-.144c.01-.084.021-.171.038-.254.084-.425.267-.826.37-1.247a1.607,1.607,0,0,0-.127-1.26,2.157,2.157,0,0,0-1.727-.685c-.728-.062-1.37.017-1.846-.588a6.445,6.445,0,0,0-.732-.884c-.1-.089-1.029-.66-1.029-.7a4.167,4.167,0,0,0-2.913-.224c-.485.141-.939.37-1.431.485-1.056.25-2.272-.021-3.17.584a3.752,3.752,0,0,0-1.081,1.419q-.342.656-.7,1.311a8.487,8.487,0,0,0-.924,2.243,3.885,3.885,0,0,0-.063.526h0v.272a1.079,1.079,0,0,0,.01.171c0,.036.007.071.012.106s.016.117.026.171.031.153.052.226a.315.315,0,0,0,.031.1c.01.033.038.115.06.171a.708.708,0,0,0,.038.089,1.376,1.376,0,0,0,.087.171c.013.022.024.045.038.067a1.806,1.806,0,0,0,.158.23c.365.458.906.749,1.306,1.177v.192A5.863,5.863,0,0,0-680-515.06c0,.065.009.132.012.2a9.823,9.823,0,0,1-.019,1.525.727.727,0,0,0-.569-.254.844.844,0,0,0-.219.019l-.015-.012h0v.015c-.377.093-.841.485-1.285,1.6,0,0-1.35,1.522-2.379,1.458s-3.631,1.585-3.631,1.585-2.54,1.647-3.085,3.326a23.386,23.386,0,0,1-1.1,2.79l-3.148,6.464h0l-.577,5.141a23.931,23.931,0,0,1,.257,2.63,25.206,25.206,0,0,0,1.318,3.486s4.563,8.016,6.428,8.428l.134-.093a1.12,1.12,0,0,0,.252.093l.384-.269a4.044,4.044,0,0,1-.031.9,23.848,23.848,0,0,0,.547,6.971c.449,1.013.29,14.293.29,14.293l-.063,1.17a.417.417,0,0,0,.015.1l-.015.278.046.024a3.327,3.327,0,0,1-.046,1.117,12.275,12.275,0,0,0-.226,1.966s-1.285,8.2-.675,9.853,1.126,3.455,1.126,3.455.643,2.056.031,2.4-2.344.951-1.991,1.806c.326.792,1.561,2.913,1.744,3.223l-.015.171-.252,2.73a3.377,3.377,0,0,0,.29,1.042,1.791,1.791,0,0,0,1.831,1.145c.171-.012.368-.031.562-.057a24.285,24.285,0,0,0,4.162-1.085,1.667,1.667,0,0,1-.324-.269h0a.943.943,0,0,1-.286-.685,19.925,19.925,0,0,0-1.135-3.45l-.053-.13s2.12-2.219,1.768-4.183c0,0-2.348-1.371-1.575-2.125a24.042,24.042,0,0,0,2.154-2.913s.062-8.08,0-9.284a10,10,0,0,1,.117-2.509c.026-.123.057-.245.089-.367a21.726,21.726,0,0,0,3.232.245q.594,0,1.2-.024c0,.114.005.238.015.37.089,2,.256,5.513.391,6.817.193,1.868,1.253,6.908,1.253,6.908s-2.024,1.3.354,4.5a4.346,4.346,0,0,1-.159,1.328h0a14.851,14.851,0,0,0-.406,1.674,2.959,2.959,0,0,0,.021,1.529c.386.757,2.7.7,2.7.7h0l.057-.009a3.3,3.3,0,0,1,2.449.737c.88.706,4.214.4,6.022.171.708-.091,1.181-.171,1.181-.171a.689.689,0,0,0,.024-.247h0c-.019-.444-.367-1.417-2.725-2.286,0,0-2.216-1.491-2.187-2.79h-.3c.161-.005.274-.005.274-.005s-.869-3.168-.514-3.427-.708-3.77-.708-3.77-.607-5.895-.643-6.306a3.67,3.67,0,0,1,.161-1.045l-.161-3.234s-.031-1.074,0-1.424a6.549,6.549,0,0,0-.072-.906c-.015-.12-.031-.245-.048-.368.831-.211,1.371-.4,1.371-.4l-.1-11.25c.706-1.371.836-4.38.833-6.512,0-1.371-.062-2.385-.062-2.385l.966-1.575s.223-1.885-.13-2.3a.4.4,0,0,1,.043-.54,1.794,1.794,0,0,1,.214-.151.208.208,0,0,1-.022-.038,1.728,1.728,0,0,1,.214-.153s-.343-.531-.036-.756c.288.2.545.351.74.463-.014.125-.027.2-.027.2l.082-.171.3.171a22.909,22.909,0,0,0,1.48-3.453,10.062,10.062,0,0,1,1.028-2.313,2.315,2.315,0,0,1,.708-1.4c.579-.411.449-3.391.449-3.391a7.274,7.274,0,0,1,.546-2.185C-658.752-491.143-659.482-492-659.482-492Zm-28.919-1.321.029.718-.295-.473Z" fill="url(#linear-gradient-2)"/>
      <path id="Path_155736" data-name="Path 155736" d="M-663.258-479.075l-.37,1.577s-2.965-1.517-3.5-3.436a2.176,2.176,0,0,1,.893-2.651l2.764,1.169Z" fill="#fff"/>
      <path id="Path_155737" data-name="Path 155737" d="M-663.258-479.075l-.37,1.577s-2.965-1.517-3.5-3.436a2.176,2.176,0,0,1,.893-2.651l2.764,1.169Z" opacity="0.1"/>
      <path id="Path_155738" data-name="Path 155738" d="M-679.9-425.42a21.32,21.32,0,0,1-4.628,1.134,1.758,1.758,0,0,1-1.8-1.138,3.472,3.472,0,0,1-.284-1.028l.247-2.716.131-1.445,4-1.042.567,1.736.052.13a20.227,20.227,0,0,1,1.115,3.427.936.936,0,0,0,.279.685A1.557,1.557,0,0,0-679.9-425.42Z" fill="#fff"/>
      <path id="Path_155739" data-name="Path 155739" d="M-661.176-426.8a.708.708,0,0,1-.024.247s-5.864.977-7.065,0a3.175,3.175,0,0,0-2.461-.725s-2.268.062-2.648-.685a2.967,2.967,0,0,1-.018-1.52,14.475,14.475,0,0,1,.4-1.666l.091-.072.54-.434,6.32-.187h.047c-.031,1.292,2.144,2.774,2.144,2.774C-661.536-428.212-661.194-427.244-661.176-426.8Z" fill="#fff"/>
      <path id="Path_155740" data-name="Path 155740" d="M-661.175-426.8a.686.686,0,0,1-.026.247s-5.864.977-7.062,0a3.177,3.177,0,0,0-2.462-.725s-2.271.062-2.649-.685a3,3,0,0,1-.018-1.522,5.646,5.646,0,0,1,2.794.826,6.236,6.236,0,0,0,3.057,1.64C-666.869-426.979-662.874-426.852-661.175-426.8Z" opacity="0.1"/>
      <path id="Path_155741" data-name="Path 155741" d="M-679.9-425.42a21.3,21.3,0,0,1-4.627,1.134,1.76,1.76,0,0,1-1.8-1.138,3.744,3.744,0,0,0,2.176.255,19.33,19.33,0,0,1,3.941-.514A1.553,1.553,0,0,0-679.9-425.42Z" opacity="0.1"/>
      <path id="Path_155742" data-name="Path 155742" d="M-675.827-506.627c-2.263-.879-5.172-3.784-4.446-5.141a3.073,3.073,0,0,0,.284-1.09,10.168,10.168,0,0,0,.021-1.542,21.377,21.377,0,0,0-.3-2.51s7.062.159,6.651,1.2a3.858,3.858,0,0,0-.106,1.427c.034.591.117,1.265.206,1.832.122.776.247,1.371.247,1.371s-.434.6-.685.637S-672.583-505.37-675.827-506.627Z" fill="#cf6f80"/>
      <path id="Path_155743" data-name="Path 155743" d="M-681.6-429.793l-.052.058c-2.112-2.553-4.664.631-4.664.631l-.039-.069.13-1.445,4-1.042.567,1.736Z" opacity="0.1"/>
      <path id="Path_155744" data-name="Path 155744" d="M-665.99-431.662a4.062,4.062,0,0,0-2.365.7c-.823.727-4.8.156-4.627,0a.61.61,0,0,0,.089-.262l.54-.434,6.32-.187C-666.009-431.729-665.99-431.662-665.99-431.662Z" opacity="0.1"/>
      <path id="Path_155745" data-name="Path 155745" d="M-678.981-451.714a4.906,4.906,0,0,0-.26.879,10.128,10.128,0,0,0-.118,2.495c.063,1.2,0,9.238,0,9.238a24.411,24.411,0,0,1-2.112,2.9c-.757.756,1.542,2.113,1.542,2.113.343,1.955-1.734,4.162-1.734,4.162-2.112-2.553-4.664.629-4.664.629s-1.388-2.4-1.735-3.256,1.355-1.448,1.954-1.8-.031-2.4-.031-2.4-.5-1.8-1.1-3.437.662-9.8.662-9.8a12.5,12.5,0,0,1,.221-1.957,3.337,3.337,0,0,0,.046-1.11c-.01-.125-.022-.228-.031-.3s-.015-.1-.015-.1l.023-.041.857-1.6S-678.569-452.72-678.981-451.714Z" fill="#54cad4"/>
      <path id="Path_155746" data-name="Path 155746" d="M-665.991-431.852a4.1,4.1,0,0,0-2.365.685c-.823.718-4.8.158-4.628,0s.157-1.323.157-1.323c-2.332-3.186-.344-4.478-.344-4.478s-1.039-5.012-1.229-6.872c-.132-1.3-.294-4.8-.382-6.781-.038-.857-.06-1.448-.06-1.448l1.888-.375.245-.048,4.6-.924s.127.857.212,1.558a6.623,6.623,0,0,1,.07.9c-.029.343,0,1.417,0,1.417l.158,3.215a3.746,3.746,0,0,0-.158,1.04c.033.411.631,6.274.631,6.274s1.04,3.5.685,3.751S-665.991-431.852-665.991-431.852Z" fill="#54cad4"/>
      <path id="Path_155747" data-name="Path 155747" d="M-673.621-515.705a3.857,3.857,0,0,0-.106,1.427,5.867,5.867,0,0,1-6.241-.117,21.379,21.379,0,0,0-.3-2.51S-673.21-516.746-673.621-515.705Z" opacity="0.1"/>
      <path id="Path_155748" data-name="Path 155748" d="M-670.9-519.489a5.864,5.864,0,0,1-5.76,5.965,5.863,5.863,0,0,1-5.965-5.759v-.206a5.864,5.864,0,0,1,5.864-5.864,5.865,5.865,0,0,1,5.864,5.864Z" fill="#cf6f80"/>
      <path id="Path_155749" data-name="Path 155749" d="M-675.827-506.626c-2.263-.879-5.172-3.784-4.446-5.141a3.074,3.074,0,0,0,.284-1.09l3.1,2.546,1.917,1.571,1.456-3.707c.122.776.247,1.371.247,1.371s-.434.6-.685.637S-672.583-505.367-675.827-506.626Z" opacity="0.1"/>
      <path id="Path_155750" data-name="Path 155750" d="M-667.819-495.373l-2.586,43.44-3.373.221-8.734-25.188,1.433-29.9.3-6.318,3.883,3.189,1.916,1.571,1.5-3.816,2.788,2.43Z" fill="#54cad4"/>
      <path id="Path_155751" data-name="Path 155751" d="M-678.981-451.713a4.907,4.907,0,0,0-.26.879,24.851,24.851,0,0,1-7.077-2.209l-.046-.024.015-.276v-.144l.857-1.6S-678.569-452.719-678.981-451.713Z" opacity="0.1"/>
      <path id="Path_155752" data-name="Path 155752" d="M-672.9-450.828a17.1,17.1,0,0,1-1.9.218c-.038-.857-.06-1.448-.06-1.448l1.9-.384Z" opacity="0.1"/>
      <path id="Path_155753" data-name="Path 155753" d="M-667.892-451.856a13.28,13.28,0,0,1-4.784.451l-.024-1.085,4.6-.924S-667.983-452.564-667.892-451.856Z" opacity="0.1"/>
      <path id="Path_155754" data-name="Path 155754" d="M-672.708-451.206c-7.026,1.2-13.46-2.24-13.46-2.24l.062-1.165s.159-13.21-.284-14.223a24.056,24.056,0,0,1-.536-6.925c.25-.783-.913-12.607-.913-12.607l-.188-4.8-6.9-2.805,3.085-6.431a23.108,23.108,0,0,0,1.073-2.776c.536-1.671,3.026-3.311,3.026-3.311s2.553-1.638,3.563-1.577,2.332-1.45,2.332-1.45c.977-2.49,1.861-1.371,1.861-1.371a2.075,2.075,0,0,1-.048.368c-.343,2.733,5.542,11.37,5.626,11.524h0l.567,13.651.567,17.275Z" opacity="0.1"/>
      <path id="Path_155755" data-name="Path 155755" d="M-672.9-451.206c-7.026,1.2-13.462-2.24-13.462-2.24l.063-1.165s.158-13.21-.284-14.223a23.96,23.96,0,0,1-.535-6.937c.252-.79-.919-12.6-.919-12.6l-.19-4.8-6.9-2.805,3.085-6.431a23.661,23.661,0,0,0,1.073-2.774c.536-1.666,3.035-3.307,3.035-3.307s2.552-1.638,3.56-1.577,2.337-1.448,2.337-1.448c.979-2.49,2.056-1.371,2.056-1.371,0,.12-.1.171-.047.368.754,2.651,5.353,11.37,5.437,11.524h0l.567,13.651.555,17.284Z" fill="#fff"/>
      <path id="Path_155756" data-name="Path 155756" d="M-674.79-500.606c-.756-.315-4.759-4.886-4.759-4.886v-1.04c-.145-.343-1.013-.134-1.713.106l.3-6.318.344.284C-679.872-509.814-674.872-500.759-674.79-500.606Z" opacity="0.1"/>
      <path id="Path_155757" data-name="Path 155757" d="M-674.6-500.984c-.758-.317-4.761-4.886-4.761-4.886v-1.042c-.145-.343-1.01-.134-1.713.106l.3-6.311.344.283C-679.682-510.187-674.682-501.138-674.6-500.984Z" fill="#fff"/>
      <path id="Path_155758" data-name="Path 155758" d="M-686.168-478.192c.094,0,4.886-.5,4.886-.5s2.9,5.706,2.711,7.093-.535,2.617-1.7,2.4a51.829,51.829,0,0,0-6.28.171Z" opacity="0.1"/>
      <path id="Path_155759" data-name="Path 155759" d="M-686.358-478.571c.1,0,4.887-.5,4.887-.5s2.9,5.715,2.711,7.086-.536,2.617-1.7,2.4a51.84,51.84,0,0,0-6.281.171Z" fill="#fff"/>
      <path id="Path_155760" data-name="Path 155760" d="M-682.748-481.243s4.4,2.365,4.491,3.085-2.237-.315-2.742-.442a6.609,6.609,0,0,0-1.008-.158l-3.36.091Z" fill="#cf6f80"/>
      <circle id="Ellipse_2273" data-name="Ellipse 2273" cx="0.463" cy="0.463" r="0.463" transform="translate(-676.48 -501.237)" opacity="0.1"/>
      <circle id="Ellipse_2274" data-name="Ellipse 2274" cx="0.463" cy="0.463" r="0.463" transform="translate(-676.48 -501.426)" fill="#3f3d56"/>
      <circle id="Ellipse_2275" data-name="Ellipse 2275" cx="0.463" cy="0.463" r="0.463" transform="translate(-675.628 -481.209)" opacity="0.1"/>
      <circle id="Ellipse_2276" data-name="Ellipse 2276" cx="0.463" cy="0.463" r="0.463" transform="translate(-675.628 -481.399)" fill="#3f3d56"/>
      <circle id="Ellipse_2277" data-name="Ellipse 2277" cx="0.463" cy="0.463" r="0.463" transform="translate(-676.018 -491.223)" opacity="0.1"/>
      <circle id="Ellipse_2278" data-name="Ellipse 2278" cx="0.463" cy="0.463" r="0.463" transform="translate(-676.018 -491.411)" fill="#3f3d56"/>
      <path id="Path_155761" data-name="Path 155761" d="M-664.89-478.857s.315.473,0,.685.031.757.031.757-.787.459-.44.876.127,2.286.127,2.286l-.946,1.575s.057,1.009.06,2.373c0,2.128-.125,5.12-.817,6.484l.093,11.192a15.189,15.189,0,0,1-6.085.841l-.411-17.959s.6-10.184.82-12.138a20.311,20.311,0,0,0,.159-3.059,34.23,34.23,0,0,0-.411-4.474s-.344-6.148-.378-7.85c-.015-.814.027-3.189.076-5.448.052-2.469.112-4.8.112-4.8l-.625-4.951s.625-.062.815.188a1.8,1.8,0,0,0,.273.211h0c1.081.73,4.9,2.975,4.9,2.975s2.111.84,2.617,2.043a17.626,17.626,0,0,0,1.1,2.4,7.452,7.452,0,0,1,.379,1.954s.727,2.965,1.294,3.467.975,3.689.975,3.689l-5.013,3.941s-.44,6.556-.534,6.81S-664.89-478.857-664.89-478.857Z" fill="#fff"/>
      <path id="Path_155762" data-name="Path 155762" d="M-664.7-478.854s.314.473,0,.685.029.757.029.757-.787.459-.44.876.127,2.286.127,2.286l-.943,1.575s.057,1.009.062,2.373c0,2.128-.125,5.12-.817,6.484l.094,11.192a15.188,15.188,0,0,1-6.085.841l-.41-17.959s.6-10.184.821-12.138a20.318,20.318,0,0,0,.156-3.059,34.41,34.41,0,0,0-.41-4.474s-.343-6.148-.379-7.85c-.015-.814.027-3.189.075-5.448.053-2.469.113-4.8.113-4.8l-.826-5.017s.826,0,1.016.255a1.561,1.561,0,0,0,.274.211h0c1.08.73,4.894,2.975,4.894,2.975s2.106.84,2.62,2.043a18.979,18.979,0,0,0,1.1,2.4,7.406,7.406,0,0,1,.38,1.954s.726,2.965,1.294,3.467.977,3.689.977,3.689l-5.013,3.941s-.44,6.556-.536,6.81S-664.7-478.854-664.7-478.854Z" fill="#fff"/>
      <path id="Path_155763" data-name="Path 155763" d="M-670.7-506.055l.453,1.319-2.383,2.4c.052-2.469.112-4.8.112-4.8l-.826-5.016s.826,0,1.016.255a1.642,1.642,0,0,0,.274.211h0l2.026,5.842Z" opacity="0.1"/>
      <path id="Path_155764" data-name="Path 155764" d="M-670.9-506.433l.454,1.318-2.382,2.4c.051-2.469.113-4.8.113-4.8l-.828-5.017s.828,0,1.016.255a1.7,1.7,0,0,0,.274.211h0l2.038,5.847Z" fill="#fff"/>
      <path id="Path_155765" data-name="Path 155765" d="M-670.9-519.489a5.843,5.843,0,0,1-.289,1.818.24.24,0,0,1-.185-.045,7.585,7.585,0,0,0-1.732-4.227,4.5,4.5,0,0,0-.943-.977,1.848,1.848,0,0,0-1.278-.362c-.514.07-.969.42-1.487.464-.685.057-1.3-.418-1.979-.44a1.944,1.944,0,0,0-1.456.675,3.988,3.988,0,0,0-.78,1.445,8.509,8.509,0,0,0-.435,2.5c-.009.48-.055,1.081-.5,1.256a2.551,2.551,0,0,0-.646-1.954l-.01-.012v-.141a5.865,5.865,0,0,1,5.864-5.864,5.864,5.864,0,0,1,5.864,5.864Z" opacity="0.1"/>
      <path id="Path_155766" data-name="Path 155766" d="M-674.324-528.8a4.038,4.038,0,0,0-2.848-.223c-.475.141-.922.368-1.4.483-1.028.248-2.228-.021-3.11.581a3.726,3.726,0,0,0-1.059,1.412l-.685,1.3a8.505,8.505,0,0,0-.906,2.228,2.853,2.853,0,0,0,.437,2.3c.362.459.9.749,1.294,1.182a2.567,2.567,0,0,1,.644,1.959c.445-.171.49-.776.5-1.256a8.507,8.507,0,0,1,.435-2.5,3.988,3.988,0,0,1,.78-1.445,1.946,1.946,0,0,1,1.455-.677c.685.024,1.3.5,1.979.44.514-.043.97-.392,1.487-.463a1.834,1.834,0,0,1,1.278.362,4.383,4.383,0,0,1,.941.977,7.546,7.546,0,0,1,1.739,4.224c.194.141.473-.045.569-.264a6.593,6.593,0,0,1,.221-.685,2.554,2.554,0,0,1,.62-.553,2.423,2.423,0,0,0,.648-1.942,9.671,9.671,0,0,1-.024-2.111c.081-.423.262-.823.362-1.242a1.624,1.624,0,0,0-.123-1.253,2.115,2.115,0,0,0-1.693-.685c-.715-.062-1.354.017-1.81-.584a6.741,6.741,0,0,0-.719-.881C-673.411-528.2-674.324-528.761-674.324-528.8Z" fill="#512e4e"/>
      <path id="Path_155767" data-name="Path 155767" d="M-692.954-492.662l-1.786-3.309-.567,5.107a23.441,23.441,0,0,1,.252,2.617,25.149,25.149,0,0,0,1.292,3.467s4.478,7.977,6.306,8.386l6.169-4.414-1.638-2.08s-.567-.221-.709,0c0,0-3.043-5.233-3.356-5.61a1.913,1.913,0,0,1-.255-1.136s-.473-.5-.315-.977-.9-2.111-.9-2.111l.977-.913Z" opacity="0.1"/>
      <path id="Path_155768" data-name="Path 155768" d="M-694.649-496.35l-.473.379-.567,5.107a23.426,23.426,0,0,1,.252,2.617,25.294,25.294,0,0,0,1.294,3.467s4.476,7.977,6.3,8.386l6.179-4.414-1.64-2.08s-.567-.221-.709,0c0,0-3.042-5.233-3.357-5.61a1.9,1.9,0,0,1-.252-1.136s-.473-.5-.315-.977-.915-2.111-.915-2.111l.977-.913Z" fill="#fff"/>
      <path id="Path_155769" data-name="Path 155769" d="M-665.3-476.339c.343.416.127,2.288.127,2.288l-.946,1.565s.057,1.011.06,2.375l-1.59.5a.946.946,0,0,1-1.185-.621.938.938,0,0,1-.042-.311l.276-8.842,3.71,1.417c-.315.219.031.757.031.757S-665.645-476.755-665.3-476.339Z" opacity="0.1"/>
      <path id="Path_155770" data-name="Path 155770" d="M-665.11-476.527c.343.415.127,2.286.127,2.286l-.942,1.566s.057,1.009.062,2.373l-1.619.506a.925.925,0,0,1-1.159-.605.925.925,0,0,1-.041-.3l.276-8.873,3.708,1.421c-.317.219.029.757.029.757S-665.456-476.943-665.11-476.527Z" fill="#fff"/>
      <path id="Path_155771" data-name="Path 155771" d="M-663.88-480.746s-.252,1.609-.883,1.7-.913,2.6-1.542,2.516-.213-2.334-.19-2.769-.685-2.238-.158-2.648,2.206,0,2.206,0Z" fill="#cf6f80"/>
      <path id="Path_155772" data-name="Path 155772" d="M-662.547-493.134l1.188-2.4a15.6,15.6,0,0,1,.474,2.8c0,.977.662,1.073.662,1.073s.724.857.343,1.482a7.145,7.145,0,0,0-.535,2.175s.125,2.963-.442,3.372a2.322,2.322,0,0,0-.694,1.388,10.048,10.048,0,0,0-1.008,2.3,22.876,22.876,0,0,1-1.45,3.436s.725-3.72-3.5-5.328c0,0-.033-1.261.283-1.607s.807-.514.5-2.255a20.428,20.428,0,0,1-.089-4.26,26.67,26.67,0,0,1,.946-3.036Z" opacity="0.1"/>
      <path id="Path_155773" data-name="Path 155773" d="M-662.02-495.877l1.039.343a15.594,15.594,0,0,1,.474,2.8c0,.977.661,1.073.661,1.073s.725.857.344,1.482a7.148,7.148,0,0,0-.536,2.175s.127,2.963-.44,3.372a2.3,2.3,0,0,0-.685,1.388,10.048,10.048,0,0,0-1.008,2.3,22.982,22.982,0,0,1-1.451,3.436s.724-3.72-3.5-5.328c0,0-.031-1.261.284-1.607s.807-.514.5-2.255a20.358,20.358,0,0,1-.089-4.26,26.489,26.489,0,0,1,.946-3.037Z" fill="#fff"/>
      <path id="Path_155774" data-name="Path 155774" d="M-684.962-433.7s1.656-1.04,2.742-.284S-684.962-433.7-684.962-433.7Z" opacity="0.1"/>
      <path id="Path_155775" data-name="Path 155775" d="M-672.1-436.912a3.355,3.355,0,0,1,2.7,1.136C-668.169-434.451-672.1-436.912-672.1-436.912Z" opacity="0.1"/>
      <g id="Group_167352" data-name="Group 167352" opacity="0.1">
        <path id="Path_155776" data-name="Path 155776" d="M-669.954-519.784a2.568,2.568,0,0,0-.622.553,6.343,6.343,0,0,0-.219.685c-.1.221-.375.4-.571.264a7.576,7.576,0,0,0-1.741-4.223,4.391,4.391,0,0,0-.94-.975,1.849,1.849,0,0,0-1.281-.363c-.514.07-.966.42-1.486.464-.685.057-1.3-.418-1.981-.44a1.938,1.938,0,0,0-1.453.675,3.99,3.99,0,0,0-.78,1.445,8.51,8.51,0,0,0-.435,2.5c-.01.478-.055,1.074-.5,1.253a2.217,2.217,0,0,1,0,.382c.447-.171.492-.776.5-1.256a8.511,8.511,0,0,1,.435-2.5,3.99,3.99,0,0,1,.78-1.445,1.945,1.945,0,0,1,1.453-.677c.685.024,1.3.5,1.981.44.514-.043.97-.392,1.486-.463a1.844,1.844,0,0,1,1.281.362,4.4,4.4,0,0,1,.94.977,7.554,7.554,0,0,1,1.738,4.224c.2.141.475-.045.571-.264a6.808,6.808,0,0,1,.219-.685,2.562,2.562,0,0,1,.622-.553,2.419,2.419,0,0,0,.648-1.942v-.065A2.255,2.255,0,0,1-669.954-519.784Z"/>
        <path id="Path_155777" data-name="Path 155777" d="M-682.607-519.9c-.392-.434-.93-.725-1.292-1.184a2.487,2.487,0,0,1-.5-1.4,2.645,2.645,0,0,0,.5,1.78c.362.459.9.749,1.292,1.182a2.562,2.562,0,0,1,.648,1.529A2.566,2.566,0,0,0-682.607-519.9Z"/>
        <path id="Path_155778" data-name="Path 155778" d="M-668.974-525.079c-.1.42-.281.819-.362,1.242a3.874,3.874,0,0,0-.053.867,3.206,3.206,0,0,1,.053-.488c.081-.423.262-.823.362-1.242a2.115,2.115,0,0,0,.057-.709A2.3,2.3,0,0,1-668.974-525.079Z"/>
      </g>
      <ellipse id="Ellipse_2279" data-name="Ellipse 2279" cx="16.698" cy="2.682" rx="16.698" ry="2.682" transform="translate(-819.255 -433.409)" fill="#91d5db"/>
      <rect id="Rectangle_30546" data-name="Rectangle 30546" width="1.074" height="24.191" transform="translate(-803.093 -482.103)" fill="#535461"/>
      <path id="Path_155779" data-name="Path 155779" d="M-795.265-457.984l-.069,1.09-.1,1.542-.039.641-.1,1.542-.041.641-.094,1.542-1.085,17.491a2.959,2.959,0,0,1-2.956,2.78h-5.631a2.96,2.96,0,0,1-2.956-2.791L-809.416-451l-.094-1.542-.039-.641-.1-1.542-.039-.641-.094-1.542-.069-1.09a1.542,1.542,0,0,1,1.452-1.627l.08,0H-796.8a1.542,1.542,0,0,1,1.534,1.551c0,.03,0,.061,0,.091Z" fill="#3f3d56"/>
      <path id="Path_155780" data-name="Path 155780" d="M-795.333-456.9l-.1,1.539h-14.25l-.1-1.539Z" fill="#9d9cb5"/>
      <path id="Path_155781" data-name="Path 155781" d="M-795.47-454.716l-.094,1.539h-13.984l-.1-1.539Z" fill="#9d9cb5"/>
      <path id="Path_155782" data-name="Path 155782" d="M-795.6-452.535-795.7-451h-13.715l-.1-1.537Z" fill="#9d9cb5"/>
      <path id="Path_155783" data-name="Path 155783" d="M-811.412-473.035a27.908,27.908,0,0,1,8.865,11.608,27.886,27.886,0,0,1-13.8-4.786,27.9,27.9,0,0,1-8.87-11.6A27.9,27.9,0,0,1-811.412-473.035Z" fill="#54cad4"/>
      <path id="Path_155784" data-name="Path 155784" d="M-825.217-477.816s7.826,4.344,10.337,7.941,12.322,8.452,12.322,8.452" fill="none" stroke="#535461" stroke-miterlimit="10" stroke-width="2"/>
      <path id="Path_155785" data-name="Path 155785" d="M-807.381-482.154a15.159,15.159,0,0,1,4.826,6.316,13.786,13.786,0,0,1-12.337-8.921A15.181,15.181,0,0,1-807.381-482.154Z" fill="#54cad4"/>
      <path id="Path_155786" data-name="Path 155786" d="M-814.892-484.759s4.26,2.365,5.628,4.322,6.709,4.6,6.709,4.6" fill="none" stroke="#535461" stroke-miterlimit="10" stroke-width="2"/>
      <path id="Path_155787" data-name="Path 155787" d="M-797.606-476.033a20.992,20.992,0,0,0-4.74,9.918,19.071,19.071,0,0,0,14.165-15.573A21.01,21.01,0,0,0-797.606-476.033Z" fill="#54cad4"/>
      <path id="Path_155788" data-name="Path 155788" d="M-788.177-481.687s-5.1,4.407-6.392,7.444-7.776,8.128-7.776,8.128" fill="none" stroke="#535461" stroke-miterlimit="10" stroke-width="2"/>
    </g>
  </g>
</svg>
