<svg id="card-1" xmlns="http://www.w3.org/2000/svg" xmlns:xlink="http://www.w3.org/1999/xlink" width="262" height="196" viewBox="0 0 262 196">
  <defs>
    <clipPath id="clip-path">
      <path id="Path_158035" data-name="Path 158035" d="M214.057,154.5H61.19c-50.2,0-55.489-94.562,6.625-109.482,62.1-14.708,73.453,43.433,116.109,35.021C248.2,67.613,254.5,154.5,214.057,154.5Z" fill="none"/>
    </clipPath>
    <clipPath id="clip-path-2">
      <rect id="Rectangle_30793" data-name="Rectangle 30793" width="1258.264" height="802.822" transform="translate(-269.467 -556.348)" fill="none"/>
    </clipPath>
    <clipPath id="clip-path-3">
      <rect id="Rectangle_30792" data-name="Rectangle 30792" width="245.784" height="126.205" transform="translate(16.545 37.763)" fill="none"/>
    </clipPath>
    <clipPath id="clip-path-4">
      <rect id="Rectangle_30770" data-name="Rectangle 30770" width="218.651" height="112.638" transform="translate(21.594 41.865)" fill="none"/>
    </clipPath>
    <clipPath id="clip-path-5">
      <path id="Path_158014" data-name="Path 158014" d="M18.123,88.876H90.059a1.579,1.579,0,0,1,1.579,1.577v71.938a1.577,1.577,0,0,1-1.577,1.579H18.123a1.578,1.578,0,0,1-1.578-1.579V90.455A1.58,1.58,0,0,1,18.123,88.876Z" fill="none"/>
    </clipPath>
    <clipPath id="clip-path-7">
      <path id="Path_158015" data-name="Path 158015" d="M138.173,122.951h37.233a3.942,3.942,0,0,1,3.942,3.941v0a3.942,3.942,0,0,1-3.94,3.944H138.173a3.944,3.944,0,0,1,0-7.888Z" fill="none"/>
    </clipPath>
    <clipPath id="clip-path-8">
      <rect id="Rectangle_30772" data-name="Rectangle 30772" width="218.651" height="112.638" transform="translate(21.594 41.864)" fill="none"/>
    </clipPath>
    <clipPath id="clip-path-9">
      <path id="Path_158016" data-name="Path 158016" d="M139.751,86.667h37.232a3.943,3.943,0,0,1,3.943,3.943h0a3.943,3.943,0,0,1-3.943,3.943H139.751a3.944,3.944,0,0,1,0-7.887Z" fill="none"/>
    </clipPath>
    <clipPath id="clip-path-10">
      <rect id="Rectangle_30773" data-name="Rectangle 30773" width="218.651" height="112.638" transform="translate(21.595 41.864)" fill="none"/>
    </clipPath>
    <clipPath id="clip-path-11">
      <path id="Path_158017" data-name="Path 158017" d="M138.173,135.572h37.233a3.942,3.942,0,0,1,3.942,3.941v0a3.942,3.942,0,0,1-3.94,3.944H138.173a3.944,3.944,0,0,1,0-7.888Z" fill="none"/>
    </clipPath>
    <clipPath id="clip-path-13">
      <path id="Path_158018" data-name="Path 158018" d="M139.751,99.288h37.232a3.943,3.943,0,0,1,3.943,3.943h0a3.943,3.943,0,0,1-3.943,3.943H139.751a3.944,3.944,0,0,1,0-7.887Z" fill="none"/>
    </clipPath>
    <clipPath id="clip-path-14">
      <rect id="Rectangle_30775" data-name="Rectangle 30775" width="218.651" height="112.638" transform="translate(21.595 41.865)" fill="none"/>
    </clipPath>
    <clipPath id="clip-path-15">
      <path id="Path_158019" data-name="Path 158019" d="M139.751,50.383h37.232a3.943,3.943,0,0,1,3.943,3.943h0a3.943,3.943,0,0,1-3.942,3.944H139.751a3.944,3.944,0,0,1-3.942-3.944h0A3.944,3.944,0,0,1,139.751,50.383Z" fill="none"/>
    </clipPath>
    <clipPath id="clip-path-17">
      <path id="Path_158020" data-name="Path 158020" d="M139.751,63h37.232a3.943,3.943,0,0,1,3.943,3.943h0a3.943,3.943,0,0,1-3.942,3.944H139.751a3.944,3.944,0,0,1-3.942-3.944h0A3.944,3.944,0,0,1,139.751,63Z" fill="none"/>
    </clipPath>
    <clipPath id="clip-path-19">
      <path id="Path_158021" data-name="Path 158021" d="M114.512,75.625A14.985,14.985,0,0,0,129.5,60.64h0a14.986,14.986,0,0,0-14.986-14.986h0A14.986,14.986,0,0,0,99.525,60.639h0a14.986,14.986,0,0,0,14.986,14.986Z" fill="none"/>
    </clipPath>
    <clipPath id="clip-path-21">
      <path id="Path_158022" data-name="Path 158022" d="M114.512,111.909A14.986,14.986,0,0,0,129.5,96.922h0a14.986,14.986,0,0,0-14.986-14.986h0A14.986,14.986,0,0,0,99.525,96.922h0a14.986,14.986,0,0,0,14.985,14.987Z" fill="none"/>
    </clipPath>
    <clipPath id="clip-path-23">
      <path id="Path_158023" data-name="Path 158023" d="M114.512,148.193A14.986,14.986,0,0,0,129.5,133.206h0a14.986,14.986,0,0,0-14.986-14.986h0a14.986,14.986,0,0,0-14.987,14.986h0a14.986,14.986,0,0,0,14.985,14.987Z" fill="none"/>
    </clipPath>
    <clipPath id="clip-path-25">
      <path id="Path_158024" data-name="Path 158024" d="M18.123,37.763H90.059a1.577,1.577,0,0,1,1.579,1.575V82.566a1.577,1.577,0,0,1-1.579,1.577H18.123a1.578,1.578,0,0,1-1.578-1.577V39.34A1.578,1.578,0,0,1,18.123,37.763Z" fill="none"/>
    </clipPath>
    <clipPath id="clip-path-27">
      <path id="Path_158025" data-name="Path 158025" d="M188.816,109.384h71.936a1.577,1.577,0,0,1,1.577,1.577h0V158.6a1.576,1.576,0,0,1-1.576,1.578H188.816a1.578,1.578,0,0,1-1.579-1.576V110.961a1.578,1.578,0,0,1,1.579-1.577Z" fill="none"/>
    </clipPath>
    <clipPath id="clip-path-29">
      <path id="Path_158026" data-name="Path 158026" d="M188.816,47.859h71.936a1.577,1.577,0,0,1,1.577,1.577h0v53.638a1.578,1.578,0,0,1-1.576,1.579H188.816a1.579,1.579,0,0,1-1.579-1.577V49.436a1.578,1.578,0,0,1,1.579-1.577Z" fill="none"/>
    </clipPath>
    <clipPath id="clip-path-31">
      <path id="Path_158027" data-name="Path 158027" d="M20.8,96.764h59a3.943,3.943,0,0,1,3.944,3.94v0a3.945,3.945,0,0,1-3.944,3.944h-59a3.944,3.944,0,0,1,0-7.888Z" fill="none"/>
    </clipPath>
    <clipPath id="clip-path-33">
      <path id="Path_158028" data-name="Path 158028" d="M20.8,109.384h59a3.943,3.943,0,0,1,3.944,3.94v0a3.945,3.945,0,0,1-3.944,3.944h-59a3.944,3.944,0,0,1,0-7.888Z" fill="none"/>
    </clipPath>
    <clipPath id="clip-path-35">
      <path id="Path_158029" data-name="Path 158029" d="M20.8,122h59a3.943,3.943,0,0,1,3.944,3.943h0a3.945,3.945,0,0,1-3.944,3.945h-59a3.945,3.945,0,0,1,0-7.889Z" fill="none"/>
    </clipPath>
    <clipPath id="clip-path-37">
      <path id="Path_158030" data-name="Path 158030" d="M20.8,134.625h59a3.943,3.943,0,0,1,3.944,3.943h0a3.945,3.945,0,0,1-3.944,3.945h-59a3.945,3.945,0,0,1,0-7.889Z" fill="none"/>
    </clipPath>
    <clipPath id="clip-path-39">
      <path id="Path_158031" data-name="Path 158031" d="M20.8,147.246h59a3.943,3.943,0,0,1,3.944,3.943h0a3.945,3.945,0,0,1-3.944,3.945h-59a3.944,3.944,0,0,1,0-7.889Z" fill="none"/>
    </clipPath>
    <clipPath id="clip-path-41">
      <path id="Path_158032" data-name="Path 158032" d="M27.114,43.127H79.806a3.944,3.944,0,0,1,0,7.887H27.114a3.943,3.943,0,0,1-3.943-3.941v0a3.942,3.942,0,0,1,3.941-3.944Z" fill="none"/>
    </clipPath>
    <clipPath id="clip-path-43">
      <path id="Path_158033" data-name="Path 158033" d="M27.114,55.747H79.806a3.944,3.944,0,0,1,0,7.888H27.114a3.943,3.943,0,0,1-3.943-3.941v0a3.942,3.942,0,0,1,3.941-3.944Z" fill="none"/>
    </clipPath>
    <clipPath id="clip-path-45">
      <path id="Path_158034" data-name="Path 158034" d="M27.114,68.368H79.806a3.945,3.945,0,0,1,0,7.889H27.114a3.943,3.943,0,0,1-3.943-3.943v0a3.942,3.942,0,0,1,3.941-3.944Z" fill="none"/>
    </clipPath>
    <linearGradient id="linear-gradient" x1="-4.556" y1="2.637" x2="-4.556" y2="2.646" gradientUnits="objectBoundingBox">
      <stop offset="0" stop-color="gray" stop-opacity="0.251"/>
      <stop offset="0.54" stop-color="gray" stop-opacity="0.122"/>
      <stop offset="1" stop-color="gray" stop-opacity="0.102"/>
    </linearGradient>
    <linearGradient id="linear-gradient-2" x1="-3.032" y1="3.657" x2="-3.032" y2="3.67" xlink:href="#linear-gradient"/>
  </defs>
  <rect id="Rectangle_29293" data-name="Rectangle 29293" width="262" height="196" fill="#a1dbf8"/>
  <g id="Group_167335" data-name="Group 167335">
    <g id="Group_167724" data-name="Group 167724">
      <g id="Group_167723" data-name="Group 167723" clip-path="url(#clip-path)">
        <g id="Group_167233" data-name="Group 167233">
          <g id="Group_167722" data-name="Group 167722">
            <g id="Group_167721" data-name="Group 167721" clip-path="url(#clip-path-2)">
              <g id="Group_167232" data-name="Group 167232">
                <g id="Group_167720" data-name="Group 167720">
                  <g id="Group_167719" data-name="Group 167719" clip-path="url(#clip-path-3)">
                    <g id="Group_167231" data-name="Group 167231">
                      <g id="Group_167634" data-name="Group 167634">
                        <g id="Group_167633" data-name="Group 167633" clip-path="url(#clip-path-4)">
                          <g id="Group_167188" data-name="Group 167188">
                            <path id="Path_154314" data-name="Path 154314" d="M21.594,155.292H240.245V41.835H21.594Z" fill="#bde8fe"/>
                          </g>
                        </g>
                      </g>
                      <g id="Group_167638" data-name="Group 167638">
                        <g id="Group_167637" data-name="Group 167637" clip-path="url(#clip-path-5)">
                          <g id="Group_167190" data-name="Group 167190">
                            <g id="Group_167636" data-name="Group 167636">
                              <g id="Group_167635" data-name="Group 167635" clip-path="url(#clip-path-4)">
                                <g id="Group_167189" data-name="Group 167189">
                                  <path id="Path_154316" data-name="Path 154316" d="M15.756,164.757H92.427V88.088H15.756Z" fill="#ecf9ff"/>
                                </g>
                              </g>
                            </g>
                          </g>
                        </g>
                      </g>
                      <g id="Group_167642" data-name="Group 167642">
                        <g id="Group_167641" data-name="Group 167641" clip-path="url(#clip-path-7)">
                          <g id="Group_167192" data-name="Group 167192">
                            <g id="Group_167640" data-name="Group 167640">
                              <g id="Group_167639" data-name="Group 167639" clip-path="url(#clip-path-8)">
                                <g id="Group_167191" data-name="Group 167191">
                                  <path id="Path_154319" data-name="Path 154319" d="M133.443,131.627h46.7v-9.465h-46.7Z" fill="#ecf9ff"/>
                                </g>
                              </g>
                            </g>
                          </g>
                        </g>
                      </g>
                      <g id="Group_167646" data-name="Group 167646">
                        <g id="Group_167645" data-name="Group 167645" clip-path="url(#clip-path-9)">
                          <g id="Group_167194" data-name="Group 167194">
                            <g id="Group_167644" data-name="Group 167644">
                              <g id="Group_167643" data-name="Group 167643" clip-path="url(#clip-path-10)">
                                <g id="Group_167193" data-name="Group 167193">
                                  <path id="Path_154322" data-name="Path 154322" d="M135.02,95.343h46.7V85.878h-46.7Z" fill="#ecf9ff"/>
                                </g>
                              </g>
                            </g>
                          </g>
                        </g>
                      </g>
                      <g id="Group_167650" data-name="Group 167650">
                        <g id="Group_167649" data-name="Group 167649" clip-path="url(#clip-path-11)">
                          <g id="Group_167196" data-name="Group 167196">
                            <g id="Group_167648" data-name="Group 167648">
                              <g id="Group_167647" data-name="Group 167647" clip-path="url(#clip-path-4)">
                                <g id="Group_167195" data-name="Group 167195">
                                  <path id="Path_154325" data-name="Path 154325" d="M133.443,144.248h46.7v-9.465h-46.7Z" fill="#ecf9ff"/>
                                </g>
                              </g>
                            </g>
                          </g>
                        </g>
                      </g>
                      <g id="Group_167654" data-name="Group 167654">
                        <g id="Group_167653" data-name="Group 167653" clip-path="url(#clip-path-13)">
                          <g id="Group_167198" data-name="Group 167198">
                            <g id="Group_167652" data-name="Group 167652">
                              <g id="Group_167651" data-name="Group 167651" clip-path="url(#clip-path-14)">
                                <g id="Group_167197" data-name="Group 167197">
                                  <path id="Path_154328" data-name="Path 154328" d="M135.02,107.965h46.7V98.5h-46.7Z" fill="#ecf9ff"/>
                                </g>
                              </g>
                            </g>
                          </g>
                        </g>
                      </g>
                      <g id="Group_167658" data-name="Group 167658">
                        <g id="Group_167657" data-name="Group 167657" clip-path="url(#clip-path-15)">
                          <g id="Group_167200" data-name="Group 167200">
                            <g id="Group_167656" data-name="Group 167656">
                              <g id="Group_167655" data-name="Group 167655" clip-path="url(#clip-path-10)">
                                <g id="Group_167199" data-name="Group 167199">
                                  <path id="Path_154331" data-name="Path 154331" d="M135.02,59.059h46.7V49.594h-46.7Z" fill="#ecf9ff"/>
                                </g>
                              </g>
                            </g>
                          </g>
                        </g>
                      </g>
                      <g id="Group_167662" data-name="Group 167662">
                        <g id="Group_167661" data-name="Group 167661" clip-path="url(#clip-path-17)">
                          <g id="Group_167202" data-name="Group 167202">
                            <g id="Group_167660" data-name="Group 167660">
                              <g id="Group_167659" data-name="Group 167659" clip-path="url(#clip-path-14)">
                                <g id="Group_167201" data-name="Group 167201">
                                  <path id="Path_154334" data-name="Path 154334" d="M135.02,71.681h46.7V62.216h-46.7Z" fill="#ecf9ff"/>
                                </g>
                              </g>
                            </g>
                          </g>
                        </g>
                      </g>
                      <g id="Group_167666" data-name="Group 167666">
                        <g id="Group_167665" data-name="Group 167665" clip-path="url(#clip-path-19)">
                          <g id="Group_167204" data-name="Group 167204">
                            <g id="Group_167664" data-name="Group 167664">
                              <g id="Group_167663" data-name="Group 167663" clip-path="url(#clip-path-4)">
                                <g id="Group_167203" data-name="Group 167203">
                                  <path id="Path_154337" data-name="Path 154337" d="M98.736,76.413h31.55V44.862H98.736Z" fill="#ecf9ff"/>
                                </g>
                              </g>
                            </g>
                          </g>
                        </g>
                      </g>
                      <g id="Group_167670" data-name="Group 167670">
                        <g id="Group_167669" data-name="Group 167669" clip-path="url(#clip-path-21)">
                          <g id="Group_167206" data-name="Group 167206">
                            <g id="Group_167668" data-name="Group 167668">
                              <g id="Group_167667" data-name="Group 167667" clip-path="url(#clip-path-4)">
                                <g id="Group_167205" data-name="Group 167205">
                                  <path id="Path_154340" data-name="Path 154340" d="M98.736,112.7h31.55V81.147H98.736Z" fill="#ecf9ff"/>
                                </g>
                              </g>
                            </g>
                          </g>
                        </g>
                      </g>
                      <g id="Group_167674" data-name="Group 167674">
                        <g id="Group_167673" data-name="Group 167673" clip-path="url(#clip-path-23)">
                          <g id="Group_167208" data-name="Group 167208">
                            <g id="Group_167672" data-name="Group 167672">
                              <g id="Group_167671" data-name="Group 167671" clip-path="url(#clip-path-4)">
                                <g id="Group_167207" data-name="Group 167207">
                                  <path id="Path_154343" data-name="Path 154343" d="M98.736,148.982h31.55V117.43H98.736Z" fill="#ecf9ff"/>
                                </g>
                              </g>
                            </g>
                          </g>
                        </g>
                      </g>
                      <g id="Group_167678" data-name="Group 167678">
                        <g id="Group_167677" data-name="Group 167677" clip-path="url(#clip-path-25)">
                          <g id="Group_167210" data-name="Group 167210">
                            <g id="Group_167676" data-name="Group 167676">
                              <g id="Group_167675" data-name="Group 167675" clip-path="url(#clip-path-4)">
                                <g id="Group_167209" data-name="Group 167209">
                                  <path id="Path_154346" data-name="Path 154346" d="M15.756,84.932H92.427V36.974H15.756Z" fill="#ecf9ff"/>
                                </g>
                              </g>
                            </g>
                          </g>
                        </g>
                      </g>
                      <g id="Group_167682" data-name="Group 167682">
                        <g id="Group_167681" data-name="Group 167681" clip-path="url(#clip-path-27)">
                          <g id="Group_167212" data-name="Group 167212">
                            <g id="Group_167680" data-name="Group 167680">
                              <g id="Group_167679" data-name="Group 167679" clip-path="url(#clip-path-8)">
                                <g id="Group_167211" data-name="Group 167211">
                                  <path id="Path_154349" data-name="Path 154349" d="M186.447,160.97h76.67V108.6h-76.67Z" fill="#ecf9ff"/>
                                </g>
                              </g>
                            </g>
                          </g>
                        </g>
                      </g>
                      <g id="Group_167686" data-name="Group 167686">
                        <g id="Group_167685" data-name="Group 167685" clip-path="url(#clip-path-29)">
                          <g id="Group_167214" data-name="Group 167214">
                            <g id="Group_167684" data-name="Group 167684">
                              <g id="Group_167683" data-name="Group 167683" clip-path="url(#clip-path-8)">
                                <g id="Group_167213" data-name="Group 167213">
                                  <path id="Path_154352" data-name="Path 154352" d="M186.447,105.44h76.67V47.07h-76.67Z" fill="#ecf9ff"/>
                                </g>
                              </g>
                            </g>
                          </g>
                        </g>
                      </g>
                      <g id="Group_167690" data-name="Group 167690">
                        <g id="Group_167689" data-name="Group 167689" clip-path="url(#clip-path-31)">
                          <g id="Group_167216" data-name="Group 167216">
                            <g id="Group_167688" data-name="Group 167688">
                              <g id="Group_167687" data-name="Group 167687" clip-path="url(#clip-path-14)">
                                <g id="Group_167215" data-name="Group 167215">
                                  <path id="Path_154355" data-name="Path 154355" d="M16.072,105.44H84.537V95.975H16.072Z" fill="#d2f0ff"/>
                                </g>
                              </g>
                            </g>
                          </g>
                        </g>
                      </g>
                      <g id="Group_167694" data-name="Group 167694">
                        <g id="Group_167693" data-name="Group 167693" clip-path="url(#clip-path-33)">
                          <g id="Group_167218" data-name="Group 167218">
                            <g id="Group_167692" data-name="Group 167692">
                              <g id="Group_167691" data-name="Group 167691" clip-path="url(#clip-path-10)">
                                <g id="Group_167217" data-name="Group 167217">
                                  <path id="Path_154358" data-name="Path 154358" d="M16.072,118.06H84.537V108.6H16.072Z" fill="#d2f0ff"/>
                                </g>
                              </g>
                            </g>
                          </g>
                        </g>
                      </g>
                      <g id="Group_167698" data-name="Group 167698">
                        <g id="Group_167697" data-name="Group 167697" clip-path="url(#clip-path-35)">
                          <g id="Group_167220" data-name="Group 167220">
                            <g id="Group_167696" data-name="Group 167696">
                              <g id="Group_167695" data-name="Group 167695" clip-path="url(#clip-path-14)">
                                <g id="Group_167219" data-name="Group 167219">
                                  <path id="Path_154361" data-name="Path 154361" d="M16.072,130.681H84.537v-9.465H16.072Z" fill="#d2f0ff"/>
                                </g>
                              </g>
                            </g>
                          </g>
                        </g>
                      </g>
                      <g id="Group_167702" data-name="Group 167702">
                        <g id="Group_167701" data-name="Group 167701" clip-path="url(#clip-path-37)">
                          <g id="Group_167222" data-name="Group 167222">
                            <g id="Group_167700" data-name="Group 167700">
                              <g id="Group_167699" data-name="Group 167699" clip-path="url(#clip-path-10)">
                                <g id="Group_167221" data-name="Group 167221">
                                  <path id="Path_154364" data-name="Path 154364" d="M16.072,143.3H84.537v-9.465H16.072Z" fill="#d2f0ff"/>
                                </g>
                              </g>
                            </g>
                          </g>
                        </g>
                      </g>
                      <g id="Group_167706" data-name="Group 167706">
                        <g id="Group_167705" data-name="Group 167705" clip-path="url(#clip-path-39)">
                          <g id="Group_167224" data-name="Group 167224">
                            <g id="Group_167704" data-name="Group 167704">
                              <g id="Group_167703" data-name="Group 167703" clip-path="url(#clip-path-14)">
                                <g id="Group_167223" data-name="Group 167223">
                                  <path id="Path_154367" data-name="Path 154367" d="M16.072,155.923H84.537v-9.465H16.072Z" fill="#d2f0ff"/>
                                </g>
                              </g>
                            </g>
                          </g>
                        </g>
                      </g>
                      <g id="Group_167710" data-name="Group 167710">
                        <g id="Group_167709" data-name="Group 167709" clip-path="url(#clip-path-41)">
                          <g id="Group_167226" data-name="Group 167226">
                            <g id="Group_167708" data-name="Group 167708">
                              <g id="Group_167707" data-name="Group 167707" clip-path="url(#clip-path-4)">
                                <g id="Group_167225" data-name="Group 167225">
                                  <path id="Path_154370" data-name="Path 154370" d="M22.384,51.8H84.542V42.339H22.384Z" fill="#d2f0ff"/>
                                </g>
                              </g>
                            </g>
                          </g>
                        </g>
                      </g>
                      <g id="Group_167714" data-name="Group 167714">
                        <g id="Group_167713" data-name="Group 167713" clip-path="url(#clip-path-43)">
                          <g id="Group_167228" data-name="Group 167228">
                            <g id="Group_167712" data-name="Group 167712">
                              <g id="Group_167711" data-name="Group 167711" clip-path="url(#clip-path-8)">
                                <g id="Group_167227" data-name="Group 167227">
                                  <path id="Path_154373" data-name="Path 154373" d="M22.384,64.423H84.542V54.958H22.384Z" fill="#d2f0ff"/>
                                </g>
                              </g>
                            </g>
                          </g>
                        </g>
                      </g>
                      <g id="Group_167718" data-name="Group 167718">
                        <g id="Group_167717" data-name="Group 167717" clip-path="url(#clip-path-45)">
                          <g id="Group_167230" data-name="Group 167230">
                            <g id="Group_167716" data-name="Group 167716">
                              <g id="Group_167715" data-name="Group 167715" clip-path="url(#clip-path-4)">
                                <g id="Group_167229" data-name="Group 167229">
                                  <path id="Path_154376" data-name="Path 154376" d="M22.384,77.046H84.542V67.58H22.384Z" fill="#d2f0ff"/>
                                </g>
                              </g>
                            </g>
                          </g>
                        </g>
                      </g>
                    </g>
                  </g>
                </g>
              </g>
            </g>
          </g>
        </g>
      </g>
    </g>
    <g id="undraw_confirmation_2uy0" data-name="undraw confirmation 2uy0">
      <path id="Path_154499" data-name="Path 154499" d="M231.49,89.944c.122-.333-.793-2.182-.793-2.274s-.957-1.12-.957-1.7-1.25-1.819-1.25-1.819a3.169,3.169,0,0,1-1.865-2.213c-.184-1.514-1.945-1.547-2.014-1.549,0,0,0-.138.011-.348a5.046,5.046,0,0,0-.226-1.773,1.8,1.8,0,0,0-1.038-.883,3.986,3.986,0,0,0-.551-1.545,1.739,1.739,0,0,1-.425-1.639,2.176,2.176,0,0,0-.239-1.415,1.448,1.448,0,0,0-.892-.829h-.033c-.877-.212-1.859-.538-1.859-.538s-.1.019-.247.04l-.122-.04a5.5,5.5,0,0,1-.639.08.8.8,0,0,1-.519-.17,10.522,10.522,0,0,0-3.237-.971,7.677,7.677,0,0,1-1.773-.607l-1.311-1a8.4,8.4,0,0,1-1.149-1.585l-.015-.021h0a5.267,5.267,0,0,1-.241-.668c-.013-.042-.023-.084-.036-.13h0a7.333,7.333,0,0,0,.729-.9v-.01c.059-.082.115-.172.17-.258.081-.127.157-.261.23-.4.031-.059.059-.121.09-.178a.772.772,0,0,0,.191-.033l.082-.031a.959.959,0,0,0,.211-.132l.061-.056a1.5,1.5,0,0,0,.383-.588c.021-.065.04-.132.055-.191a.268.268,0,0,1,.017-.069c.006-.021.021-.092.029-.14l.011-.077a.772.772,0,0,1,.023-.136.255.255,0,0,0,0-.078,1.717,1.717,0,0,1,.021-.172,5.9,5.9,0,0,1,.1-.639v-.01a4.862,4.862,0,0,1,.452-1.164c.191-.369.4-.733.574-1.114h0c.05-.109.1-.22.14-.331s.084-.245.123-.369a.533.533,0,0,1,.027-.113c.025-.09.045-.182.061-.274a1,1,0,0,0,.023-.121c.023-.126.038-.253.05-.383a4.7,4.7,0,0,0-.314-2.131c-.228-.574-.574-1.082-.8-1.65-.35-.863-.442-1.84-.871-2.663a3.171,3.171,0,0,0-3.8-1.549c-.662.245-1.239.726-1.914.942a6.332,6.332,0,0,1-2.8-.059,3.479,3.479,0,0,0-2.718.469c-.863.7-1.1,2.024-1.914,2.793a4.5,4.5,0,0,1-.637.479c-.165.113-.331.224-.486.352a1.814,1.814,0,0,0-.565.766c-.008.021-.015.043-.021.065a.5.5,0,0,0-.021.078c0,.03-.007.06-.013.09a.332.332,0,0,0,0,.063,1.062,1.062,0,0,0,0,.138h0v.023a.872.872,0,0,0,.025.153v.042a.792.792,0,0,0,.038.126.1.1,0,0,1,0,.025,1.366,1.366,0,0,0,.055.138.216.216,0,0,0,.027.069.3.3,0,0,1,.027.057,3.663,3.663,0,0,1,.283.7.8.8,0,0,1-.029.467.749.749,0,0,1-.123.2,2.662,2.662,0,0,1-.214.237,6.329,6.329,0,0,0-1.38,2.207c-.034.094-.067.191-.1.285h0l.04.011.04.01a1.359,1.359,0,0,0,.228.048c.051.008.1.014.153.017a2.379,2.379,0,0,0,.624-.05c.034-.006.067-.014.1-.023h0a.112.112,0,0,0,.031-.01h.019a3.4,3.4,0,0,0,.5-.174c.038-.017.078-.033.117-.052v.712a7.2,7.2,0,0,0,3.668,5.856c.109.063.216.123.327.178.01.065.019.132.027.191s.015.109.021.165l-.084-.078a.56.56,0,0,0-.228-.046.724.724,0,0,0-.364.094,1.329,1.329,0,0,0-.477.465,3.409,3.409,0,0,1-1.5,1.149s-5.552.879-5.77,1.606l-2.6.153s-.917.121-1.007,2.031v.044c-.013.228-.031.431-.052.613v.027c-.161,1.273-.525,1.409-.525,1.409a7.241,7.241,0,0,0-.978,2.851.089.089,0,0,1,0,.023h0a1.261,1.261,0,0,1-.025.392,1.722,1.722,0,0,1-.8,1.032l-.121,1.723a1.173,1.173,0,0,0-1.283,1.032,4.1,4.1,0,0,1-.766,1.723s-1.679,1.4-1.771,2.577l-1.039.638s-2.41-.546-2.962-1.516c0,0-.065-.065-.168-.159l-.015-.023v.011a8.444,8.444,0,0,0-1.009-.89.752.752,0,0,1,.05.49l-.18-.191-.48-.536s-.687-.643-1.654-1.411h0q-.331-.264-.7-.54a9.913,9.913,0,0,0-3.829-1.987c-.023-.046-.115-.392-.331-.392a.364.364,0,0,0-.237.117,3.187,3.187,0,0,0-.189,4.5c.054.058.11.115.168.169l.251.234.777.727,2.623,2.45c.033.023.063.048.1.069l.155.191.121.155.209.266.3.383c-.015.04-.033.078-.046.117-.113.276-.211.544-.291.789v.027c-.019.061-.038.119-.056.176a.254.254,0,0,1-.019.059c-.019.057-.034.115-.052.167a.869.869,0,0,0-.027.1.576.576,0,0,1-.019.059c-.086.3-.14.538-.168.668l-.2-.063.191.086v.033l-.011.061c.059.029.122.056.191.082l.044.019.75.331h0c.151.067.316.138.492.218s.312.14.482.212h0a44.086,44.086,0,0,1,4.9,2.378,3.861,3.861,0,0,0,4.154.574,4.373,4.373,0,0,0,2.226-2.458,25.613,25.613,0,0,0,1.834-2.818c.046-.28.865-.6,1.244-.727l.036-.011.153-.05v.463a23.581,23.581,0,0,1-.28,4.06.025.025,0,0,0,0,.012,4.435,4.435,0,0,1-.3,1.015c-.7,1.486-2.014,8.067-2.014,8.067h.031a.886.886,0,0,1,.23-.012c-.027.123-.044.218-.057.283s-.019.1-.019.1h.023a.87.87,0,0,1,.222-.013.483.483,0,0,1,.075.01,1.31,1.31,0,0,1-.019.138v.048c0,.008-.011.059-.015.092-.159,1.1-.618,3.946-.618,3.946a9.039,9.039,0,0,1-.49,2.121,5.244,5.244,0,0,0-.257,1.531c0,.1-.013.191-.021.291-.05.812-.057,1.572-.057,1.572l-.013.05-.45,2.041a.4.4,0,0,0,.025.056h0c.032.061.084.167.159.3h0l.023.05a5.689,5.689,0,0,0,1.061,1.493,2.806,2.806,0,0,0,.322.274h0a.378.378,0,0,1-.013.067c0,.019-.011.073-.017.107a3.143,3.143,0,0,1-.216.766,2.549,2.549,0,0,0-.22.835,3.777,3.777,0,0,0-.019.62l-.025.113h0c-.067.312-.258,1.227-.362,1.972-.025.17-.048.335-.061.488a2.342,2.342,0,0,0,0,.427,3.5,3.5,0,0,1-.038.716,1.663,1.663,0,0,1-.025.211c-.1.674-.274,1.38-.274,1.38l-.558,5.29v.312a.585.585,0,0,1-.011.138c0,.124-.019.272-.033.444a1.746,1.746,0,0,1-.011.191,1.006,1.006,0,0,1-.011.182v.1a.851.851,0,0,1-.01.151.712.712,0,0,0,0,.146v.136c-.017.281-.036.586-.05.894v.295a2.24,2.24,0,0,1-.013.295v1.949a5.636,5.636,0,0,0,.046.609c.021.149.036.306.044.467v.222a1.028,1.028,0,0,1,0,.111v.858c-.048.659-.138,1.193-.151,1.277h0v.18c0,.048.011.109.017.176v.1h0a.377.377,0,0,0,.011.111c.012.038,0,.036,0,.057,0,.069.012.14.019.214s.017.155.023.235l.011.151c0,.073.015.149.021.224v.077c0,.052.011.1.015.155l.017.236c0,.052.011.1.015.157a.534.534,0,0,1,0,.08l.025.31a.874.874,0,0,0,.01.153,2.314,2.314,0,0,0,.019.239c.008.076,0,.176.013.257a1.66,1.66,0,0,1,.011.234,3.2,3.2,0,0,1,0,.649,14.888,14.888,0,0,0-.3,1.491c0,.059-.017.119-.023.18a.636.636,0,0,0,0,.107l-.011.144c0,.115-.013.232-.013.345a2.64,2.64,0,0,0,.086.766,3.61,3.61,0,0,1,.1.505.265.265,0,0,0,.01.084c0,.061.013.124.019.191s.01.13.013.191c0,.134.011.272.017.412v.278c.013.808-.025,1.6-.036,1.8v.05s.191,3.4.4,4.487c.027.144.046.289.059.438a1.033,1.033,0,0,0,.01.167,8.5,8.5,0,0,1-.13,1.884,20.6,20.6,0,0,1-.3,2.334,1.493,1.493,0,0,0-.274.9v.015a2.949,2.949,0,0,0,1.005,2.267l.092.09.111-.042c.9-.32,1.784-.653,2.671-.992.471-.182.942-.364,1.411-.551q1.739-.687,3.446-1.413h0a.222.222,0,0,1-.109-.138,6.248,6.248,0,0,1,.14-2.137c.054-.222.549-4.945.549-4.945a6.132,6.132,0,0,1,.061-2.119,10.087,10.087,0,0,0-.306-3.1.547.547,0,0,1,.153-.666c.345-.364.214-3.609.214-3.609s-.031-1.639-.031-2.064a7.577,7.577,0,0,1,.7-2.489,4.861,4.861,0,0,0,.125-2.125h0l.019-.123a1.228,1.228,0,0,1,.027-.17l.029-.163a22.552,22.552,0,0,1,.594-2.632c.4-1.273.856-3.517.856-3.517l2.671-7.162h0l.088-.222.033-.088a11.627,11.627,0,0,1,1.311,4.671,26.905,26.905,0,0,1,.247,3.427,41.5,41.5,0,0,0,.274,4.154s.394,4.914.394,5.125a29.949,29.949,0,0,0,.8,4.566,4.03,4.03,0,0,1-.488,2.517,39.058,39.058,0,0,0,.061,4.641s-.461,3.517-.551,4.244c-.017.132-.044.331-.073.574,3.063-1.47,6.1-3.023,9.019-4.709l.383-.218.021-4.351a10.979,10.979,0,0,0-.031-2.852c-.245-.821-.488-2.393-.151-2.818s.031-2.395.031-2.395,0-4.156.458-5.186.306-7.55.306-7.55l.121-4.277s.974-.923.766-5.7v-.163a8,8,0,0,1,2.447.044,4.874,4.874,0,0,0,3.2,1.03h0a1.56,1.56,0,0,0,.586-.243,17.028,17.028,0,0,0,1.532-1.183l-.486-8.18h0l-.052-.909c.092.14.172.264.241.383.191.291.3.469.3.469,0-1.273,3.6-5.4,3.6-5.4a59,59,0,0,1,4.091-4.853,15.474,15.474,0,0,0,2.169-3.245,13.3,13.3,0,0,1,.733-1.516C232.472,91.734,231.368,90.277,231.49,89.944Zm-10.749,5.822a1.9,1.9,0,0,1-.406.817c-.015-.191-.031-.37-.046-.561v-.05a62.04,62.04,0,0,1-.339-6.215,7.343,7.343,0,0,0,.126-1.566h0c.013-.733,0-1.432,0-1.432h0l.034-.048a15.321,15.321,0,0,0,2.529,4.147s.337.971.733,1,.243,1.273.243,1.273a1.437,1.437,0,0,0-.521.191,4.574,4.574,0,0,0-.54.366h0A5.944,5.944,0,0,0,220.741,95.766Z" fill="url(#linear-gradient)"/>
      <path id="Path_154500" data-name="Path 154500" d="M174.657,92.444s1.114-5.839,4.694-5.87l2.619,5.387-1.761,1.2S176.426,93.278,174.657,92.444Z" fill="#65617d"/>
      <path id="Path_154501" data-name="Path 154501" d="M181.962,91.954l-1.754,1.2a20.719,20.719,0,0,1-4.575-.383,5.27,5.27,0,0,1-.976-.331.334.334,0,0,1,.019-.094.089.089,0,0,1,0-.023,13.282,13.282,0,0,1,.678-2.144c.109-.262.236-.532.37-.8a5.474,5.474,0,0,1,2.271-2.489,3.1,3.1,0,0,1,1.193-.312h.159l.059.119.884,1.821Z" opacity="0.1"/>
      <path id="Path_154502" data-name="Path 154502" d="M211.7,116.216s3.762-.36,4.093-.09,2.468,1.656,3.733.783.421-3.913.421-4.034-.121-4.424-.121-4.424l-2.257-3.04-2.829-5.326-5.778-.574.149,8.458-.029,4.334Z" fill="#65617d"/>
      <path id="Path_154503" data-name="Path 154503" d="M211.7,116.216s3.762-.36,4.093-.09,2.468,1.656,3.733.783.421-3.913.421-4.034-.121-4.424-.121-4.424l-2.257-3.04-2.829-5.326-5.778-.574.149,8.458-.029,4.334Z" opacity="0.1"/>
      <path id="Path_154504" data-name="Path 154504" d="M178.592,86.417s-.3,3.672-2.594,3.729a18.325,18.325,0,0,1-1.52-1.043c-2.01-1.5-5.2-4.394-4.317-7.083,1.263-3.852,7.4,3.255,7.4,3.255l.473.528Z" fill="#a5636d"/>
      <path id="Path_154505" data-name="Path 154505" d="M178.591,86.417s-.3,3.672-2.594,3.729a18.328,18.328,0,0,1-1.52-1.043l-.191-.251a3,3,0,0,0,1.254.339,1.681,1.681,0,0,0,1.637-1.032,13.338,13.338,0,0,0,.634-1.457,4.373,4.373,0,0,0,.23-.9Z" opacity="0.1"/>
      <path id="Path_154506" data-name="Path 154506" d="M177.6,93.068l-.515-.662-1.723-2.23-.894-1.14a3.008,3.008,0,0,0,1.252.337,1.677,1.677,0,0,0,1.637-1.032,12.883,12.883,0,0,0,.634-1.457c.285-.812.28-1.229.178-1.371a9.122,9.122,0,0,1,1,.884l.013.012.165.157.063.122.871,1.744V88.5C180.355,89.059,180.648,92.57,177.6,93.068Z" fill="#e7effd"/>
      <path id="Path_154507" data-name="Path 154507" d="M195.069,159.639a.864.864,0,0,0-.18-.119h-.015c-.36-.151-.031-2.018.031-2.259s.542-4.9.542-4.9a6.338,6.338,0,0,1,.061-2.106,10.293,10.293,0,0,0-.3-3.063.563.563,0,0,1,.151-.662c.331-.362.211-3.582.211-3.582s-.029-1.623-.029-2.047a7.459,7.459,0,0,1,.691-2.468,4.806,4.806,0,0,0,.121-2.106h0l.017-.122c.01-.044.017-.1.027-.169l.029-.161a.83.83,0,0,1,.021-.123c.017-.1.036-.191.057-.314.011-.069.025-.142.04-.214.044-.23.1-.482.151-.741.017-.08.036-.163.056-.243s.046-.191.071-.291c.015-.059.029-.117.046-.176.044-.176.092-.347.144-.509.383-1.265.844-3.492.844-3.492l2.8-7.348.033-.088.088.17h0a11.258,11.258,0,0,1,1.2,4.462,26.479,26.479,0,0,1,.241,3.4,40.324,40.324,0,0,0,.272,4.124s.383,4.874.383,5.085a30.035,30.035,0,0,0,.783,4.545,3.971,3.971,0,0,1-.482,2.489,38.474,38.474,0,0,0,.061,4.606s-.452,3.49-.544,4.212c-.019.172-.057.461-.1.816l.232-.109.033-.017c3.063-1.47,6.1-3.023,9.019-4.709l.025-4.616a11.025,11.025,0,0,0-.029-2.829c-.239-.812-.482-2.378-.153-2.8s.033-2.376.033-2.376,0-4.124.45-5.146.3-7.5.3-7.5l.119-4.242s.982-.936.751-5.822c-.025-.521-.063-1.085-.117-1.7-.167-1.844-.335-3.513-.488-4.958-.013-.124-.027-.247-.04-.366-.015-.161-.034-.32-.05-.475-.036-.327-.071-.641-.1-.94-.011-.088-.021-.174-.031-.26q-.075-.644-.14-1.187c-.015-.142-.034-.281-.05-.414-.025-.191-.048-.383-.069-.561a.871.871,0,0,0-.017-.126,1.613,1.613,0,0,0-.027-.22c-.1-.781-.159-1.208-.159-1.208h-.027l-3.027.027-6.607.063h-.19l-3.446.033h-.211l-1.654.017h-.281l-3.446.033h-.209l-1.415,5.831-2.889,6.622s-.044.726-.145,1.434v.042a.138.138,0,0,1-.012.069.555.555,0,0,0-.017.107,3.741,3.741,0,0,1-.243.936,2.327,2.327,0,0,0-.191.66,3.909,3.909,0,0,0-.044.733h0v.04s-.23,1.043-.364,1.932c-.025.17-.048.335-.061.488a3.093,3.093,0,0,0-.027.561,3.064,3.064,0,0,1-.021.574,1.663,1.663,0,0,1-.025.211c-.094.7-.283,1.493-.283,1.493l-.544,5.238a.049.049,0,0,1,0,.017v.218a.585.585,0,0,1-.011.138c0,.124-.019.272-.033.444a1.531,1.531,0,0,1-.012.191,1.006,1.006,0,0,1-.011.182v.1a.851.851,0,0,1-.01.151.714.714,0,0,0,0,.146v.136c-.015.281-.034.586-.048.894v.3a2.24,2.24,0,0,1-.013.295v1.964a5.266,5.266,0,0,0,.046.639c.019.142.034.287.044.436v1.191c-.048.659-.138,1.193-.151,1.277h0v.18c0,.047.011.109.017.176v.1h0a.381.381,0,0,0,.011.111c.012.038,0,.036,0,.057,0,.069.012.14.019.214s.015.155.023.235l.011.151c0,.073.015.149.021.224v.077c0,.052.011.1.015.155l.017.235c0,.052.011.1.015.157v.08l.025.31a.874.874,0,0,0,.01.153c0,.08.012.163.019.239s0,.176.013.257a1.652,1.652,0,0,1,.011.234,3.3,3.3,0,0,1,0,.628,14.913,14.913,0,0,0-.3,1.512c0,.059-.017.119-.023.18a.636.636,0,0,0,0,.107l-.011.144c0,.115-.013.232-.013.345a2.629,2.629,0,0,0,.086.722,3.988,3.988,0,0,1,.1.635c.015.123.025.253.032.383s.011.272.017.412v.278c.011.909-.038,1.778-.038,1.778v.034c.019.383.191,3.4.383,4.417a4.514,4.514,0,0,1,.067.544,1.033,1.033,0,0,0,.01.167,8.791,8.791,0,0,1-.136,1.759,21,21,0,0,1-.371,2.337,1.637,1.637,0,0,0-.27,1.047v.015a2.977,2.977,0,0,0,.994,2.106l.214.214c.9-.32,1.784-.653,2.671-.992.471-.182.942-.364,1.411-.551q1.739-.687,3.446-1.413Z" fill="#3f3d56"/>
      <path id="Path_154508" data-name="Path 154508" d="M210.855,69.2,206.4,73.958s-5.716-2.3-5.115-3.063a4.47,4.47,0,0,0,.061-2.313c-.211-1.667-.662-3.588-.662-3.588s9.991-1.625,9.147.061a2.767,2.767,0,0,0-.063,2A7.589,7.589,0,0,0,210.855,69.2Z" fill="#a5636d"/>
      <path id="Path_154509" data-name="Path 154509" d="M209.834,65.049c-.306.615-.454.674-.262,1.34-1.306,1.4-2.967,2.935-5.033,2.935a7.129,7.129,0,0,1-3.189-.747c-.211-1.667-.662-3.588-.662-3.588S210.675,63.362,209.834,65.049Z" opacity="0.1"/>
      <path id="Path_154510" data-name="Path 154510" d="M211.7,61.977a7.164,7.164,0,0,1-14.327,0v-.1a7.163,7.163,0,0,1,14.326.1Z" fill="#a5636d"/>
      <path id="Path_154511" data-name="Path 154511" d="M212.735,109.233c-.957,0-4.108.034-7.638.09h-.044l-1.166.019h-.036c-4.187.067-8.312-.75-9.968-.6-3.522.331,1.264-3.254,1.264-3.254a29.467,29.467,0,0,0,8.021.812l1.013-.054a43.13,43.13,0,0,0,8.1-.986C212.393,106.194,212.563,107.552,212.735,109.233Z" opacity="0.1"/>
      <path id="Path_154512" data-name="Path 154512" d="M212.735,109.055c-.957,0-4.108.033-7.638.09h-.044l-1.166.019h-.036c-4.187.067-8.312-.75-9.968-.6-3.522.329,1.264-3.254,1.264-3.254a29.465,29.465,0,0,0,8.021.81l1.013-.052a43.3,43.3,0,0,0,8.1-.986C212.393,106.019,212.563,107.377,212.735,109.055Z" fill="#5f5d7e"/>
      <path id="Path_154513" data-name="Path 154513" d="M202.607,71.193l-5.538,2.593L192.8,106.825s2.527-1.149,3.972-.421,5.9.061,5.9.061,3.255-.191,3.731.18,6.141-1.5,6.141-1.5,1.022-2.288.239-2.648.241-3.919.241-3.919l-.481-23.836-.957-3.063L209,70.115l-2.648,2.106-1.263.182Z" opacity="0.1"/>
      <path id="Path_154514" data-name="Path 154514" d="M202.607,70.826l-5.536,2.588L192.8,106.46s2.527-1.149,3.972-.421,5.9.059,5.9.059,3.255-.18,3.731.18,6.141-1.5,6.141-1.5,1.022-2.286.239-2.648.241-3.913.241-3.913l-.481-23.836-.957-3.063L209,69.752l-2.648,2.106-1.263.18Z" fill="#e7effd"/>
      <path id="Path_154515" data-name="Path 154515" d="M202.518,72.361s1.6,1.9,1.566,2.288-.09,1.323-.09,1.323l-1.2,2.439s-.662,3.04-.662,3.672-1.053,6.109-1.053,6.109l-1.263,8.423-1.6,11.046,1.625,2.8,1.926-1.625,2.556-19.68.542-3.882s.574-6.982.574-7.7a24.532,24.532,0,0,0-.331-2.619,3.083,3.083,0,0,1,2.018-2.226c1.625-.421-.121-.092-.121-.092l-.932-.752-.814.331S203,71.519,202.518,72.361Z" opacity="0.1"/>
      <path id="Path_154516" data-name="Path 154516" d="M202.337,72.181s1.6,1.9,1.566,2.286-.092,1.325-.092,1.325l-1.2,2.439s-.662,3.038-.662,3.67-1.053,6.111-1.053,6.111l-1.265,8.423-1.6,11.044,1.625,2.8,1.926-1.625,2.556-19.678.542-3.882s.574-6.982.574-7.705a24.5,24.5,0,0,0-.331-2.617,3.061,3.061,0,0,1,2.016-2.228c1.633-.421-.119-.09-.119-.09l-.934-.752-.812.331S202.82,71.337,202.337,72.181Z" fill="#4285f4"/>
      <path id="Path_154517" data-name="Path 154517" d="M201.28,69.021s-.241.18-.3,1.384a23.965,23.965,0,0,1-.9,3.913s3.13-2.167,4.7-1.926Z" opacity="0.1"/>
      <path id="Path_154518" data-name="Path 154518" d="M201.28,68.659s-.241.182-.3,1.384a24.068,24.068,0,0,1-.9,3.913s3.13-2.167,4.7-1.926Z" fill="#e7effd"/>
      <path id="Path_154519" data-name="Path 154519" d="M209.833,68.058,204.9,72.392a51.015,51.015,0,0,1,4.7,3.063c.542.6,1.084-5.9,1.084-5.9Z" opacity="0.1"/>
      <path id="Path_154520" data-name="Path 154520" d="M210.012,67.7l-4.935,4.334a50.919,50.919,0,0,1,4.694,3.063c.542.6,1.084-5.9,1.084-5.9Z" fill="#e7effd"/>
      <path id="Path_154521" data-name="Path 154521" d="M201.459,69.021s-.542-.272-1.053.511a3.427,3.427,0,0,1-1.474,1.149s-5.479.873-5.69,1.6l-2.558.149s-.9.109-.988,2.024-.574,2.075-.574,2.075a7.137,7.137,0,0,0-.957,2.829,1.567,1.567,0,0,1-.814,1.445l3.77,9.771s.121,4.034-.574,5.508-1.987,8.006-1.987,8.006.542-.121.511.241-.662,4.3-.662,4.3a8.652,8.652,0,0,1-.481,2.106,15.39,15.39,0,0,0-.331,3.371l-.5,2.046s1.149,2.558,2.891,2.2,4.9-7.192,4.9-7.192l2.016-7.372L198.47,96.5l.452-4.935.722-10.926,1.053-7.223S201.886,69.532,201.459,69.021Z" opacity="0.1"/>
      <path id="Path_154522" data-name="Path 154522" d="M201.285,68.659s-.542-.27-1.053.513a3.433,3.433,0,0,1-1.476,1.149s-5.477.873-5.688,1.6l-2.558.151s-.9.121-.994,2.016-.574,2.077-.574,2.077a7.169,7.169,0,0,0-.957,2.829,1.565,1.565,0,0,1-.812,1.443l3.756,9.775s.121,4.034-.574,5.508-1.985,8.006-1.985,8.006.542-.121.511.241-.662,4.3-.662,4.3a8.652,8.652,0,0,1-.481,2.106,15.39,15.39,0,0,0-.331,3.371l-.479,2.056s1.149,2.558,2.889,2.2,4.907-7.194,4.907-7.194l2.016-7.372,1.566-7.275.45-4.935.724-10.924,1.053-7.223S201.706,69.172,201.285,68.659Z" fill="#65617d"/>
      <path id="Path_154523" data-name="Path 154523" d="M181.963,91.953l-1.754,1.2a20.718,20.718,0,0,1-4.575-.383l-.973-.431-.191-.086.2.063a3.977,3.977,0,0,0,2.408.086c2.472-.831,2.2-4.91,2.106-5.833a.843.843,0,0,0-.019-.174v-.012l.015.023a1.177,1.177,0,0,0,.113.159,1.535,1.535,0,0,0,.111.117h0l.871,1.744V88.5Z" opacity="0.1"/>
      <path id="Path_154524" data-name="Path 154524" d="M188.013,80.191l-.842.241-.121,1.723a1.157,1.157,0,0,0-1.263,1.024,4.19,4.19,0,0,1-.752,1.723s-1.656,1.384-1.746,2.558l-1.024.632s-2.378-.542-2.919-1.5c0,0,1.084,7.765-4.694,5.87,0,0,6.471,2.829,6.771,3.22a3.8,3.8,0,0,0,4.093.574,4.346,4.346,0,0,0,2.2-2.468,25.19,25.19,0,0,0,1.8-2.8c.059-.362,1.415-.783,1.415-.783l2.588-6.258Z" fill="#65617d"/>
      <path id="Path_154525" data-name="Path 154525" d="M209.142,71.666l.873-3.972a4.526,4.526,0,0,0,.783,1.6c.4.3,1.294.994,1.294.994a7.529,7.529,0,0,0,1.744.6,10.488,10.488,0,0,1,3.191.957c.3.325,1.5.09,1.5.09s.993.331,1.867.542,1.294,1.656,1.112,2.226a1.743,1.743,0,0,0,.421,1.625,3.845,3.845,0,0,1,.542,1.532,1.762,1.762,0,0,1,1.024.873,6.061,6.061,0,0,1,.211,2.106l-4.484,6.318a18.422,18.422,0,0,1-.121,2.979c-.18.542.632,9.752.632,9.752l.932,15.83a16.664,16.664,0,0,1-1.5,1.174c-.272.121-.542-5.6-.542-5.808s-6.951-10.414-6.951-10.414a9.387,9.387,0,0,1-.934-1.836c0-.331-.873-3.369-.873-3.369l-1.321-5.854Z" opacity="0.1"/>
      <path id="Path_154526" data-name="Path 154526" d="M224.079,80.5c0,.207-.011.345-.011.345l-4.482,6.318h0a18.444,18.444,0,0,1-.119,2.981c-.1.314.125,3.553.337,6.212.151,1.914.295,3.538.295,3.538l.394,6.716.536,9.116a16.851,16.851,0,0,1-1.5,1.174c-.27.121-.542-5.6-.542-5.81s-6.957-10.418-6.957-10.418a9.393,9.393,0,0,1-.932-1.838c0-.331-.873-3.371-.873-3.371L208.9,89.6l.6-17.938.511-3.972a8.545,8.545,0,0,0,1.149,1.595c.4.3,1.292.994,1.292.994a7.545,7.545,0,0,0,1.746.6,10.489,10.489,0,0,1,3.191.957c.3.325,1.5.09,1.5.09s.992.331,1.865.542,1.294,1.656,1.114,2.226a1.732,1.732,0,0,0,.421,1.625,3.862,3.862,0,0,1,.542,1.531,1.768,1.768,0,0,1,1.024.873A5.164,5.164,0,0,1,224.079,80.5Z" fill="#65617d"/>
      <path id="Path_154527" data-name="Path 154527" d="M191.555,161.084c-.469.191-.94.37-1.411.551-1.476-.431-2.854-.938-2.854-.938A39.036,39.036,0,0,1,191.555,161.084Z" opacity="0.1"/>
      <path id="Path_154528" data-name="Path 154528" d="M205.8,145.013s3.582.842,3.792,1.415Z" opacity="0.1"/>
      <path id="Path_154529" data-name="Path 154529" d="M191.985,147.6s-1.866.542-.059,1.625S191.985,147.6,191.985,147.6Z" opacity="0.1"/>
      <path id="Path_154530" data-name="Path 154530" d="M200.26,118.671c.211,0,3.492-1.084,4.635-.6a7.617,7.617,0,0,0,2.56.48Z" opacity="0.1"/>
      <path id="Path_154531" data-name="Path 154531" d="M200.693,122.117l-.033.3-2.807,7.34s-.452,2.226-.844,3.49a22.88,22.88,0,0,0-.586,2.613l2.489-15.4Z" opacity="0.1"/>
      <path id="Path_154532" data-name="Path 154532" d="M205.053,109.143l-1.166.019h-.04l-.683-3.034c.335-.015.674-.033,1.013-.054Z" fill="#3f3d56"/>
      <path id="Path_154533" data-name="Path 154533" d="M219.251,105.462l-.749.618-2.494,2.062s-6.771,3.612-8.636.18c-1.644-3.023,6.032-5.18,7.882-5.651l.394-.1Z" fill="#a5636d"/>
      <path id="Path_154534" data-name="Path 154534" d="M190.33,75.882s1.323.6,1.623,1.445S190.33,75.882,190.33,75.882Z" opacity="0.1"/>
      <path id="Path_154535" data-name="Path 154535" d="M186.235,84.912s-1.926,2.347-1.149,3.255S186.235,84.912,186.235,84.912Z" opacity="0.1"/>
      <path id="Path_154536" data-name="Path 154536" d="M220.667,77.207s-1.805.18-1.867,1.746Z" opacity="0.1"/>
      <path id="Path_154537" data-name="Path 154537" d="M203.932,101.886c.191-.18,4.334-6.318,5.3-5.778Z" opacity="0.1"/>
      <path id="Path_154538" data-name="Path 154538" d="M211.7,61.978a7.136,7.136,0,0,1-.848,3.381H210.8c-.454-.1-.689-.624-1.036-.957a1.41,1.41,0,0,0-1.625-.228,1.648,1.648,0,0,0-.8,1.545c-.23-.957-.157-1.989-.383-2.954s-.9-1.943-1.821-1.96c-.4,0-.861.147-1.149-.151-.174-.18-.209-.463-.339-.682-.661-1.066-2.667-.526-3.486.021a21.482,21.482,0,0,1-2.789,1.89,7.163,7.163,0,0,1,14.326.1Z" opacity="0.1"/>
      <path id="Path_154539" data-name="Path 154539" d="M203.649,59.784c.13.218.165.5.339.682.287.3.75.144,1.149.151.923.015,1.6.994,1.821,1.958s.151,1.991.383,2.954a1.648,1.648,0,0,1,.8-1.543,1.406,1.406,0,0,1,1.623.228c.347.329.574.858,1.038.957s.892-.341,1.057-.819a13.169,13.169,0,0,0,.258-1.5,20.015,20.015,0,0,1,1.149-2.6,4.706,4.706,0,0,0-.031-3.362c-.226-.574-.561-1.074-.791-1.639-.345-.858-.436-1.824-.858-2.642a3.107,3.107,0,0,0-3.748-1.532c-.655.247-1.223.724-1.888.936a6.246,6.246,0,0,1-2.761-.057,3.412,3.412,0,0,0-2.68.465c-.852.7-1.085,2.006-1.886,2.772-.337.322-.754.526-1.108.823a1.517,1.517,0,0,0-.62,1.221c.054.624.664,1.191.438,1.767a1.4,1.4,0,0,1-.335.44,6.312,6.312,0,0,0-1.457,2.479c1.612.5,3.354-1.273,4.616-2.106C200.984,59.257,202.99,58.715,203.649,59.784Z" fill="#4c3e42"/>
      <path id="Path_154540" data-name="Path 154540" d="M219.251,105.463l-.748.618a21.977,21.977,0,0,0-3.373-3.3l.117-.113.4-.1Z" opacity="0.1"/>
      <path id="Path_154541" data-name="Path 154541" d="M219.976,104.354s-.27.67-.548,1.25-.574,1.1-.6.678c-.031-.844-3.521-3.674-3.521-3.674l.473-.459.549-.534Z" fill="#e7effd"/>
      <path id="Path_154542" data-name="Path 154542" d="M220.1,99.9l.4,6.716c-.934-1.453-3.5-5.18-5.152-5.06l4-4.6a5.124,5.124,0,0,0,.459-.59C219.952,98.281,220.1,99.9,220.1,99.9Z" opacity="0.1"/>
      <path id="Path_154543" data-name="Path 154543" d="M219.975,104.354s-.27.67-.548,1.25c-1.049-1.44-2.489-3.138-3.637-3.456l.549-.534Z" opacity="0.1"/>
      <path id="Path_154544" data-name="Path 154544" d="M222.985,80l1.083.842s1.805.031,1.985,1.532a3.143,3.143,0,0,0,1.836,2.2s1.235,1.233,1.235,1.805.932,1.6.932,1.685.9,1.926.783,2.257.957,1.777.632,2.318a13.172,13.172,0,0,0-.722,1.5,15.205,15.205,0,0,1-2.139,3.22,57.213,57.213,0,0,0-4.032,4.815s-3.551,4.093-3.551,5.36c0,0-3.461-5.78-5.508-5.628l4-4.6s.691-.752.722-1.2,1.926-2.529,2.829-2.619c0,0,.149-1.235-.241-1.264s-.722-.994-.722-.994-2.649-3.13-2.68-5.117S222.985,80,222.985,80Z" fill="#65617d"/>
      <path id="Path_154545" data-name="Path 154545" d="M224.579,82.872s-2.529,1.865-1.987,2.468S224.579,82.872,224.579,82.872Z" opacity="0.1"/>
      <path id="Path_154546" data-name="Path 154546" d="M224.7,90.569s4.694-1.5,5.169,0Z" opacity="0.1"/>
      <path id="Path_154547" data-name="Path 154547" d="M191.579,82.5s0,6.861-.588,7.539S191.579,82.5,191.579,82.5Z" opacity="0.1"/>
      <path id="Path_154548" data-name="Path 154548" d="M218.71,84.715l.873,2.452S219.929,84.761,218.71,84.715Z" opacity="0.1"/>
      <g id="Group_167237" data-name="Group 167237" opacity="0.1">
        <path id="Path_154549" data-name="Path 154549" d="M197.438,58.409c.22-.565-.356-1.118-.433-1.723a1.154,1.154,0,0,0-.1.544c.038.458.383.883.465,1.306a.741.741,0,0,0,.063-.126Z"/>
        <path id="Path_154550" data-name="Path 154550" d="M207.418,64.892c-.216-.957-.153-1.955-.371-2.9s-.9-1.945-1.821-1.96c-.4,0-.861.146-1.149-.151-.174-.18-.209-.463-.339-.682-.659-1.066-2.665-.526-3.486.021-1.231.817-2.921,2.529-4.5,2.142a5.478,5.478,0,0,0-.2.555c1.612.5,3.354-1.273,4.616-2.106.821-.546,2.826-1.087,3.486-.019.13.218.165.5.339.682.287.3.75.144,1.149.151.923.015,1.6.994,1.821,1.958s.151,1.991.383,2.954A1.638,1.638,0,0,1,207.418,64.892Z"/>
        <path id="Path_154551" data-name="Path 154551" d="M211.944,63.762c-.165.479-.593.917-1.057.819s-.689-.624-1.036-.957a1.414,1.414,0,0,0-1.625-.226,1.637,1.637,0,0,0-.8,1.457,1.571,1.571,0,0,1,.708-.871,1.406,1.406,0,0,1,1.623.228c.346.329.574.858,1.038.957s.892-.341,1.057-.819a4.249,4.249,0,0,0,.165-.865A2.687,2.687,0,0,1,211.944,63.762Z"/>
        <path id="Path_154552" data-name="Path 154552" d="M213.359,59.663a17.62,17.62,0,0,0-1.149,2.6c-.042.191-.065.383-.088.574a19.913,19.913,0,0,1,1.149-2.592A4.532,4.532,0,0,0,213.549,59,4.285,4.285,0,0,1,213.359,59.663Z"/>
      </g>
      <circle id="Ellipse_2155" data-name="Ellipse 2155" cx="0.075" cy="0.075" r="0.075" transform="translate(169.791 81.306)" fill="#e6e8ec"/>
      <path id="Path_154553" data-name="Path 154553" d="M109.7,123.386a4.782,4.782,0,0,1,4.294-.574s-.613,1.3-3.331,1.281Z" fill="#4285f4"/>
      <path id="Path_154554" data-name="Path 154554" d="M109.439,123.474a4.8,4.8,0,0,0,1.149,4.175s.957-1.072-.128-3.566Z" fill="#4285f4"/>
      <path id="Path_154555" data-name="Path 154555" d="M106.648,121.169s.078-2.138,4.92-1.616a2.3,2.3,0,0,1-1.589,2.092A2.781,2.781,0,0,1,106.648,121.169Z" fill="#4285f4"/>
      <path id="Path_154556" data-name="Path 154556" d="M106.353,121.16s-2.01.731-.023,5.178a2.292,2.292,0,0,0,1.5-2.158A2.793,2.793,0,0,0,106.353,121.16Z" fill="#4285f4"/>
      <path id="Path_154557" data-name="Path 154557" d="M103.51,118.244s-.41-3.5,4.526-3.327c0,0,.471,3.163-3.624,4.137Z" fill="#4285f4"/>
      <path id="Path_154558" data-name="Path 154558" d="M100.106,114.41s.523-4,5.487-3.006c0,0,.149,3.446-4.648,3.923Z" fill="#4285f4"/>
      <path id="Path_154559" data-name="Path 154559" d="M97.574,110.4s.98-3.925,5.9-2.942c0,0-1.026,3.526-5.552,3.637Z" fill="#4285f4"/>
      <path id="Path_154560" data-name="Path 154560" d="M95.163,106.491s.957-4.062,5.7-3.034c0,0-1.424,3.879-5.36,3.708Z" fill="#4285f4"/>
      <path id="Path_154561" data-name="Path 154561" d="M93.561,102.749s.66-4.945,5.094-4.03c0,0-1.1,4.522-4.74,4.732Z" fill="#4285f4"/>
      <path id="Path_154562" data-name="Path 154562" d="M92.022,98.21s.829-5,5.318-3.724c0,0-1.56,4.75-4.977,4.4Z" fill="#4285f4"/>
      <path id="Path_154563" data-name="Path 154563" d="M91.013,93.976s1.428-5.018,4.866-5.016c0,0-1.455,5.3-4.541,6Z" fill="#4285f4"/>
      <path id="Path_154564" data-name="Path 154564" d="M90.318,89.823s1.532-6.032,4.342-5.68c0,0-1.043,4.606-4.212,6.6Z" fill="#4285f4"/>
      <path id="Path_154565" data-name="Path 154565" d="M89.822,84.855s1.459-5.035,4.212-5.337c0,0-.936,4.933-4.1,6.626Z" fill="#4285f4"/>
      <path id="Path_154566" data-name="Path 154566" d="M89.311,80.236S91.178,75.182,93,75c0,0-.706,4.933-3.473,6.046Z" fill="#4285f4"/>
      <path id="Path_154567" data-name="Path 154567" d="M88.917,75.924s1.059-5.454,2.86-5.971c0,0-.078,4.43-2.661,6.367Z" fill="#4285f4"/>
      <path id="Path_154568" data-name="Path 154568" d="M88.015,70.3s1.166-4.359,2.615-5.071c0,0-.1,5.089-2.232,6.111Z" fill="#4285f4"/>
      <path id="Path_154569" data-name="Path 154569" d="M87.305,66.613l-.559-7.587s2.969,5.628.806,8.913Z" fill="#4285f4"/>
      <path id="Path_154570" data-name="Path 154570" d="M84.887,59.144s-2.194-5.469-2.68-5.76c0,0,4.02,3.446,3.829,8.092Z" fill="#4285f4"/>
      <path id="Path_154571" data-name="Path 154571" d="M103.373,118.225s-3.507-.322-3.214,4.606c0,0,3.174.383,4.047-3.725Z" fill="#4285f4"/>
      <path id="Path_154572" data-name="Path 154572" d="M99.936,114.283s-4.034.142-3.511,5.169c0,0,3.408.475,4.344-4.254Z" fill="#4285f4"/>
      <path id="Path_154573" data-name="Path 154573" d="M97.547,110.734s-3.727-1.577-5.9,2.942c0,0,3.436,1.3,6.251-2.24Z" fill="#4285f4"/>
      <path id="Path_154574" data-name="Path 154574" d="M95.083,106.531s-3.819-1.683-5.854,2.73c0,0,3.957,1.195,6.189-2.056Z" fill="#4285f4"/>
      <path id="Path_154575" data-name="Path 154575" d="M93.613,102.855s-3.739-3.308-6.484.287c0,0,3.794,2.694,6.679.473Z" fill="#4285f4"/>
      <path id="Path_154576" data-name="Path 154576" d="M92.223,98.089s-3.766-3.387-6.48.41c0,0,4.185,2.736,6.637.324Z" fill="#4285f4"/>
      <path id="Path_154577" data-name="Path 154577" d="M91.381,93.817s-2.965-4.292-6.218-3.186c0,0,3.078,4.549,6.226,4.212Z" fill="#4285f4"/>
      <path id="Path_154578" data-name="Path 154578" d="M90.4,89.793s-3.031-5.437-5.657-4.372c0,0,2.194,4.183,5.766,5.3Z" fill="#4285f4"/>
      <path id="Path_154579" data-name="Path 154579" d="M90,84.565s-3.063-4.252-5.755-3.614c0,0,2.535,4.332,6.084,4.866Z" fill="#4285f4"/>
      <path id="Path_154580" data-name="Path 154580" d="M89.614,80.123s-2.431-4.809-4.26-4.786c0,0,1.265,4.82,4.139,5.611Z" fill="#4285f4"/>
      <path id="Path_154581" data-name="Path 154581" d="M89,75.813s-2.68-4.863-4.56-4.8c0,0,1.44,4.191,4.493,5.24Z" fill="#4285f4"/>
      <path id="Path_154582" data-name="Path 154582" d="M88.427,70.589s-2.023-4.032-3.586-4.436c0,0,1.124,4.964,3.423,5.533Z" fill="#4285f4"/>
      <path id="Path_154583" data-name="Path 154583" d="M87.077,66.482l-4.415-6.2s1.309,6.226,5.069,7.38Z" fill="#4285f4"/>
      <path id="Path_154584" data-name="Path 154584" d="M83.951,59.692S78.974,56.531,78.782,56c0,0,2.653,4.6,7.256,5.244Z" fill="#4285f4"/>
      <path id="Path_154585" data-name="Path 154585" d="M83.6,58.2s-5.77-5.136-7.19-5.077a9.1,9.1,0,0,1,7.313,4.786Z" fill="#4285f4"/>
      <path id="Path_154586" data-name="Path 154586" d="M88.4,71.39l-.2.034c-1.359-8.146-3.063-12.926-4.815-13.458l.059-.191C85.3,58.329,87.01,63.04,88.4,71.39Z" fill="#444053"/>
      <path id="Path_154587" data-name="Path 154587" d="M90.69,90.9l-.3.038c-.094-.766-.172-1.543-.237-2.32C89.6,81.852,88.911,75.648,88.137,71l.168-.226c.766,4.65,1.6,11.038,2.156,17.8C90.517,89.367,90.6,90.146,90.69,90.9Z" fill="#444053"/>
      <path id="Path_154588" data-name="Path 154588" d="M115.567,127.065a39.92,39.92,0,0,1-11.358-7.753,44.489,44.489,0,0,1-8.51-11.127,51.9,51.9,0,0,1-5.385-17.858l.325.138A47.071,47.071,0,0,0,104.478,119a39.622,39.622,0,0,0,11.238,7.683Z" fill="#444053"/>
      <g id="Group_167238" data-name="Group 167238" opacity="0.7">
        <path id="Path_154589" data-name="Path 154589" d="M119.379,120.82a4.792,4.792,0,0,1,4.269.726s-.971,1.059-3.561.232Z" fill="#4285f4"/>
        <path id="Path_154590" data-name="Path 154590" d="M119.1,120.825a4.793,4.793,0,0,0-.142,4.33s1.231-.741.938-3.446Z" fill="#4285f4"/>
        <path id="Path_154591" data-name="Path 154591" d="M117.122,117.8s.712-2.02,5.169-.078a2.308,2.308,0,0,1-2.14,1.532A2.767,2.767,0,0,1,117.122,117.8Z" fill="#4285f4"/>
        <path id="Path_154592" data-name="Path 154592" d="M116.842,117.714s-2.138.1-1.562,4.937a2.3,2.3,0,0,0,2.073-1.612A2.779,2.779,0,0,0,116.842,117.714Z" fill="#4285f4"/>
        <path id="Path_154593" data-name="Path 154593" d="M115,114.076s.651-3.461,5.311-1.83c0,0-.492,3.159-4.69,2.872Z" fill="#4285f4"/>
        <path id="Path_154594" data-name="Path 154594" d="M112.887,109.4s1.69-3.666,6.126-1.237c0,0-.879,3.325-5.6,2.36Z" fill="#4285f4"/>
        <path id="Path_154595" data-name="Path 154595" d="M111.66,104.818s2.106-3.456,6.509-1.055c0,0-2.029,3.063-6.383,1.83Z" fill="#4285f4"/>
        <path id="Path_154596" data-name="Path 154596" d="M110.525,100.366s2.117-3.6,6.346-1.2c0,0-2.514,3.279-6.226,1.945Z" fill="#4285f4"/>
        <path id="Path_154597" data-name="Path 154597" d="M110.109,96.314s2.106-4.528,6.057-2.332c0,0-2.4,3.988-5.935,3.107Z" fill="#4285f4"/>
        <path id="Path_154598" data-name="Path 154598" d="M109.989,91.525s2.278-4.522,6.185-1.972c0,0-2.9,4.07-6.065,2.713Z" fill="#4285f4"/>
        <path id="Path_154599" data-name="Path 154599" d="M110.287,87.177s2.856-4.365,6.138-3.341c0,0-2.965,4.625-6.126,4.376Z" fill="#4285f4"/>
        <path id="Path_154600" data-name="Path 154600" d="M110.857,83.009s3.254-5.3,5.835-4.129c0,0-2.368,4.085-5.983,5.052Z" fill="#4285f4"/>
        <path id="Path_154601" data-name="Path 154601" d="M111.865,78.118s2.891-4.371,5.605-3.842c0,0-2.36,4.432-5.885,5.108Z" fill="#4285f4"/>
        <path id="Path_154602" data-name="Path 154602" d="M112.749,73.554s3.287-4.271,5.077-3.9c0,0-2.142,4.5-5.113,4.74Z" fill="#4285f4"/>
        <path id="Path_154603" data-name="Path 154603" d="M113.655,69.323s2.632-4.891,4.508-4.849c0,0-1.394,4.212-4.438,5.288Z" fill="#4285f4"/>
        <path id="Path_154604" data-name="Path 154604" d="M114.468,63.687s2.408-3.813,4-4.064c0,0-1.608,4.83-3.949,5.169Z" fill="#4285f4"/>
        <path id="Path_154605" data-name="Path 154605" d="M114.885,59.955l1.723-7.407s1.162,6.254-1.876,8.755Z" fill="#4285f4"/>
        <path id="Path_154606" data-name="Path 154606" d="M114.8,52.1s-.467-5.875-.848-6.3c0,0,2.82,4.491,1.244,8.864Z" fill="#4285f4"/>
        <path id="Path_154607" data-name="Path 154607" d="M114.873,114.012s-3.254-1.353-4.438,3.446c0,0,2.912,1.319,4.977-2.353Z" fill="#4285f4"/>
        <path id="Path_154608" data-name="Path 154608" d="M112.762,109.224s-3.892-1.064-4.891,3.9c0,0,3.111,1.468,5.414-2.768Z" fill="#4285f4"/>
        <path id="Path_154609" data-name="Path 154609" d="M111.538,105.125s-3.088-2.615-6.509,1.055c0,0,2.893,2.265,6.633-.28Z" fill="#4285f4"/>
        <path id="Path_154610" data-name="Path 154610" d="M110.435,100.381s-3.143-2.743-6.4.869c0,0,3.421,2.316,6.52-.124Z" fill="#4285f4"/>
        <path id="Path_154611" data-name="Path 154611" d="M110.126,96.431s-2.586-4.271-6.275-1.656c0,0,2.82,3.7,6.235,2.439Z" fill="#4285f4"/>
        <path id="Path_154612" data-name="Path 154612" d="M110.219,91.467s-2.588-4.351-6.318-1.532c0,0,3.182,3.858,6.241,2.284Z" fill="#4285f4"/>
        <path id="Path_154613" data-name="Path 154613" d="M110.682,87.137s-1.553-4.977-4.989-4.891c0,0,1.587,5.261,4.69,5.883Z" fill="#4285f4"/>
        <path id="Path_154614" data-name="Path 154614" d="M110.944,83s-1.277-6.092-4.1-5.856c0,0,.85,4.646,3.928,6.775Z" fill="#4285f4"/>
        <path id="Path_154615" data-name="Path 154615" d="M112.123,77.894s-1.66-4.977-4.42-5.169c0,0,1.133,4.893,4.361,6.457Z" fill="#4285f4"/>
        <path id="Path_154616" data-name="Path 154616" d="M113.071,73.539s-.89-5.314-2.644-5.833c0,0-.226,4.977,2.284,6.589Z" fill="#4285f4"/>
        <path id="Path_154617" data-name="Path 154617" d="M113.779,69.243s-1.116-5.441-2.925-5.935c0,0,.126,4.428,2.732,6.339Z" fill="#4285f4"/>
        <path id="Path_154618" data-name="Path 154618" d="M114.774,64.086s-.733-4.451-2.106-5.3c0,0-.4,5.075,1.622,6.3Z" fill="#4285f4"/>
        <path id="Path_154619" data-name="Path 154619" d="M114.709,59.757l-2.372-7.227s-.6,6.335,2.644,8.555Z" fill="#4285f4"/>
        <path id="Path_154620" data-name="Path 154620" d="M113.743,52.351s-3.812-4.5-3.829-5.066c0,0,1.166,5.169,5.36,7.164Z" fill="#4285f4"/>
        <path id="Path_154621" data-name="Path 154621" d="M113.853,50.821s-3.98-6.622-5.36-6.988a9.079,9.079,0,0,1,5.552,6.746Z" fill="#4285f4"/>
        <path id="Path_154622" data-name="Path 154622" d="M114.514,64.838l-.2-.029c1.126-8.18.915-13.253-.593-14.281l.117-.168C115.438,51.448,115.669,56.453,114.514,64.838Z" fill="#444053"/>
        <path id="Path_154623" data-name="Path 154623" d="M110.892,84.15l-.3-.056c.138-.756.293-1.532.465-2.286,1.486-6.622,2.68-12.752,3.314-17.421l.228-.165c-.643,4.669-1.754,11.016-3.243,17.645C111.185,82.633,111.028,83.4,110.892,84.15Z" fill="#444053"/>
        <path id="Path_154624" data-name="Path 154624" d="M123.884,126.078a39.893,39.893,0,0,1-8.536-10.78,44.423,44.423,0,0,1-4.822-13.156,51.953,51.953,0,0,1,.17-18.65l.27.228a47.07,47.07,0,0,0,4.723,31.362,39.5,39.5,0,0,0,8.444,10.677Z" fill="#444053"/>
      </g>
      <path id="Path_154625" data-name="Path 154625" d="M78.133,108.443a7.321,7.321,0,0,1-1.4.417,14.064,14.064,0,0,1-2.533.239c.025.224.044.433.063.622.046.521.073.879.073.879l-.9-.061-7.4-.505-4.33-.641a8.092,8.092,0,0,0,.68.8,3.6,3.6,0,0,0,.865.672s3.907,3.164,4.583,3.193c.1,0,.126.1.111.247,1.644,0,6.758.239,5.339,3.086a2.269,2.269,0,0,1-1.162,1.131c-1.641.695-4.116-.555-5.391-1.323-.124.243-.243.469-.348.662-.216.408-.368.678-.368.678l-.128-.092-6.57-4.679-1.44-1.221a5.024,5.024,0,0,1-1.246-.216h0l-.191-.061a.472.472,0,0,0-.021.052,2.687,2.687,0,0,0-.117.459v.069a5.385,5.385,0,0,0-.054.538c0,.123-.01.253-.01.383a36.1,36.1,0,0,0,1.034,6.8s2.709,6.909,1.748,8.5h0a.712.712,0,0,1-.191.207,1.9,1.9,0,0,0-.647,1.2,12.158,12.158,0,0,0,.27,4.275s-.057.1-.155.245a7.445,7.445,0,0,1-.712.957c-.04.046-.082.094-.126.138a3.48,3.48,0,0,1-.383.345c.025.075.052.151.078.234s.061.211.088.325A4.668,4.668,0,0,1,57,139.813a7.751,7.751,0,0,0-.482,2.024h0a15.474,15.474,0,0,0,.1,3.81c-.029-.015-.054-.031-.082-.044q-3.176-1.66-6.262-3.467c-.6-.348-1.2-.7-1.8-1.062q-1.1-.663-2.188-1.34-1.436-.9-2.872-1.836l-.448-.3-.172-.117c-.243-.163-.482-.325-.724-.49a36.747,36.747,0,0,1-2.707-4.02c-.136-.243-.258-.475-.36-.687v-.011l-.065-.14-.27-.1h0c-.507-.178-.829-.3-.829-.3h0a9.408,9.408,0,0,0,.333-2.623,7.943,7.943,0,0,0-2.458-5.861,9.629,9.629,0,0,1-3.344-6.492v-.191a2.539,2.539,0,0,1,.011-.262l.222-.213c-.563-.113-1.091-.165-1.091-.165s1.926-6.968,5.169-9.294a15.229,15.229,0,0,0,3.892-4.706,71.3,71.3,0,0,1,5.8-8.5l.584-.737.17-.216.036-.044.046-.061c-.079-.12-.16-.239-.241-.356l-.054-.078a1.948,1.948,0,0,1-.438-1.223V90.6a1.429,1.429,0,0,1,.042-.226.253.253,0,0,0,.023.034c.274-.8,1.329-1.149,2.106-1.589,1.832-1.03,2.613-3.283,3.006-5.38.3-1.631.557-3.459,1.821-4.506.816-.674,1.914-.9,2.74-1.564a5.136,5.136,0,0,0,1.164-1.5c.191-.325.356-.662.534-.988a9.956,9.956,0,0,1,3.3-3.722,5.493,5.493,0,0,1,4.773-.632c.6.228,1.149.574,1.723.829a6.7,6.7,0,0,0,1.1.341,19.128,19.128,0,0,1,3.5.833c1.786.793,2.948,2.546,4.009,4.212a20,20,0,0,1,1.9,3.388V80a4.871,4.871,0,0,1,.383,1.761,2.672,2.672,0,0,1-.082.766,2.195,2.195,0,0,1-1.191,1.365l-.09.044a3.854,3.854,0,0,1-.371.167c-.019.105-.04.213-.063.316-.01.044-.021.09-.033.134-.025.107-.054.212-.084.318a7.371,7.371,0,0,1-2.3,3.511,7.714,7.714,0,0,1-2.569,1.455c-.067.023-.138.04-.2.061a1.661,1.661,0,0,1-.241.446,1.289,1.289,0,0,1-.26.251,1.728,1.728,0,0,1-.191.111.311.311,0,0,1-.052.025,2.505,2.505,0,0,1-2.3-.4c-.034-.023-.067-.05-.1-.075a2.193,2.193,0,0,1-.036.343c-.019.119-.033.191-.054.291s-.029.147-.042.218-.023.119-.034.174l-.023.1a15.03,15.03,0,0,1-2.133,5.188,7.493,7.493,0,0,1-.484.653l-.475.724v.1a8.247,8.247,0,0,1-1.231,4.554,13.18,13.18,0,0,1-.852,1.281l.107.063c1.072.611,3.186,1.7,4.522,1.6,0,0,5.054.653,5.64.325.08-.046.159.017.232.153a11.692,11.692,0,0,1,4.181-1.692,1.629,1.629,0,0,1,2.039,1.531A2.417,2.417,0,0,1,78.133,108.443Z" fill="url(#linear-gradient-2)"/>
      <path id="Path_154626" data-name="Path 154626" d="M50.468,134.767a4.2,4.2,0,0,1,.276,3.681,9.346,9.346,0,0,0-.469,3.685c-.6-.348-1.2-.7-1.8-1.062q-1.1-.663-2.188-1.34-1.435-.9-2.872-1.836l-.448-.3-.172-.117a.353.353,0,0,0-.056-.077,34.72,34.72,0,0,1-2.64-4.043c-.161-.3-.3-.574-.412-.827v-.013a1.618,1.618,0,0,1-.224-.921,1.892,1.892,0,0,1,.928-1.149c1.1-.574,2.872-.044,4.621.8a31.81,31.81,0,0,1,4.315,2.628l.155.113L49.5,134c.574.408.907.678.907.678A.8.8,0,0,1,50.468,134.767Z" fill="#fbbebe"/>
      <path id="Path_154627" data-name="Path 154627" d="M50.177,134.512a4.2,4.2,0,0,1,.276,3.685,9.358,9.358,0,0,0-.469,3.687q-.9-.526-1.8-1.064-1.1-.663-2.188-1.34c-.957-.6-1.914-1.212-2.862-1.838l-.448-.3-.172-.117a.39.39,0,0,0-.056-.077,34.3,34.3,0,0,1-2.64-4.043c-.161-.3-.3-.574-.412-.827v-.011a1.625,1.625,0,0,1-.224-.923,1.892,1.892,0,0,1,.928-1.149c1.1-.574,2.872-.044,4.621.8a31.813,31.813,0,0,1,4.315,2.628l.155.113.015.011c.574.408.907.678.907.678Z" opacity="0.05"/>
      <path id="Path_154628" data-name="Path 154628" d="M57.226,139.154a4.681,4.681,0,0,1-.27.957,7.574,7.574,0,0,0-.435,1.723h0a15.211,15.211,0,0,0,.015,3.766q-3.176-1.661-6.262-3.467c-.6-.348-1.2-.7-1.8-1.062a5.517,5.517,0,0,0-.542-2.135,38.322,38.322,0,0,1-2.906-4.436c-.13-.23-.243-.452-.348-.662v-.01c-.04-.084-.078-.165-.115-.245a1.555,1.555,0,0,1,.462-2.337c1.7-1.241,5.228.438,7.939,2.106l.067.04c.513.32,1,.636,1.436.93l.255.172c1.122.766,1.867,1.361,1.867,1.361a4.088,4.088,0,0,1,.442.915,4.818,4.818,0,0,1,.159.555A4.617,4.617,0,0,1,57.226,139.154Z" fill="#fbbebe"/>
      <path id="Path_154629" data-name="Path 154629" d="M40.111,133.36a19.065,19.065,0,0,0,4.564,1.149,2.118,2.118,0,0,0,.347-.017h0a40.018,40.018,0,0,1,5.439.266c.892.078,1.752.161,2.462.234l1.784.191v-.689c-.5-.341-1.072-.72-1.689-1.1-2.72-1.681-6.3-3.4-8.006-2.148-2.41-1.164-4.857-1.723-5.552.348A3.726,3.726,0,0,0,40.111,133.36Z" opacity="0.1"/>
      <path id="Path_154630" data-name="Path 154630" d="M33.424,117.316a9.636,9.636,0,0,0,3.2,6.415c3.534,3.446,2.027,8.4,2.027,8.4s4.212,1.654,6.028,1.7a2.117,2.117,0,0,0,.347-.017,65.529,65.529,0,0,1,7.908.5l1.784.191V119.854L35.2,115.114l-1.767,1.761a3.4,3.4,0,0,0-.008.44Z" fill="#5c5c8e"/>
      <path id="Path_154631" data-name="Path 154631" d="M40.354,131.672" fill="none"/>
      <g id="Group_167239" data-name="Group 167239" opacity="0.1">
        <path id="Path_154632" data-name="Path 154632" d="M54.394,134.322l.32.033v.157l-1.784-.191c-1.786-.18-4.516-.437-6.318-.511A72.053,72.053,0,0,1,54.394,134.322Z"/>
        <path id="Path_154633" data-name="Path 154633" d="M33.431,116.885l1.767-1.761,1.179.285L34.9,116.885a3.589,3.589,0,0,0,0,.44,9.636,9.636,0,0,0,3.2,6.415c3.534,3.446,2.027,8.4,2.027,8.4a33.353,33.353,0,0,0,5.481,1.65,4.791,4.791,0,0,0-.574.032,2.118,2.118,0,0,1-.347.017c-1.817-.046-6.028-1.7-6.028-1.7s1.507-4.953-2.027-8.4a9.611,9.611,0,0,1-3.209-6.409A3.67,3.67,0,0,1,33.431,116.885Z"/>
      </g>
      <path id="Path_154634" data-name="Path 154634" d="M72.428,106.97s5.9-4.093,6.333-.41-6.333,3.167-6.333,3.167Z" fill="#fbbebe"/>
      <path id="Path_154635" data-name="Path 154635" d="M62.251,104.256s3.191,2.106,4.958,1.981c0,0,4.824.647,5.385.324s.906,4.675.906,4.675l-7.928-.561-5.085-.775s-2.542-1.551-2.542-2.887S62.251,104.256,62.251,104.256Z" fill="#f7cddd"/>
      <path id="Path_154636" data-name="Path 154636" d="M62.251,104.256s3.191,2.106,4.958,1.981c0,0,4.824.647,5.385.324s.906,4.675.906,4.675l-7.928-.561-5.085-.775s-2.542-1.551-2.542-2.887S62.251,104.256,62.251,104.256Z" fill="#4285f4"/>
      <path id="Path_154637" data-name="Path 154637" d="M66.93,114.908s7.177-.3,5.569,3.046-7.045-.716-7.045-.716Z" fill="#fbbebe"/>
      <path id="Path_154638" data-name="Path 154638" d="M59.712,107.787s5.816-4.351,5-9.651-5,4.051-5,4.051Z" fill="#5c5c8e"/>
      <path id="Path_154639" data-name="Path 154639" d="M61.324,83.764a7.36,7.36,0,0,0,4.595,6.813,6.68,6.68,0,0,0,.946.314,7.533,7.533,0,0,0,1.043.191c.253.025.507.038.766.038a7.271,7.271,0,0,0,2.414-.419,7.351,7.351,0,1,0-9.764-6.937Z" fill="#fbbebe"/>
      <path id="Path_154640" data-name="Path 154640" d="M33.424,117.316c.659.121,1.472.343,1.472.683,0,.574,9.189,3.678,9.189,3.678s-.345.8.574,2.182,8.391,9.306,8.391,9.306l-.025.234-.1.913-.456,4.367a15.1,15.1,0,0,1,3.791-.919,1.251,1.251,0,0,0,.917-.429,4.394,4.394,0,0,0-.6-1.468s-.745-.586-1.868-1.361V119.854l-19.515-4.74-1.767,1.761a3.4,3.4,0,0,0-.008.44Z" opacity="0.1"/>
      <path id="Path_154641" data-name="Path 154641" d="M32.6,116.506s2.3.228,2.3.8,9.189,3.678,9.189,3.678-.345.8.574,2.182,8.391,9.306,8.391,9.306l-.574,5.513a15.1,15.1,0,0,1,3.791-.919c.412.052.865-.329,1.241-.766a8.008,8.008,0,0,0,.829-1.181s-1.036-4.369.345-5.4S57.19,121.1,57.19,121.1s-1.3-5.391-.917-7.7a2.837,2.837,0,0,1,.111-.454.138.138,0,0,1,.017-.052c.819-2.209,9.633-20.743,9.633-20.743a13.32,13.32,0,0,0-.111-1.572c-.017-.146-.04-.3-.069-.448a7.572,7.572,0,0,0-.178-.817,4.46,4.46,0,0,0-.167-.5c-.272-.7-.689-1.239-1.313-1.252a3.812,3.812,0,0,0-2.3-.969,10.068,10.068,0,0,0-5.169.969c-5.4,2.3-6.662,2.412-6.662,2.412L47.35,93.528l-.559.731a70.27,70.27,0,0,0-5.535,8.4,15.01,15.01,0,0,1-3.716,4.654C34.437,109.614,32.6,116.506,32.6,116.506Z" fill="#4285f4"/>
      <path id="Path_154642" data-name="Path 154642" d="M52.732,103.222s-7.669,1.9-10.642,6.677Z" opacity="0.1"/>
      <path id="Path_154643" data-name="Path 154643" d="M50.363,111.622s-1.449,9.737-1.047,10.47S50.363,111.622,50.363,111.622Z" opacity="0.1"/>
      <path id="Path_154644" data-name="Path 154644" d="M50.881,116.62c.559.731,2.824,6.377,2.824,6.377l-.655,9.478-.574,5.513a15.1,15.1,0,0,1,3.792-.919c.41.052.865-.327,1.241-.766-.6-3.23-1.872-9.986-2.106-10.116a31.593,31.593,0,0,1-1.937-7.11c-.082-1.509-2.242-4.909-2.242-4.909S50.32,115.889,50.881,116.62Z" opacity="0.1"/>
      <path id="Path_154645" data-name="Path 154645" d="M53.05,107.315c.14.431.362,2.929.362,2.929a3.369,3.369,0,0,0,2.856,3.153,2.837,2.837,0,0,1,.111-.454c.689-1.951,9.651-20.794,9.651-20.794a12.324,12.324,0,0,0-.358-2.837c-1.951-.574-5.041.31-5.041.31-.892-.117-3.8,5.674-3.8,5.674s-1.941,4.436-2.154,5.039a10.953,10.953,0,0,0-.086,1.941c-.086.345-.994.643-1.122,1.12s-.044,1.419-.13,1.591A6.919,6.919,0,0,0,53.05,107.315Z" opacity="0.1"/>
      <path id="Path_154646" data-name="Path 154646" d="M53.74,106.97c.142.431.362,2.929.362,2.929a3.254,3.254,0,0,0,2.3,2.992,4.883,4.883,0,0,0,1.378.276l1.386,1.2,6.4,4.719s2.385-4.4,1.738-4.432-4.378-3.159-4.378-3.159c-1.149-.609-2.286-2.646-2.816-3.691a3.1,3.1,0,0,0,.069-.383C60.411,105.47,65.235,98,65.235,98a14.128,14.128,0,0,0,2.592-6.264c.021-.092.034-.191.052-.285a3.084,3.084,0,0,0,.038-.383c.086-1.564-1.051-2.133-2.4-2.269h0a9.7,9.7,0,0,0-2.106.065,15.147,15.147,0,0,0-2.068.406c-.574-.075-2,2.328-2.937,4.03h0c-.5.923-.865,1.644-.865,1.644s-1.951,4.438-2.169,5.041a10.413,10.413,0,0,0-.086,1.941c-.086.347-.994.643-1.12,1.12s-.046,1.419-.132,1.591A7.043,7.043,0,0,0,53.74,106.97Z" fill="#4285f4"/>
      <path id="Path_154647" data-name="Path 154647" d="M46.317,97.038a4.4,4.4,0,0,0,4.775.618,31.811,31.811,0,0,0,4.392-2.68c.957-.574,1.96-1.059,2.9-1.658h0c.138-.09.272-.18.4-.272,1.084-.766,2.02-1.748,3.14-2.45a4.886,4.886,0,0,1,2.523-.808,2.852,2.852,0,0,1,1.2.253,1.507,1.507,0,0,1,.191.1,5.222,5.222,0,0,1,1.015.766c.316.285.62.59.957.854.021-.092.034-.191.052-.285a3.085,3.085,0,0,0,.038-.383c.253.025.507.038.766.038a7.274,7.274,0,0,0,2.418-.429.6.6,0,0,1,.017-.094,5.767,5.767,0,0,1,1.937-3.794,14,14,0,0,1,2.69-1.024,7.351,7.351,0,1,0-13.853.8,10.068,10.068,0,0,0-5.169.969c-5.4,2.3-6.662,2.412-6.662,2.412l-2.7,3.561A3.043,3.043,0,0,1,48,94.945C48.065,95.908,47.131,96.576,46.317,97.038Z" opacity="0.1"/>
      <path id="Path_154648" data-name="Path 154648" d="M73.052,86.127a5.8,5.8,0,0,0-1.937,3.792,2.986,2.986,0,0,1-.444,1.286c-.618.8-1.863.574-2.671,0a15.779,15.779,0,0,0-2.345-1.855,4.044,4.044,0,0,0-3.725.557c-1.12.7-2.058,1.685-3.142,2.449-1.047.739-2.215,1.265-3.306,1.93a31.046,31.046,0,0,1-4.39,2.68,4.395,4.395,0,0,1-4.773-.616c.814-.452,1.748-1.12,1.685-2.087s-1.191-1.692-1.114-2.68,1.242-1.382,2.079-1.868c1.752-1.018,2.489-3.254,2.872-5.322.291-1.614.53-3.419,1.738-4.455.777-.668,1.832-.886,2.615-1.547a8.076,8.076,0,0,0,1.623-2.454,9.75,9.75,0,0,1,3.155-3.689,5.089,5.089,0,0,1,4.56-.622c.574.224,1.087.574,1.65.817,1.4.6,3,.525,4.386,1.16,1.706.785,2.814,2.519,3.829,4.166.867,1.407,2.563,3.9,2.089,5.716C77,85.34,74.317,85.24,73.052,86.127Z" fill="#7c5c5c"/>
      <g id="Group_167240" data-name="Group 167240" opacity="0.1">
        <path id="Path_154649" data-name="Path 154649" d="M46.89,91.461a1.209,1.209,0,0,1,.04-.224,3.433,3.433,0,0,1,.729,1.531,1.294,1.294,0,0,1-.033.392A3,3,0,0,1,46.89,91.461Z"/>
        <path id="Path_154650" data-name="Path 154650" d="M50.748,95.47a31.791,31.791,0,0,0,4.39-2.68c1.091-.664,2.259-1.191,3.306-1.93,1.084-.766,2.022-1.748,3.142-2.449a4.05,4.05,0,0,1,3.725-.557,15.424,15.424,0,0,1,2.345,1.855c.814.584,2.052.812,2.671.01a2.952,2.952,0,0,0,.444-1.285,5.778,5.778,0,0,1,1.937-3.794c1.267-.884,3.949-.785,4.436-2.651a2.878,2.878,0,0,0,.063-1.013,4.072,4.072,0,0,1,.283,2.391c-.488,1.867-3.17,1.767-4.438,2.651a5.807,5.807,0,0,0-1.937,3.794,2.962,2.962,0,0,1-.442,1.285c-.62.8-1.865.574-2.68-.01a15.6,15.6,0,0,0-2.345-1.855,4.05,4.05,0,0,0-3.725.557c-1.12.7-2.058,1.685-3.142,2.449-1.047.741-2.215,1.265-3.306,1.93a30.841,30.841,0,0,1-4.39,2.68,4.4,4.4,0,0,1-4.773-.618,5.978,5.978,0,0,0,.888-.59A5.1,5.1,0,0,0,50.748,95.47Z"/>
      </g>
      <path id="Path_154651" data-name="Path 154651" d="M175.423,76.676l-7.849-7.893a4.167,4.167,0,0,0-5.894-.065l-.025.025-49.288,48.871-20.84-21a4.156,4.156,0,0,0-5.877-.042l-7.936,7.846a4.212,4.212,0,0,0-.04,5.919l31.649,31.9a4.213,4.213,0,0,0,5.919.042L175.377,82.6a4.168,4.168,0,0,0,.067-5.894l-.023-.023Z" fill="#1dc9a0"/>
      <g id="Group_167241" data-name="Group 167241">
        <path id="Path_154652" data-name="Path 154652" d="M163.6,139.969s-5.854-.352-5.169,3.75a1,1,0,0,0,.521,1.053s0-.3.6-.2a2.675,2.675,0,0,0,.638.031,1.315,1.315,0,0,0,.777-.32h0s1.644-.68,2.286-3.371c0,0,.473-.586.454-.737l-.988.423a1.767,1.767,0,0,1,.073,1.3s-.033-1.279-.222-1.248c-.038,0-.513.247-.513.247a2.95,2.95,0,0,1,.142,2.144s.167-1.532-.323-2.054l-.695.406a3.07,3.07,0,0,1,.218,2.328,4.351,4.351,0,0,0-.366-2.228l-.63.49a3,3,0,0,1,.249,2.133s-.05-1.868-.383-2.01a3.837,3.837,0,0,0-.636.687s.436.917.167,1.4c0,0-.167-1.246-.3-1.25a4.132,4.132,0,0,0-.607,1.388,2.993,2.993,0,0,1,.473-1.468,1.655,1.655,0,0,0-.84.436s.084-.574.976-.636a3.855,3.855,0,0,1,.574-.662,3.6,3.6,0,0,0-1.424.165,1.6,1.6,0,0,1,1.585-.3l.622-.507a5.094,5.094,0,0,0-1.662.015,2.029,2.029,0,0,1,1.83-.132l.678-.4a6.145,6.145,0,0,0-1.589-.138,2.438,2.438,0,0,1,1.788.029l.484-.218s-.729-.144-.944-.165-.224-.082-.224-.082a2.522,2.522,0,0,1,1.369.153A6.226,6.226,0,0,0,163.6,139.969Z" fill="#86b0f1"/>
      </g>
      <g id="Group_167242" data-name="Group 167242">
        <path id="Path_154653" data-name="Path 154653" d="M153.091,111.318s-2.973,5.056,1,6.3a1,1,0,0,0,1.175.015s-.266-.147.092-.626a2.737,2.737,0,0,0,.318-.553,1.342,1.342,0,0,0,.067-.839h0s.14-1.775-1.966-3.567c0,0-.308-.689-.45-.741l-.071,1.077a1.768,1.768,0,0,1,1.2.528s-1.149-.551-1.214-.369c-.011.038-.013.574-.013.574a2.918,2.918,0,0,1,1.976.846s-1.286-.842-1.978-.643l.046.8a3.072,3.072,0,0,1,2.175.862,4.36,4.36,0,0,0-2.152-.687l.151.785a2.971,2.971,0,0,1,2.012.745s-1.687-.8-1.964-.574a4.452,4.452,0,0,0,.322.879s1.017.027,1.325.488c0,0-1.185-.417-1.252-.3a4.228,4.228,0,0,0,.957,1.172,3,3,0,0,1-1.093-1.089,1.659,1.659,0,0,0,0,.957s-.481-.341-.121-1.149a3.863,3.863,0,0,1-.331-.814,3.621,3.621,0,0,0-.5,1.34,1.6,1.6,0,0,1,.452-1.551l-.168-.785a5.188,5.188,0,0,0-.741,1.489,2.024,2.024,0,0,1,.714-1.69l-.054-.787a6.1,6.1,0,0,0-.842,1.352,2.434,2.434,0,0,1,.835-1.579l.027-.53s-.459.586-.574.766-.174.163-.174.163a2.516,2.516,0,0,1,.756-1.149A6.317,6.317,0,0,0,153.091,111.318Z" fill="#86b0f1"/>
      </g>
      <g id="Group_167243" data-name="Group 167243">
        <path id="Path_154654" data-name="Path 154654" d="M134.5,70.98s-2.971,5.058,1,6.3a1,1,0,0,0,1.175.015s-.266-.147.094-.626a2.708,2.708,0,0,0,.316-.553,1.328,1.328,0,0,0,.067-.839h0s.142-1.775-1.966-3.567c0,0-.308-.687-.45-.739l-.073,1.07a1.768,1.768,0,0,1,1.195.528s-1.149-.551-1.212-.369c-.013.038-.013.574-.013.574a2.916,2.916,0,0,1,1.974.846s-1.286-.842-1.978-.643l.048.8a3.064,3.064,0,0,1,2.173.861,4.384,4.384,0,0,0-2.152-.687l.151.785a2.973,2.973,0,0,1,2.014.747s-1.688-.8-1.966-.574a4.3,4.3,0,0,0,.324.877s1.015.027,1.323.488c0,0-1.185-.417-1.25-.3a4.148,4.148,0,0,0,.957,1.172,3,3,0,0,1-1.1-1.087,1.656,1.656,0,0,0,0,.946s-.48-.341-.121-1.158a3.863,3.863,0,0,1-.331-.814,3.628,3.628,0,0,0-.5,1.34,1.6,1.6,0,0,1,.454-1.551l-.17-.785a5.132,5.132,0,0,0-.739,1.489,2.017,2.017,0,0,1,.712-1.69l-.054-.787a6.06,6.06,0,0,0-.842,1.352,2.429,2.429,0,0,1,.835-1.577l.027-.532s-.459.586-.574.766-.174.163-.174.163a2.526,2.526,0,0,1,.766-1.149A6.046,6.046,0,0,0,134.5,70.98Z" fill="#86b0f1"/>
      </g>
      <g id="Group_167244" data-name="Group 167244">
        <path id="Path_154655" data-name="Path 154655" d="M70.486,32.674s-11.065,8.041-3.741,14.41a2.337,2.337,0,0,0,2.5,1.128s-.433-.563.783-1.252a6.267,6.267,0,0,0,1.191-.888,3.085,3.085,0,0,0,.925-1.723h0s1.957-3.664-.879-9.457c0,0-.017-1.759-.276-2L69.84,35.117A4.13,4.13,0,0,1,71.9,37.361s-1.955-2.257-2.251-1.914c-.059.067-.559,1.206-.559,1.206s2.889,1.375,3.436,3.649c0,0-1.968-3-3.637-3.22l-.649,1.763s3.122,1.3,3.846,3.869c0,0-2.167-3.063-3.963-3.475l-.406,1.821s3.021,1.331,3.609,3.469c0,0-2.872-3.289-3.674-3.046a8.975,8.975,0,0,0-.128,2.177s2.148,1.005,2.378,2.278c0,0-2.146-1.995-2.4-1.8a9.668,9.668,0,0,0,.969,3.4,7,7,0,0,1-1.327-3.346,3.872,3.872,0,0,0-.867,2.031s-.712-1.177.817-2.59a8.88,8.88,0,0,1,.054-2.048,8.435,8.435,0,0,0-2.322,2.406s.036-1.692,2.412-2.893l.368-1.836a12.016,12.016,0,0,0-2.967,2.489s.3-1.723,3.1-2.952l.62-1.733A14.449,14.449,0,0,0,65.3,39.172s.626-1.532,3.255-2.6l.549-1.11s-1.532.823-1.943,1.1-.526.191-.526.191A5.881,5.881,0,0,1,69.327,35,14.507,14.507,0,0,0,70.486,32.674Z" fill="#86b0f1"/>
      </g>
      <g id="Group_167245" data-name="Group 167245">
        <path id="Path_154656" data-name="Path 154656" d="M59.737,59.206s-14.314-6.019-16.19,4.834a2.643,2.643,0,0,0,.383,3.09s.293-.75,1.677.025a7.166,7.166,0,0,0,1.562.636,3.512,3.512,0,0,0,2.225-.119h0s4.706-.255,8.667-6.413c0,0,1.7-1.049,1.782-1.443L57,60.007a4.708,4.708,0,0,1-.957,3.323s1.043-3.224.542-3.314c-.1-.019-1.5.165-1.5.165s.362,3.612-1.532,5.481c0,0,1.757-3.674.992-5.416l-2.092.4s.574,3.8-1.5,6.009c0,0,1.7-3.9,1.045-5.889L50,61.44s.484,3.716-1.248,5.552c0,0,1.512-4.711.8-5.36a10.467,10.467,0,0,0-2.19,1.149s.287,2.68-.816,3.647c0,0,.678-3.254.343-3.388a10.959,10.959,0,0,0-2.736,2.939,7.961,7.961,0,0,1,2.472-3.255,4.383,4.383,0,0,0-2.489.35s.726-1.38,3-.726a9.887,9.887,0,0,1,2.02-1.149,9.644,9.644,0,0,0-3.7-.839s1.664-.957,4.225.641l2-.724S48.9,58.855,47.511,58.86c0,0,1.849-.716,4.686,1.275l2.048-.423A16.185,16.185,0,0,0,50.4,57.979s1.859-.3,4.438,1.637l1.4-.117s-1.7-1-2.209-1.242-.49-.4-.49-.4a6.68,6.68,0,0,1,3.287,1.581A16.258,16.258,0,0,0,59.737,59.206Z" fill="#86b0f1"/>
      </g>
      <g id="Group_167246" data-name="Group 167246">
        <path id="Path_154657" data-name="Path 154657" d="M51.166,44.009s-5.075-11.73-12.371-6.35a2.171,2.171,0,0,0-1.532,2.048s.6-.28.98.971a5.958,5.958,0,0,0,.574,1.265,2.881,2.881,0,0,0,1.39,1.2h0s2.941,2.531,8.806,1.128a5.762,5.762,0,0,0,1.882.159L49.1,42.923a3.851,3.851,0,0,1-2.466,1.424s2.456-1.321,2.209-1.66c-.05-.069-.984-.754-.984-.754s-1.844,2.351-4.02,2.387c0,0,3.138-1.183,3.674-2.651l-1.474-.957S44.189,43.3,41.7,43.438c0,0,3.235-1.35,3.976-2.9L44.1,39.805s-1.83,2.489-3.9,2.583c0,0,3.582-1.937,3.526-2.728A8.285,8.285,0,0,0,41.77,39.1s-1.353,1.752-2.561,1.7c0,0,2.257-1.549,2.133-1.819a8.946,8.946,0,0,0-3.3.191,6.527,6.527,0,0,1,3.321-.525,3.578,3.578,0,0,0-1.675-1.206s1.219-.408,2.194,1.273a8.316,8.316,0,0,1,1.857.467,7.815,7.815,0,0,0-1.723-2.607s1.532.383,2.146,2.789l1.6.71A11.15,11.15,0,0,0,44.1,36.86s1.507.628,2.058,3.427l1.453.917a13.424,13.424,0,0,0-1.3-3.222,5.307,5.307,0,0,1,1.7,3.5l.9.727s-.44-1.558-.607-1.995-.061-.517-.061-.517a5.5,5.5,0,0,1,1.051,2.81A13.163,13.163,0,0,0,51.166,44.009Z" fill="#86b0f1"/>
      </g>
      <g id="Group_167247" data-name="Group 167247">
        <path id="Path_154658" data-name="Path 154658" d="M150.08,50.115s-1.2-5.743-4.977-4a1,1,0,0,0-.881.779s.3-.071.352.526a2.765,2.765,0,0,0,.136.622,1.343,1.343,0,0,0,.515.666h0s1.087,1.409,3.85,1.321c0,0,.691.3.833.245l-.668-.842a1.769,1.769,0,0,1-1.239.412s1.225-.366,1.149-.542c-.017-.036-.373-.431-.373-.431a2.921,2.921,0,0,1-2.031.7s1.518-.241,1.9-.852l-.574-.565a3.069,3.069,0,0,1-2.19.821,4.36,4.36,0,0,0,2.056-.936l-.639-.479a3.01,3.01,0,0,1-1.993.8s1.79-.54,1.838-.9a3.8,3.8,0,0,0-.829-.433s-.766.662-1.307.528c0,0,1.149-.486,1.128-.62a4.111,4.111,0,0,0-1.5-.22,3.007,3.007,0,0,1,1.541.071,1.636,1.636,0,0,0-.641-.7s.586-.071.869.766a3.751,3.751,0,0,1,.791.383,3.669,3.669,0,0,0-.532-1.34,1.6,1.6,0,0,1,.706,1.453l.653.467a5.1,5.1,0,0,0-.452-1.6,2.014,2.014,0,0,1,.607,1.723l.574.548a6.146,6.146,0,0,0-.283-1.568,2.422,2.422,0,0,1,.44,1.723l.337.412s-.052-.741-.086-.957.019-.239.019-.239a2.526,2.526,0,0,1,.213,1.363A6.487,6.487,0,0,0,150.08,50.115Z" fill="#86b0f1"/>
      </g>
      <g id="Group_167248" data-name="Group 167248">
        <path id="Path_154659" data-name="Path 154659" d="M129.477,156.576s-1.2-5.743-4.977-4a1,1,0,0,0-.883.779s.3-.071.352.526a2.652,2.652,0,0,0,.138.622,1.34,1.34,0,0,0,.513.666h0s1.087,1.409,3.852,1.321c0,0,.691.3.831.245l-.666-.842a1.772,1.772,0,0,1-1.24.412s1.225-.366,1.149-.542c-.015-.036-.373-.431-.373-.431a2.921,2.921,0,0,1-2.031.7s1.52-.241,1.9-.852l-.574-.574a3.014,3.014,0,0,1-2.182.819,4.36,4.36,0,0,0,2.056-.936l-.639-.479a3,3,0,0,1-1.991.8s1.79-.538,1.838-.9a3.827,3.827,0,0,0-.829-.433s-.766.662-1.31.528c0,0,1.149-.486,1.128-.62a4.112,4.112,0,0,0-1.5-.22,3.014,3.014,0,0,1,1.543.071,1.654,1.654,0,0,0-.641-.7s.584-.071.867.766a3.742,3.742,0,0,1,.793.383,3.669,3.669,0,0,0-.532-1.34,1.6,1.6,0,0,1,.7,1.453l.655.467a5.127,5.127,0,0,0-.454-1.6,2.011,2.011,0,0,1,.609,1.723l.574.547a6.063,6.063,0,0,0-.285-1.568,2.416,2.416,0,0,1,.442,1.723l.337.411s-.054-.741-.088-.957.019-.237.019-.237a2.517,2.517,0,0,1,.212,1.361A7.213,7.213,0,0,0,129.477,156.576Z" fill="#86b0f1"/>
      </g>
    </g>
  </g>
</svg>
