<svg xmlns="http://www.w3.org/2000/svg" xmlns:xlink="http://www.w3.org/1999/xlink" width="262" height="196" viewBox="0 0 262 196">
  <defs>
    <linearGradient id="linear-gradient" x1="2.5" y1="6.654" x2="2.5" y2="6.664" gradientUnits="objectBoundingBox">
      <stop offset="0" stop-color="gray" stop-opacity="0.251"/>
      <stop offset="0.54" stop-color="gray" stop-opacity="0.122"/>
      <stop offset="1" stop-color="gray" stop-opacity="0.102"/>
    </linearGradient>
    <linearGradient id="linear-gradient-2" x1="1.577" y1="6.387" x2="1.577" y2="6.397" xlink:href="#linear-gradient"/>
    <linearGradient id="linear-gradient-3" x1="0.714" y1="6.523" x2="0.714" y2="6.533" xlink:href="#linear-gradient"/>
    <linearGradient id="linear-gradient-4" x1="3.135" y1="6.527" x2="3.135" y2="6.537" xlink:href="#linear-gradient"/>
    <linearGradient id="linear-gradient-5" x1="2.876" y1="24.86" x2="2.876" y2="24.902" xlink:href="#linear-gradient"/>
  </defs>
  <g id="card-18" transform="translate(324.218 381.797)">
    <rect id="Rectangle_8569" data-name="Rectangle 8569" width="262" height="196" transform="translate(-324.217 -381.797)" fill="#f6afc7"/>
    <g id="undraw_team_spirit_hrr4" data-name="undraw team spirit hrr4">
      <path id="Path_156997" data-name="Path 156997" d="M-291.057-288.336c3.164,12.332,9.864,22.992,20.452,28.159,22.013,10.739,71.627,5.2,108.662-1.157a86.978,86.978,0,0,0,48.226-25.139Z" fill="#ffccde"/>
      <path id="Path_156998" data-name="Path 156998" d="M-96.844-346.381h-20.32a1.608,1.608,0,0,1-1.76-1.439,1.609,1.609,0,0,1,1.44-1.761,1.709,1.709,0,0,1,.32,0h3.516a1.608,1.608,0,0,1-1.76-1.439,1.609,1.609,0,0,1,1.44-1.761,1.714,1.714,0,0,1,.32,0h-2.509a1.608,1.608,0,0,1-1.76-1.439,1.609,1.609,0,0,1,1.44-1.761,1.709,1.709,0,0,1,.32,0h10.606a30.065,30.065,0,0,0-8.273-2.078c-28.92-3.388-39.246-1.148-42.894,1.157a42.555,42.555,0,0,1-14.863,5.94c-17.843,3.356-51.212,7.394-81.458-1.294-15.032-4.316-26.2,2.989-32.9,15.173H-93.316a26.482,26.482,0,0,0-2.386-9.681A1.841,1.841,0,0,1-96.844-346.381Z" fill="#ffccde"/>
      <path id="Path_156999" data-name="Path 156999" d="M-292.781-314.075a74.557,74.557,0,0,0,.789,21.516l178.41,5.949a76.08,76.08,0,0,0,12.4-17.228Zm70.559,15.349h-3.517a1.61,1.61,0,0,1,1.761,1.44,1.608,1.608,0,0,1-1.44,1.76,1.567,1.567,0,0,1-.321,0H-246.05a1.608,1.608,0,0,1-1.76-1.44,1.609,1.609,0,0,1,1.44-1.76,1.714,1.714,0,0,1,.32,0h3.516a1.608,1.608,0,0,1-1.76-1.44,1.609,1.609,0,0,1,1.44-1.76,1.709,1.709,0,0,1,.32,0h-2.512a1.608,1.608,0,0,1-1.76-1.44,1.609,1.609,0,0,1,1.44-1.76,1.714,1.714,0,0,1,.32,0h20.32a1.61,1.61,0,0,1,1.761,1.44,1.608,1.608,0,0,1-1.44,1.76,1.567,1.567,0,0,1-.321,0h2.5a1.61,1.61,0,0,1,1.761,1.44,1.608,1.608,0,0,1-1.44,1.76,1.563,1.563,0,0,1-.321,0Z" fill="#ffccde"/>
      <path id="Path_157000" data-name="Path 157000" d="M-93.307-336.98l-194.78,4.319a65.459,65.459,0,0,0-4.668,18.341H-96.721a70.074,70.074,0,0,0,2.83-11.689A50.622,50.622,0,0,0-93.307-336.98Zm-159.9,14.153h-3.515a1.609,1.609,0,0,1,1.761,1.44,1.608,1.608,0,0,1-1.44,1.76,1.563,1.563,0,0,1-.321,0h-20.319a1.608,1.608,0,0,1-1.76-1.439,1.609,1.609,0,0,1,1.44-1.761,1.709,1.709,0,0,1,.32,0h3.516a1.608,1.608,0,0,1-1.76-1.439,1.609,1.609,0,0,1,1.44-1.761,1.714,1.714,0,0,1,.32,0h-2.51a1.608,1.608,0,0,1-1.76-1.439,1.609,1.609,0,0,1,1.44-1.761,1.709,1.709,0,0,1,.32,0h20.32a1.609,1.609,0,0,1,1.761,1.44,1.608,1.608,0,0,1-1.44,1.76,1.563,1.563,0,0,1-.321,0h2.51a1.609,1.609,0,0,1,1.761,1.44,1.608,1.608,0,0,1-1.44,1.76,1.567,1.567,0,0,1-.321,0Z" fill="#ffccde"/>
      <ellipse id="Ellipse_2398" data-name="Ellipse 2398" cx="13.225" cy="2.969" rx="13.225" ry="2.969" transform="translate(-189.653 -230.932)" fill="#f5a6c1"/>
      <ellipse id="Ellipse_2399" data-name="Ellipse 2399" cx="23.859" cy="1.958" rx="23.859" ry="1.958" transform="translate(-169.557 -220.491)" fill="#f5a6c1"/>
      <ellipse id="Ellipse_2400" data-name="Ellipse 2400" cx="23.859" cy="2.969" rx="23.859" ry="2.969" transform="translate(-265.352 -224.471)" fill="#f5a6c1"/>
      <ellipse id="Ellipse_2401" data-name="Ellipse 2401" cx="17.952" cy="2.969" rx="17.952" ry="2.969" transform="translate(-223.068 -239.335)" fill="#f5a6c1"/>
      <ellipse id="Ellipse_2402" data-name="Ellipse 2402" cx="14.371" cy="2.969" rx="14.371" ry="2.969" transform="translate(-214.476 -214.604)" fill="#f5a6c1"/>
      <path id="Path_157001" data-name="Path 157001" d="M-191.7-307a61.909,61.909,0,0,0-2.7-8.521h0c-.04-.176-.086-.351-.137-.527-1.647-5.661-3.927-6.153-3.927-6.153l-8.167-1.758a.623.623,0,0,1,.176.163c-.043,0-.085.011-.128.019a3.212,3.212,0,0,1-.715-1.547c-.016-.084-.03-.176-.04-.262a5.745,5.745,0,0,0,.1-8.124,5.8,5.8,0,0,0-.572-.513c-.086-.067-.176-.132-.262-.193a1.3,1.3,0,0,0,.109-1.549,5.4,5.4,0,0,0-3.481-2.6,5.9,5.9,0,0,0-3.379-.072,12.274,12.274,0,0,0-1.768.821,9.95,9.95,0,0,0-3.1,1.862.912.912,0,0,0-.309.747,2,2,0,0,0,.309.543,1.637,1.637,0,0,1,.015,1.361,13.6,13.6,0,0,0-.5,1.308,1.371,1.371,0,0,0,.272,1.313,5.577,5.577,0,0,0,.511.352,2.728,2.728,0,0,1,.487.547q.484.651.967,1.306a13.591,13.591,0,0,1,1.211,1.841,8.894,8.894,0,0,0,.749,1.406,2.057,2.057,0,0,0,.321.338l-.1-.037a1.465,1.465,0,0,0,1.075.438h.049a.3.3,0,0,0,.2-.081v.176c.019.628.016,1.3-.028,1.923l-.076-.039a.661.661,0,0,0-.7.074l-7.52,6.033a9.9,9.9,0,0,0-1.406,6.1l-1.318,5.789s-1.647,4.912-.38,8.419,2,5.513,2,5.513.507,3.985,1.267,4.31,1.09.5,1.09.5l.151.953h0s.051.093.141.25c.554.963,2.6,4.363,3.8,4a15.186,15.186,0,0,1,.193,2.793l1.18,7.92a11.6,11.6,0,0,1,.772,3.282,6.264,6.264,0,0,0,.96,2.737,5.231,5.231,0,0,0-.506,3.683c.482,2.11,1.09,11.827,1.09,11.827l.879,2.356-.025,2.762a2.624,2.624,0,0,1-.545,1.231c-.57.619-.527,1.334-1.9,2.18s-2.243,1.166-2.243,2.285a2.794,2.794,0,0,1-.042.466c-.127.823-.373,1.269,2.152,1.508a6.654,6.654,0,0,0,4.943-1.652s.436-.791,2.489-1.111c0,0,.7-.037.74-.657.014-.214.011-.624,0-1.076a6.608,6.608,0,0,0-.225-1.913,4.215,4.215,0,0,1-.459-1.239h.571a24.971,24.971,0,0,0,0-6.566,10.662,10.662,0,0,1-.051-4.411l-.1-6.816a1.947,1.947,0,0,1-.151-2.081c.552-1.329,0-7.893,0-7.893s.2-2.356.786-2.908.028-3.451,0-3.6l1.037,3.479s.455,6.916,1.42,8.167l.278,3.133s1.976,2.883,1.6,4.435.406,7.167.406,7.167v5.74s-.888,2.3.352,3.133l.527-.021c-.176.163-.311.41-.517.622a4.765,4.765,0,0,0-.448,1.974c-.063.677-.084,1.259-.084,1.259a2.076,2.076,0,0,0,1.521.9c.993.058,4.267,2.547,4.267,2.547a38.665,38.665,0,0,0,4.07-.176l.049-.012a1.094,1.094,0,0,0,.631-.515,1.314,1.314,0,0,0,.151-.948,2.365,2.365,0,0,0-1.364-1.5c-2.161-1.139-2.482-2.206-2.482-2.206l-1.419-2.129h.2a9.119,9.119,0,0,1,1.419-4.787l-.1-11.151s.633-3.834-.455-5.915c0,0-.09-2.2.638-2.881s-.969-7.517-.969-7.517-.351-3.672-.765-7.023h0c1.71,1.623,3.484-4.219,3.783-5.258h.044l-.019-.076c.012-.049.019-.074.019-.074h0s-.38-1.35-.1-1.076.963-.752.963-.752-.1-5.589,1.09-8.4S-191.7-307-191.7-307Zm-5.1,3.556.009-.016c.176,3.412-.033,10.694-.033,10.694s-.236.933-.487,2.032l-.176-6.917h0l-.176-6.517Zm-21.818-2.352s.861,10.774,0,12.328a8.156,8.156,0,0,0-.621,2.129,7.849,7.849,0,0,1-.672-3.432c.28-1.2-.557-4.361-.557-4.435a7.516,7.516,0,0,1,.527-3.045c.6-1.287.207-1.844.207-1.844s.506-2.109,1.115-1.7Z" fill="url(#linear-gradient)"/>
      <path id="Path_157002" data-name="Path 157002" d="M-216.521-281.53c-.751,3.3-3.736-1.689-4.416-2.887-.088-.156-.137-.248-.137-.248l.323-1.517,1.71-.7a4.8,4.8,0,0,1,.766.5A4.619,4.619,0,0,1-216.521-281.53Z" fill="#d38884"/>
      <path id="Path_157003" data-name="Path 157003" d="M-193.361-286.929a.208.208,0,0,1-.019.074.311.311,0,0,1-.023.079c-.294,1.03-2.034,6.83-3.715,5.219-1.839-1.758-.946-5.822-.946-5.822h.012l3.867-.4.766.788h0Z" fill="#d38884"/>
      <path id="Path_157004" data-name="Path 157004" d="M-195.6-258.389l.1,11.075a9.085,9.085,0,0,0-1.392,4.746l-5,.2c-1.22-.821-.352-3.108-.352-3.108v-5.7s-.772-5.571-.4-7.114-1.566-4.395-1.566-4.395l-.274-3.11c-.946-1.243-1.394-8.108-1.394-8.108l-1.014-3.467c.028.149.556,3.043,0,3.576s-.772,2.885-.772,2.885.547,6.518,0,7.835a1.942,1.942,0,0,0,.148,2.066l.1,6.766a10.6,10.6,0,0,0,.049,4.377,24.864,24.864,0,0,1,0,6.518h-5.363l.025-2.762-.868-2.338s-.6-9.651-1.071-11.741a5.252,5.252,0,0,1,.5-3.657,6.226,6.226,0,0,1-.944-2.711,11.56,11.56,0,0,0-.766-3.256l-1.157-7.86a15.258,15.258,0,0,0-.573-4.477c-.672-2.24-1.667-5.175-1.667-5.175l1.123.1,5.668.5s13.781-.926,14.4-.156a2.571,2.571,0,0,1,.26.8c.619,2.779,1.436,11.486,1.436,11.486s1.667,6.791.951,7.462-.628,2.858-.628,2.858C-194.974-262.208-195.6-258.389-195.6-258.389Z" fill="#444053"/>
      <path id="Path_157005" data-name="Path 157005" d="M-207.249-239.152c-.039.617-.726.654-.726.654-2.015.316-2.444,1.1-2.444,1.1a6.469,6.469,0,0,1-4.85,1.642c-2.479-.239-2.238-.68-2.11-1.5a2.957,2.957,0,0,0,.04-.461c0-1.12.858-1.438,2.2-2.285s1.306-1.549,1.865-2.164a3.425,3.425,0,0,0,.617-1.809c.633-1.1,2.238.176,2.238.176.076.39,2.461.336,2.461.336a5.277,5.277,0,0,0,.48,1.343,6.554,6.554,0,0,1,.22,1.9C-207.238-239.77-207.235-239.364-207.249-239.152Z" fill="#b07473"/>
      <path id="Path_157006" data-name="Path 157006" d="M-207.249-239.151c-.039.617-.726.654-.726.654-2.015.316-2.444,1.1-2.444,1.1a6.469,6.469,0,0,1-4.85,1.642c-2.479-.239-2.238-.68-2.11-1.5,1.107.274,3.224.657,4.46-.014,1.718-.932,2.95-1.582,2.95-1.582l2.714-1.366C-207.238-239.77-207.235-239.364-207.249-239.151Z" opacity="0.1"/>
      <path id="Path_157007" data-name="Path 157007" d="M-192.066-235.831a1.069,1.069,0,0,1-.619.512l-.047.012a37.238,37.238,0,0,1-3.994.176s-3.208-2.48-4.179-2.537a2.043,2.043,0,0,1-1.492-.9s.019-.577.081-1.248a4.793,4.793,0,0,1,.441-1.96c.429-.448.527-1.055,1.492-.672,0,0,1.378-2.43,3-.552l1.681,2.549s.316,1.055,2.445,2.2a2.361,2.361,0,0,1,1.338,1.485A1.3,1.3,0,0,1-192.066-235.831Z" fill="#b07473"/>
      <path id="Path_157008" data-name="Path 157008" d="M-192.066-235.831c-.19.16-.4.332-.619.512l-.047.012a37.238,37.238,0,0,1-3.994.176s-3.208-2.48-4.179-2.537a2.043,2.043,0,0,1-1.492-.9s.019-.577.081-1.248a6.93,6.93,0,0,1,2.885,1.38,12.227,12.227,0,0,0,2.484,2.052s3.484-.336,5.031-.381A1.308,1.308,0,0,1-192.066-235.831Z" opacity="0.1"/>
      <path id="Path_157009" data-name="Path 157009" d="M-205.625-322.637l-4.588,4.85s-5.56-.41-4.59-2.052a9.214,9.214,0,0,0,.527-4.11c-.04-1.468-.192-2.718-.192-2.718s7.8-3.882,7.208-.262a5.974,5.974,0,0,0-.021,2.066A2.707,2.707,0,0,0-205.625-322.637Z" fill="#d38884"/>
      <path id="Path_157010" data-name="Path 157010" d="M-207.266-326.928a5.974,5.974,0,0,0-.021,2.066,5.721,5.721,0,0,1-4.082,1.7c-1.055,0-2.2-.867-3.048-1.368-.04-1.47-.049-2.139-.049-2.139S-206.669-330.547-207.266-326.928Z" opacity="0.1"/>
      <path id="Path_157011" data-name="Path 157011" d="M-205.624-329.2a5.747,5.747,0,0,1-5.745,5.749,5.747,5.747,0,0,1-5.749-5.745,5.748,5.748,0,0,1,5.746-5.749,5.747,5.747,0,0,1,3.586,1.255A5.746,5.746,0,0,1-205.624-329.2Z" fill="#d38884"/>
      <path id="Path_157012" data-name="Path 157012" d="M-197.806-286.077c-1.431,3.4-10.636,3.475-10.636,3.475v-3.713l-.557-.037a12.783,12.783,0,0,1-.338,3.657c-7.274,1.027-9.048-3.119-9.048-3.119l.253-1.419,5.668.5s13.781-.926,14.4-.156A2.559,2.559,0,0,1-197.806-286.077Z" opacity="0.1"/>
      <path id="Path_157013" data-name="Path 157013" d="M-208.442-283.049v-3.713L-209-286.8a12.783,12.783,0,0,1-.338,3.657c-5.474.772-7.833-1.383-8.665-2.5a3.451,3.451,0,0,1-.383-.619l2.222-12.5.527-18.4.8-3.228.185-1.549v-.018h.019l.566.243,3.388,1.464,3.848-2.906.056-.04.192-.146.318.255.791.635,2.537,16.382s4.4,12.613,5.218,17.7c.033.2.06.394.081.571C-197.1-283.136-208.442-283.049-208.442-283.049Z" fill="#f06292"/>
      <circle id="Ellipse_2403" data-name="Ellipse 2403" cx="0.327" cy="0.327" r="0.327" transform="translate(-210.598 -320.204)" fill="#67647e"/>
      <circle id="Ellipse_2404" data-name="Ellipse 2404" cx="0.327" cy="0.327" r="0.327" transform="translate(-210.446 -317.219)" fill="#67647e"/>
      <circle id="Ellipse_2405" data-name="Ellipse 2405" cx="0.327" cy="0.327" r="0.327" transform="translate(-210.119 -312.386)" fill="#67647e"/>
      <circle id="Ellipse_2406" data-name="Ellipse 2406" cx="0.327" cy="0.327" r="0.327" transform="translate(-209.58 -307.181)" fill="#67647e"/>
      <circle id="Ellipse_2407" data-name="Ellipse 2407" cx="0.327" cy="0.327" r="0.327" transform="translate(-209.253 -302.294)" fill="#67647e"/>
      <circle id="Ellipse_2408" data-name="Ellipse 2408" cx="0.327" cy="0.327" r="0.327" transform="translate(-208.926 -297.088)" fill="#67647e"/>
      <circle id="Ellipse_2409" data-name="Ellipse 2409" cx="0.327" cy="0.327" r="0.327" transform="translate(-209.056 -291.939)" fill="#67647e"/>
      <path id="Path_157014" data-name="Path 157014" d="M-214.437-296.939s-.366,4.787-1.037,6.179-.97,5.3-.97,5.3l-1.559-.176a3.454,3.454,0,0,1-.383-.619l2.222-12.5.527-18.4.8-3.229.185-1.549.021-.009a.629.629,0,0,1,.555.009l.074.039c-.022.064-.043.13-.063.2a29.92,29.92,0,0,0-.835,5.413s.879,6.418.97,9.4S-214.437-296.939-214.437-296.939Z" opacity="0.1"/>
      <path id="Path_157015" data-name="Path 157015" d="M-218.271-286.385a.848.848,0,0,1-.06.116,5.6,5.6,0,0,1-2.6,1.848c-.088-.156-.137-.248-.137-.248l.323-1.517,1.71-.7A4.789,4.789,0,0,1-218.271-286.385Z" opacity="0.1"/>
      <path id="Path_157016" data-name="Path 157016" d="M-222.415-310.809l-1.419.846-1.292,5.747s-1.617,4.875-.374,8.357,1.965,5.476,1.965,5.476.5,3.955,1.245,4.279,1.069.5,1.069.5l.149.946a5.9,5.9,0,0,0,2.741-1.9c.715-1.211-.527-4.219-.527-4.219s-1.069-2.563-.795-3.757-.548-4.328-.548-4.395a7.467,7.467,0,0,1,.527-3.024c.6-1.282.2-1.828.2-1.828l-.374-3.657Z" fill="#67647e"/>
      <path id="Path_157017" data-name="Path 157017" d="M-197.689-287.152s-3.757,1.417-4.95.176-1.071-7.065-1.071-7.065-1.143-10.746-1.865-12.511-.352-14.5-.352-14.5a7.715,7.715,0,0,0-.909-2.078.451.451,0,0,0-.09-.072l.146.032.51.109.791.635,2.534,16.378s4.4,12.613,5.218,17.7Z" opacity="0.1"/>
      <path id="Path_157018" data-name="Path 157018" d="M-193.361-286.779h-.042c-.473.061-4.646.566-4.664-.3a2.741,2.741,0,0,1,.016-.3l3.867-.4.766.788h0c.014.051.025.1.035.13Z" opacity="0.1"/>
      <path id="Path_157019" data-name="Path 157019" d="M-197.366-316.565l2.742,1.431a60.863,60.863,0,0,1,2.651,8.454s1.693,6.8.527,9.591-1.069,8.343-1.069,8.343-.672,1.02-.946.747.1,1.069.1,1.069-4.688.622-4.708-.3a48.47,48.47,0,0,1,1.076-5.323s.3-10.472-.125-12.114S-197.366-316.565-197.366-316.565Z" fill="#67647e"/>
      <path id="Path_157020" data-name="Path 157020" d="M-205.548-305.411s-1.543,3.78-2.041,4.029.1,1.243.1,1.243S-204.678-304.068-205.548-305.411Z" opacity="0.1"/>
      <path id="Path_157021" data-name="Path 157021" d="M-206.469-318.669c.018-.072-1.841,1.823-2.338,2.11S-206.991-316.577-206.469-318.669Z" opacity="0.1"/>
      <path id="Path_157022" data-name="Path 157022" d="M-211.644-305.709s-2.836,1.834-2.461,2.56S-211.644-305.709-211.644-305.709Z" opacity="0.1"/>
      <path id="Path_157023" data-name="Path 157023" d="M-206.494-278.945a15.177,15.177,0,0,0,6.169,1.93Z" opacity="0.1"/>
      <path id="Path_157024" data-name="Path 157024" d="M-212.291-275.213s2.238,2.813,3.259,2.885S-212.291-275.213-212.291-275.213Z" opacity="0.1"/>
      <path id="Path_157025" data-name="Path 157025" d="M-209.157-264.19c-.1.049-1.269,2.537-2.461,2.612S-209.157-264.19-209.157-264.19Z" opacity="0.1"/>
      <path id="Path_157026" data-name="Path 157026" d="M-198.784-258.74s2.219-.5,2.712,1.094C-196.071-257.652-196.221-258.15-198.784-258.74Z" opacity="0.1"/>
      <path id="Path_157027" data-name="Path 157027" d="M-200.277-249.642s2.688-.548,3.259.2S-200.277-249.642-200.277-249.642Z" opacity="0.1"/>
      <path id="Path_157028" data-name="Path 157028" d="M-207.88-248.369c0,.025-2.735.548-2.637.9s2.918.3,3.018-.25a.527.527,0,0,0-.373-.645l-.008,0Z" opacity="0.1"/>
      <path id="Path_157029" data-name="Path 157029" d="M-201.171-246.01s4.5-.548,4.219.4S-201.171-246.01-201.171-246.01Z" opacity="0.1"/>
      <path id="Path_157030" data-name="Path 157030" d="M-224.7-301.381c.025.074,2.96.473,3.358,1.419a25.329,25.329,0,0,0-3.34-1.345" opacity="0.1"/>
      <path id="Path_157031" data-name="Path 157031" d="M-220.573-293.7s-2.438.772-2.264,1.934S-223.086-292.3-220.573-293.7Z" opacity="0.1"/>
      <path id="Path_157032" data-name="Path 157032" d="M-221.71-287.775s.888-1.218,1.733-.995S-221.71-287.775-221.71-287.775Z" opacity="0.1"/>
      <path id="Path_157033" data-name="Path 157033" d="M-207.787-333.7a1.35,1.35,0,0,1-.285.213,3.287,3.287,0,0,0-1.231,1.768,3.751,3.751,0,0,1-1.282,1.749c-.81.489-1.877.309-2.72.735a2.112,2.112,0,0,0-1.125,2.08,6.093,6.093,0,0,0,.239.953,6.765,6.765,0,0,1,.257,2.069.321.321,0,0,1,0,.062,5.744,5.744,0,0,1-2.572-7.706,5.744,5.744,0,0,1,7.706-2.573,5.74,5.74,0,0,1,1.019.651Z" opacity="0.1"/>
      <path id="Path_157034" data-name="Path 157034" d="M-207.936-335.424A5.3,5.3,0,0,0-211.352-338a5.74,5.74,0,0,0-3.317-.07,12.4,12.4,0,0,0-1.735.814,9.861,9.861,0,0,0-3.04,1.85.928.928,0,0,0-.3.742,2.072,2.072,0,0,0,.3.538,1.628,1.628,0,0,1,.016,1.352,12.855,12.855,0,0,0-.5,1.3,1.369,1.369,0,0,0,.267,1.3,4.9,4.9,0,0,0,.5.352,2.638,2.638,0,0,1,.476.541l.949,1.3a13.113,13.113,0,0,1,1.188,1.827,8.786,8.786,0,0,0,.735,1.394,1.59,1.59,0,0,0,1.333.712.255.255,0,0,0,.211-.1.261.261,0,0,0,.026-.132,6.716,6.716,0,0,0-.251-2.062,6.1,6.1,0,0,1-.239-.953,2.119,2.119,0,0,1,1.125-2.08c.844-.425,1.911-.246,2.72-.733a3.725,3.725,0,0,0,1.282-1.758,3.314,3.314,0,0,1,1.231-1.768,1.236,1.236,0,0,0,.512-1.671A1.234,1.234,0,0,0-207.936-335.424Z" fill="#585268"/>
      <path id="Path_157035" data-name="Path 157035" d="M-210.51-241.5s.879,1.12.65,1.758S-210.51-241.5-210.51-241.5Z" opacity="0.1"/>
      <path id="Path_157036" data-name="Path 157036" d="M-198.617-238.7s.2-1.5.977-1.515a2.625,2.625,0,0,1,1.419.149c.6.23,1.159.587.979.64s-1.028-.858-1.9-.392A6.308,6.308,0,0,0-198.617-238.7Z" opacity="0.1"/>
      <path id="Path_157037" data-name="Path 157037" d="M-213.133-318.356l2.461-1.725s-3.6-2.127-4.029-1.828-.724,2.989-.724,2.989Z" opacity="0.1"/>
      <path id="Path_157038" data-name="Path 157038" d="M-213.145-318.468l2.461-1.758s-3.6-2.127-4.029-1.828-.724,3.136-.724,3.136Z" fill="#e1e7ef"/>
      <path id="Path_157039" data-name="Path 157039" d="M-213.145-318.468l2.461-1.758s-3.6-2.127-4.029-1.828-.724,3.136-.724,3.136Z" fill="#f06292"/>
      <path id="Path_157040" data-name="Path 157040" d="M-214.3-322.039l-.074-.037a.64.64,0,0,0-.691.072l-7.383,5.989a9.923,9.923,0,0,0-1.382,6.051l4.354,6.169s.5-2.088,1.093-1.691c0,0,.846,10.7,0,12.239s-1.218,7.313-1.218,7.313l2.86.323s.3-3.906.97-5.3,1.037-6.179,1.037-6.179.6-6.954.5-9.939-.97-9.4-.97-9.4A28.572,28.572,0,0,1-214.3-322.039Z" fill="#67647e"/>
      <path id="Path_157041" data-name="Path 157041" d="M-206.948-319.446l-3.068-1.136s3.906-4.279,4.4-1.906Z" opacity="0.1"/>
      <path id="Path_157042" data-name="Path 157042" d="M-206.948-319.6l-3.068-1.136s3.906-4.279,4.4-1.906Z" fill="#e1e7ef"/>
      <path id="Path_157043" data-name="Path 157043" d="M-206.948-319.6l-3.068-1.136s3.906-4.279,4.4-1.906Z" fill="#f06292"/>
      <path id="Path_157044" data-name="Path 157044" d="M-207.048-323.236a.177.177,0,0,1,.127.028Z" opacity="0.1"/>
      <path id="Path_157045" data-name="Path 157045" d="M-206.753-323.534l8.139,1.758s2.24.5,3.857,6.119-2.215,12.51-2.215,12.51l-.846-.719.424,16.417s-3.757,1.417-4.95.176-1.069-7.07-1.069-7.07-1.144-10.745-1.867-12.511-.352-14.5-.352-14.5S-206.3-323.632-206.753-323.534Z" fill="#67647e"/>
      <path id="Path_157046" data-name="Path 157046" d="M-199.306-313.072a46.631,46.631,0,0,0,.25,8.855,48.259,48.259,0,0,0,1.406,6.816l-.738-15.148S-198.958-313.395-199.306-313.072Z" opacity="0.1"/>
      <path id="Path_157047" data-name="Path 157047" d="M-200.3-317.35c.2.125,1.071,2.189.672,3.034S-200.3-317.35-200.3-317.35Z" opacity="0.1"/>
      <path id="Path_157048" data-name="Path 157048" d="M-207.984-335.428a4.491,4.491,0,0,0-1.79-1.874,4.247,4.247,0,0,1,1.341,1.582,1.251,1.251,0,0,1-.342,1.735c-.031.02-.062.039-.094.056a3.3,3.3,0,0,0-1.231,1.768,3.818,3.818,0,0,1-1.283,1.758c-.809.489-1.876.308-2.72.733a2.127,2.127,0,0,0-1.125,2.081,6.1,6.1,0,0,0,.241.951,6.765,6.765,0,0,1,.257,2.069.273.273,0,0,1-.028.132.248.248,0,0,1-.209.1,1.206,1.206,0,0,1-.614-.114,1.425,1.425,0,0,0,1.055.413.208.208,0,0,0,.236-.174.188.188,0,0,0,0-.058,6.733,6.733,0,0,0-.255-2.069,5.784,5.784,0,0,1-.241-.953,2.119,2.119,0,0,1,1.125-2.08c.844-.425,1.911-.246,2.719-.733a3.72,3.72,0,0,0,1.282-1.758,3.314,3.314,0,0,1,1.231-1.768,1.251,1.251,0,0,0,.507-1.695A1.069,1.069,0,0,0-207.984-335.428Z" opacity="0.1"/>
      <path id="Path_157049" data-name="Path 157049" d="M-157.9-313.348a7.206,7.206,0,0,1-5.771-3.848,3.881,3.881,0,0,1-.584-1.647,1.954,1.954,0,0,1,.067-.394,4.133,4.133,0,0,0,.177-.6,1.124,1.124,0,0,0,0-.246v-.014a1.456,1.456,0,0,0-.527-1.183c-.323-.3-.73-.527-1.067-.83a5,5,0,0,1-1.377-3.776v-.074c.012-.6.059-1.2.054-1.8a7.342,7.342,0,0,0-.044-1.016,3.353,3.353,0,0,0-1.086-2.247c-1.732-1.406-4.648.058-6.443-1.271-.435-.325-.789-.8-1.317-.932a2.228,2.228,0,0,0-1.2.163c-1.322.436-2.8,1.009-3.314,2.285-.3.733-.213,1.57-.483,2.312a11.5,11.5,0,0,1-.755,1.4,2.182,2.182,0,0,0-.281,1.166,1.3,1.3,0,0,0,.086.621,1.56,1.56,0,0,0,.431.617,2.1,2.1,0,0,1-.257.411c-.338.413-.857.7-1.208,1.115a2.634,2.634,0,0,0-.308,2.655c.32.886.9,1.693,1.3,2.556a1.369,1.369,0,0,1,.132,1.166,3.293,3.293,0,0,1-.584.679,2.138,2.138,0,0,0-.527,1.178c-3.956.9-3.961,4.084-3.961,4.084h0l-2.138,5.376s-.343.9-.745,2.1l-2.53-.454,1.758,2.943a9.307,9.307,0,0,0-.49,2.869s-.786,3.692.612,4.337l3.083,1.387a1.839,1.839,0,0,0,.427.192l.125.056a.333.333,0,0,0,.289,0h.041a.413.413,0,0,0,.177-.026.354.354,0,0,0,.155-.167.054.054,0,0,1,0-.018l.923-.267.782.926c.351.248.7.462,1.034.656l-1.218,12.027s-.2,16-.786,19.643a10.259,10.259,0,0,0-.137,2.9l-.023.039c.146,1.028.527,1.231.527,1.231v-.013a.079.079,0,0,0,.023.014,10.453,10.453,0,0,1,.633-1.357v.264c-.012,1.357-.054,3.257-.2,4.493-.239,2.11.612,9.062.612,9.062l.294,6.329a5.845,5.845,0,0,1-.721,3.083,14.6,14.6,0,0,0-1.667,3.832.91.91,0,0,0,0,.128h0l-1.508,1.814s-.589.911.742,1.278a7.114,7.114,0,0,0,2.941-.234,1.963,1.963,0,0,0,1.524-1.913,6.778,6.778,0,0,1,1.245-2.389l.248,1.457,1.659.411.213-3.994a1.741,1.741,0,0,0,.114-.7h0c.327-2.841-.77-2.586-.77-2.586a.155.155,0,0,1,.053.1l-.053-.1h0a7.189,7.189,0,0,1-.352-3.516s.879-6.329,1.18-8a57.978,57.978,0,0,0,.055-7.208,2.3,2.3,0,0,0-.009-.262c2.574-.033,5.727-.12,7.941-.334v.26l-.408,14.951a8.2,8.2,0,0,1-.573,2.781.131.131,0,0,1-.019.051,12.158,12.158,0,0,0-.81,3.918l-.19,4.746v.132h0c-.331.127-.853.494-.867,1.559-.023,1.561,2.728,1.041,2.728,1.041,2.749,0,2.772-2.862,2.772-2.862s.086-2.625.218-4.381-.415-1.369-.415-1.369l-.042,5v-4.34l.042-.635v-.024h0v-.135l.346-5.153s2.533-8.586,2.925-10.233a38.527,38.527,0,0,0,.072-6.647,1.489,1.489,0,0,0-.014-.258c.786-.07,1.48-.077,1.758-.077h.128s-.13-13.789-.459-18.986-.851-9.952-2.161-11.383c-.791-.865-1.893-3.535-2.637-5.513a27.53,27.53,0,0,0,4.853,1.585c4.147.868,3.579-2.732,3.579-2.732l-.42-6.809h.028a34.653,34.653,0,0,0-.457-5.323,15.651,15.651,0,0,0-1.069-3.867c.451-.176.9-.364,1.331-.557,1.128-.5,2.4-1.2,2.558-2.417h-.055A1.416,1.416,0,0,0-157.9-313.348Zm-25.708,9.844h0c.009.7-.018,1.923-.06,3.272l-1.317-1.758,1.32-2.141Zm18.192,6.231-2.194-.7a9.892,9.892,0,0,1,1.355-1.677l.19-.176-.069.014.105-.1.063-.014-.1.1.12-.025a3.752,3.752,0,0,0,.747,1.5c.788.86-.216,1.078-.216,1.078Z" fill="url(#linear-gradient-2)"/>
      <path id="Path_157050" data-name="Path 157050" d="M-178.747-233.989l-.257,4.866-1.637-.41-.345-2.023Z" fill="#a27772"/>
      <path id="Path_157051" data-name="Path 157051" d="M-178.747-233.989l-.257,4.866-1.637-.41-.345-2.023Z" opacity="0.1"/>
      <path id="Path_157052" data-name="Path 157052" d="M-172.74-228.473l2.5.517,1.851-1.635V-234.2l.042-.629v-.019h0v-.134l.345-5.121s2.5-8.524,2.887-10.161a38.485,38.485,0,0,0,.069-6.6c-.037-.793-.069-1.324-.069-1.324l-5.511-1.334-.116,4.237-.4,14.844a8.193,8.193,0,0,1-.564,2.762l-.019.051a12.114,12.114,0,0,0-.8,3.889l-.186,4.72v.13Z" fill="#cc818c"/>
      <path id="Path_157053" data-name="Path 157053" d="M-168.351-234.982v.13h0v-.13Z" opacity="0.1"/>
      <path id="Path_157054" data-name="Path 157054" d="M-172.74-228.478l2.5.517,1.851-1.635v-.392a.524.524,0,0,1-.265.422l-.026.016a4.973,4.973,0,0,1-2.8.554l-.974-.083a.964.964,0,0,0-.258.063v.13Z" opacity="0.1"/>
      <path id="Path_157055" data-name="Path 157055" d="M-168.68-229.422l.026-.014a.524.524,0,0,0,.269-.457l.04-4.959s.538-.385.408,1.359-.214,4.349-.214,4.349-.021,2.841-2.734,2.841c0,0-2.712.517-2.691-1.034s1.12-1.614,1.12-1.614l.974.084A4.954,4.954,0,0,0-168.68-229.422Z" fill="#b07473"/>
      <path id="Path_157056" data-name="Path 157056" d="M-185.742-229.533c.063,1.12,3.358.473,3.358.473l2.217-4.3s1.851-1.422.925-2.67a2.131,2.131,0,0,1-.135-.213l-.009-.011h0c-.019-.032-.037-.065-.055-.1h0a7.092,7.092,0,0,1-.338-3.481s.86-6.286,1.162-7.944a58.178,58.178,0,0,0,.054-7.16c-.028-.893-.054-1.492-.054-1.492l-5.469-1.464v1.631c-.012,1.348-.055,3.235-.193,4.462-.236,2.087.6,9,.6,9l.29,6.288a5.817,5.817,0,0,1-.7,3.061,14.741,14.741,0,0,0-1.644,3.806.822.822,0,0,0-.009.121Z" fill="#cc818c"/>
      <path id="Path_157057" data-name="Path 157057" d="M-185.742-229.532c.063,1.12,3.358.473,3.358.473l2.217-4.3s1.851-1.422.925-2.67a2.128,2.128,0,0,1-.135-.213,10.6,10.6,0,0,1-.745,2.285s-1.83,3.662-2.412,4.5-3.11-.156-3.2-.192a.8.8,0,0,0,0,.12Z" opacity="0.1"/>
      <path id="Path_157058" data-name="Path 157058" d="M-179.441-236.362s1.083-.251.759,2.568h0a1.814,1.814,0,0,1-.856,1.612,6.163,6.163,0,0,0-2.575,3.572h0a1.947,1.947,0,0,1-1.5,1.9,7.019,7.019,0,0,1-2.9.232c-1.313-.366-.731-1.269-.731-1.269l1.507-1.788s2.626,1.034,3.206.193,2.412-4.5,2.412-4.5S-179.119-236.125-179.441-236.362Z" fill="#b07473"/>
      <path id="Path_157059" data-name="Path 157059" d="M-170.631-259l-.116,4.237c1.468-.142,2.519-.341,2.7-.62.389-.6,1.8-.854,3-.958-.037-.793-.069-1.324-.069-1.324Z" opacity="0.1"/>
      <path id="Path_157060" data-name="Path 157060" d="M-184.086-255.752a2.036,2.036,0,0,1,.6-.728c.58-.322.517,2.067.517,2.067s1.934.018,4.4-.014c-.028-.893-.055-1.494-.055-1.494l-5.469-1.463S-184.075-256.7-184.086-255.752Z" opacity="0.1"/>
      <path id="Path_157061" data-name="Path 157061" d="M-184.71-255.186s.647-1.758,1.231-2.071.517,2.066.517,2.066,14.208.13,14.919-.969,4.843-1.034,4.843-1.034-.128-13.691-.453-18.856-.838-9.881-2.13-11.3c-.836-.919-2.023-3.894-2.758-5.877-.4-1.083-.665-1.872-.665-1.872l-13.561.773-.111,1.1-1.44,14.4s-.193,15.887-.775,19.5S-184.71-255.186-184.71-255.186Z" fill="#444053"/>
      <g id="Group_167397" data-name="Group 167397" opacity="0.1">
        <path id="Path_157062" data-name="Path 157062" d="M-169.149-256.16c.7-1.1,4.843-1.034,4.843-1.034s-.128-13.691-.452-18.856-.839-9.881-2.131-11.3c-.839-.923-2.023-3.894-2.758-5.877-.336-.911-.577-1.612-.643-1.812l1.055-.06s.265.789.666,1.872c.735,1.983,1.921,4.957,2.756,5.877,1.292,1.42,1.809,6.135,2.131,11.3s.454,18.856.454,18.856-4.133-.063-4.845,1.034c-.607.937-11.061.981-14.1.972C-178.274-255.2-169.7-255.312-169.149-256.16Z"/>
        <path id="Path_157063" data-name="Path 157063" d="M-184.584-257.255c.262-.146.392.258.457.749a10.4,10.4,0,0,0-.61,1.322s-.374-.2-.527-1.231A2.412,2.412,0,0,1-184.584-257.255Z"/>
      </g>
      <path id="Path_157064" data-name="Path 157064" d="M-180.52-328.225c-.939,1.28.011,3.1-1,4.344-.332.411-.844.7-1.19,1.108a2.633,2.633,0,0,0-.3,2.646c.315.879.879,1.681,1.28,2.538a1.356,1.356,0,0,1,.13,1.157,3.226,3.226,0,0,1-.577.673,2.429,2.429,0,0,0-.316,2.577,8.345,8.345,0,0,0,1.668,2.3,1.139,1.139,0,0,0,1.549.445,1.164,1.164,0,0,0,.1-.067,6.5,6.5,0,0,0,2.961-8.489c-.545-1.306-1.454-2.558-1.464-3.938,0-1.1.563-2.141.664-3.231.12-1.325-.664-3.43-2.263-4.008C-179.17-329.317-180.043-328.883-180.52-328.225Z" fill="#585268"/>
      <path id="Path_157065" data-name="Path 157065" d="M-180.52-328.225c-.939,1.28.011,3.1-1,4.344-.332.411-.844.7-1.19,1.108a2.633,2.633,0,0,0-.3,2.646c.315.879.879,1.681,1.28,2.538a1.356,1.356,0,0,1,.13,1.157,3.226,3.226,0,0,1-.577.673,2.429,2.429,0,0,0-.316,2.577,8.345,8.345,0,0,0,1.668,2.3,1.139,1.139,0,0,0,1.549.445,1.164,1.164,0,0,0,.1-.067,6.5,6.5,0,0,0,2.961-8.489c-.545-1.306-1.454-2.558-1.464-3.938,0-1.1.563-2.141.664-3.231.12-1.325-.664-3.43-2.263-4.008C-179.17-329.317-180.043-328.883-180.52-328.225Z" opacity="0.1"/>
      <path id="Path_157066" data-name="Path 157066" d="M-170.108-281.673a12.5,12.5,0,0,0-5.293,1.821,36.115,36.115,0,0,1-5.008,2.6" opacity="0.1"/>
      <path id="Path_157067" data-name="Path 157067" d="M-171.276-277.245a7.753,7.753,0,0,0-4.878,2.373c-.457.483-.851,1.025-1.327,1.489A5.883,5.883,0,0,1-180.1-271.9" opacity="0.1"/>
      <path id="Path_157068" data-name="Path 157068" d="M-170.891-273.875a8.531,8.531,0,0,0-3.924,2.366c-.288.311-.55.643-.839.955-1.556,1.67-3.753,2.556-5.875,3.395" opacity="0.1"/>
      <path id="Path_157069" data-name="Path 157069" d="M-171.051-320.61a38.707,38.707,0,0,0,.387,4.486,5.889,5.889,0,0,0,.775,2.424c1.034,1.231-5.036,2.874-5.036,2.874l-3.584-2.778s2.841-2.616,1.518-5.167S-171.051-320.61-171.051-320.61Z" fill="#cc818c"/>
      <path id="Path_157070" data-name="Path 157070" d="M-182.882-293.228h14.336c-.4-1.083-.664-1.872-.664-1.872l-13.561.774Z" opacity="0.1"/>
      <path id="Path_157071" data-name="Path 157071" d="M-183.8-293.486h15.327a5.32,5.32,0,0,1,.614-4.064,9.04,9.04,0,0,1,1.605-2.081l.1-.1,5.351-1.185.288-.063s.044-9.73-3.4-11.066a20.132,20.132,0,0,1-5.511-3.141l-4.735,1.466-3.488-1.758c-1.12,1.2-4.091.731-4.091.731-4.864.559-4.864,4.219-4.864,4.219s2.841,6.629,3.057,6.629S-183.8-293.486-183.8-293.486Z" fill="#f06292"/>
      <path id="Path_157072" data-name="Path 157072" d="M-178.512-299.672s-3.126-.693-4.189-1.9" opacity="0.1"/>
      <path id="Path_157073" data-name="Path 157073" d="M-162.753-303.3l-3.625,2.971a6.317,6.317,0,0,0,.12.7l.1-.1,5.351-1.185Z" opacity="0.1"/>
      <path id="Path_157074" data-name="Path 157074" d="M-172.568-294.52s.793.447,2.008,1.034h2.083a5.32,5.32,0,0,1,.614-4.064l-3.672-1.188C-170.286-297.577-172.568-294.52-172.568-294.52Z" opacity="0.1"/>
      <path id="Path_157075" data-name="Path 157075" d="M-184.452-311.7l-2.152,1.162-2.109,5.339s-2.2,5.854-1.981,7.4c0,0-.773,3.66.6,4.3l3.586,1.624a.334.334,0,0,0,.441-.169.333.333,0,0,0-.01-.292c-.512-.969-1.074-2.484-.176-3.317l-1.034-2.152,3.736-6.114,1.248-2.11Z" fill="#f06292"/>
      <path id="Path_157076" data-name="Path 157076" d="M-179.665-300.895c.186.759.816,1.934,2.9,2.371l2.285,1.872,2.431,1.1.992.448.42-3.036-.955-.527-1.113-.608s-2.51-4.548-6.485-2.637A.881.881,0,0,0-179.665-300.895Z" opacity="0.1"/>
      <path id="Path_157077" data-name="Path 157077" d="M-179.534-301.153c.186.761.814,1.934,2.9,2.371l2.285,1.872,2.433,1.1.99.448.42-3.036-.955-.527-1.1-.6s-2.512-4.548-6.487-2.628A.88.88,0,0,0-179.534-301.153Z" fill="#cc818c"/>
      <circle id="Ellipse_2410" data-name="Ellipse 2410" cx="5.553" cy="5.553" r="5.553" transform="translate(-180.609 -327.779)" opacity="0.1"/>
      <circle id="Ellipse_2411" data-name="Ellipse 2411" cx="5.553" cy="5.553" r="5.553" transform="translate(-180.609 -327.907)" fill="#cc818c"/>
      <path id="Path_157078" data-name="Path 157078" d="M-171.615-310.487l-1.67-3.245s2.444-.988,2.621-2.132,2.342,1.341,1.874,2.166A30.666,30.666,0,0,1-171.615-310.487Z" opacity="0.1"/>
      <path id="Path_157079" data-name="Path 157079" d="M-171.615-310.746l-1.67-3.245s2.444-.988,2.621-2.132,2.342,1.343,1.874,2.166A30.769,30.769,0,0,1-171.615-310.746Z" fill="#f06292"/>
      <path id="Path_157080" data-name="Path 157080" d="M-185.283-302.362l9.227,12.406s-3.4,1.851-8.087-1.463l-2.023-2.412-5.776-9.737Z" fill="#f6f8fb"/>
      <path id="Path_157081" data-name="Path 157081" d="M-187.1-295.617l.84-.023s5.133-4.982,6.394-2.461-3.2,4.877-3.2,4.877l-1.355.731-1.767.527-1.13-1.517Z" fill="#cc818c"/>
      <path id="Path_157082" data-name="Path 157082" d="M-185.86-292.926a1.247,1.247,0,0,1,.021.868.35.35,0,0,1-.153.167.378.378,0,0,1-.176.025,1.764,1.764,0,0,1-1.159-.573,5.311,5.311,0,0,1-.751-1.086,2,2,0,0,1-.385-1.294,1.893,1.893,0,0,1,.955-1.115c.851-.562.879.093,1.065.817S-186.055-293.657-185.86-292.926Z" opacity="0.1"/>
      <path id="Path_157083" data-name="Path 157083" d="M-185.988-292.926a1.258,1.258,0,0,1,.021.868.35.35,0,0,1-.153.167.391.391,0,0,1-.176.025,1.757,1.757,0,0,1-1.159-.573,5.222,5.222,0,0,1-.752-1.086,2,2,0,0,1-.383-1.294,1.886,1.886,0,0,1,.953-1.115c.853-.562.879.093,1.067.817S-186.185-293.657-185.988-292.926Z" fill="#f06292"/>
      <path id="Path_157084" data-name="Path 157084" d="M-183.546-303.906l.429-.726-.374,1.348Z" opacity="0.1"/>
      <path id="Path_157085" data-name="Path 157085" d="M-171.912-295.807l.99.448.42-3.036-.955-.527C-170.8-298.166-171.374-296.769-171.912-295.807Z" opacity="0.1"/>
      <path id="Path_157086" data-name="Path 157086" d="M-167.939-299.331s-3.2.2-4.553-.677" opacity="0.1"/>
      <g id="Group_167398" data-name="Group 167398" opacity="0.1">
        <path id="Path_157087" data-name="Path 157087" d="M-168.336-297.292a9.03,9.03,0,0,1,1.6-2.083,4.6,4.6,0,0,1,.473-.257l4.982-1.023.288-.063s.044-9.73-3.4-11.066a20.7,20.7,0,0,1-5.372-3.025l.378-.116a20.081,20.081,0,0,0,5.511,3.141c3.446,1.334,3.4,11.066,3.4,11.066h-.514l-5.1.976s-.22.213-.287.274a9.955,9.955,0,0,0-1.63,2.155,5.406,5.406,0,0,0-.427,4.085h-.527A5.381,5.381,0,0,1-168.336-297.292Z"/>
        <path id="Path_157088" data-name="Path 157088" d="M-181.943-314.468c.083-.012.162-.025.248-.033a8.667,8.667,0,0,0,1.055.086A9.459,9.459,0,0,1-181.943-314.468Z"/>
        <path id="Path_157089" data-name="Path 157089" d="M-174.635-313.464l-3.154-1.6a1.544,1.544,0,0,0,.176-.167l3.291,1.665Z"/>
      </g>
      <path id="Path_157090" data-name="Path 157090" d="M-162.63-303.568l2.109,2.584.431,7.018s.56,3.572-3.53,2.711a37.647,37.647,0,0,1-8.821-3.523s2.285-3.057,1.034-4.219l5.856,1.9s.99-.216.216-1.076a4.829,4.829,0,0,1-.912-2.412Z" fill="#f06292"/>
      <path id="Path_157091" data-name="Path 157091" d="M-161.676-296.155l1.162,1.334A1.676,1.676,0,0,1-161.676-296.155Z" opacity="0.1"/>
      <path id="Path_157092" data-name="Path 157092" d="M-163.657-296.371l1.809,2.324-.9.216Z" opacity="0.1"/>
      <path id="Path_157093" data-name="Path 157093" d="M-181.688-324.9a1.861,1.861,0,0,1,.193-1.514,11.714,11.714,0,0,0,.747-1.387c.265-.735.185-1.566.475-2.285.512-1.275,1.965-1.844,3.268-2.285a2.2,2.2,0,0,1,1.188-.162c.527.125.87.6,1.3.925,1.769,1.318,4.645-.134,6.355,1.262a3.322,3.322,0,0,1,1.071,2.229,19.67,19.67,0,0,1-.01,2.535,5.224,5.224,0,0,0,1.357,4.08c.334.3.728.517,1.055.823a1.438,1.438,0,0,1,.527,1.176,4.009,4.009,0,0,1-.176.6,3.064,3.064,0,0,0,.51,2.285,7.123,7.123,0,0,0,5.688,3.818c-.16,1.206-1.406,1.906-2.523,2.4a9.9,9.9,0,0,1-4.453,1.171,3.571,3.571,0,0,1-3.435-2.6c-.093-.527-.081-1.162-.527-1.436-.274-.167-.629-.125-.925-.25a1.631,1.631,0,0,1-.779-1.1,9.908,9.908,0,0,1-.459-2.813c-.019-1.132.13-2.368-.512-3.3-.594-.863-1.649-1.3-2.335-2.094a4.134,4.134,0,0,0-2.357-1.758C-177.874-324.776-180.84-322.827-181.688-324.9Z" opacity="0.1"/>
      <path id="Path_157094" data-name="Path 157094" d="M-181.688-325.161a1.861,1.861,0,0,1,.193-1.514,11.714,11.714,0,0,0,.747-1.387c.265-.735.185-1.566.475-2.285.512-1.276,1.965-1.846,3.268-2.285a2.2,2.2,0,0,1,1.188-.162c.527.125.87.6,1.3.925,1.769,1.318,4.645-.134,6.355,1.262a3.324,3.324,0,0,1,1.071,2.231,19.64,19.64,0,0,1-.01,2.533,5.224,5.224,0,0,0,1.357,4.08c.334.3.728.517,1.055.823a1.438,1.438,0,0,1,.527,1.176,4.009,4.009,0,0,1-.176.6,3.064,3.064,0,0,0,.51,2.285,7.133,7.133,0,0,0,5.687,3.82c-.16,1.206-1.406,1.906-2.523,2.4a9.923,9.923,0,0,1-4.453,1.169,3.569,3.569,0,0,1-3.435-2.6c-.093-.527-.081-1.162-.527-1.436-.274-.167-.629-.125-.925-.25a1.631,1.631,0,0,1-.779-1.1,9.874,9.874,0,0,1-.459-2.813c-.019-1.132.13-2.368-.512-3.3-.594-.863-1.649-1.3-2.335-2.094a4.134,4.134,0,0,0-2.357-1.758C-177.874-325.034-180.84-323.081-181.688-325.161Z" fill="#585268"/>
      <path id="Path_157095" data-name="Path 157095" d="M-177.747-310.89l3.184-2.584s-2.18-1.181-2.44-2.189-2,.478-1.827,1.382S-177.747-310.89-177.747-310.89Z" opacity="0.1"/>
      <path id="Path_157096" data-name="Path 157096" d="M-177.622-311.278l3.184-2.582s-2.18-1.181-2.43-2.189-2,.478-1.826,1.382S-177.622-311.278-177.622-311.278Z" fill="#f06292"/>
      <circle id="Ellipse_2412" data-name="Ellipse 2412" cx="0.253" cy="0.253" r="0.253" transform="translate(-174.567 -311.952)" opacity="0.1"/>
      <circle id="Ellipse_2413" data-name="Ellipse 2413" cx="0.253" cy="0.253" r="0.253" transform="translate(-174.567 -310.545)" opacity="0.1"/>
      <circle id="Ellipse_2414" data-name="Ellipse 2414" cx="0.253" cy="0.253" r="0.253" transform="translate(-174.567 -309.141)" opacity="0.1"/>
      <g id="Group_167399" data-name="Group 167399" opacity="0.1">
        <path id="Path_157097" data-name="Path 157097" d="M-180.4-328.751c.251-.691.2-1.466.432-2.162a2.434,2.434,0,0,0-.269.5c-.292.726-.209,1.558-.476,2.285l-.018.042A3.927,3.927,0,0,0-180.4-328.751Z"/>
        <path id="Path_157098" data-name="Path 157098" d="M-160.319-311.349a9.91,9.91,0,0,1-4.453,1.169,3.571,3.571,0,0,1-3.435-2.6c-.093-.527-.081-1.164-.527-1.438-.274-.167-.629-.125-.925-.25a1.631,1.631,0,0,1-.779-1.1,9.874,9.874,0,0,1-.459-2.813c-.019-1.13.132-2.366-.51-3.3-.6-.863-1.651-1.3-2.336-2.094a4.141,4.141,0,0,0-2.357-1.758c-1.422-.193-4.395,1.758-5.235-.32a1.643,1.643,0,0,1,.055-1.2c-.061.1-.121.207-.176.313a1.867,1.867,0,0,0-.192,1.515c.846,2.074,3.813.125,5.235.32a4.176,4.176,0,0,1,2.357,1.758c.686.8,1.74,1.231,2.335,2.1.643.932.492,2.168.512,3.3a9.874,9.874,0,0,0,.459,2.813,1.634,1.634,0,0,0,.779,1.1c.3.125.65.084.925.25.454.274.441.916.527,1.438a3.575,3.575,0,0,0,3.435,2.6,9.936,9.936,0,0,0,4.453-1.169c1.02-.454,2.155-1.081,2.461-2.11A5.314,5.314,0,0,1-160.319-311.349Z"/>
      </g>
      <path id="Path_157099" data-name="Path 157099" d="M-129.251-301.427a41.444,41.444,0,0,0-5.135-2.669l-.077-.055a3.093,3.093,0,0,1-.937-1.185q-.006-.127,0-.255v.025a5.622,5.622,0,0,1,1.63-3.066l1.957-2.3a2.248,2.248,0,0,0,.5-.8,1.8,1.8,0,0,0,.053-.49v-.2c-.01-.571-.026-1.144-.047-1.716-.018-.5-.146-1.129-.645-1.231-.26-.053-.6.04-.742-.176a.427.427,0,0,1-.033-.3.105.105,0,0,0,0,.025v-.028a6.574,6.574,0,0,0,.185-1.176,1.588,1.588,0,0,0-.081-.6c-.288-.828-1.285-1.169-2.166-1.326a3.8,3.8,0,0,1-2.421-.979,7.09,7.09,0,0,0-.482-.663,1.9,1.9,0,0,0-.9-.445,5.1,5.1,0,0,0-3.275.285,2.928,2.928,0,0,1-1.32.418c-.468-.028-.9-.366-1.378-.447a1.968,1.968,0,0,0-1.9,1.109,2.72,2.72,0,0,0-.352,1.308v.077h0a1.915,1.915,0,0,0,.5,1.336c.334.352.83.584.969,1.039.056.185.042.385.093.573a.7.7,0,0,0,.021.069l-.025.033a5.8,5.8,0,0,0-1.231,3.576,5.934,5.934,0,0,0,4.17,5.625v.176a2.529,2.529,0,0,1-.809,1.969l-5.272,2.106s-3.178-.378-4.325,4.267a7.945,7.945,0,0,0-.2,2.356,6.825,6.825,0,0,1-.879,3.528c-1.3,2.553-1.006,8.412,1.659,8.992a8.678,8.678,0,0,0,3.6.294v.1c-.042,1.1-.441,10.583-1.892,11.729-.4.318-.327.527,0,.677,0,0,0,.062-.009.176a11.8,11.8,0,0,1-1.209,4.852c-1.127,1.74-1.009,11.778-1.009,11.778l-.768,5.917s.473,3.655,0,4.293c-.424.568-.986,14.088-1.1,17.02h-.049a1.43,1.43,0,0,0-1.139.7,19.791,19.791,0,0,1-2.8,2.879c-.474.672-2.222,1.315-3.147,1.617a1.909,1.909,0,0,0-.352.155,1.876,1.876,0,0,0-.795.837.9.9,0,0,0-.084.7c.236.578,5.153.986,6.4.4a42.626,42.626,0,0,1,6.46-1.29,1.325,1.325,0,0,0,1.15-1.15.761.761,0,0,0-.148-.575,5.09,5.09,0,0,1-.527-2.11,1.44,1.44,0,0,0,.362-.214,15.424,15.424,0,0,1,.879-6.207c1.185-3.133,1.54-8.934,1.245-12.7,0,0,3.613-15.547,6.457-17h0c.044.056,1.424,1.827,1.6,7.31a22.122,22.122,0,0,0,2.19,9.224s-.89,9.456,0,12.995l-1.162,5.582c-.086-.072-.141-.128-.141-.128s.035.155.083.4l-.025.12.051.011a11.024,11.024,0,0,1,.246,2.637c-.046.406-.16.963-.237,1.51-.123.86-.156,1.693.3,1.876.742.3,5.1.7,5.836-.253a1.373,1.373,0,0,0,.214-1.433,1.494,1.494,0,0,0-.214-.366s-1.157-1.89-.83-3.222a.984.984,0,0,0-.139-.765,39.223,39.223,0,0,1,1-6.251c.742-2.792,2.3-8.913,1.155-12.937h0c-.044-.158-.093-.312-.148-.464a17.364,17.364,0,0,1-.652-6.787,13.826,13.826,0,0,1,0-5.917c.712-3.249,1.209-6.439,1.209-6.439a40.748,40.748,0,0,0,.049-6.925c-.005-.059-.013-.117-.023-.176l.186-.042s-1.007-4.467-1.362-7.31c-.084-.672-.193-1.521-.313-2.428a6.19,6.19,0,0,0,.965-.241c3.2-1.1,4.2-11.075,4.2-11.075v-3.156S-125.519-299.28-129.251-301.427Zm-23.831,77.04c-.1-.049-.156-.083-.156-.083h0Z" fill="url(#linear-gradient-3)"/>
      <path id="Path_157100" data-name="Path 157100" d="M-131.18-243.85c1.387,3.989-.232,10.463-.984,13.36a40.452,40.452,0,0,0-.983,6.36,13.381,13.381,0,0,1-5.088-.116l1.215-5.954c-.868-3.526,0-12.951,0-12.951a22.492,22.492,0,0,1-2.139-9.192c-.176-5.462-1.517-7.229-1.559-7.283h0c-2.774,1.445-6.3,16.94-6.3,16.94.288,3.757-.06,9.539-1.215,12.657a15.671,15.671,0,0,0-.867,6.185,1.881,1.881,0,0,1-1.582.3,10.823,10.823,0,0,1-3.63-1.689s.635-16.876,1.1-17.516,0-4.279,0-4.279l.751-5.9s-.116-10,.983-11.736a11.9,11.9,0,0,0,1.209-4.822v-.176l1.674-2s16.187-1.215,17.4,0a3.462,3.462,0,0,1,.591,1.828,41.293,41.293,0,0,1-.049,6.9s-.485,3.18-1.18,6.417a14.1,14.1,0,0,0,0,5.9A17.67,17.67,0,0,0-131.18-243.85Z" fill="#65617d"/>
      <path id="Path_157101" data-name="Path 157101" d="M-132.193-218.5c-.722.955-4.971.55-5.7.253-.441-.176-.408-1.014-.288-1.87.076-.543.186-1.1.232-1.5a13.822,13.822,0,0,0-.352-3.152s.953,1.013,1.183,0a1.1,1.1,0,0,1,.826-.784,2.166,2.166,0,0,1,1.5.093c.751.327,2,1.021,1.779,1.96-.318,1.327.809,3.212.809,3.212a1.429,1.429,0,0,1,.211.362A1.385,1.385,0,0,1-132.193-218.5Z" fill="#a27772"/>
      <path id="Path_157102" data-name="Path 157102" d="M-132.193-218.5c-.723.955-4.971.55-5.7.253-.441-.176-.408-1.014-.288-1.87a4.9,4.9,0,0,0,2.526.272,7.261,7.261,0,0,1,.909-.028,21.006,21.006,0,0,0,2.76-.056A1.385,1.385,0,0,1-132.193-218.5Z" opacity="0.1"/>
      <path id="Path_157103" data-name="Path 157103" d="M-147.025-242.692c.288,3.757-.06,9.539-1.215,12.657a15.667,15.667,0,0,0-.867,6.184,1.881,1.881,0,0,1-1.582.3c.352-2.438,1.835-12.944,2.786-21.245a34.776,34.776,0,0,1,6.153-15.955l1.011,1.113C-143.495-258.187-147.025-242.692-147.025-242.692Z" opacity="0.1"/>
      <path id="Path_157104" data-name="Path 157104" d="M-133.928-303.454l-.7,3.468-3.458,5.81L-142.349-296s-5.8-6.07-2.154-6.937a3.223,3.223,0,0,0,1.209-.538,2.5,2.5,0,0,0,.944-2.092,6.405,6.405,0,0,0-.587-2.486l7.457-2.342a12.011,12.011,0,0,0-.527,3.02,4.019,4.019,0,0,0,1.317,3.516A2.243,2.243,0,0,0-133.928-303.454Z" fill="#fbbebe"/>
      <path id="Path_157105" data-name="Path 157105" d="M-135.49-310.391a12.011,12.011,0,0,0-.527,3.02,5.414,5.414,0,0,1-.434.462,5.9,5.9,0,0,1-5.9,1.345,6.389,6.389,0,0,0-.592-2.486Z" opacity="0.1"/>
      <path id="Path_157106" data-name="Path 157106" d="M-134.633-311.345a5.87,5.87,0,0,1-5.9,5.845,5.869,5.869,0,0,1-5.844-5.9,5.869,5.869,0,0,1,5.895-5.844,5.869,5.869,0,0,1,4.124,1.718A5.9,5.9,0,0,1-134.633-311.345Z" fill="#fbbebe"/>
      <path id="Path_157107" data-name="Path 157107" d="M-133.928-303.454l-.7,3.468-3.458,5.81L-142.349-296s-5.8-6.07-2.154-6.937a3.222,3.222,0,0,0,1.209-.538c-.657,1.807,2.057,5.567,2.057,5.567.316.466,1.041.176,1.041.176,1.749-.265,4.968-5.3,5.494-6.132A2.229,2.229,0,0,0-133.928-303.454Z" opacity="0.1"/>
      <path id="Path_157108" data-name="Path 157108" d="M-130.6-269.828c-1.027.234-6.707,1.491-8.86,1.176-2.37-.352-6.977-.577-6.977-.577a13.587,13.587,0,0,1-3.838-.255v-.176l1.674-2s16.187-1.215,17.4,0A3.444,3.444,0,0,1-130.6-269.828Z" opacity="0.1"/>
      <path id="Path_157109" data-name="Path 157109" d="M-141.241-297.731s-3.05-4.219-1.9-5.872l-5.153,2.11s-3.1-.376-4.219,4.252a8.069,8.069,0,0,0-.192,2.349,6.933,6.933,0,0,1-.849,3.516c-1.271,2.544-.983,8.384,1.619,8.966a7.9,7.9,0,0,0,3.525.288s-.352,10.579-1.849,11.794,3.832.925,3.832.925,4.608.232,6.979.578,9.018-1.215,9.018-1.215-.983-4.451-1.331-7.283-1.159-8.865-1.159-8.865l5.9-7.988s1.041-4.827-2.6-6.967a41.218,41.218,0,0,0-5.012-2.663s-3.66,5.959-5.567,6.248C-140.2-297.556-140.925-297.266-141.241-297.731Z" fill="#f06292"/>
      <path id="Path_157110" data-name="Path 157110" d="M-148.006-296.055a8.707,8.707,0,0,0,.29,2.66c.346.751,1.619,4.922,1.619,4.922h-2.892s1.561-1.677,1.447-2.487S-148.006-296.055-148.006-296.055Z" opacity="0.1"/>
      <path id="Path_157111" data-name="Path 157111" d="M-139.449-281.659s-6.385-1.561-6.979-2.89-2.234-4.3-2.234-4.3l.673-.907,3.1,2.436s3.692,2.948,5.436,3.238S-139.449-281.659-139.449-281.659Z" fill="#fbbebe"/>
      <path id="Path_157112" data-name="Path 157112" d="M-139.449-281.659s-6.385-1.561-6.979-2.89-2.234-4.3-2.234-4.3l.673-.907,3.1,2.436s3.692,2.948,5.436,3.238S-139.449-281.659-139.449-281.659Z" opacity="0.05"/>
      <path id="Path_157113" data-name="Path 157113" d="M-133.928-289.174v3.463h-.556a16.2,16.2,0,0,0-7.864,2.037l-1.041.577-.279.156-1.793-4.043,1.677-1.5h.086a10,10,0,0,0,2.936-.065,4.777,4.777,0,0,1,3.7-.475c1.035.265,1.921,1.426,2.925,1.064Z" fill="#fbbebe"/>
      <path id="Path_157114" data-name="Path 157114" d="M-128.348-295.481l1.155,1.3v3.152s-.983,9.943-4.1,11.042-8.7-.636-8.7-.636-1.44-3.815-.766-4.043,5.951-1.624,5.951-1.624-.074-5.833,1.081-7.568c0,0-.751-5.434,1.851-5.55S-128.348-295.481-128.348-295.481Z" opacity="0.1"/>
      <path id="Path_157115" data-name="Path 157115" d="M-128.173-295.481l1.157,1.3v3.152s-.983,9.943-4.1,11.042-8.7-.636-8.7-.636-1.44-3.815-.765-4.043,5.951-1.624,5.951-1.624-.076-5.833,1.081-7.568c0,0-.752-5.434,1.849-5.55S-128.173-295.481-128.173-295.481Z" fill="#f06292"/>
      <path id="Path_157116" data-name="Path 157116" d="M-136.25-308.842a2.316,2.316,0,0,0-.132-1.127.858.858,0,0,0-.918-.527c-.494.116-.7.759-1.192.914a.952.952,0,0,1-1.055-.541,2.71,2.71,0,0,1-.2-1.259v-1.449a2.4,2.4,0,0,0-.341-1.507,2.661,2.661,0,0,0-1.983-.717,1.683,1.683,0,0,0-1.132.455,1.455,1.455,0,0,1-1.19.424,1.024,1.024,0,0,1-.83-.717v-.018a5.9,5.9,0,0,1,8.253-1.232,5.9,5.9,0,0,1,1.232,8.252,5.926,5.926,0,0,1-.72.806,15.7,15.7,0,0,0,.207-1.758Z" opacity="0.1"/>
      <path id="Path_157117" data-name="Path 157117" d="M-144.393-314.346a1.034,1.034,0,0,1-.832-.719c-.047-.186-.035-.385-.09-.57-.135-.455-.621-.691-.946-1.037a2.325,2.325,0,0,1-.148-2.658,1.923,1.923,0,0,1,1.849-1.1c.468.081.879.413,1.347.445a2.712,2.712,0,0,0,1.289-.417,4.857,4.857,0,0,1,3.2-.285,1.847,1.847,0,0,1,.879.445,7.727,7.727,0,0,1,.469.659,3.662,3.662,0,0,0,2.363.976c.86.155,1.832.5,2.109,1.322a3.452,3.452,0,0,1-.1,1.712.52.52,0,0,0,.023.352c.135.221.471.128.724.176.487.1.612.731.631,1.231q.03.855.046,1.71a2.17,2.17,0,0,1-.051.633,2.221,2.221,0,0,1-.491.8l-1.909,2.294c-.847,1.016-1.746,2.2-1.582,3.516a.818.818,0,0,1-1-.574l0-.013a2.64,2.64,0,0,1,.063-1.3,15.886,15.886,0,0,0,.306-2.259,2.308,2.308,0,0,0-.132-1.125.858.858,0,0,0-.918-.527c-.5.116-.7.759-1.192.914a.953.953,0,0,1-1.055-.541,2.7,2.7,0,0,1-.2-1.257v-1.45a2.4,2.4,0,0,0-.341-1.507,2.661,2.661,0,0,0-1.983-.717,1.685,1.685,0,0,0-1.13.455A1.455,1.455,0,0,1-144.393-314.346Z" fill="#7c5c5c"/>
      <path id="Path_157118" data-name="Path 157118" d="M-143.063-296.2l1.811,7.438S-139.825-288.77-143.063-296.2Z" opacity="0.1"/>
      <path id="Path_157119" data-name="Path 157119" d="M-136.877-297.442s-2.37,3.882-1.445,7.9l.441.032S-138.668-291.372-136.877-297.442Z" opacity="0.1"/>
      <path id="Path_157120" data-name="Path 157120" d="M-135.38-275.472s2.911-.963,3.122,1.271C-132.251-274.2-132.8-275.733-135.38-275.472Z" opacity="0.1"/>
      <path id="Path_157121" data-name="Path 157121" d="M-143.785-288.307s-.578,4.043.462,5.666a12.68,12.68,0,0,1-5.088.694l-.352-6.36Z" opacity="0.1"/>
      <path id="Path_157122" data-name="Path 157122" d="M-143.389-283.1l-.279.156-1.793-4.043,1.677-1.5h.086C-143.725-288.287-144.193-284.811-143.389-283.1Z" opacity="0.1"/>
      <path id="Path_157123" data-name="Path 157123" d="M-143.785-288.48s-.578,4.043.462,5.664a12.642,12.642,0,0,1-5.088.694l-2.023-6.358Z" fill="#f06292"/>
      <path id="Path_157124" data-name="Path 157124" d="M-148.785-220.961a1.309,1.309,0,0,1-1.123,1.146,40.6,40.6,0,0,0-6.306,1.287c-1.215.578-6.012.176-6.244-.4a.924.924,0,0,1,.083-.7,1.86,1.86,0,0,1,.775-.833,2.163,2.163,0,0,1,.352-.155c.9-.3,2.611-.94,3.071-1.612a19.52,19.52,0,0,0,2.735-2.867,1.391,1.391,0,0,1,1.111-.693c.506-.023,1.071.232,1.3,1.341,0,0,2.772,1.582,3.516.2a7.618,7.618,0,0,0,.577,2.714h0A.773.773,0,0,1-148.785-220.961Z" fill="#a27772"/>
      <path id="Path_157125" data-name="Path 157125" d="M-148.785-220.96a1.309,1.309,0,0,1-1.123,1.146,40.6,40.6,0,0,0-6.306,1.287c-1.215.578-6.012.176-6.244-.4a.924.924,0,0,1,.083-.7,1.86,1.86,0,0,1,.775-.833c.782.527,2.519,1.027,6.339.431a27.941,27.941,0,0,0,6.329-1.507h0A.771.771,0,0,1-148.785-220.96Z" opacity="0.1"/>
      <g id="Group_167400" data-name="Group 167400" opacity="0.1">
        <path id="Path_157126" data-name="Path 157126" d="M-133.015-315.5v-.028a5.147,5.147,0,0,0,.176-1.313,8.352,8.352,0,0,1-.176,1.055A.657.657,0,0,0-133.015-315.5Z"/>
        <path id="Path_157127" data-name="Path 157127" d="M-136.384-310.084a1.679,1.679,0,0,1,.143.661,1.989,1.989,0,0,0-.143-.921.855.855,0,0,0-.916-.527c-.5.116-.7.759-1.194.914a.954.954,0,0,1-1.055-.541,2.685,2.685,0,0,1-.2-1.259v-1.449a2.4,2.4,0,0,0-.341-1.507,2.664,2.664,0,0,0-1.982-.719,1.691,1.691,0,0,0-1.133.457,1.459,1.459,0,0,1-1.192.424,1.03,1.03,0,0,1-.83-.717c-.047-.186-.035-.387-.09-.571-.135-.454-.621-.691-.946-1.035a1.893,1.893,0,0,1-.487-1.231,1.973,1.973,0,0,0,.487,1.482c.325.352.81.582.946,1.035.055.176.042.385.09.571a1.03,1.03,0,0,0,.83.717,1.459,1.459,0,0,0,1.192-.424,1.691,1.691,0,0,1,1.133-.457,2.66,2.66,0,0,1,1.982.719,2.41,2.41,0,0,1,.341,1.507v1.449a2.664,2.664,0,0,0,.2,1.257.957.957,0,0,0,1.055.543c.485-.155.7-.8,1.194-.914A.889.889,0,0,1-136.384-310.084Z"/>
        <path id="Path_157128" data-name="Path 157128" d="M-131.633-311.676a2.2,2.2,0,0,1-.492.795l-1.909,2.294a5.149,5.149,0,0,0-1.582,3.315,5.7,5.7,0,0,1,1.582-3.055l1.909-2.294a2.2,2.2,0,0,0,.492-.795,2.187,2.187,0,0,0,.051-.635A1.576,1.576,0,0,1-131.633-311.676Z"/>
        <path id="Path_157129" data-name="Path 157129" d="M-136.614-305.658a1.4,1.4,0,0,1-.058-.309,1.566,1.566,0,0,0,.058.57.817.817,0,0,0,.992.59l.017-.005c-.011-.084-.018-.168-.021-.253A.817.817,0,0,1-136.614-305.658Z"/>
      </g>
      <path id="Path_157130" data-name="Path 157130" d="M-155.827-224.573s.6,1.055,2.8.126" opacity="0.1"/>
      <path id="Path_157131" data-name="Path 157131" d="M-137.314-224.317a3.34,3.34,0,0,0,4.268.73" opacity="0.1"/>
      <path id="Path_157132" data-name="Path 157132" d="M-131.817-250.614s-1.334.833-1.377,1.31.689-.352.689-.352Z" opacity="0.1"/>
      <path id="Path_157133" data-name="Path 157133" d="M-131.291-244.222a2.782,2.782,0,0,1-1.644.642c-1,.044-.914,1.345-.262.955A16.333,16.333,0,0,0-131.291-244.222Z" opacity="0.1"/>
      <path id="Path_157134" data-name="Path 157134" d="M-131.039-243.387s-.64,3.145-1.16,2.538" opacity="0.1"/>
      <path id="Path_157135" data-name="Path 157135" d="M-254.66-219.819s4.017,1.1,5.951-.364,2.772-.995,2.772-.995,4.611-.255,4.991-1.345-1.768-5.049-1.768-5.049c-.153-.352-.376-.8-.476-.8l.021-1.67h0l.668-6.988c1.542-3.954.028-9.062.028-9.062l-.276-1.267a3.213,3.213,0,0,1,.262-2.11l2.8-5.625a8.54,8.54,0,0,1,.527-1.079c.176-.322.41-.719.7-1.2.086-.137.176-.28.274-.429.339-.527.751-1.125,1.248-1.814a14.815,14.815,0,0,0,2.229-5.45l.149.5h.033l.04.009h.067l.072.012h.026l.861,10.963a13.075,13.075,0,0,0,1.623,6.642l-.216,9.438a20.374,20.374,0,0,1-.649,6.513l-.679,1.531a1.842,1.842,0,0,0-1,1.392,17.168,17.168,0,0,1-1.324,3.567c-.461.584-1.461,2.16-1.461,2.16s-.471,1.522-.179,2.092,2.732.512,2.732.512c2.786.617,4.922-.879,4.787-1.909s.434-1.292.434-1.292c1.108-.352,1-1.1,1-1.1a6.891,6.891,0,0,0-.839-4.49l-.176.406a6.2,6.2,0,0,1,.334-2.4l-.1.07-.032.019h-.005a17,17,0,0,1,1.794-4.388c2.974-5.218,1.893-12.288,1.893-12.288l-.461-2.2-.026-.832a27.813,27.813,0,0,1,.448-5.924c.16-.865.325-1.909.452-3.061a27.079,27.079,0,0,1,1.526-6.007l.118-.021h.014c.162-.028.325-.056.49-.088h.032s.1-.513.176-1.387c.047-.557.086-1.264.086-2.076a23.352,23.352,0,0,0-1.109-7.227l.09-.128s.213-.288.6-.788h0c.714-.907,1.825-2.285,3.194-3.839a6.579,6.579,0,0,0,1.732-5.625s-1.776-6.506-2.567-10.412a11.827,11.827,0,0,0-1.948-4.632,9.126,9.126,0,0,0,.246-1.877,6.851,6.851,0,0,0-.508-3.4,2.924,2.924,0,0,0-2.785-1.721,1.057,1.057,0,0,1-.5,0,.762.762,0,0,1-.329-.287,4.32,4.32,0,0,1-.51-3.321c.211-1.132.643-2.215.837-3.351a4.145,4.145,0,0,0-.617-3.3c-.849-1.055-2.329-1.352-3.433-2.145-.775-.557-1.357-1.357-2.175-1.851a3.113,3.113,0,0,0-2.47-.12,19.852,19.852,0,0,0-4.323,1.1,11.539,11.539,0,0,0-3.767,2.741,3.605,3.605,0,0,0-.84,1.326c-.352,1.162.336,2.4.192,3.6a7.1,7.1,0,0,1-1,2.356,3.054,3.054,0,0,0-.39,2.461c.492,1.245,2.1,1.508,3.265,2.171a1.006,1.006,0,0,1,.387.336c.288.5-.3,1.025-.672,1.471a2.225,2.225,0,0,0-.439.893,3.188,3.188,0,0,0-1.911,2.306,10.785,10.785,0,0,0,.749,5.481c-.585,3.289.176,4.586.737,5.084a2.821,2.821,0,0,1,.977,1.923v.062c.037.6.1,1.194.185,1.788h0c-.019-.139-.039-.287-.049-.352a20.77,20.77,0,0,0-1.825,6.668,19.891,19.891,0,0,1-.445,2.322,12.711,12.711,0,0,0-.373,4.152l.088,1.183a.366.366,0,0,1-.239-.079l.617,1.13v1.907a7,7,0,0,1-.468,2.516c-.044.116-.091.232-.142.352a2.057,2.057,0,0,0-.207,1.035c-1.327,2.034-4.37,13.432-4.37,13.432-1.651,3.737.135,6.153.135,6.153s.865,10.4,1.027,10.943.52,6.881.52,6.881h0v.5a1.229,1.229,0,0,0-.3-.086c-1.447-.081-1.839,2.2-1.839,2.2l-2.96,2.827s-1.352-.229-3.34,1.264S-254.66-219.819-254.66-219.819Zm29.56-60.138-.009-.032-.081.047h0l-.033.019-.016.011h0l-1.364-4.815a8,8,0,0,1-.1-3.961l1.055-4.62h0v-1.111l3.352,8.934c.214,1.209-1.778,4.125-2.8,5.531Z" fill="url(#linear-gradient-4)"/>
      <path id="Path_157136" data-name="Path 157136" d="M-223.629-265.421a27.758,27.758,0,0,0-1.7,6.452c-.125,1.139-.287,2.169-.445,3.024a27.634,27.634,0,0,0-.432,5.849l.026.821.44,2.175s1.055,6.984-1.858,12.13c0,0-1.726,3.082-1.779,4.541l-1.169.452-2.363-.663a21.847,21.847,0,0,0,.77-6.958l.213-9.317a12.973,12.973,0,0,1-1.587-6.55l-.9-11.578Z" fill="#fdc2cc"/>
      <path id="Path_157137" data-name="Path 157137" d="M-234.414-267.07a16.883,16.883,0,0,1-2.523,7.626,21.65,21.65,0,0,0-2.707,4.462l-2.749,5.559a3.188,3.188,0,0,0-.258,2.08l.271,1.252s1.487,5.045-.026,8.95l-.717,7.542h-4.194s-.352-6.267-.5-6.8-1.009-10.808-1.009-10.808-1.758-2.391-.134-6.081c0,0,3.665-13.809,4.646-13.57S-234.414-267.07-234.414-267.07Z" fill="#fdc2cc"/>
      <g id="Group_167401" data-name="Group 167401" opacity="0.1">
        <path id="Path_157138" data-name="Path 157138" d="M-242.806-246.084l-.269-1.252a3.166,3.166,0,0,1,.257-2.088l2.749-5.564a21.652,21.652,0,0,1,2.707-4.462,16.842,16.842,0,0,0,2.521-7.6l.427-.021a16.883,16.883,0,0,1-2.523,7.626,21.651,21.651,0,0,0-2.707,4.462l-2.749,5.559a3.188,3.188,0,0,0-.258,2.08l.271,1.252s1.487,5.045-.026,8.95l-.717,7.542h-.425l.717-7.542C-241.319-241.047-242.806-246.084-242.806-246.084Z"/>
      </g>
      <path id="Path_157139" data-name="Path 157139" d="M-229.794-230.421c.053-1.459,1.779-4.541,1.779-4.541,2.922-5.151,1.858-12.13,1.858-12.13l-.45-2.176-.026-.821a27.7,27.7,0,0,1,.432-5.849c.156-.854.318-1.884.443-3.024a27.732,27.732,0,0,1,1.693-6.438l.436-.018a27.759,27.759,0,0,0-1.7,6.452c-.125,1.139-.287,2.169-.445,3.024a27.634,27.634,0,0,0-.432,5.849l.026.821.439,2.175s1.055,6.984-1.858,12.13c0,0-1.726,3.082-1.779,4.541l-1.169.452-.246-.069Z" opacity="0.1"/>
      <path id="Path_157140" data-name="Path 157140" d="M-231.148-230.478a2.031,2.031,0,0,0,1.934-.239,6.253,6.253,0,0,0-.158,3.5c.478,1.913-4.462-1.54-4.462-1.54l1.05-2.41A1.653,1.653,0,0,0-231.148-230.478Z" fill="#d39999"/>
      <path id="Path_157141" data-name="Path 157141" d="M-230.781-230.371a1.973,1.973,0,0,0,1.57-.352,6.253,6.253,0,0,0-.158,3.505c.478,1.913-4.462-1.54-4.462-1.54l1.055-2.41a1.506,1.506,0,0,0,1.2.679C-231.3-230.457-231.039-230.417-230.781-230.371Z" opacity="0.1"/>
      <path id="Path_157142" data-name="Path 157142" d="M-242.355-275.15h2.064v-11.71l-1.549-.278Z" fill="#fdc2cc"/>
      <path id="Path_157143" data-name="Path 157143" d="M-242.355-275.15h2.064v-11.71l-1.549-.278Z" opacity="0.05"/>
      <path id="Path_157144" data-name="Path 157144" d="M-232.317-229.575a2.058,2.058,0,0,1,1.884,1.088l.717.557.352-.823a6.851,6.851,0,0,1,.812,4.435s.1.742-.983,1.088c0,0-.557.266-.425,1.274s-1.964,2.5-4.7,1.885c0,0-2.391.054-2.683-.5s.186-2.044.186-2.044.983-1.557,1.433-2.132a17.206,17.206,0,0,0,1.3-3.516C-234.286-229.374-233.008-230.187-232.317-229.575Z" fill="#7e5659"/>
      <path id="Path_157145" data-name="Path 157145" d="M-243.084-228.592l.021-1.651a7.609,7.609,0,0,1-4.3-.09s.162,1.659-.1,1.886.89,2.363.89,2.363l1.292,1.354,2.222-.809.6-1.9S-242.926-228.592-243.084-228.592Z" fill="#d39999"/>
      <path id="Path_157146" data-name="Path 157146" d="M-243.084-228.592l.021-1.651a7.609,7.609,0,0,1-4.3-.09s.162,1.659-.1,1.886.89,2.363.89,2.363l1.292,1.354,2.222-.809.6-1.9S-242.926-228.592-243.084-228.592Z" opacity="0.1"/>
      <path id="Path_157147" data-name="Path 157147" d="M-247.613-229.19s1.262.146,1.1,1.758.067,0,.067,0a4.621,4.621,0,0,1,1.819,1.3c.478.758,1.341-.677,1.406-1.088s.6-.582.6-.582,2.11,3.911,1.737,4.987-4.9,1.324-4.9,1.324-.824-.464-2.723.983-5.842.352-5.842.352-3.214-1.341-1.26-2.813,3.279-1.248,3.279-1.248l2.908-2.8S-249.033-229.271-247.613-229.19Z" fill="#7e5659"/>
      <path id="Path_157148" data-name="Path 157148" d="M-232.539-321.659c.8.487,1.375,1.278,2.136,1.828,1.083.782,2.537,1.074,3.37,2.118a4.134,4.134,0,0,1,.6,3.254c-.19,1.122-.615,2.192-.821,3.31a4.286,4.286,0,0,0,.5,3.279.747.747,0,0,0,.322.283,1.041,1.041,0,0,0,.49,0,2.872,2.872,0,0,1,2.735,1.7,6.8,6.8,0,0,1,.5,3.359,6.924,6.924,0,0,1-.561,2.737,7.156,7.156,0,0,1-3.609,3,27.931,27.931,0,0,1-2.881,1.164,4.324,4.324,0,0,1-2.088.315c-1.2-.207-2.052-1.3-3.191-1.726a6.736,6.736,0,0,0-2.962-.137,2.886,2.886,0,0,1-2.4-.547c-.749-.8-.411-2.076-.028-3.1a2.206,2.206,0,0,1-2.062-2.341,2.207,2.207,0,0,1,.5-1.266c.362-.441.94-.956.657-1.454a.971.971,0,0,0-.38-.33c-1.144-.654-2.721-.916-3.2-2.143a3.026,3.026,0,0,1,.381-2.433,7.2,7.2,0,0,0,.986-2.326c.141-1.188-.527-2.41-.188-3.556a3.586,3.586,0,0,1,.824-1.311,11.335,11.335,0,0,1,3.692-2.705,19.2,19.2,0,0,1,4.244-1.086A3,3,0,0,1-232.539-321.659Z" fill="#865a61"/>
      <path id="Path_157149" data-name="Path 157149" d="M-240.293-303.962s-3.363-.176-4,2.691,1.38,6.974,1.38,6.974Z" fill="#fdc2cc"/>
      <path id="Path_157150" data-name="Path 157150" d="M-240.293-303.962s-3.363-.176-4,2.691,1.38,6.974,1.38,6.974Z" opacity="0.05"/>
      <path id="Path_157151" data-name="Path 157151" d="M-242.439-295.429l1.275,1.009,5.947.265,3.713-2.549,3.776-6.48a4.669,4.669,0,0,1-3.59-3.674,8.064,8.064,0,0,1-.074-3.069s-6.054-3.134-5.311,1.758a6.633,6.633,0,0,1,.056,1.818,2.574,2.574,0,0,1-2.752,2.383,2.741,2.741,0,0,1-.381-.057l-1.067,1.645-1.222,4.043Z" fill="#fdc2cc"/>
      <path id="Path_157152" data-name="Path 157152" d="M-236.7-308.176a6.633,6.633,0,0,1,.056,1.818,5.365,5.365,0,0,0,5.328-.5,8.064,8.064,0,0,1-.074-3.069S-237.441-313.061-236.7-308.176Z" opacity="0.1"/>
      <circle id="Ellipse_2415" data-name="Ellipse 2415" cx="5.363" cy="5.363" r="5.363" transform="translate(-239.774 -316.813)" fill="#fdc2cc"/>
      <path id="Path_157153" data-name="Path 157153" d="M-238.2-296.452a3.858,3.858,0,0,1,.387.032c.7.07,3.641.229,5.314-1.77,1.872-2.236,4.365-5,4.467-5.11l2.537.766s-2.008-.714-3.34,3.02a3.869,3.869,0,0,0,1.306,4.449,4.014,4.014,0,0,0,1.66.7v1.647h0l-1.037,4.571a7.933,7.933,0,0,0,.1,3.911l1.582,5.592c-.239.165-10.055,6.842-16.613,2.231h0c.025-.2.835-6.763.272-9.975a22.463,22.463,0,0,1-.294-2.482v-.062a2.8,2.8,0,0,0-.962-1.9c-.591-.527-1.391-1.934-.6-5.65a13.71,13.71,0,0,1,.879-2.677l2.2-4.97h0l2.027.04v.014c-.176.218-2.526,3.154-2.781,5.045C-241.351-297.226-241.663-296.674-238.2-296.452Z" fill="#f06292"/>
      <path id="Path_157154" data-name="Path 157154" d="M-223.792-301.661a10.22,10.22,0,0,1,2.762,5.559c.779,3.859,2.514,10.268,2.514,10.268a6.548,6.548,0,0,1-1.7,5.559c-2.4,2.762-4,4.922-4,4.922l-1.582,2.331a1.975,1.975,0,0,1-1.139.8,3.848,3.848,0,0,1-2.788-.2,1.625,1.625,0,0,1-.7-2.052l.352-.814s-3.257,2.053-3.541.919,3.788-2.266,3.788-2.266,3.363-.566,4.043-2.159c0,0,3.611-4.639,3.328-6.232l-3.488-9.347s-4.361-.577-2.874-5.476S-223.792-301.661-223.792-301.661Z" fill="#fdc2cc"/>
      <path id="Path_157155" data-name="Path 157155" d="M-244.647-266.4s7.967,1.593,9.845,1.38l.2.673s3.024.677,9.86-.408q.671-.1,1.391-.237l.16-.028s.093-.506.167-1.369a23.734,23.734,0,0,0-1.159-9.641l-1.15-3.54s-7.106,4.259-11.81,3.867c-.42-.035-.837-.069-1.257-.083-.965-.037-2.461,0-3.433-.779l-2.039.352v5.8a6.926,6.926,0,0,1-.461,2.482c-.044.116-.09.23-.141.352A1.851,1.851,0,0,0-244.647-266.4Z" fill="#65617d"/>
      <path id="Path_157156" data-name="Path 157156" d="M-234.6-266.149v1.8s3.481.779,11.411-.673c0,0,.093-.506.167-1.369C-225.457-266-232.167-265.057-234.6-266.149Z" opacity="0.1"/>
      <path id="Path_157157" data-name="Path 157157" d="M-244.651-266.4s7.967,1.593,9.844,1.38l.2.673v-1.8c-.907.376-7.383-1.185-9.73-1.77-.044.116-.09.23-.141.352A1.851,1.851,0,0,0-244.651-266.4Z" opacity="0.1"/>
      <path id="Path_157158" data-name="Path 157158" d="M-225.333-268.41l.591,3.664q.671-.105,1.391-.237a24.05,24.05,0,0,1-.476-3.922l-.744-.636Z" fill="#65617d"/>
      <path id="Path_157159" data-name="Path 157159" d="M-225.25-268.489l.591,3.665q.67-.106,1.391-.237a24.067,24.067,0,0,1-.476-3.922l-.744-.638Z" opacity="0.1"/>
      <g id="Group_167402" data-name="Group 167402" opacity="0.05">
        <path id="Path_157160" data-name="Path 157160" d="M-237.568-275.7c-.418-.035-.837-.069-1.257-.083a6.036,6.036,0,0,1-3.349-.719l.341-.06a5.866,5.866,0,0,0,3.433.779c.42.014.837.047,1.257.083.137.012.278.019.42.023a7.716,7.716,0,0,1-.846-.023Z"/>
        <path id="Path_157161" data-name="Path 157161" d="M-225.168-264.751q.671-.105,1.391-.236l.162-.03s.093-.506.165-1.369a23.682,23.682,0,0,0-1.159-9.641l-1.083-3.34c.23-.13.352-.206.352-.206l1.15,3.54a23.733,23.733,0,0,1,1.158,9.641c-.074.863-.167,1.369-.167,1.369l-.16.03q-.719.131-1.391.236a43.762,43.762,0,0,1-7.164.615A45.119,45.119,0,0,0-225.168-264.751Z"/>
        <path id="Path_157162" data-name="Path 157162" d="M-235.231-265.016V-265h-.229C-235.373-265-235.3-265.008-235.231-265.016Z"/>
      </g>
      <ellipse id="Ellipse_2416" data-name="Ellipse 2416" cx="0.301" cy="0.619" rx="0.301" ry="0.619" transform="translate(-224.644 -268.963)" fill="#d39999"/>
      <path id="Path_157163" data-name="Path 157163" d="M-243.529-280.875a20.578,20.578,0,0,1,1.793-6.584c.018.114.063.485.084.6a17.012,17.012,0,0,1,.039,1.862l-.45,8.15.6,2.549c.566,2.018-1.531.424-1.531.424a1.247,1.247,0,0,1-1.231.851l-.109-1.463a12.644,12.644,0,0,1,.366-4.1,19.289,19.289,0,0,0,.436-2.287Z" fill="#fdc2cc"/>
      <path id="Path_157164" data-name="Path 157164" d="M-243.529-280.875a20.578,20.578,0,0,1,1.793-6.584c.018.114.063.485.084.6a17.012,17.012,0,0,1,.039,1.862l-.45,8.15.6,2.549c.566,2.018-1.531.424-1.531.424a1.247,1.247,0,0,1-1.231.851l-.109-1.463a12.644,12.644,0,0,1,.366-4.1,19.289,19.289,0,0,0,.436-2.287Z" opacity="0.05"/>
      <path id="Path_157165" data-name="Path 157165" d="M-223.352-276.478c-.381.494-.591.777-.591.777l-1.582,2.329a1.975,1.975,0,0,1-1.139.805,3.838,3.838,0,0,1-2.788-.2,1.622,1.622,0,0,1-.7-2.05l.352-.816s-3.257,2.053-3.54.921,3.788-2.266,3.788-2.266,3.363-.566,4.043-2.161c0,0,.294-.376.7-.953" fill="#fdc2cc"/>
      <path id="Path_157166" data-name="Path 157166" d="M-225.332-272.574s-3.852-.374-5.072-2.577l-.559,1.819s4.043,2.792,4.966,2.429Z" fill="#65617d"/>
      <path id="Path_157167" data-name="Path 157167" d="M-225.47-272.591s-3.85-.374-5.072-2.579l-.557,1.814s4.043,2.792,4.964,2.429Z" opacity="0.1"/>
      <path id="Path_157168" data-name="Path 157168" d="M-242.864-273.6s-1.348.478-1.614.213l.606,1.116,1.146-.879Z" fill="#65617d"/>
      <path id="Path_157169" data-name="Path 157169" d="M-242.864-273.6s-1.348.478-1.614.213l.606,1.116,1.146-.879Z" opacity="0.1"/>
      <path id="Path_157170" data-name="Path 157170" d="M-234.6-266.148v-2.33l-.554,2.386Z" opacity="0.1"/>
      <path id="Path_157171" data-name="Path 157171" d="M-229.144-314.281a2.064,2.064,0,0,1-1.445.761,11.2,11.2,0,0,1-1.679,0,4.22,4.22,0,0,0-2.533.638,6.52,6.52,0,0,0-1.162,1.231c-1.086,1.327-2.6,2.57-4.307,2.431a1.118,1.118,0,0,1-.8-.338,1.289,1.289,0,0,1-.2-.728,16.729,16.729,0,0,1,.1-3.28,6.942,6.942,0,0,1,.5-1.957,6.715,6.715,0,0,1,1.192-1.7,7.314,7.314,0,0,1,2.08-1.667,3.732,3.732,0,0,1,2.6-.336,24,24,0,0,1,2.8,1.494C-230.881-317.263-227.917-316.009-229.144-314.281Z" opacity="0.1"/>
      <path id="Path_157172" data-name="Path 157172" d="M-229.144-314.494a2.064,2.064,0,0,1-1.445.761,11.2,11.2,0,0,1-1.679,0,4.211,4.211,0,0,0-2.533.636,6.518,6.518,0,0,0-1.162,1.231c-1.086,1.327-2.6,2.57-4.307,2.431a1.109,1.109,0,0,1-.8-.338,1.281,1.281,0,0,1-.2-.728,16.729,16.729,0,0,1,.1-3.28,6.942,6.942,0,0,1,.5-1.957,6.664,6.664,0,0,1,1.192-1.7,7.286,7.286,0,0,1,2.08-1.668,3.732,3.732,0,0,1,2.6-.336,24,24,0,0,1,2.8,1.494C-230.881-317.475-227.917-316.225-229.144-314.494Z" fill="#865a61"/>
      <path id="Path_157173" data-name="Path 157173" d="M-241.831-276.564l-.014.642-.144-.614Z" fill="#fdc2cc"/>
      <path id="Path_157174" data-name="Path 157174" d="M-241.831-276.564l-.014.642-.144-.614Z" opacity="0.05"/>
      <g id="Group_167403" data-name="Group 167403" opacity="0.05">
        <path id="Path_157175" data-name="Path 157175" d="M-228.274-300.177c-1.489,4.9,2.851,5.474,2.851,5.474l3.488,9.347c.283,1.593-3.33,6.232-3.33,6.232a3.081,3.081,0,0,1-1.565,1.38,2.444,2.444,0,0,0,.928-1.02s3.611-4.637,3.328-6.23l-3.488-9.349s-4.339-.575-2.851-5.474c.5-1.637,1.231-2.382,1.972-2.649A4.522,4.522,0,0,0-228.274-300.177Z"/>
      </g>
      <g id="Group_167404" data-name="Group 167404" opacity="0.1">
        <path id="Path_157176" data-name="Path 157176" d="M-228.2-295.726a3.681,3.681,0,0,0,.7.666,3.992,3.992,0,0,0,1.659.7v.185a3.982,3.982,0,0,1-1.5-.666A3.647,3.647,0,0,1-228.2-295.726Z"/>
        <path id="Path_157177" data-name="Path 157177" d="M-241.686-288.716v.062a22.879,22.879,0,0,0,.3,2.491c.527,3.031-.163,9.048-.262,9.88l-.176-.112c.026-.2.837-6.763.274-9.973a22.459,22.459,0,0,1-.294-2.482v-.062a2.712,2.712,0,0,0-.473-1.345A2.734,2.734,0,0,1-241.686-288.716Z"/>
        <path id="Path_157178" data-name="Path 157178" d="M-238.45-303.884l-1.719-.033h-.009l-2.2,4.968a13.779,13.779,0,0,0-.879,2.677c-.64,3.006-.237,4.5.251,5.244-.55-.649-1.118-2.127-.41-5.45a13.658,13.658,0,0,1,.87-2.679l2.213-4.968h0l2.027.04v.012C-238.321-304.055-238.373-303.984-238.45-303.884Z"/>
        <path id="Path_157179" data-name="Path 157179" d="M-225.494-302.536l.03.009Z"/>
        <path id="Path_157180" data-name="Path 157180" d="M-226.126-302.564l-1.723-.519h-.009c-.1.112-2.593,2.874-4.465,5.11-1.674,2-4.608,1.842-5.314,1.772-.128-.014-.258-.025-.387-.033-1.921-.123-2.677-.352-2.93-.837.36.352,1.153.527,2.771.626a3.857,3.857,0,0,1,.387.032c.7.07,3.641.227,5.314-1.77,1.872-2.238,4.365-5,4.467-5.112h0l2.507.759A1.569,1.569,0,0,0-226.126-302.564Z"/>
      </g>
      <path id="Path_157181" data-name="Path 157181" d="M-246.518-226.635s-2.426.663-2.9-.378" opacity="0.1"/>
      <path id="Path_157182" data-name="Path 157182" d="M-231.122-227.133s-2.813.726-3.463-.4" opacity="0.1"/>
      <path id="Path_157183" data-name="Path 157183" d="M-190.562-228.706c.04-.352.1-.7.162-1.055a7.339,7.339,0,0,0-.352-3.565h0c-.065-.185-.112-.288-.112-.288-1.12-.306-5.534,3.119-7.143,4.409-.557,0-1.162.025-1.823.069-.288.021-.577.028-.865.023h-1.055c-1.492-1.2-6.112-4.819-7.262-4.506,0,0-.047.1-.113.288h0a7.235,7.235,0,0,0-.36,3.565c.063.352.121.7.162,1.055a5.049,5.049,0,0,0,1.582,3.254,21.369,21.369,0,0,0,1.916,5.69,4.113,4.113,0,0,0,.246.8,11.983,11.983,0,0,0-.545,3.164s-1.561-.378-1.719,1.5v.058c-.564.258-1.269.851-.476,2.092a.812.812,0,0,0,.408.332c.141.049.278.049.264-.148l.976,1.1s1.768.2,1.79-.823l.1.016c.237.035.485.065.74.091l.123.406s-1.327-.028-.965.789c0,0,.334.309.448.2,0,0-.176.536.517.536,0,0,.744.394,1.034.113s.891-.7.948-.879c.016-.047.023-.464.026-1.041h.114c1.482.035,3.055-.012,4.486-.09h.117c0,.624.008,1.085.025,1.134.058.176.661.592.949.879s1.031-.113,1.031-.113c.69,0,.518-.536.518-.536.116.113.45-.2.45-.2.362-.818-.967-.789-.967-.789l.158-.527.733-.062.116-.01c-.07,1.116,1.788.9,1.788.9l.977-1.1c-.016.2.121.2.262.148a.812.812,0,0,0,.4-.336c1.2-1.872-1.014-2.27-1.014-2.27a1.069,1.069,0,0,0-.209-.033.339.339,0,0,1,.009-.1h0a3.914,3.914,0,0,0,.014-.742,1.633,1.633,0,0,0-1.317-.958c-.45-.056-.459-2.124-.413-3.556a4.132,4.132,0,0,0,.07-.816,4.338,4.338,0,0,0-.176-1.306,16.776,16.776,0,0,0,1.661-3.516A5.118,5.118,0,0,0-190.562-228.706Z" fill="url(#linear-gradient-5)"/>
      <path id="Path_157184" data-name="Path 157184" d="M-192.264-214.458h0c-.07.974-.258,2.537-.258,2.537s-.782.1-1.992.2l-.821.07c-.629.051-1.336.1-2.083.142-1.38.076-2.9.123-4.325.088-.714-.016-1.406-.053-2.048-.116-.287-.028-.564-.062-.828-.1-1.638-.244-2.813-.712-2.913-1.533a4.774,4.774,0,0,1-.037-1.055c.153-1.846,1.656-1.473,1.656-1.473a12.735,12.735,0,0,1,.563-3.24c.186-.722.352-1.271.352-1.271l10.569-.7h.035a.517.517,0,0,1,.518.517v.026c-.063,1.267-.153,4.17.366,4.235a1.591,1.591,0,0,1,1.271.94A3.9,3.9,0,0,1-192.264-214.458Z" fill="#f06292"/>
      <path id="Path_157185" data-name="Path 157185" d="M-201.24-228.37s-3.985,4.8-5.9,3.468a1.432,1.432,0,0,1-.132-.1,4.894,4.894,0,0,1-1.722-3.347c-.039-.352-.1-.691-.156-1.034a7.2,7.2,0,0,1,.352-3.5h0c.063-.176.107-.283.107-.283C-207.367-233.537-201.24-228.37-201.24-228.37Z" fill="#f06292"/>
      <path id="Path_157186" data-name="Path 157186" d="M-203.381-227.928s-1.255.879-3.025,2.324a6.283,6.283,0,0,1-.879.6A4.9,4.9,0,0,1-209-228.356c-.039-.352-.1-.691-.156-1.034a7.2,7.2,0,0,1,.352-3.5h0C-206.328-232.713-203.381-227.928-203.381-227.928Z" fill="#f06292"/>
      <path id="Path_157187" data-name="Path 157187" d="M-203.381-227.928s-1.255.879-3.025,2.324a6.283,6.283,0,0,1-.879.6A4.9,4.9,0,0,1-209-228.356c-.039-.352-.1-.691-.156-1.034a7.2,7.2,0,0,1,.352-3.5h0C-206.328-232.713-203.381-227.928-203.381-227.928Z" fill="#fff" opacity="0.5"/>
      <path id="Path_157188" data-name="Path 157188" d="M-204.747-228.4s-.67.473-1.616,1.241a3.308,3.308,0,0,1-.464.322,2.59,2.59,0,0,1-.918-1.788c-.019-.186-.049-.369-.083-.554a3.853,3.853,0,0,1,.2-1.867h0C-206.319-230.955-204.747-228.4-204.747-228.4Z" opacity="0.1"/>
      <path id="Path_157189" data-name="Path 157189" d="M-198.658-228.37s3.985,4.8,5.9,3.468c.044-.032.09-.063.132-.1a4.888,4.888,0,0,0,1.719-3.353c.039-.352.1-.691.155-1.034a7.163,7.163,0,0,0-.351-3.5h0c-.063-.176-.11-.283-.11-.283C-192.532-233.537-198.658-228.37-198.658-228.37Z" fill="#f06292"/>
      <path id="Path_157190" data-name="Path 157190" d="M-196.518-227.928s1.257.879,3.027,2.324a6.314,6.314,0,0,0,.87.6,4.887,4.887,0,0,0,1.719-3.352c.039-.352.095-.691.155-1.034a7.149,7.149,0,0,0-.352-3.5h0C-193.568-232.713-196.518-227.928-196.518-227.928Z" fill="#f06292"/>
      <path id="Path_157191" data-name="Path 157191" d="M-196.518-227.928s1.257.879,3.027,2.324a6.314,6.314,0,0,0,.87.6,4.887,4.887,0,0,0,1.719-3.352c.039-.352.095-.691.155-1.034a7.149,7.149,0,0,0-.352-3.5h0C-193.568-232.713-196.518-227.928-196.518-227.928Z" fill="#fff" opacity="0.5"/>
      <path id="Path_157192" data-name="Path 157192" d="M-195.142-228.4s.666.471,1.6,1.231a3.251,3.251,0,0,0,.462.32,2.6,2.6,0,0,0,.918-1.774c.019-.176.049-.367.083-.55a3.842,3.842,0,0,0-.185-1.856h0C-193.579-230.942-195.142-228.4-195.142-228.4Z" opacity="0.1"/>
      <path id="Path_157193" data-name="Path 157193" d="M-194.437-220.9a9.507,9.507,0,0,1-1.526,1.944c-1.582,1.406-8.414.847-8.857.775-.093-.016-.287-.292-.527-.74.186-.723.352-1.271.352-1.271Z" opacity="0.1"/>
      <path id="Path_157194" data-name="Path 157194" d="M-199.844-228.773c-.278.019-.555.026-.835.021-1.426-.025-6.228.039-6.761,1.978-.628,2.285,2.178,8.4,2.619,8.479s7.271.628,8.858-.775a17.016,17.016,0,0,0,3.542-6.2S-190.451-229.419-199.844-228.773Z" fill="#f06292"/>
      <path id="Path_157195" data-name="Path 157195" d="M-199.993-225.067a5.044,5.044,0,0,0-5.165,2.918,4.22,4.22,0,0,0,.311,4.253,1.942,1.942,0,0,0,2.473.879C-199.886-218.042-199.993-225.067-199.993-225.067Z" opacity="0.1"/>
      <path id="Path_157196" data-name="Path 157196" d="M-200.106-225.288a5.044,5.044,0,0,0-5.165,2.918,4.22,4.22,0,0,0,.311,4.253,1.942,1.942,0,0,0,2.473.879C-200-218.263-200.106-225.288-200.106-225.288Z" opacity="0.1"/>
      <path id="Path_157197" data-name="Path 157197" d="M-200.106-225.178a5.044,5.044,0,0,0-5.165,2.918,4.22,4.22,0,0,0,.311,4.253,1.942,1.942,0,0,0,2.473.879C-200-218.154-200.106-225.178-200.106-225.178Z" fill="#f06292"/>
      <path id="Path_157198" data-name="Path 157198" d="M-200.106-225.178a5.044,5.044,0,0,0-5.165,2.918,4.22,4.22,0,0,0,.311,4.253,1.942,1.942,0,0,0,2.473.879C-200-218.154-200.106-225.178-200.106-225.178Z" fill="#fff" opacity="0.5"/>
      <path id="Path_157199" data-name="Path 157199" d="M-203.9-222.153s-.48.443-.3.554S-203.9-222.153-203.9-222.153Z" fill="#3f2b3b"/>
      <path id="Path_157200" data-name="Path 157200" d="M-203.381-221.586s-.262.578-.076.642.3-.415.3-.415Z" fill="#3f2b3b"/>
      <path id="Path_157201" data-name="Path 157201" d="M-204.54-220.713s-.257.682,0,.682S-204.54-220.713-204.54-220.713Z" fill="#3f2b3b"/>
      <path id="Path_157202" data-name="Path 157202" d="M-204.858-218.886a1.945,1.945,0,0,0,1.849,1.218" fill="none" stroke="#3f2b3b" stroke-miterlimit="10" stroke-width="1"/>
      <path id="Path_157203" data-name="Path 157203" d="M-203.657-218.5a.925.925,0,0,0,1.106.148" fill="none" stroke="#3f2b3b" stroke-miterlimit="10" stroke-width="1"/>
      <path id="Path_157204" data-name="Path 157204" d="M-199.541-225.067a5.043,5.043,0,0,1,5.165,2.918,4.215,4.215,0,0,1-.311,4.253,1.941,1.941,0,0,1-2.473.879C-199.661-218.042-199.541-225.067-199.541-225.067Z" opacity="0.1"/>
      <path id="Path_157205" data-name="Path 157205" d="M-199.442-225.288a5.043,5.043,0,0,1,5.165,2.918,4.215,4.215,0,0,1-.311,4.253,1.942,1.942,0,0,1-2.473.879C-199.546-218.263-199.442-225.288-199.442-225.288Z" opacity="0.1"/>
      <path id="Path_157206" data-name="Path 157206" d="M-199.442-225.178a5.043,5.043,0,0,1,5.165,2.918,4.215,4.215,0,0,1-.311,4.253,1.941,1.941,0,0,1-2.473.879C-199.546-218.154-199.442-225.178-199.442-225.178Z" fill="#f06292"/>
      <path id="Path_157207" data-name="Path 157207" d="M-199.442-225.178a5.043,5.043,0,0,1,5.165,2.918,4.215,4.215,0,0,1-.311,4.253,1.941,1.941,0,0,1-2.473.879C-199.546-218.154-199.442-225.178-199.442-225.178Z" fill="#fff" opacity="0.5"/>
      <path id="Path_157208" data-name="Path 157208" d="M-195.65-222.153s.48.443.3.554S-195.65-222.153-195.65-222.153Z" fill="#3f2b3b"/>
      <path id="Path_157209" data-name="Path 157209" d="M-196.167-221.586s.262.578.076.642-.3-.415-.3-.415Z" fill="#3f2b3b"/>
      <path id="Path_157210" data-name="Path 157210" d="M-195.006-220.713s.255.682,0,.682S-195.006-220.713-195.006-220.713Z" fill="#3f2b3b"/>
      <path id="Path_157211" data-name="Path 157211" d="M-194.69-218.886a1.943,1.943,0,0,1-1.849,1.218" fill="none" stroke="#3f2b3b" stroke-miterlimit="10" stroke-width="1"/>
      <path id="Path_157212" data-name="Path 157212" d="M-195.889-218.5a.926.926,0,0,1-1.107.148" fill="none" stroke="#3f2b3b" stroke-miterlimit="10" stroke-width="1"/>
      <path id="Path_157213" data-name="Path 157213" d="M-201.444-215.159a5.1,5.1,0,0,1,3.653,0Z" fill="#3f2b3b"/>
      <path id="Path_157214" data-name="Path 157214" d="M-204.619-211.628c-1.638-.244-2.813-.712-2.913-1.533a4.774,4.774,0,0,1-.037-1.055,2.413,2.413,0,0,1,.626-.229,2.8,2.8,0,0,1,1.44.2c.775.221.719,1.134.879,2.324A.96.96,0,0,1-204.619-211.628Z" opacity="0.1"/>
      <path id="Path_157215" data-name="Path 157215" d="M-207.056-214.33s-2.131.39-.977,2.229a.79.79,0,0,0,.394.325c.135.047.265.047.251-.146l.942,1.079s1.881.221,1.716-.969-.111-2.11-.879-2.324A2.92,2.92,0,0,0-207.056-214.33Z" fill="#f06292"/>
      <path id="Path_157216" data-name="Path 157216" d="M-206.546-213.092s.452,1.032,1.079.165" fill="none" stroke="#3f2b3b" stroke-miterlimit="10" stroke-width="1"/>
      <path id="Path_157217" data-name="Path 157217" d="M-207.583-212.683s.234.977,1.12.25" fill="none" stroke="#3f2b3b" stroke-miterlimit="10" stroke-width="1"/>
      <path id="Path_157218" data-name="Path 157218" d="M-192.264-214.458h0c-.07.974-.258,2.537-.258,2.537s-.782.1-1.992.2a1.114,1.114,0,0,1,0-.2c.165-1.19.111-2.11.879-2.324A3.394,3.394,0,0,1-192.264-214.458Z" opacity="0.1"/>
      <path id="Path_157219" data-name="Path 157219" d="M-192.07-214.33s2.132.39.979,2.229a.782.782,0,0,1-.394.325c-.135.047-.267.047-.253-.146l-.941,1.079s-1.883.221-1.716-.969.112-2.11.88-2.324A2.912,2.912,0,0,1-192.07-214.33Z" fill="#f06292"/>
      <path id="Path_157220" data-name="Path 157220" d="M-192.577-213.092s-.454,1.032-1.079.165" fill="none" stroke="#3f2b3b" stroke-miterlimit="10" stroke-width="1"/>
      <path id="Path_157221" data-name="Path 157221" d="M-191.54-212.683s-.236.977-1.122.25" fill="none" stroke="#3f2b3b" stroke-miterlimit="10" stroke-width="1"/>
      <path id="Path_157222" data-name="Path 157222" d="M-201.743-211.417c-.714-.016-1.406-.053-2.048-.116l-.638-2.148a1.441,1.441,0,0,1-.058-.392,1.368,1.368,0,0,1,1.415-1.319,1.366,1.366,0,0,1,1.319,1.31C-201.746-213.245-201.739-212.185-201.743-211.417Z" opacity="0.1"/>
      <path id="Path_157223" data-name="Path 157223" d="M-204.539-213.681l.752,2.535s-1.28-.028-.93.775c0,0,.322.3.432.193,0,0-.167.527.5.527,0,0,.717.389,1,.111s.86-.693.916-.858c.035-.109.025-2.229.012-3.692a1.363,1.363,0,0,0-1.366-1.354h0a1.367,1.367,0,0,0-1.368,1.364,1.4,1.4,0,0,0,.058.4Z" fill="#f06292"/>
      <path id="Path_157224" data-name="Path 157224" d="M-203.524-210.49s-.559.527-.264.839" fill="none" stroke="#3f2b3b" stroke-miterlimit="10" stroke-width="1"/>
      <path id="Path_157225" data-name="Path 157225" d="M-203.764-210.826a.763.763,0,0,0-.517.649" fill="none" stroke="#3f2b3b" stroke-miterlimit="10" stroke-width="1"/>
      <path id="Path_157226" data-name="Path 157226" d="M-194.674-214.073a1.366,1.366,0,0,1-.056.392l-.6,2.034c-.629.051-1.336.1-2.083.142,0-.759,0-1.77.012-2.577a1.367,1.367,0,0,1,1.371-1.361,1.365,1.365,0,0,1,1.361,1.37h0Z" opacity="0.1"/>
      <path id="Path_157227" data-name="Path 157227" d="M-194.623-213.681l-.752,2.535s1.282-.028.932.775c0,0-.322.3-.432.193,0,0,.165.527-.5.527,0,0-.717.389-.995.111s-.858-.693-.914-.858c-.035-.109-.025-2.229-.012-3.692a1.365,1.365,0,0,1,1.364-1.352h0a1.367,1.367,0,0,1,1.367,1.366,1.355,1.355,0,0,1-.059.4Z" fill="#f06292"/>
      <path id="Path_157228" data-name="Path 157228" d="M-195.637-210.49s.559.527.264.839" fill="none" stroke="#3f2b3b" stroke-miterlimit="10" stroke-width="1"/>
      <path id="Path_157229" data-name="Path 157229" d="M-195.391-210.826a.759.759,0,0,1,.517.649" fill="none" stroke="#3f2b3b" stroke-miterlimit="10" stroke-width="1"/>
      <path id="Path_157230" data-name="Path 157230" d="M-200.1-225.731s-2.6-.083-2.686,1.934,4.068,1.162,4.068,1.162,1.744-.234,1.44-1.459S-198.225-225.62-200.1-225.731Z" opacity="0.1"/>
      <path id="Path_157231" data-name="Path 157231" d="M-200.1-225.953s-2.6-.083-2.686,1.934,4.066,1.158,4.066,1.158,1.744-.234,1.44-1.459S-198.225-225.842-200.1-225.953Z" opacity="0.1"/>
      <path id="Path_157232" data-name="Path 157232" d="M-200.1-225.842s-2.6-.083-2.686,1.934,4.068,1.162,4.068,1.162,1.744-.234,1.44-1.459S-198.225-225.731-200.1-225.842Z" fill="#3f2b3b"/>
      <path id="Path_157233" data-name="Path 157233" d="M-205.913-215.685s.879.313,1.055.912" opacity="0.1"/>
      <path id="Path_157234" data-name="Path 157234" d="M-193.519-216.128s-.624.262-.58,1.355" opacity="0.1"/>
      <ellipse id="Ellipse_2417" data-name="Ellipse 2417" cx="0.407" cy="0.676" rx="0.407" ry="0.676" transform="translate(-206.233 -211.498) rotate(-29.887)" fill="#f06292"/>
      <ellipse id="Ellipse_2418" data-name="Ellipse 2418" cx="0.673" cy="0.406" rx="0.673" ry="0.406" transform="translate(-193.86 -211.339) rotate(-60)" fill="#f06292"/>
      <ellipse id="Ellipse_2419" data-name="Ellipse 2419" cx="0.407" cy="0.676" rx="0.407" ry="0.676" transform="translate(-206.233 -211.498) rotate(-29.887)" fill="#fff" opacity="0.5"/>
      <ellipse id="Ellipse_2420" data-name="Ellipse 2420" cx="0.673" cy="0.406" rx="0.673" ry="0.406" transform="translate(-193.86 -211.339) rotate(-60)" fill="#fff" opacity="0.5"/>
      <ellipse id="Ellipse_2421" data-name="Ellipse 2421" cx="4.734" cy="0.8" rx="4.734" ry="0.8" transform="translate(-264.092 -234.718)" fill="#f06292" opacity="0.1"/>
      <ellipse id="Ellipse_2423" data-name="Ellipse 2423" cx="7.069" cy="1.195" rx="7.069" ry="1.195" transform="translate(-290.006 -233.918)" fill="#f5a6c1"/>
      <path id="Path_157235" data-name="Path 157235" d="M-285.861-234.678a2.047,2.047,0,0,1-.675-1.016.907.907,0,0,1,.471-1.035,1.325,1.325,0,0,1,1.245.436,1.67,1.67,0,0,0,1.211.585,1.845,1.845,0,0,1-.57-1.726.714.714,0,0,1,.158-.352c.239-.257.675-.146.963.056a3.584,3.584,0,0,1,1.173,3,5.507,5.507,0,0,0,.018-1.231,1.27,1.27,0,0,1,.464-1.094,1.417,1.417,0,0,1,.7-.176,1.468,1.468,0,0,1,1.15.327,1.13,1.13,0,0,1-.041,1.411,4.561,4.561,0,0,1-1.188.953,2.625,2.625,0,0,0-.851.81.926.926,0,0,0-.063.144h-2.57A7.116,7.116,0,0,1-285.861-234.678Z" fill="#f06292"/>
      <ellipse id="Ellipse_2424" data-name="Ellipse 2424" cx="4.734" cy="0.8" rx="4.734" ry="0.8" transform="translate(-116.911 -228.028)" fill="#f5a6c1"/>
      <path id="Path_157236" data-name="Path 157236" d="M-115.356-230.946s2.7-.083,3.516-.663,4.152-1.271,4.354-.341,4.059,4.622,1.01,4.646-7.083-.475-7.9-.97S-115.356-230.946-115.356-230.946Z" fill="#a8a8a8"/>
      <path id="Path_157237" data-name="Path 157237" d="M-106.424-227.625c-3.047.025-7.083-.475-7.9-.97-.619-.376-.865-1.728-.947-2.352h-.09s.177,2.178.984,2.672,4.847.995,7.895.97c.879,0,1.185-.32,1.167-.784C-105.432-227.8-105.766-227.625-106.424-227.625Z" opacity="0.2"/>
    </g>
  </g>
</svg>
