<svg xmlns="http://www.w3.org/2000/svg" xmlns:xlink="http://www.w3.org/1999/xlink" width="262" height="196" viewBox="0 0 262 196">
  <defs>
    <linearGradient id="linear-gradient" x1="5.403" y1="11.513" x2="5.403" y2="11.524" gradientUnits="objectBoundingBox">
      <stop offset="0" stop-color="gray" stop-opacity="0.251"/>
      <stop offset="0.54" stop-color="gray" stop-opacity="0.122"/>
      <stop offset="1" stop-color="gray" stop-opacity="0.102"/>
    </linearGradient>
    <linearGradient id="linear-gradient-2" x1="9.494" y1="11.542" x2="9.494" y2="11.553" xlink:href="#linear-gradient"/>
    <linearGradient id="linear-gradient-3" x1="-13238.691" y1="25744.055" x2="-13238.691" y2="25750.303" xlink:href="#linear-gradient"/>
    <linearGradient id="linear-gradient-4" x1="-6289.897" y1="12269.322" x2="-6289.897" y2="12273.322" xlink:href="#linear-gradient"/>
  </defs>
  <g id="card-10" transform="translate(598.218 807.797)">
    <rect id="Rectangle_8569-8" data-name="Rectangle 8569-8" width="262" height="196" transform="translate(-598.218 -807.797)" fill="#c0ebef"/>
    <g id="undraw_smiley_face_lmgm" data-name="undraw smiley face lmgm">
      <path id="Path_155426" data-name="Path 155426" d="M-451.933-766.355c-12.457-.431-24.321-4.454-35.65-8.854s-22.55-9.273-34.717-11.606c-7.82-1.5-16.765-1.711-23.064,2.483-6.065,4.042-8.024,11-9.077,17.461-.793,4.862-1.259,9.98.912,14.532,1.509,3.16,4.186,5.817,6.036,8.842,6.442,10.534,1.888,23.52-5.091,33.806-3.272,4.823-7.073,9.431-9.6,14.561s-3.688,11.019-1.476,16.268c2.19,5.2,7.412,9.093,13.069,11.835,11.489,5.572,25.022,7.166,38.228,8.07,29.224,2,58.6,1.134,87.9.266,10.844-.321,21.734-.645,32.4-2.323,5.924-.93,12.039-2.408,16.341-5.967a13.686,13.686,0,0,0,3.153-17.877c-6.136-9.526-23.1-11.891-27.391-22.113-2.36-5.628.064-11.9,3.5-17.113,7.36-11.2,19.7-21.018,20.347-33.814.445-8.788-5.486-17.59-14.655-21.75-9.61-4.358-22.939-3.809-30.026,3.4C-428.1-768.833-440.933-765.972-451.933-766.355Z" fill="#b4e7ec"/>
      <path id="Path_155427" data-name="Path 155427" d="M-547.214-656.131s4.042-.647,6.467,2.21c0,0-1.778,1.4-5.6-.539Z" fill="#54cad4"/>
      <path id="Path_155428" data-name="Path 155428" d="M-547.647-656.192s-2.577,3.18-1.313,6.706c0,0,2.1-.841,2.331-5.126Z" fill="#54cad4"/>
      <path id="Path_155429" data-name="Path 155429" d="M-549.963-661.412s1.617-2.964,8.084,1.186a3.631,3.631,0,0,1-3.719,1.832C-548.454-658.556-549.208-659.849-549.963-661.412Z" fill="#54cad4"/>
      <path id="Path_155430" data-name="Path 155430" d="M-550.38-661.625s-3.355-.385-3.68,7.295a3.632,3.632,0,0,0,3.638-1.986C-548.9-658.746-549.535-660.109-550.38-661.625Z" fill="#54cad4"/>
      <path id="Path_155431" data-name="Path 155431" d="M-552.326-667.75s1.886-5.23,8.731-1.509c0,0-1.563,4.8-8.03,3.288Z" fill="#54cad4"/>
      <path id="Path_155432" data-name="Path 155432" d="M-554.443-675.567s3.559-5.282,9.864-.385c0,0-2.21,4.96-9.325,2.264Z" fill="#54cad4"/>
      <path id="Path_155433" data-name="Path 155433" d="M-555.192-683s4.152-4.85,10.4,0c0,0-3.934,4.258-10.394,1.24Z" fill="#54cad4"/>
      <path id="Path_155434" data-name="Path 155434" d="M-555.839-690.218s4.206-5.066,10.188-.269c0,0-4.743,4.473-10.188,1.455Z" fill="#54cad4"/>
      <path id="Path_155435" data-name="Path 155435" d="M-555.462-696.639s4.427-6.523,10.026-2.1c0,0-4.743,5.607-10.026,3.343Z" fill="#54cad4"/>
      <path id="Path_155436" data-name="Path 155436" d="M-554.443-704.132s4.691-6.467,10.134-1.509c0,0-5.551,5.6-10.134,2.7Z" fill="#54cad4"/>
      <path id="Path_155437" data-name="Path 155437" d="M-552.872-710.828s5.551-6.076,10.394-3.657c0,0-5.786,6.454-10.636,5.268Z" fill="#54cad4"/>
      <path id="Path_155438" data-name="Path 155438" d="M-550.933-717.164s6.413-7.439,10.132-4.958c0,0-4.719,5.774-10.586,6.352Z" fill="#54cad4"/>
      <path id="Path_155439" data-name="Path 155439" d="M-548.132-724.538s5.607-6.078,9.7-4.56c0,0-4.8,6.307-10.455,6.469Z" fill="#54cad4"/>
      <path id="Path_155440" data-name="Path 155440" d="M-545.59-731.424s6.2-5.82,8.892-4.8c0,0-4.473,6.467-9.162,6.09Z" fill="#54cad4"/>
      <path id="Path_155441" data-name="Path 155441" d="M-543.118-737.785s5.335-6.952,8.246-6.413c0,0-3.234,6.2-8.246,7.122Z" fill="#54cad4"/>
      <path id="Path_155442" data-name="Path 155442" d="M-540.432-746.357s4.716-5.332,7.262-5.318c0,0-3.722,7.122-7.457,7.056Z" fill="#54cad4"/>
      <path id="Path_155443" data-name="Path 155443" d="M-538.834-752.066l4.554-11.1s.229,10.036-5.133,13.163Z" fill="#54cad4"/>
      <path id="Path_155444" data-name="Path 155444" d="M-536.984-764.311s.755-9.27.269-10.024c0,0,3.257,7.7-.3,14.12Z" fill="#54cad4"/>
      <path id="Path_155445" data-name="Path 155445" d="M-552.518-667.875s-4.723-2.927-7.782,4.234c0,0,4.2,2.789,8.336-2.408Z" fill="#54cad4"/>
      <path id="Path_155446" data-name="Path 155446" d="M-554.587-675.863s-5.794-2.645-8.606,4.835c0,0,4.477,3.07,9.133-2.947Z" fill="#54cad4"/>
      <path id="Path_155447" data-name="Path 155447" d="M-555.465-682.559s-4.15-4.85-10.394,0c0,0,3.934,4.258,10.394,1.24Z" fill="#54cad4"/>
      <path id="Path_155448" data-name="Path 155448" d="M-555.983-690.218s-4.2-5.066-10.188-.269c0,0,4.745,4.473,10.188,1.455Z" fill="#54cad4"/>
      <path id="Path_155449" data-name="Path 155449" d="M-555.462-696.456s-2.948-7.317-9.358-4.163c0,0,3.465,6.479,9.1,5.376Z" fill="#54cad4"/>
      <path id="Path_155450" data-name="Path 155450" d="M-554.059-704.169s-2.931-7.431-9.431-3.984c0,0,3.98,6.81,9.143,5.133Z" fill="#54cad4"/>
      <path id="Path_155451" data-name="Path 155451" d="M-552.249-710.79s-1.155-8.147-6.535-8.877c0,0,1.141,8.592,5.817,10.346Z" fill="#54cad4"/>
      <path id="Path_155452" data-name="Path 155452" d="M-550.787-717.164s-.45-9.816-4.906-10.157c0,0,.15,7.451,4.4,11.549Z" fill="#54cad4"/>
      <path id="Path_155453" data-name="Path 155453" d="M-547.67-724.819s-1.33-8.163-5.582-9.162c0,0,.527,7.907,5.162,11.164Z" fill="#54cad4"/>
      <path id="Path_155454" data-name="Path 155454" d="M-545.093-731.368s-.046-8.5-2.643-9.753c0,0-1.613,7.7,1.89,10.838Z" fill="#54cad4"/>
      <path id="Path_155455" data-name="Path 155455" d="M-542.92-737.879s-.36-8.758-3.055-9.991c0,0-.922,6.929,2.65,10.565Z" fill="#54cad4"/>
      <path id="Path_155456" data-name="Path 155456" d="M-540.052-745.651s-.017-7.122-1.936-8.79c0,0-1.911,7.8.934,10.222Z" fill="#54cad4"/>
      <path id="Path_155457" data-name="Path 155457" d="M-539.061-752.418l-1.867-11.853s-2.545,9.712,1.957,14Z" fill="#54cad4"/>
      <path id="Path_155458" data-name="Path 155458" d="M-538.7-764.2s-4.8-7.968-4.7-8.854c0,0,.51,8.352,6.544,12.511Z" fill="#54cad4"/>
      <path id="Path_155459" data-name="Path 155459" d="M-538.133-766.551s-4.527-11.318-6.575-12.236a14.354,14.354,0,0,1,6.952,11.912Z" fill="#54cad4"/>
      <path id="Path_155460" data-name="Path 155460" d="M-540.647-744.551l-.308-.1c3.821-12.459,4.773-20.4,2.683-22.393l.223-.235C-535.835-765.175-536.735-757.316-540.647-744.551Z" fill="#444053"/>
      <path id="Path_155461" data-name="Path 155461" d="M-551.171-715.39l-.458-.162c.4-1.141.843-2.3,1.3-3.443,3.988-9.937,7.381-19.184,9.56-26.282l.4-.192c-2.181,7.122-5.514,16.713-9.506,26.664C-550.328-717.677-550.763-716.526-551.171-715.39Z" fill="#444053"/>
      <path id="Path_155462" data-name="Path 155462" d="M-541.527-646.8A62.929,62.929,0,0,1-552.1-665.752a70.123,70.123,0,0,1-4.177-21.7c-.294-9.264,1.648-19.609,4.979-29l.362.423c-7.476,21.088-4.506,39.159-.566,50.044a62.312,62.312,0,0,0,10.459,18.757Z" fill="#444053"/>
      <ellipse id="Ellipse_2233" data-name="Ellipse 2233" cx="86.033" cy="7.915" rx="86.033" ry="7.915" transform="translate(-551.273 -654.341)" fill="#b4e7ec"/>
      <circle id="Ellipse_2234" data-name="Ellipse 2234" cx="59.379" cy="59.379" r="59.379" transform="translate(-529.641 -760.695)" fill="#54cad4"/>
      <ellipse id="Ellipse_2235" data-name="Ellipse 2235" cx="6.157" cy="8.065" rx="6.157" ry="8.065" transform="translate(-492.328 -720.891)" fill="#444053"/>
      <ellipse id="Ellipse_2236" data-name="Ellipse 2236" cx="6.157" cy="8.065" rx="6.157" ry="8.065" transform="translate(-460.512 -720.891)" fill="#444053"/>
      <path id="Path_155463" data-name="Path 155463" d="M-432-687.46c0,11.577-19.34,31.081-38.853,31.081s-38.11-19.942-38.11-31.522,18.2-.989,37.725-.989S-432-699.039-432-687.46Z" fill="#444053"/>
      <path id="Path_155464" data-name="Path 155464" d="M-502.82-685.481s35.077,7.807,64.547.219c0,0,3.607,0,1.143,4.169a6.633,6.633,0,0,1-2.7,2.527c-5.678,2.9-26.714,11.481-60.341.541a6.61,6.61,0,0,1-4.365-4.471C-504.92-683.928-504.75-685.283-502.82-685.481Z" fill="#f6f8fb"/>
      <path id="Path_155465" data-name="Path 155465" d="M-499.439-745.52s-17.887,11.437-17.737,29.32S-499.439-745.52-499.439-745.52Z" fill="#4fbec8"/>
      <path id="Path_155466" data-name="Path 155466" d="M-390.337-647.65c-.308-1.226-1.055-1.247-1.055-1.247l-.012-.123-.274-3.025a.181.181,0,0,1-.038.04l-.015-.385c0-.072-.009-.145-.019-.217a2.533,2.533,0,0,0,.926-1.292c-.114-.144-.029-.115-.029-.115s-1.869-1.913-1.682-2.91-1.407-2.081-1.407-2.081a14.29,14.29,0,0,1-.577-2.323c0-.541-2.183-4.092-2.183-4.092s-1.925-4.517-3.615-6.458-1.54-3-1.54-3a3.552,3.552,0,0,1-.375-.656,3.991,3.991,0,0,1-.192-.493c.346-.044.577-.052.577-.052s1.384-.237,1.445-.522a1.8,1.8,0,0,1,.472-.851c.264-.283-.751-5.672-.212-7.066s-.691-7.788-.691-7.788a1.417,1.417,0,0,1,.61-.962l.816-.321h0l.414-.1.056-.013.085-.021.193-.048.056-.015.119-.033.044-.012.193-.06.063-.021.091-.031.069-.027.092-.037.1-.048.06-.031.064-.037.05-.033a.7.7,0,0,0,.075-.06l.038-.038c.015-.016.03-.032.044-.05a.272.272,0,0,0,.023-.041l.012-.015h0a.417.417,0,0,0-.04-.431,3.307,3.307,0,0,0-.731-.753l-.445-.683a.028.028,0,0,1,0-.013.476.476,0,0,1,.023-.112,1.3,1.3,0,0,0,.021-.439h0a.1.1,0,0,0,0-.025,1.28,1.28,0,0,0,.01-.139v-.06a.664.664,0,0,0-.01-.133.151.151,0,0,1,0-.067,1.1,1.1,0,0,0-.025-.127c-.01-.042-.012-.05-.019-.075s-.021-.079-.035-.119l-.029-.079c-.013-.037-.029-.075-.044-.112a.86.86,0,0,0-.037-.083c-.014-.027-.031-.069-.048-.1l-.042-.083c-.013-.027-.035-.065-.054-.1l-.046-.081-.054-.089-.052-.081-.052-.079-.052-.075c-.017-.023-.035-.048-.052-.069l-.05-.069-.046-.06-.048-.062-.04-.05-.042-.052-.033-.037-.035-.04-.023-.027-.025-.027-.013-.015-.013-.013v-.166a.275.275,0,0,0-.012-.09v-.012a5.471,5.471,0,0,1-.048-.6h0a1.56,1.56,0,0,1,.139-.608.289.289,0,0,0-.013-.3.293.293,0,0,1,.019-.04c.133-.256-.119-.475-.435-.639,0-.47-.193-1.422-1.748-1.594,0,0-.91-.614-.031-1.717s-.518-3.925-.518-3.925-.445-1.155-.206-1.632-.277-4.723-.277-4.723,0-3.917-.866-5.582-1.457-4.654-2.456-5.1a5.363,5.363,0,0,1-1.79-1.513l-.466.15c-.081-.119-.162-.239-.239-.358h0a.761.761,0,0,0,.11-.039,1.07,1.07,0,0,0,.5-.468,1.292,1.292,0,0,0,.083-.181h0a2.033,2.033,0,0,0,.112-.7,3.571,3.571,0,0,1,.021-.716,2.777,2.777,0,0,1,.577-1.014,4.689,4.689,0,0,0,.864-2.173,3.292,3.292,0,0,0-.549-2.244,4.891,4.891,0,0,1-.664-.962c-.065-.166-.094-.343-.144-.512a2.547,2.547,0,0,0-2.171-1.748c-.818-.075-1.625.237-2.444.227-.951-.012-1.925-.447-2.816-.115a2.764,2.764,0,0,0-1.03.77,8.052,8.052,0,0,0-.6.753h0c-.11.154-.214.31-.312.472v.013c-.1.164-.193.331-.281.5a.17.17,0,0,0-.013.127.232.232,0,0,0,.115.11,1.341,1.341,0,0,1,.427.246,1.418,1.418,0,0,0,.156.154c-.027.033-.056.064-.083.1a4.873,4.873,0,0,0,.824,6.842,4.821,4.821,0,0,0,1.014.613l.1.216a9.268,9.268,0,0,1,.464,1.263l-.42.038a.528.528,0,0,1-.5.506,15.778,15.778,0,0,0-2.052.629,26.162,26.162,0,0,1-3.761,1.574,3.077,3.077,0,0,1-2.042.056s-.16,1.028-1.761.462-1.813.031-1.813.031a59.764,59.764,0,0,0-7.8.316,15.586,15.586,0,0,1-4.718.131s-.015.173-.033.454l-.333-.192c-2.183-1.166-6.207-2.976-6.781-.77-.8,3.066,6.23,4.369,6.23,4.369l.52-.056.341-.037c.065.851.216,1.54.529,1.615.114.029,3.478.021,4.363.435s2.793-.192,2.793-.192a1.857,1.857,0,0,1,1.232.331c.741.439,4.768.441,4.768.441s.287.062,1.317.364a8.747,8.747,0,0,0,2.847.04l4.248.549a16.36,16.36,0,0,1-.031,4.059c-.333,1.082-.065,6.4-.065,6.4s.962,6.477.7,7.245c-.208.595,1.636-.067,2.479-.4.044.175.1.385.164.622,0,.021.029.035.062.042l.069.046c.031.127.062.25.09.366l-.229.062.3.2a3.235,3.235,0,0,0,.121.36c.25.577-1.576,1.634-1.576,1.634a64.005,64.005,0,0,0-6.56,4.042s-1.184.385-1.276.753-1.155.241-1.155.241-.15.4-.271.8a3.588,3.588,0,0,1-.77,1.018s-1.5.235-1.711,1.032a16.286,16.286,0,0,0-.345,1.871l-1.684,3.064s-4.592,3.422-5.074,4.731l-3.251,2.179s-.535,1.193-1.484,1.236-2.587,1.732-2.587,1.732.481.192,1.188.52c-.042.065-.083.131-.117.192a3.081,3.081,0,0,0-.287.783s-2.117,1.286-3.692.747a16.886,16.886,0,0,0-3.911-.893c-.976-.048-1.669.177-1.467.987.345,1.4,3.819,4.922,5.532,6.592a9.191,9.191,0,0,0,.86.741,8.809,8.809,0,0,0,1.268.812,8.409,8.409,0,0,0,.8.37,6.425,6.425,0,0,0,.9.291,1.524,1.524,0,0,0,1.465-.192c.993-1.016.577-1.732.577-1.732l.112-.083,2.737-2.048.62-.529.171-.146a3.68,3.68,0,0,1-.926,2.017,12.914,12.914,0,0,1,2.142-1c.962-.3,1.555-2.117,1.555-2.117s.526-.535,1.459-1.494,1.107-3.413,1.107-3.413,4.791-3.049,6.737-6.565c0,0,.352-.481.962-1.188a3.392,3.392,0,0,0,.631-1.879,3.845,3.845,0,0,1,.909-1.215c.818-.874.712-1.421.712-1.421s.385-.537,1.817-.429,4.8-1.59,4.8-1.59a4.035,4.035,0,0,0,.031.425c-.293.674-.485,1.141-.485,1.141s2.933,11.708,1.757,13.548c-.61.962,1.072.231,2.835-.687.09.11.193.225.3.348a14.934,14.934,0,0,0,1.332,1.27l.058.05s3.572,5.513,4.138,6.159.193,2.548.193,2.548,1,6.646,2.36,7.811a3.239,3.239,0,0,0,.939.495,2.275,2.275,0,0,0,.726,1.507s-.015,2.2-1.166,3.133a14.968,14.968,0,0,0-2.521,2.529c-.495.714-.649,1.347.064,1.571,1.23.4,5.549-.564,7.63-1.07a7.963,7.963,0,0,0,2.843-1.3C-390.823-646.434-390.2-647.075-390.337-647.65Zm-47.382-22.027q.178.118.354.242l-.193.154-.079.062a.959.959,0,0,0-.019-.129C-437.678-669.454-437.7-669.564-437.719-669.677Z" fill="url(#linear-gradient)"/>
      <path id="Path_155467" data-name="Path 155467" d="M-437.172-718.126l-2.169.229-.512.056s-6.929-1.292-6.14-4.321c.566-2.192,4.535-.4,6.688.77.824.445,1.38.8,1.38.8Z" fill="#d17483"/>
      <path id="Path_155468" data-name="Path 155468" d="M-432.077-666.913l-2.375,2.042-.612.526-1.424.431-3.528-3.114,2.622-2.09.077-.063,2.121-1.69Z" fill="#dce6f2"/>
      <path id="Path_155469" data-name="Path 155469" d="M-394.346-654.466l-3.353.156.92,4.1,1.257.433,3.5-.293-.094-2.352a2.133,2.133,0,0,0-2.22-2.042h-.011Z" fill="#dce6f2"/>
      <path id="Path_155470" data-name="Path 155470" d="M-437.419-669.238a18.839,18.839,0,0,0-2.477-1.424,1.748,1.748,0,0,1,1.155-.962C-437.983-671.784-437.6-670.316-437.419-669.238Z" opacity="0.1"/>
      <path id="Path_155471" data-name="Path 155471" d="M-434.454-664.871c.144-1.711-1.292-3.2-2.864-4.309l2.117-1.692,3.118,3.959Z" opacity="0.1"/>
      <path id="Path_155472" data-name="Path 155472" d="M-391.225-653.921c-.984,3.247-7.749,2.271-9.093,1.116s-2.329-7.749-2.329-7.749.37-1.9-.192-2.529-4.08-6.1-4.08-6.1l-.058-.048a14.766,14.766,0,0,1-1.315-1.261c-1.084-1.188-1.107-1.761-1.107-1.761a25.718,25.718,0,0,0-1.711-5.3,25.049,25.049,0,0,1-1.5-6.766c-.048-.518-.065-.832-.065-.832s-3.314,1.682-4.731,1.576-1.794.427-1.794.427.106.541-.7,1.409a3.9,3.9,0,0,0-.9,1.2,3.327,3.327,0,0,1-.624,1.863c-.606.7-.953,1.178-.953,1.178-1.925,3.49-6.648,6.513-6.648,6.513s-.175,2.437-1.1,3.388l-1.44,1.482s-.593,1.807-1.54,2.106a12.736,12.736,0,0,0-2.117.989c3.9-4.679-5.749-8.367-5.749-8.367s1.613-1.678,2.55-1.721,1.465-1.226,1.465-1.226l3.207-2.165c.473-1.3,5-4.693,5-4.693l1.661-3.039a16.675,16.675,0,0,1,.341-1.84c.208-.789,1.688-1.024,1.688-1.024a3.531,3.531,0,0,0,.751-1.01c.117-.4.268-.791.268-.791s1.047.131,1.138-.239,1.259-.747,1.259-.747a62.121,62.121,0,0,1,6.471-4.019s1.8-1.051,1.555-1.623a3.4,3.4,0,0,1-.121-.356v-.031q-.033-.109-.063-.231c-.227-.88-.477-2.229-.477-2.229s8.756-5.091,11.629-3.8a3.32,3.32,0,0,1,1.584,2.531,19.8,19.8,0,0,1-.09,6.535,18.716,18.716,0,0,1-.525,2.435,26.263,26.263,0,0,0-.818,5.462s-.09,6.211-.312,7.739a3.789,3.789,0,0,0,.327,2.083,3.579,3.579,0,0,0,.371.651s-.158,1.047,1.517,2.974a31.923,31.923,0,0,1,3.565,6.4s2.161,3.52,2.154,4.061a13.681,13.681,0,0,0,.562,2.31s1.573,1.07,1.388,2.061,1.659,2.887,1.659,2.887S-391.336-654.065-391.225-653.921Z" fill="#bdd2e8"/>
      <path id="Path_155473" data-name="Path 155473" d="M-413.615-693.931s1.886.907,2.04,1.988S-413.615-693.931-413.615-693.931Z" opacity="0.1"/>
      <path id="Path_155474" data-name="Path 155474" d="M-420.825-687.71l1.032,1.207-.535-2.192-1.134-.073Z" opacity="0.1"/>
      <path id="Path_155475" data-name="Path 155475" d="M-422.021-685.146c.112.087,1.376,2.914,1.715,2.947S-422.021-685.146-422.021-685.146Z" opacity="0.1"/>
      <path id="Path_155476" data-name="Path 155476" d="M-401.139-693.1a18.882,18.882,0,0,1-.526,2.435,26.263,26.263,0,0,0-.818,5.462s-.09,6.211-.312,7.739a3.771,3.771,0,0,0,.327,2.083,5.787,5.787,0,0,0-2.381.7c-1.03.666-.433,2.491-.433,2.491s-1.484.893-3,1.7c-1.084-1.188-1.107-1.761-1.107-1.761a25.714,25.714,0,0,0-1.711-5.3,25.087,25.087,0,0,1-1.5-6.766,29.9,29.9,0,0,1,2.171-4.317c.679-.949-.131-3.821-.7-5.5l-.156-.106h0l-1.861-1.249h0l-.566-.385-.3-.192.225-.062,12.74-3.5A20.034,20.034,0,0,1-401.139-693.1Z" opacity="0.1"/>
      <path id="Path_155477" data-name="Path 155477" d="M-414-696.585l.862.577h0l1.859,1.249h0l.158.106c.566,1.68,1.376,4.552.695,5.5a42.857,42.857,0,0,0-2.695,5.551s2.887,11.614,1.732,13.441,6.115-2.543,6.115-2.543-.6-1.825.435-2.491a6.521,6.521,0,0,1,2.762-.726s1.365-.235,1.426-.518a1.761,1.761,0,0,1,.466-.843c.258-.281-.741-5.628-.21-7.01s-.683-7.726-.683-7.726a1.407,1.407,0,0,1,.6-.962,1.784,1.784,0,0,1,.5-.239l.11-.031c.065-.019.135-.037.193-.05h0c.828-.206,1.732-.385,1.925-.77l-.192-.293-1.014-1.567h0a1.16,1.16,0,0,1,.029-.458.737.737,0,0,1,.015-.094h0c.148-1-1-2.212-1-2.212a5.675,5.675,0,0,1-.089-.862v-.01a2.138,2.138,0,0,1,.123-.9Z" fill="#653c5b"/>
      <path id="Path_155478" data-name="Path 155478" d="M-410.759-694.371c-.1-.021,6.209.2,8.159,2.695C-402.6-691.671-402.531-692.577-410.759-694.371Z" opacity="0.1"/>
      <path id="Path_155479" data-name="Path 155479" d="M-405.785-690.218s1.259,9.046.98,10.623,1.467.56,1.467.56S-401.558-692.166-405.785-690.218Z" opacity="0.1"/>
      <path id="Path_155480" data-name="Path 155480" d="M-397.738-694.068a.952.952,0,0,0-.046-.09c-.425-.712-1.3-.86-1.155-1.769h0a.515.515,0,0,1,.023-.117,1.274,1.274,0,0,0,.021-.435h0a4.055,4.055,0,0,0-1.009-1.871,5.547,5.547,0,0,1-.083-1.2v-.01a1.555,1.555,0,0,1,.137-.6.281.281,0,0,0-.013-.3c-.235-.4-1.276-.656-1.276-.656L-408.193-700c-.833.285-1.628.577-2.354.857-2.177.831-3.721,1.522-3.721,1.522l.052.206c.046.193.123.491.218.835.031.119.614-.021.651.106l.216.474,1.557.431s.127.318.3.818a.32.32,0,0,0,.031.09h0l.127.017c2.943.362,7.02.937,10.644,1.671Z" opacity="0.1"/>
      <path id="Path_155481" data-name="Path 155481" d="M-399.869-693.25l-.11.031c-3.794-.793-8.18-1.411-11.264-1.788h0c-.192-.552-.331-.907-.331-.907l-2.321-.643-.064-.223c-.112-.4-.2-.77-.258-.982l-.052-.206s1.54-.691,3.721-1.521c.726-.279,1.522-.577,2.356-.858l7.052-1.116a4.683,4.683,0,0,1,.751.264c.36.167.687.406.539.691a3.822,3.822,0,0,0-.052,1.813s1.228,1.293.987,2.31.691,1.145,1.134,1.888S-398.731-693.543-399.869-693.25Z" fill="#653c5b"/>
      <path id="Path_155482" data-name="Path 155482" d="M-406.345-723.749s-9.258.743-8.2-.092c.531-.418.166-1.661-.335-2.8a20.362,20.362,0,0,0-1.126-2.158s7.037-2.033,6.282-.878c-.223.341-.021,1,.385,1.753A28.015,28.015,0,0,0-406.345-723.749Z" fill="#d17483"/>
      <path id="Path_155483" data-name="Path 155483" d="M-409.34-727.916c-.193.229-.691-.044-.932.144-.841.658-1.638,1.53-2.787,1.513a4.813,4.813,0,0,1-1.817-.385A20.362,20.362,0,0,0-416-728.8s7.037-2.029,6.282-.874C-409.943-729.329-409.741-728.673-409.34-727.916Z" opacity="0.1"/>
      <path id="Path_155484" data-name="Path 155484" d="M-408.137-731.216a4.833,4.833,0,0,1-4.919,4.746,4.833,4.833,0,0,1-4.746-4.918,4.833,4.833,0,0,1,4.918-4.746,4.837,4.837,0,0,1,3.381,1.464A4.854,4.854,0,0,1-408.137-731.216Z" fill="#d17483"/>
      <path id="Path_155485" data-name="Path 155485" d="M-400.3-700.373a9.7,9.7,0,0,1-2.267-.239,2.6,2.6,0,0,0-2.194.791,9.44,9.44,0,0,1-3.359.718c-1.049-.185-5.649,2.242-5.649,2.242l-.193.075c-.112-.4-.2-.77-.258-.982l-.052-.206s1.54-.691,3.721-1.521c.726-.279,1.522-.577,2.356-.858l7.052-1.116a4.679,4.679,0,0,1,.751.264A1.607,1.607,0,0,1-400.3-700.373Z" opacity="0.1"/>
      <path id="Path_155486" data-name="Path 155486" d="M-437.176-718.127l-2.169.229a27.078,27.078,0,0,1,.037-3.5c.824.445,1.38.795,1.38.795Z" opacity="0.1"/>
      <path id="Path_155487" data-name="Path 155487" d="M-408.06-726.725s-1.369.433-2.138.735a37.113,37.113,0,0,1-4.633.641.522.522,0,0,1-.489.5,15.189,15.189,0,0,0-2.023.622,25.59,25.59,0,0,1-3.711,1.563,3.005,3.005,0,0,1-2.015.056s-.156,1.018-1.732.456-1.788.031-1.788.031a59.1,59.1,0,0,0-7.7.314,15.357,15.357,0,0,1-4.654.131s-.422,5.1.462,5.339c.112.031,3.432.021,4.3.431s2.754-.192,2.754-.192a1.832,1.832,0,0,1,1.216.331c.731.437,4.7.437,4.7.437s.283.06,1.3.36a8.553,8.553,0,0,0,2.806.04l4.19.549a16.344,16.344,0,0,1-.029,4.027c-.327,1.072-.065,6.352-.065,6.352s.962,6.425.691,7.187,2.843-.554,2.843-.554,4.6-2.429,5.649-2.244a9.487,9.487,0,0,0,3.359-.716,2.607,2.607,0,0,1,2.2-.791,9.632,9.632,0,0,0,2.265.231s.335-1.611-1.7-1.84c0,0-.9-.608-.033-1.7s-.506-3.882-.506-3.882-.437-1.141-.2-1.621-.271-4.683-.271-4.683,0-3.886-.855-5.545-1.438-4.619-2.423-5.054A5.228,5.228,0,0,1-408.06-726.725Z" fill="#dce6f2"/>
      <path id="Path_155488" data-name="Path 155488" d="M-413.215-713.7s6,2.67,7.616,4.822S-413.215-713.7-413.215-713.7Z" opacity="0.1"/>
      <path id="Path_155489" data-name="Path 155489" d="M-410.842-709.123s7.256,4.219,6.76,5.289S-410.842-709.123-410.842-709.123Z" opacity="0.1"/>
      <path id="Path_155490" data-name="Path 155490" d="M-409.656-704.879a13.231,13.231,0,0,1,3.1,1.663C-406.086-702.609-409.656-704.879-409.656-704.879Z" opacity="0.1"/>
      <path id="Path_155491" data-name="Path 155491" d="M-421.67-721.335s5.545,2.974,4.593,4.181S-421.67-721.335-421.67-721.335Z" opacity="0.1"/>
      <path id="Path_155492" data-name="Path 155492" d="M-423.884-719.239a21.951,21.951,0,0,1,.928,2.481C-422.933-716.394-424.627-718.939-423.884-719.239Z" opacity="0.1"/>
      <path id="Path_155493" data-name="Path 155493" d="M-427.6-718.67c0,.114,2.887,1.884,1.7,2.35S-427.6-718.67-427.6-718.67Z" opacity="0.1"/>
      <path id="Path_155494" data-name="Path 155494" d="M-425.406-682.983a3.378,3.378,0,0,0,1.309,1.721C-423.173-680.766-425.406-682.983-425.406-682.983Z" opacity="0.1"/>
      <path id="Path_155495" data-name="Path 155495" d="M-434.065-674.572c-.013.935-.171,3.913.591,4.234S-434.065-674.572-434.065-674.572Z" opacity="0.1"/>
      <path id="Path_155496" data-name="Path 155496" d="M-431.948-671.933s1.744,2.947,1.141,3.449-1.3-.7-1.3-.7Z" opacity="0.1"/>
      <path id="Path_155497" data-name="Path 155497" d="M-400.9-665.521a9.761,9.761,0,0,0,2.152.173C-397.576-665.388-400.9-665.521-400.9-665.521Z" opacity="0.1"/>
      <path id="Path_155498" data-name="Path 155498" d="M-401.81-666.954s2.15.4,2.922-.013S-401.81-666.954-401.81-666.954Z" opacity="0.1"/>
      <path id="Path_155499" data-name="Path 155499" d="M-402.657-669.238s2.152.173,2.589-.558S-402.657-669.238-402.657-669.238Z" opacity="0.1"/>
      <path id="Path_155500" data-name="Path 155500" d="M-403.264-670.435s2.065.343,2.412-.135S-403.264-670.435-403.264-670.435Z" opacity="0.1"/>
      <path id="Path_155501" data-name="Path 155501" d="M-405.275-674.776s2.225,1.053,2.471,1.653S-405.275-674.776-405.275-674.776Z" opacity="0.1"/>
      <path id="Path_155502" data-name="Path 155502" d="M-408.137-731.215A4.836,4.836,0,0,1-410-727.464c-.013-.025-.025-.05-.037-.075-.212-.452-.266-.962-.462-1.413a.686.686,0,0,0-.343-.395c-.312-.121-.622.164-.828.42s-.512.545-.826.431a.783.783,0,0,1-.385-.406,4.2,4.2,0,0,1-.676-1.846,8.336,8.336,0,0,0,.012-.974,2.1,2.1,0,0,0-1-1.361,12.5,12.5,0,0,0-1.588-.77,2.34,2.34,0,0,1-.674-.431A4.85,4.85,0,0,1-410-735.1a4.85,4.85,0,0,1,1.851,3.88Z" opacity="0.1"/>
      <path id="Path_155503" data-name="Path 155503" d="M-417.4-735c-.117.273.329.248.523.479a2.132,2.132,0,0,0,.749.508,12.833,12.833,0,0,1,1.588.77,2.092,2.092,0,0,1,1,1.363,8.758,8.758,0,0,1-.01.972,4.218,4.218,0,0,0,.674,1.848.8.8,0,0,0,.385.406c.316.112.618-.175.826-.431s.518-.541.83-.422a.689.689,0,0,1,.341.4c.193.456.25.962.462,1.415a1.233,1.233,0,0,0,1.174.793,1.009,1.009,0,0,0,.718-.527,1.8,1.8,0,0,0,.193-.876,3.51,3.51,0,0,1,.021-.71,2.82,2.82,0,0,1,.562-1.007,4.661,4.661,0,0,0,.849-2.15,3.29,3.29,0,0,0-.541-2.225,4.812,4.812,0,0,1-.656-.962c-.064-.164-.092-.339-.142-.508A2.514,2.514,0,0,0-410-737.6c-.8-.075-1.6.235-2.41.225-.937-.01-1.906-.443-2.779-.114a2.715,2.715,0,0,0-1.014.77,7.78,7.78,0,0,0-1.189,1.732" fill="#653c5b"/>
      <path id="Path_155504" data-name="Path 155504" d="M-437.765-662.309l-.112.083s.416.716-.564,1.732c-.46.472-1.432.256-2.335-.1a8.822,8.822,0,0,1-2.887-1.907c-1.688-1.657-5.117-5.151-5.457-6.544-.192-.8.485-1.028,1.447-.98a16.012,16.012,0,0,1,3.85.887c1.551.533,3.64-.741,3.64-.741a3.11,3.11,0,0,1,.283-.77,1.748,1.748,0,0,1,1.155-.962c.751-.152,1.138,1.317,1.316,2.385a.692.692,0,0,0,.021.129c.085.533.117.939.117.939,1.334-.092,1.9,1.844,1.83,2.835s.385,1,.385,1Z" fill="#ffd6db"/>
      <path id="Path_155505" data-name="Path 155505" d="M-437.877-662.232s.416.716-.564,1.732c-.46.472-1.432.258-2.335-.1a8.822,8.822,0,0,1-2.887-1.907c-1.69-1.657-5.117-5.151-5.457-6.544-.192-.8.485-1.028,1.447-.98a4.99,4.99,0,0,0,.8,2.516c.866,1,3.339,4.388,6.432,4.427a4.819,4.819,0,0,1,2.679.77Z" fill="#c8a9b4"/>
      <path id="Path_155506" data-name="Path 155506" d="M-443.474-665.432s2.983-2.283,5.491-1.253A12.651,12.651,0,0,0-443.474-665.432Z" opacity="0.1"/>
      <path id="Path_155507" data-name="Path 155507" d="M-440.092-665.98a29.861,29.861,0,0,0,3.42.9C-436.1-665.071-439.6-666.2-440.092-665.98Z" opacity="0.1"/>
      <path id="Path_155508" data-name="Path 155508" d="M-398.437-659.137s3.424.071,3.534.849-1.278.731-1.278.731Z" opacity="0.1"/>
      <path id="Path_155509" data-name="Path 155509" d="M-391.792-649.084l.012.123s.737.023,1.039,1.238c.142.577-.477,1.207-1.178,1.732a7.87,7.87,0,0,1-2.8,1.3c-2.052.5-6.313,1.455-7.526,1.062-.7-.229-.55-.851-.062-1.559a14.351,14.351,0,0,1,2.487-2.5c1.134-.924,1.155-3.108,1.155-3.108s-1.007-.916-.639-1.911,3.3.52,3.3.52c.558-1.055,2.292-.577,3.01-.054s.937.181.937.181Z" fill="#ffd6db"/>
      <path id="Path_155510" data-name="Path 155510" d="M-391.781-648.961s.737.023,1.039,1.238c.142.577-.477,1.207-1.178,1.732a7.87,7.87,0,0,1-2.8,1.3c-2.052.5-6.313,1.455-7.526,1.062-.7-.229-.55-.851-.062-1.559a4.491,4.491,0,0,0,2.283.577c1.168-.193,4.9-.47,6.386-2.793a4.293,4.293,0,0,1,1.85-1.667Z" fill="#c8a9b4"/>
      <path id="Path_155511" data-name="Path 155511" d="M-396.843-646.22s-.327-3.336,1.634-4.756A11.309,11.309,0,0,0-396.843-646.22Z" opacity="0.1"/>
      <path id="Path_155512" data-name="Path 155512" d="M-395.665-649.044a25.237,25.237,0,0,0,2.291-2.169C-393.1-651.65-395.6-649.517-395.665-649.044Z" opacity="0.1"/>
      <path id="Path_155513" data-name="Path 155513" d="M-400.13-698.67s-2.6,1.347-4.492.814S-400.13-698.67-400.13-698.67Z" opacity="0.1"/>
      <path id="Path_155514" data-name="Path 155514" d="M-399.2-695.961s-.408.731-2.958.552S-399.2-695.961-399.2-695.961Z" opacity="0.1"/>
      <g id="Group_167330" data-name="Group 167330" opacity="0.1">
        <path id="Path_155515" data-name="Path 155515" d="M-407.481-729.868l.108-.15c.079-.114.154-.231.223-.35A4.694,4.694,0,0,0-407.481-729.868Z"/>
        <path id="Path_155516" data-name="Path 155516" d="M-408.558-727.366a1.237,1.237,0,0,1-1.174-.793c-.212-.45-.266-.962-.462-1.415a.689.689,0,0,0-.341-.4c-.312-.119-.622.166-.83.422s-.51.543-.826.431a.8.8,0,0,1-.385-.406,4.176,4.176,0,0,1-.676-1.846,8.788,8.788,0,0,0,0-.974,2.079,2.079,0,0,0-1-1.361,12.918,12.918,0,0,0-1.588-.77,2.124,2.124,0,0,1-.747-.508c-.192-.231-.643-.206-.523-.479.089-.177.192-.348.289-.518a7.923,7.923,0,0,0-.595.982c-.117.273.329.248.523.479a2.132,2.132,0,0,0,.749.508,12.837,12.837,0,0,1,1.588.77,2.092,2.092,0,0,1,1,1.363,8.751,8.751,0,0,1-.01.972,4.218,4.218,0,0,0,.674,1.848.8.8,0,0,0,.385.406c.316.112.618-.175.826-.431s.518-.541.83-.422a.689.689,0,0,1,.341.4c.192.456.25.962.462,1.415a1.233,1.233,0,0,0,1.174.793,1.009,1.009,0,0,0,.718-.527,1.436,1.436,0,0,0,.081-.179A.946.946,0,0,1-408.558-727.366Z"/>
      </g>
      <path id="Path_155517" data-name="Path 155517" d="M-414.951-724.981s2.215-.11,3.69-.06a9.418,9.418,0,0,0,3.657-1.139" opacity="0.1"/>
      <path id="Path_155518" data-name="Path 155518" d="M-506.56-709.56c-.223-1.136-2.323-.953-3.85-.66-.129.025-.254.05-.373.077l.11-.456-.718-.3a18.933,18.933,0,0,0-4.4-1.218c-2.21-.331-5.713-1.041-7.866-2.418-1.957-1.251-2.743-1.613-3.289-1.95v-.294c0-.558-.033-1.07-.075-1.526a6.538,6.538,0,0,0-.243-1.238c-.458-1.519-1.49-2.006-2.523-2.956a9.5,9.5,0,0,0-2.277-1.586,6.052,6.052,0,0,1,.439-1.459c.029-.071.06-.141.089-.212a.026.026,0,0,1,.013-.027l.092-.21a4.743,4.743,0,0,0,2.477-4.15,4.7,4.7,0,0,0-1.393-3.335c-.075-.073-.152-.144-.231-.214l.223-.073c.475-.169.993-.635.855-1.032h-.069a.474.474,0,0,0-.019-.083.959.959,0,0,1-.577-.217c-.221-.273-.289-.683-.7-1.066a1.972,1.972,0,0,0-.3-.262,2.7,2.7,0,0,0-.98-.406c.029.019.06.035.089.056l.06.046a14.987,14.987,0,0,1-2.483-.493,3.485,3.485,0,0,1-.529-.291l.1.027c-.414-.239-.785-.545-1.215-.77a3.339,3.339,0,0,0-.749-.271l.192.114a4.483,4.483,0,0,0-3.334.535,7.348,7.348,0,0,0-2.647,2.991,12.739,12.739,0,0,0-1.482,6.423,7.81,7.81,0,0,1-.192,3.209c-.335.847-1.037,1.521-1.457,2.333-1.619,3.141,1.363,7.222-.464,10.259-.66,1.1-1.842,1.827-2.647,2.837s-1.1,2.645-.023,3.4c.77.547,1.865.37,2.783.647a4.426,4.426,0,0,1-1.311,2.479l-.15-.029c-.035.033-.067.067-.1.1l.142.037-.054.052a14.691,14.691,0,0,0,3.08.547,4.943,4.943,0,0,0,2.71-.408,3.661,3.661,0,0,0,1.059-.9c0,.192.013.362.025.537a10.41,10.41,0,0,0,.3,2.1c.891,3.232-1.925,5.765-1.925,5.765a9.289,9.289,0,0,0-.943,4.523h0a9.4,9.4,0,0,0,.577,2.768c.027.071.052.141.079.208.052.135.108.266.162.385.083.192.166.36.248.518.054.108.108.208.16.3a6.9,6.9,0,0,0,.62.949q.426-.291.855-.549v.345c.015,1.191-.1,2.7-.1,2.7s-.893,3.189-.982,4.107-.433,6.6-.433,6.6a17.3,17.3,0,0,1-3.434,5.9c-2.229,2.227-1.732,8.606-1.732,8.606s-1.561,5.372-1.026,5.634a.529.529,0,0,0,.268.015v.218c-.962.668-1.694,1.209-1.694,1.209a36.24,36.24,0,0,1-.626,5.264c-.358.853.447,1.857.447,1.857s7.94-.219,8.631-.264a11.268,11.268,0,0,0,2.471-.851A13.745,13.745,0,0,0-534-647.408a1.519,1.519,0,0,0,.362-.489c.491-1.224-3.948-.306-5.153-.306s-1.338-.918-1.9-1.617a2.222,2.222,0,0,1-.156-1.855l-.115-3.272.529-.214a12.83,12.83,0,0,1,1.873-4.15c1.159-1.353,3.212-6.509,3.257-6.771a4.041,4.041,0,0,1,.935-1.925,18.2,18.2,0,0,0,1.678-3.707s1.925-6.028,3.389-9.129a27.881,27.881,0,0,0,1.651-7.584,7.807,7.807,0,0,1,.816.273s.412-2.639.577-5.651a32.374,32.374,0,0,0-.037-4.619c-.235-2.5-1.7-7.347-1.609-11.854.352.227.7.443,1,.635,0-.114.013-.225.021-.339.789.491,1.359.828,1.359.828s4.727,2.62,8.875,2.664,4.862.524,4.862.524l.262-1.082.371-.069C-509.4-707.462-506.3-708.257-506.56-709.56Z" fill="url(#linear-gradient-2)"/>
      <path id="Path_155519" data-name="Path 155519" d="M-529.007-734.608l-.216-.16a.476.476,0,0,1,.089.152Z" fill="url(#linear-gradient-3)"/>
      <path id="Path_155520" data-name="Path 155520" d="M-529.488-734.794h.129l-.121-.09h.033l-.216-.158a.479.479,0,0,1,.087.15h.048A.491.491,0,0,1-529.488-734.794Z" fill="url(#linear-gradient-4)"/>
      <rect id="Rectangle_30411" data-name="Rectangle 30411" width="3.432" height="5.357" transform="translate(-538.851 -726.894)" fill="#965d7b"/>
      <rect id="Rectangle_30412" data-name="Rectangle 30412" width="3.432" height="5.357" transform="translate(-538.851 -726.894)" opacity="0.1"/>
      <rect id="Rectangle_30413" data-name="Rectangle 30413" width="3.12" height="4.204" transform="translate(-547.51 -655.061)" fill="#e8f4ff"/>
      <path id="Path_155521" data-name="Path 155521" d="M-538.468-726.813c.837.32,1.78,2.011,1.827,3.424a4.191,4.191,0,0,1-.729,1.719l.77-.09c.395-.052.907-.121,1.449-.2.454-.069.93-.146,1.376-.229,1.226-.227,2.229-.5,1.954-.749a.759.759,0,0,1-.133-.651,6.186,6.186,0,0,1,.427-1.447c.06-.152.125-.3.192-.445.283-.647.556-1.155.556-1.155s-2.62-.192-4.812-.283c-.749-.033-1.449-.054-1.984-.056h-.21C-538.448-726.981-538.768-726.927-538.468-726.813Z" fill="#ffc1c7"/>
      <path id="Path_155522" data-name="Path 155522" d="M-527.462-690.755s-.385,6.977-1.819,10.053-3.293,9.058-3.293,9.058a18.537,18.537,0,0,1-1.648,3.679,4.045,4.045,0,0,0-.91,1.907c-.044.26-2.036,5.374-3.164,6.717a12.817,12.817,0,0,0-1.819,4.117s-4.941,2.079-5.461,1.819,1-5.582,1-5.582-.477-6.329,1.69-8.538a17.256,17.256,0,0,0,3.338-5.849s.346-5.636.433-6.544.953-4.075.953-4.075.26-3.338-.042-3.986S-527.462-690.755-527.462-690.755Z" fill="#575a89"/>
      <path id="Path_155523" data-name="Path 155523" d="M-527.462-690.755s-.385,6.977-1.819,10.053-3.293,9.058-3.293,9.058a18.537,18.537,0,0,1-1.648,3.679,4.045,4.045,0,0,0-.91,1.907c-.044.26-2.036,5.374-3.164,6.717a12.817,12.817,0,0,0-1.819,4.117s-4.941,2.079-5.461,1.819,1-5.582,1-5.582-.477-6.329,1.69-8.538a17.256,17.256,0,0,0,3.338-5.849s.346-5.636.433-6.544.953-4.075.953-4.075.26-3.338-.042-3.986S-527.462-690.755-527.462-690.755Z" opacity="0.05"/>
      <path id="Path_155524" data-name="Path 155524" d="M-540.679-655.478l.131,3.747a2.28,2.28,0,0,0,.15,1.842c.535.687.672,1.6,1.842,1.6s5.484-.91,5,.3-4.529,2.773-5.2,2.816-8.38.26-8.38.26a2.165,2.165,0,0,1-.433-1.84,36.972,36.972,0,0,0,.606-5.224S-540.94-656.535-540.679-655.478Z" fill="#444053"/>
      <path id="Path_155525" data-name="Path 155525" d="M-540.647-655.511l.129,3.749a2.272,2.272,0,0,0,.152,1.84c.537.685.672,1.6,1.842,1.6s5.482-.91,5,.3-4.529,2.774-5.2,2.818-8.386.26-8.386.26a2.2,2.2,0,0,1-.433-1.842,38.144,38.144,0,0,0,.6-5.222S-540.907-656.573-540.647-655.511Z" opacity="0.05"/>
      <path id="Path_155526" data-name="Path 155526" d="M-547.772-652.589c.52.26,5.455-1.829,5.455-1.829a12.842,12.842,0,0,1,1.821-4.117c1.128-1.343,3.12-6.458,3.162-6.717a4.027,4.027,0,0,1,.91-1.907,18.518,18.518,0,0,0,1.648-3.684s1.863-5.98,3.293-9.056c.993-2.137,1.484-6.159,1.694-8.409.09-.993.127-1.646.127-1.646s-11.052,2.117-10.748,2.774a4.2,4.2,0,0,1,.144,1.315c.015,1.182-.1,2.672-.1,2.672s-.866,3.164-.953,4.075-.433,6.544-.433,6.544a17.275,17.275,0,0,1-3.334,5.85c-2.167,2.21-1.69,8.538-1.69,8.538S-548.286-652.849-547.772-652.589Z" fill="#575a89"/>
      <path id="Path_155527" data-name="Path 155527" d="M-536.158-682.536s-2.254-.606-3.033.087S-536.158-682.536-536.158-682.536Z" opacity="0.1"/>
      <path id="Path_155528" data-name="Path 155528" d="M-536.2-679.677s-3.555-.77-3.6.346S-536.2-679.677-536.2-679.677Z" opacity="0.1"/>
      <path id="Path_155529" data-name="Path 155529" d="M-537.63-676.552s-1.222,1.037-1.992.691S-537.63-676.552-537.63-676.552Z" opacity="0.1"/>
      <path id="Path_155530" data-name="Path 155530" d="M-540.924-670.922s2.469.91,1.906,1.865-1,1.084-1.213.822A17.644,17.644,0,0,1-540.924-670.922Z" opacity="0.1"/>
      <path id="Path_155531" data-name="Path 155531" d="M-542.876-654.67l.131,3.75a2.272,2.272,0,0,0,.152,1.84c.537.685.672,1.605,1.842,1.605s5.482-.91,5,.3-4.529,2.773-5.2,2.818-8.386.26-8.386.26a2.168,2.168,0,0,1-.433-1.842,36.934,36.934,0,0,0,.606-5.222S-543.135-655.732-542.876-654.67Z" fill="#444053"/>
      <path id="Path_155532" data-name="Path 155532" d="M-544.132-649.643s-.108.737-2.427.021S-544.132-649.643-544.132-649.643Z" opacity="0.1"/>
      <path id="Path_155533" data-name="Path 155533" d="M-548.358-649.1s-.52.716,1.322,1.041S-548.358-649.1-548.358-649.1Z" opacity="0.1"/>
      <path id="Path_155534" data-name="Path 155534" d="M-547.859-649.665s1.821,1.582,2.383,1.582" opacity="0.1"/>
      <path id="Path_155535" data-name="Path 155535" d="M-537.8-726.978c.8,1.459,2.279,1.207,4.142,2.448.635.425,1.49-.181,2.129-.508.337-.839.745-1.6.745-1.6S-535.823-727-537.8-726.978Z" opacity="0.1"/>
      <path id="Path_155536" data-name="Path 155536" d="M-538.381-729.6a4.7,4.7,0,0,0,4.722,4.678,4.7,4.7,0,0,0,4.677-4.722,4.7,4.7,0,0,0-4.722-4.678,4.7,4.7,0,0,0-3.3,1.375A4.72,4.72,0,0,0-538.381-729.6Z" fill="#ffc1c7"/>
      <path id="Path_155537" data-name="Path 155537" d="M-540.4-687.173a4.2,4.2,0,0,1,.144,1.315,15.949,15.949,0,0,1,10.476-2.443c.09-.993.127-1.646.127-1.646S-540.708-687.824-540.4-687.173Z" opacity="0.1"/>
      <path id="Path_155538" data-name="Path 155538" d="M-542.882-690.747a9.488,9.488,0,0,0,1.782,5.091c7.507-5.2,14.216-2.3,14.216-2.3s.4-2.618.554-5.607a33.32,33.32,0,0,0-.035-4.579c-.244-2.639-1.834-7.909-1.53-12.611.135-2.069.937-4,.908-5.593,0-.552-.031-1.061-.071-1.513a6.5,6.5,0,0,0-.237-1.228c-.443-1.509-1.447-1.99-2.45-2.933a9.212,9.212,0,0,0-2.213-1.574,4.41,4.41,0,0,0-4.685.2,5.483,5.483,0,0,0-.739.629,6.975,6.975,0,0,0-.787.962c-.04.056-.077.114-.114.169a6.045,6.045,0,0,0-.577,1.644,64.36,64.36,0,0,0-1.032,7.456,63.484,63.484,0,0,0-.508,9.487,10.549,10.549,0,0,0,.291,2.085c.868,3.207-1.863,5.72-1.863,5.72a9.367,9.367,0,0,0-.91,4.489Z" fill="#ff6584"/>
      <path id="Path_155539" data-name="Path 155539" d="M-512.755-706.568s.456-.065,1.1-.192c1.7-.339,4.718-1.128,4.467-2.419-.216-1.126-2.256-.945-3.74-.654a15.643,15.643,0,0,0-1.557.385Z" fill="#ffc1c7"/>
      <path id="Path_155540" data-name="Path 155540" d="M-535.2-715.5c.91.693,3.164,2.6,4.9,3.944.976.756,2.337,1.65,3.339,2.289.135-2.071.229-4.042.2-5.63a24.617,24.617,0,0,1-1.936-2.466,10.766,10.766,0,0,0-5.072-2.86C-535.927-720.7-536.1-716.2-535.2-715.5Z" opacity="0.1"/>
      <path id="Path_155541" data-name="Path 155541" d="M-512.755-706.569s.456-.065,1.1-.192l.728-3.08a15.646,15.646,0,0,0-1.557.385Z" opacity="0.1"/>
      <path id="Path_155542" data-name="Path 155542" d="M-533.76-720.571a10.7,10.7,0,0,1,5.072,2.86c1.821,2.125,1.155,1.155,4.9,3.6,2.092,1.365,5.5,2.069,7.643,2.4a18.19,18.19,0,0,1,4.271,1.211l.7.293-1.084,4.6s-.693-.477-4.723-.52-8.625-2.645-8.625-2.645-2.947-1.777-4.681-3.12-3.986-3.255-4.9-3.948S-535.927-721.049-533.76-720.571Z" fill="#e8f4ff"/>
      <path id="Path_155543" data-name="Path 155543" d="M-538.853-719.636c.631.385,1.4.227,2.31-.907,2.46-3.068,6.544-.012,9.254,1.805-.443-1.507-1.447-1.99-2.45-2.933-2.906-2.731-6.159-3.068-8.425.221-.04.056-.077.114-.114.169A5.761,5.761,0,0,0-538.853-719.636Z" opacity="0.1"/>
      <path id="Path_155544" data-name="Path 155544" d="M-538.853-719.982c.631.385,1.4.227,2.31-.907a.969.969,0,0,1,.071-.087,3.351,3.351,0,0,1,1.322-.987,3.282,3.282,0,0,1,1.376-.229c2.169.069,4.646,1.875,6.484,3.108-.443-1.509-1.447-1.99-2.45-2.933a9.213,9.213,0,0,0-2.213-1.574,4.41,4.41,0,0,0-4.685.2,5.483,5.483,0,0,0-.739.629,6.967,6.967,0,0,0-.787.962c-.04.056-.077.114-.114.169A5.8,5.8,0,0,0-538.853-719.982Z" fill="#ff6584"/>
      <path id="Path_155545" data-name="Path 155545" d="M-542.881-691.094A9.488,9.488,0,0,0-541.1-686c7.507-5.2,14.216-2.3,14.216-2.3s.4-2.618.554-5.607c-2.858-.025-11,.042-13.729,1.54a18.071,18.071,0,0,1-2.824,1.272Z" opacity="0.1"/>
      <path id="Path_155546" data-name="Path 155546" d="M-542.881-690.747a9.488,9.488,0,0,0,1.782,5.091c7.507-5.2,14.216-2.3,14.216-2.3s.4-2.618.554-5.607c-2.858-.025-11,.042-13.729,1.54a18.072,18.072,0,0,1-2.824,1.272Z" fill="#e8f4ff"/>
      <path id="Path_155547" data-name="Path 155547" d="M-528.992-734.035l-.21-.158a.479.479,0,0,1,.087.15Z" opacity="0.1"/>
      <path id="Path_155548" data-name="Path 155548" d="M-540.392-703.039a5.651,5.651,0,0,0,.691-.857,11.9,11.9,0,0,0,1.482-9.239,3.72,3.72,0,0,1-.11-2.1c.343-.92,1.42-1.4,1.911-2.254.6-1.045.183-2.31-.058-3.492a.754.754,0,0,0-.03-.133c-.042-.214-.075-.431-.1-.647a8.956,8.956,0,0,1,.4-3.859c.021-.064.042-.127.065-.192a5.836,5.836,0,0,1,.531-1.114,3.217,3.217,0,0,1,1.882-1.517,1.5,1.5,0,0,0,.649-.243c.487-.425-.067-1.155-.177-1.782a1.854,1.854,0,0,1,1.116-1.8,10.215,10.215,0,0,1,1.848-.643,4.725,4.725,0,0,0-6.682-.062,4.724,4.724,0,0,0-.618,6h-.21c-.649,0-.962.052-.668.165.837.32,1.041,2.641,1.087,4.054a6.966,6.966,0,0,0-.787.962c-.04.056-.077.114-.114.169a6.046,6.046,0,0,0-.577,1.644,100.64,100.64,0,0,0-1.534,16.947Z" opacity="0.1"/>
      <path id="Path_155549" data-name="Path 155549" d="M-529.549-734.366c.352.418-.223.982-.747,1.17a15.146,15.146,0,0,0-2.187.756,1.867,1.867,0,0,0-1.118,1.8c.114.626.666,1.347.179,1.782a1.51,1.51,0,0,1-.649.244,3.859,3.859,0,0,0-2.414,2.629,8.918,8.918,0,0,0-.366,4.694c.233,1.218.706,2.545.085,3.63-.491.857-1.569,1.334-1.911,2.254a3.72,3.72,0,0,0,.11,2.1,11.909,11.909,0,0,1-1.482,9.239,4.249,4.249,0,0,1-1.4,1.4,4.744,4.744,0,0,1-2.633.4,14.1,14.1,0,0,1-3-.545,4.428,4.428,0,0,0,1.436-2.616c-.893-.277-1.954-.1-2.7-.643-1.041-.751-.76-2.373.021-3.376s1.925-1.732,2.573-2.814c1.773-3.014-1.124-7.064.448-10.178.408-.808,1.091-1.476,1.417-2.31a8.044,8.044,0,0,0,.183-3.184,12.875,12.875,0,0,1,1.442-6.373,7.235,7.235,0,0,1,2.57-2.966,4.073,4.073,0,0,1,3.869-.281c.527.273.962.689,1.511.928,1.051.46,2.383.212,3.307.876s.5,1.517,1.663,1.54" fill="#965d7b"/>
      <path id="Path_155550" data-name="Path 155550" d="M-534.291-701.574c-.45.225-1.347,2.256-3.384,3.722S-534.291-701.574-534.291-701.574Z" opacity="0.1"/>
      <path id="Path_155551" data-name="Path 155551" d="M-533.385-705.635s-2.595,5.414-5.64,6.2S-533.385-705.635-533.385-705.635Z" opacity="0.1"/>
      <path id="Path_155552" data-name="Path 155552" d="M-528.588-692.489a13.749,13.749,0,0,0-.693,2.947C-529.108-689.311-528.588-692.489-528.588-692.489Z" opacity="0.1"/>
      <path id="Path_155553" data-name="Path 155553" d="M-530.264-692.374a13.741,13.741,0,0,0-.693,2.947C-530.781-689.2-530.264-692.374-530.264-692.374Z" opacity="0.1"/>
      <path id="Path_155554" data-name="Path 155554" d="M-532.17-692.431a13.753,13.753,0,0,0-.7,2.947C-532.692-689.253-532.17-692.431-532.17-692.431Z" opacity="0.1"/>
      <path id="Path_155555" data-name="Path 155555" d="M-541.426-690.281a13.711,13.711,0,0,0,.82,2.914C-540.342-687.251-541.426-690.281-541.426-690.281Z" opacity="0.1"/>
      <path id="Path_155556" data-name="Path 155556" d="M-538.191-691.5a13.71,13.71,0,0,0,.82,2.914C-537.107-688.465-538.191-691.5-538.191-691.5Z" opacity="0.1"/>
      <path id="Path_155557" data-name="Path 155557" d="M-540.039-690.686a13.71,13.71,0,0,0,.82,2.914C-538.955-687.656-540.039-690.686-540.039-690.686Z" opacity="0.1"/>
      <path id="Path_155558" data-name="Path 155558" d="M-523.676-712.626c-.144.029.433,1.415-1.215,1.5S-523.676-712.626-523.676-712.626Z" opacity="0.1"/>
      <path id="Path_155559" data-name="Path 155559" d="M-512.611-709.131s-.635,1.328-1.676,1.588S-512.611-709.131-512.611-709.131Z" opacity="0.1"/>
      <path id="Path_155560" data-name="Path 155560" d="M-517.61-709.968s1.388,1.444-.549,1.761S-517.61-709.968-517.61-709.968Z" opacity="0.1"/>
      <path id="Path_155561" data-name="Path 155561" d="M-528.617-715.515s-2.831-.868-3.272-.233S-528.617-715.515-528.617-715.515Z" opacity="0.1"/>
      <path id="Path_155562" data-name="Path 155562" d="M-533.577-711.968c-.452.225-1.347,2.256-3.386,3.722S-533.577-711.968-533.577-711.968Z" opacity="0.1"/>
      <g id="Group_167331" data-name="Group 167331" opacity="0.1">
        <path id="Path_155563" data-name="Path 155563" d="M-535.264-737.06a13.441,13.441,0,0,1-1.372-.851,3.219,3.219,0,0,1,.728.269c.416.216.78.52,1.18.756A3.137,3.137,0,0,1-535.264-737.06Z"/>
        <path id="Path_155564" data-name="Path 155564" d="M-529.421-734.294l-.125-.01a.476.476,0,0,0-.085-.148Z"/>
        <path id="Path_155565" data-name="Path 155565" d="M-546.59-705.858c-.01.06-.025.119-.037.181a3.7,3.7,0,0,1-1.792-.47Q-547.5-706.048-546.59-705.858Z"/>
        <path id="Path_155566" data-name="Path 155566" d="M-545.032-702.7a4.708,4.708,0,0,0,2.633-.4,4.249,4.249,0,0,0,1.4-1.4,11.9,11.9,0,0,0,1.482-9.239,3.729,3.729,0,0,1-.112-2.1c.345-.92,1.422-1.4,1.913-2.254.622-1.086.148-2.412-.087-3.63a8.928,8.928,0,0,1,.366-4.694,3.876,3.876,0,0,1,2.416-2.631,1.522,1.522,0,0,0,.649-.243c.485-.427-.067-1.155-.179-1.782a1.858,1.858,0,0,1,1.116-1.8,16,16,0,0,1,2.187-.756c.464-.167.962-.629.833-1.022l.123.01-.208-.158a.477.477,0,0,1,.085.148c-1-.087-.645-.891-1.54-1.54l-.086-.057a2.637,2.637,0,0,1,.962.4c.893.643.537,1.449,1.54,1.54.135.385-.37.855-.831,1.022a15.157,15.157,0,0,0-2.187.756,1.867,1.867,0,0,0-1.118,1.8c.114.626.666,1.347.179,1.782a1.51,1.51,0,0,1-.649.244,3.859,3.859,0,0,0-2.414,2.629,8.942,8.942,0,0,0-.368,4.7c.235,1.218.708,2.545.087,3.63-.491.856-1.569,1.334-1.911,2.254a3.719,3.719,0,0,0,.11,2.1,11.909,11.909,0,0,1-1.482,9.239,4.267,4.267,0,0,1-1.4,1.4,4.742,4.742,0,0,1-2.633.4,14.1,14.1,0,0,1-2.995-.545,1.171,1.171,0,0,0,.1-.1A13.715,13.715,0,0,0-545.032-702.7Z"/>
      </g>
      <path id="Path_155567" data-name="Path 155567" d="M-410.908-775.527s-16.2-.976-14.3,10.38a2.758,2.758,0,0,0,1.44,2.918s.029-.841,1.663-.556a7.455,7.455,0,0,0,1.759.085,3.658,3.658,0,0,0,2.154-.889h0s4.556-1.88,6.327-9.327c0,0,1.311-1.623,1.259-2.04l-2.735,1.166a4.88,4.88,0,0,1,.193,3.613s-.089-3.54-.614-3.465c-.108.017-1.422.683-1.422.683s1.609,3.438.385,5.936c0,0,.462-4.234-.9-5.688l-1.925,1.124s1.88,3.551.606,6.446c0,0,.327-4.442-1.01-6.171l-1.744,1.361s1.786,3.513.7,5.907c0,0-.141-5.172-1.068-5.563a10.659,10.659,0,0,0-1.757,1.9s1.209,2.539.458,3.88c0,0-.46-3.447-.837-3.465a11.425,11.425,0,0,0-1.678,3.85,8.288,8.288,0,0,1,1.311-4.067,4.579,4.579,0,0,0-2.329,1.207s.237-1.615,2.695-1.755a10.507,10.507,0,0,1,1.592-1.836,9.991,9.991,0,0,0-3.942.454s1.311-1.522,4.392-.831l1.732-1.4s-3.232-.443-4.6.046c0,0,1.576-1.347,5.064-.366l1.875-1.122a17.21,17.21,0,0,0-4.394-.385s1.732-.934,4.943.079l1.347-.6s-2.017-.4-2.608-.458-.624-.225-.624-.225a6.985,6.985,0,0,1,3.792.422A16.714,16.714,0,0,0-410.908-775.527Z" fill="#54cad4"/>
      <path id="Path_155568" data-name="Path 155568" d="M-427.531-780.575s-7.314-.443-6.46,4.689a1.25,1.25,0,0,0,.651,1.318s.013-.385.751-.25a3.4,3.4,0,0,0,.8.038,1.665,1.665,0,0,0,.962-.4h0s2.058-.851,2.858-4.215c0,0,.593-.733.577-.922l-1.236.527a2.226,2.226,0,0,1,.09,1.632s-.04-1.6-.277-1.561c-.05,0-.643.308-.643.308a3.664,3.664,0,0,1,.179,2.681s.208-1.913-.406-2.568l-.87.506a3.851,3.851,0,0,1,.273,2.914s.148-2.008-.456-2.789l-.787.614a3.76,3.76,0,0,1,.31,2.666s-.063-2.337-.481-2.5a4.789,4.789,0,0,0-.795.857s.547,1.155.208,1.753c0,0-.208-1.557-.385-1.563a5.17,5.17,0,0,0-.758,1.732,3.727,3.727,0,0,1,.593-1.838,2.062,2.062,0,0,0-1.053.545s.108-.729,1.222-.793a4.783,4.783,0,0,1,.72-.83,4.52,4.52,0,0,0-1.782.206,2.013,2.013,0,0,1,1.984-.385l.78-.635a6.651,6.651,0,0,0-2.079.021,2.519,2.519,0,0,1,2.287-.166l.849-.508a7.754,7.754,0,0,0-1.986-.171,3.049,3.049,0,0,1,2.235.037l.6-.273s-.91-.179-1.178-.206-.281-.1-.281-.1a3.156,3.156,0,0,1,1.713.192A7.24,7.24,0,0,0-427.531-780.575Z" fill="#54cad4"/>
      <ellipse id="Ellipse_2239" data-name="Ellipse 2239" cx="5.183" cy="0.876" rx="5.183" ry="0.876" transform="translate(-536.247 -634.427)" fill="#54cad4" opacity="0.1"/>
      <ellipse id="Ellipse_2240" data-name="Ellipse 2240" cx="7.739" cy="1.309" rx="7.739" ry="1.309" transform="translate(-382.696 -641.141)" fill="#b4e7ec"/>
      <path id="Path_155569" data-name="Path 155569" d="M-371.757-641.968a2.258,2.258,0,0,0,.737-1.113.99.99,0,0,0-.516-1.136,1.45,1.45,0,0,0-1.363.479,1.823,1.823,0,0,1-1.326.639,2.018,2.018,0,0,0,.626-1.888.812.812,0,0,0-.175-.385c-.262-.281-.739-.16-1.053.062a3.923,3.923,0,0,0-1.286,3.286,6.252,6.252,0,0,1-.019-1.347,1.387,1.387,0,0,0-.509-1.2,1.544,1.544,0,0,0-.77-.192,1.6,1.6,0,0,0-1.257.358,1.242,1.242,0,0,0,.048,1.54,4.9,4.9,0,0,0,1.3,1.043,2.9,2.9,0,0,1,.93.887.942.942,0,0,1,.069.16h2.822A7.932,7.932,0,0,0-371.757-641.968Z" fill="#54cad4"/>
      <path id="Path_155570" data-name="Path 155570" d="M-558.735-658.111s1.057,1.382-.487,3.465-2.82,3.849-2.31,5.151c0,0,2.333-3.876,4.234-3.93S-556.647-655.78-558.735-658.111Z" fill="#54cad4"/>
      <path id="Path_155571" data-name="Path 155571" d="M-558.735-658.111a1.7,1.7,0,0,1,.216.433c1.852,2.175,2.839,4.206,1.059,4.258-1.657.046-3.647,3.012-4.123,3.761a1.767,1.767,0,0,0,.056.169s2.333-3.876,4.234-3.93S-556.647-655.78-558.735-658.111Z" opacity="0.1"/>
      <path id="Path_155572" data-name="Path 155572" d="M-556.77-656.342c0,.487-.054.882-.121.882s-.121-.385-.121-.882.067-.256.135-.256S-556.77-656.837-556.77-656.342Z" fill="#ffd037"/>
      <path id="Path_155573" data-name="Path 155573" d="M-556.095-655.769c-.427.233-.8.373-.833.316s.289-.3.716-.529.26-.064.291,0S-555.668-656-556.095-655.769Z" fill="#ffd037"/>
      <path id="Path_155574" data-name="Path 155574" d="M-564.321-658.111s-1.057,1.382.489,3.465,2.82,3.849,2.31,5.151c0,0-2.331-3.876-4.234-3.93S-566.408-655.78-564.321-658.111Z" fill="#54cad4"/>
      <path id="Path_155575" data-name="Path 155575" d="M-564.322-658.111a1.722,1.722,0,0,0-.216.433c-1.852,2.175-2.837,4.206-1.059,4.258,1.659.046,3.657,3.012,4.125,3.761a1.783,1.783,0,0,1-.058.169s-2.331-3.876-4.234-3.93S-566.407-655.78-564.322-658.111Z" opacity="0.1"/>
      <path id="Path_155576" data-name="Path 155576" d="M-566.286-656.342c0,.487.054.882.123.882s.121-.385.121-.882-.069-.256-.137-.256S-566.286-656.837-566.286-656.342Z" fill="#ffd037"/>
      <path id="Path_155577" data-name="Path 155577" d="M-566.952-655.769c.427.233.8.373.831.316s-.289-.3-.716-.529-.258-.064-.291,0S-567.387-656-566.952-655.769Z" fill="#ffd037"/>
      <path id="Path_155578" data-name="Path 155578" d="M-565.95-649.671s2.956-.091,3.849-.726,4.546-1.392,4.77-.364,4.444,5.06,1.1,5.087-7.755-.52-8.644-1.062S-565.95-649.671-565.95-649.671Z" fill="#a8a8a8"/>
      <path id="Path_155579" data-name="Path 155579" d="M-556.175-646.037c-3.338.027-7.755-.52-8.644-1.062-.678-.412-.947-1.892-1.037-2.575h-.1s.192,2.385,1.076,2.926,5.307,1.089,8.644,1.062c.962,0,1.3-.35,1.278-.858C-555.084-646.236-555.452-646.043-556.175-646.037Z" opacity="0.2"/>
    </g>
  </g>
</svg>
