<svg xmlns="http://www.w3.org/2000/svg" xmlns:xlink="http://www.w3.org/1999/xlink" width="262" height="196" viewBox="0 0 262 196">
  <defs>
    <linearGradient id="linear-gradient" x1="17.446" y1="9.345" x2="17.446" y2="9.354" gradientUnits="objectBoundingBox">
      <stop offset="0" stop-color="gray" stop-opacity="0.251"/>
      <stop offset="0.54" stop-color="gray" stop-opacity="0.122"/>
      <stop offset="1" stop-color="gray" stop-opacity="0.102"/>
    </linearGradient>
  </defs>
  <g id="card-9" transform="translate(872.218 807.797)">
    <rect id="Rectangle_8569-5" data-name="Rectangle 8569-5" width="262" height="196" transform="translate(-872.218 -807.797)" fill="#c0ebef"/>
    <g id="undraw_preferences_uuo2" data-name="undraw preferences uuo2">
      <path id="Path_155347" data-name="Path 155347" d="M-655-679.559q-.919.837-1.887,1.633c-.107.09-.219.188-.328.269a67.2,67.2,0,0,1-7.225,5.062c-2.888,1.774-5.9,3.394-8.965,4.926a149.844,149.844,0,0,1-14.128,6.242l-.217.084q-3.18,1.193-6.428,2.21l-.039.011q-2.268.705-4.571,1.308l-.21.056q-3.387.879-6.85,1.517l-.532.094q-2.53.442-5.1.738c-9.623,1.089-19.4.5-28.994-.632-19.392-2.295-38.565-6.89-56.112-14.306a154.86,154.86,0,0,1-19.392-9.81q-1.323-.793-2.628-1.62c-.136-.089-.275-.181-.412-.265-8.6-5.536-16.384-12.325-20.1-20.991-4.148-9.677-1.809-22.075,7.956-28.007a39.569,39.569,0,0,1,11.246-4.139l.406-.1c.67-.16,1.341-.313,2.01-.468,2.339-.539,4.69-1.071,7.019-1.663h0a69.163,69.163,0,0,0,12.522-4.249q.437-.209.87-.42a33.158,33.158,0,0,0,8.957-6.372,12.845,12.845,0,0,0,3.932-7.607h0a8.369,8.369,0,0,0-.14-2.337c-.3-1.456-.587-2.879-.813-4.27a21.812,21.812,0,0,1-.111-7.538h0a14.189,14.189,0,0,1,3.779-7.2q.491-.53,1.066-1.056a22.865,22.865,0,0,1,5.953-3.908q.407-.192.816-.36c6.058-2.575,13.389-3.216,20.249-2.992a110.827,110.827,0,0,1,19.062,2.319c.5.1.995.211,1.486.321a132.074,132.074,0,0,1,15.755,4.578c15.145,5.4,29.367,13.318,42.541,21.948l.628.414q.462.3.925.613.946.629,1.883,1.263.7.468,1.388.942h0l.994.683.62.43c3.369,2.343,6.683,4.788,9.767,7.4l.338.294a58.473,58.473,0,0,1,9.915,10.665C-636.443-717.166-639.418-693.731-655-679.559Z" fill="#b8e4e8"/>
      <path id="Path_155348" data-name="Path 155348" d="M-658.7-784.68l1.815,106.75c-.107.09-.219.188-.328.269a67.2,67.2,0,0,1-7.227,5.06l-132.127,2.247a154.77,154.77,0,0,1-19.407-9.81q-1.323-.795-2.628-1.62c-.137-.089-.275-.181-.412-.265l-1.7-99.866Z" opacity="0.03"/>
      <path id="Path_155349" data-name="Path 155349" d="M-659.019-784.329l1.814,106.67a67.209,67.209,0,0,1-7.225,5.062l-132.139,2.247a154.786,154.786,0,0,1-19.407-9.81q-1.323-.8-2.628-1.621l-1.7-99.806Z" fill="#fefefe"/>
      <g id="Group_167327" data-name="Group 167327" opacity="0.7">
        <path id="Path_155350" data-name="Path 155350" d="M-697.1-743.495a3.885,3.885,0,0,0-3.818,3.95,3.885,3.885,0,0,0,3.95,3.818,3.884,3.884,0,0,0,3.818-3.95h0A3.885,3.885,0,0,0-697.1-743.495Zm.12,7.028a3.145,3.145,0,0,1-3.2-3.091,3.089,3.089,0,0,1,.159-1.035h0a3.145,3.145,0,0,1,3.965-2.012,3.144,3.144,0,0,1,2.013,3.965,3.144,3.144,0,0,1-2.948,2.168Z" fill="#ff6584"/>
        <path id="Path_155351" data-name="Path 155351" d="M-695.812-737.945l.48-.5a.216.216,0,0,0,0-.305l0,0-.9-.869.867-.9a.215.215,0,0,0,0-.3l0,0-.5-.481a.218.218,0,0,0-.308,0h0l-.867.9-.9-.867a.216.216,0,0,0-.306,0h0l-.482.509a.216.216,0,0,0,0,.3l0,0,.9.867-.867.9a.215.215,0,0,0,0,.3l0,0,.5.481a.216.216,0,0,0,.306,0v0l.867-.9.9.869A.223.223,0,0,0-695.812-737.945Z" fill="#ff6584"/>
      </g>
      <path id="Path_155352" data-name="Path 155352" d="M-704.328-712.109h0a3.887,3.887,0,0,0-1.693-2.472h0a3.9,3.9,0,0,0-2.969-.529l-.115.03a3.628,3.628,0,0,0-.609.211,3.9,3.9,0,0,0-1.948,5.161,3.9,3.9,0,0,0,2.079,2l.112.042a3.886,3.886,0,0,0,4.991-2.3,3.9,3.9,0,0,0,.24-1.423A3.793,3.793,0,0,0-704.328-712.109Zm-.7,1.212v.046a3.145,3.145,0,0,1-3.582,2.636,3.145,3.145,0,0,1-.8-.233c-.037-.015-.074-.033-.11-.052a3.071,3.071,0,0,1-.583-.373,3.145,3.145,0,0,1-.455-4.424,3.154,3.154,0,0,1,.788-.691,2.994,2.994,0,0,1,.616-.292l.117-.037a3.146,3.146,0,0,1,3.912,2.115,3.19,3.19,0,0,1,.13.835,3.029,3.029,0,0,1-.035.466Z" fill="#ecf8f9"/>
      <path id="Path_155353" data-name="Path 155353" d="M-706.915-709.654l.481-.5a.215.215,0,0,0,0-.3l0,0-.9-.867.867-.9a.217.217,0,0,0-.005-.308h0l-.5-.479a.215.215,0,0,0-.3,0l0,0-.867.9-.9-.871a.215.215,0,0,0-.3,0h0l-.481.5a.219.219,0,0,0,0,.309h0l.9.867-.869.9a.216.216,0,0,0,0,.306h0l.5.482a.215.215,0,0,0,.3,0h0l.868-.9.9.867a.215.215,0,0,0,.3,0l.005-.005Z" fill="#54cad4" opacity="0.1"/>
      <path id="Path_155354" data-name="Path 155354" d="M-716.781-768.7l-.359-.349a.185.185,0,0,0-.261,0l-.005.005-2.181,2.237-.954-.929a.187.187,0,0,0-.262,0l0,0-.351.359a.184.184,0,0,0,0,.262l0,0,1.449,1.411a.185.185,0,0,0,.261,0l.005-.005,2.66-2.731a.184.184,0,0,0,0-.261l-.007-.007Zm0,0-.359-.349a.185.185,0,0,0-.261,0l-.005.005-2.181,2.237-.954-.929a.187.187,0,0,0-.262,0l0,0-.351.359a.184.184,0,0,0,0,.262l0,0,1.449,1.411a.185.185,0,0,0,.261,0l.005-.005,2.66-2.731a.184.184,0,0,0,0-.261l-.007-.007Zm0,0-.359-.349a.185.185,0,0,0-.261,0l-.005.005-2.181,2.237-.954-.929a.187.187,0,0,0-.262,0l0,0-.351.359a.184.184,0,0,0,0,.262l0,0,1.449,1.411a.185.185,0,0,0,.261,0l.005-.005,2.66-2.731a.184.184,0,0,0,0-.261l-.007-.007Zm0,0-.359-.349a.185.185,0,0,0-.261,0l-.005.005-2.181,2.237-.954-.929a.187.187,0,0,0-.262,0l0,0-.351.359a.184.184,0,0,0,0,.262l0,0,1.449,1.411a.185.185,0,0,0,.261,0l.005-.005,2.66-2.731a.184.184,0,0,0,0-.261l-.007-.007Zm-2.247-2.756a3.884,3.884,0,0,0-3.818,3.95,3.885,3.885,0,0,0,3.95,3.818,3.885,3.885,0,0,0,3.818-3.95h0a3.885,3.885,0,0,0-3.949-3.814Zm.119,7.028a3.142,3.142,0,0,1-3.191-3.091,3.14,3.14,0,0,1,3.09-3.191,3.141,3.141,0,0,1,3.192,3.09,3.145,3.145,0,0,1-.881,2.233A3.147,3.147,0,0,1-718.909-764.428Zm2.128-4.268-.359-.349a.185.185,0,0,0-.261,0l-.005.005-2.181,2.237-.954-.929a.187.187,0,0,0-.262,0l0,0-.351.359a.184.184,0,0,0,0,.262l0,0,1.449,1.411a.185.185,0,0,0,.261,0l.005-.005,2.66-2.731a.184.184,0,0,0,.006-.261l-.011-.011Zm0,0-.359-.349a.185.185,0,0,0-.261,0l-.005.005-2.181,2.237-.954-.929a.187.187,0,0,0-.262,0l0,0-.351.359a.184.184,0,0,0,0,.262l0,0,1.449,1.411a.185.185,0,0,0,.261,0l.005-.005,2.66-2.731a.184.184,0,0,0,.006-.261l-.011-.011Zm0,0-.359-.349a.185.185,0,0,0-.261,0l-.005.005-2.181,2.237-.954-.929a.187.187,0,0,0-.262,0l0,0-.351.359a.184.184,0,0,0,0,.262l0,0,1.449,1.411a.185.185,0,0,0,.261,0l.005-.005,2.66-2.731a.184.184,0,0,0,.006-.261l-.011-.011Zm0,0-.359-.349a.185.185,0,0,0-.261,0l-.005.005-2.181,2.237-.954-.929a.187.187,0,0,0-.262,0l0,0-.351.359a.184.184,0,0,0,0,.262l0,0,1.449,1.411a.185.185,0,0,0,.261,0l.005-.005,2.66-2.731a.184.184,0,0,0,.006-.261l-.011-.011Zm0,0-.359-.349a.185.185,0,0,0-.261,0l-.005.005-2.181,2.237-.954-.929a.187.187,0,0,0-.262,0l0,0-.351.359a.184.184,0,0,0,0,.262l0,0,1.449,1.411a.185.185,0,0,0,.261,0l.005-.005,2.66-2.731a.184.184,0,0,0,.006-.261l-.011-.011Z" fill="#3acc6c" opacity="0.7"/>
      <path id="Path_155355" data-name="Path 155355" d="M-709.417-740.489l-.359-.351a.186.186,0,0,0-.262,0l0,.005-2.182,2.237-.954-.929a.186.186,0,0,0-.262,0l0,.005-.351.359a.186.186,0,0,0,0,.262l.005,0,1.446,1.411a.186.186,0,0,0,.262,0l0-.005,2.662-2.731a.183.183,0,0,0,0-.261l0-.005Zm0,0-.359-.351a.186.186,0,0,0-.262,0l0,.005-2.182,2.237-.954-.929a.186.186,0,0,0-.262,0l0,.005-.351.359a.186.186,0,0,0,0,.262l.005,0,1.446,1.411a.186.186,0,0,0,.262,0l0-.005,2.662-2.731a.183.183,0,0,0,0-.261l0-.005Zm0,0-.359-.351a.186.186,0,0,0-.262,0l0,.005-2.182,2.237-.954-.929a.186.186,0,0,0-.262,0l0,.005-.351.359a.186.186,0,0,0,0,.262l.005,0,1.446,1.411a.186.186,0,0,0,.262,0l0-.005,2.662-2.731a.183.183,0,0,0,0-.261l0-.005Zm0,0-.359-.351a.186.186,0,0,0-.262,0l0,.005-2.182,2.237-.954-.929a.186.186,0,0,0-.262,0l0,.005-.351.359a.186.186,0,0,0,0,.262l.005,0,1.446,1.411a.186.186,0,0,0,.262,0l0-.005,2.662-2.731a.183.183,0,0,0,0-.261l0-.005Zm-2.248-2.762a3.885,3.885,0,0,0-3.818,3.95,3.885,3.885,0,0,0,3.95,3.818,3.885,3.885,0,0,0,3.818-3.95h0a3.884,3.884,0,0,0-3.949-3.814Zm.12,7.028a3.139,3.139,0,0,1-3.186-3.091,3.14,3.14,0,0,1,3.091-3.186,3.139,3.139,0,0,1,3.186,3.091,3.141,3.141,0,0,1-.882,2.229A3.149,3.149,0,0,1-711.545-736.223Zm2.128-4.268-.359-.351a.186.186,0,0,0-.262,0l0,.005-2.182,2.237-.954-.929a.186.186,0,0,0-.262,0l0,.005-.351.359a.186.186,0,0,0,0,.262l.005,0,1.446,1.411a.186.186,0,0,0,.262,0l0-.005,2.662-2.731a.184.184,0,0,0,0-.261l-.006-.007Zm0,0-.359-.351a.186.186,0,0,0-.262,0l0,.005-2.182,2.237-.954-.929a.186.186,0,0,0-.262,0l0,.005-.351.359a.186.186,0,0,0,0,.262l.005,0,1.446,1.411a.186.186,0,0,0,.262,0l0-.005,2.662-2.731a.184.184,0,0,0,0-.261l-.006-.007Zm0,0-.359-.351a.186.186,0,0,0-.262,0l0,.005-2.182,2.237-.954-.929a.186.186,0,0,0-.262,0l0,.005-.351.359a.186.186,0,0,0,0,.262l.005,0,1.446,1.411a.186.186,0,0,0,.262,0l0-.005,2.662-2.731a.184.184,0,0,0,0-.261l-.006-.007Zm0,0-.359-.351a.186.186,0,0,0-.262,0l0,.005-2.182,2.237-.954-.929a.186.186,0,0,0-.262,0l0,.005-.351.359a.186.186,0,0,0,0,.262l.005,0,1.446,1.411a.186.186,0,0,0,.262,0l0-.005,2.662-2.731a.184.184,0,0,0,0-.261l-.006-.007Zm0,0-.359-.351a.186.186,0,0,0-.262,0l0,.005-2.182,2.237-.954-.929a.186.186,0,0,0-.262,0l0,.005-.351.359a.186.186,0,0,0,0,.262l.005,0,1.446,1.411a.186.186,0,0,0,.262,0l0-.005,2.662-2.731a.184.184,0,0,0,0-.261l-.006-.007Z" fill="#ecf8f9"/>
      <path id="Path_155356" data-name="Path 155356" d="M-720.564-711.969l-.359-.351a.185.185,0,0,0-.261,0l-.005,0-2.181,2.238-.954-.929a.186.186,0,0,0-.262,0l0,.005-.351.359a.183.183,0,0,0,0,.261l0,.005,1.446,1.41a.184.184,0,0,0,.262,0l0,0,2.663-2.731a.186.186,0,0,0,0-.262l-.005,0Zm0,0-.359-.351a.185.185,0,0,0-.261,0l-.005,0-2.181,2.238-.954-.929a.186.186,0,0,0-.262,0l0,.005-.351.359a.183.183,0,0,0,0,.261l0,.005,1.446,1.41a.184.184,0,0,0,.262,0l0,0,2.663-2.731a.186.186,0,0,0,0-.262l-.005,0Zm0,0-.359-.351a.185.185,0,0,0-.261,0l-.005,0-2.181,2.238-.954-.929a.186.186,0,0,0-.262,0l0,.005-.351.359a.183.183,0,0,0,0,.261l0,.005,1.446,1.41a.184.184,0,0,0,.262,0l0,0,2.663-2.731a.186.186,0,0,0,0-.262l-.005,0Zm0,0-.359-.351a.185.185,0,0,0-.261,0l-.005,0-2.181,2.238-.954-.929a.186.186,0,0,0-.262,0l0,.005-.351.359a.183.183,0,0,0,0,.261l0,.005,1.446,1.41a.184.184,0,0,0,.262,0l0,0,2.663-2.731a.186.186,0,0,0,0-.262l-.005,0Zm-2.247-2.763a3.885,3.885,0,0,0-3.818,3.95,3.884,3.884,0,0,0,3.95,3.818,3.885,3.885,0,0,0,3.818-3.95h0a3.885,3.885,0,0,0-3.949-3.814Zm.119,7.028a3.136,3.136,0,0,1-3.181-3.091,3.136,3.136,0,0,1,3.091-3.181,3.136,3.136,0,0,1,3.181,3.091,3.138,3.138,0,0,1-.88,2.224A3.145,3.145,0,0,1-722.692-707.7Zm2.128-4.267-.359-.351a.186.186,0,0,0-.262,0l0,0-2.181,2.238-.954-.929a.186.186,0,0,0-.262,0l0,0-.351.359a.183.183,0,0,0,0,.261l0,0,1.446,1.411a.185.185,0,0,0,.262,0l0,0,2.663-2.731a.185.185,0,0,0,0-.262l-.007-.006Zm0,0-.359-.351a.186.186,0,0,0-.262,0l0,0-2.181,2.238-.954-.929a.186.186,0,0,0-.262,0l0,0-.351.359a.183.183,0,0,0,0,.261l0,0,1.446,1.411a.185.185,0,0,0,.262,0l0,0,2.663-2.731a.185.185,0,0,0,0-.262l-.007-.006Zm0,0-.359-.351a.186.186,0,0,0-.262,0l0,0-2.181,2.238-.954-.929a.186.186,0,0,0-.262,0l0,0-.351.359a.183.183,0,0,0,0,.261l0,0,1.446,1.411a.185.185,0,0,0,.262,0l0,0,2.663-2.731a.185.185,0,0,0,0-.262l-.007-.006Zm0,0-.359-.351a.186.186,0,0,0-.262,0l0,0-2.181,2.238-.954-.929a.186.186,0,0,0-.262,0l0,0-.351.359a.183.183,0,0,0,0,.261l0,0,1.446,1.411a.185.185,0,0,0,.262,0l0,0,2.663-2.731a.185.185,0,0,0,0-.262l-.007-.006Zm0,0-.359-.351a.186.186,0,0,0-.262,0l0,0-2.181,2.238-.954-.929a.186.186,0,0,0-.262,0l0,0-.351.359a.183.183,0,0,0,0,.261l0,0,1.446,1.411a.185.185,0,0,0,.262,0l0,0,2.663-2.731a.185.185,0,0,0,0-.262l-.007-.006Z" fill="#3acc6c" opacity="0.7"/>
      <path id="Path_155357" data-name="Path 155357" d="M-727.539-683.518l-.359-.349a.184.184,0,0,0-.262,0l0,0-2.182,2.238-.954-.929a.186.186,0,0,0-.262,0l0,0-.349.361a.186.186,0,0,0,0,.262l0,0,1.448,1.411a.186.186,0,0,0,.262,0l0,0,2.66-2.731a.185.185,0,0,0,0-.262l-.006-.006Zm0,0-.359-.349a.184.184,0,0,0-.262,0l0,0-2.182,2.238-.954-.929a.186.186,0,0,0-.262,0l0,0-.349.361a.186.186,0,0,0,0,.262l0,0,1.448,1.411a.186.186,0,0,0,.262,0l0,0,2.66-2.731a.185.185,0,0,0,0-.262l-.006-.006Zm0,0-.359-.349a.184.184,0,0,0-.262,0l0,0-2.182,2.238-.954-.929a.186.186,0,0,0-.262,0l0,0-.349.361a.186.186,0,0,0,0,.262l0,0,1.448,1.411a.186.186,0,0,0,.262,0l0,0,2.66-2.731a.185.185,0,0,0,0-.262l-.006-.006Zm0,0-.359-.349a.184.184,0,0,0-.262,0l0,0-2.182,2.238-.954-.929a.186.186,0,0,0-.262,0l0,0-.349.361a.186.186,0,0,0,0,.262l0,0,1.448,1.411a.186.186,0,0,0,.262,0l0,0,2.66-2.731a.185.185,0,0,0,0-.262l-.006-.006Zm-2.248-2.757a3.885,3.885,0,0,0-3.818,3.95,3.885,3.885,0,0,0,3.95,3.818,3.884,3.884,0,0,0,3.818-3.95h0a3.885,3.885,0,0,0-3.949-3.819Zm.12,7.028a3.144,3.144,0,0,1-3.2-3.09,3.145,3.145,0,0,1,3.091-3.2,3.144,3.144,0,0,1,3.2,3.091h0A3.143,3.143,0,0,1-729.667-679.247Zm2.128-4.269-.359-.349a.184.184,0,0,0-.262,0l0,0-2.182,2.238-.954-.929a.186.186,0,0,0-.262,0l0,0-.349.361a.186.186,0,0,0,0,.262l0,0,1.448,1.411a.186.186,0,0,0,.262,0l0,0,2.66-2.731a.185.185,0,0,0,.005-.262l-.009-.008Zm0,0-.359-.349a.184.184,0,0,0-.262,0l0,0-2.182,2.238-.954-.929a.186.186,0,0,0-.262,0l0,0-.349.361a.186.186,0,0,0,0,.262l0,0,1.448,1.411a.186.186,0,0,0,.262,0l0,0,2.66-2.731a.185.185,0,0,0,.005-.262l-.009-.008Zm0,0-.359-.349a.184.184,0,0,0-.262,0l0,0-2.182,2.238-.954-.929a.186.186,0,0,0-.262,0l0,0-.349.361a.186.186,0,0,0,0,.262l0,0,1.448,1.411a.186.186,0,0,0,.262,0l0,0,2.66-2.731a.185.185,0,0,0,.005-.262l-.009-.008Zm0,0-.359-.349a.184.184,0,0,0-.262,0l0,0-2.182,2.238-.954-.929a.186.186,0,0,0-.262,0l0,0-.349.361a.186.186,0,0,0,0,.262l0,0,1.448,1.411a.186.186,0,0,0,.262,0l0,0,2.66-2.731a.185.185,0,0,0,.005-.262l-.009-.008Zm0,0-.359-.349a.184.184,0,0,0-.262,0l0,0-2.182,2.238-.954-.929a.186.186,0,0,0-.262,0l0,0-.349.361a.186.186,0,0,0,0,.262l0,0,1.448,1.411a.186.186,0,0,0,.262,0l0,0,2.66-2.731a.185.185,0,0,0,.005-.262l-.009-.008Z" fill="#ecf8f9"/>
      <path id="Path_155358" data-name="Path 155358" d="M-683.837-755.09l-.359-.344a.186.186,0,0,0-.262,0l0,.005-1.134,1.166-.409.419h0l-.035.034h0l-.212.22h0l-.38.389-.954-.929a.185.185,0,0,0-.261,0l-.005.005-.351.359a.186.186,0,0,0,0,.262l.005,0,1.366,1.333.081.079a.21.21,0,0,0,.11.053.183.183,0,0,0,.156-.057l1.1-1.129.364-.376,1.193-1.221a.185.185,0,0,0,0-.261l-.009-.009Zm0,0-.359-.344a.186.186,0,0,0-.262,0l0,.005-1.134,1.166-.409.419h0l-.035.034h0l-.212.22h0l-.38.389-.954-.929a.185.185,0,0,0-.261,0l-.005.005-.351.359a.186.186,0,0,0,0,.262l.005,0,1.366,1.333.081.079a.21.21,0,0,0,.11.053.183.183,0,0,0,.156-.057l1.1-1.129.364-.376,1.193-1.221a.185.185,0,0,0,0-.261l-.009-.009Zm0,0-.359-.344a.186.186,0,0,0-.262,0l0,.005-1.134,1.166-.409.419h0l-.035.034h0l-.212.22h0l-.38.389-.954-.929a.185.185,0,0,0-.261,0l-.005.005-.351.359a.186.186,0,0,0,0,.262l.005,0,1.366,1.333.081.079a.21.21,0,0,0,.11.053.183.183,0,0,0,.156-.057l1.1-1.129.364-.376,1.193-1.221a.185.185,0,0,0,0-.261l-.009-.009Zm0,0-.359-.344a.186.186,0,0,0-.262,0l0,.005-1.134,1.166-.409.419h0l-.035.034h0l-.212.22h0l-.38.389-.954-.929a.185.185,0,0,0-.261,0l-.005.005-.351.359a.186.186,0,0,0,0,.262l.005,0,1.366,1.333.081.079a.21.21,0,0,0,.11.053.183.183,0,0,0,.156-.057l1.1-1.129.364-.376,1.193-1.221a.185.185,0,0,0,0-.261l-.009-.009Zm-2.247-2.756a3.884,3.884,0,0,0-3.849,3.92,3.883,3.883,0,0,0,2.7,3.663,1.067,1.067,0,0,0,.125.039,3.88,3.88,0,0,0,2.587-.144,3.54,3.54,0,0,0,.55-.285,3.886,3.886,0,0,0,1.287-5.341,3.883,3.883,0,0,0-3.4-1.856Zm1.492,6.684a3.05,3.05,0,0,1-.4.172,3.16,3.16,0,0,1-1.817.07c-.083-.023-.167-.047-.247-.076a3.143,3.143,0,0,1-1.93-4.006,3.145,3.145,0,0,1,4.006-1.93,3.145,3.145,0,0,1,1.93,4.006,3.142,3.142,0,0,1-1.541,1.764Zm.754-3.927-.359-.344a.186.186,0,0,0-.262,0l0,.005-1.134,1.166-.409.42h0l-.035.033h0l-.212.22h0l-.38.389-.954-.929a.185.185,0,0,0-.261,0l-.005.005-.351.359a.186.186,0,0,0,0,.262l.005,0,1.366,1.333.081.079a.211.211,0,0,0,.11.053.183.183,0,0,0,.156-.057l1.1-1.129.364-.376,1.193-1.221a.185.185,0,0,0,0-.261l-.009-.009Zm0,0-.359-.344a.186.186,0,0,0-.262,0l0,.005-1.134,1.166-.409.42h0l-.035.033h0l-.212.22h0l-.38.389-.954-.929a.185.185,0,0,0-.261,0l-.005.005-.351.359a.186.186,0,0,0,0,.262l.005,0,1.366,1.333.081.079a.211.211,0,0,0,.11.053.183.183,0,0,0,.156-.057l1.1-1.129.364-.376,1.193-1.221a.185.185,0,0,0,0-.261l-.009-.009Zm0,0-.359-.344a.186.186,0,0,0-.262,0l0,.005-1.134,1.166-.409.42h0l-.035.033h0l-.212.22h0l-.38.389-.954-.929a.185.185,0,0,0-.261,0l-.005.005-.351.359a.186.186,0,0,0,0,.262l.005,0,1.366,1.333.081.079a.211.211,0,0,0,.11.053.183.183,0,0,0,.156-.057l1.1-1.129.364-.376,1.193-1.221a.185.185,0,0,0,0-.261l-.009-.009Zm0,0-.359-.344a.186.186,0,0,0-.262,0l0,.005-1.134,1.166-.409.42h0l-.035.033h0l-.212.22h0l-.38.389-.954-.929a.185.185,0,0,0-.261,0l-.005.005-.351.359a.186.186,0,0,0,0,.262l.005,0,1.366,1.333.081.079a.211.211,0,0,0,.11.053.183.183,0,0,0,.156-.057l1.1-1.129.364-.376,1.193-1.221a.185.185,0,0,0,0-.261l-.009-.009Zm0,0-.359-.344a.186.186,0,0,0-.262,0l0,.005-1.134,1.166-.409.42h0l-.035.033h0l-.212.22h0l-.38.389-.954-.929a.185.185,0,0,0-.261,0l-.005.005-.351.359a.186.186,0,0,0,0,.262l.005,0,1.366,1.333.081.079a.211.211,0,0,0,.11.053.183.183,0,0,0,.156-.057l1.1-1.129.364-.376,1.193-1.221a.185.185,0,0,0,0-.261l-.009-.009Z" fill="#3acc6c" opacity="0.7"/>
      <path id="Rectangle_30403" data-name="Rectangle 30403" d="M-807.275-769.832l73.671-1.253a3.77,3.77,0,0,1,3.833,3.705h0a3.769,3.769,0,0,1-3.705,3.833l-73.671,1.253A3.77,3.77,0,0,1-810.98-766h0A3.769,3.769,0,0,1-807.275-769.832Z" fill="#dbf3f5"/>
      <path id="Rectangle_30404" data-name="Rectangle 30404" d="M-807.034-755.671l106.519-1.811a3.77,3.77,0,0,1,3.833,3.705h0a3.77,3.77,0,0,1-3.705,3.833l-106.519,1.811a3.77,3.77,0,0,1-3.833-3.705h0A3.768,3.768,0,0,1-807.034-755.671Z" fill="#dbf3f5"/>
      <path id="Rectangle_30405" data-name="Rectangle 30405" d="M-806.794-741.51l80.591-1.37a3.768,3.768,0,0,1,3.833,3.705h0a3.77,3.77,0,0,1-3.705,3.833l-80.591,1.37a3.771,3.771,0,0,1-3.833-3.705h0A3.77,3.77,0,0,1-806.794-741.51Z" fill="#ecf8f9"/>
      <path id="Rectangle_30406" data-name="Rectangle 30406" d="M-806.553-727.348l106.519-1.811a3.769,3.769,0,0,1,3.833,3.705h0a3.768,3.768,0,0,1-3.705,3.833l-106.519,1.811a3.771,3.771,0,0,1-3.833-3.705h0A3.77,3.77,0,0,1-806.553-727.348Z" fill="#ecf8f9"/>
      <path id="Rectangle_30407" data-name="Rectangle 30407" d="M-806.312-713.187l69.284-1.178a3.77,3.77,0,0,1,3.833,3.705h0a3.769,3.769,0,0,1-3.705,3.833l-69.284,1.178a3.77,3.77,0,0,1-3.833-3.705h0A3.769,3.769,0,0,1-806.312-713.187Z" fill="#dbf3f5"/>
      <path id="Rectangle_30408" data-name="Rectangle 30408" d="M-806.071-699.024l106.519-1.811a3.77,3.77,0,0,1,3.833,3.705h0a3.77,3.77,0,0,1-3.705,3.833l-106.519,1.811a3.77,3.77,0,0,1-3.833-3.7h0A3.768,3.768,0,0,1-806.071-699.024Z" fill="#ecf8f9"/>
      <path id="Rectangle_30409" data-name="Rectangle 30409" d="M-805.831-684.863l61.465-1.045a3.769,3.769,0,0,1,3.833,3.705h0a3.769,3.769,0,0,1-3.7,3.833l-61.465,1.045a3.771,3.771,0,0,1-3.833-3.705h0A3.77,3.77,0,0,1-805.831-684.863Z" fill="#ecf8f9"/>
      <path id="Path_155359" data-name="Path 155359" d="M-704.37-771.7a3.885,3.885,0,0,0-3.818,3.95,3.884,3.884,0,0,0,3.95,3.818,3.885,3.885,0,0,0,3.818-3.95h0A3.885,3.885,0,0,0-704.37-771.7Zm.119,7.028a3.14,3.14,0,0,1-3.191-3.09,3.142,3.142,0,0,1,3.09-3.192,3.142,3.142,0,0,1,3.192,3.091,3.149,3.149,0,0,1-.881,2.233A3.142,3.142,0,0,1-704.251-764.674Z" fill="#ecf8f9"/>
      <path id="Path_155360" data-name="Path 155360" d="M-703.085-766.154l.482-.5a.218.218,0,0,0,0-.308h0l-.9-.867.867-.9a.217.217,0,0,0-.005-.308h0l-.5-.48a.215.215,0,0,0-.3,0h0l-.867.9-.9-.867a.218.218,0,0,0-.308.005h0l-.479.5a.216.216,0,0,0,0,.3l0,0,.9.867-.865.9a.215.215,0,0,0,0,.3l0,0,.5.48a.218.218,0,0,0,.309-.005h0l.867-.9.9.867a.216.216,0,0,0,.306,0v0Z" fill="#ecf8f9"/>
      <path id="Path_155361" data-name="Path 155361" d="M-671.522-758.095a3.874,3.874,0,0,0-3.8,3.95,3.875,3.875,0,0,0,3.951,3.8,3.874,3.874,0,0,0,3.795-3.951,3.878,3.878,0,0,0-1.181-2.708A3.888,3.888,0,0,0-671.522-758.095Zm.119,7.028a3.145,3.145,0,0,1-3.2-3.085,3.146,3.146,0,0,1,3.085-3.2,3.146,3.146,0,0,1,3.2,3.085,3.136,3.136,0,0,1-.422,1.633A3.144,3.144,0,0,1-671.4-751.067Z" fill="#ecf8f9"/>
      <path id="Path_155362" data-name="Path 155362" d="M-670.245-752.546l.482-.5a.218.218,0,0,0-.005-.309h0l-.9-.867.869-.9a.217.217,0,0,0,0-.306h0l-.5-.482a.215.215,0,0,0-.3,0h0l-.865.9-.9-.867a.215.215,0,0,0-.305,0h0l-.482.5a.216.216,0,0,0,0,.3l0,0,.9.867-.867.9a.218.218,0,0,0,0,.308h0l.5.479a.212.212,0,0,0,.3,0l.006-.006.867-.9.9.867A.216.216,0,0,0-670.245-752.546Z" fill="#ecf8f9"/>
      <g id="Group_167328" data-name="Group 167328" opacity="0.7">
        <path id="Path_155363" data-name="Path 155363" d="M-715.328-686.522a3.885,3.885,0,0,0-3.818,3.95,3.885,3.885,0,0,0,3.95,3.818,3.884,3.884,0,0,0,3.818-3.95h0A3.885,3.885,0,0,0-715.328-686.522Zm.12,7.028a3.139,3.139,0,0,1-3.186-3.091,3.138,3.138,0,0,1,3.091-3.185,3.139,3.139,0,0,1,3.186,3.091,3.14,3.14,0,0,1-.882,2.228A3.14,3.14,0,0,1-715.208-679.494Z" fill="#ff6584"/>
        <path id="Path_155364" data-name="Path 155364" d="M-714.042-680.974l.48-.5a.219.219,0,0,0-.005-.309h0l-.9-.867.867-.9a.216.216,0,0,0,0-.306h0l-.5-.482a.218.218,0,0,0-.308,0h0l-.867.9-.9-.867a.217.217,0,0,0-.306,0h0l-.482.5a.215.215,0,0,0,0,.305v0l.9.867-.867.9a.218.218,0,0,0,.005.308h0l.5.479a.212.212,0,0,0,.3,0l.006-.006.867-.9.9.867a.218.218,0,0,0,.308,0Z" fill="#ff6584"/>
      </g>
      <ellipse id="Ellipse_2224" data-name="Ellipse 2224" cx="21.989" cy="1.073" rx="21.989" ry="1.073" transform="translate(-719.986 -637.74) rotate(-0.974)" fill="#b8e4e8"/>
      <path id="Path_155365" data-name="Path 155365" d="M-680.251-713.322s-5.362-9.411-4.508-10.975a20.865,20.865,0,0,0,1.456-3.81s1.9-1.346,1.888-1.882,1.49-1.8,2.282-2.356.347-3.1-.058-3.4a7.058,7.058,0,0,1-1.058-1.374s.529-1.553-.034-2.008.066-.926-.023-1.391a18.582,18.582,0,0,1-.037-2.162,3.487,3.487,0,0,0-2.07-1.445l-.063-.243-.367-1.435s1.61-3.218-1.118-4.842a4.454,4.454,0,0,0-.606-.3,2.057,2.057,0,0,0-.018-.209,12.984,12.984,0,0,0-.434-2.436c-.149-.446-.337-.744-.567-.672a.373.373,0,0,0-.15.09,1.688,1.688,0,0,0-.281.343h0a.085.085,0,0,1-.013.02h0a5.8,5.8,0,0,0-.606,1.777,10.155,10.155,0,0,0-.166,1.113,6.014,6.014,0,0,0-.3.691,3.953,3.953,0,0,0,.045,3.407c.607.915,1.426,2.177,2.021,3.087l.018.03.036.056-.06.04.011.142.067.778.572,6.718a2.9,2.9,0,0,0-.413-.08,3.765,3.765,0,0,0-.6-.029c-.416-1.526-1.512-2.934-1.733-4.532a4.361,4.361,0,0,1-.039-.483c0-1.008.233-2.025.2-3.03a5.418,5.418,0,0,0-.028-.555h0a.575.575,0,0,0-.018-.154,4.551,4.551,0,0,0-2.531-3.4c-.468-.223-.974-.368-1.43-.613a25.118,25.118,0,0,1-2.7-2.317,2.943,2.943,0,0,0-2.553-.512,11.785,11.785,0,0,0-1.232.276h0a11.169,11.169,0,0,0-2.812,1.224c-.119.074-.238.15-.351.237a1.565,1.565,0,0,0-.561.678,1.741,1.741,0,0,0-.077.72c0,.176.006.355.02.531,0,2.96-3.151,5.3-3.362,8.2,0,.068-.008.137-.011.205l.005.316h0l0,.231c.068,1.266.742,2.435.888,3.694.013.113.021.224.025.337a5.591,5.591,0,0,1-.3,1.7,4.975,4.975,0,0,0-1.141.486,7.151,7.151,0,0,0-3.293,3.815,5.5,5.5,0,0,0-.214,1.654,34.477,34.477,0,0,1-.44,5.9,10.956,10.956,0,0,1-.316,1.454.357.357,0,0,0-.008.142l-.3,5-.053.879-.079,1.251s.029.076.071.2a5.776,5.776,0,0,1,.162.575,3.089,3.089,0,0,1,.072,1.294.886.886,0,0,1-.262.479.258.258,0,0,0-.03.036,3.832,3.832,0,0,0-.271,1.277c-.028.26-.055.556-.085.864-.151,1.973-.216,4.923-.245,7.361-.026,2.4-.018,4.3-.018,4.3a4.945,4.945,0,0,0,1,.475c-.025.065-.052.132-.076.2a9.7,9.7,0,0,0-.557,2.551,4.431,4.431,0,0,0,2.972,4.828,4.04,4.04,0,0,0,.5.162,1.584,1.584,0,0,0,1.264-.1c0,.109.016.215.023.32.034.45.063.863.08,1.209.116,2.162.717,5.937.717,5.937a7.9,7.9,0,0,1,.058,2.009,10.941,10.941,0,0,0,.039,2.317s.571.915.024,1.391-.672,2.786-.5,3.1a.1.1,0,0,1,0,.035c.135.766-.361,12.181-.361,12.181s-.623,1.757-1.112,3.578c-.477,1.773-.827,3.607-.352,3.941a3.933,3.933,0,0,0,1.47.375,2.218,2.218,0,0,1-.014.229,6.589,6.589,0,0,1-.291,1.922,21.776,21.776,0,0,0-.486,4.078l-.009.147a13.732,13.732,0,0,0-.57,1.737s-1.7,4.469-1.076,5.611a.963.963,0,0,0,.224.268h0a.712.712,0,0,0,.058.051c.865.667,3,.774,3.779.792l-.011,1.1v.041l1.008-.017v-.028c0-.139.009-.775.028-1.627,0-.152.006-.311.01-.473,0-.128.009-.257.012-.39a6.841,6.841,0,0,0,.4-2.475,10.8,10.8,0,0,1,.339-2.869,7.96,7.96,0,0,1,.488-1.409,6.392,6.392,0,0,0-.172-2.841,2.082,2.082,0,0,0-.381-.634l-.006-.37a10.633,10.633,0,0,1,.2-2.375.22.22,0,0,1,0-.037c.014-.065.028-.126.044-.185l.011-.042.327.006c1,.011,1.742,0,1.742,0a37.582,37.582,0,0,0,.622-5.882l0-.24a22.809,22.809,0,0,1,.414-4.171l.533-6.268a3.3,3.3,0,0,1-.031-1.849c.192-.481.584-1.373.857-1.988.129-.286.231-.5.273-.6l.025-.053a1.147,1.147,0,0,1-.287-.137h0c-.264-.169-.5-.505.27-1.02,1.187-.793.754-2.713.754-2.713a1.388,1.388,0,0,1,.04-1.314c.406-.625-.049-2.935-.049-2.935a9.746,9.746,0,0,0,.777-1.954c.284-.93.958-5.465,1.276-7.651.1-.718.165-1.181.165-1.181l.013.113.013.122h0l.117,1.028.016.137.232,1.949a59.861,59.861,0,0,1,.26,7.124v.037a2.4,2.4,0,0,1-.125.61c-.409.969-.267,4.789-.23,5.634l0,.17a3.4,3.4,0,0,0-.2,1.31h0a.845.845,0,0,0,.152.385.986.986,0,0,1,.153.6v.018a2.137,2.137,0,0,1-.017.266,5.081,5.081,0,0,1-.264,1.052,3.816,3.816,0,0,0-.236,1.722h0a.538.538,0,0,0,.108.208.489.489,0,0,1,.065.22.065.065,0,0,0,0,.02c.171,1.243-.122,6.743-.3,9.755-.072,1.189-.125,1.989-.125,1.989l-.512,6.584.064.043c.073.05.21.137.392.241v.015l-.025.2c-.08.634-.19,1.373-.313,1.937-.01.044-.019.084-.029.123a1.763,1.763,0,0,0-.674.283c-1.306,2.414-.679,4.3.082,4.838a1.948,1.948,0,0,1,.472,1.123l.225,2.381.005.274a.73.73,0,0,0,.039.217l.069.722.1,1.005.614-.011-.02-1.217h.033c.969.016,2.533.031,3.212-.035h.019a1.276,1.276,0,0,0,.185-.023.5.5,0,0,0,.106-.032c.358-.18,1.213-2.744.393-3.308a3.741,3.741,0,0,1-1.028-2.2c-.073-.214-.148-.416-.223-.608l0-.126a10.1,10.1,0,0,1,.064-2.121,16.289,16.289,0,0,0,.168-2.536l0-.235a3.141,3.141,0,0,0,.409-.142l.03-.013a2.908,2.908,0,0,0,.683-.421l2.071-10.079.22-1.171,1.239-6.644s-.518-2.309-.046-2.7c.183-.144.212-.744.189-1.437-.04-1.212-.26-2.735-.26-2.735s.623-1.011.935-1.638a5.042,5.042,0,0,0-.039-2.24l.576-3.711a34.87,34.87,0,0,1,2.343-8.17c1.249-2.75.3-10.1-.608-14.009-.024-.1-.047-.2-.072-.3v-.015c.4-.207.872-.448,1.388-.705l.2-.095c.65-.32,1.341-.65,1.96-.925l.04-.018a13.827,13.827,0,0,1,1.366-.537,2.3,2.3,0,0,1,.42-.094C-676.795-707.505-680.251-713.322-680.251-713.322Zm-24.811,13,.333-.006c-.038.073-.074.147-.11.222-.021.044-.042.088-.062.132a7.979,7.979,0,0,0-.314.772c.032-.275.073-.573.12-.893.016-.085.021-.159.033-.227Zm-.819,4.824a.116.116,0,0,0,0-.026l-.03-.086c-.021-.059-.041-.118-.06-.175.115-.038.231-.079.348-.122l.024-.01v.061a2.054,2.054,0,0,1-.026.26h0a.176.176,0,0,1,0,.033,1.9,1.9,0,0,1-.02.2c-.015.133-.029.264-.042.388-.037-.116-.074-.23-.113-.342a.674.674,0,0,1-.081-.182Z" fill="url(#linear-gradient)"/>
      <path id="Path_155366" data-name="Path 155366" d="M-682.669-742.928l-1.988.742-.745-1.188c-.571-.915-1.361-2.167-1.945-3.077-1.028-1.6.24-4.087.24-4.087s.187-2.467,1.021-3.251,1.133,3.215,1.133,3.215c3.412,1.483,1.659,5.131,1.659,5.131l.354,1.431Z" fill="#a1616a"/>
      <path id="Path_155367" data-name="Path 155367" d="M-682.67-742.928l-1.988.742-.745-1.188,0-.1a3.479,3.479,0,0,1,2.472-.532Z" opacity="0.1"/>
      <path id="Path_155368" data-name="Path 155368" d="M-685.761-734.772l.986-.857-.63-7.615a3.17,3.17,0,0,1,4.416.763c.037.052.072.106.106.161a19.384,19.384,0,0,0,.037,2.156c.085.46-.523.934.023,1.385s.034,2,.034,2a7.016,7.016,0,0,0,1.017,1.37c.39.3.819,2.835.057,3.388s-2.2,1.808-2.192,2.348-1.818,1.88-1.818,1.88l-1.655-2.128Z" fill="#5a5773"/>
      <path id="Path_155369" data-name="Path 155369" d="M-706.612-688.125c-3.759-1.52-2.993-5.4-2.326-7.363a10.1,10.1,0,0,1,.474-1.162l2.079-1.3s.445,1.082.927,2.537C-704.348-692.046-703.038-686.686-706.612-688.125Z" fill="#a1616a"/>
      <path id="Path_155370" data-name="Path 155370" d="M-700.883-652.928a6.264,6.264,0,0,0-.528,1.565,11.262,11.262,0,0,0-.186,2.656c.025.616.084,1.018.084,1.018l-4.109,2.929s.018-.335.051-.828a23.036,23.036,0,0,1,.473-4.063,6.776,6.776,0,0,0,.28-1.914c.052-.813.065-1.53.065-1.53S-699.792-655.056-700.883-652.928Z" fill="#a1616a"/>
      <path id="Path_155371" data-name="Path 155371" d="M-691.029-651.039s.014.8,0,1.72a17.654,17.654,0,0,1-.158,2.528,10.448,10.448,0,0,0-.058,2.114c.044.925.124,1.755.124,1.755s-4.322-3.94-3.885-4.266a1.979,1.979,0,0,0,.322-.887c.12-.558.224-1.3.3-1.931.087-.742.145-1.353.145-1.353Z" fill="#a1616a"/>
      <path id="Path_155372" data-name="Path 155372" d="M-700.883-652.928a6.264,6.264,0,0,0-.528,1.565,33.4,33.4,0,0,1-3.4-.2c.05-.8.065-1.53.065-1.53S-699.792-655.056-700.883-652.928Z" opacity="0.1"/>
      <path id="Path_155373" data-name="Path 155373" d="M-691.03-651.043s.014.8,0,1.72a4.631,4.631,0,0,1-3.357-.683c.087-.742.145-1.353.145-1.353Z" opacity="0.1"/>
      <path id="Path_155374" data-name="Path 155374" d="M-683.006-690.52a35.9,35.9,0,0,0-2.251,8.124l-.551,3.711a5.235,5.235,0,0,1,.038,2.232c-.3.621-.9,1.632-.9,1.632s.527,3.767.071,4.158.046,2.7.046,2.7l-1.409,7.8-1.986,10.045c-2.05,1.73-4.854-.379-4.854-.379l.5-6.554s.73-11.481.337-11.945.121-1.925.121-1.925.516-1.4.122-1.93.047-1.7.047-1.7-.234-4.7.211-5.78-.132-7.749-.132-7.749l-.22-2.073-.125-1.149-.013-.112s-.062.463-.165,1.179c-.3,2.178-.951,6.694-1.222,7.623a9.909,9.909,0,0,1-.768,1.929s.44,2.3.05,2.926a1.432,1.432,0,0,0-.039,1.31s.418,1.917-.725,2.708.02,1.154.02,1.154-.816,1.864-1.11,2.639a3.426,3.426,0,0,0,.032,1.849l-.494,6.244a22.528,22.528,0,0,0-.388,4.4,38.446,38.446,0,0,1-.6,5.873s-5.929.1-6.855-.578,1.408-7.5,1.408-7.5.492-11.871.331-12.176-.044-2.617.488-3.088-.024-1.385-.024-1.385a11.433,11.433,0,0,1-.039-2.31,8.215,8.215,0,0,0-.058-2s-.58-3.764-.693-5.919-.581-7-.581-7,.349-3.007.389-4.436a5.18,5.18,0,0,1,.515-1.809,16.156,16.156,0,0,1,1.113-2.033s18.156-5.7,18.938-5.175a6.979,6.979,0,0,1,.834,2.5C-682.726-700.6-681.807-693.271-683.006-690.52Z" fill="#605d82"/>
      <circle id="Ellipse_2225" data-name="Ellipse 2225" cx="5.314" cy="5.314" r="5.314" transform="translate(-700.455 -748.03)" fill="#a1616a"/>
      <path id="Path_155375" data-name="Path 155375" d="M-683.607-704.492c-.607.323-1.014.548-1.014.548s-8.555,4.229-11.018,4.039c-1.9-.153-6.743.033-8.852.122a16.219,16.219,0,0,1,1.113-2.033s18.156-5.7,18.937-5.175A6.946,6.946,0,0,1-683.607-704.492Z" opacity="0.1"/>
      <path id="Path_155376" data-name="Path 155376" d="M-698.692-734.168s-4.916.855-6.056,1.644-3.429,2.288-3.375,5.45a30.558,30.558,0,0,1-.722,7.329c-.294.931,5,8.3,5,8.3l-1.656,11.35s7.4-.355,9.861-.167,11.018-4.038,11.018-4.038,5.036-2.786,6.113-2.878-2.257-5.893-2.257-5.893-5.161-9.386-4.345-10.941a21.044,21.044,0,0,0,1.4-3.8l-1.059-7.839a3.026,3.026,0,0,0-2.534.428c-1.142.865-5.076.473-5.076.473Z" fill="#5a5773"/>
      <path id="Path_155377" data-name="Path 155377" d="M-706.813-720.316l-1.915.572-.417,7.249s.726,1.911.043,2.541-.613,13.794-.613,13.794a5.031,5.031,0,0,0,4.858.3s-.41-1.457.655-6.789a42.315,42.315,0,0,0,1.018-8.028s-.112-6.621.409-7.709-.064-3.773-.064-3.773-1.1-1.445-1.034-1.983S-706.813-720.316-706.813-720.316Z" opacity="0.1"/>
      <path id="Path_155378" data-name="Path 155378" d="M-705.466-695.415a4.9,4.9,0,0,1-3.473-.069,10.124,10.124,0,0,1,.474-1.162l2.079-1.307S-705.952-696.87-705.466-695.415Z" opacity="0.1"/>
      <path id="Path_155379" data-name="Path 155379" d="M-706.928-720.314l-1.915.572-.415,7.249s.726,1.911.043,2.541-.614,13.794-.614,13.794a5.031,5.031,0,0,0,4.858.3s-.41-1.457.653-6.79a42.629,42.629,0,0,0,1.02-8.027s-.112-6.621.407-7.709-.064-3.773-.064-3.773-1.1-1.445-1.034-1.983S-706.928-720.314-706.928-720.314Z" fill="#5a5773"/>
      <path id="Path_155380" data-name="Path 155380" d="M-687.2-719.493s-.853,8.641-3.754,10.306C-690.95-709.19-684.436-711.149-687.2-719.493Z" opacity="0.1"/>
      <path id="Path_155381" data-name="Path 155381" d="M-701.889-718.477s3.648,1.71,2.825,2.952S-701.889-718.477-701.889-718.477Z" opacity="0.1"/>
      <path id="Path_155382" data-name="Path 155382" d="M-701.829-714.934s2.351,2.346,1.9,3.2S-701.829-714.934-701.829-714.934Z" opacity="0.1"/>
      <path id="Path_155383" data-name="Path 155383" d="M-683.525-735.042a8.193,8.193,0,0,1,1.036,2.524C-682.385-731.519-683.525-735.042-683.525-735.042Z" opacity="0.1"/>
      <path id="Path_155384" data-name="Path 155384" d="M-683.56-737.117s.448-.393,1.616-.028S-683.56-737.117-683.56-737.117Z" opacity="0.1"/>
      <path id="Path_155385" data-name="Path 155385" d="M-687.248-692.037a10.7,10.7,0,0,1-5.645-.625l-.928,2.5-.125-1.149c.141-.966.432-2.007,1.038-2.276A9.326,9.326,0,0,0-687.248-692.037Z" opacity="0.1"/>
      <path id="Path_155386" data-name="Path 155386" d="M-702.99-688.536s4.752.9,6.077.707Z" opacity="0.1"/>
      <path id="Path_155387" data-name="Path 155387" d="M-702.477-687.3a9.759,9.759,0,0,1,3.036.266Z" opacity="0.1"/>
      <path id="Path_155388" data-name="Path 155388" d="M-702.231-686.467a18.383,18.383,0,0,0,2.806.322Z" opacity="0.1"/>
      <path id="Path_155389" data-name="Path 155389" d="M-702.168-675.868c.086-.061,4.026-1.051,4.53-.4Z" opacity="0.1"/>
      <path id="Path_155390" data-name="Path 155390" d="M-702.147-674.655s3.429-.459,3.523-.06S-702.147-674.655-702.147-674.655Z" opacity="0.1"/>
      <path id="Path_155391" data-name="Path 155391" d="M-702.129-673.558a24.59,24.59,0,0,1,4.091-.649C-697.6-674.042-702.129-673.558-702.129-673.558Z" opacity="0.1"/>
      <path id="Path_155392" data-name="Path 155392" d="M-701.515-647.689l-4.109,2.929s.018-.335.051-.828a11.214,11.214,0,0,1,2.07-3.513,1.707,1.707,0,0,1,1.907.393C-701.574-648.091-701.515-647.689-701.515-647.689Z" opacity="0.1"/>
      <path id="Path_155393" data-name="Path 155393" d="M-701.066-645.126a10.3,10.3,0,0,0-.8,4.259,6.594,6.594,0,0,1-.822,3.438,3.205,3.205,0,0,1-.285.421s-2.889.027-3.914-.8a1.008,1.008,0,0,1-.274-.318c-.6-1.144,1.031-5.591,1.031-5.591a12.258,12.258,0,0,1,2.625-5.273C-700.277-649.877-701.066-645.126-701.066-645.126Z" fill="#5a5773"/>
      <path id="Path_155394" data-name="Path 155394" d="M-702.683-637.427a3.209,3.209,0,0,1-.285.421s-2.889.027-3.914-.8c.472-1.655,1.973-6.661,2.729-5.827C-703.441-642.846-702.89-639.026-702.683-637.427Z" opacity="0.1"/>
      <path id="Path_155395" data-name="Path 155395" d="M-703.183-643.336l-.073,7.463.968-.017s.046-6.545.464-7.469S-703.183-643.336-703.183-643.336Z" fill="#5a5773"/>
      <path id="Path_155396" data-name="Path 155396" d="M-691.122-642.926s-4.322-3.941-3.885-4.267a1.979,1.979,0,0,0,.322-.887c.813-.158,2.222.162,3.439,3.4C-691.2-643.761-691.122-642.926-691.122-642.926Z" opacity="0.1"/>
      <path id="Path_155397" data-name="Path 155397" d="M-690.412-638.461a.487.487,0,0,1-.1.029,29.838,29.838,0,0,1-3.37.058.741.741,0,0,1-.713-.715c0-.277-.01-.616-.038-.977-.068-1.138-.228-2.492-.642-2.79-.732-.543-1.336-2.417-.082-4.823,0,0,2.45-1.936,4.337,3.727a3.785,3.785,0,0,0,.991,2.184C-689.241-641.2-690.067-638.641-690.412-638.461Z" fill="#5a5773"/>
      <path id="Path_155398" data-name="Path 155398" d="M-690.509-638.433a29.839,29.839,0,0,1-3.37.058.741.741,0,0,1-.713-.715c0-.277-.01-.616-.038-.976.289-1.387.714-2.813,1.288-3.147C-693.35-643.213-691.6-643.44-690.509-638.433Z" opacity="0.1"/>
      <path id="Path_155399" data-name="Path 155399" d="M-694.973-643.352l.569,6.2.592-.01-.114-6.739Z" fill="#5a5773"/>
      <path id="Path_155400" data-name="Path 155400" d="M-695.36-751.171a10.63,10.63,0,0,0-4.712,1.6,1.96,1.96,0,0,0-.877.915,2.969,2.969,0,0,0-.054,1.111c.1,3.186-3.4,5.66-3.24,8.837.065,1.262.72,2.427.863,3.686.229,2.1-.981,4.052-2.142,5.812a4.793,4.793,0,0,0,3.356-1.176,25.607,25.607,0,0,1,.7,12.9l1.7-.029a1.328,1.328,0,0,1,.5.054,1.224,1.224,0,0,1,.4.288c1.619,1.558,2.726,3.883,2.155,6.057l3.6-1.421a10.7,10.7,0,0,0,2.479-1.237,3.623,3.623,0,0,0,1.509-2.246c.09-.556.046-1.218.5-1.547a2.8,2.8,0,0,1,.71-.279,3.122,3.122,0,0,0,1.6-2.563,14.629,14.629,0,0,0,.165-3.864c-.2-2.162-.874-4.348-.384-6.469a18.208,18.208,0,0,0,.953-3.531c.053-2.021-1.554-3.731-1.824-5.734-.188-1.4.293-2.818.105-4.214a4.525,4.525,0,0,0-2.439-3.393c-.449-.222-.931-.369-1.375-.613a24.556,24.556,0,0,1-2.6-2.31c-.925-.706-2.447-.952-3.117,0Z" opacity="0.1"/>
      <path id="Path_155401" data-name="Path 155401" d="M-695.364-751.411a10.621,10.621,0,0,0-4.712,1.612,1.955,1.955,0,0,0-.877.915,2.969,2.969,0,0,0-.054,1.111c.105,3.184-3.4,5.655-3.24,8.835.065,1.262.72,2.427.863,3.686.229,2.1-.981,4.052-2.142,5.812a4.792,4.792,0,0,0,3.356-1.176,25.607,25.607,0,0,1,.7,12.9l1.7-.029a1.325,1.325,0,0,1,.5.054,1.224,1.224,0,0,1,.4.288c1.619,1.558,2.726,3.883,2.155,6.057l3.6-1.421a10.7,10.7,0,0,0,2.479-1.237,3.623,3.623,0,0,0,1.509-2.246c.09-.556.046-1.218.5-1.547a2.757,2.757,0,0,1,.71-.277,3.125,3.125,0,0,0,1.6-2.564,14.632,14.632,0,0,0,.165-3.864c-.2-2.162-.874-4.348-.384-6.469a18.209,18.209,0,0,0,.953-3.531c.053-2.021-1.554-3.731-1.824-5.734-.188-1.4.293-2.818.1-4.214a4.527,4.527,0,0,0-2.438-3.393c-.45-.222-.932-.367-1.376-.613a24.557,24.557,0,0,1-2.6-2.31c-.925-.706-2.447-.952-3.117,0Z" fill="#4a4347"/>
      <g id="Group_167329" data-name="Group 167329" opacity="0.1">
        <path id="Path_155402" data-name="Path 155402" d="M-701.025-748.556a1.95,1.95,0,0,0-.007.216A1.42,1.42,0,0,0-701.025-748.556Z"/>
        <path id="Path_155403" data-name="Path 155403" d="M-687.449-741.378a19.6,19.6,0,0,0,.15-2.945A19.2,19.2,0,0,0-687.449-741.378Z"/>
        <path id="Path_155404" data-name="Path 155404" d="M-703.407-736.237c-.127-1.145-.68-2.208-.825-3.353a4.193,4.193,0,0,0-.018.634c.066,1.249.705,2.4.852,3.646A4.952,4.952,0,0,0-703.407-736.237Z"/>
        <path id="Path_155405" data-name="Path 155405" d="M-686.564-731.964a7.955,7.955,0,0,0-.146,2.3,7.085,7.085,0,0,1,.163-1.336,18.282,18.282,0,0,0,.953-3.531,3.817,3.817,0,0,0-.041-.65A27.821,27.821,0,0,1-686.564-731.964Z"/>
        <path id="Path_155406" data-name="Path 155406" d="M-702.192-731.6a4.782,4.782,0,0,1-2.711,1.156c-.206.333-.418.661-.629.98a4.789,4.789,0,0,0,3.356-1.176,25.532,25.532,0,0,1,1.194,6.9A25.591,25.591,0,0,0-702.192-731.6Z"/>
        <path id="Path_155407" data-name="Path 155407" d="M-686.346-721.64a3.125,3.125,0,0,1-1.6,2.564,2.847,2.847,0,0,0-.71.277c-.451.331-.408,1-.495,1.547a3.627,3.627,0,0,1-1.51,2.256,10.729,10.729,0,0,1-2.48,1.237l-3.436,1.354a4.663,4.663,0,0,1-.149,1.031l3.6-1.421a10.687,10.687,0,0,0,2.48-1.237,3.628,3.628,0,0,0,1.51-2.246c.091-.556.044-1.218.5-1.547a2.734,2.734,0,0,1,.709-.277,3.123,3.123,0,0,0,1.6-2.564,14.464,14.464,0,0,0,.206-3.278A14.477,14.477,0,0,1-686.346-721.64Z"/>
        <path id="Path_155408" data-name="Path 155408" d="M-698.9-718.394a1.224,1.224,0,0,0-.4-.288,1.327,1.327,0,0,0-.5-.054l-1.511.026c-.053.325-.111.647-.168.968l1.7-.029a1.326,1.326,0,0,1,.5.054,1.224,1.224,0,0,1,.4.288,7.309,7.309,0,0,1,2.273,4.293A6.852,6.852,0,0,0-698.9-718.394Z"/>
      </g>
      <path id="Path_155409" data-name="Path 155409" d="M-707.238-711.955s1.367-.6,1.683-.028S-707.238-711.955-707.238-711.955Z" opacity="0.1"/>
      <path id="Path_155410" data-name="Path 155410" d="M-706.744-710.973s1.366-.6,1.685-.028S-706.744-710.973-706.744-710.973Z" opacity="0.1"/>
      <path id="Path_155411" data-name="Path 155411" d="M-654.471-649.212s1.04,1.312-.411,3.337-2.647,3.746-2.135,4.988c0,0,2.178-3.765,4-3.847S-652.429-647.01-654.471-649.212Z" fill="#54cad4"/>
      <path id="Path_155412" data-name="Path 155412" d="M-654.469-649.212a1.627,1.627,0,0,1,.214.414c1.815,2.06,2.8,3.995,1.087,4.072-1.592.073-3.451,2.953-3.9,3.681a1.521,1.521,0,0,0,.057.164s2.178-3.765,4-3.847S-652.431-647.01-654.469-649.212Z" opacity="0.1"/>
      <path id="Path_155413" data-name="Path 155413" d="M-652.555-647.55c.008.468-.038.848-.1.849s-.123-.368-.131-.845.061-.249.126-.251S-652.563-648.018-652.555-647.55Z" fill="#ffd037"/>
      <path id="Path_155414" data-name="Path 155414" d="M-651.9-647c-.406.231-.763.372-.8.313s.271-.289.678-.52.249-.064.279-.005S-651.49-647.233-651.9-647Z" fill="#ffd037"/>
      <path id="Path_155415" data-name="Path 155415" d="M-659.839-649.121s-.992,1.347.527,3.321,2.771,3.654,2.3,4.913c0,0-2.3-3.689-4.133-3.709S-661.806-646.851-659.839-649.121Z" fill="#54cad4"/>
      <path id="Path_155416" data-name="Path 155416" d="M-659.839-649.121a1.7,1.7,0,0,0-.2.422c-1.743,2.12-2.657,4.087-.947,4.106,1.594.019,3.563,2.834,4.024,3.546a1.34,1.34,0,0,1-.052.166s-2.3-3.689-4.133-3.708S-661.806-646.851-659.839-649.121Z" opacity="0.1"/>
      <path id="Path_155417" data-name="Path 155417" d="M-661.7-647.4c.008.468.068.846.132.845s.11-.372.1-.849-.069-.247-.133-.246S-661.706-647.863-661.7-647.4Z" fill="#ffd037"/>
      <path id="Path_155418" data-name="Path 155418" d="M-662.337-646.825c.415.217.774.346.8.286s-.281-.28-.7-.5-.249-.055-.279.005S-662.751-647.042-662.337-646.825Z" fill="#ffd037"/>
      <path id="Path_155419" data-name="Path 155419" d="M-661.266-640.982s2.839-.138,3.688-.763,4.347-1.412,4.575-.448,4.352,4.789,1.146,4.87-7.462-.374-8.325-.878S-661.266-640.982-661.266-640.982Z" fill="#a8a8a8"/>
      <path id="Path_155420" data-name="Path 155420" d="M-651.807-637.652c-3.206.08-7.461-.373-8.325-.878-.656-.389-.941-1.8-1.042-2.458l-.094,0s.224,2.287,1.082,2.793,5.117.958,8.325.878c.925-.016,1.239-.358,1.214-.846C-650.769-637.859-651.119-637.67-651.807-637.652Z" opacity="0.2"/>
      <rect id="Rectangle_30410" data-name="Rectangle 30410" width="161.294" height="4.845" transform="translate(-820.299 -781.587) rotate(-0.974)" fill="#ecf8f9"/>
      <circle id="Ellipse_2226" data-name="Ellipse 2226" cx="1.026" cy="1.026" r="1.026" transform="translate(-818.048 -780.246)" fill="#fefefe"/>
      <circle id="Ellipse_2227" data-name="Ellipse 2227" cx="1.026" cy="1.026" r="1.026" transform="translate(-814.904 -780.3)" fill="#fefefe"/>
      <circle id="Ellipse_2228" data-name="Ellipse 2228" cx="1.026" cy="1.026" r="1.026" transform="translate(-811.76 -780.353)" fill="#fefefe"/>
      <path id="Path_155421" data-name="Path 155421" d="M-754.931-641.7s-7.828-.339-6.815,5.124a1.334,1.334,0,0,0,.724,1.4s.008-.408.795-.282a3.659,3.659,0,0,0,.85.027,1.783,1.783,0,0,0,1.031-.447h0s2.185-.945,2.976-4.552c0,0,.619-.795.59-1l-1.309.577a2.362,2.362,0,0,1,.129,1.74s-.072-1.708-.328-1.658c-.052.009-.68.34-.68.34a3.885,3.885,0,0,1,.233,2.862s.187-2.048-.479-2.738l-.916.558a4.115,4.115,0,0,1,.345,3.106s.12-2.146-.539-2.97l-.83.672a4.008,4.008,0,0,1,.382,2.84s-.111-2.494-.56-2.675a4.8,4.8,0,0,0-.833.939s.6,1.214.253,1.868c0,0-.25-1.66-.433-1.657a5.411,5.411,0,0,0-.778,1.863,4,4,0,0,1,.6-1.971,2.2,2.2,0,0,0-1.113.6s.1-.781,1.286-.869a5.222,5.222,0,0,1,.753-.9,4.83,4.83,0,0,0-1.9.253,2.126,2.126,0,0,1,2.113-.437l.818-.693a6.885,6.885,0,0,0-2.219.06,2.7,2.7,0,0,1,2.44-.217l.891-.558a8.345,8.345,0,0,0-2.122-.149,3.258,3.258,0,0,1,2.387,0l.64-.3s-.976-.169-1.262-.2-.3-.1-.3-.1a3.374,3.374,0,0,1,1.831.169A8.234,8.234,0,0,0-754.931-641.7Z" fill="#54cad4"/>
      <ellipse id="Ellipse_2229" data-name="Ellipse 2229" cx="5.535" cy="0.936" rx="5.535" ry="0.936" transform="translate(-765.75 -635.566) rotate(-0.974)" fill="#b8e4e8"/>
      <path id="Path_155422" data-name="Path 155422" d="M-768.625-641.183s-4.413-.191-3.836,2.888a.755.755,0,0,0,.406.787s0-.227.448-.158a2.084,2.084,0,0,0,.48.014,1,1,0,0,0,.582-.252h0a3.491,3.491,0,0,0,1.676-2.566s.35-.448.333-.56l-.735.33a1.329,1.329,0,0,1,.072.981s-.04-.961-.184-.937c-.028,0-.384.192-.384.192a2.195,2.195,0,0,1,.135,1.613s.106-1.152-.27-1.542l-.518.314a2.3,2.3,0,0,1,.194,1.75,3.287,3.287,0,0,0-.3-1.672l-.469.378a2.249,2.249,0,0,1,.213,1.6s-.061-1.407-.315-1.51a2.833,2.833,0,0,0-.47.526s.34.684.142,1.052c0,0-.14-.934-.243-.937a3.136,3.136,0,0,0-.44,1.054,2.273,2.273,0,0,1,.338-1.116,1.25,1.25,0,0,0-.627.338s.056-.439.732-.49a2.91,2.91,0,0,1,.426-.507,2.738,2.738,0,0,0-1.07.142,1.2,1.2,0,0,1,1.191-.246l.461-.391a3.87,3.87,0,0,0-1.252.034,1.51,1.51,0,0,1,1.377-.123l.5-.314a4.613,4.613,0,0,0-1.2-.079,1.827,1.827,0,0,1,1.345,0l.367-.172s-.556-.1-.712-.112-.169-.058-.169-.058a1.9,1.9,0,0,1,1.032.1A4.489,4.489,0,0,0-768.625-641.183Z" fill="#54cad4"/>
      <ellipse id="Ellipse_2230" data-name="Ellipse 2230" cx="3.12" cy="0.527" rx="3.12" ry="0.527" transform="translate(-774.726 -637.72) rotate(-0.974)" fill="#b8e4e8"/>
      <path id="Path_155423" data-name="Path 155423" d="M-760.346-647.875s-5.328-.232-4.636,3.488a.909.909,0,0,0,.488.95s0-.277.543-.194a2.449,2.449,0,0,0,.58.018,1.194,1.194,0,0,0,.7-.3h0a4.225,4.225,0,0,0,2.027-3.1s.422-.54.4-.678l-.893.4a1.608,1.608,0,0,1,.085,1.184s-.05-1.16-.219-1.133c-.035,0-.463.234-.463.234a2.665,2.665,0,0,1,.163,1.947s.128-1.393-.326-1.863l-.627.381a2.8,2.8,0,0,1,.236,2.115,4.016,4.016,0,0,0-.365-2.029l-.566.458a2.721,2.721,0,0,1,.259,1.934s-.075-1.7-.381-1.821a3.474,3.474,0,0,0-.566.633s.414.827.171,1.271c0,0-.171-1.129-.3-1.132a3.887,3.887,0,0,0-.534,1.272,2.729,2.729,0,0,1,.409-1.342,1.5,1.5,0,0,0-.757.413s.068-.532.878-.592a3.352,3.352,0,0,1,.513-.609,3.281,3.281,0,0,0-1.293.17,1.449,1.449,0,0,1,1.436-.3l.559-.472a4.7,4.7,0,0,0-1.511.041,1.838,1.838,0,0,1,1.662-.147l.61-.38a6.109,6.109,0,0,0-1.447-.1,2.214,2.214,0,0,1,1.625,0l.436-.208s-.664-.118-.858-.135-.2-.071-.2-.071a2.288,2.288,0,0,1,1.247.116A5.72,5.72,0,0,0-760.346-647.875Z" fill="#54cad4"/>
      <ellipse id="Ellipse_2231" data-name="Ellipse 2231" cx="3.768" cy="0.636" rx="3.768" ry="0.636" transform="translate(-767.709 -643.694) rotate(-0.974)" fill="#b8e4e8"/>
      <ellipse id="Ellipse_2232" data-name="Ellipse 2232" cx="5.535" cy="0.936" rx="5.535" ry="0.936" transform="translate(-730.649 -644.361) rotate(-0.974)" fill="#b8e4e8"/>
      <path id="Path_155424" data-name="Path 155424" d="M-728.891-647.8s3.156-.154,4.1-.843,4.83-1.562,5.085-.487,4.836,5.32,1.273,5.414-8.292-.414-9.251-.977S-728.891-647.8-728.891-647.8Z" fill="#a8a8a8"/>
      <path id="Path_155425" data-name="Path 155425" d="M-718.377-644.1c-3.563.091-8.289-.414-9.25-.977-.73-.427-1.044-2-1.157-2.731l-.1,0s.244,2.544,1.2,3.106,5.687,1.065,9.251.977c1.028-.026,1.376-.393,1.349-.948C-717.227-644.332-717.616-644.121-718.377-644.1Z" opacity="0.2"/>
    </g>
  </g>
</svg>
