<svg xmlns="http://www.w3.org/2000/svg" width="262" height="196" viewBox="0 0 262 196">
  <g id="card-17" transform="translate(610.218 381.797)">
    <rect id="Rectangle_8569-7" data-name="Rectangle 8569-7" width="262" height="196" transform="translate(-610.218 -381.797)" fill="#f6afc7"/>
    <g id="undraw_content_vbqo" data-name="undraw content vbqo">
      <ellipse id="Ellipse_2431" data-name="Ellipse 2431" cx="17.515" cy="4.327" rx="17.515" ry="4.327" transform="translate(-417.618 -217.183)" fill="#f5a6c1"/>
      <ellipse id="Ellipse_2432" data-name="Ellipse 2432" cx="17.515" cy="4.327" rx="17.515" ry="4.327" transform="translate(-572.232 -216.462)" fill="#f5a6c1"/>
      <path id="Path_157337" data-name="Path 157337" d="M-459.416-318.042s-2.462-1-10.289,2.593-8.811,3.134-10.833,2.584-3.149-.679-5.33-3.674c0,0-1.532-8.307-3.015-9.6s-7.786.733-7.786.733-7.556,1.734-9-8.365c0,0,1.022-7.612-.369-9.948,0,0,2.8,1.212,7.443-.744s8.344,2.1,8.344,2.1a15.272,15.272,0,0,1,1.05,4.831c-.119,1.8.618,2.481,2.829,1.61,0,0,1.085-1.545-.453-4.1s-2.635-4.456-2.2-6.438a8.006,8.006,0,0,1,5.627-6.106c3.965-1.382,9.35-1.641,11.936-2.717a9.873,9.873,0,0,0,3.21-1.776s-1.594,1.6,2.159,8.354,1.359,9.689,1.359,9.689-1.995,4.752-10.795,4.374c0,0-8.48.31-3.849,3.907,0,0,2.962-.6,7.388-2.01s7.623,4.4,8.416,8.442A10.587,10.587,0,0,0-459.416-318.042Z" fill="#f06292"/>
      <path id="Path_157338" data-name="Path 157338" d="M-470.818-351.924l.047-.012c.338,1.289-3.453,6.473-6.69,10.59l-.039-.03C-472.928-347.186-470.555-350.932-470.818-351.924Z" fill="#444053"/>
      <path id="Path_157339" data-name="Path 157339" d="M-477.433-341.461l.019.052c-2.588,3.291-5.842,7.217-8.447,10.125-.248.278-.5.569-.733.866l-.073-.061c.238-.3.487-.59.735-.875C-483.329-334.253-480.019-338.172-477.433-341.461Z" fill="#444053"/>
      <path id="Path_157340" data-name="Path 157340" d="M-486.6-330.556l.051.087c-4.741,5.919-5.055,15.109-5.074,15.19l-1-1.155C-492.607-316.514-491.378-324.6-486.6-330.556Z" fill="#444053"/>
      <path id="Path_157341" data-name="Path 157341" d="M-464.916-321.252s-5.6-2.906-9.946-1.863-14.172-3.685-14.172-3.685-4.166-1.694-5-3.622c0,0-2.857-3.02-3.02-4.584s-2.945-5.494-4.759-5.646" fill="none" stroke="#444053" stroke-miterlimit="10" stroke-width="1"/>
      <path id="Path_157342" data-name="Path 157342" d="M-465.723-318.454s-2.82-1.9-2.488-4.106" fill="none" stroke="#444053" stroke-miterlimit="10" stroke-width="1"/>
      <path id="Path_157343" data-name="Path 157343" d="M-470.044-316s-4.024-1.463-4.43-7.193" fill="none" stroke="#444053" stroke-miterlimit="10" stroke-width="1"/>
      <path id="Path_157344" data-name="Path 157344" d="M-476.54-314.519a9,9,0,0,1-2.57-8.771" fill="none" stroke="#444053" stroke-miterlimit="10" stroke-width="1"/>
      <path id="Path_157345" data-name="Path 157345" d="M-484.347-316.078s-2.563-5.373-.283-8.869" fill="none" stroke="#444053" stroke-miterlimit="10" stroke-width="1"/>
      <path id="Path_157346" data-name="Path 157346" d="M-464.85-324.793s-2.913.924-2.288,2.449" fill="none" stroke="#444053" stroke-miterlimit="10" stroke-width="1"/>
      <path id="Path_157347" data-name="Path 157347" d="M-468.369-330.078s-3.9,1.237-3.99,6.748" fill="none" stroke="#444053" stroke-miterlimit="10" stroke-width="1"/>
      <path id="Path_157348" data-name="Path 157348" d="M-473.794-331.35s-3.545,4.374-3.284,8.354" fill="none" stroke="#444053" stroke-miterlimit="10" stroke-width="1"/>
      <path id="Path_157349" data-name="Path 157349" d="M-480.008-329.634s-3.521,3.366-3.072,5.24" fill="none" stroke="#444053" stroke-miterlimit="10" stroke-width="1"/>
      <path id="Path_157350" data-name="Path 157350" d="M-482.131-330.823s-3.3.593-3.765-.492" fill="none" stroke="#444053" stroke-miterlimit="10" stroke-width="1"/>
      <path id="Path_157351" data-name="Path 157351" d="M-486.424-334.811s1.67,2.21,2.1,1.715" fill="none" stroke="#444053" stroke-miterlimit="10" stroke-width="1"/>
      <path id="Path_157352" data-name="Path 157352" d="M-469.881-336.209s-8.325.6-10.211-1.9" fill="none" stroke="#444053" stroke-miterlimit="10" stroke-width="1"/>
      <path id="Path_157353" data-name="Path 157353" d="M-488.175-345.947s3.907,8.386,6.743,9.448" fill="none" stroke="#444053" stroke-miterlimit="10" stroke-width="1"/>
      <path id="Path_157354" data-name="Path 157354" d="M-484.077-349.941s2.4,7.714,5.373,10.121" fill="none" stroke="#444053" stroke-miterlimit="10" stroke-width="1"/>
      <path id="Path_157355" data-name="Path 157355" d="M-466.38-342.574s-6.332,2.717-10.134-.031" fill="none" stroke="#444053" stroke-miterlimit="10" stroke-width="0.75"/>
      <path id="Path_157356" data-name="Path 157356" d="M-478.436-351.586s1.447,5.67,3.4,7.04" fill="none" stroke="#444053" stroke-miterlimit="10" stroke-width="0.75"/>
      <path id="Path_157357" data-name="Path 157357" d="M-467.333-348.925s-3.557,1.347-4.887.315" fill="none" stroke="#444053" stroke-miterlimit="10" stroke-width="0.75"/>
      <path id="Path_157358" data-name="Path 157358" d="M-489.472-332.958s0,4.943-1.345,5.294" fill="none" stroke="#444053" stroke-miterlimit="10" stroke-width="1"/>
      <path id="Path_157359" data-name="Path 157359" d="M-500.471-326.554s5.343.458,7.808-2.3" fill="none" stroke="#444053" stroke-miterlimit="10" stroke-width="1"/>
      <path id="Path_157360" data-name="Path 157360" d="M-490.849-338.8s-1.293,5.013-4.86,6.363" fill="none" stroke="#444053" stroke-miterlimit="10" stroke-width="1"/>
      <path id="Path_157361" data-name="Path 157361" d="M-503.675-331.835a6.991,6.991,0,0,0,7.035-2.033" fill="none" stroke="#444053" stroke-miterlimit="10" stroke-width="1"/>
      <path id="Path_157362" data-name="Path 157362" d="M-495.055-343.106s-.35,4.257-2.672,6.25" fill="none" stroke="#444053" stroke-miterlimit="10" stroke-width="1"/>
      <path id="Path_157363" data-name="Path 157363" d="M-503.536-338.322s3.14.023,3.874-1" fill="none" stroke="#444053" stroke-miterlimit="10" stroke-width="1"/>
      <path id="Path_157364" data-name="Path 157364" d="M-475.648-334.734c-12.491,2.084-25,.962-37.046-.591s-24.062-3.535-36.582-3.149c-8.048.252-17,1.834-22.57,6.687-5.357,4.67-6.124,11.054-6.073,16.828.038,4.342.446,8.841,3.387,12.333,2.042,2.423,5.163,4.183,7.523,6.424,8.223,7.8,5.891,19.882.684,30.114-2.449,4.8-5.443,9.512-7.086,14.434s-1.806,10.223,1.288,14.3c3.069,4.04,8.939,6.367,15.046,7.614,12.4,2.532,26.169,1.225,39.483-.593,29.47-4.043,58.611-10.583,87.668-17.111,10.756-2.414,21.558-4.843,31.9-8.4,5.746-1.97,11.591-4.449,15.27-8.37,4.67-4.978,4.713-11.848.1-16.016-7.741-7-25.056-5.683-31.073-13.647-3.314-4.374-1.965-10.256.567-15.426,5.424-11.092,16.052-21.984,14.522-33.13-1.05-7.656-8.465-14.067-18.315-15.839-10.323-1.856-23.517,1.244-29.355,8.856C-452.316-341.56-464.619-336.571-475.648-334.734Z" fill="#ffccde"/>
      <rect id="Rectangle_30635" data-name="Rectangle 30635" width="165.759" height="92.548" rx="12.49" transform="translate(-565.606 -331.196)" fill="#f8f8f9"/>
      <path id="Path_157365" data-name="Path 157365" d="M-400.688-332.258H-564.771a.842.842,0,0,0-.842.842v3.559h165.759v-3.551a.841.841,0,0,0-.833-.85Z" fill="#5a5773"/>
      <g id="buttons">
        <circle id="Ellipse_2433" data-name="Ellipse 2433" cx="1.137" cy="1.137" r="1.137" transform="translate(-563.432 -331.196)" fill="#fff"/>
        <circle id="Ellipse_2434" data-name="Ellipse 2434" cx="1.137" cy="1.137" r="1.137" transform="translate(-560.37 -331.196)" fill="#fff"/>
        <circle id="Ellipse_2435" data-name="Ellipse 2435" cx="1.137" cy="1.137" r="1.137" transform="translate(-557.309 -331.196)" fill="#fff"/>
      </g>
      <rect id="Rectangle_30637" data-name="Rectangle 30637" width="138.217" height="68.72" rx="10.19" transform="translate(-554.51 -312.37)" fill="#fff"/>
      <rect id="Rectangle_30638" data-name="Rectangle 30638" width="39.758" height="4.173" rx="2.086" transform="translate(-560.37 -323.188)" fill="#d9d8de"/>
      <path id="Union_150" data-name="Union 150" d="M-544.93-246.9a2.085,2.085,0,0,1-2.086-2.086h0a2.085,2.085,0,0,1,2.086-2.086h119.524a2.087,2.087,0,0,1,2.086,2.086,2.087,2.087,0,0,1-2.086,2.087H-544.93Zm0-6.824a2.085,2.085,0,0,1-2.086-2.086,2.085,2.085,0,0,1,2.086-2.086h119.524a2.087,2.087,0,0,1,2.086,2.086,2.087,2.087,0,0,1-2.086,2.086Zm0-6.823a2.086,2.086,0,0,1-2.086-2.088,2.086,2.086,0,0,1,2.085-2.087h119.525a2.087,2.087,0,0,1,2.09,2.082v.005a2.087,2.087,0,0,1-2.086,2.086Zm6.414-7.4a8.5,8.5,0,0,1-8.5-8.5V-298.2a8.5,8.5,0,0,1,8.5-8.5h35.838a8.5,8.5,0,0,1,8.5,8.5v21.76a8.5,8.5,0,0,1-8.5,8.5Zm55.2-.118a2.087,2.087,0,0,1-2.086-2.087,2.085,2.085,0,0,1,2.086-2.085h57.909a2.087,2.087,0,0,1,2.086,2.085,2.088,2.088,0,0,1-2.086,2.087Zm0-6.824a2.086,2.086,0,0,1-2.086-2.086h0a2.086,2.086,0,0,1,2.086-2.085h57.909a2.087,2.087,0,0,1,2.086,2.085,2.086,2.086,0,0,1-2.086,2.087h-57.909Zm0-6.825A2.085,2.085,0,0,1-485.4-283.8a2.087,2.087,0,0,1,2.086-2.087h57.909a2.088,2.088,0,0,1,2.086,2.087,2.087,2.087,0,0,1-2.086,2.085Zm0-6.823a2.087,2.087,0,0,1-2.086-2.086,2.087,2.087,0,0,1,2.086-2.087h57.909a2.088,2.088,0,0,1,2.086,2.087,2.088,2.088,0,0,1-2.086,2.086Zm0-11.684A2.086,2.086,0,0,1-485.4-302.3a2.085,2.085,0,0,1,2.085-2.087h35.587a2.086,2.086,0,0,1,2.086,2.086h0a2.087,2.087,0,0,1-2.086,2.086Z" fill="#fbdfe8"/>
      <path id="Path_157366" data-name="Path 157366" d="M-451.621-243.311s1.037,1.356-.479,3.4-2.766,3.777-2.26,5.055c0,0,2.287-3.8,4.15-3.849S-449.572-241.024-451.621-243.311Z" fill="#f06292"/>
      <path id="Path_157367" data-name="Path 157367" d="M-451.62-243.311a1.725,1.725,0,0,1,.212.425c1.818,2.135,2.784,4.127,1.039,4.176-1.628.047-3.581,2.957-4.047,3.69a1.184,1.184,0,0,0,.056.175s2.287-3.8,4.15-3.849S-449.572-241.024-451.62-243.311Z" opacity="0.1"/>
      <path id="Path_157368" data-name="Path 157368" d="M-449.693-241.582c0,.478-.052.864-.119.864s-.119-.387-.119-.864.067-.252.133-.252S-449.693-242.063-449.693-241.582Z" fill="#ffd037"/>
      <path id="Path_157369" data-name="Path 157369" d="M-449.028-241.012c-.42.227-.786.366-.818.308s.284-.29.7-.525.254-.063.284,0S-448.611-241.241-449.028-241.012Z" fill="#ffd037"/>
      <path id="Path_157370" data-name="Path 157370" d="M-457.1-243.311s-1.037,1.356.478,3.4,2.768,3.777,2.262,5.055c0,0-2.288-3.8-4.15-3.849S-459.148-241.024-457.1-243.311Z" fill="#f06292"/>
      <path id="Path_157371" data-name="Path 157371" d="M-457.1-243.311a1.629,1.629,0,0,0-.213.425c-1.816,2.135-2.784,4.127-1.037,4.176,1.627.047,3.578,2.957,4.045,3.69a1.317,1.317,0,0,1-.055.175s-2.288-3.8-4.15-3.849S-459.148-241.024-457.1-243.311Z" opacity="0.1"/>
      <path id="Path_157372" data-name="Path 157372" d="M-459.03-241.583c0,.478.054.864.121.864s.119-.387.119-.864-.067-.248-.131-.248S-459.03-242.06-459.03-241.583Z" fill="#ffd037"/>
      <path id="Path_157373" data-name="Path 157373" d="M-459.694-241.012c.419.227.786.366.817.308s-.284-.29-.7-.525-.255-.063-.285,0S-460.112-241.241-459.694-241.012Z" fill="#ffd037"/>
      <ellipse id="Ellipse_2436" data-name="Ellipse 2436" cx="10.847" cy="1.664" rx="10.847" ry="1.664" transform="translate(-465.208 -227.803)" fill="#f5a6c1"/>
      <path id="Path_157374" data-name="Path 157374" d="M-448.774-236.68l-.052.423-.072.6-.031.25-.072.6-.031.25-.073.6-.831,6.8c-.075.607-1.067,1.081-2.274,1.081h-4.307c-1.2,0-2.189-.474-2.262-1.081l-.833-6.8-.072-.6-.031-.25-.073-.6-.03-.25-.073-.6-.052-.423c-.04-.349.5-.632,1.174-.632h8.821C-449.272-237.314-448.735-237.025-448.774-236.68Z" fill="#65617d"/>
      <path id="Path_157375" data-name="Path 157375" d="M-448.83-236.257l-.072.6h-10.917l-.073-.6Z" fill="#9d9cb5"/>
      <path id="Path_157376" data-name="Path 157376" d="M-448.934-235.41l-.072.6h-10.711l-.073-.6Z" fill="#9d9cb5"/>
      <path id="Path_157377" data-name="Path 157377" d="M-449.037-234.561l-.073.6h-10.5l-.072-.6Z" fill="#9d9cb5"/>
      <path id="Path_157379" data-name="Path 157379" d="M-412.968-257.261s.6-3.149,2.526-3.149l1.409,2.9-.94.647A8.858,8.858,0,0,1-412.968-257.261Z" fill="#65617d"/>
      <path id="Path_157380" data-name="Path 157380" d="M-409.032-257.519l-.94.647a11.124,11.124,0,0,1-2.463-.206,2.8,2.8,0,0,1-.534-.175l.01-.051v-.01a7.1,7.1,0,0,1,.364-1.155c.06-.142.126-.287.2-.432a2.937,2.937,0,0,1,1.225-1.338,1.675,1.675,0,0,1,.642-.175h.086l.031.065.477.98Z" opacity="0.1"/>
      <path id="Path_157381" data-name="Path 157381" d="M-393.03-244.465a10.775,10.775,0,0,1,2.2-.047c.178.147,1.328.891,2.007.42s.228-2.1.228-2.169-.065-2.381-.065-2.381l-1.213-1.636-1.522-2.866-3.111-.308.08,4.549-.016,2.332Z" fill="#65617d"/>
      <path id="Path_157382" data-name="Path 157382" d="M-393.03-244.465a10.775,10.775,0,0,1,2.2-.047c.178.147,1.328.891,2.007.42s.228-2.1.228-2.169-.065-2.381-.065-2.381l-1.213-1.636-1.522-2.866-3.111-.308.08,4.549-.016,2.332Z" fill="#5b5770"/>
      <path id="Path_157383" data-name="Path 157383" d="M-410.846-260.5s-.164,1.975-1.4,2.008c0,0-.349-.21-.818-.562-1.081-.81-2.8-2.365-2.323-3.812.681-2.073,3.984,1.75,3.984,1.75l.255.285Z" fill="#fbbebe"/>
      <path id="Path_157384" data-name="Path 157384" d="M-410.847-260.5s-.163,1.975-1.4,2.008c0,0-.35-.21-.819-.562l-.1-.135a1.606,1.606,0,0,0,.675.175.911.911,0,0,0,.875-.555,6.815,6.815,0,0,0,.35-.786,2.382,2.382,0,0,0,.124-.485Z" opacity="0.1"/>
      <path id="Path_157385" data-name="Path 157385" d="M-411.382-256.92l-.276-.35-.932-1.2-.474-.614a1.606,1.606,0,0,0,.674.175.9.9,0,0,0,.875-.555,6.8,6.8,0,0,0,.341-.784c.154-.437.151-.661.1-.738a4.249,4.249,0,0,1,.535.476h0l.089.084.033.066.488.945a.135.135,0,0,1,0,.04C-409.9-259.077-409.741-257.189-411.382-256.92Z" fill="#e7effd"/>
      <path id="Path_157386" data-name="Path 157386" d="M-401.679-215.237s-1.361.892-2.042.761a2.46,2.46,0,0,0-1.377.227,4.073,4.073,0,0,1-1.716,1.118,6.283,6.283,0,0,1-3.515-.065c-.413-.138-.446-.317-.247-.535a7.515,7.515,0,0,1,1.316-.891,12.667,12.667,0,0,0,2.316-1.975.7.7,0,0,1,.21-.471,2.306,2.306,0,0,0,.327-.35c.175-.2.338-.42.338-.42l4.008.15s.068.289.122.584a2.12,2.12,0,0,1,.057.583.521.521,0,0,0,.114.4l.072.661Z" fill="#65617d"/>
      <path id="Path_157387" data-name="Path 157387" d="M-393.313-214.114c-.047.194-.107.541-.133.7a.266.266,0,0,1-.012.089s-.324.712-2.122.971-1.8-.6-1.8-.6l.018-.233c.031-.378.1-1.1.143-1.258a5.739,5.739,0,0,0-.047-1.134l-.019-.966-.014-.67,2.974-.307a5.968,5.968,0,0,0,.1.663.857.857,0,0,0,.131.35,2.974,2.974,0,0,1,.259.971A4.9,4.9,0,0,1-393.313-214.114Z" fill="#65617d"/>
      <path id="Path_157388" data-name="Path 157388" d="M-402.059-217.687s.068.289.122.584a8.454,8.454,0,0,1-2.8.175,7.464,7.464,0,0,0-1.685-.4l.019-.066c.175-.2.338-.42.338-.42Z" fill="#5b5770"/>
      <path id="Path_157389" data-name="Path 157389" d="M-394.214-216.852a11.47,11.47,0,0,0-3.062.315l-.015-.67,2.974-.308A5.676,5.676,0,0,0-394.214-216.852Z" fill="#5b5770"/>
      <path id="Path_157390" data-name="Path 157390" d="M-392.531-241.4l-.063,2.274a24.157,24.157,0,0,1-.163,4.024,13,13,0,0,0-.243,2.77s.163,1.05-.016,1.279-.048,1.069.08,1.506a5.874,5.874,0,0,1,.016,1.522l-.031,6.124a6.458,6.458,0,0,1-.406,1.814.535.535,0,0,0-.13.525,5.509,5.509,0,0,0-.145,1.069.537.537,0,0,1-.226.712c-.371.178-.276.745-.276.745a12.682,12.682,0,0,0-3.417.35,15.676,15.676,0,0,1-.714-1.734.9.9,0,0,1,.542-1.151.819.819,0,0,1,.107-.032c.339-.047-.243-.647-.243-.647s.065-.08-.1-.665a9.318,9.318,0,0,1,.082-2.462c.049-.388.29-2.274.29-2.274a20.677,20.677,0,0,1-.031-2.477,2.155,2.155,0,0,0,.259-1.344,16.243,16.243,0,0,1-.422-2.449c0-.117-.21-2.738-.21-2.738a21.9,21.9,0,0,1-.145-2.218,14.193,14.193,0,0,0-.131-1.83,6.215,6.215,0,0,0-.7-2.495l-.018.047-1.5,3.982s-.243,1.2-.453,1.879a12.7,12.7,0,0,0-.317,1.4l-.014.087-.014.091-.01.065h0a2.586,2.586,0,0,1-.066,1.134,4.08,4.08,0,0,0-.371,1.328c0,.227.016,1.1.016,1.1a7.4,7.4,0,0,1-.114,1.925.3.3,0,0,0-.08.35,5.574,5.574,0,0,1,.161,1.652,3.428,3.428,0,0,0-.031,1.134s-.259,2.511-.292,2.64-.21,1.134-.016,1.214a2.584,2.584,0,0,1,.567.567s.081,2.122-.21,2.283-.131.989-.131.989a9.3,9.3,0,0,1-2.882.194,7.387,7.387,0,0,0-1.685-.4l.161-.525c-.01.019-.117.192-.192-.471-.082-.7.6-.35.6-.35s.535.129-.324-.712a1.36,1.36,0,0,1-.388-1.7,10.654,10.654,0,0,0,.161-1.247,4.11,4.11,0,0,0,.033-1.328c-.114-.583-.21-2.4-.21-2.4a8.685,8.685,0,0,0-.066-1.879,3.981,3.981,0,0,1,.147-1.62c.049-.22-.147-2.138-.147-2.138a5.937,5.937,0,0,0,.066-1.575,26.7,26.7,0,0,1,.1-3.111l.292-2.817a5.754,5.754,0,0,0,.175-1.225,9.833,9.833,0,0,1,.243-1.6,1.776,1.776,0,0,1,.129-.779,5.983,5.983,0,0,0,.227-1.4l1.555-3.562.761-3.149,10.284-.1s.037.273.1.768.15,1.225.248,2.133c.089.822.187,1.79.283,2.866C-391.884-242.02-392.531-241.4-392.531-241.4Z" fill="#3f3d56"/>
      <path id="Path_157391" data-name="Path 157391" d="M-393.486-269.763l-2.4,2.563s-3.076-1.225-2.751-1.653a2.4,2.4,0,0,0,.032-1.244c-.114-.9-.349-1.925-.349-1.925s5.375-.875,4.922.031a1.486,1.486,0,0,0-.033,1.076A4.039,4.039,0,0,0-393.486-269.763Z" fill="#fbbebe"/>
      <path id="Path_157392" data-name="Path 157392" d="M-394.035-272c-.165.332-.243.364-.14.721a3.97,3.97,0,0,1-2.71,1.575,3.82,3.82,0,0,1-1.715-.4c-.114-.9-.35-1.925-.35-1.925S-393.581-272.9-394.035-272Z" fill="#e2abab"/>
      <path id="Path_157393" data-name="Path 157393" d="M-393.03-273.65a3.856,3.856,0,0,1-3.868,3.843,3.854,3.854,0,0,1-3.842-3.843v-.056a3.853,3.853,0,0,1,3.882-3.826,3.855,3.855,0,0,1,3.827,3.882Z" fill="#fbbebe"/>
      <path id="Path_157394" data-name="Path 157394" d="M-392.473-248.221c-.511,0-2.211.018-4.11.049h-.023l-.628.01h-.02c-2.254.035-4.474-.4-5.365-.322-1.9.175.681-1.75.681-1.75a15.873,15.873,0,0,0,4.316.436l.546-.028a23.826,23.826,0,0,0,4.356-.525C-392.658-249.853-392.571-249.125-392.473-248.221Z" opacity="0.1"/>
      <path id="Path_157395" data-name="Path 157395" d="M-392.473-248.318c-.511,0-2.211.019-4.11.049h-.023l-.628.01h-.02c-2.254.037-4.474-.4-5.365-.32-1.9.175.681-1.75.681-1.75a15.791,15.791,0,0,0,4.316.436l.546-.028a23.651,23.651,0,0,0,4.356-.525C-392.658-249.951-392.571-249.223-392.473-248.318Z" fill="#5f5d7e"/>
      <path id="Path_157396" data-name="Path 157396" d="M-397.922-268.694l-2.974,1.4-2.3,17.783s1.361-.616,2.138-.227,3.174.033,3.174.033a7.351,7.351,0,0,1,2.009.1c.259.2,3.3-.81,3.3-.81s.551-1.225.129-1.426.13-2.1.13-2.1l-.259-12.828-.525-1.652-1.4-.843-1.424,1.134-.681.1Z" opacity="0.1"/>
      <path id="Path_157397" data-name="Path 157397" d="M-397.923-268.889l-2.974,1.4L-403.2-249.7s1.361-.616,2.138-.227,3.174.033,3.174.033a7.436,7.436,0,0,1,2.009.1c.259.194,3.3-.808,3.3-.808s.551-1.225.129-1.426.13-2.1.13-2.1l-.259-12.828-.525-1.652-1.4-.843-1.424,1.134-.681.1Z" fill="#e7effd"/>
      <path id="Path_157398" data-name="Path 157398" d="M-397.972-268.062s.859,1.02.843,1.225-.048.714-.048.714l-.647,1.31s-.35,1.636-.35,1.977-.567,3.287-.567,3.287l-.7,4.54-.859,5.949.875,1.506,1.037-.875,1.377-10.592.291-2.089s.308-3.758.308-4.146a13.333,13.333,0,0,0-.176-1.408,1.664,1.664,0,0,1,1.087-1.2c.875-.226-.066-.049-.066-.049l-.5-.4-.437.175S-397.713-268.515-397.972-268.062Z" fill="#d0d7e3"/>
      <path id="Path_157399" data-name="Path 157399" d="M-398.068-268.161s.858,1.02.842,1.225-.048.712-.048.712l-.647,1.312s-.35,1.636-.35,1.975-.567,3.287-.567,3.287l-.679,4.535-.859,5.949.875,1.506,1.036-.875,1.377-10.592.292-2.089s.308-3.758.308-4.147a13.638,13.638,0,0,0-.175-1.41,1.658,1.658,0,0,1,1.084-1.2c.875-.227-.064-.047-.064-.047l-.5-.406-.437.175S-397.809-268.614-398.068-268.161Z" fill="#f06292"/>
      <path id="Path_157400" data-name="Path 157400" d="M-398.634-269.861s-.13.1-.163.745a13,13,0,0,1-.486,2.1s1.685-1.165,2.526-1.036Z" fill="#d0d7e3"/>
      <path id="Path_157401" data-name="Path 157401" d="M-398.634-270.055s-.13.1-.163.745a13,13,0,0,1-.486,2.1s1.685-1.165,2.526-1.036Z" fill="#e7effd"/>
      <path id="Path_157402" data-name="Path 157402" d="M-394.035-270.379l-2.656,2.332a27.185,27.185,0,0,1,2.526,1.652c.292.324.583-3.174.583-3.174Z" fill="#d0d7e3"/>
      <path id="Path_157403" data-name="Path 157403" d="M-393.934-270.573l-2.656,2.332a27.114,27.114,0,0,1,2.526,1.652c.29.324.583-3.174.583-3.174Z" fill="#e7effd"/>
      <path id="Path_157404" data-name="Path 157404" d="M-398.537-269.861s-.291-.145-.567.276a1.819,1.819,0,0,1-.794.614s-2.948.471-3.062.859l-1.377.08s-.486.065-.525,1.087-.308,1.116-.308,1.116a4.012,4.012,0,0,0-.525,1.522.851.851,0,0,1-.437.779l2.024,5.263a9.836,9.836,0,0,1-.308,2.964,37.966,37.966,0,0,0-1.069,4.309s.292-.065.275.129-.349,2.316-.349,2.316a4.776,4.776,0,0,1-.259,1.134,8.179,8.179,0,0,0-.175,1.813l-.259,1.1s.614,1.377,1.554,1.183,2.638-3.872,2.638-3.872l1.085-3.968.843-3.919.243-2.656.388-5.88.567-3.886S-398.311-269.584-398.537-269.861Z" fill="#d0d7e3"/>
      <path id="Path_157405" data-name="Path 157405" d="M-398.63-270.055s-.292-.145-.567.276a1.827,1.827,0,0,1-.794.614s-2.948.471-3.062.859l-1.375.081s-.486.065-.535,1.085-.308,1.118-.308,1.118a4.012,4.012,0,0,0-.525,1.522.847.847,0,0,1-.437.779l2.031,5.27a9.835,9.835,0,0,1-.308,2.964,37.972,37.972,0,0,0-1.069,4.309s.292-.065.276.129-.35,2.315-.35,2.315a4.631,4.631,0,0,1-.258,1.134,8.135,8.135,0,0,0-.175,1.814l-.259,1.1s.616,1.377,1.555,1.181,2.64-3.87,2.64-3.87l1.085-3.968.842-3.919.233-2.666.388-5.88.567-3.886S-398.408-269.778-398.63-270.055Z" fill="#65617d"/>
      <path id="Path_157406" data-name="Path 157406" d="M-409.032-257.52l-.94.647a11.125,11.125,0,0,1-2.463-.206l-.525-.233-.1-.046.109.035a2.146,2.146,0,0,0,1.3.045c1.33-.448,1.183-2.642,1.13-3.139a.428.428,0,0,0-.01-.094h0v.012a.89.89,0,0,0,.061.086l.059.063h0l.486.934a.135.135,0,0,1,0,.04Z" opacity="0.1"/>
      <path id="Path_157407" data-name="Path 157407" d="M-405.778-263.851l-.453.129-.065.922a.628.628,0,0,0-.681.551,2.21,2.21,0,0,1-.4.924s-.891.745-.94,1.377l-.551.339s-1.279-.292-1.575-.81c0,0,.584,4.178-2.526,3.149,0,0,3.482,1.522,3.644,1.734a2.036,2.036,0,0,0,2.2.308,2.307,2.307,0,0,0,1.183-1.312,13.456,13.456,0,0,0,.971-1.506c.031-.194.761-.422.761-.422l1.4-3.368Z" fill="#65617d"/>
      <path id="Path_157408" data-name="Path 157408" d="M-394.408-268.435l.469-2.138a2.524,2.524,0,0,0,.422.859l.7.525a4.086,4.086,0,0,0,.94.324,5.663,5.663,0,0,1,1.716.525c.161.175.81.049.81.049s.534.175,1,.292.7.891.6,1.2a.939.939,0,0,0,.227.875,2.077,2.077,0,0,1,.292.826.95.95,0,0,1,.549.469,3.22,3.22,0,0,1,.114,1.134l-2.413,3.4a9.826,9.826,0,0,1-.065,1.6c-.1.292.339,5.249.339,5.249l.5,8.519a8.5,8.5,0,0,1-.81.632,20.45,20.45,0,0,1-.291-3.125c0-.112-3.742-5.6-3.742-5.6a5.073,5.073,0,0,1-.5-.989c0-.178-.469-1.814-.469-1.814l-.712-3.149Z" fill="#d0d7e3"/>
      <path id="Path_157409" data-name="Path 157409" d="M-386.368-263.681v.185l-2.411,3.4h0a9.72,9.72,0,0,1-.064,1.6c-.057.175.067,1.912.175,3.343.082,1.032.157,1.9.157,1.9l.214,3.613.288,4.9a8.5,8.5,0,0,1-.81.632,20.476,20.476,0,0,1-.291-3.127c0-.114-3.742-5.6-3.742-5.6a5.045,5.045,0,0,1-.5-.989c0-.178-.469-1.814-.469-1.814l-.712-3.149.324-9.652.275-2.138a4.61,4.61,0,0,0,.616.857l.7.535a4.071,4.071,0,0,0,.94.324,5.7,5.7,0,0,1,1.716.525c.161.175.81.049.81.049s.535.175,1,.292.7.891.6,1.2a.939.939,0,0,0,.227.875,2.093,2.093,0,0,1,.292.826.95.95,0,0,1,.549.469A2.6,2.6,0,0,1-386.368-263.681Z" fill="#65617d"/>
      <path id="Union_161" data-name="Union 161" d="M-397.366-219.216s2.1.35,2.17.762c.01.062-.031.086-.108.086A9.657,9.657,0,0,1-397.366-219.216Zm-8.035-.4s2.282.373,1.686.711a.539.539,0,0,1-.274.068c-.611.006-1.416-.774-1.416-.774Zm8.488-1.272s3.788.326,3.222.745a5,5,0,0,1-1.975.5h0a16.32,16.32,0,0,1-1.251-1.241Zm-9.249.355c.081,0,3.481.13,3.417.682-.012.1-.134.142-.324.142a15,15,0,0,1-3.1-.82Zm9.96-8.437s1.923.453,2.041.76Zm-.485-14.5a4.088,4.088,0,0,0,1.375.259l-3.87.064c.11.009,1.876-.574,2.49-.315Z" fill="#38364d"/>
      <path id="Path_157415" data-name="Path 157415" d="M-403.635-227.574s-1,.292-.031.875S-403.635-227.574-403.635-227.574Z" opacity="0.1"/>
      <path id="Path_157417" data-name="Path 157417" d="M-398.955-241.292l-.017.161-1.51,3.954s-.244,1.2-.453,1.879a12.261,12.261,0,0,0-.317,1.4l1.337-8.288Z" opacity="0.1"/>
      <path id="Path_157418" data-name="Path 157418" d="M-396.606-248.269l-.628.01h-.019l-.369-1.632.546-.03Z" fill="#3f3d56"/>
      <path id="Path_157419" data-name="Path 157419" d="M-388.967-250.247l-.4.332-1.347,1.107s-3.643,1.944-4.647.1c-.885-1.627,3.245-2.789,4.241-3.043l.212-.051Z" fill="#fbbebe"/>
      <path id="Union_160" data-name="Union 160" d="M-391.071-252.352l2.155-2.478a2.968,2.968,0,0,0,.245-.316c.083,1.032.157,1.9.157,1.9l.214,3.613C-388.8-250.412-390.182-252.417-391.071-252.352Zm5.037-5.913s2.527-.81,2.786,0Zm-3.224-3.149c.656.024.47,1.319.47,1.319Zm2.09.333c-.292-.325,1.069-1.33,1.069-1.33s-.644,1.372-.981,1.372a.112.112,0,0,1-.086-.042Zm-1.038-4.369-1,.939c.031-.841,1-.939,1-.939Zm-16.324-.717s.711.323.874.777c.026.071.021.1,0,.1-.134,0-.874-.878-.874-.878Z" fill="#5b5770"/>
      <path id="Path_157421" data-name="Path 157421" d="M-406.734-261.309s-1.036,1.263-.616,1.75S-406.734-261.309-406.734-261.309Z" opacity="0.1"/>
      <path id="Path_157423" data-name="Path 157423" d="M-397.21-252.174c.1-.1,2.333-3.4,2.853-3.109Z" fill="#d0d7e3"/>
      <path id="Path_157424" data-name="Path 157424" d="M-393.03-273.651a3.828,3.828,0,0,1-.457,1.82h-.028c-.245-.052-.373-.336-.557-.514a.758.758,0,0,0-.875-.122.89.89,0,0,0-.431.831c-.123-.525-.084-1.071-.2-1.59s-.484-1.05-.98-1.05c-.213,0-.464.079-.619-.082a1.523,1.523,0,0,1-.175-.366c-.35-.576-1.435-.285-1.876.01a11.2,11.2,0,0,1-1.5,1.017,3.855,3.855,0,0,1,3.883-3.826,3.853,3.853,0,0,1,3.826,3.882Z" opacity="0.1"/>
      <path id="Path_157425" data-name="Path 157425" d="M-397.362-274.832a2.574,2.574,0,0,0,.175.367c.155.159.4.077.619.08.5.009.86.535.98,1.05s.082,1.071.207,1.589a.874.874,0,0,1,.429-.829.763.763,0,0,1,.875.121c.186.175.312.464.557.514s.479-.184.568-.441a7.087,7.087,0,0,0,.14-.807,10.418,10.418,0,0,1,.623-1.4,2.54,2.54,0,0,0-.016-1.809c-.122-.3-.3-.577-.425-.875-.187-.46-.236-.982-.464-1.421a1.682,1.682,0,0,0-2.017-.829c-.35.133-.658.388-1.015.5a3.324,3.324,0,0,1-1.485-.031,1.83,1.83,0,0,0-1.442.25c-.458.376-.584,1.081-1.015,1.492-.176.175-.406.283-.6.443a.821.821,0,0,0-.334.658c.03.336.35.64.236.952a.731.731,0,0,1-.176.236,3.408,3.408,0,0,0-.784,1.335c.875.269,1.806-.686,2.483-1.137C-398.8-275.115-397.717-275.406-397.362-274.832Z" fill="#7c5c5c"/>
      <path id="Path_157426" data-name="Path 157426" d="M-388.966-250.247l-.4.332a11.6,11.6,0,0,0-1.817-1.776l.063-.061.212-.051Z" fill="#e2abab"/>
      <path id="Path_157427" data-name="Path 157427" d="M-388.577-250.846s-.143.36-.294.672-.313.6-.32.366c-.017-.455-1.895-1.977-1.895-1.977l.254-.248.3-.287Z" fill="#e7effd"/>
      <path id="Path_157429" data-name="Path 157429" d="M-388.577-250.846s-.143.36-.294.672a5.167,5.167,0,0,0-1.961-1.86l.3-.287Z" fill="#d0d7e3"/>
      <path id="Path_157430" data-name="Path 157430" d="M-386.958-263.949l.583.453s.973.018,1.069.826a1.689,1.689,0,0,0,.988,1.183s.663.665.663.973.5.857.5.906.486,1.036.422,1.214.525.955.339,1.247a7.818,7.818,0,0,0-.388.81,8.15,8.15,0,0,1-1.15,1.732,31.415,31.415,0,0,0-2.169,2.593s-1.911,2.2-1.911,2.882c0,0-1.863-3.109-2.964-3.029l2.154-2.477a1.689,1.689,0,0,0,.39-.647,3.185,3.185,0,0,1,1.522-1.409s.08-.664-.129-.682-.388-.525-.388-.525-1.426-1.685-1.442-2.754S-386.958-263.949-386.958-263.949Z" fill="#65617d"/>
      <path id="Path_157433" data-name="Path 157433" d="M-401.679-215.237s-1.361.892-2.042.761a2.46,2.46,0,0,0-1.377.227,4.073,4.073,0,0,1-1.716,1.118,6.283,6.283,0,0,1-3.515-.065c-.413-.138-.446-.317-.247-.535.95.189,3.076.565,3.648.292a15.041,15.041,0,0,0,1.814-1.134s1.4-.194,1.587-.194a16.928,16.928,0,0,0,1.821-.7Z" fill="#5b5770"/>
      <path id="Path_157434" data-name="Path 157434" d="M-393.44-213.409a.266.266,0,0,1-.012.089s-.323.712-2.121.971-1.8-.6-1.8-.6l.018-.233A5.913,5.913,0,0,0-393.44-213.409Z" fill="#5b5770"/>
      <path id="Path_157435" data-name="Path 157435" d="M-403.859-262.605s0,3.693-.315,4.057S-403.859-262.605-403.859-262.605Z" opacity="0.1"/>
      <g id="Group_167433" data-name="Group 167433">
        <path id="Path_157437" data-name="Path 157437" d="M-400.71-275.572c.119-.3-.193-.6-.233-.927a.611.611,0,0,0-.052.292,5.711,5.711,0,0,0,.25.7A.314.314,0,0,0-400.71-275.572Z" fill="#6e5252"/>
        <path id="Path_157438" data-name="Path 157438" d="M-395.335-272.084c-.115-.511-.079-1.05-.2-1.562s-.484-1.05-.98-1.05c-.213,0-.464.077-.619-.082a1.569,1.569,0,0,1-.175-.367c-.35-.574-1.435-.282-1.877.012-.661.439-1.574,1.361-2.421,1.151-.04.1-.079.2-.11.3.875.269,1.807-.686,2.484-1.137.443-.294,1.521-.584,1.876-.01a2.472,2.472,0,0,0,.176.367c.154.159.4.077.618.08.5.009.861.535.98,1.05s.082,1.071.207,1.589A.858.858,0,0,1-395.335-272.084Z" fill="#6e5252"/>
        <path id="Path_157439" data-name="Path 157439" d="M-392.9-272.69c-.087.257-.318.493-.568.441s-.371-.336-.557-.514a.765.765,0,0,0-.875-.122.888.888,0,0,0-.43.786.847.847,0,0,1,.381-.469.763.763,0,0,1,.875.121c.186.175.313.464.558.514s.479-.184.567-.441a1.99,1.99,0,0,0,.089-.465A.935.935,0,0,1-392.9-272.69Z" fill="#6e5252"/>
        <path id="Path_157440" data-name="Path 157440" d="M-392.136-274.9a11.068,11.068,0,0,0-.623,1.4c-.021.1-.035.206-.047.311a10.787,10.787,0,0,1,.621-1.4,2.45,2.45,0,0,0,.149-.672A2.471,2.471,0,0,1-392.136-274.9Z" fill="#6e5252"/>
      </g>
      <circle id="Ellipse_2437" data-name="Ellipse 2437" cx="0.04" cy="0.04" r="0.04" transform="translate(-415.583 -263.251)" fill="#e6e8ec"/>
      <rect id="Rectangle_30649" data-name="Rectangle 30649" width="31.699" height="36.43" rx="6.61" transform="translate(-430.656 -262.308)" fill="#eeeef1"/>
      <rect id="Rectangle_30650" data-name="Rectangle 30650" width="28.466" height="32.714" rx="6.61" transform="translate(-429.04 -260.45)" fill="#fff"/>
      <path id="Union_158" data-name="Union 158" d="M-427.258-234.3v-1.376h24.9v1.376Zm0-3.056v-1.375h24.9v1.375Zm0-3.056v-1.375h24.9v1.375Zm3.075-2.9v-1.375h18.1v1.375Zm2.653-3.84a3.37,3.37,0,0,1-3.37-3.37h0a3.372,3.372,0,0,1,3.37-3.37h12.788a3.372,3.372,0,0,1,3.37,3.37,3.37,3.37,0,0,1-3.37,3.37H-421.53Z" fill="#f06292"/>
      <rect id="Rectangle_30657" data-name="Rectangle 30657" width="74.639" height="36.43" rx="6.61" transform="translate(-579.218 -274.35)" fill="#eeeef1"/>
      <rect id="Rectangle_30658" data-name="Rectangle 30658" width="67.023" height="32.714" rx="6.61" transform="translate(-575.411 -272.492)" fill="#fff"/>
      <path id="Union_153" data-name="Union 153" d="M-571.213-246.337v-1.376h58.628v1.376Zm0-3.056v-1.375h58.628v1.375Zm0-3.056v-1.375h58.628v1.375Zm7.241-2.9v-1.375h42.608v1.375Zm1.684-3.837a3.37,3.37,0,0,1-3.37-3.371h0a3.372,3.372,0,0,1,3.37-3.369h39.241a3.369,3.369,0,0,1,3.369,3.369h0a3.368,3.368,0,0,1-3.365,3.371h-39.245Z" fill="#f06292"/>
      <path id="Path_157442" data-name="Path 157442" d="M-547.972-209.934l1.951-.611a.837.837,0,0,0,.233-1.162.966.966,0,0,0-.089-.112,1.027,1.027,0,0,0-.747-.411.9.9,0,0,1-.364-.145.862.862,0,0,1-.292-.29,1.425,1.425,0,0,1-.191-.752s-2.089-.7-2.691-.1a1.573,1.573,0,0,0-.268.366,3.139,3.139,0,0,0-.322,1.351s-.133.667-.338,1.428S-547.972-209.934-547.972-209.934Z" fill="#2d293d"/>
      <path id="Path_157443" data-name="Path 157443" d="M-557.347-211.245l1.951-.611a.836.836,0,0,0,.234-1.159.9.9,0,0,0-.09-.113,1.027,1.027,0,0,0-.749-.413.658.658,0,0,1-.217-.066,1.128,1.128,0,0,1-.145-.079,1.232,1.232,0,0,1-.485-1.05s-2.089-.7-2.691-.1a1.507,1.507,0,0,0-.213.266,3.043,3.043,0,0,0-.378,1.45s-.135.668-.338,1.428S-557.347-211.245-557.347-211.245Z" fill="#2d293d"/>
      <path id="Path_157444" data-name="Path 157444" d="M-550.159-213.521a1.625,1.625,0,0,0-.266.366h0l3.149.488a1.443,1.443,0,0,1-.191-.752S-549.55-214.118-550.159-213.521Z" fill="#282537" opacity="0.1"/>
      <path id="Path_157445" data-name="Path 157445" d="M-559.752-214.566l-.023.593c.462.831,2.85.745,3.557.366a1.281,1.281,0,0,1-.145-.079,1.237,1.237,0,0,1-.485-1.05s-2.089-.7-2.691-.1A1.634,1.634,0,0,0-559.752-214.566Z" fill="#282537" opacity="0.1"/>
      <path id="Path_157446" data-name="Path 157446" d="M-560.03-217.133a5.259,5.259,0,0,1,.35.822l-.086,2.124c.5.91,3.314.721,3.709.252s.847-1.72.425-1.951-.731-1.323-.731-1.323.453.126,1.214-.7.618-2.752.5-3.214a9.472,9.472,0,0,1,.079-1.991,4.021,4.021,0,0,1,.243-1.419,17.4,17.4,0,0,0,.763-2.315,1.587,1.587,0,0,1,.415-1.008,4.585,4.585,0,0,0,.686-1.7,1.757,1.757,0,0,0,.313-1.146,2.369,2.369,0,0,1,.511-1.382l1.027-2.869.945-2.147.436,1.282s.021,2.966-.11,3.58-.35,2.25-.35,2.25a3.326,3.326,0,0,1,.22,2,13.908,13.908,0,0,0-.273,2.871,29.594,29.594,0,0,0-.2,4.384,2.635,2.635,0,0,1,.146,1.137s-1.193,2.325-.857,2.663.2,1.225.2,1.225-.752-.03-.443.306a6.367,6.367,0,0,1,.476,2.028l3.238.5a6.882,6.882,0,0,0,.78-1.345c.469-.978-.046-.891-.474-1.015s-.145-.383.378-.686.255-1.041.255-1.041-.73-1.349-.455-1.445.371-1.953.371-1.953a12.083,12.083,0,0,0,.511-2.784,5.386,5.386,0,0,1,.509-2l.252-1.687a4.665,4.665,0,0,0,.716-3.179l.1-2.61s.952-5.02,1.165-7.581c.133-1.634.2-3.868.229-5.263.017-.784.024-1.3.024-1.3l-11.577-1.659a9.688,9.688,0,0,1-.278,1.718q-.288,1.255-.7,2.476a11.37,11.37,0,0,0-.525,5.153l-.037,3.744s-1.12,2.463-.936,3.333a7.192,7.192,0,0,1,.154,1.575s-2.491,5.368-2.309,6.958a10.292,10.292,0,0,1-.912,4.061A6.264,6.264,0,0,0-560.03-217.133Z" fill="#575988"/>
      <path id="Union_156" data-name="Union 156" d="M-549.428-218.386s3.149.714,2.235,1.083a15.222,15.222,0,0,1-2.41.637S-550.629-216.651-549.428-218.386Zm.928-11.2s2.228.6,2.261,1.5c0,.143-.048.2-.141.2-.494.006-2.12-1.7-2.12-1.7Zm-7.864-1.926,3.52.613a1.819,1.819,0,0,1-1.283.545,3.6,3.6,0,0,1-2.237-1.155Zm.644-3.43s-.175,1.246.579,1.749c-.008,0-1.364-.268-.579-1.746Zm.371-3.975s5.029,2.231,3.947,2.39a.684.684,0,0,1-.1.007c-1.156,0-3.847-2.394-3.847-2.394Zm8.573-6.594c-.684.18-4.936-.6-7.91-1.189a9.624,9.624,0,0,0,.277-1.719l11.577,1.659s-.006.518-.024,1.3a19.892,19.892,0,0,0-3.919-.048Z" fill="#4e507a"/>
      <g id="Group_167434" data-name="Group 167434">
        <path id="Path_157452" data-name="Path 157452" d="M-546.576-216.637a.624.624,0,0,0,.308-.448l.03.058s.269.737-.255,1.05c-.059.033-.115.068-.175.1-.093-.021-.194-.038-.29-.066C-547.386-216.074-547.1-216.333-546.576-216.637Z" fill="#525480"/>
        <path id="Path_157453" data-name="Path 157453" d="M-550.66-217.007c-.084-.084-.072-.29,0-.555a1.488,1.488,0,0,1,.15.787A.6.6,0,0,0-550.66-217.007Z" fill="#525480"/>
        <path id="Path_157454" data-name="Path 157454" d="M-549.656-230.374a3.627,3.627,0,0,1,.175,1,3.81,3.81,0,0,0-.22-.689S-549.682-230.185-549.656-230.374Z" fill="#525480"/>
        <path id="Path_157455" data-name="Path 157455" d="M-556.869-232.066a1.309,1.309,0,0,1-.019-.3c.033.2.054.39.066.555C-556.841-231.891-556.852-231.982-556.869-232.066Z" fill="#525480"/>
        <path id="Path_157456" data-name="Path 157456" d="M-549.948-220.806a1.811,1.811,0,0,1-.056-.6,2.009,2.009,0,0,1,.126.759A.729.729,0,0,0-549.948-220.806Z" fill="#525480"/>
        <path id="Path_157457" data-name="Path 157457" d="M-550.808-215.762a10.72,10.72,0,0,1,.306,1.667l3.238.5a6.812,6.812,0,0,0,.782-1.345c.042-.086.073-.163.1-.233.191.1.261.3-.019.884a6.9,6.9,0,0,1-.78,1.344l-3.245-.5a6.4,6.4,0,0,0-.488-2.038C-551.058-215.647-550.95-215.722-550.808-215.762Z" fill="#525480"/>
        <path id="Path_157458" data-name="Path 157458" d="M-546.325-220.425s-.1,1.856-.371,1.953h0c-.123-.313-.2-.607-.082-.651.273-.1.373-1.953.373-1.953a11.923,11.923,0,0,0,.511-2.784,5.4,5.4,0,0,1,.507-2l.254-1.688a4.655,4.655,0,0,0,.716-3.179l.1-2.61s.948-5.028,1.155-7.581c.131-1.634.2-3.868.229-5.263,0-.252.01-.476.014-.665l.093.014s0,.525-.024,1.3c-.03,1.4-.1,3.63-.229,5.265-.206,2.551-1.153,7.581-1.153,7.581l-.1,2.609a4.671,4.671,0,0,1-.714,3.179l-.256,1.688a5.386,5.386,0,0,0-.509,2A11.878,11.878,0,0,1-546.325-220.425Z" fill="#525480"/>
        <path id="Path_157459" data-name="Path 157459" d="M-556.138-214.658a3.127,3.127,0,0,0,.563-1.258c.32.311-.1,1.461-.481,1.907s-3.2.658-3.709-.25l.019-.513C-559.046-214.023-556.513-214.214-556.138-214.658Z" fill="#525480"/>
        <path id="Path_157460" data-name="Path 157460" d="M-560.111-217.862a5.259,5.259,0,0,1,.35.822l-.016.376a5.863,5.863,0,0,0-.248-.549,1.623,1.623,0,0,1-.091-.67Z" fill="#525480"/>
        <path id="Path_157461" data-name="Path 157461" d="M-556.2-217.28a5.254,5.254,0,0,1-.241-.649s.453.124,1.212-.709a3.822,3.822,0,0,0,.583-2.565c.119.464.261,2.381-.5,3.214A1.935,1.935,0,0,1-556.2-217.28Z" fill="#525480"/>
        <path id="Path_157462" data-name="Path 157462" d="M-554.57-223.2a14.644,14.644,0,0,0-.115,1.594,2.192,2.192,0,0,0-.045-.252,9.612,9.612,0,0,1,.077-1.991,4.065,4.065,0,0,1,.243-1.419,17.778,17.778,0,0,0,.763-2.315,1.6,1.6,0,0,1,.416-1.008,4.6,4.6,0,0,0,.686-1.7,1.763,1.763,0,0,0,.313-1.146,2.367,2.367,0,0,1,.511-1.382l1.027-2.869.945-2.147.436,1.284v.409l-.35-1.05-.945,2.145-1.027,2.871a2.34,2.34,0,0,0-.511,1.382,1.757,1.757,0,0,1-.313,1.146,4.585,4.585,0,0,1-.686,1.7,1.587,1.587,0,0,0-.415,1.008,17.773,17.773,0,0,1-.763,2.316A4.1,4.1,0,0,0-554.57-223.2Z" fill="#525480"/>
      </g>
      <path id="Path_157463" data-name="Path 157463" d="M-554.925-272.779l.164.99-.028.437-.021.322,1.118.159.135-.227h0a10.334,10.334,0,0,1,.926-1.375c.213-.166.689-2.883.238-2.74a1.184,1.184,0,0,0-.647.542S-555.255-274.505-554.925-272.779Z" fill="#ffcdd3"/>
      <path id="Path_157464" data-name="Path 157464" d="M-554.81-271.032l1.118.159.135-.227h0a.993.993,0,0,0-1.225-.252Z" fill="#e5b8be"/>
      <path id="Path_157465" data-name="Path 157465" d="M-555.114-270.511l1.468.4.038-.22.107-.59a1.019,1.019,0,0,0-1.419-.254l-.007,0-.084.3Z" fill="#dce6f2"/>
      <path id="Path_157466" data-name="Path 157466" d="M-531.05-271.749l1.547.91s.065-.124.156-.294c.163-.31.4-.775.472-.943.1-.257.775-.563.775-.563,1.716-1.517-.2-2.95-.2-2.95-.962-2.14-2.232.626-2.232.626a7.173,7.173,0,0,0-.108,1.575c.11.1.094.509.094.509a6.088,6.088,0,0,0-.416.889C-531.02-271.845-531.05-271.749-531.05-271.749Z" fill="#ffcdd3"/>
      <path id="Path_157467" data-name="Path 157467" d="M-531.05-271.749l1.547.91s.065-.124.156-.294c-.217-.194-.983-.875-1.244-.847a1.8,1.8,0,0,1-.374,0C-531.02-271.845-531.05-271.749-531.05-271.749Z" fill="#e5b8be"/>
      <path id="Path_157468" data-name="Path 157468" d="M-531.23-271.282l1.75.943.049-.381.035-.262s-.993-.92-1.3-.9a1.61,1.61,0,0,1-.465-.019l-.031.318Z" fill="#dce6f2"/>
      <path id="Path_157469" data-name="Path 157469" d="M-550.871-266.091s7.71,1.172,6.281.647a1.941,1.941,0,0,1-1.427-1.737,4.046,4.046,0,0,1,.35-1.781,7.755,7.755,0,0,1,.747-1.372s-5.8-3.483-4.724-.478a4.789,4.789,0,0,1,.282,1.415,4.016,4.016,0,0,1-.206,1.414,4.231,4.231,0,0,1-1.3,1.891Z" fill="#ffcdd3"/>
      <path id="Path_157470" data-name="Path 157470" d="M-549.637-270.807a4.726,4.726,0,0,1,.282,1.415,2.73,2.73,0,0,0,1.937.511,3.417,3.417,0,0,0,1.75-.077,7.854,7.854,0,0,1,.747-1.372S-550.708-273.817-549.637-270.807Z" fill="#e5b8be"/>
      <circle id="Ellipse_2438" data-name="Ellipse 2438" cx="3.203" cy="3.203" r="3.203" transform="translate(-550.401 -275.08)" fill="#ffcdd3"/>
      <path id="Path_157471" data-name="Path 157471" d="M-550.871-266.091s7.71,1.172,6.281.647a1.941,1.941,0,0,1-1.427-1.737,4.277,4.277,0,0,0-1.624-.943,2.342,2.342,0,0,0-1.4-.077,1.952,1.952,0,0,0-.525.219,4.237,4.237,0,0,1-1.3,1.891Z" fill="#e8bbc0"/>
      <path id="Path_157472" data-name="Path 157472" d="M-555.114-270.509l1.468.4.038-.22a1.307,1.307,0,0,0-1.4-.541Z" fill="#c6cfd9"/>
      <path id="Path_157473" data-name="Path 157473" d="M-531.23-271.282l1.75.943.049-.381a13.245,13.245,0,0,0-1.767-.854Z" fill="#c6cfd9"/>
      <path id="Path_157475" data-name="Path 157475" d="M-557.647-247.517s9.808,2.075,10.881,1.793,6.5.276,6.5.276c2.385,1.736,1.456-.724,1.456-.724a5.922,5.922,0,0,0,0-2.29,14.016,14.016,0,0,1-.317-2.3,5.3,5.3,0,0,0-.164-2,15.356,15.356,0,0,1-.525-3.093s-.2-1.839-.156-2.241a15.335,15.335,0,0,0-.021-1.538l-.278-1.9c2.028-.191,8.307-3.721,8.307-3.721.35-1.253,2.745-4.126,2.745-4.126A3.12,3.12,0,0,1-529-270.1c.175-.423-2.21-1.377-2.21-1.377s-1.891,2.136-2.283,2.714a11.742,11.742,0,0,1-1.734,1.631,1.321,1.321,0,0,0-.595.054h-.031a4.822,4.822,0,0,0-1.225.646,2.344,2.344,0,0,0-1.666.555s-1.1-.2-1.291-.023-1.13-.044-1.13-.044-.875-2.026-1.506-1.471-3.266.427-3.266.427a3.871,3.871,0,0,0-1.7-1.038,2.326,2.326,0,0,0-1.4-.077,1.827,1.827,0,0,0-.565.247l-1.652,1.5s-.436-.609-.376-.742-.525-.262-.525-.262-.772-.273-1.064-.364-.577.217-.6.245a3.1,3.1,0,0,0,.175-1.177,1.356,1.356,0,0,1,.359-.957c-.852-2.35-3.051-.493-3.051-.493a4.45,4.45,0,0,0-.094,1.75c.2.5-.273,1.5-.231,1.769s-.135.723-.154,1.234a7.623,7.623,0,0,0,.35,1.924c.138.434,1.4,1.456,1.4,1.456a6.144,6.144,0,0,0,.553,2.449c.53.913.065,3.937.065,3.937a10.132,10.132,0,0,1-1.331,3.074C-556.482-251.79-557.647-247.517-557.647-247.517Z" fill="#656691"/>
      <path id="Union_157" data-name="Union 157" d="M-543.519-251.287l.041-1.036c.4-.981,3.875-.943,3.875-.943l-.052,1.387c-.72-.539-2.867.442-3.219.617a.663.663,0,0,1-.3.072A.681.681,0,0,1-543.519-251.287Zm-10.219-3.3s6.892,1.205,10.495-2.381a18.146,18.146,0,0,1-1.937,1.738,8.986,8.986,0,0,1-5.136,2.149,4.673,4.673,0,0,1-3.422-1.507Zm12.426-6.429a11.78,11.78,0,0,1-1.4,2.16A9.441,9.441,0,0,1-545-256.813s3.089-3.261,3.689-4.2Zm-1.553,3.639c-.122.142-.247.278-.377.409.244-.256.379-.414.377-.409Zm1.652-3.839a.678.678,0,0,1-.1.2c.036-.067.068-.133.1-.2Zm.205-.743a.43.43,0,0,1-.073.03Zm2.063-3.129c.016-.048.449,2.048-2.063,3.129.263-.129,1.184-.729,2.064-3.129Zm-.919-.3s-.7,2.59-2.3,3.418Zm-2.666-.359c.171-.285,1.192-.524,1.192-.524l.162.336a6.017,6.017,0,0,1-.8.321c-.271.072-.6.946-.6.946a2.372,2.372,0,0,1,.046-1.079Zm5.441-.675a4.771,4.771,0,0,1,1.235-.656h.03l1.163,1.262s-2.385-.335-2.427-.606Zm-19.291.115Zm1.656-1.144a19.028,19.028,0,0,0-1.656,1.144C-556.329-266.364-555.469-267.532-554.724-267.45Zm4.42.232,4.356.241s-1.218.113-2.367.113c-.942,0-1.84-.077-1.988-.354Zm-3.354-1.714-2.745.732c.521-.814,2.746-.732,2.746-.732Zm22.549.311a.215.215,0,0,1,.215-.215h0a.213.213,0,0,1,.214.214h0a.213.213,0,0,1-.214.213.214.214,0,0,1-.216-.213h0Zm-25.4-.208a.176.176,0,0,1,.176-.175.176.176,0,0,1,.175.175.177.177,0,0,1-.175.174.175.175,0,0,1-.176-.174Zm25.7-.213a.215.215,0,0,1,.214-.215.214.214,0,0,1,.216.214h0a.215.215,0,0,1-.216.215.215.215,0,0,1-.215-.214v0Zm-25.659-.183a.174.174,0,0,1,.174-.175h0a.174.174,0,0,1,.174.174h0a.174.174,0,0,1-.174.174.174.174,0,0,1-.175-.174Zm25.943-.2a.217.217,0,0,1,.216-.215.217.217,0,0,1,.216.215.216.216,0,0,1-.216.216.215.215,0,0,1-.216-.215v0Zm-25.9-.191a.174.174,0,0,1,.174-.174h0a.174.174,0,0,1,.175.174.176.176,0,0,1-.175.175.175.175,0,0,1-.176-.175v0Zm26.194-.228a.216.216,0,0,1,.216-.215.216.216,0,0,1,.216.215.214.214,0,0,1-.216.214.214.214,0,0,1-.218-.211v-.006Z" fill="#5b5c82"/>
      <path id="Path_157485" data-name="Path 157485" d="M-546.445-268.941a.679.679,0,0,1-.268.423.644.644,0,0,1-.3.054,6.438,6.438,0,0,1-2.883-.383,1.077,1.077,0,0,1-.429-.308,1.77,1.77,0,0,1-.229-.719,10.27,10.27,0,0,0-.539-1.382,4.554,4.554,0,0,1-.222-2.449,1.647,1.647,0,0,1,.271-.7c.273-.359.751-.49,1.1-.772s.591-.723,1-.929a1.851,1.851,0,0,1,1.211-.059,6.375,6.375,0,0,1,2.222.933,1.113,1.113,0,0,0,.744.285,1.027,1.027,0,0,0,.57-.4,2.96,2.96,0,0,1,.185,1.4.619.619,0,0,0,0,.21.635.635,0,0,0,.14.229.813.813,0,0,1,.115,1.01c-.108.119-.271.175-.376.3-.189.217-.142.542-.149.831a.43.43,0,0,1-.08.282.417.417,0,0,1-.4.079,1.085,1.085,0,0,0-.42-.056.708.708,0,0,0-.376.266A4.969,4.969,0,0,0-546.445-268.941Z" fill="#2d293d"/>
      <g id="Group_167435" data-name="Group 167435">
        <path id="Path_157486" data-name="Path 157486" d="M-550.425-269.4a1.075,1.075,0,0,0,.429.31,6.466,6.466,0,0,0,2.883.383.63.63,0,0,0,.3-.056.674.674,0,0,0,.268-.422,4.972,4.972,0,0,1,.89-1.863.7.7,0,0,1,.376-.268,1.133,1.133,0,0,1,.42.056.413.413,0,0,0,.4-.079.436.436,0,0,0,.08-.28,1.237,1.237,0,0,1,.149-.833c.1-.121.268-.175.376-.3a.635.635,0,0,0,.086-.64.736.736,0,0,1,.012.859c-.108.119-.269.175-.377.3-.188.217-.14.542-.147.831a.424.424,0,0,1-.082.282.412.412,0,0,1-.4.079,1.077,1.077,0,0,0-.418-.056.707.707,0,0,0-.378.268,5.043,5.043,0,0,0-.889,1.862.5.5,0,0,1-.528.483l-.042,0a6.46,6.46,0,0,1-2.885-.385,1.1,1.1,0,0,1-.429-.308.85.85,0,0,1-.128-.264A.376.376,0,0,0-550.425-269.4Z" fill="#282436"/>
        <path id="Path_157487" data-name="Path 157487" d="M-544.014-273.83a.437.437,0,0,1-.091-.175.616.616,0,0,1,0-.21,2.977,2.977,0,0,0-.1-1.165l.017-.019A2.947,2.947,0,0,1-544-274,1.065,1.065,0,0,0-544.014-273.83Z" fill="#282436"/>
      </g>
    </g>
  </g>
</svg>
