<svg xmlns="http://www.w3.org/2000/svg" xmlns:xlink="http://www.w3.org/1999/xlink" width="262" height="196" viewBox="0 0 262 196">
  <defs>
    <linearGradient id="linear-gradient" x1="4.095" y1="1.868" x2="4.095" y2="1.88" gradientUnits="objectBoundingBox">
      <stop offset="0" stop-color="gray" stop-opacity="0.251"/>
      <stop offset="0.54" stop-color="gray" stop-opacity="0.122"/>
      <stop offset="1" stop-color="gray" stop-opacity="0.102"/>
    </linearGradient>
    <linearGradient id="linear-gradient-2" x1="20.096" y1="1.296" x2="20.096" y2="1.305" xlink:href="#linear-gradient"/>
  </defs>
  <g id="card-5" transform="translate(863.6 -140.16)">
    <rect id="Rectangle_29293" data-name="Rectangle 29293" width="262" height="196" transform="translate(-863.6 140.16)" fill="#a1dbf8"/>
    <g id="undraw_add_to_cart_vkjp" data-name="undraw add to cart vkjp">
      <path id="Path_155044" data-name="Path 155044" d="M-638.295,278.072c-.2.145-.38.285-.574.422a19.327,19.327,0,0,1-2.245,1.369c-4.077,2.149-9.1,3.2-14,3.913-10.979,1.6-22.188,1.912-33.35,2.217-30.158.828-60.39,1.654-90.475-.254-11.887-.753-24.035-2.013-34.806-5.876q-2.316-.828-4.541-1.827a37.263,37.263,0,0,1-8.281-4.953,18.028,18.028,0,0,1-5.171-6.351c-2.276-5-1.072-10.617,1.527-15.518a48.165,48.165,0,0,1,3.643-5.7c2.007-2.76,4.22-5.44,6.238-8.2,7.183-9.8,11.871-22.2,5.24-32.258-1.906-2.888-4.66-5.424-6.213-8.439-1.981-3.857-1.829-8.14-1.2-12.3q.123-.792.26-1.569c1.076-6.169,3.1-12.816,9.343-16.667,6.484-4,15.692-3.8,23.74-2.377,12.515,2.235,24.059,6.886,35.725,11.086s23.872,8.037,36.694,8.449c11.322.365,24.528-2.363,32.042-9.454,7.3-6.886,21.017-7.411,30.9-3.251,6.787,2.855,11.851,8,13.987,13.783a17.963,17.963,0,0,1,.929,3.59,16.538,16.538,0,0,1,.166,3.386c-.03.559-.087,1.111-.166,1.658-1.652,11.415-13.545,20.419-20.774,30.616-3.532,4.98-6.026,10.963-3.6,16.334,3.7,8.184,16.588,11.094,24.367,17.184a18.335,18.335,0,0,1,3.824,3.923C-631.278,266.43-632.671,273.75-638.295,278.072Z" fill="#bde8fe"/>
      <g id="flowers">
        <path id="Path_155045" data-name="Path 155045" d="M-778.934,221.159s-8.01-14.2-20.082-18.285a24.69,24.69,0,0,1-12.51-9.358,41.479,41.479,0,0,1-3.692-6.638" fill="none" stroke="#535461" stroke-miterlimit="10" stroke-width="2"/>
        <path id="Path_155046" data-name="Path 155046" d="M-822.808,184.251c1.376,1.329,7.781,2.722,7.781,2.722s-1.567-6.36-2.946-7.7a3.469,3.469,0,0,0-4.907.074,3.47,3.47,0,0,0,.073,4.907Z" fill="#4285f4"/>
        <path id="Path_155047" data-name="Path 155047" d="M-819.184,195.76c1.879.373,8.01-1.949,8.01-1.949s-4.78-4.486-6.661-4.859a3.47,3.47,0,0,0-4.079,2.729,3.47,3.47,0,0,0,2.729,4.079Z" fill="#4285f4"/>
        <path id="Path_155048" data-name="Path 155048" d="M-805.994,208.218c1.811-.627,5.921-5.724,5.921-5.724s-6.387-1.461-8.2-.834a3.471,3.471,0,0,0-2.3,4.336,3.472,3.472,0,0,0,4.337,2.3c.077-.024.153-.05.228-.079Z" fill="#4285f4"/>
        <path id="Path_155049" data-name="Path 155049" d="M-793.891,215.39c1.891-.313,6.809-4.641,6.809-4.641s-6.048-2.52-7.939-2.208a3.472,3.472,0,0,0-2.9,3.959,3.471,3.471,0,0,0,3.959,2.9c.025,0,.049-.008.074-.012Z" fill="#4285f4"/>
        <path id="Path_155050" data-name="Path 155050" d="M-805.839,188.841c0,1.916-3.465,7.476-3.465,7.476s-3.472-5.557-3.474-7.472a3.471,3.471,0,0,1,3.368-3.571,3.47,3.47,0,0,1,3.571,3.367q0,.1,0,.2Z" fill="#4285f4"/>
        <path id="Path_155051" data-name="Path 155051" d="M-791.789,197.421c-.573,1.828-5.545,6.1-5.545,6.1s-1.651-6.347-1.085-8.185a3.471,3.471,0,0,1,4.452-2.068A3.471,3.471,0,0,1-791.8,197.4Z" fill="#4285f4"/>
        <path id="Path_155052" data-name="Path 155052" d="M-779.279,207.621c-.254,1.9-4.434,6.945-4.434,6.945s-2.7-5.97-2.438-7.869a3.471,3.471,0,0,1,3.9-2.977,3.471,3.471,0,0,1,2.977,3.9Z" fill="#4285f4"/>
        <path id="Path_155053" data-name="Path 155053" d="M-822.808,184.251c1.376,1.329,7.781,2.722,7.781,2.722s-1.567-6.36-2.946-7.7a3.469,3.469,0,0,0-4.907.074,3.47,3.47,0,0,0,.073,4.907Z" opacity="0.25"/>
        <path id="Path_155054" data-name="Path 155054" d="M-819.184,195.76c1.879.373,8.01-1.949,8.01-1.949s-4.78-4.486-6.661-4.859a3.47,3.47,0,0,0-4.079,2.729,3.47,3.47,0,0,0,2.729,4.079Z" opacity="0.25"/>
        <path id="Path_155055" data-name="Path 155055" d="M-805.994,208.218c1.811-.627,5.921-5.724,5.921-5.724s-6.387-1.461-8.2-.834a3.471,3.471,0,0,0-2.3,4.336,3.472,3.472,0,0,0,4.337,2.3c.077-.024.153-.05.228-.079Z" opacity="0.25"/>
        <path id="Path_155056" data-name="Path 155056" d="M-793.891,215.39c1.891-.313,6.809-4.641,6.809-4.641s-6.048-2.52-7.939-2.208a3.472,3.472,0,0,0-2.9,3.959,3.471,3.471,0,0,0,3.959,2.9c.025,0,.049-.008.074-.012Z" opacity="0.25"/>
        <path id="Path_155057" data-name="Path 155057" d="M-805.839,188.841c0,1.916-3.465,7.476-3.465,7.476s-3.472-5.557-3.474-7.472a3.471,3.471,0,0,1,3.368-3.571,3.47,3.47,0,0,1,3.571,3.367q0,.1,0,.2Z" opacity="0.25"/>
        <path id="Path_155058" data-name="Path 155058" d="M-791.789,197.421c-.573,1.828-5.545,6.1-5.545,6.1s-1.651-6.347-1.085-8.185a3.471,3.471,0,0,1,4.452-2.068A3.471,3.471,0,0,1-791.8,197.4Z" opacity="0.25"/>
        <path id="Path_155059" data-name="Path 155059" d="M-779.279,207.621c-.254,1.9-4.434,6.945-4.434,6.945s-2.7-5.97-2.438-7.869a3.471,3.471,0,0,1,3.9-2.977,3.471,3.471,0,0,1,2.977,3.9Z" opacity="0.25"/>
        <path id="Path_155060" data-name="Path 155060" d="M-779.4,220.877s-1.567-16.226-10.95-24.857A24.684,24.684,0,0,1-797.99,182.4a41.465,41.465,0,0,1-.683-7.566" fill="none" stroke="#535461" stroke-miterlimit="10" stroke-width="2"/>
        <path id="Path_155061" data-name="Path 155061" d="M-804.549,169.356c.717,1.778,6.013,5.635,6.013,5.635s1.141-6.452.425-8.23a3.473,3.473,0,0,0-4.511-1.942,3.474,3.474,0,0,0-1.942,4.512l.01.025Z" fill="#4285f4"/>
        <path id="Path_155062" data-name="Path 155062" d="M-805.906,181.346c1.567,1.1,8.11,1.463,8.11,1.463s-2.537-6.036-4.1-7.138a3.474,3.474,0,0,0-4.836.859,3.473,3.473,0,0,0,.831,4.816Z" fill="#4285f4"/>
        <path id="Path_155063" data-name="Path 155063" d="M-798.887,198.077c1.916.162,7.739-2.832,7.739-2.832s-5.247-3.923-7.157-4.084a3.471,3.471,0,0,0-3.834,3.065,3.47,3.47,0,0,0,3.064,3.834c.063.007.125.013.188.016Z" fill="#4285f4"/>
        <path id="Path_155064" data-name="Path 155064" d="M-790.73,209.543c1.856.481,8.106-1.484,8.106-1.484s-4.508-4.754-6.363-5.235a3.47,3.47,0,0,0-4.23,2.489,3.469,3.469,0,0,0,2.488,4.23Z" fill="#4285f4"/>
        <path id="Path_155065" data-name="Path 155065" d="M-790.9,180.428c-.775,1.752-6.2,5.428-6.2,5.428s-.923-6.485-.148-8.239a3.47,3.47,0,0,1,4.579-1.767,3.47,3.47,0,0,1,1.767,4.578Z" fill="#4285f4"/>
        <path id="Path_155066" data-name="Path 155066" d="M-781.526,193.956c-1.264,1.44-7.539,3.326-7.539,3.326s1.059-6.464,2.325-7.9a3.469,3.469,0,0,1,4.9-.318,3.469,3.469,0,0,1,.318,4.9h0Z" fill="#4285f4"/>
        <path id="Path_155067" data-name="Path 155067" d="M-774.213,208.357c-1,1.633-6.868,4.552-6.868,4.552s-.049-6.551.954-8.185a3.474,3.474,0,0,1,4.777-1.144,3.474,3.474,0,0,1,1.144,4.777h-.007Z" fill="#4285f4"/>
      </g>
      <ellipse id="Ellipse_2193" data-name="Ellipse 2193" cx="19.422" cy="2.529" rx="19.422" ry="2.529" transform="translate(-772.205 307.846)" fill="#93c1d9"/>
      <g id="floor_flowers" data-name="floor flowers">
        <ellipse id="Ellipse_2194" data-name="Ellipse 2194" cx="5.9" cy="1.01" rx="5.9" ry="1.01" transform="translate(-797.914 309.17)" fill="#93c1d9"/>
        <path id="Path_155068" data-name="Path 155068" d="M-790.732,298.934s.956,1.252-.442,3.135-2.551,3.483-2.09,4.662c0,0,2.109-3.509,3.831-3.558S-788.841,301.045-790.732,298.934Z" fill="#4285f4"/>
        <path id="Path_155069" data-name="Path 155069" d="M-790.733,298.934a1.541,1.541,0,0,1,.2.394c1.675,1.968,2.569,3.8.958,3.85-1.5.044-3.3,2.725-3.73,3.4.014.053.031.1.05.155,0,0,2.109-3.509,3.831-3.558S-788.842,301.045-790.733,298.934Z" opacity="0.1"/>
        <path id="Path_155070" data-name="Path 155070" d="M-788.955,300.529c0,.441-.049.8-.11.8s-.111-.348-.111-.8.063-.233.124-.233S-788.955,300.089-788.955,300.529Z" fill="#ffd037"/>
        <path id="Path_155071" data-name="Path 155071" d="M-788.343,301.055c-.387.211-.724.338-.754.284s.261-.268.648-.479.233-.057.263,0S-787.956,300.844-788.343,301.055Z" fill="#ffd037"/>
        <path id="Path_155072" data-name="Path 155072" d="M-795.786,298.934s-.956,1.252.442,3.135,2.551,3.483,2.09,4.662c0,0-2.109-3.509-3.831-3.558S-797.673,301.045-795.786,298.934Z" fill="#4285f4"/>
        <path id="Path_155073" data-name="Path 155073" d="M-795.786,298.934a1.541,1.541,0,0,0-.2.394c-1.675,1.968-2.569,3.8-.958,3.85,1.5.044,3.3,2.725,3.73,3.4a1.341,1.341,0,0,1-.051.155s-2.109-3.509-3.831-3.558S-797.673,301.045-795.786,298.934Z" opacity="0.1"/>
        <path id="Path_155074" data-name="Path 155074" d="M-797.564,300.529c0,.441.049.8.11.8s.111-.348.111-.8-.063-.233-.124-.233S-797.564,300.089-797.564,300.529Z" fill="#ffd037"/>
        <path id="Path_155075" data-name="Path 155075" d="M-798.174,301.055c.387.211.723.338.752.284s-.261-.268-.648-.479-.233-.057-.263,0S-798.56,300.844-798.174,301.055Z" fill="#ffd037"/>
        <path id="Path_155076" data-name="Path 155076" d="M-797.259,306.571s2.675-.084,3.483-.656,4.113-1.261,4.313-.34,4.019,4.578,1,4.6-7.016-.47-7.821-.96S-797.259,306.571-797.259,306.571Z" fill="#a8a8a8"/>
        <path id="Path_155077" data-name="Path 155077" d="M-788.411,309.857c-3.02.024-7.016-.47-7.821-.96-.613-.374-.857-1.714-.939-2.33h-.089s.174,2.156.973,2.647,4.8.984,7.821.96c.871,0,1.174-.317,1.156-.777C-787.429,309.68-787.761,309.852-788.411,309.857Z" opacity="0.2"/>
        <path id="Path_155078" data-name="Path 155078" d="M-707.935,306.469s-7.363-.444-6.494,4.716a1.255,1.255,0,0,0,.653,1.325s.014-.381.756-.252a3.348,3.348,0,0,0,.8.038,1.657,1.657,0,0,0,.979-.4h0s2.069-.853,2.873-4.237c0,0,.6-.738.573-.928l-1.243.522a2.227,2.227,0,0,1,.091,1.642s-.04-1.609-.279-1.567c-.049,0-.646.31-.646.31a3.659,3.659,0,0,1,.174,2.7s.209-1.916-.408-2.583l-.871.51a3.866,3.866,0,0,1,.275,2.929s.148-2.018-.458-2.8l-.792.618a3.776,3.776,0,0,1,.312,2.682s-.063-2.349-.484-2.527a4.566,4.566,0,0,0-.8.871s.549,1.153.209,1.762c0,0-.209-1.567-.381-1.567a5.182,5.182,0,0,0-.763,1.742,3.792,3.792,0,0,1,.6-1.848,2.08,2.08,0,0,0-1.057.549s.108-.733,1.219-.8a4.756,4.756,0,0,1,.724-.834,4.526,4.526,0,0,0-1.79.206,2,2,0,0,1,1.994-.378l.782-.637a6.429,6.429,0,0,0-2.09.021,2.553,2.553,0,0,1,2.3-.174l.853-.508a7.77,7.77,0,0,0-2-.174,3.062,3.062,0,0,1,2.246.035l.61-.273s-.918-.174-1.186-.207-.282-.1-.282-.1a3.177,3.177,0,0,1,1.722.192A7.666,7.666,0,0,0-707.935,306.469Z" fill="#4285f4"/>
        <ellipse id="Ellipse_2195" data-name="Ellipse 2195" cx="5.21" cy="0.881" rx="5.21" ry="0.881" transform="translate(-718.217 312.078)" fill="#93c1d9"/>
        <path id="Path_155079" data-name="Path 155079" d="M-720.834,306.744s-4.152-.251-3.657,2.659a.711.711,0,0,0,.369.747s0-.216.427-.143a2.043,2.043,0,0,0,.449.023.955.955,0,0,0,.552-.228h0a3.3,3.3,0,0,0,1.621-2.389s.334-.416.322-.522l-.7.3a1.262,1.262,0,0,1,.05.926s-.023-.907-.157-.886c-.028,0-.364.174-.364.174a2.067,2.067,0,0,1,.1,1.52s.117-1.085-.23-1.457l-.493.289a2.18,2.18,0,0,1,.155,1.651,3.091,3.091,0,0,0-.259-1.581l-.446.348a2.133,2.133,0,0,1,.174,1.512s-.037-1.325-.273-1.425a2.772,2.772,0,0,0-.451.486s.31.651.118.994c0,0-.118-.883-.214-.886a2.934,2.934,0,0,0-.43.986,2.125,2.125,0,0,1,.334-1.045,1.174,1.174,0,0,0-.6.308s.061-.414.7-.449a2.649,2.649,0,0,1,.408-.47,2.58,2.58,0,0,0-1.01.115,1.137,1.137,0,0,1,1.125-.212l.441-.36a3.6,3.6,0,0,0-1.177.013,1.421,1.421,0,0,1,1.3-.094l.479-.287a4.3,4.3,0,0,0-1.125-.1,1.73,1.73,0,0,1,1.266.019l.348-.154s-.522-.1-.667-.117-.16-.058-.16-.058a1.8,1.8,0,0,1,.972.108A4.107,4.107,0,0,0-720.834,306.744Z" fill="#4285f4"/>
        <ellipse id="Ellipse_2196" data-name="Ellipse 2196" cx="2.938" cy="0.496" rx="2.938" ry="0.496" transform="translate(-726.631 309.908)" fill="#93c1d9"/>
        <path id="Path_155080" data-name="Path 155080" d="M-712.934,300.578s-5.01-.3-4.42,3.209a.857.857,0,0,0,.446.9s0-.259.514-.174a2.471,2.471,0,0,0,.543.026,1.144,1.144,0,0,0,.667-.275h0a3.971,3.971,0,0,0,1.956-2.885s.406-.5.39-.63l-.846.36a1.523,1.523,0,0,1,.063,1.118s-.028-1.1-.192-1.069c-.031,0-.439.211-.439.211a2.5,2.5,0,0,1,.122,1.835s.143-1.31-.277-1.759l-.6.348a2.63,2.63,0,0,1,.188,1.994,3.755,3.755,0,0,0-.314-1.916l-.54.42a2.569,2.569,0,0,1,.214,1.825s-.044-1.6-.331-1.72a3.284,3.284,0,0,0-.543.587s.374.785.141,1.2c0,0-.141-1.064-.258-1.069a3.487,3.487,0,0,0-.522,1.189,2.556,2.556,0,0,1,.4-1.257,1.421,1.421,0,0,0-.719.372s.073-.5.836-.543a3.29,3.29,0,0,1,.493-.568,3.108,3.108,0,0,0-1.219.141,1.368,1.368,0,0,1,1.358-.258l.533-.434a4.384,4.384,0,0,0-1.423.014,1.732,1.732,0,0,1,1.567-.113l.58-.348a5.732,5.732,0,0,0-1.358-.117,2.087,2.087,0,0,1,1.529.023l.414-.185s-.625-.124-.808-.143-.192-.07-.192-.07a2.174,2.174,0,0,1,1.172.131A5.135,5.135,0,0,0-712.934,300.578Z" fill="#4285f4"/>
        <ellipse id="Ellipse_2197" data-name="Ellipse 2197" cx="3.547" cy="0.599" rx="3.547" ry="0.599" transform="translate(-719.93 304.397)" fill="#93c1d9"/>
      </g>
      <g id="browser">
        <path id="Path_155081" data-name="Path 155081" d="M-634.378,266.4V181.225H-800.047v80.291a32.962,32.962,0,0,0,7.314,4.472q1.96.9,4,1.653h152.373Z" fill="url(#linear-gradient)"/>
        <path id="Path_155082" data-name="Path 155082" d="M-634.7,266.437V183.663H-799.685V261.7a33.322,33.322,0,0,0,7.279,4.353q1.954.871,3.991,1.606h151.743Z" fill="#fff"/>
        <rect id="Rectangle_30350" data-name="Rectangle 30350" width="164.984" height="4.378" transform="translate(-799.683 181.467)" fill="#5a5773"/>
      </g>
      <g id="buttons">
        <circle id="Ellipse_2198" data-name="Ellipse 2198" cx="1.132" cy="1.132" r="1.132" transform="translate(-797.52 182.524)" fill="#fff"/>
        <circle id="Ellipse_2199" data-name="Ellipse 2199" cx="1.132" cy="1.132" r="1.132" transform="translate(-794.473 182.524)" fill="#fff"/>
        <circle id="Ellipse_2200" data-name="Ellipse 2200" cx="1.132" cy="1.132" r="1.132" transform="translate(-791.425 182.524)" fill="#fff"/>
      </g>
      <g id="boxes">
        <rect id="Rectangle_30351" data-name="Rectangle 30351" width="27.253" height="17.125" transform="translate(-757.521 195.467)" fill="#4285f4"/>
        <rect id="Rectangle_30352" data-name="Rectangle 30352" width="27.253" height="17.125" transform="translate(-795.256 195.467)" fill="#d4d4d4"/>
        <rect id="Rectangle_30353" data-name="Rectangle 30353" width="27.253" height="17.125" transform="translate(-719.787 195.467)" fill="#d4d4d4"/>
        <rect id="Rectangle_30360" data-name="Rectangle 30360" width="27.253" height="17.125" transform="translate(-681.721 195.467)" fill="#d4d4d4"/>
        <rect id="Rectangle_30354" data-name="Rectangle 30354" width="27.253" height="17.125" transform="translate(-795.256 219.949)" fill="#d4d4d4"/>
        <rect id="Rectangle_30355" data-name="Rectangle 30355" width="27.253" height="17.125" transform="translate(-757.521 219.949)" fill="#e9e9e9"/>
        <rect id="Rectangle_30356" data-name="Rectangle 30356" width="27.253" height="17.125" transform="translate(-719.787 219.949)" fill="#e9e9e9"/>
        <rect id="Rectangle_30361" data-name="Rectangle 30361" width="27.253" height="17.125" transform="translate(-681.721 219.949)" fill="#d4d4d4"/>
        <rect id="Rectangle_30357" data-name="Rectangle 30357" width="27.253" height="17.125" transform="translate(-795.256 244.43)" fill="#e9e9e9"/>
        <rect id="Rectangle_30358" data-name="Rectangle 30358" width="27.253" height="17.125" transform="translate(-757.521 244.43)" fill="#d4d4d4"/>
        <rect id="Rectangle_30359" data-name="Rectangle 30359" width="27.253" height="17.125" transform="translate(-719.787 244.43)" fill="#d4d4d4"/>
        <rect id="Rectangle_30362" data-name="Rectangle 30362" width="27.253" height="17.125" transform="translate(-681.721 244.43)" fill="#e9e9e9"/>
      </g>
      <g id="woman">
        <path id="Path_155083" data-name="Path 155083" d="M-735.141,238.378s-4.9-8.947-4.07-10.4a19.787,19.787,0,0,0,1.433-3.563s1.808-1.236,1.808-1.741,1.431-1.674,2.185-2.182.376-2.91,0-3.2a6.633,6.633,0,0,1-.974-1.31s.522-1.454,0-1.891.077-.871,0-1.31a17.729,17.729,0,0,1,0-2.036,3.276,3.276,0,0,0-1.926-1.393l-.056-.23-.322-1.357s1.567-3-.975-4.576a4.267,4.267,0,0,0-.562-.3,1.932,1.932,0,0,0-.014-.2,12.351,12.351,0,0,0-.369-2.3c-.132-.421-.3-.705-.522-.641a.353.353,0,0,0-.143.082,1.587,1.587,0,0,0-.27.319h0a.075.075,0,0,1-.012.019,5.454,5.454,0,0,0-.6,1.663,9.74,9.74,0,0,0-.174,1.045,5.837,5.837,0,0,0-.291.646,3.725,3.725,0,0,0-.012,3.208c.557.871,1.308,2.067,1.853,2.938l.017.028.033.054-.058.037v.134l.051.733.421,6.335a2.69,2.69,0,0,0-.387-.082,3.524,3.524,0,0,0-.562-.037c-.367-1.444-1.376-2.786-1.567-4.294a3.86,3.86,0,0,1-.03-.455c.016-.949.253-1.9.233-2.849,0-.174,0-.348-.017-.522h0a1.4,1.4,0,0,0-.014-.145,4.28,4.28,0,0,0-2.328-3.244c-.437-.218-.911-.362-1.336-.6a23.654,23.654,0,0,1-2.5-2.224,2.767,2.767,0,0,0-2.394-.522,11.043,11.043,0,0,0-1.165.24h0a10.518,10.518,0,0,0-2.666,1.108c-.113.068-.226.138-.334.218a1.474,1.474,0,0,0-.538.629,1.638,1.638,0,0,0-.084.677c0,.165,0,.334.01.5-.049,2.786-3.051,4.942-3.3,7.662,0,.064-.01.129-.014.193v.3h0v.218c.043,1.193.663,2.3.777,3.492.01.106.016.211.017.317a5.268,5.268,0,0,1-.308,1.6,4.7,4.7,0,0,0-1.081.439,6.738,6.738,0,0,0-3.161,3.539,5.206,5.206,0,0,0-.228,1.553,32.439,32.439,0,0,1-.509,5.546,10.471,10.471,0,0,1-.32,1.364.319.319,0,0,0-.01.134l-.362,4.7-.064.827-.091,1.177s.026.071.064.192a5.428,5.428,0,0,1,.143.543,2.932,2.932,0,0,1,.047,1.219.846.846,0,0,1-.254.448.234.234,0,0,0-.03.033,3.591,3.591,0,0,0-.275,1.2c-.031.244-.061.522-.091.811-.174,1.855-.282,4.63-.348,6.926-.063,2.264-.085,4.052-.085,4.052a4.6,4.6,0,0,0,.935.463c-.024.061-.051.124-.075.19a9.166,9.166,0,0,0-.568,2.393,4.173,4.173,0,0,0,2.72,4.592,3.857,3.857,0,0,0,.468.16,1.485,1.485,0,0,0,1.191-.073c0,.1.012.2.017.3.024.425.045.813.056,1.139.075,2.037.58,5.6.58,5.6a7.434,7.434,0,0,1,.023,1.891,10.2,10.2,0,0,0,0,2.182s.522.871,0,1.31-.677,2.612-.522,2.91a.1.1,0,0,1,.009.033c.115.723-.535,11.46-.535,11.46s-.615,1.644-1.1,3.35c-.477,1.661-.836,3.382-.394,3.7a3.69,3.69,0,0,0,1.377.373c0,.071-.01.143-.017.216a6.217,6.217,0,0,1-.3,1.8,21.07,21.07,0,0,0-.531,3.831l-.01.138a12.8,12.8,0,0,0-.561,1.626s-1.667,4.179-1.1,5.264a.885.885,0,0,0,.207.256h0a.492.492,0,0,0,.054.049c.8.643,2.814.777,3.544.806l-.028,1.034v.038h.949v-.026c0-.131.021-.73.052-1.531,0-.143.01-.293.017-.446,0-.12.012-.242.017-.367a6.43,6.43,0,0,0,.413-2.325,10.223,10.223,0,0,1,.366-2.7,7.507,7.507,0,0,1,.482-1.315,6.008,6.008,0,0,0-.117-2.677,1.941,1.941,0,0,0-.348-.6v-.348a10.078,10.078,0,0,1,.223-2.232.2.2,0,0,1,0-.035c.014-.061.03-.118.045-.174l.01-.038.308.01c.946.026,1.64.026,1.64.026a35.443,35.443,0,0,0,.679-5.527v-.226a21.532,21.532,0,0,1,.456-3.92l.608-5.895a3.105,3.105,0,0,1,0-1.741c.186-.449.571-1.283.839-1.858.125-.266.225-.475.266-.566l.024-.049a1.156,1.156,0,0,1-.268-.134h0c-.246-.164-.465-.484.27-.956,1.13-.728.754-2.546.754-2.546a1.306,1.306,0,0,1,.059-1.236c.392-.582,0-2.764,0-2.764a9.112,9.112,0,0,0,.773-1.82c.28-.871.989-5.128,1.323-7.182.11-.674.174-1.109.174-1.109l.01.106.01.115h0l.094.97.012.129.174,1.834a56.484,56.484,0,0,1,.131,6.71v.035a2.253,2.253,0,0,1-.127.573c-.4.906-.327,4.5-.306,5.3v.16a3.185,3.185,0,0,0-.212,1.229h0a.779.779,0,0,0,.138.366.929.929,0,0,1,.134.566v.017a2.092,2.092,0,0,1-.021.251,4.8,4.8,0,0,1-.265.986,3.6,3.6,0,0,0-.251,1.618h0a.5.5,0,0,0,.1.2.464.464,0,0,1,.057.209.058.058,0,0,0,0,.019c.141,1.172-.223,6.346-.439,9.177-.087,1.118-.15,1.87-.15,1.87l-.6,6.182.059.042c.068.049.2.132.366.233v.014l-.026.186c-.085.6-.2,1.289-.326,1.818-.01.04-.019.078-.03.115a1.663,1.663,0,0,0-.639.256c-1.268,2.252-.707,4.037,0,4.556a1.831,1.831,0,0,1,.427,1.064l.174,2.245v.258a.646.646,0,0,0,.033.2l.054.681.073.947h.578V308.69h.031c.913.031,2.384.07,3.025.019h.017a1.146,1.146,0,0,0,.174-.019.439.439,0,0,0,.1-.028c.34-.164,1.186-2.563.423-3.108a3.516,3.516,0,0,1-.932-2.09c-.066-.2-.132-.394-.2-.576v-.118a9.564,9.564,0,0,1,.091-2,15.227,15.227,0,0,0,.2-2.384v-.221a2.933,2.933,0,0,0,.388-.127l.028-.012a2.751,2.751,0,0,0,.65-.385l2.131-9.445.225-1.1,1.28-6.25s-.451-2.182,0-2.544c.165-.132.211-.7.2-1.35-.017-1.142-.2-2.579-.2-2.579s.6-.946.906-1.527a4.751,4.751,0,0,0,0-2.109l.594-3.5A33.072,33.072,0,0,1-737.7,259.6c1.219-2.569.442-9.5-.348-13.2-.021-.1-.042-.19-.063-.28V246.1c.373-.185.829-.408,1.316-.641l.185-.087c.618-.291,1.273-.59,1.86-.839l.038-.016a12.894,12.894,0,0,1,1.294-.484,2.169,2.169,0,0,1,.4-.082C-731.977,243.9-735.141,238.378-735.141,238.378ZM-758.7,250.211h.313c-.037.068-.071.138-.106.207-.021.042-.042.082-.061.124-.115.239-.221.482-.308.721.035-.258.078-.538.127-.838C-758.727,250.359-758.715,250.28-758.7,250.211Zm-.846,4.54a.1.1,0,0,0,0-.024l-.026-.082c-.019-.056-.037-.111-.054-.174.108-.033.218-.069.329-.11h.023v.057c-.009.082-.019.164-.03.244h0a.164.164,0,0,1,0,.031,1.745,1.745,0,0,1-.023.192c-.016.125-.031.247-.045.364-.033-.11-.066-.218-.1-.324a.843.843,0,0,1-.076-.174Z" fill="url(#linear-gradient-2)"/>
        <path id="Path_155084" data-name="Path 155084" d="M-736.948,210.467l-1.881.665-.683-1.132c-.522-.871-1.247-2.062-1.781-2.927-.944-1.522.291-3.842.291-3.842s.223-2.328,1.017-3.046,1.015,3.046,1.015,3.046c3.189,1.449,1.48,4.857,1.48,4.857l.31,1.351Z" fill="#efb7b9"/>
        <path id="Path_155085" data-name="Path 155085" d="M-736.948,210.467l-1.881.665-.683-1.132v-.1a3.278,3.278,0,0,1,2.335-.461Z" opacity="0.1"/>
        <path id="Path_155086" data-name="Path 155086" d="M-739.984,218.094l.942-.8-.472-7.178a2.982,2.982,0,0,1,4.143.787c.035.051.068.1.1.155a18.552,18.552,0,0,0,0,2.03c.073.435-.507.871,0,1.3s0,1.886,0,1.886a6.507,6.507,0,0,0,.935,1.3c.362.289.726,2.684,0,3.19s-2.088,1.668-2.088,2.175-1.741,1.75-1.741,1.75l-1.529-2.022Z" fill="#ff6484"/>
        <path id="Path_155087" data-name="Path 155087" d="M-760.358,261.668c-3.514-1.491-2.734-5.132-2.072-6.966a9.474,9.474,0,0,1,.465-1.087l1.971-1.2s.4,1.026.832,2.4C-758.164,258.021-757.017,263.089-760.358,261.668Z" fill="#efb7b9"/>
        <path id="Path_155088" data-name="Path 155088" d="M-755.528,294.892a5.935,5.935,0,0,0-.522,1.466,10.606,10.606,0,0,0-.226,2.5c.014.58.063.96.063.96l-3.915,2.692s.023-.315.061-.778a21.724,21.724,0,0,1,.51-3.817,6.359,6.359,0,0,0,.294-1.8c.061-.766.085-1.438.085-1.438S-754.468,292.908-755.528,294.892Z" fill="#efb7b9"/>
        <path id="Path_155089" data-name="Path 155089" d="M-746.281,296.824s0,.749-.028,1.62a16.6,16.6,0,0,1-.19,2.377,9.807,9.807,0,0,0-.089,1.989c.026.871.089,1.654.089,1.654s-4-3.779-3.589-4.078a1.85,1.85,0,0,0,.317-.831c.122-.522.232-1.219.313-1.811.1-.7.158-1.273.158-1.273Z" fill="#efb7b9"/>
        <path id="Path_155090" data-name="Path 155090" d="M-755.528,294.892a5.935,5.935,0,0,0-.522,1.466,32.029,32.029,0,0,1-3.2-.245c.059-.749.085-1.438.085-1.438S-754.468,292.908-755.528,294.892Z" opacity="0.1"/>
        <path id="Path_155091" data-name="Path 155091" d="M-746.283,296.823s0,.749-.028,1.62a4.358,4.358,0,0,1-3.148-.7c.1-.705.158-1.273.158-1.273Z" opacity="0.1"/>
        <path id="Path_155092" data-name="Path 155092" d="M-738.1,259.784a33.81,33.81,0,0,0-2.248,7.613l-.58,3.483a4.893,4.893,0,0,1,0,2.1c-.291.58-.871,1.524-.871,1.524s.435,3.552,0,3.915,0,2.537,0,2.537l-1.451,7.314-2.03,9.424c-1.957,1.6-4.562-.434-4.562-.434l.575-6.163s.871-10.8.508-11.239.145-1.813.145-1.813.509-1.306.146-1.813.071-1.6.071-1.6-.145-4.423.291-5.438,0-7.3,0-7.3l-.174-1.956-.1-1.083-.009-.106s-.066.434-.174,1.106c-.32,2.046-1,6.286-1.273,7.159a9.327,9.327,0,0,1-.744,1.813s.376,2.175,0,2.755a1.35,1.35,0,0,0-.057,1.233s.362,1.813-.726,2.537,0,1.088,0,1.088-.8,1.741-1.087,2.464a3.218,3.218,0,0,0,0,1.741l-.58,5.872a21.252,21.252,0,0,0-.435,4.132,36.308,36.308,0,0,1-.653,5.51s-5.583,0-6.443-.653,1.437-7.023,1.437-7.023.653-11.166.507-11.455,0-2.466.508-2.9,0-1.306,0-1.306a10.686,10.686,0,0,1,0-2.175,7.727,7.727,0,0,0-.023-1.886s-.486-3.552-.557-5.583-.435-6.6-.435-6.6.38-2.825.437-4.169a4.746,4.746,0,0,1,.522-1.694,15.149,15.149,0,0,1,1.08-1.9s17.179-5.078,17.9-4.573a6.562,6.562,0,0,1,.745,2.363C-737.675,250.311-736.926,257.224-738.1,259.784Z" fill="#444053"/>
        <circle id="Ellipse_2201" data-name="Ellipse 2201" cx="5.003" cy="5.003" r="5.003" transform="translate(-753.687 205.464)" fill="#a1616a"/>
        <path id="Path_155093" data-name="Path 155093" d="M-738.441,246.632l-.963.5s-8.12,3.843-10.429,3.626c-1.787-.174-6.347-.075-8.334-.026a15.142,15.142,0,0,1,1.08-1.895s17.181-5.076,17.9-4.571A6.605,6.605,0,0,1-738.441,246.632Z" opacity="0.1"/>
        <path id="Path_155094" data-name="Path 155094" d="M-752.166,218.456s-4.634.731-5.728,1.449a5.943,5.943,0,0,0-3.26,5.076,28.784,28.784,0,0,1-.8,6.887c-.291.869,4.568,7.9,4.568,7.9l-1.741,10.659s6.966-.218,9.285,0,10.436-3.626,10.436-3.626,4.785-2.537,5.8-2.612-2.03-5.583-2.03-5.583-4.714-8.916-3.916-10.367a20.013,20.013,0,0,0,1.383-3.552l-.871-7.394a2.843,2.843,0,0,0-2.393.362c-1.088.8-4.785.362-4.785.362Z" fill="#ff6484"/>
        <path id="Path_155095" data-name="Path 155095" d="M-760.031,231.362l-1.818.507-.5,6.823s.653,1.813,0,2.393-.8,12.979-.8,12.979a4.742,4.742,0,0,0,4.568.362s-.362-1.377.726-6.38a39.9,39.9,0,0,0,1.087-7.54s0-6.236.509-7.251,0-3.553,0-3.553-1.015-1.377-.944-1.884S-760.031,231.362-760.031,231.362Z" opacity="0.1"/>
        <path id="Path_155096" data-name="Path 155096" d="M-759.162,254.825a4.627,4.627,0,0,1-3.269-.119,9.475,9.475,0,0,1,.465-1.087l1.971-1.2S-759.586,253.45-759.162,254.825Z" opacity="0.1"/>
        <path id="Path_155097" data-name="Path 155097" d="M-760.141,231.362l-1.813.507-.507,6.823s.653,1.813,0,2.393-.8,12.979-.8,12.979a4.736,4.736,0,0,0,4.568.355s-.362-1.377.724-6.381a40.149,40.149,0,0,0,1.088-7.54s0-6.236.507-7.251,0-3.552,0-3.552-1.015-1.377-.942-1.884S-760.141,231.362-760.141,231.362Z" fill="#ff6484"/>
        <path id="Path_155098" data-name="Path 155098" d="M-741.579,232.449s-.942,8.12-3.7,9.644C-745.278,242.093-739.115,240.353-741.579,232.449Z" opacity="0.1"/>
        <path id="Path_155099" data-name="Path 155099" d="M-755.427,233.175s3.406,1.667,2.612,2.826S-755.427,233.175-755.427,233.175Z" opacity="0.1"/>
        <path id="Path_155100" data-name="Path 155100" d="M-755.427,236.51s2.175,2.248,1.741,3.046S-755.427,236.51-755.427,236.51Z" opacity="0.1"/>
        <path id="Path_155101" data-name="Path 155101" d="M-737.882,217.877a7.732,7.732,0,0,1,.935,2.393C-736.865,221.214-737.882,217.877-737.882,217.877Z" opacity="0.1"/>
        <path id="Path_155102" data-name="Path 155102" d="M-737.882,215.919s.428-.364,1.522,0S-737.882,215.919-737.882,215.919Z" opacity="0.1"/>
        <path id="Path_155103" data-name="Path 155103" d="M-742.069,258.3a10.075,10.075,0,0,1-5.3-.679l-.914,2.34-.1-1.083c.15-.909.441-1.883,1.015-2.128A8.8,8.8,0,0,0-742.069,258.3Z" opacity="0.1"/>
        <path id="Path_155104" data-name="Path 155104" d="M-756.942,261.342a33,33,0,0,0,5.71.761Z" opacity="0.1"/>
        <path id="Path_155105" data-name="Path 155105" d="M-756.479,262.511a9.218,9.218,0,0,1,2.854.3Z" opacity="0.1"/>
        <path id="Path_155106" data-name="Path 155106" d="M-756.261,263.3a16.959,16.959,0,0,0,2.636.348Z" opacity="0.1"/>
        <path id="Path_155107" data-name="Path 155107" d="M-756.371,273.278c.082-.054,3.807-.925,4.27-.3Z" opacity="0.1"/>
        <path id="Path_155108" data-name="Path 155108" d="M-756.371,274.42s3.236-.381,3.317,0S-756.371,274.42-756.371,274.42Z" opacity="0.1"/>
        <path id="Path_155109" data-name="Path 155109" d="M-756.371,275.453a22.157,22.157,0,0,1,3.861-.54C-752.1,275.087-756.371,275.453-756.371,275.453Z" opacity="0.1"/>
        <path id="Path_155110" data-name="Path 155110" d="M-756.207,299.815l-3.915,2.689s.023-.315.061-.778a10.538,10.538,0,0,1,2-3.272,1.6,1.6,0,0,1,1.787.4C-756.256,299.434-756.207,299.815-756.207,299.815Z" opacity="0.1"/>
        <path id="Path_155111" data-name="Path 155111" d="M-755.826,302.234a9.714,9.714,0,0,0-.817,4.005,6.214,6.214,0,0,1-.829,3.223,3.268,3.268,0,0,1-.275.394s-2.72-.023-3.673-.811a.937.937,0,0,1-.256-.313c-.545-1.087,1.061-5.247,1.061-5.247a11.557,11.557,0,0,1,2.555-4.921C-755.011,297.774-755.826,302.234-755.826,302.234Z" fill="#444053"/>
        <path id="Path_155112" data-name="Path 155112" d="M-757.471,309.453a3.154,3.154,0,0,1-.275.394s-2.72-.023-3.673-.811c.468-1.55,1.963-6.24,2.663-5.442C-758.1,304.342-757.64,307.945-757.471,309.453Z" opacity="0.1"/>
        <path id="Path_155113" data-name="Path 155113" d="M-757.844,303.885l-.19,7.025h.913s.148-6.163.556-7.025S-757.844,303.885-757.844,303.885Z" fill="#444053"/>
        <path id="Path_155114" data-name="Path 155114" d="M-746.5,304.463s-4-3.779-3.589-4.078a1.851,1.851,0,0,0,.317-.831c.768-.134,2.09.186,3.183,3.255C-746.563,303.679-746.5,304.463-746.5,304.463Z" opacity="0.1"/>
        <path id="Path_155115" data-name="Path 155115" d="M-745.9,308.677a.39.39,0,0,1-.1.028,28.453,28.453,0,0,1-3.173,0,.686.686,0,0,1-.663-.684c0-.261,0-.58-.021-.919-.045-1.073-.174-2.349-.559-2.637-.681-.522-1.219-2.3,0-4.54,0,0,2.337-1.785,4.023,3.58a3.563,3.563,0,0,0,.9,2.074C-744.762,306.122-745.576,308.522-745.9,308.677Z" fill="#444053"/>
        <path id="Path_155116" data-name="Path 155116" d="M-746,308.7a28.453,28.453,0,0,1-3.173,0,.686.686,0,0,1-.663-.684c0-.261,0-.58-.021-.919.294-1.3.717-2.637,1.263-2.941C-748.594,304.158-746.945,303.971-746,308.7Z" opacity="0.1"/>
        <path id="Path_155117" data-name="Path 155117" d="M-750.119,304l.439,5.846h.557V303.5Z" fill="#444053"/>
        <path id="Path_155118" data-name="Path 155118" d="M-748.758,202.495a10.007,10.007,0,0,0-4.461,1.433,1.86,1.86,0,0,0-.841.845,2.809,2.809,0,0,0-.068,1.045c.047,3-3.3,5.268-3.192,8.265.042,1.189.639,2.3.749,3.483.183,1.978-.987,3.8-2.109,5.437a4.5,4.5,0,0,0,3.178-1.054,24.1,24.1,0,0,1,.444,12.146h1.6a1.221,1.221,0,0,1,.469.057,1.176,1.176,0,0,1,.371.277,6.11,6.11,0,0,1,1.931,5.736l3.413-1.28a10.152,10.152,0,0,0,2.356-1.123,3.4,3.4,0,0,0,1.456-2.1c.092-.522.063-1.146.493-1.449a2.69,2.69,0,0,1,.672-.249,2.943,2.943,0,0,0,1.543-2.389,13.753,13.753,0,0,0,.218-3.634c-.151-2.037-.754-4.106-.258-6.1a17.154,17.154,0,0,0,.954-3.309c.082-1.9-1.4-3.537-1.625-5.426-.155-1.316.32-2.649.165-3.965a4.259,4.259,0,0,0-2.241-3.234c-.42-.216-.871-.36-1.285-.6a22.945,22.945,0,0,1-2.408-2.215c-.859-.679-2.288-.935-2.934-.052Z" opacity="0.1"/>
        <path id="Path_155119" data-name="Path 155119" d="M-748.758,202.277a10.007,10.007,0,0,0-4.461,1.433,1.86,1.86,0,0,0-.841.845,2.809,2.809,0,0,0-.068,1.045c.047,3-3.3,5.268-3.192,8.266.042,1.188.639,2.3.749,3.483.183,1.978-.987,3.8-2.109,5.438a4.524,4.524,0,0,0,3.178-1.054,24.092,24.092,0,0,1,.444,12.143h1.6a1.222,1.222,0,0,1,.469.059,1.155,1.155,0,0,1,.371.275,6.11,6.11,0,0,1,1.931,5.736l3.413-1.28a10.152,10.152,0,0,0,2.356-1.123,3.4,3.4,0,0,0,1.456-2.1c.092-.522.063-1.146.493-1.449a2.69,2.69,0,0,1,.672-.249,2.943,2.943,0,0,0,1.543-2.389,13.783,13.783,0,0,0,.223-3.638c-.152-2.037-.754-4.106-.258-6.1a17.155,17.155,0,0,0,.954-3.309c.082-1.9-1.4-3.537-1.625-5.426-.155-1.316.32-2.647.165-3.965a4.261,4.261,0,0,0-2.241-3.234c-.42-.216-.871-.36-1.285-.6a23.17,23.17,0,0,1-2.408-2.217c-.859-.679-2.288-.935-2.934-.052Z" fill="#925978"/>
        <g id="Group_167308" data-name="Group 167308" opacity="0.1">
          <path id="Path_155120" data-name="Path 155120" d="M-754.132,204.875a1.925,1.925,0,0,0-.01.2C-754.137,205.011-754.133,204.943-754.132,204.875Z"/>
          <path id="Path_155121" data-name="Path 155121" d="M-741.475,211.846a18.586,18.586,0,0,0,.192-2.769A20.05,20.05,0,0,0-741.475,211.846Z"/>
          <path id="Path_155122" data-name="Path 155122" d="M-756.571,216.435c-.1-1.08-.6-2.09-.723-3.168a4.015,4.015,0,0,0-.026.6c.042,1.175.625,2.274.744,3.444A4.662,4.662,0,0,0-756.571,216.435Z"/>
          <path id="Path_155123" data-name="Path 155123" d="M-740.777,220.723a7.453,7.453,0,0,0-.174,2.163,6.567,6.567,0,0,1,.174-1.256,17.155,17.155,0,0,0,.954-3.309,3.584,3.584,0,0,0-.028-.613A29.061,29.061,0,0,1-740.777,220.723Z"/>
          <path id="Path_155124" data-name="Path 155124" d="M-755.5,220.818a4.526,4.526,0,0,1-2.57,1.045c-.2.31-.4.613-.608.912a4.524,4.524,0,0,0,3.178-1.054,24.031,24.031,0,0,1,1.013,6.522A24.077,24.077,0,0,0-755.5,220.818Z"/>
          <path id="Path_155125" data-name="Path 155125" d="M-740.745,230.446a2.937,2.937,0,0,1-1.543,2.387,2.644,2.644,0,0,0-.672.251c-.43.3-.4.93-.493,1.449a3.356,3.356,0,0,1-1.456,2.09,10.449,10.449,0,0,1-2.356,1.125l-3.256,1.219a4.512,4.512,0,0,1-.157.966l3.413-1.28a10.154,10.154,0,0,0,2.356-1.123,3.4,3.4,0,0,0,1.456-2.1c.092-.522.063-1.146.493-1.449a2.692,2.692,0,0,1,.672-.249,2.943,2.943,0,0,0,1.543-2.389,13.677,13.677,0,0,0,.246-3.082A13.58,13.58,0,0,1-740.745,230.446Z"/>
          <path id="Path_155126" data-name="Path 155126" d="M-752.61,233.293a1.161,1.161,0,0,0-.371-.277,1.259,1.259,0,0,0-.468-.059h-1.423c-.056.3-.115.606-.174.907h1.6a1.219,1.219,0,0,1,.468.059,1.154,1.154,0,0,1,.371.275,6.9,6.9,0,0,1,2.071,4.078A6.5,6.5,0,0,0-752.61,233.293Z"/>
        </g>
        <path id="Path_155127" data-name="Path 155127" d="M-760.566,239.228s1.3-.543,1.585,0S-760.566,239.228-760.566,239.228Z" opacity="0.1"/>
        <path id="Path_155128" data-name="Path 155128" d="M-760.108,240.16s1.3-.543,1.586,0S-760.108,240.16-760.108,240.16Z" opacity="0.1"/>
      </g>
      <g id="leaves">
        <path id="Path_155129" data-name="Path 155129" d="M-679.81,169.851s-6.626-.4-5.844,4.244a1.132,1.132,0,0,0,.589,1.193s.012-.348.679-.228a3.036,3.036,0,0,0,.719.035,1.487,1.487,0,0,0,.878-.364h0s1.862-.768,2.586-3.812c0,0,.536-.665.522-.836l-1.118.479a2,2,0,0,1,.08,1.477s-.035-1.449-.251-1.414c-.044,0-.58.279-.58.279a3.308,3.308,0,0,1,.16,2.428s.188-1.731-.366-2.325l-.791.468a3.476,3.476,0,0,1,.247,2.637,4.937,4.937,0,0,0-.413-2.523l-.714.556a3.394,3.394,0,0,1,.287,2.4s-.057-2.116-.437-2.274a4.332,4.332,0,0,0-.717.777s.493,1.045.186,1.585c0,0-.188-1.407-.348-1.414a4.694,4.694,0,0,0-.686,1.567,3.4,3.4,0,0,1,.535-1.663,1.854,1.854,0,0,0-.951.495s.1-.66,1.1-.719a4.352,4.352,0,0,1,.651-.751,4.091,4.091,0,0,0-1.611.186,1.819,1.819,0,0,1,1.8-.348l.7-.575a6.024,6.024,0,0,0-1.881.019,2.29,2.29,0,0,1,2.071-.15l.766-.458a6.893,6.893,0,0,0-1.8-.155,2.753,2.753,0,0,1,2.02.031l.549-.246s-.825-.162-1.066-.188-.254-.092-.254-.092a2.846,2.846,0,0,1,1.548.174A7.008,7.008,0,0,0-679.81,169.851Z" fill="#81bcdb"/>
        <path id="Path_155130" data-name="Path 155130" d="M-689.253,166.086s-5.573,3.606-2.192,6.882a1.133,1.133,0,0,0,1.181.613s-.2-.286.413-.587a3.016,3.016,0,0,0,.6-.4,1.5,1.5,0,0,0,.493-.813h0s1.045-1.724-.174-4.6a2.984,2.984,0,0,0-.08-.979l-.616,1.045a2,2,0,0,1,.94,1.141s-.886-1.144-1.045-.989c-.031.031-.3.569-.3.569a3.3,3.3,0,0,1,1.559,1.858s-.871-1.506-1.674-1.654l-.362.836a3.48,3.48,0,0,1,1.762,1.976s-.97-1.543-1.828-1.788l-.244.871s1.428.724,1.656,1.776c0,0-1.3-1.668-1.7-1.567a4.431,4.431,0,0,0-.118,1.045s1.014.543,1.09,1.167c0,0-.986-1.022-1.113-.937a4.687,4.687,0,0,0,.378,1.673,3.392,3.392,0,0,1-.554-1.656,1.857,1.857,0,0,0-.474.961s-.313-.589.465-1.233a4.777,4.777,0,0,1,.078-.991,4.05,4.05,0,0,0-1.188,1.1s.063-.818,1.245-1.337l.226-.879a5.817,5.817,0,0,0-1.5,1.13s.193-.825,1.578-1.348l.348-.824a7.131,7.131,0,0,0-1.539.94,2.771,2.771,0,0,1,1.647-1.172l.3-.522s-.761.359-.97.481-.259.077-.259.077a2.859,2.859,0,0,1,1.35-.778A7,7,0,0,0-689.253,166.086Z" fill="#81bcdb"/>
        <path id="Path_155131" data-name="Path 155131" d="M-697.733,170.288s-3.331,5.747,1.167,7.128a1.124,1.124,0,0,0,1.331,0s-.3-.164.1-.709a3.048,3.048,0,0,0,.348-.627,1.5,1.5,0,0,0,.071-.949h0s.148-2.01-2.246-4.024c0,0-.348-.777-.522-.834l-.075,1.219a2.01,2.01,0,0,1,1.357.59s-1.31-.618-1.376-.411c-.014.042-.012.644-.012.644a3.366,3.366,0,0,1,2.262.949s-1.463-.946-2.241-.716l.056.909a3.474,3.474,0,0,1,2.466.963,4.959,4.959,0,0,0-2.438-.764l.174.886a3.407,3.407,0,0,1,2.281.832s-1.916-.9-2.227-.632a4.293,4.293,0,0,0,.371.991s1.149.024,1.5.545c0,0-1.343-.465-1.418-.329a4.7,4.7,0,0,0,1.1,1.318,3.392,3.392,0,0,1-1.245-1.219,1.868,1.868,0,0,0,.014,1.071s-.547-.381-.146-1.31a4.424,4.424,0,0,1-.378-.918,4.152,4.152,0,0,0-.557,1.522,1.806,1.806,0,0,1,.5-1.755l-.2-.888a5.807,5.807,0,0,0-.827,1.689,2.285,2.285,0,0,1,.8-1.916l-.066-.89a6.964,6.964,0,0,0-.944,1.536,2.751,2.751,0,0,1,.935-1.792l.026-.6s-.522.663-.646.871-.2.178-.2.178a2.866,2.866,0,0,1,.85-1.308A7.152,7.152,0,0,0-697.733,170.288Z" fill="#81bcdb"/>
      </g>
    </g>
  </g>
</svg>
