<svg xmlns="http://www.w3.org/2000/svg" xmlns:xlink="http://www.w3.org/1999/xlink" width="262" height="196" viewBox="0 0 262 196">
  <defs>
    <clipPath id="clip-path">
      <path id="Path_158047" data-name="Path 158047" d="M-290.786,248.55c-19.33-57.764,30.865-86.137,68.616-79.283,37.729,6.99,31.444,25.274,92.816,25.313,61.255-.039,68.094,67.8,33.432,91.382C-130.407,309.763-271.5,306.233-290.786,248.55Z" fill="none"/>
    </clipPath>
    <clipPath id="clip-path-2">
      <rect id="Rectangle_30823" data-name="Rectangle 30823" width="1269.8" height="810.182" transform="translate(-358.287 -426.787)" fill="none"/>
    </clipPath>
    <clipPath id="clip-path-3">
      <rect id="Rectangle_30822" data-name="Rectangle 30822" width="221.61" height="135.322" transform="translate(-295.88 167.356)" fill="none"/>
    </clipPath>
    <clipPath id="clip-path-4">
      <rect id="Rectangle_30815" data-name="Rectangle 30815" width="221.609" height="133.094" transform="translate(-295.88 167.515)" fill="none"/>
    </clipPath>
    <clipPath id="clip-path-5">
      <path id="Path_158041" data-name="Path 158041" d="M-202.056,217.5a6.968,6.968,0,0,0,3.551-.956,7.281,7.281,0,0,0,2.625-2.558,6.548,6.548,0,0,0,.973-3.467,6.672,6.672,0,0,0-.973-3.49,7.212,7.212,0,0,0-2.625-2.582,6.979,6.979,0,0,0-3.551-.957,6.849,6.849,0,0,0-3.525.957,7.285,7.285,0,0,0-2.6,2.582,6.679,6.679,0,0,0-.971,3.49,6.564,6.564,0,0,0,.971,3.467,7.348,7.348,0,0,0,2.6,2.558A6.829,6.829,0,0,0-202.056,217.5Zm18.435-4.609,5.126,3.837a1.085,1.085,0,0,1,.414.734,1.289,1.289,0,0,1-.177.847l-4.951,8.128a1.064,1.064,0,0,1-.619.509,1.366,1.366,0,0,1-.854-.057l-6.069-2.314a19.531,19.531,0,0,1-4.184,2.314l-.885,6.152a1.419,1.419,0,0,1-.443.734,1.091,1.091,0,0,1-.735.282h-9.9a1.092,1.092,0,0,1-.736-.282,1.137,1.137,0,0,1-.384-.734l-.942-6.152a14.983,14.983,0,0,1-4.126-2.314l-6.129,2.314a1.071,1.071,0,0,1-1.456-.418l-.017-.034-4.952-8.128a1.3,1.3,0,0,1-.176-.847,1.079,1.079,0,0,1,.414-.734l5.185-3.838a16.883,16.883,0,0,1-.118-2.314,16.883,16.883,0,0,1,.118-2.314l-5.185-3.839a1.075,1.075,0,0,1-.414-.733,1.3,1.3,0,0,1,.176-.847l4.952-8.128a1.07,1.07,0,0,1,1.439-.47l.034.018,6.129,2.314a19.2,19.2,0,0,1,4.126-2.314l.942-6.153a1.136,1.136,0,0,1,.384-.733,1.087,1.087,0,0,1,.736-.282h9.9a1.091,1.091,0,0,1,.735.282,1.42,1.42,0,0,1,.443.733l.885,6.153a15.515,15.515,0,0,1,4.184,2.314l6.069-2.314a1.366,1.366,0,0,1,.854-.057,1.061,1.061,0,0,1,.619.509l4.951,8.128a1.29,1.29,0,0,1,.177.847,1.081,1.081,0,0,1-.414.733l-5.126,3.839a17.036,17.036,0,0,1,.118,2.314,17.088,17.088,0,0,1-.118,2.317Z" fill="none"/>
    </clipPath>
    <clipPath id="clip-path-7">
      <path id="Path_158042" data-name="Path 158042" d="M-248.06,205.476a18.692,18.692,0,0,0,3.741-5.918,18.817,18.817,0,0,0,1.325-7.01,18.788,18.788,0,0,0-1.527-7.469,19.174,19.174,0,0,0-4.259-6.234,18.6,18.6,0,0,0-6.247-4.049v1.033a4.45,4.45,0,0,1-1.439,3.333,4.744,4.744,0,0,1-3.4,1.379h-4.72v4.826a2.225,2.225,0,0,1-.72,1.667,2.445,2.445,0,0,1-1.755.689h-4.721v2.436h16.291a.475.475,0,0,1,.477.476v11.452h2.344a4.6,4.6,0,0,1,2.821.948A5.059,5.059,0,0,1-248.06,205.476Zm-17.077,5.693V206.6a4.548,4.548,0,0,1-3.342-1.429A4.628,4.628,0,0,1-269.9,201.8v-2.343l-11.279-11.374a16.685,16.685,0,0,0-.566,4.229,18.7,18.7,0,0,0,2.267,8.973,19.063,19.063,0,0,0,5.951,6.659A18.39,18.39,0,0,0-265.137,211.169Zm2.689-42.858a23.506,23.506,0,0,1,12.113,3.272,22.624,22.624,0,0,1,8.5,8.5,23.48,23.48,0,0,1,3.272,12.111,23.481,23.481,0,0,1-3.272,12.112,22.624,22.624,0,0,1-8.5,8.5,23.484,23.484,0,0,1-12.113,3.272,23.48,23.48,0,0,1-12.111-3.272,23.075,23.075,0,0,1-8.5-8.553,23.384,23.384,0,0,1-3.272-12.055,23.384,23.384,0,0,1,3.272-12.055,23.507,23.507,0,0,1,8.553-8.555A23.39,23.39,0,0,1-262.448,168.311Z" fill="none"/>
    </clipPath>
    <clipPath id="clip-path-9">
      <path id="Path_158043" data-name="Path 158043" d="M-127.5,269.277v28.434a.031.031,0,0,0,.031.032h36.377a.031.031,0,0,0,.031-.032V269.277a.031.031,0,0,0-.031-.032h-36.377A.032.032,0,0,0-127.5,269.277ZM-93,263.992h5.043a2.278,2.278,0,0,1,2.387,2.149v34.387a2.278,2.278,0,0,1-2.387,2.149h-42.984a2.277,2.277,0,0,1-2.389-2.149V266.141a2.277,2.277,0,0,1,2.389-2.149h4.509v-4.22a.081.081,0,0,1,.081-.079h6.739a.08.08,0,0,1,.08.079v4.22H-99.9v-4.22a.079.079,0,0,1,.079-.079h6.739a.079.079,0,0,1,.08.078h0ZM-121.129,274.5v4.3h4.777v-4.3Zm9.022,0v4.3h4.773v-4.3Zm10.084,0v4.3h4.775v-4.3Zm-19.106,8.6v4.3h4.777v-4.3Zm9.022,0v4.3h4.773v-4.3Zm10.084,0v4.3h4.775v-4.3Z" fill="none"/>
    </clipPath>
    <clipPath id="clip-path-11">
      <path id="Path_158044" data-name="Path 158044" d="M-119.642,186.3a23.5,23.5,0,0,1,12.111,3.272,22.631,22.631,0,0,1,8.5,8.5,23.486,23.486,0,0,1,3.273,12.113A23.494,23.494,0,0,1-99.031,222.3a22.624,22.624,0,0,1-8.5,8.5,23.5,23.5,0,0,1-12.111,3.272,23.485,23.485,0,0,1-12.113-3.272,23.063,23.063,0,0,1-8.5-8.554,23.381,23.381,0,0,1-3.272-12.056,23.38,23.38,0,0,1,3.272-12.055,23.5,23.5,0,0,1,8.554-8.553A23.386,23.386,0,0,1-119.642,186.3Zm1.861,24.015,8.967,5.283a2.356,2.356,0,0,1,.843,3.223l0,0a2.352,2.352,0,0,1-3.2.833l-11.437-6.894v-12.84a2.4,2.4,0,0,1,2.412-2.4h0a2.407,2.407,0,0,1,2.418,2.4v0Z" fill="none"/>
    </clipPath>
    <clipPath id="clip-path-13">
      <path id="Path_158045" data-name="Path 158045" d="M-157.739,264.867a3.8,3.8,0,0,0,2.792-1.143,3.879,3.879,0,0,0,1.142-2.856,3.771,3.771,0,0,0-1.142-2.824,3.852,3.852,0,0,0-2.792-1.11,3.9,3.9,0,0,0-2.824,1.143,3.743,3.743,0,0,0-1.175,2.792,3.913,3.913,0,0,0,1.143,2.825A3.823,3.823,0,0,0-157.739,264.867Zm-7.932-10.362a3.787,3.787,0,0,0,2.791-1.143,3.873,3.873,0,0,0,1.142-2.855,3.776,3.776,0,0,0-1.142-2.824,3.85,3.85,0,0,0-2.791-1.11,3.905,3.905,0,0,0-2.826,1.143,3.749,3.749,0,0,0-1.174,2.792,3.9,3.9,0,0,0,1.142,2.824A3.818,3.818,0,0,0-165.671,254.505Zm-12.953,0a3.791,3.791,0,0,0,2.792-1.143,3.872,3.872,0,0,0,1.143-2.855,3.772,3.772,0,0,0-1.143-2.824,3.852,3.852,0,0,0-2.792-1.11,3.909,3.909,0,0,0-2.825,1.143,3.75,3.75,0,0,0-1.173,2.792,3.9,3.9,0,0,0,1.141,2.824A3.821,3.821,0,0,0-178.624,254.505Zm-7.934,10.362a3.8,3.8,0,0,0,2.793-1.143,3.876,3.876,0,0,0,1.143-2.856,3.772,3.772,0,0,0-1.143-2.824,3.853,3.853,0,0,0-2.793-1.11,3.9,3.9,0,0,0-2.824,1.143,3.743,3.743,0,0,0-1.174,2.792,3.9,3.9,0,0,0,1.142,2.825,3.825,3.825,0,0,0,2.854,1.173Zm14.379-23.8A25.367,25.367,0,0,1-160.144,244a22.393,22.393,0,0,1,8.6,7.642,19,19,0,0,1,3.248,10.7,12.917,12.917,0,0,1-1.785,6.623,12.986,12.986,0,0,1-4.838,4.808,13.223,13.223,0,0,1-6.687,1.751h-4.586a3.922,3.922,0,0,0-2.834,1.146,3.772,3.772,0,0,0-1.178,2.8,3.828,3.828,0,0,0,1.02,2.61,4.125,4.125,0,0,1,.732,1.273,4.183,4.183,0,0,1,.288,1.465,3.833,3.833,0,0,1-1.18,2.865,3.912,3.912,0,0,1-2.832,1.146,23.358,23.358,0,0,1-12.037-3.248,23.81,23.81,0,0,1-8.6-8.6,23.392,23.392,0,0,1-3.247-12.035,23.385,23.385,0,0,1,3.247-12.036,23.818,23.818,0,0,1,8.6-8.6A23.385,23.385,0,0,1-172.179,241.067Z" fill="none"/>
    </clipPath>
    <clipPath id="clip-path-15">
      <path id="Path_158046" data-name="Path 158046" d="M-260.7,235.813a23.89,23.89,0,0,1,23.88,23.881,23.889,23.889,0,0,1-23.88,23.88,23.889,23.889,0,0,1-23.881-23.88A23.889,23.889,0,0,1-260.7,235.813Zm-3.248,27.465q-4.176-4.152-4.193-4.168a2.562,2.562,0,0,0-3.552.062l-.093.094a2.4,2.4,0,0,0,0,3.394l.017.016,7.824,7.766,14.765-14.679a2.4,2.4,0,0,0,.032-3.394l-.032-.03-.156-.154a2.566,2.566,0,0,0-3.556.035Z" fill="none"/>
    </clipPath>
    <linearGradient id="linear-gradient" x1="0.652" y1="1.953" x2="0.652" y2="1.966" gradientUnits="objectBoundingBox">
      <stop offset="0" stop-color="gray" stop-opacity="0.251"/>
      <stop offset="0.54" stop-color="gray" stop-opacity="0.122"/>
      <stop offset="1" stop-color="gray" stop-opacity="0.102"/>
    </linearGradient>
    <linearGradient id="linear-gradient-2" x1="3.072" y1="1.534" x2="3.096" y2="1.534" xlink:href="#linear-gradient"/>
  </defs>
  <g id="card-7" transform="translate(315.6 -140.16)">
    <rect id="Rectangle_6964" data-name="Rectangle 6964" width="262" height="196" transform="translate(-315.6 140.16)" fill="#fbd5b2"/>
    <g id="Group_167376" data-name="Group 167376">
      <g id="Group_167808" data-name="Group 167808">
        <g id="Group_167807" data-name="Group 167807" clip-path="url(#clip-path)">
          <g id="Group_167375" data-name="Group 167375">
            <g id="Group_167806" data-name="Group 167806">
              <g id="Group_167805" data-name="Group 167805" clip-path="url(#clip-path-2)">
                <g id="Group_167374" data-name="Group 167374">
                  <g id="Group_167804" data-name="Group 167804">
                    <g id="Group_167803" data-name="Group 167803" clip-path="url(#clip-path-3)">
                      <g id="Group_167373" data-name="Group 167373">
                        <g id="Group_167778" data-name="Group 167778">
                          <g id="Group_167777" data-name="Group 167777" clip-path="url(#clip-path-4)">
                            <g id="Group_167360" data-name="Group 167360">
                              <path id="Path_155972" data-name="Path 155972" d="M-295.865,300.594H-74.273V167.464H-295.865Z" fill="#ffe7d1"/>
                            </g>
                          </g>
                        </g>
                        <g id="Group_167782" data-name="Group 167782">
                          <g id="Group_167781" data-name="Group 167781" clip-path="url(#clip-path-5)">
                            <g id="Group_167362" data-name="Group 167362">
                              <g id="Group_167780" data-name="Group 167780">
                                <g id="Group_167779" data-name="Group 167779" clip-path="url(#clip-path-4)">
                                  <g id="Group_167361" data-name="Group 167361">
                                    <path id="Path_155974" data-name="Path 155974" d="M-226.627,234.858h49.352V186.3h-49.352Z" fill="#fbd5b2"/>
                                  </g>
                                </g>
                              </g>
                            </g>
                          </g>
                        </g>
                        <g id="Group_167786" data-name="Group 167786">
                          <g id="Group_167785" data-name="Group 167785" clip-path="url(#clip-path-7)">
                            <g id="Group_167364" data-name="Group 167364">
                              <g id="Group_167784" data-name="Group 167784">
                                <g id="Group_167783" data-name="Group 167783" clip-path="url(#clip-path-4)">
                                  <g id="Group_167363" data-name="Group 167363">
                                    <path id="Path_155977" data-name="Path 155977" d="M-287.124,216.868h49.352V167.515h-49.352Z" fill="#fbd5b2"/>
                                  </g>
                                </g>
                              </g>
                            </g>
                          </g>
                        </g>
                        <g id="Group_167790" data-name="Group 167790">
                          <g id="Group_167789" data-name="Group 167789" clip-path="url(#clip-path-9)">
                            <g id="Group_167366" data-name="Group 167366">
                              <g id="Group_167788" data-name="Group 167788">
                                <g id="Group_167787" data-name="Group 167787" clip-path="url(#clip-path-4)">
                                  <g id="Group_167365" data-name="Group 167365">
                                    <path id="Path_155980" data-name="Path 155980" d="M-134.13,303.474h49.352V258.9H-134.13Z" fill="#fbd5b2"/>
                                  </g>
                                </g>
                              </g>
                            </g>
                          </g>
                        </g>
                        <g id="Group_167794" data-name="Group 167794">
                          <g id="Group_167793" data-name="Group 167793" clip-path="url(#clip-path-11)">
                            <g id="Group_167368" data-name="Group 167368">
                              <g id="Group_167792" data-name="Group 167792">
                                <g id="Group_167791" data-name="Group 167791" clip-path="url(#clip-path-4)">
                                  <g id="Group_167367" data-name="Group 167367">
                                    <path id="Path_155983" data-name="Path 155983" d="M-144.319,234.858h49.352V185.505h-49.352Z" fill="#fbd5b2"/>
                                  </g>
                                </g>
                              </g>
                            </g>
                          </g>
                        </g>
                        <g id="Group_167798" data-name="Group 167798">
                          <g id="Group_167797" data-name="Group 167797" clip-path="url(#clip-path-13)">
                            <g id="Group_167370" data-name="Group 167370">
                              <g id="Group_167796" data-name="Group 167796">
                                <g id="Group_167795" data-name="Group 167795" clip-path="url(#clip-path-4)">
                                  <g id="Group_167369" data-name="Group 167369">
                                    <path id="Path_155986" data-name="Path 155986" d="M-196.857,289.623H-147.5V240.27h-49.354Z" fill="#fbd5b2"/>
                                  </g>
                                </g>
                              </g>
                            </g>
                          </g>
                        </g>
                        <g id="Group_167802" data-name="Group 167802">
                          <g id="Group_167801" data-name="Group 167801" clip-path="url(#clip-path-15)">
                            <g id="Group_167372" data-name="Group 167372">
                              <g id="Group_167800" data-name="Group 167800">
                                <g id="Group_167799" data-name="Group 167799" clip-path="url(#clip-path-4)">
                                  <g id="Group_167371" data-name="Group 167371">
                                    <path id="Path_155989" data-name="Path 155989" d="M-285.373,284.37h49.352V235.017h-49.352Z" fill="#fbd5b2"/>
                                  </g>
                                </g>
                              </g>
                            </g>
                          </g>
                        </g>
                      </g>
                    </g>
                  </g>
                </g>
              </g>
            </g>
          </g>
        </g>
      </g>
      <g id="undraw_winners_2yls" data-name="undraw winners 2yls">
        <path id="Path_155881" data-name="Path 155881" d="M-114.931,232.688a2.142,2.142,0,0,0-.938-.412c-.36-.083-.727-.135-1.092-.192l-4.735-.683a5.549,5.549,0,0,0-1.45-.077,1.839,1.839,0,0,0-1.261.654.984.984,0,0,0-.219.615,1.626,1.626,0,0,0,.215.638,2.055,2.055,0,0,1,.117.283,6.557,6.557,0,0,0,.169.644.528.528,0,0,0,.081.127.182.182,0,0,1,0,.033c-.052.265.115.542.04.8-.065.219-.279.352-.413.535a.8.8,0,0,0-.019.887c.144.223.406.375.481.631.1.337-.167.661-.4.921a14.251,14.251,0,0,0-1.2,1.517.941.941,0,0,0-.192.452c-.021.335.3.629.244.962-.044.262-.3.421-.521.577a3.245,3.245,0,0,0-1.538,2.383,8.342,8.342,0,0,0-1.862-4.231,3.023,3.023,0,0,1-.69-1.083c-.042-.167-.05-.346-.108-.508-.192-.51-.8-.729-1.071-1.2-.192-.331-.192-.756-.431-1.046s-.613-.356-.819-.637a4.113,4.113,0,0,1-.262-.592,1.3,1.3,0,0,0-.356-.427.792.792,0,0,0-.089-.063.307.307,0,0,0,.1-.227c0-.225-.223-.373-.417-.485-.25-.142-.494-.3-.733-.456a1.712,1.712,0,0,0,.656-.537,1.764,1.764,0,0,0,.25-1.154,1.457,1.457,0,0,0-.344-.883c-.121-.129-.273-.221-.4-.342a2.805,2.805,0,0,1-.577-1.235,2.513,2.513,0,0,0-.99-1.488c-.254-.148-.55-.217-.8-.373a.7.7,0,0,1-.369-.733c.058-.192.237-.325.358-.488a.973.973,0,0,0-.244-1.346c-.142-.09-.317-.169-.346-.335a.611.611,0,0,1-.446-.473,1.835,1.835,0,0,1,0-.685q.075-.535.148-1.069a.7.7,0,0,0,.535,0,4.693,4.693,0,0,0,.577.754,7.55,7.55,0,0,1,1.346,2.336,1.405,1.405,0,0,0,.506.815c.1.056.21.085.306.144a1.142,1.142,0,0,1,.3.308c.231.306.462.61.69.915l.012.046a.27.27,0,0,0,.031.077.256.256,0,0,0,.165.085,2.8,2.8,0,0,0,2.115-.073c.554-.346.8-1.031,1.265-1.488.333-.325.8-.577.9-1.035a3.275,3.275,0,0,1-.331-.121c.1-.1.192-.208.323-.335a4.038,4.038,0,0,0,.512-.61,3.9,3.9,0,0,0,.385-.862q.556-1.586,1.115-3.171c.177-.5.354-1,.577-1.49.231-.527.5-1.033.756-1.55a20.507,20.507,0,0,0,1.5-4.211,1.532,1.532,0,0,0,.06-.613,1.617,1.617,0,0,0-.546-.831,4.01,4.01,0,0,0-.819-.679,1.347,1.347,0,0,0-1.027-.165,1.485,1.485,0,0,0-.915,1.154,12.179,12.179,0,0,0-.119,1.538c-.069.74-.323,1.456-.385,2.2-.033.429,0,.863-.052,1.292a4.715,4.715,0,0,1-.577,1.592,10.311,10.311,0,0,1-2.487,3.065c-.117.1-.238.192-.354.3a1.9,1.9,0,0,1,.025-.25,1.509,1.509,0,0,0-.244.087.72.72,0,0,0-.029-.288c-.154-.46-.838-.577-.961-1.044a2.052,2.052,0,0,1-.033-.35,8.913,8.913,0,0,0-.415-1.154,4.926,4.926,0,0,0-.192-1.11,3.085,3.085,0,0,0-.511-.577,2.268,2.268,0,0,1-.487-.917c-.025-.094-.048-.192-.075-.287a1.312,1.312,0,0,0-.069-.633c-.175-.435-.627-.713-.79-1.154-.127-.342-.071-.769-.312-1.035a1.125,1.125,0,0,0-.456-.275,10.127,10.127,0,0,0-2.744-.648,2.338,2.338,0,0,1-1.485-.446c-.44-.431-.461-1.206-.977-1.538a1.168,1.168,0,0,0-1.448.337,1.8,1.8,0,0,0-.146.192,2.071,2.071,0,0,1-.04-.788,1.893,1.893,0,0,1,.019-.192,3.844,3.844,0,0,0,2.085-1.646v.012l.023.06c.056.14.144.275.275.29h0a.382.382,0,0,0,.238-.087,1.957,1.957,0,0,0,.319-.277c.049-.054.1-.11.138-.167A2.128,2.128,0,0,0-139.1,207a2.3,2.3,0,0,0,.192-.644c.035-.223.038-.452.077-.675a4.27,4.27,0,0,1,.14-.51c.019-.056.038-.112.056-.167l.062-.192a4.457,4.457,0,0,0,.192-1.219v-.208a2.03,2.03,0,0,0-.646-1.433c-.331-.271-.769-.385-1.011-.752a3.6,3.6,0,0,1-.285-.852,1.923,1.923,0,0,0-1.512-1.36,1.681,1.681,0,0,0-1.2.329h0l-.027.021h0a1.951,1.951,0,0,0-.477.531,1.581,1.581,0,0,1-.677-.385c-.192-.179-.34-.4-.535-.577a1.375,1.375,0,0,0-1.375-.293,1.638,1.638,0,0,0-.979,1.121,3.913,3.913,0,0,1-.308,1.183c-.171.258-.452.385-.648.619a1.159,1.159,0,0,0-.242.513h0a1.441,1.441,0,0,0-.033.321h0a.564.564,0,0,0,.012.142v.023a1.028,1.028,0,0,0,.033.156h0a1.351,1.351,0,0,0,.287.527,1.262,1.262,0,0,0,.463.335,1.926,1.926,0,0,0,.223.071l.229.052.081.019a3.834,3.834,0,0,0-.108,3.387,1.486,1.486,0,0,1-.019.162,13.314,13.314,0,0,0,.1,2.267,1.216,1.216,0,0,1-.14.863,1.646,1.646,0,0,1-.279.248c.1-.135.21-.267.317-.4a1.372,1.372,0,0,0-1.085-.281,5.026,5.026,0,0,0-2.115.646,2.366,2.366,0,0,1-1.365.519c-.29-.033-.577-.192-.86-.115a1.72,1.72,0,0,0-.44.262.6.6,0,0,1-.362.112,7.778,7.778,0,0,0-1.131-.925,8.941,8.941,0,0,1-1.131-1.2c-.623-.752-1.244-1.506-1.856-2.265a4.367,4.367,0,0,1-1.135-2.146,2.2,2.2,0,0,1-.013-.244,6.145,6.145,0,0,1,.146-1.154.573.573,0,0,0,0-.279c-.058-.192-.279-.263-.469-.306h0c.025-.148.042-.3.052-.444a33.661,33.661,0,0,1,.34-4.954,3.366,3.366,0,0,1,.8-1.706c.7-.71,1.877-.881,2.415-1.721a1.963,1.963,0,0,0-.294-2.308,2.91,2.91,0,0,0-2.265-.838,1.171,1.171,0,0,0-.66.177,1.4,1.4,0,0,0-.4.608l-.825,2.006a12.139,12.139,0,0,0-.6,1.612c-.231.842-.283,1.731-.465,2.581a6.732,6.732,0,0,1-.652,2.071c-.258.677-.537,1.346-.769,2.036-.058.173-.26.687-.385,1.154a.745.745,0,0,0-.131.1,3.469,3.469,0,0,0-.273.406c-.175.231-.46.354-.652.577s-.233.633.035.744a.792.792,0,0,0,.167.037.546.546,0,0,1,.507.583.56.56,0,0,1-.044.179c-.042.3-.192.577-.217.877a2.364,2.364,0,0,0,.56,1.471,12.728,12.728,0,0,0,1.027,1.383c.271.3.577.577.85.869,1.04,1.069,1.867,2.319,2.8,3.481a7.707,7.707,0,0,0,1.14,1.2,8.518,8.518,0,0,0,.863.594l1.608,1.019a1.761,1.761,0,0,0,.608.287.775.775,0,0,0,.215,0c.01.048.017.094.029.142a8.506,8.506,0,0,1,.431,1.475c.031.513-.015,1.038.021,1.558.035.479.14.961.167,1.433a9.191,9.191,0,0,1-.385,2.692,16.073,16.073,0,0,1-1.154,3.806,2.23,2.23,0,0,0-.385,1.027.511.511,0,0,0,.012.135h0l-.289.163c-.085.048-.169.1-.246.146a2.061,2.061,0,0,0-.906.913c-.121.333-.065.713-.212,1.037-.007.014-.015.028-.023.042-.154.3-.46.523-.529.852h0c-.052.252.048.519,0,.769v.01a2.828,2.828,0,0,0-.1.385.453.453,0,0,0,.012.127.73.73,0,0,0,.231.375,1.487,1.487,0,0,0,.225.179c.082.054.167.1.254.15l.05.027c.073.038.146.075.221.11l.05.021a2.482,2.482,0,0,0,.263.1l.062.019c.069.023.14.044.211.062l.048.015.044.01.192.04.071.013c.085.014.171.026.26.035h.077c.065,0,.129.01.192.012h.352a2.237,2.237,0,0,0,.271-.025h.029c.081-.012.162-.025.242-.042l.062-.013c.075-.017.15-.035.225-.058l.04-.012c.09-.027.181-.056.269-.09a7.116,7.116,0,0,0,.888-.44c.192-.106.385-.213.577-.312a4.367,4.367,0,0,1,.438-.192,2.482,2.482,0,0,1,1.154-.192,4.534,4.534,0,0,1,.577.117v.063q.236,1.384.463,2.769a5.68,5.68,0,0,1,.8-.479,1.792,1.792,0,0,0-.1.433,1.647,1.647,0,0,0,0,.344.746.746,0,0,1-.054.529c-.067.088-.192.138-.229.238a.806.806,0,0,0-.019.313.5.5,0,0,1-.458.465.731.731,0,0,1-.29.858,1.059,1.059,0,0,0-.223.146.662.662,0,0,0-.129.29,5.136,5.136,0,0,1-1.506,2.475,4.873,4.873,0,0,0-.744.727,3.306,3.306,0,0,0-.336.663q-.77,1.881-1.562,3.763a8.342,8.342,0,0,0-.669,2.171c-.231,2.073-2.077,3.831-1.731,5.888a2.883,2.883,0,0,0,.6,1.406,3.532,3.532,0,0,0,1.538.944,27.986,27.986,0,0,0,4.6,1.21l2.446.5a10.555,10.555,0,0,0,1.458.231,9.556,9.556,0,0,1,1.771.135,5.5,5.5,0,0,0,1.063.283c.315.017.7-.05.89.208s.042.6.219.827c.285.363.979,0,1.288.342a1.628,1.628,0,0,1,.192.425.766.766,0,0,0,.192.242,1.65,1.65,0,0,1,.023.329,5.659,5.659,0,0,1-.277,1.312q-.347,1.172-.69,2.344a5.208,5.208,0,0,0-.192.846,2.1,2.1,0,0,0,0,.419,1.15,1.15,0,0,0,.69,1,1.268,1.268,0,0,0,.935-.115,4.119,4.119,0,0,0,.769-.519,5.252,5.252,0,0,0,1.11-1.142c.962-1.438.65-3.385,1.325-4.975.448-1.061,1.321-1.923,1.612-3.042a1.216,1.216,0,0,0,.023-.658,1.363,1.363,0,0,0-.913-.742h-.017a7.872,7.872,0,0,0-.962-.275c-.081-.017-.163-.031-.246-.044a1.509,1.509,0,0,1-.425-.554,1.294,1.294,0,0,0-.09-.333.347.347,0,0,0-.277-.154c-.192-.019-.45.05-.66.035-.429-.031-.713-.452-1.1-.646a2.248,2.248,0,0,0-1.212-.117,1.116,1.116,0,0,1-.438-.027,1.646,1.646,0,0,1-.462-.317,1.935,1.935,0,0,0-1.694-.34,1.82,1.82,0,0,1-.577.131c-.375-.021-.64-.356-.917-.61a11.037,11.037,0,0,0-2.756-1.333.625.625,0,0,1-.331-.285c-.106-.262.133-.523.348-.7l1.581-1.313c1.731-1.438,3.894-2.521,4.7-4.631a2.671,2.671,0,0,1,.385-.79,1.08,1.08,0,0,1,.213-.192,1.617,1.617,0,0,1,1.183-.231,3.994,3.994,0,0,1,1.392.608q1.033.626,2.01,1.346a17.8,17.8,0,0,1,1.837,1.508c1.01.962,1.85,2.1,2.79,3.138a8.964,8.964,0,0,0,3.321,2.5,4.271,4.271,0,0,0,4.006-.358c1.294-.962,1.71-2.681,2.037-4.258a6.879,6.879,0,0,0,1.29-2.692c.221-.594.5-1.154.742-1.746.285-.7.508-1.415.731-2.133a10.222,10.222,0,0,0,.512-2.225c.092-1.2-.229-2.473.108-3.6a13.049,13.049,0,0,0,1.285-.494,6.4,6.4,0,0,1,2.035-.175h.044a1.05,1.05,0,0,0,.677-.16,1.077,1.077,0,0,0,.279-.819A2.5,2.5,0,0,0-114.931,232.688Zm-27.863-32.8a1.426,1.426,0,0,1-.487.035Z" fill="url(#linear-gradient)"/>
        <path id="Path_155882" data-name="Path 155882" d="M-142.036,212.05a2.112,2.112,0,0,1-.8.425l-1.363.488a5.07,5.07,0,0,1-2.294.437,7.606,7.606,0,0,1-2.59-.669c-.431-.527,1.079-1.3,1.594-1.746a2.19,2.19,0,0,0,.323-.285,1.157,1.157,0,0,0,.14-.86,13.271,13.271,0,0,1-.1-2.263,4.613,4.613,0,0,1,.077-.536c.192-.885,1.015-.562,1.665-.327a13,13,0,0,1,2.26.979,1.613,1.613,0,0,1,.558.473,2.4,2.4,0,0,1,.125,1.538,1.44,1.44,0,0,0,.225,1.131,2.938,2.938,0,0,1,.363.385A.721.721,0,0,1-142.036,212.05Z" fill="#be6f72"/>
        <path id="Path_155883" data-name="Path 155883" d="M-160.87,198.191c.192-.852.235-1.731.465-2.575a12.06,12.06,0,0,1,.6-1.606l.848-1.979a1.4,1.4,0,0,1,.4-.606,1.189,1.189,0,0,1,.66-.177,2.939,2.939,0,0,1,2.265.837,1.942,1.942,0,0,1,.294,2.294c-.538.84-1.713,1.01-2.415,1.717a3.363,3.363,0,0,0-.8,1.7,33.6,33.6,0,0,0-.34,4.94,1.638,1.638,0,0,1-.577,1.365,1.684,1.684,0,0,1-.861.167l-1.261.021c-.212,0-.979.133-1.119-.027-.246-.279.315-1.667.417-1.977.227-.687.506-1.356.769-2.031A6.753,6.753,0,0,0-160.87,198.191Z" fill="#be6f72"/>
        <path id="Path_155884" data-name="Path 155884" d="M-134.822,258.6c-.29,1.111-1.163,1.977-1.612,3.036-.675,1.586-.371,3.527-1.325,4.961a5.238,5.238,0,0,1-1.11,1.144,4.107,4.107,0,0,1-.769.517,1.264,1.264,0,0,1-.935.115,1.15,1.15,0,0,1-.69-1,2.077,2.077,0,0,1,0-.417,5.206,5.206,0,0,1,.192-.844q.347-1.167.69-2.338a5.615,5.615,0,0,0,.277-1.308c.025-.485-.283-1.115-.152-1.567.06-.2.283-.385.385-.556a3.2,3.2,0,0,0,.331-.787,4.9,4.9,0,0,1,.6-1.561,3.665,3.665,0,0,1,.75-.7,1.982,1.982,0,0,1,.715-.4,1.752,1.752,0,0,1,.769.036,7.627,7.627,0,0,1,.961.273h.017a1.347,1.347,0,0,1,.913.74A1.208,1.208,0,0,1-134.822,258.6Z" fill="#3f3d56"/>
        <path id="Path_155885" data-name="Path 155885" d="M-114.362,234.963a1.067,1.067,0,0,1-.279.817,1.05,1.05,0,0,1-.677.16h-.052a6.486,6.486,0,0,0-2.035.175,7.683,7.683,0,0,1-1.463.523,3.576,3.576,0,0,1-2.006-.646,19.807,19.807,0,0,0-1.821-.865c-.408-.167-1.24-.275-1.437-.721q-.1-.316-.169-.642a2.056,2.056,0,0,0-.117-.283,1.622,1.622,0,0,1-.215-.637.983.983,0,0,1,.219-.615,1.846,1.846,0,0,1,1.26-.648,5.549,5.549,0,0,1,1.45.077l4.735.681a10.14,10.14,0,0,1,1.092.192,2.154,2.154,0,0,1,.938.412A2.43,2.43,0,0,1-114.362,234.963Z" fill="#3f3d56"/>
        <path id="Path_155886" data-name="Path 155886" d="M-118.523,236.193c-.577,1.217-.162,2.658-.265,4a10.181,10.181,0,0,1-.511,2.219c-.223.715-.446,1.433-.731,2.127-.239.577-.521,1.154-.742,1.742a6.984,6.984,0,0,1-1.29,2.692c-.327,1.573-.742,3.292-2.036,4.246a4.26,4.26,0,0,1-4.006.358,8.967,8.967,0,0,1-3.321-2.5c-.94-1.037-1.781-2.165-2.79-3.131a17.481,17.481,0,0,0-1.84-1.506q-.977-.71-2.01-1.335a4.035,4.035,0,0,0-1.392-.606,1.613,1.613,0,0,0-1.183.231,1.08,1.08,0,0,0-.213.192,2.66,2.66,0,0,0-.385.788c-.808,2.1-2.975,3.185-4.706,4.619l-1.581,1.31c-.215.179-.454.44-.348.7a.63.63,0,0,0,.331.285,10.99,10.99,0,0,1,2.756,1.329c.277.254.542.588.917.608a1.846,1.846,0,0,0,.577-.129,1.939,1.939,0,0,1,1.694.338,1.667,1.667,0,0,0,.462.317,1.116,1.116,0,0,0,.438.027,2.34,2.34,0,0,1,1.212.117c.367.183.669.613,1.1.644.21.015.46-.054.66-.035a.347.347,0,0,1,.277.154,1.269,1.269,0,0,1,.09.331c.079.271.344.437.517.66a1.826,1.826,0,0,1,.277,1.24,5.293,5.293,0,0,1-1.685,3.542,2.087,2.087,0,0,1-1.037.577.96.96,0,0,1-1.027-.456,1.6,1.6,0,0,0-.192-.423c-.31-.34-1,.021-1.288-.342-.177-.227-.05-.59-.219-.825s-.577-.192-.89-.206a5.576,5.576,0,0,1-1.063-.283,9.556,9.556,0,0,0-1.771-.135,10.709,10.709,0,0,1-1.458-.231l-2.446-.5a28.985,28.985,0,0,1-4.6-1.206,3.7,3.7,0,0,1-1.539-.942,2.881,2.881,0,0,1-.6-1.4c-.348-2.052,1.5-3.806,1.731-5.873a8.214,8.214,0,0,1,.669-2.165q.783-1.876,1.562-3.756a3.365,3.365,0,0,1,.327-.665,4.813,4.813,0,0,1,.744-.725,5.114,5.114,0,0,0,1.506-2.469.662.662,0,0,1,.129-.29,1.091,1.091,0,0,1,.223-.144.731.731,0,0,0,.29-.856.5.5,0,0,0,.458-.465.8.8,0,0,1,.019-.312c.046-.1.162-.15.229-.238a.746.746,0,0,0,.054-.527,1.647,1.647,0,0,1,0-.344,1.768,1.768,0,0,1,.515-1.075c.46-.452,1.113-.335,1.748-.442a10.045,10.045,0,0,0,1.846-.59,18.121,18.121,0,0,1,5.213-1.206,11.389,11.389,0,0,1,5.265.838,3.017,3.017,0,0,1,.679.385,1.281,1.281,0,0,1,.356.425,3.982,3.982,0,0,0,.262.59c.206.281.594.371.819.637s.244.713.431,1.042c.267.469.887.687,1.071,1.2.058.161.065.338.108.506a2.892,2.892,0,0,0,.69,1.081,8.312,8.312,0,0,1,1.861,4.231,3.22,3.22,0,0,1,1.538-2.377c.221-.144.477-.3.521-.565.056-.331-.265-.625-.244-.962a.944.944,0,0,1,.192-.45,14.2,14.2,0,0,1,1.2-1.513c.237-.26.5-.577.4-.919-.075-.256-.337-.406-.481-.629a.8.8,0,0,1,.019-.885c.135-.183.348-.315.413-.533.075-.256-.092-.533-.04-.8a.988.988,0,0,1,.4-.513,4.006,4.006,0,0,1,4.888.46A1.823,1.823,0,0,1-118.523,236.193Z" fill="#65617d"/>
        <path id="Path_155887" data-name="Path 155887" d="M-114.361,234.963a1.067,1.067,0,0,1-.279.817,1.05,1.05,0,0,1-.677.16h-.052c.079-.4.565-.629.65-1.035a.914.914,0,0,0-.211-.7,3.466,3.466,0,0,0-1.731-1.088,11.47,11.47,0,0,0-5.781-.433,5.824,5.824,0,0,0-1.519.467,4.943,4.943,0,0,0-.462.327,1.638,1.638,0,0,1-.215-.637.984.984,0,0,1,.219-.615,1.848,1.848,0,0,1,1.26-.648,5.549,5.549,0,0,1,1.45.077l4.734.681c.367.046.732.11,1.092.192a2.142,2.142,0,0,1,.938.412A2.415,2.415,0,0,1-114.361,234.963Z" opacity="0.1"/>
        <path id="Path_155888" data-name="Path 155888" d="M-134.822,258.605c-.29,1.112-1.163,1.977-1.612,3.036-.675,1.586-.371,3.527-1.325,4.961a5.238,5.238,0,0,1-1.11,1.144,4.109,4.109,0,0,1-.769.517,1.263,1.263,0,0,1-.935.115,1.151,1.151,0,0,1-.69-1,2.076,2.076,0,0,1,0-.417l.012.031c.167.4.44.827.871.9a1.178,1.178,0,0,0,.888-.313,5.494,5.494,0,0,0,1.356-2,8.365,8.365,0,0,0,.65-1.66c.077-.327.113-.661.192-.988.365-1.588,1.61-2.885,1.885-4.494a1.114,1.114,0,0,0,.015-.336,1.715,1.715,0,0,0-.165-.419,2.059,2.059,0,0,1-.146-.465,1.347,1.347,0,0,1,.913.74A1.209,1.209,0,0,1-134.822,258.605Z" opacity="0.1"/>
        <path id="Path_155889" data-name="Path 155889" d="M-137.726,255.848a2.786,2.786,0,0,1-.867,1.185,4.224,4.224,0,0,1-1.867.808,1.868,1.868,0,0,1-.962-.012c-.427-.148-.735-.548-1.171-.663a7.928,7.928,0,0,0-.962-.056,3.408,3.408,0,0,1-1.465-.858c-1.4-1.054-3.242-1.394-4.644-2.448a.431.431,0,0,1-.15-.156.458.458,0,0,1-.029-.217,4.424,4.424,0,0,1,.421-1.848,6.419,6.419,0,0,1,.792-1.129,34.3,34.3,0,0,1,4.021-4.386,6.092,6.092,0,0,1,2.115-1.3,3.175,3.175,0,0,1,1.854-.035,1.08,1.08,0,0,0-.213.192,2.66,2.66,0,0,0-.385.788c-.81,2.106-2.977,3.186-4.708,4.621l-1.581,1.31c-.215.179-.454.44-.348.7a.63.63,0,0,0,.331.285,10.99,10.99,0,0,1,2.756,1.329c.277.254.542.588.917.608a1.845,1.845,0,0,0,.577-.129,1.939,1.939,0,0,1,1.694.338,1.666,1.666,0,0,0,.462.317,1.116,1.116,0,0,0,.438.027,2.34,2.34,0,0,1,1.212.117c.367.183.669.613,1.1.644C-138.176,255.9-137.926,255.825-137.726,255.848Z" opacity="0.1"/>
        <path id="Path_155890" data-name="Path 155890" d="M-155.415,229.748a2.047,2.047,0,0,0-.9.908c-.123.333-.065.713-.213,1.036s-.481.548-.554.894c-.052.252.05.517,0,.769a3.273,3.273,0,0,0-.106.4c-.019.287.227.519.467.679a3.9,3.9,0,0,0,3.494.385,15.871,15.871,0,0,0,1.469-.752,2.9,2.9,0,0,1,1.583-.385c.317.035.621.15.938.192a.984.984,0,0,0,.879-.262,1.1,1.1,0,0,0,.192-.456,6.8,6.8,0,0,0-.108-3.236c-.254-1.062-.638-2.083-.91-3.138a14.434,14.434,0,0,0-.661-2.325,3.051,3.051,0,0,0-1.617-1.712.3.3,0,0,0-.192-.025.334.334,0,0,0-.125.092,5.914,5.914,0,0,0-1.319,2.219c-.3.921-.385,1.9-.662,2.823a2.894,2.894,0,0,1-.577,1.194A6.634,6.634,0,0,1-155.415,229.748Z" fill="#3f3d56"/>
        <path id="Path_155891" data-name="Path 155891" d="M-148.161,233.151a1.126,1.126,0,0,1-.2.456.974.974,0,0,1-.879.26c-.315-.038-.619-.156-.936-.192a2.9,2.9,0,0,0-1.583.385c-.492.246-.962.552-1.471.75a3.884,3.884,0,0,1-2.333.133,3.76,3.76,0,0,1-1.154-.508.828.828,0,0,1-.467-.679,3.276,3.276,0,0,1,.106-.4c.05-.252-.05-.517,0-.769.073-.346.408-.577.554-.9s.09-.7.211-1.035a2.055,2.055,0,0,1,.906-.91,6.94,6.94,0,0,0,1.092-.7,1.07,1.07,0,0,0,.1-.142,3.447,3.447,0,0,0,.458-1.06c.283-.927.36-1.9.66-2.825a5.923,5.923,0,0,1,1.321-2.217.288.288,0,0,1,.123-.092.31.31,0,0,1,.192.023,3.075,3.075,0,0,1,1.617,1.713,15.116,15.116,0,0,1,.661,2.323c.269,1.056.656,2.081.91,3.14A6.843,6.843,0,0,1-148.161,233.151Z" opacity="0.1"/>
        <path id="Path_155892" data-name="Path 155892" d="M-142.442,209.7a3.846,3.846,0,0,1-4.685-2.115,4.63,4.63,0,0,1,.077-.537c.192-.885,1.015-.562,1.665-.327a13,13,0,0,1,2.26.979,1.622,1.622,0,0,1,.558.473A2.364,2.364,0,0,1-142.442,209.7Z" opacity="0.1"/>
        <circle id="Ellipse_2285" data-name="Ellipse 2285" cx="3.846" cy="3.846" r="3.846" transform="translate(-147.449 201.994)" fill="#be6f72"/>
        <path id="Path_155893" data-name="Path 155893" d="M-133.166,234.583c0,.319-.433.421-.754.4a24.248,24.248,0,0,0-3.425-.288c-1.444.131-2.771.929-4.219,1a12.657,12.657,0,0,0-1.675.048c-.712.133-1.346.565-2.071.627-.629.054-1.25-.183-1.879-.158a3.024,3.024,0,0,0-1.256.358,1.768,1.768,0,0,1,.515-1.075c.46-.452,1.113-.335,1.748-.442a9.969,9.969,0,0,0,1.846-.59,18.146,18.146,0,0,1,5.213-1.206,11.38,11.38,0,0,1,5.263.833,3,3,0,0,1,.679.385A.283.283,0,0,1-133.166,234.583Z" opacity="0.1"/>
        <path id="Path_155894" data-name="Path 155894" d="M-145.382,212.863l-1.558-.577-.658-.242a3.2,3.2,0,0,0-.838-.223,2.136,2.136,0,0,0-1.865,1.085,5.862,5.862,0,0,0-.683,2.148q-.266,1.527-.45,3.065a20.031,20.031,0,0,0-.2,2.8,33.133,33.133,0,0,0,1.1,7.046,24.756,24.756,0,0,1,.613,3.125c.046.435.067.871.113,1.308.05.49.131.975.212,1.461l.463,2.763a3.655,3.655,0,0,1,1.942-.79c.629-.023,1.252.212,1.879.158a21.361,21.361,0,0,0,2.071-.625,12.35,12.35,0,0,1,1.677-.048c1.446-.073,2.775-.873,4.217-1a23.278,23.278,0,0,1,3.427.287c.319.019.752-.083.752-.4,0-.223-.223-.371-.417-.483a20.484,20.484,0,0,1-2.606-1.86,8.815,8.815,0,0,1-2.048-2.027c-1.256-1.952-.825-4.592-1.9-6.652-.871-1.673,0-3.865,0-5.752a8.751,8.751,0,0,0-.737-4.306l-.748-1.894a.309.309,0,0,0-.088-.144.29.29,0,0,0-.171-.052,1.8,1.8,0,0,0-1.242.4c-.352.286-.577.7-.923,1A1.4,1.4,0,0,1-145.382,212.863Z" fill="#e3e8f4"/>
        <path id="Path_155895" data-name="Path 155895" d="M-142.869,211.77a3.408,3.408,0,0,1,.608-1.487,1.168,1.168,0,0,1,1.448-.335c.515.335.537,1.108.977,1.538a2.37,2.37,0,0,0,1.485.446,10.087,10.087,0,0,1,2.744.646,1.121,1.121,0,0,1,.456.273c.24.273.192.692.312,1.033.163.438.615.717.79,1.154a2.3,2.3,0,0,1-.161,1.525c-.29.894-.473,1.823-.756,2.721a6.053,6.053,0,0,1-1.346,2.46c-.292.3-.727.577-1.112.4l-.148,1.067a1.824,1.824,0,0,0,0,.683.611.611,0,0,0,.446.473c.029.165.2.244.346.335a.962.962,0,0,1,.25,1.337l-.006.009c-.121.163-.3.292-.358.487a.691.691,0,0,0,.369.731c.25.154.544.225.8.373a2.484,2.484,0,0,1,.99,1.483,2.745,2.745,0,0,0,.577,1.233c.127.121.279.213.4.34a1.457,1.457,0,0,1,.344.883,1.752,1.752,0,0,1-.25,1.154,3.482,3.482,0,0,1-1.731.961,14.576,14.576,0,0,0-2.761,1.808,2.953,2.953,0,0,1-1.26.592,11.012,11.012,0,0,1-1.863-.217,4.584,4.584,0,0,0-1.112.146l-1.154.25a7.472,7.472,0,0,0-.706-2.642,13.143,13.143,0,0,1-.492-5,39.119,39.119,0,0,1,.8-4.988,32.018,32.018,0,0,1,.577-3.481,22.894,22.894,0,0,0,1.006-3.238C-142.065,215.1-143.28,213.563-142.869,211.77Z" fill="#3f3d56"/>
        <path id="Path_155896" data-name="Path 155896" d="M-134.121,215.327a2.1,2.1,0,0,1,.221.625,2.254,2.254,0,0,0,.487.915,3.122,3.122,0,0,1,.512.577,4.3,4.3,0,0,1,.192,1.108,8.915,8.915,0,0,1,.415,1.154,2.064,2.064,0,0,0,.033.35c.125.465.81.577.962,1.042.1.3-.073.631-.04.948a.819.819,0,0,1,.017.3.606.606,0,0,1-.219.281,4.423,4.423,0,0,0-1.265,2.252,12.849,12.849,0,0,0-.29,2.6l-.752-.994a1.127,1.127,0,0,0-.3-.308c-.1-.058-.208-.087-.306-.144a1.4,1.4,0,0,1-.506-.812,7.476,7.476,0,0,0-1.346-2.331,2.544,2.544,0,0,1-.729-1.188,2.2,2.2,0,0,1,.035-.642,10.948,10.948,0,0,1,1.012-3.667c.286-.523.658-1,.933-1.527C-134.873,215.516-134.613,214.6-134.121,215.327Z" fill="#3f3d56"/>
        <path id="Path_155897" data-name="Path 155897" d="M-153.092,216.537a.887.887,0,0,1-.119.461.607.607,0,0,1-.608.192,1.757,1.757,0,0,1-.608-.285l-1.608-1.017a8.9,8.9,0,0,1-.863-.592,7.667,7.667,0,0,1-1.14-1.194c-.935-1.154-1.761-2.406-2.8-3.461-.283-.288-.577-.565-.85-.867a12.8,12.8,0,0,1-1.027-1.381,2.351,2.351,0,0,1-.56-1.467c.031-.3.175-.577.217-.875a.546.546,0,0,0-.284-.717.558.558,0,0,0-.18-.043.791.791,0,0,1-.167-.037c-.267-.112-.227-.525-.035-.742s.477-.339.652-.577a3.47,3.47,0,0,1,.273-.406,1.045,1.045,0,0,1,.448-.225,6.936,6.936,0,0,1,3.413-.129c.192.042.411.119.469.306a.565.565,0,0,1,0,.277,6.146,6.146,0,0,0-.146,1.154,2.17,2.17,0,0,0,.013.242,4.358,4.358,0,0,0,1.135,2.142c.612.758,1.233,1.51,1.856,2.26a8.871,8.871,0,0,0,1.125,1.2,6.394,6.394,0,0,1,1.183.987,2.155,2.155,0,0,1,.192,1.181A26.088,26.088,0,0,1-153.092,216.537Z" fill="#3f3d56"/>
        <path id="Path_155898" data-name="Path 155898" d="M-128.669,224.56a4.048,4.048,0,0,0,.511-.606,3.973,3.973,0,0,0,.385-.86l1.115-3.163c.177-.5.354-1,.577-1.488.231-.525.5-1.031.756-1.538a20.505,20.505,0,0,0,1.494-4.183,1.55,1.55,0,0,0,.06-.613,1.608,1.608,0,0,0-.546-.829,4,4,0,0,0-.819-.677,1.346,1.346,0,0,0-1.027-.165,1.483,1.483,0,0,0-.915,1.154,12.179,12.179,0,0,0-.119,1.538c-.069.738-.323,1.452-.385,2.192-.033.429,0,.862-.052,1.288a4.7,4.7,0,0,1-.577,1.59,10.338,10.338,0,0,1-2.486,3.058,4.022,4.022,0,0,0-.746.717,2.351,2.351,0,0,0-.36.9,2.063,2.063,0,0,0,.156,1.456,2.138,2.138,0,0,0,1.49.888C-129.381,225.377-129.2,225.115-128.669,224.56Z" fill="#be6f72"/>
        <path id="Path_155899" data-name="Path 155899" d="M-143.58,200.267a1.793,1.793,0,0,1,1.742-.944,1.923,1.923,0,0,1,1.512,1.358,3.5,3.5,0,0,0,.285.85c.238.371.681.479,1.012.748a2.026,2.026,0,0,1,.646,1.431,4.345,4.345,0,0,1-.256,1.617,5.119,5.119,0,0,0-.192.677c-.039.223-.042.45-.077.673a2.188,2.188,0,0,1-.883,1.456.383.383,0,0,1-.238.087c-.15-.017-.242-.192-.3-.35-.306-.883-.233-1.961-.8-2.665a2.9,2.9,0,0,0-.912-.679,1.179,1.179,0,0,0-.465-.175,1.226,1.226,0,0,0-.673.246,4.192,4.192,0,0,1-1.331.588,1.634,1.634,0,0,1-1.375-.3c-.265-.219-.46-.548-.754-.719a5.8,5.8,0,0,0-.892-.279,1.321,1.321,0,0,1-.7-1.732,1.33,1.33,0,0,1,.164-.283c.192-.231.477-.362.648-.617a3.9,3.9,0,0,0,.308-1.181,1.627,1.627,0,0,1,.979-1.117,1.375,1.375,0,0,1,1.369.287c.192.173.346.4.535.577a1.539,1.539,0,0,0,1.423.385" fill="#3f3d56"/>
        <path id="Path_155900" data-name="Path 155900" d="M-140.419,228.573a.745.745,0,0,0-.2.815,17.932,17.932,0,0,0,2.237-.321c.523-.075,1.44-.038,1.792-.517.627-.848-1.315-.66-1.671-.629A3.661,3.661,0,0,0-140.419,228.573Z" opacity="0.1"/>
        <path id="Path_155901" data-name="Path 155901" d="M-158.472,203.766a6.144,6.144,0,0,0-.146,1.154,3.361,3.361,0,0,1-1.731-.267l-1.59-.542a.452.452,0,0,0-.608.113,13.318,13.318,0,0,1-.961,1.067.791.791,0,0,1-.167-.037c-.267-.112-.227-.525-.035-.742s.477-.338.652-.577a3.47,3.47,0,0,1,.273-.406,1.045,1.045,0,0,1,.448-.225,6.935,6.935,0,0,1,3.413-.129c.192.042.412.119.469.306A.563.563,0,0,1-158.472,203.766Z" fill="#3f3d56"/>
        <path id="Path_155902" data-name="Path 155902" d="M-158.472,203.766a6.144,6.144,0,0,0-.146,1.154,3.361,3.361,0,0,1-1.731-.267l-1.59-.542a.452.452,0,0,0-.608.113,13.318,13.318,0,0,1-.961,1.067.791.791,0,0,1-.167-.037c-.267-.112-.227-.525-.035-.742s.477-.338.652-.577a3.47,3.47,0,0,1,.273-.406,1.045,1.045,0,0,1,.448-.225,6.935,6.935,0,0,1,3.413-.129c.192.042.412.119.469.306A.563.563,0,0,1-158.472,203.766Z" opacity="0.1"/>
        <path id="Path_155903" data-name="Path 155903" d="M-143.921,240.275a.96.96,0,0,1,.671.5l-2.227-.565-1.154-.294c-.2-.052-.935-.112-1.069-.271-.192-.235.49-.073.613-.056.373.056.746.113,1.117.181C-145.273,239.9-144.6,240.1-143.921,240.275Z" opacity="0.1"/>
        <path id="Path_155904" data-name="Path 155904" d="M-143.061,242.246a4.183,4.183,0,0,0-.981-.169c-.346-.083-.687-.192-1.027-.3-.69-.225-1.375-.481-2.085-.646-.131-.029-.577-.037-.556-.2s.446-.223.552-.231a5.455,5.455,0,0,1,2,.458A8.814,8.814,0,0,1-143.061,242.246Z" opacity="0.1"/>
        <path id="Path_155905" data-name="Path 155905" d="M-144.472,238.517a14.839,14.839,0,0,0-2.073-.715.842.842,0,0,1-.529-.162.625.625,0,0,1-.171-.308,3.579,3.579,0,0,1,1.494.375,4.651,4.651,0,0,1,.7.373C-144.885,238.178-144.647,238.461-144.472,238.517Z" opacity="0.1"/>
        <path id="Path_155906" data-name="Path 155906" d="M-131.019,221.3a3.363,3.363,0,0,0,2.358,3.717c-.094.456-.565.708-.9,1.033-.469.456-.712,1.138-1.265,1.485a2.821,2.821,0,0,1-2.115.073.254.254,0,0,1-.165-.087.225.225,0,0,1-.031-.075,4.946,4.946,0,0,1-.146-2.615,8.528,8.528,0,0,1,1.024-1.991C-131.89,222.2-131.855,221.51-131.019,221.3Z" fill="#3f3d56"/>
        <path id="Path_155907" data-name="Path 155907" d="M-148.212,210.271a5,5,0,0,0-2.115.644,2.364,2.364,0,0,1-1.365.517c-.29-.033-.577-.192-.86-.115a1.692,1.692,0,0,0-.44.262.5.5,0,0,1-.485.077l-.192,2.661a9.756,9.756,0,0,0,.1,3.031,8.485,8.485,0,0,1,.431,1.473c.031.512-.016,1.037.021,1.554.035.479.14.95.167,1.429a9.1,9.1,0,0,1-.385,2.679,15.934,15.934,0,0,1-1.154,3.794,2.249,2.249,0,0,0-.385,1.025.556.556,0,0,0,.011.135c-.192.106-.371.206-.535.31a2.045,2.045,0,0,0-.906.91c-.121.333-.065.713-.212,1.035s-.481.55-.554.9c-.052.252.048.517,0,.769a3.274,3.274,0,0,0-.106.4.834.834,0,0,0,.467.679,3.76,3.76,0,0,0,1.154.508l1.148-4.558h0a36.762,36.762,0,0,0,2.6-6.052,13,13,0,0,1,.752-1.992,9.4,9.4,0,0,0,.577-1.131,8.549,8.549,0,0,0,.277-1.521,10.725,10.725,0,0,1,.452-1.756,7.514,7.514,0,0,0,.49-1.881c.063-.927-.273-1.906.085-2.763a3.681,3.681,0,0,1,.587-.883c.5-.608.948-1.244,1.444-1.852A1.337,1.337,0,0,0-148.212,210.271Z" fill="#3f3d56"/>
        <g id="Group_167358" data-name="Group 167358" opacity="0.1">
          <path id="Path_155908" data-name="Path 155908" d="M-142.794,199.635l-.24.017-.027.019A1.417,1.417,0,0,0-142.794,199.635Z"/>
          <path id="Path_155909" data-name="Path 155909" d="M-138.394,203.627a5.2,5.2,0,0,1-.246,1.123,5.121,5.121,0,0,0-.192.677c-.038.223-.042.45-.077.673a2.2,2.2,0,0,1-.883,1.456.387.387,0,0,1-.239.087c-.15-.017-.242-.192-.3-.35-.306-.883-.233-1.962-.8-2.665a2.908,2.908,0,0,0-.911-.679,1.179,1.179,0,0,0-.465-.175,1.226,1.226,0,0,0-.673.246,4.192,4.192,0,0,1-1.331.588,1.634,1.634,0,0,1-1.375-.3c-.265-.219-.46-.548-.754-.719a5.8,5.8,0,0,0-.892-.279,1.311,1.311,0,0,1-.75-.858.449.449,0,0,1-.015-.073,1.349,1.349,0,0,0,.016.65,1.312,1.312,0,0,0,.75.858,6.447,6.447,0,0,1,.892.279,7.317,7.317,0,0,1,.754.719,1.634,1.634,0,0,0,1.375.3,4.192,4.192,0,0,0,1.331-.588,1.226,1.226,0,0,1,.673-.246,1.179,1.179,0,0,1,.465.175,2.9,2.9,0,0,1,.9.685c.563.7.49,1.783.8,2.665.056.16.148.333.3.35a.382.382,0,0,0,.252-.092,2.191,2.191,0,0,0,.885-1.461c.035-.223.039-.45.077-.673a5.117,5.117,0,0,1,.192-.677,4.345,4.345,0,0,0,.256-1.617A.582.582,0,0,1-138.394,203.627Z"/>
        </g>
        <path id="Path_155910" data-name="Path 155910" d="M-150.561,219.057l-.131,1.756a36.506,36.506,0,0,1-3.836,12.55,35.613,35.613,0,0,1-19.1,17.267q-1.24.49-2.575.915l-.992-3.115a36.453,36.453,0,0,0,7.158-3.131A31.676,31.676,0,0,0-157.506,232a35.72,35.72,0,0,0,3.288-9.673h-12.054v-3.269Z" fill="#ffab40"/>
        <path id="Path_155911" data-name="Path 155911" d="M-174.923,250.631a35.606,35.606,0,0,0,19.1-17.265,36.441,36.441,0,0,0,3.836-12.55l.131-1.756h1.346l-.131,1.756a36.462,36.462,0,0,1-3.836,12.55,35.613,35.613,0,0,1-19.1,17.265q-1.24.49-2.577.917l-.131-.41Q-175.587,250.891-174.923,250.631Z" fill="#fff" opacity="0.1"/>
        <path id="Path_155912" data-name="Path 155912" d="M-196.137,248.43l-.992,3.115q-1.337-.428-2.577-.917A35.6,35.6,0,0,1-218.8,233.363a36.441,36.441,0,0,1-3.836-12.55l-.131-1.756h15.7v3.269h-12.056a35.735,35.735,0,0,0,3.3,9.673,31.659,31.659,0,0,0,12.529,13.3A36.3,36.3,0,0,0-196.137,248.43Z" fill="#ffab40"/>
        <path id="Path_155913" data-name="Path 155913" d="M-198.41,250.631A35.6,35.6,0,0,1-217.5,233.366a36.441,36.441,0,0,1-3.836-12.55l-.131-1.756h-1.346l.131,1.756a36.464,36.464,0,0,0,3.837,12.55,35.614,35.614,0,0,0,19.093,17.265q1.24.49,2.577.917l.131-.41Q-197.743,250.891-198.41,250.631Z" fill="#fff" opacity="0.1"/>
        <path id="Path_155914" data-name="Path 155914" d="M-168.526,278.545v17.628h-36.28V278.545l1.154-1.538c11.757-4.173,14.14-15.056,14.615-19.361a17.6,17.6,0,0,0,.121-1.792h4.49a17.6,17.6,0,0,0,.121,1.792c.483,4.306,2.865,15.192,14.615,19.361Z" fill="#ffab40"/>
        <rect id="Rectangle_30559" data-name="Rectangle 30559" width="36.282" height="2.211" transform="translate(-204.806 278.545)" opacity="0.1"/>
        <path id="Path_155915" data-name="Path 155915" d="M-201.726,277c11.757-4.173,14.14-15.056,14.615-19.361a17.6,17.6,0,0,0,.121-1.792h-1.926a17.6,17.6,0,0,1-.121,1.792c-.483,4.306-2.865,15.192-14.615,19.361l-1.154,1.538v17.632h1.923V278.545Z" fill="#fff" opacity="0.1"/>
        <path id="Path_155916" data-name="Path 155916" d="M-210.317,219.057h3.254v3.269h-2.965Q-210.2,220.71-210.317,219.057Z" opacity="0.1"/>
        <path id="Path_155917" data-name="Path 155917" d="M-196.136,248.43l-.992,3.115q-1.336-.428-2.577-.917a34.455,34.455,0,0,1-3.59-5.331A36.325,36.325,0,0,0-196.136,248.43Z" opacity="0.1"/>
        <path id="Path_155918" data-name="Path 155918" d="M-177.193,248.429a36.453,36.453,0,0,0,7.158-3.131,34.521,34.521,0,0,1-3.59,5.333q-1.24.49-2.575.915Z" opacity="0.1"/>
        <path id="Path_155919" data-name="Path 155919" d="M-163.014,219.057q-.114,1.654-.289,3.269h-2.963v-3.269Z" opacity="0.1"/>
        <path id="Path_155920" data-name="Path 155920" d="M-184.3,257.645a12.414,12.414,0,0,1-4.729,0,17.6,17.6,0,0,0,.121-1.792h4.486A17.6,17.6,0,0,0-184.3,257.645Z" opacity="0.1"/>
        <path id="Path_155921" data-name="Path 155921" d="M-209.933,213.642c.083,24.242,10.467,43.845,23.269,43.845s23.184-19.6,23.269-43.845Z" fill="#ffab40"/>
        <path id="Path_155922" data-name="Path 155922" d="M-205.8,213.642h-4.135c.083,24.242,10.467,43.845,23.269,43.845a12.557,12.557,0,0,0,2.067-.175C-196.431,255.335-205.72,236.565-205.8,213.642Z" fill="#fff" opacity="0.1"/>
        <rect id="Rectangle_30560" data-name="Rectangle 30560" width="24.678" height="6.346" transform="translate(-199.004 285.293)" fill="#3f3d56"/>
        <path id="Path_155923" data-name="Path 155923" d="M-197.85,286.158h23.525v-.865H-199v6.346h1.154Z" fill="#fff" opacity="0.1"/>
        <path id="Path_155924" data-name="Path 155924" d="M-223.094,237.048c-.444-.148-3.06-2.217-3.258-3.154s1.383-9.661,1.383-9.661a3.545,3.545,0,0,1-.385-.029v-.14l.325-11.461s1.333-7.692-1.185-7.244-.938,7.244-.938,7.244-.287,3.45-.488,4.485c-.192,1-1.073,5.063-.473,6.327a1.286,1.286,0,0,0,.073.131h0s.1,4.336-.987,4.929c-1.037.563-1.467,3.4-1.5,3.654l-.056-.023h0a3.006,3.006,0,0,1-.8-.733c-.023-.029-.04-.06-.062-.09a4.235,4.235,0,0,0-.355-5.979,4.237,4.237,0,0,0-.945-.634,2.73,2.73,0,0,0-.256-1.062c-.5-1.069-3.269-2.467-5.236-2.5-.908-.027-1.652.231-1.923.94a5.43,5.43,0,0,0-.154,1.142,2.9,2.9,0,0,1-1.244,1.85,7.735,7.735,0,0,0-.829-.8,18.008,18.008,0,0,1-1.923-2.115s-4-4.14-4.294-5.275-4.29-7.948-5.179-6.761,3.06,6.358,3.06,6.358a12.007,12.007,0,0,0,1.327,2.513c.577.635,5,7.058,5,7.058l.212.438a3.846,3.846,0,0,0-2.09,2.1c-.442,1.438.525,2.885,1.194,4.231,1.3,2.627,1.49,5.977-.192,8.377-1.508,2.119-4.123,3.127-6.571,4.008a6.464,6.464,0,0,0,4.154,1.379c-.565,1.638-2.569,2.181-4.277,2.485a6.156,6.156,0,0,0,3.41,1.365,10.15,10.15,0,0,0,1.825.144h.15l.15-.012a5.194,5.194,0,0,0,.621-.079A3.263,3.263,0,0,0-243.6,249c.385-.671.519-1.586,1.217-1.923a1.558,1.558,0,0,1,.577-.137h.375l2.91.029h.371a2.4,2.4,0,0,0,2.115-.84,2.331,2.331,0,0,0,.263-1.067c.062-.921,0-1.869.025-2.8.248,1.69.508,4.325-.11,5.3a9.043,9.043,0,0,1-1.8,1.956,3.493,3.493,0,0,0-.477.488c-.094.067-.15.1-.15.1l-.06.179a3.385,3.385,0,0,0-.469,1.088.759.759,0,0,0-.037.31c.067.137-.481.7-.321.937a8.477,8.477,0,0,0-1.629,4.038l-2.5,3.8c-1.285,3.375-3.208,3.721-3.208,3.721s-4.517-3.031-4.64-3.179a17.355,17.355,0,0,0-1.85-.888,1.958,1.958,0,0,0-.888-.812c-.592-.246-.642-1.154-.642-1.154-.073-2.144-1.333-2.308-1.333-2.308a4.086,4.086,0,0,0-2.387.425l-.181.013c-.873.071-1.923.15-3.077.227-3.21.212-3.973,2.29-3.973,2.29a.64.64,0,0,0,.091.9l.032.024c.517.481,3.829,0,3.969-.012a2.151,2.151,0,0,1-.754-.052c.521-.019,1.238-.038,1.85-.038h.148a7.965,7.965,0,0,0-.056.977c0,.615,1.7,1.01,1.7,1.01l5.183,4.615a20.515,20.515,0,0,1,5.331,3.55,2.659,2.659,0,0,0,3.735.434q.088-.069.171-.147c2.194-.542,8.508-8.175,8.513-8.183h0c0,.223.133,7.646.385,9.136h0a.981.981,0,0,0,.056.221c.3.64-.1,2.39-.271,3.129a8.706,8.706,0,0,0-.125,1.873s-2.367,9.038-2.171,9.833-1.283,4.485-1.283,4.485v3.077l.258-.013c-.033.05-.064.1-.092.154l-.017.033a10.941,10.941,0,0,0,2.64.246,7.415,7.415,0,0,1,2.885.817,8.034,8.034,0,0,0,2.517.415c1.9.123,1.9-.838,1.9-.838-.217-1.31-3.219-1.748-3.311-1.761-.242-.152-.469-.317-.656-.46l-.038-.031a.719.719,0,0,0,.033-.088c.321-1.308-1.456-1.875-1.456-1.875v-.319c1.154-.592,1.383-4.658,1.383-4.658s1.731-5.027,1.973-5.865a5.544,5.544,0,0,0,0-2.094l.173-1.085a5.379,5.379,0,0,0,.371-.887,2.19,2.19,0,0,1,.419-1.035c.271-.321-.3-1.085-.3-1.085l.494-1.281v-1.406l1.154-5.1s1.21-5.94.79-7.884a3.346,3.346,0,0,1,.494-2.933,2.53,2.53,0,0,1-.254.115,7.428,7.428,0,0,0,.3-.819l2.6.321v.038h.937s-.3-3.654-.3-5.127,1-6.76,1-6.76S-222.649,237.2-223.094,237.048Zm-11.527-4.266c0,.144-.013.294-.023.448l-.052.079-.1-.081-.117.183-.035.017c-.254-.131-.385-.879-.567-.717l-.025.021c-.04-.046-.081-.06-.123-.021l-.038.033v-.171a4.3,4.3,0,0,0,1.077.137A.588.588,0,0,1-234.621,232.782Zm8.634,17.015h.056l-.092.242c.014-.08.026-.159.039-.242Zm-9.479,43.609-.354-.088.192-.033.179.117.021.015Zm3.615-.517c-.117-.062-.237-.133-.352-.206a3.884,3.884,0,0,1,.356.206Z" fill="url(#linear-gradient-2)"/>
        <path id="Path_155925" data-name="Path 155925" d="M-224.707,246.165l-2.329,6.069h.565l-2.19,1.746,3.954.492Z" fill="#f86d70"/>
        <path id="Path_155926" data-name="Path 155926" d="M-224.707,246.165l-2.329,6.069-.587-.158-1.038,1.9,3.954.492Z" opacity="0.1"/>
        <path id="Path_155927" data-name="Path 155927" d="M-228.359,250.049h3.652l1.34-11.029h-4.992Z" fill="#f86d70"/>
        <path id="Path_155928" data-name="Path 155928" d="M-228.359,250.049h3.652l1.34-11.029h-4.992Z" opacity="0.1"/>
        <path id="Path_155929" data-name="Path 155929" d="M-235.492,241.63l.788-.133,1.811-.308s5.44-1.227,6.563-1.327a7,7,0,0,0,1.969-.562c.294-.127.481-.223.481-.223l-1.96-3.579-3.04-2.254a5.266,5.266,0,0,1-2.737-1.529,1.8,1.8,0,0,1-.252-1.708c.5-1.538-2.963,1.471-2.963,1.471s.033.721,0,1.64c0,.181-.017.369-.031.562a3.816,3.816,0,0,1-.031.385,6.19,6.19,0,0,1-.6,2.415C-236.328,237.855-235.492,241.63-235.492,241.63Z" fill="#fbbebe"/>
        <path id="Path_155930" data-name="Path 155930" d="M-234.83,233.2h.077c.138,0,.25-.294.385-.308a3.988,3.988,0,0,0,2.758-1.1,1.8,1.8,0,0,1-.252-1.706c.5-1.538-2.963,1.469-2.963,1.469S-234.79,232.278-234.83,233.2Z" opacity="0.1"/>
        <path id="Path_155931" data-name="Path 155931" d="M-239.042,228.836a4.213,4.213,0,0,0,4.211,4.215h0a2.982,2.982,0,0,0,.412-.019,4.215,4.215,0,0,0,3.783-4.607,4.216,4.216,0,0,0-4.607-3.783,4.216,4.216,0,0,0-3.8,4.19Z" fill="#fbbebe"/>
        <path id="Path_155932" data-name="Path 155932" d="M-240.336,222.439a5.246,5.246,0,0,0-.152,1.136c-.206,1.367-1.6,2.187-2.854,2.76s-2.677,1.252-3.077,2.573c-.438,1.429.519,2.861,1.185,4.2,1.3,2.612,1.481,5.942-.192,8.331-1.487,2.115-4.077,3.119-6.515,4a6.423,6.423,0,0,0,4.125,1.373c-.56,1.629-2.55,2.169-4.246,2.469a6.106,6.106,0,0,0,3.386,1.358,7.681,7.681,0,0,0,2.692.05,3.232,3.232,0,0,0,2.188-1.442c.385-.667.515-1.577,1.21-1.913a2.188,2.188,0,0,1,.987-.144l2.885.031c.9,0,1.962-.069,2.425-.836a2.306,2.306,0,0,0,.262-1.061c.125-1.892-.238-3.892.54-5.619.235-.521-1.271-1.346-1.113-1.9a17.729,17.729,0,0,0,.673-5.367c0-1.529.994-2.846,1.815-4.136s1.508-2.919.86-4.3C-233.985,222.454-239.473,220.21-240.336,222.439Z" fill="#3f3d56"/>
        <path id="Path_155933" data-name="Path 155933" d="M-236.5,292.852l.735.487.113.075.021.013.871.577,2.035.342,1.788-.123s.515-1.077-.294-1.052a1.68,1.68,0,0,1-.738-.213l-.112-.056h0c-.117-.062-.235-.131-.35-.2h0c-.24-.152-.467-.317-.65-.458-.269-.208-.448-.365-.448-.365Z" fill="#fbbebe"/>
        <path id="Path_155934" data-name="Path 155934" d="M-235.751,293.339l.113.075.021.013.871.577,2.035.342,1.788-.123s.515-1.077-.294-1.052a1.68,1.68,0,0,1-.738-.213c.142.112.262.233.273.335.033.275-1.323.769-1.323.769l-1.911-.506s-.325-.092-.769-.208l-.042-.012Z" opacity="0.1"/>
        <path id="Path_155935" data-name="Path 155935" d="M-239.021,293.808a10.787,10.787,0,0,0,2.621.244,7.386,7.386,0,0,1,2.869.81,8.044,8.044,0,0,0,2.5.411c1.887.123,1.887-.835,1.887-.835-.215-1.3-3.2-1.731-3.288-1.75h0a3.672,3.672,0,0,1,.35.2h0c.212.138.44.319.458.465.033.273-1.323.769-1.323.769l-1.911-.5s-.325-.094-.769-.21h-.042a16.393,16.393,0,0,0-2-.414,1.392,1.392,0,0,0-1.331.769.25.25,0,0,0-.015.038Z" fill="#3f3d56"/>
        <path id="Path_155936" data-name="Path 155936" d="M-263.724,259.226l.833.638s.242-.012.6-.023h.115c.517-.019,1.231-.038,1.837-.038a5.806,5.806,0,0,1,1.171.065c.415.146,1.154-2.377,1.154-2.377l-.835-.192-.277-.065-.192-.046-.679-.16-2.058.235-1.446.931Z" fill="#fbbebe"/>
        <path id="Path_155937" data-name="Path 155937" d="M-263.724,259.226l.833.638s.242-.012.6-.023a.728.728,0,0,1-.385-.344c-.538-1.494,2.133-2.133,2.133-2.133l1.244-.054.242-.012h.192l-.277-.065-.192-.046-.679-.16-2.058.235-1.446.931Z" opacity="0.1"/>
        <path id="Path_155938" data-name="Path 155938" d="M-265.366,259.9c.5.465,3.8,0,3.942-.012a2.073,2.073,0,0,1-.748-.052.824.824,0,0,1-.577-.413c-.538-1.5,2.133-2.133,2.133-2.133l1.244-.054.24-.011,3.025-.131.146-.833s-.983.092-2.525.215c-.867.071-1.923.15-3.063.225-3.186.212-3.944,2.279-3.944,2.279a.639.639,0,0,0,.1.9Z" fill="#3f3d56"/>
        <path id="Path_155939" data-name="Path 155939" d="M-228.357,223.8a.8.8,0,0,0,.073.131l.735,1.077,1.912.192.021-.758.321-11.4s1.323-7.646-1.177-7.206-.931,7.206-.931,7.206-.285,3.431-.485,4.461C-228.082,218.505-228.953,222.555-228.357,223.8Z" fill="#fbbebe"/>
        <path id="Path_155940" data-name="Path 155940" d="M-232.648,252.12l.544.931,1.217,2.083s2.208.81,2.773.192a8,8,0,0,0,.879-2.5c.192-.8.321-1.475.321-1.475Z" fill="#fbbebe"/>
        <path id="Path_155941" data-name="Path 155941" d="M-232.648,252.121l.544.931a.625.625,0,0,0,.092-.1c.615-.785,3.325-.167,4.777-.117.192-.8.321-1.475.321-1.475Z" opacity="0.1"/>
        <path id="Path_155942" data-name="Path 155942" d="M-260.336,259.8a5.806,5.806,0,0,1,1.171.065c.415.146,1.154-2.377,1.154-2.377l-1.112-.261,3.025-.131.146-.833s-.983.092-2.525.215a3.177,3.177,0,0,0-.84.7l-.046.058A5.04,5.04,0,0,0-260.336,259.8Z" opacity="0.1"/>
        <path id="Path_155943" data-name="Path 155943" d="M-236.5,292.853l.848.561c1.265-.229,2.421-.588,2.558-1.154a.123.123,0,0,0,0-.027c-.269-.208-.448-.365-.448-.365Z" opacity="0.1"/>
        <path id="Path_155944" data-name="Path 155944" d="M-239,293.776a29.372,29.372,0,0,0,3.335-.358,16.3,16.3,0,0,0-2.006-.417A1.382,1.382,0,0,0-239,293.776Z" opacity="0.1"/>
        <path id="Path_155945" data-name="Path 155945" d="M-260.243,260.771c0,.613,1.69,1.006,1.69,1.006l5.148,4.583a20.369,20.369,0,0,1,5.292,3.529,2.636,2.636,0,0,0,3.7.443c.06-.047.118-.1.173-.149,2.181-.538,8.461-8.136,8.461-8.136s.146,8.677.44,9.313-.1,2.377-.269,3.113a8.668,8.668,0,0,0-.123,1.862s-2.352,8.994-2.156,9.779-1.275,4.461-1.275,4.461v3.063s5.76-.221,6.077-1.519-1.444-1.863-1.444-1.863v-.319c1.154-.588,1.371-4.631,1.371-4.631s1.717-5,1.962-5.833a5.457,5.457,0,0,0,0-2.085l.171-1.077a5.408,5.408,0,0,0,.367-.883,2.186,2.186,0,0,1,.417-1.029c.269-.319-.294-1.079-.294-1.079l.49-1.275v-1.4l1.154-5.073s1.2-5.908.785-7.844a3.319,3.319,0,0,1,.49-2.915c-1.967,1.031-2.96-1.263-3.285-2.25-.083-.254-.123-.423-.123-.423a13.749,13.749,0,0,0-5.217-.758,6.013,6.013,0,0,0-1.5.317c-2.794,1.006-3.235,5.171-3.235,5.171l-2.475,3.775c-1.275,3.358-3.186,3.7-3.186,3.7s-4.485-3.013-4.615-3.161a17.83,17.83,0,0,0-1.838-.883,1.948,1.948,0,0,0-.883-.808c-.588-.246-.637-1.154-.637-1.154-.073-2.133-1.323-2.308-1.323-2.308C-260.268,255.674-260.243,260.159-260.243,260.771Z" fill="#3f3d56"/>
        <rect id="Rectangle_30561" data-name="Rectangle 30561" width="2.646" height="8.209" transform="translate(-235.294 240.579)" fill="#f86d70"/>
        <rect id="Rectangle_30562" data-name="Rectangle 30562" width="2.646" height="8.209" transform="translate(-235.294 240.579)" opacity="0.1"/>
        <path id="Path_155946" data-name="Path 155946" d="M-228.359,223.788v.017a.8.8,0,0,0,.073.131l.735,1.077,1.911.192.021-.758A7.64,7.64,0,0,1-228.359,223.788Z" opacity="0.1"/>
        <path id="Path_155947" data-name="Path 155947" d="M-228.284,223.936s.1,4.311-.981,4.9-1.5,3.654-1.5,3.654a27.469,27.469,0,0,1,4,3.1c.729.946,2.4,3.2,2.058,3.738s.835,2.99.835,2.99-2.158,4.411-1.667,6.079a34.785,34.785,0,0,1,.538,6.077h.933s-.294-3.627-.294-5.1.979-6.715.979-6.715.442-5.146,0-5.292-3.038-2.206-3.235-3.138,1.373-9.615,1.373-9.615A8.594,8.594,0,0,1-228.284,223.936Z" fill="#f86d70"/>
        <path id="Path_155948" data-name="Path 155948" d="M-235.344,239.816a4.2,4.2,0,0,0,.64,1.681l1.811-.308s5.44-1.227,6.563-1.327a7,7,0,0,0,1.969-.562,8.689,8.689,0,0,0-2.433-3.99l-.69-.64a11.564,11.564,0,0,0-3.481-2.225c.081.067,5.788,4.94,4.538,5.9s-4.615-1.371-4.615-1.371l-3.827-3.288-.138-.119-.221.344a3.1,3.1,0,0,1,.329.158,5.632,5.632,0,0,1,2.692,3.346C-231.419,240.055-235.344,239.816-235.344,239.816Z" opacity="0.1"/>
        <path id="Path_155949" data-name="Path 155949" d="M-236.521,252.071s3.627,2.01,4.508.883a1.5,1.5,0,0,1,1.1-.385c-.083-.254-.123-.423-.123-.423a13.749,13.749,0,0,0-5.217-.758Z" fill="#444053"/>
        <path id="Path_155950" data-name="Path 155950" d="M-234.852,233.566l3.965,3.411s3.352,2.335,4.615,1.371-4.54-5.9-4.54-5.9h0a11.724,11.724,0,0,1,3.479,2.219l.69.64c1.815,1.683,2.225,1.683,2.286,4.156a3.468,3.468,0,0,1-.352,1.642c-.588.577-1,4.767-.91,5.258s-1.1,4.723-.712,5.9-4.808-.588-5.686.54-4.506-.883-4.506-.883,2.01-5.148,2.5-5.49,1.079-2.99,0-4.215a4.572,4.572,0,0,1-1.175-2.4s3.923.242,3.136-2.4a5.551,5.551,0,0,0-3.015-3.5Z" fill="#e8e8f0"/>
        <path id="Path_155951" data-name="Path 155951" d="M-229.559,242.244s-1.521,2.867-3.488,3.611c-.063.023-.125.044-.192.063C-235.293,246.544-229.4,243.132-229.559,242.244Z" opacity="0.1"/>
        <path id="Path_155952" data-name="Path 155952" d="M-250.832,216.877a11.42,11.42,0,0,0,1.323,2.5c.588.637,4.95,7.009,4.95,7.009l.369.769.317.656,2.794-.294.192-1.127-.108-.131a13.106,13.106,0,0,0-1.56-1.635,18,18,0,0,1-1.91-2.108s-3.969-4.119-4.263-5.246-4.265-7.884-5.146-6.715S-250.832,216.877-250.832,216.877Z" fill="#fbbebe"/>
        <g id="Group_167359" data-name="Group 167359" opacity="0.1">
          <path id="Path_155953" data-name="Path 155953" d="M-242.72,247.19a2.187,2.187,0,0,0-.987.142c-.692.337-.823,1.246-1.208,1.913a3.236,3.236,0,0,1-2.19,1.442,5.019,5.019,0,0,1-.531.073,6.025,6.025,0,0,0,1.685-.073,3.236,3.236,0,0,0,2.19-1.442c.385-.667.515-1.577,1.208-1.913a1.536,1.536,0,0,1,.577-.135Z"/>
          <path id="Path_155954" data-name="Path 155954" d="M-235.894,232.438c0-1.529.994-2.846,1.813-4.136s1.508-2.919.86-4.3c-.554-1.183-3.892-2.769-5.819-2.456,1.887.244,4.211,1.487,4.665,2.456.648,1.385-.04,3.013-.86,4.3s-1.817,2.608-1.813,4.136a17.957,17.957,0,0,1-.675,5.367c-.156.548,1.346,1.377,1.115,1.9-.781,1.731-.415,3.727-.54,5.619a2.337,2.337,0,0,1-.263,1.062,2.249,2.249,0,0,1-1.94.831h.671c.9,0,1.96-.069,2.423-.837a2.337,2.337,0,0,0,.263-1.062c.125-1.892-.24-3.89.54-5.619.235-.519-1.271-1.346-1.115-1.9A17.755,17.755,0,0,0-235.894,232.438Z"/>
        </g>
        <path id="Path_155955" data-name="Path 155955" d="M-244.19,227.151l.317.656,2.794-.294.192-1.127-.108-.131C-241.292,226.4-243.525,227.476-244.19,227.151Z" opacity="0.1"/>
        <path id="Path_155956" data-name="Path 155956" d="M-233.873,234.522s-.687-1.077-1.079-.785-.544-.883-.769-.687-.881.742-1.154-.021c-.214-.608-2.536-4.452-3.479-6-.242-.4-.394-.646-.394-.646s-2.646,1.323-3.283.883v.931l.538.05,2.885,5.385s.908,1.444.846,1.948a8.7,8.7,0,0,0,1.36,2.856c.2.146,2.308,2.6,2.308,2.6s1.079,5.294.146,6.765a10.05,10.05,0,0,1-2.548,2.548,8.191,8.191,0,0,0-.415,1.569c.071.148-.565.785-.271.981s.687,1.567.687,1.567,1.373-2.206,2.115-2.548,1.692-4.854,1.692-4.854.271-2.658.292-4.373S-234.461,234.522-233.873,234.522Z" opacity="0.1"/>
        <path id="Path_155957" data-name="Path 155957" d="M-234.02,234.522s-.685-1.077-1.077-.785-.546-.883-.769-.687-.879.742-1.154-.021c-.215-.608-2.538-4.452-3.479-6l-.394-.646s-2.646,1.323-3.285.883v.931l.54.05,2.885,5.385s.91,1.444.846,1.948a8.463,8.463,0,0,0,1.36,2.856c.206.146,2.308,2.6,2.308,2.6s1.079,5.294.148,6.765a9.02,9.02,0,0,1-1.775,1.965,3.427,3.427,0,0,0-1.154,1.85.748.748,0,0,0-.035.308c.071.146-.565.785-.271.981s.69,1.573.69,1.573,1.373-2.206,2.115-2.548,1.694-4.854,1.694-4.854.269-2.658.292-4.373S-234.6,234.522-234.02,234.522Z" fill="#f86d70"/>
        <path id="Path_155958" data-name="Path 155958" d="M-240.736,256.826a9.853,9.853,0,0,1,2.885.979c.825.594-3.136-.931-3.136-.931Z" opacity="0.1"/>
        <path id="Path_155959" data-name="Path 155959" d="M-235.784,262.045s2.148,1.79,1.763,3.408-1.377,5.686-1.377,5.686Z" opacity="0.1"/>
        <path id="Path_155960" data-name="Path 155960" d="M-254.571,258.6s-3.027.331-2.831.723,2.831-.362,2.831-.362Z" opacity="0.1"/>
        <path id="Path_155961" data-name="Path 155961" d="M-231.328,273.491s.192.244-.931,0-.294-1-.294-1Z" opacity="0.1"/>
        <path id="Path_155962" data-name="Path 155962" d="M-231.714,276.87a7.152,7.152,0,0,1-2.363,0C-234.9,276.63-231.714,276.87-231.714,276.87Z" opacity="0.1"/>
        <path id="Path_155963" data-name="Path 155963" d="M-234.878,290.108s-.269-.294-1.617.244-1.887.563-2.279.385S-234.878,290.108-234.878,290.108Z" opacity="0.1"/>
        <path id="Path_155964" data-name="Path 155964" d="M-233.382,258.186l-1.912,2.66S-234.265,258.517-233.382,258.186Z" opacity="0.1"/>
        <path id="Path_155965" data-name="Path 155965" d="M-237.1,233.738s-.083.883-1.315,1.227a3.363,3.363,0,0,0-1.467.623" opacity="0.1"/>
        <path id="Path_155966" data-name="Path 155966" d="M-240.3,227.34a5.273,5.273,0,0,1-3.325.91" opacity="0.1"/>
        <path id="Path_155967" data-name="Path 155967" d="M-239.063,252.046s.475.3,1.615-1.006" opacity="0.1"/>
        <path id="Path_155968" data-name="Path 155968" d="M-227.219,238.22a.834.834,0,0,0-.275-.646l-.319-.385a1.423,1.423,0,0,0-.21-.215c-.192-.148-.438-.192-.638-.325" opacity="0.1"/>
        <path id="Path_155969" data-name="Path 155969" d="M-123.967,171.181s-16.19-.977-14.286,10.369a2.758,2.758,0,0,0,1.438,2.915s.029-.84,1.662-.554a7.571,7.571,0,0,0,1.76.085,3.664,3.664,0,0,0,2.15-.888h0s4.552-1.881,6.321-9.319c0,0,1.31-1.623,1.258-2.04l-2.736,1.171a4.877,4.877,0,0,1,.192,3.61s-.089-3.538-.614-3.461c-.106.017-1.419.683-1.419.683s1.606,3.433.394,5.929c0,0,.46-4.231-.9-5.681l-1.923,1.123s1.877,3.546.6,6.44c0,0,.327-4.438-1.01-6.167l-1.742,1.36s1.763,3.5.689,5.9c0,0-.14-5.167-1.065-5.558a10.7,10.7,0,0,0-1.758,1.9s1.208,2.538.458,3.877c0,0-.46-3.442-.836-3.461a11.431,11.431,0,0,0-1.677,3.846,8.286,8.286,0,0,1,1.31-4.061,4.577,4.577,0,0,0-2.327,1.2s.237-1.612,2.7-1.752a10.668,10.668,0,0,1,1.59-1.837,10.02,10.02,0,0,0-3.936.454s1.308-1.521,4.386-.829l1.721-1.406s-3.227-.44-4.6.046c0,0,1.575-1.346,5.06-.365l1.873-1.119a17.177,17.177,0,0,0-4.39-.385s1.731-.933,4.94.079l1.346-.6s-2.015-.4-2.606-.46-.621-.225-.621-.225a6.99,6.99,0,0,1,3.786.421A16.9,16.9,0,0,0-123.967,171.181Z" fill="#ffab40" opacity="0.1"/>
        <path id="Path_155970" data-name="Path 155970" d="M-143.936,174.068s-7.308-.442-6.452,4.685a1.255,1.255,0,0,0,.648,1.319s.013-.385.752-.252a3.352,3.352,0,0,0,.794.038,1.645,1.645,0,0,0,.971-.4h0s2.058-.848,2.858-4.21c0,0,.59-.735.567-.923l-1.235.527a2.213,2.213,0,0,1,.09,1.633s-.04-1.6-.277-1.562c-.048,0-.642.308-.642.308a3.654,3.654,0,0,1,.179,2.681s.208-1.911-.406-2.567l-.869.508a3.827,3.827,0,0,1,.273,2.91s.148-2.006-.456-2.786l-.786.621a3.757,3.757,0,0,1,.312,2.663s-.063-2.335-.483-2.51a4.859,4.859,0,0,0-.794.858s.546,1.154.208,1.75c0,0-.208-1.556-.385-1.562a5.214,5.214,0,0,0-.758,1.731,3.757,3.757,0,0,1,.592-1.837,2.069,2.069,0,0,0-1.052.544s.108-.727,1.221-.792a5.256,5.256,0,0,1,.719-.829,4.506,4.506,0,0,0-1.779.206,2.011,2.011,0,0,1,1.983-.385l.769-.635a6.637,6.637,0,0,0-2.077.021,2.529,2.529,0,0,1,2.287-.165l.846-.506a7.6,7.6,0,0,0-1.984-.171,3.038,3.038,0,0,1,2.233.035l.606-.271s-.912-.181-1.179-.208-.281-.1-.281-.1a3.152,3.152,0,0,1,1.712.192A7.774,7.774,0,0,0-143.936,174.068Z" fill="#ffab40" opacity="0.1"/>
        <ellipse id="Ellipse_2286" data-name="Ellipse 2286" cx="7.733" cy="1.308" rx="7.733" ry="1.308" transform="translate(-126.142 293.689)" fill="#ffab40"/>
        <path id="Path_155971" data-name="Path 155971" d="M-115.211,292.858a2.241,2.241,0,0,0,.737-1.113.993.993,0,0,0-.515-1.133c-.473-.181-.979.148-1.362.479a1.819,1.819,0,0,1-1.323.638,2.019,2.019,0,0,0,.623-1.887.8.8,0,0,0-.173-.385c-.263-.281-.738-.162-1.054.06a3.926,3.926,0,0,0-1.285,3.285,6.182,6.182,0,0,1-.017-1.346,1.388,1.388,0,0,0-.51-1.2,1.525,1.525,0,0,0-.769-.181,1.6,1.6,0,0,0-1.256.358,1.239,1.239,0,0,0,.048,1.538,4.907,4.907,0,0,0,1.3,1.042,2.884,2.884,0,0,1,.929.887.781.781,0,0,1,.069.16h2.819A7.854,7.854,0,0,0-115.211,292.858Z" fill="#ffab40"/>
      </g>
    </g>
  </g>
</svg>
