<svg xmlns="http://www.w3.org/2000/svg" xmlns:xlink="http://www.w3.org/1999/xlink" width="262" height="196" viewBox="0 0 262 196">
  <defs>
    <linearGradient id="linear-gradient" x1="-1.221" y1="8.29" x2="-1.221" y2="8.297" gradientUnits="objectBoundingBox">
      <stop offset="0" stop-color="gray" stop-opacity="0.251"/>
      <stop offset="0.54" stop-color="gray" stop-opacity="0.122"/>
      <stop offset="1" stop-color="gray" stop-opacity="0.102"/>
    </linearGradient>
    <linearGradient id="linear-gradient-2" x1="-8.535" y1="8.794" x2="-8.535" y2="8.802" xlink:href="#linear-gradient"/>
  </defs>
  <g id="card-12" transform="translate(50.218 807.797)">
    <rect id="Rectangle_8569-10" data-name="Rectangle 8569-10" width="262" height="196" transform="translate(-50.218 -807.797)" fill="#c0ebef"/>
    <g id="undraw_events_2p66" data-name="undraw events 2p66">
      <path id="Path_155580" data-name="Path 155580" d="M167.571-701.152c-7.682,12.427-6.242,29.356-2.868,42.7,1.129,4.469,2.429,9.187,1.464,14.189-1.181,6.116-5.484,10.919-9.84,13.669-7.941,5-17.008,4.863-23.611-.367-5.7-4.517-9.457-12.4-15.279-16.67-9.734-7.156-23.1-2.819-34.708,3.869-8.208,4.72-17.242,10.726-24.828,7.326-5.337-2.388-8.665-9.125-10.219-16.457-.75-3.54-1.2-7.406-2.922-10.1a11.337,11.337,0,0,0-3.887-3.556c-13.307-8.023-31.311-1.315-44.143-10.4-8.668-6.135-13.595-18.806-15.214-32.355s-.288-28.047,1.379-42.321c1.187-10.148,2.792-21.005,8.119-29.258,5.635-8.73,14.518-12.634,22.24-11.8s14.425,5.72,20.2,11.7c7.222,7.473,13.736,17.016,23.082,19.427,6.367,1.642,13.319-.259,20.09-1.334,11.3-1.8,22.451-1.282,33.519-.607,10.6.646,21.256,1.45,31.129,5.178,6.986,2.641,12.348,8.137,18.868,11.712,4.25,2.33,9.044,2.626,13,5.733a19.553,19.553,0,0,1,7.145,19.823C178.432-712.561,171.647-707.746,167.571-701.152Z" fill="#b4e7ec"/>
      <path id="Path_155581" data-name="Path 155581" d="M118.4-729.24s20.918-17.528,25.57-26.365a126.39,126.39,0,0,1,10.573-16.453" fill="none" stroke="#535461" stroke-miterlimit="10" stroke-width="2"/>
      <path id="Path_155582" data-name="Path 155582" d="M151.8-752.3l-9.049-2.04S144.884-744.8,151.8-752.3Z" fill="#54cad4"/>
      <path id="Path_155583" data-name="Path 155583" d="M137.969-762.044l5.207,7.8S133-753.511,137.969-762.044Z" fill="#54cad4"/>
      <path id="Path_155584" data-name="Path 155584" d="M155.358-759.631l-8.27-1.45S152.282-753.18,155.358-759.631Z" fill="#54cad4"/>
      <path id="Path_155585" data-name="Path 155585" d="M143.119-766.6l4.074,5.335S139.982-760.581,143.119-766.6Z" fill="#54cad4"/>
      <path id="Path_155586" data-name="Path 155586" d="M151.364-767.663s7.042.336,7.87,1.009-1.05,4.619-3.728,3.974S151.364-767.663,151.364-767.663Z" fill="#54cad4"/>
      <path id="Path_155587" data-name="Path 155587" d="M148.55-773.957s2.877,5.242,2.769,6.24-4.385,2.119-5.248-1.657a3.57,3.57,0,0,1,2.256-4.516C148.4-773.915,148.475-773.937,148.55-773.957Z" fill="#54cad4"/>
      <circle id="Ellipse_2241" data-name="Ellipse 2241" cx="1.958" cy="1.958" r="1.958" transform="translate(153.671 -772.501)" fill="#ffd037"/>
      <circle id="Ellipse_2242" data-name="Ellipse 2242" cx="1.958" cy="1.958" r="1.958" transform="translate(150.606 -774.516)" fill="#ffd037"/>
      <path id="Path_155588" data-name="Path 155588" d="M53.158-660.531s3.357-9.987-17.925-22.026c0,0-21.61-6.3-19.4-27.945,0,0-24.911,18.251-8.055,41.5s31.406,18.174,31.406,18.174Z" fill="#54cad4"/>
      <path id="Path_155589" data-name="Path 155589" d="M46.67-656.021s-10.384-11.222-20.338-15.562a19.81,19.81,0,0,1-5.408-3.6,24.749,24.749,0,0,1-7.477-22.989L15.839-710.5" fill="none" stroke="#535461" stroke-miterlimit="10" stroke-width="2"/>
      <rect id="Rectangle_30414" data-name="Rectangle 30414" width="118.179" height="137.217" transform="translate(20.769 -785.922)" fill="url(#linear-gradient)"/>
      <rect id="Rectangle_30415" data-name="Rectangle 30415" width="115.427" height="134.019" transform="translate(22.146 -784.325)" fill="#f7f7fd"/>
      <rect id="Rectangle_30416" data-name="Rectangle 30416" width="29.18" height="2.324" transform="translate(29.118 -769.218)" fill="#e2e2ec"/>
      <rect id="Rectangle_30417" data-name="Rectangle 30417" width="49.837" height="2.324" transform="translate(29.118 -763.537)" fill="#e2e2ec"/>
      <rect id="Rectangle_30418" data-name="Rectangle 30418" width="20.709" height="17.869" transform="translate(111.336 -771.439)" fill="#fff"/>
      <path id="Path_155590" data-name="Path 155590" d="M131.935-771.335v17.662h-20.5v-17.662h20.5m.207-.207H111.224v18.08h20.918Z" fill="#e2e2ec"/>
      <rect id="Rectangle_30419" data-name="Rectangle 30419" width="20.709" height="17.869" transform="translate(90.42 -771.439)" fill="#fff"/>
      <path id="Path_155591" data-name="Path 155591" d="M111.017-771.335v17.662h-20.5v-17.662h20.5m.207-.207H90.306v18.08h20.918Z" fill="#e2e2ec"/>
      <rect id="Rectangle_30420" data-name="Rectangle 30420" width="20.709" height="17.869" transform="translate(111.336 -753.362)" fill="#fff"/>
      <path id="Path_155592" data-name="Path 155592" d="M131.935-753.259V-735.6h-20.5v-17.662h20.5m.207-.207H111.224v18.077h20.918Z" fill="#e2e2ec"/>
      <rect id="Rectangle_30421" data-name="Rectangle 30421" width="20.709" height="17.869" transform="translate(90.42 -753.362)" fill="#fff"/>
      <path id="Path_155593" data-name="Path 155593" d="M111.017-753.259V-735.6h-20.5v-17.662h20.5m.207-.207H90.306v18.077h20.918Z" fill="#e2e2ec"/>
      <rect id="Rectangle_30422" data-name="Rectangle 30422" width="20.709" height="17.869" transform="translate(69.504 -753.362)" fill="#fff"/>
      <path id="Path_155594" data-name="Path 155594" d="M90.11-753.259V-735.6H69.61v-17.662h20.5m.207-.207H69.4v18.077H90.317Z" fill="#e2e2ec"/>
      <rect id="Rectangle_30423" data-name="Rectangle 30423" width="20.709" height="17.869" transform="translate(48.588 -753.362)" fill="#fff"/>
      <path id="Path_155595" data-name="Path 155595" d="M69.193-753.259V-735.6h-20.5v-17.662h20.5m.207-.207H48.482v18.077H69.4Z" fill="#e2e2ec"/>
      <rect id="Rectangle_30424" data-name="Rectangle 30424" width="20.709" height="17.869" transform="translate(27.672 -753.362)" fill="#fff"/>
      <path id="Path_155596" data-name="Path 155596" d="M48.277-753.259V-735.6h-20.5v-17.662h20.5m.207-.207H27.566v18.077H48.484Z" fill="#e2e2ec"/>
      <rect id="Rectangle_30425" data-name="Rectangle 30425" width="20.709" height="17.869" transform="translate(111.336 -735.288)" fill="#fff"/>
      <path id="Path_155597" data-name="Path 155597" d="M131.935-735.182v17.663h-20.5v-17.663h20.5m.207-.207H111.224v18.077h20.918Z" fill="#e2e2ec"/>
      <rect id="Rectangle_30426" data-name="Rectangle 30426" width="20.709" height="17.869" transform="translate(90.42 -735.288)" fill="#fff"/>
      <path id="Path_155598" data-name="Path 155598" d="M111.017-735.182v17.663h-20.5v-17.663h20.5m.207-.207H90.306v18.077h20.918Z" fill="#e2e2ec"/>
      <rect id="Rectangle_30427" data-name="Rectangle 30427" width="20.709" height="17.869" transform="translate(69.504 -735.288)" fill="#fff"/>
      <path id="Path_155599" data-name="Path 155599" d="M90.11-735.182v17.663H69.61v-17.663h20.5m.207-.207H69.4v18.077H90.317Z" fill="#e2e2ec"/>
      <rect id="Rectangle_30428" data-name="Rectangle 30428" width="20.709" height="17.869" transform="translate(48.588 -735.288)" fill="#fff"/>
      <path id="Path_155600" data-name="Path 155600" d="M69.193-735.182v17.663h-20.5v-17.663h20.5m.207-.207H48.482v18.077H69.4Z" fill="#e2e2ec"/>
      <rect id="Rectangle_30429" data-name="Rectangle 30429" width="20.709" height="17.869" transform="translate(27.672 -735.288)" fill="#fff"/>
      <path id="Path_155601" data-name="Path 155601" d="M48.277-735.182v17.663h-20.5v-17.663h20.5m.207-.207H27.566v18.077H48.484Z" fill="#e2e2ec"/>
      <rect id="Rectangle_30430" data-name="Rectangle 30430" width="20.709" height="17.869" transform="translate(111.336 -717.211)" fill="#fff"/>
      <path id="Path_155602" data-name="Path 155602" d="M131.935-717.108v17.662h-20.5v-17.662h20.5m.207-.207H111.224v18.077h20.918Z" fill="#e2e2ec"/>
      <rect id="Rectangle_30431" data-name="Rectangle 30431" width="20.709" height="17.869" transform="translate(90.42 -717.211)" fill="#fff"/>
      <path id="Path_155603" data-name="Path 155603" d="M111.017-717.108v17.662h-20.5v-17.662h20.5m.207-.207H90.306v18.077h20.918Z" fill="#e2e2ec"/>
      <rect id="Rectangle_30432" data-name="Rectangle 30432" width="20.709" height="17.869" transform="translate(69.504 -717.211)" fill="#fff"/>
      <path id="Path_155604" data-name="Path 155604" d="M90.11-717.108v17.662H69.61v-17.662h20.5m.207-.207H69.4v18.077H90.317Z" fill="#e2e2ec"/>
      <rect id="Rectangle_30433" data-name="Rectangle 30433" width="20.709" height="17.869" transform="translate(48.588 -717.211)" fill="#fff"/>
      <path id="Path_155605" data-name="Path 155605" d="M69.193-717.108v17.662h-20.5v-17.662h20.5m.207-.207H48.482v18.077H69.4Z" fill="#e2e2ec"/>
      <rect id="Rectangle_30434" data-name="Rectangle 30434" width="20.709" height="17.869" transform="translate(27.672 -717.211)" fill="#fff"/>
      <path id="Path_155606" data-name="Path 155606" d="M48.277-717.108v17.662h-20.5v-17.662h20.5m.207-.207H27.566v18.077H48.484Z" fill="#e2e2ec"/>
      <rect id="Rectangle_30435" data-name="Rectangle 30435" width="20.709" height="17.869" transform="translate(111.336 -699.136)" fill="#fff"/>
      <path id="Path_155607" data-name="Path 155607" d="M131.935-699.031v17.663h-20.5v-17.66h20.5m.207-.207H111.224v18.067h20.918Z" fill="#e2e2ec"/>
      <rect id="Rectangle_30436" data-name="Rectangle 30436" width="20.709" height="17.869" transform="translate(90.42 -699.136)" fill="#fff"/>
      <path id="Path_155608" data-name="Path 155608" d="M111.017-699.031v17.663h-20.5v-17.66h20.5m.207-.207H90.306v18.067h20.918Z" fill="#e2e2ec"/>
      <rect id="Rectangle_30437" data-name="Rectangle 30437" width="20.709" height="17.869" transform="translate(69.504 -699.136)" fill="#fff"/>
      <path id="Path_155609" data-name="Path 155609" d="M90.11-699.031v17.663H69.61v-17.66h20.5m.207-.207H69.4v18.067H90.317Z" fill="#e2e2ec"/>
      <rect id="Rectangle_30438" data-name="Rectangle 30438" width="20.709" height="17.869" transform="translate(48.588 -699.136)" fill="#fff"/>
      <path id="Path_155610" data-name="Path 155610" d="M69.193-699.031v17.663h-20.5v-17.66h20.5m.207-.207H48.482v18.067H69.4Z" fill="#e2e2ec"/>
      <rect id="Rectangle_30439" data-name="Rectangle 30439" width="20.709" height="17.869" transform="translate(27.672 -699.136)" fill="#fff"/>
      <path id="Path_155611" data-name="Path 155611" d="M48.277-699.031v17.663h-20.5v-17.66h20.5m.207-.207H27.566v18.067H48.484Z" fill="#e2e2ec"/>
      <rect id="Rectangle_30440" data-name="Rectangle 30440" width="20.709" height="17.869" transform="translate(111.336 -681.06)" fill="#fff"/>
      <path id="Path_155612" data-name="Path 155612" d="M131.935-680.956v17.662h-20.5v-17.662h20.5m.207-.207H111.224v18.077h20.918Z" fill="#e2e2ec"/>
      <rect id="Rectangle_30441" data-name="Rectangle 30441" width="20.709" height="17.869" transform="translate(90.42 -681.06)" fill="#fff"/>
      <path id="Path_155613" data-name="Path 155613" d="M111.017-680.956v17.662h-20.5v-17.662h20.5m.207-.207H90.306v18.077h20.918Z" fill="#e2e2ec"/>
      <rect id="Rectangle_30442" data-name="Rectangle 30442" width="20.709" height="17.869" transform="translate(69.504 -681.06)" fill="#fff"/>
      <path id="Path_155614" data-name="Path 155614" d="M90.11-680.956v17.662H69.61v-17.662h20.5m.207-.207H69.4v18.077H90.317Z" fill="#e2e2ec"/>
      <rect id="Rectangle_30443" data-name="Rectangle 30443" width="20.709" height="17.869" transform="translate(48.588 -681.06)" fill="#fff"/>
      <path id="Path_155615" data-name="Path 155615" d="M69.193-680.956v17.662h-20.5v-17.662h20.5m.207-.207H48.482v18.077H69.4Z" fill="#e2e2ec"/>
      <rect id="Rectangle_30444" data-name="Rectangle 30444" width="20.709" height="17.869" transform="translate(27.672 -681.06)" fill="#fff"/>
      <path id="Path_155616" data-name="Path 155616" d="M48.277-680.956v17.662h-20.5v-17.662h20.5m.207-.207H27.566v18.077H48.484Z" fill="#e2e2ec"/>
      <path id="Path_155617" data-name="Path 155617" d="M71.169-646.808a3.32,3.32,0,0,0,1.321-1.626,1.375,1.375,0,0,0-.924-1.657,2.931,2.931,0,0,0-2.44.7,3.56,3.56,0,0,1-2.371.934,2.642,2.642,0,0,0,1.116-2.757,1.069,1.069,0,0,0-.311-.559,1.761,1.761,0,0,0-1.887.089,5.248,5.248,0,0,0-2.3,4.8,7.444,7.444,0,0,1-.033-1.978,1.88,1.88,0,0,0-.909-1.75,3.272,3.272,0,0,0-1.388-.267,3.334,3.334,0,0,0-2.251.522,1.571,1.571,0,0,0,.051,2.22l.038.035a8.682,8.682,0,0,0,2.33,1.522,4.747,4.747,0,0,1,1.657,1.3,1.178,1.178,0,0,1,.124.232h5.044A14.429,14.429,0,0,0,71.169-646.808Z" fill="#54cad4"/>
      <circle id="Ellipse_2243" data-name="Ellipse 2243" cx="1.181" cy="1.181" r="1.181" transform="translate(29.223 -751.825)" fill="#fc6681"/>
      <circle id="Ellipse_2244" data-name="Ellipse 2244" cx="1.181" cy="1.181" r="1.181" transform="translate(32.173 -751.825)" fill="#ffd037"/>
      <circle id="Ellipse_2245" data-name="Ellipse 2245" cx="1.181" cy="1.181" r="1.181" transform="translate(70.91 -734.325)" fill="#54cad4"/>
      <circle id="Ellipse_2246" data-name="Ellipse 2246" cx="1.181" cy="1.181" r="1.181" transform="translate(73.862 -734.325)" fill="#54cad4"/>
      <circle id="Ellipse_2247" data-name="Ellipse 2247" cx="1.181" cy="1.181" r="1.181" transform="translate(134.031 -700.503)" fill="#54cad4"/>
      <circle id="Ellipse_2248" data-name="Ellipse 2248" cx="1.181" cy="1.181" r="1.181" transform="translate(134.622 -701.879)" fill="#54cad4"/>
      <circle id="Ellipse_2249" data-name="Ellipse 2249" cx="1.181" cy="1.181" r="1.181" transform="translate(135.212 -703.059)" fill="#54cad4"/>
      <circle id="Ellipse_2250" data-name="Ellipse 2250" cx="1.181" cy="1.181" r="1.181" transform="translate(113.188 -751.825)" fill="#54cad4"/>
      <circle id="Ellipse_2251" data-name="Ellipse 2251" cx="1.181" cy="1.181" r="1.181" transform="translate(116.137 -751.825)" fill="#54cad4"/>
      <circle id="Ellipse_2252" data-name="Ellipse 2252" cx="1.181" cy="1.181" r="1.181" transform="translate(119.088 -751.825)" fill="#54cad4"/>
      <circle id="Ellipse_2253" data-name="Ellipse 2253" cx="1.181" cy="1.181" r="1.181" transform="translate(122.038 -751.825)" fill="#54cad4"/>
      <circle id="Ellipse_2254" data-name="Ellipse 2254" cx="1.181" cy="1.181" r="1.181" transform="translate(113.188 -715.252)" fill="#54cad4"/>
      <circle id="Ellipse_2255" data-name="Ellipse 2255" cx="1.181" cy="1.181" r="1.181" transform="translate(116.137 -715.252)" fill="#54cad4"/>
      <circle id="Ellipse_2256" data-name="Ellipse 2256" cx="1.181" cy="1.181" r="1.181" transform="translate(119.088 -715.252)" fill="#54cad4"/>
      <circle id="Ellipse_2257" data-name="Ellipse 2257" cx="1.181" cy="1.181" r="1.181" transform="translate(122.038 -715.252)" fill="#54cad4"/>
      <circle id="Ellipse_2258" data-name="Ellipse 2258" cx="1.181" cy="1.181" r="1.181" transform="translate(50.067 -734.325)" fill="#ffd037"/>
      <circle id="Ellipse_2259" data-name="Ellipse 2259" cx="1.181" cy="1.181" r="1.181" transform="translate(29.223 -716.43)" fill="#fc6681"/>
      <path id="Path_155618" data-name="Path 155618" d="M134.193-696.362c1.294.764,3.314,1.261,5.872-.381l-.025,3.637c.182,2.485,3.266,11.58,3.266,11.58l2.175,7.477a58.469,58.469,0,0,1,2.39,16.264,15.575,15.575,0,0,0,.694,5.12c1.158,3.129-.456,7.162-1.156,8.663a36.25,36.25,0,0,1-3.589,1.011,2.585,2.585,0,0,0-.321.1l-.015-.021s-3.264,1.294-4.714,1.116a1.272,1.272,0,0,0-1.321,1.22,1.273,1.273,0,0,0,.41.988,6.6,6.6,0,0,1-2.173.286c-1.45-.178-2.177,2.315.545,3.028s18.141,0,18.141,0a2.185,2.185,0,0,0,1.16-2.415c1.185-.046,1.924-.081,1.924-.081s2.721-1.243,0-4.633l-.145.11-.582-1.713v-2.316s3.446-16.569,2.359-18.528-1.632-11.936-1.632-11.936l.369-10.867a25.67,25.67,0,0,0,1.742-7.7,16.263,16.263,0,0,0,.7-3.651c.044-.584.079-1.2.1-1.833a12.253,12.253,0,0,0-.675-4.1A40.736,40.736,0,0,1,163.8-711.1a5.292,5.292,0,0,0,1.632-4.633l-.907-6.058-2.177-10.333c.273-2.866-.325-4.517-.986-5.449.157-.926.3-1.852.414-2.781a35.566,35.566,0,0,0-.636-12.112,8.19,8.19,0,0,0-1.715-3.856c-1.1-1.189-2.885-1.914-3.3-3.471a10.025,10.025,0,0,0-.253-1.172c-.4-1.019-1.657-1.39-2.759-1.522-1.963-.238-4.8-.414-6.69.352a8.125,8.125,0,0,0-3.852,3.612,2.718,2.718,0,0,0-.118,2.982,6.831,6.831,0,0,0-.422,2.38,6.949,6.949,0,0,0,4.435,6.447c.044.137.083.271.117.4a6.962,6.962,0,0,1,.177.971c-.034.621-.075,1.261-.1,1.893-.021.088-.043.173-.066.257a46.8,46.8,0,0,0-4.556,2.324c1.088,1.6-.182,8.373-.182,8.373-2.722,1.6-5.443,5.7-2.539,9.977a10.672,10.672,0,0,1,1.27,8.906l-.454,6.965h0v.012l-.091,1.394h.035l-.035.528.079.014v.567a8.463,8.463,0,0,0-4.246,3.158,11.182,11.182,0,0,1-1.9,2.33,1.4,1.4,0,0,0-.144,1.975,1.394,1.394,0,0,0,.361.3Zm21.9-18.507a6.64,6.64,0,0,1,.644-3.5q.641.012,1.282.014c.044.3.1.586.157.847.369,1.57-1.1,2.322-2.086,2.641Z" fill="url(#linear-gradient-2)"/>
      <path id="Path_155619" data-name="Path 155619" d="M156.455-645.82l.7,2.094-2.278,2.278-7.506,1.746-5.412-.524.35-1.92h0a2.318,2.318,0,0,1,1.719-1.692c2.224-.522,6.466-1.715,7.357-3.37Z" fill="#db8b8b"/>
      <path id="Path_155620" data-name="Path 155620" d="M156.455-645.82l.7,2.094-2.278,2.278-7.506,1.746-5.412-.524.35-1.92h0a2.318,2.318,0,0,1,1.719-1.692c2.224-.522,6.466-1.715,7.357-3.37Z" opacity="0.1"/>
      <path id="Path_155621" data-name="Path 155621" d="M143.712-640.758l1.048-1.4-1.048-1.618s-3.142,1.268-4.538,1.094-2.094,2.278.524,2.968,17.455,0,17.455,0,2.618-1.222,0-4.538l-2.278,1.746s-3.84,2.094-5.76,1.746Z" fill="#2e3037"/>
      <path id="Path_155622" data-name="Path 155622" d="M139-637.794l5.412.524,7.506-1.746,2.278-2.278-.184-.555-.261-.779-.261-.758-5.062-1.4a3.11,3.11,0,0,1-1.036,1.036,21.65,21.65,0,0,1-6.331,2.342,2.145,2.145,0,0,0-.207.064,2.31,2.31,0,0,0-1.5,1.628Z" fill="#db8b8b"/>
      <path id="Path_155623" data-name="Path 155623" d="M139-637.795l5.412.524,7.506-1.746,2.278-2.278-.184-.555-2.083,1.6s-3.84,2.094-5.76,1.746h-5.422l1.048-1.4-.94-1.45a2.309,2.309,0,0,0-1.5,1.628Z" opacity="0.1"/>
      <path id="Path_155624" data-name="Path 155624" d="M140.748-638.314l1.048-1.4-1.048-1.618s-3.142,1.268-4.538,1.094-2.094,2.278.524,2.968,17.455,0,17.455,0,2.618-1.222,0-4.538l-2.278,1.746s-3.84,2.094-5.76,1.746Z" fill="#2e3037"/>
      <path id="Path_155625" data-name="Path 155625" d="M145.108-739.556s8.38.872,7.158-2.618a6.3,6.3,0,0,1-.259-3.082,8.559,8.559,0,0,1,1.481-3.55l-7.856,1.222a9.83,9.83,0,0,1,1.065,2.523A5.136,5.136,0,0,1,145.108-739.556Z" fill="#db8b8b"/>
      <path id="Path_155626" data-name="Path 155626" d="M159.421-699.758s-.174,7.506-1.92,11.172l-.35,10.648s.524,9.776,1.572,11.7-2.278,18.153-2.278,18.153v2.794s-5.592,2.094-7.158-.35l1.572-20.773-.7-28.8Z" fill="#474463"/>
      <path id="Path_155627" data-name="Path 155627" d="M159.421-699.758s-.174,7.506-1.92,11.172l-.35,10.648s.524,9.776,1.572,11.7-2.278,18.153-2.278,18.153v2.794s-5.592,2.094-7.158-.35l1.572-20.773-.7-28.8Z" opacity="0.1"/>
      <path id="Path_155628" data-name="Path 155628" d="M162.909-723.847l1.048,2.794.872,5.936a5.246,5.246,0,0,1-1.572,4.538,50.046,50.046,0,0,0-4.888,6.458l-3.314-9.941s3.314-.524,2.794-2.794a33.075,33.075,0,0,1-.352-6.474Z" fill="#fc6681"/>
      <path id="Path_155629" data-name="Path 155629" d="M162.909-723.847l1.048,2.794.872,5.936a5.246,5.246,0,0,1-1.572,4.538,50.046,50.046,0,0,0-4.888,6.458l-3.314-9.941s3.314-.524,2.794-2.794a33.075,33.075,0,0,1-.352-6.474Z" opacity="0.05"/>
      <path id="Path_155630" data-name="Path 155630" d="M147.4-643.742c2.239,3.521,5.725,1.526,6.342,1.129l-.253-.77-5.062-1.4A3.126,3.126,0,0,1,147.4-643.742Z" opacity="0.1"/>
      <path id="Path_155631" data-name="Path 155631" d="M140.4-692.951c.174,2.444,3.142,11.345,3.142,11.345l2.094,7.326a58.264,58.264,0,0,1,2.3,15.935,15.512,15.512,0,0,0,.669,5.016c1.4,3.84-1.4,9.078-1.4,9.078,2.444,4.364,6.628,1.4,6.628,1.4v-2.792s3.314-15.187,2.444-18.153-1.222-11-1.222-11v-14.5a16.435,16.435,0,0,0,4.79-10.422q.062-.858.1-1.8c.141-3.935-2.552-8.556-3.6-10.2-.253-.4-.414-.621-.414-.621l-15.413,6.114-.035.015v1.916Z" fill="#474463"/>
      <path id="Path_155632" data-name="Path 155632" d="M145.632-747.586a9.832,9.832,0,0,1,1.065,2.523,6.832,6.832,0,0,0,5.31-.2,8.564,8.564,0,0,1,1.481-3.548Z" opacity="0.1"/>
      <circle id="Ellipse_2260" data-name="Ellipse 2260" cx="6.808" cy="6.808" r="6.808" transform="translate(142.316 -758.585)" fill="#db8b8b"/>
      <path id="Path_155633" data-name="Path 155633" d="M140.4-704.295l.075.014c7.319,1.506,16.509-6.124,16.509-6.124a9.037,9.037,0,0,1-.636-1.3c-.253-.4-.414-.621-.414-.621l-15.413,6.114-.039.611Z" opacity="0.1"/>
      <path id="Path_155634" data-name="Path 155634" d="M142.316-739.733s9.776-5.936,12.917-3.492l4.364,5.592s2.794.872,2.278,6.458l2.086,10.121-6.284,1.572a6.875,6.875,0,0,0-.7,8.554s-9.252,7.68-16.583,6.11l.524-8.2a10.622,10.622,0,0,0-1.222-8.728c-2.794-4.19-.174-8.2,2.444-9.776C142.142-731.527,143.362-738.161,142.316-739.733Z" fill="#fc6681"/>
      <path id="Path_155635" data-name="Path 155635" d="M141.792-704.122s-3.666.7-5.412,3.492a10.82,10.82,0,0,1-1.827,2.278,1.387,1.387,0,0,0-.1,1.958,1.392,1.392,0,0,0,.3.25c1.385.828,3.645,1.344,6.5-1C146.154-701.154,141.792-704.122,141.792-704.122Z" fill="#db8b8b"/>
      <path id="Path_155636" data-name="Path 155636" d="M147.2-736.415s3.492-.35,4.364,8.728,2.278,11.172,2.278,11.172.872,4.714-1.222,7.506-6.11,8.728-6.11,8.728-4.364,1.222-5.236-3.142l5.412-10.124s.872-3.492-1.222-5.936S141.792-738.161,147.2-736.415Z" opacity="0.1"/>
      <path id="Path_155637" data-name="Path 155637" d="M146.847-736.937s3.492-.35,4.364,8.728,2.278,11.172,2.278,11.172.872,4.714-1.222,7.506-6.11,8.728-6.11,8.728-4.364,1.222-5.236-3.142l5.412-10.124s.872-3.492-1.222-5.936S141.442-738.685,146.847-736.937Z" fill="#fc6681"/>
      <path id="Path_155638" data-name="Path 155638" d="M143.973-730.394s-.348,5.406,1.218,8.38,1.572,6.808,0,8.906" opacity="0.1"/>
      <path id="Path_155639" data-name="Path 155639" d="M143.1-737.025s1.4-1.4,5.412-1.572,5.76-1.4,5.76-1.4" opacity="0.1"/>
      <path id="Path_155640" data-name="Path 155640" d="M152.81-760.574c1.06.13,2.278.495,2.655,1.491a10.025,10.025,0,0,1,.242,1.149c.4,1.524,2.113,2.235,3.171,3.4a8.231,8.231,0,0,1,1.657,3.778,35.467,35.467,0,0,1,.621,11.859c-.34,2.9-1.036,5.745-1.23,8.653a13.719,13.719,0,0,0,1.75,8.411,20.93,20.93,0,0,1,2.071,3.129,6.03,6.03,0,0,1-3.672.971q-2.25.078-4.5,0a4.8,4.8,0,0,1-2.289-.476,3.53,3.53,0,0,1-1.2-1.29,9.181,9.181,0,0,1-1.036-4.9c.039-1.69.3-3.372.336-5.064a4.428,4.428,0,0,0-.586-2.655,8.636,8.636,0,0,0-1.462-1.352c-1.864-1.657-2.51-4.312-2.572-6.808s.35-5,.139-7.483c-.083-.973-.447-2.144-1.4-2.332a4.922,4.922,0,0,1-.911-.116c-.768-.3-.694-1.379-.913-2.173-.246-.891-1.007-1.578-1.22-2.485-.5-2.113,2.185-4.633,3.948-5.368C148.19-760.985,150.917-760.806,152.81-760.574Z" opacity="0.1"/>
      <path id="Path_155641" data-name="Path 155641" d="M152.984-760.922c1.06.13,2.278.495,2.655,1.491a10.026,10.026,0,0,1,.242,1.149c.4,1.524,2.113,2.235,3.171,3.4a8.231,8.231,0,0,1,1.657,3.778,35.468,35.468,0,0,1,.621,11.859c-.34,2.9-1.035,5.745-1.23,8.653a13.717,13.717,0,0,0,1.75,8.411,20.934,20.934,0,0,1,2.071,3.129,6.029,6.029,0,0,1-3.672.971q-2.25.078-4.5,0a4.8,4.8,0,0,1-2.289-.476,3.53,3.53,0,0,1-1.2-1.29,9.181,9.181,0,0,1-1.036-4.9c.039-1.69.3-3.372.336-5.064a4.429,4.429,0,0,0-.586-2.655,8.638,8.638,0,0,0-1.462-1.352c-1.864-1.657-2.51-4.312-2.572-6.808s.35-5,.139-7.483c-.083-.973-.447-2.144-1.4-2.332a4.916,4.916,0,0,1-.911-.116c-.768-.3-.694-1.379-.913-2.173-.246-.891-1.007-1.578-1.22-2.485-.5-2.113,2.185-4.633,3.948-5.368C148.364-761.334,151.1-761.156,152.984-760.922Z" fill="#472727"/>
    </g>
  </g>
</svg>
