<svg xmlns="http://www.w3.org/2000/svg" xmlns:xlink="http://www.w3.org/1999/xlink" width="262" height="196" viewBox="0 0 262 196">
  <defs>
    <linearGradient id="linear-gradient" x1="-7.819" y1="1.946" x2="-7.819" y2="1.958" gradientUnits="objectBoundingBox">
      <stop offset="0" stop-color="gray" stop-opacity="0.251"/>
      <stop offset="0.54" stop-color="gray" stop-opacity="0.122"/>
      <stop offset="1" stop-color="gray" stop-opacity="0.102"/>
    </linearGradient>
    <linearGradient id="linear-gradient-2" x1="-23704.643" y1="-2125.866" x2="-23704.643" y2="-2123.551" xlink:href="#linear-gradient"/>
    <linearGradient id="linear-gradient-3" x1="-4.56" y1="10.13" x2="-4.56" y2="10.361" xlink:href="#linear-gradient"/>
    <linearGradient id="linear-gradient-4" x1="-4.339" y1="11.286" x2="-4.339" y2="11.516" xlink:href="#linear-gradient"/>
    <linearGradient id="linear-gradient-5" x1="-4.187" y1="11.862" x2="-4.187" y2="12.092" xlink:href="#linear-gradient"/>
    <linearGradient id="linear-gradient-6" x1="-17.333" y1="2.818" x2="-17.333" y2="2.84" xlink:href="#linear-gradient"/>
    <linearGradient id="linear-gradient-7" x1="-9.403" y1="3.673" x2="-9.403" y2="3.683" xlink:href="#linear-gradient"/>
    <linearGradient id="linear-gradient-8" x1="-6.947" y1="1.443" x2="-6.947" y2="1.457" xlink:href="#linear-gradient"/>
  </defs>
  <g id="card-8" transform="translate(41.6 -140.16)">
    <rect id="Rectangle_8792" data-name="Rectangle 8792" width="262" height="196" transform="translate(-41.6 140.16)" fill="#fbd5b2"/>
    <g id="undraw_upload_87y9" data-name="undraw upload 87y9">
      <path id="Path_155225" data-name="Path 155225" d="M74.373,174.1c-6.562-2.667-13.5-4.9-20.575-4.616A30.594,30.594,0,0,0,28.506,185.35c-4.152,7.787-4.664,16.915-6.452,25.557-2.2,10.648-6.422,20.767-10.931,30.664-2.422,5.308-4.976,10.746-5.374,16.573-.553,8.089,3.315,16.151,9.379,21.537s14.123,8.219,22.2,8.839c4.3.33,8.8.025,12.619-1.977,4.043-2.118,6.989-5.947,11.047-8.034,3.762-1.942,8.161-2.207,12.384-1.954a55.451,55.451,0,0,1,16.171,3.437c5.9,2.217,11.39,5.427,17.279,7.674s12.469,3.5,18.488,1.626c5.649-1.765,10.122-6.037,14.153-10.371a181.472,181.472,0,0,0,18.042-22.829c3.635-5.444,7.017-11.189,8.625-17.535A35.035,35.035,0,0,0,155.6,204.451c-7.767-6.864-18.2-9.844-28.408-11.651-9.309-1.649-20.072-1.751-28.641-6.048C90.377,182.647,82.943,177.592,74.373,174.1Z" fill="#ffe7d1"/>
      <path id="Path_155226" data-name="Path 155226" d="M143.2,185.391c-2.521.1-2.648,6.609-2.491,6.894a17.436,17.436,0,0,1-.572,3.222s-1.144,4.454-1.011,5.282a1.541,1.541,0,0,1-.616,1.37,10.649,10.649,0,0,0-2.9,2.254l-.094.1a8.061,8.061,0,0,0-1.275.985c-.191.279-.706.056-.706.056a13.682,13.682,0,0,0-1.656-.085c-.131.039-.335-.2-.452-.353-.055-.072-.09-.127-.09-.127l-.037-1.312a1.108,1.108,0,0,0-.177-.109c.03-.148.067-.3.113-.459a3.931,3.931,0,0,0,1.6-1.441c.042-.067.081-.136.118-.2a.53.53,0,0,0,.334.094.622.622,0,0,0,.155-.014,1.246,1.246,0,0,0,.452-.228,2.416,2.416,0,0,0,.84-.985,1.624,1.624,0,0,0,.079-.235c-.026.044-.055.088-.083.131a1.356,1.356,0,0,0-.094-1.146,3.774,3.774,0,0,1-.441-.65c-.148-.425.132-.865.3-1.282a2.158,2.158,0,0,0,.157-1.208,1.547,1.547,0,0,0-.653-1.019c-.694-.45-1.635-.2-2.438-.42a6.679,6.679,0,0,1-.839-.337,6.384,6.384,0,0,0-1.283-.4,1.256,1.256,0,0,0-1.236.245,2.578,2.578,0,0,0-.2.341,1.261,1.261,0,0,1-.789.567,2.936,2.936,0,0,1-.486.051.482.482,0,0,0,0-.2c-.2-.671.381-1.169,1.144-1.469a19.044,19.044,0,0,0,4-3.126,20.042,20.042,0,0,1,2.7-2.242,7.411,7.411,0,0,0,4.689-4.639c1.158-3.64-5.54,2.542-6.214,2.727a6.9,6.9,0,0,0-1.64.883l-4.3,2.484a15.54,15.54,0,0,0-2.316,1.6,7.773,7.773,0,0,0-1.7,2.426s-.411.671-1.012,1.642a4.469,4.469,0,0,1-1.31,1.393l.019-.035a10.438,10.438,0,0,0-1.656,2.74c-.131.816-.733,4.14-.733,4.14a16.642,16.642,0,0,1-.893,3.125,8.945,8.945,0,0,1-.47,1.7,8.224,8.224,0,0,0-.763,2.54,5.5,5.5,0,0,0-.556,2.027L114.5,215.6a6.7,6.7,0,0,0-.616,2.283c.021.408.039.883.051,1.271v.177h0v.177c-.065.109-.233.388-.408.726a3.768,3.768,0,0,0-.5,1.481,8.3,8.3,0,0,1-.275,2.879l-.09-.035a1.229,1.229,0,0,0-.176.586l.021.011c0,.051-.016.1-.021.161a8.324,8.324,0,0,1-.136,1.824c-.235.286-.118,6.624-.118,6.624a21.029,21.029,0,0,0,.381,6.481l-.058,1.968a18.255,18.255,0,0,0,.058,2.118,20.693,20.693,0,0,1,.118,2.141l.44,3.141s-.588,4.853-.088,6.052a6.628,6.628,0,0,1,.53,2.085,3.208,3.208,0,0,0,.809.313v.177l-.115,2.952v.162s-.014.078-.025.207h0v.072a.074.074,0,0,0,0,.021v.062a.382.382,0,0,0,0,.048.294.294,0,0,1,0,.042v.267h0v.258a.52.52,0,0,0,.014.088.073.073,0,0,0,0,.021.421.421,0,0,0,.019.1h0a.383.383,0,0,0,.023.1v.011h0a.163.163,0,0,0,.014.049.088.088,0,0,0,0,.023.3.3,0,0,0,.018.06v.014c.018.049.035.1.056.148a.043.043,0,0,0,0,.016c0,.018.016.037.025.055l.011.025.023.048.014.026.025.044.016.026c0,.014.016.028.025.042l.018.028.026.041.019.026.028.041.021.026.032.039.021.025.037.042.019.021.06.058a.081.081,0,0,0,.019.018.43.43,0,0,0,.044.041l.028.023.039.032.034.025.039.028.037.025.039.025.041.023.041.025.042.021.044.021.044.021.044.019.048.019.048.018.049.018.053.016.083.025.069.018.055.011.057.012h.06l.058.009h.745l.1-.009h.058l.161-.018s2,.3,2.065-.493a.544.544,0,0,1,.009-.127v-.1a.229.229,0,0,1,0-.037v-1c-.012-.392-.032-.756-.044-.959a1.5,1.5,0,0,0-.011-.177s-.681-1.027-.57-1.412a10.278,10.278,0,0,0,.086-1.691s-.265-.627-.443-1.181c-.014-.042-.026-.085-.039-.125a6.482,6.482,0,0,0,.417-.53,6.713,6.713,0,0,0-.5-4.025.248.248,0,0,1-.108-.207.074.074,0,0,1,0-.021l.341-4.168-.207-2.426a6.672,6.672,0,0,1,.176-2.371l.644-6.279.914-3.652s.293-.143.53.544.819,3.8.819,3.8l1.412,5.139a10.17,10.17,0,0,0,.44,2.085,3.989,3.989,0,0,1,.207,1.4,3.632,3.632,0,0,1,.381,1.313,5.678,5.678,0,0,0,.145,1.855,25.3,25.3,0,0,1,.207,3,6.049,6.049,0,0,0,.058,2.6,9.168,9.168,0,0,1,.146,2.969,1.943,1.943,0,0,0,.12.166c-.014.039-.03.078-.044.113-.092.238-.164.406-.164.406a10.28,10.28,0,0,0,.088,1.691c.109.385-.572,1.412-.572,1.412s0,.064-.011.177c-.012.2-.032.565-.044.959V263.7a.193.193,0,0,0,0,.034v.1a.673.673,0,0,0,.009.127c.067.791,2.067.493,2.067.493l.161.019h.893l.06-.011.058-.009.056-.012.057-.011.069-.018.083-.025.051-.016.049-.018.048-.018.048-.019.046-.019.044-.019.044-.023.041-.021.042-.023.039-.025.041-.025.035-.025.039-.028a.271.271,0,0,0,.034-.025q.02-.013.039-.03l.03-.025.044-.039.019-.019.06-.058.018-.021.039-.041.019-.026a.438.438,0,0,0,.034-.039l.019-.026.03-.041.018-.027.028-.041a.166.166,0,0,1,.018-.028c0-.014.016-.028.025-.042l.016-.026c0-.016.016-.03.023-.044a.213.213,0,0,0,.014-.026c0-.016.016-.032.023-.048l.012-.025c0-.018.016-.035.025-.055v-.016c.019-.049.039-.1.055-.148v-.014a.172.172,0,0,1,.019-.058.105.105,0,0,1,0-.025.068.068,0,0,1,.014-.049v-.02a.385.385,0,0,1,.025-.094h0a.57.57,0,0,1,.019-.1v-.023a.525.525,0,0,1,.014-.087.076.076,0,0,0,0-.03v-.229h0v-.334a.382.382,0,0,1,0-.048v-.062a.073.073,0,0,1,0-.021v-.069h0c-.01-.129-.023-.207-.023-.207v-.161l-.111-2.856v-.176c.164-.092.332-.2.507-.318a5.107,5.107,0,0,1,.44-2.283c.47-.655-.235-2.371-.235-2.371l-.293-6.138.117-2.825a2.8,2.8,0,0,1-.353-1.37,4.993,4.993,0,0,0-.47-1.765s-.293-.971.06-1.257-.381-6.532-.381-6.532a59.242,59.242,0,0,0-.159-7.273v-.044l.093-.042c-.028-.217-.058-.42-.092-.609l-.1.03a5.062,5.062,0,0,0-.177-.706l-.47-2.155s-.011-.113-.023-.277c-.016-.194-.034-.457-.037-.688a1.132,1.132,0,0,1,.032-.29l-.025-.021a.589.589,0,0,1,.025-.15l-.1-.086s-.014-.1-.025-.245a2.759,2.759,0,0,1,.127-1.223,19.318,19.318,0,0,1,2.648-2.256l1.352-2.706s1.349-1.9,2.374-2.27a38.6,38.6,0,0,0,4.221-2.5,10.5,10.5,0,0,0,1.2-1.412l.037-.057h.021v-.037l3-4.5a4.551,4.551,0,0,0,1.245-3.04l.313-4.728-.1-2.8.145-1.589S145.714,185.293,143.2,185.391ZM126,197.626a3.783,3.783,0,0,0-.5,1.875v.171a3.776,3.776,0,0,0,.4,1.691,1.4,1.4,0,0,0-.291.518,2.8,2.8,0,0,1-.607-1.139,1.185,1.185,0,0,0-.47-.77,3.248,3.248,0,0,1,.028-1.013l.016-.014s.012-.021.037-.057h0c.125-.189.547-.826.983-1.552a1.336,1.336,0,0,0,.224.074l.268.067Z" fill="url(#linear-gradient)"/>
      <path id="Path_155227" data-name="Path 155227" d="M134.555,197.148c.026-.06.048-.124.069-.187a3.765,3.765,0,0,0-.177.432C134.484,197.311,134.521,197.229,134.555,197.148Z" fill="url(#linear-gradient-2)"/>
      <path id="Path_155228" data-name="Path 155228" d="M126.787,201.347s-.552,2.634-1.571,2.975,1.236,3.354,1.236,3.354l4.673-.256.085-.976a4.824,4.824,0,0,1,.595-4.332C133.282,199.734,126.787,201.347,126.787,201.347Z" fill="#f6bac2"/>
      <path id="Path_155229" data-name="Path 155229" d="M119.46,263.534c-.064.786-2,.489-2,.489-3.206.445-2.676-2.7-2.676-2.7v-.161l.111-2.93.032-.817s3.531-1.613,3.441-1.274a2.015,2.015,0,0,0,.143.763c.177.549.429,1.17.429,1.17a10.567,10.567,0,0,1-.085,1.677c-.106.381.553,1.4.553,1.4s0,.064.011.177A20.553,20.553,0,0,1,119.46,263.534Z" fill="#b77983"/>
      <path id="Path_155230" data-name="Path 155230" d="M125.637,264.383s-1.933.3-2-.489a20.083,20.083,0,0,1,.034-2.208,1.749,1.749,0,0,1,.009-.177s.659-1.02.553-1.4a10.586,10.586,0,0,1-.085-1.679s.069-.164.159-.4a4.875,4.875,0,0,0,.415-1.531c-.085-.341,3.441,1.273,3.441,1.273l.035.914.108,2.833v.161S128.847,264.828,125.637,264.383Z" fill="#b77983"/>
      <path id="Path_155231" data-name="Path 155231" d="M138.892,183.918a7.238,7.238,0,0,1-4.53,4.6,20.075,20.075,0,0,0-2.606,2.221,18.728,18.728,0,0,1-3.866,3.1c-.738.3-1.3.793-1.1,1.456.177.616-1.755,3.631-2.046,4.08h0l-.035.057-.609.637-2.067,1.047-1.691-.537-.214-2.023.893-1.589h0a4.37,4.37,0,0,0,1.266-1.382c.581-.964.978-1.628.978-1.628a7.768,7.768,0,0,1,1.642-2.408,14.859,14.859,0,0,1,2.237-1.589l4.15-2.471a6.717,6.717,0,0,1,1.589-.883C133.542,186.419,140.011,180.308,138.892,183.918Z" fill="#f6bac2"/>
      <path id="Path_155232" data-name="Path 155232" d="M122.03,199.817l2.761-.553a.177.177,0,0,0-.049.115h0l-.035.057-.609.637-2.067,1.047-1.689-.54-.214-2.023.893-1.589h0a3.167,3.167,0,0,0-.021,3.019Z" opacity="0.05"/>
      <path id="Path_155233" data-name="Path 155233" d="M138.175,208.938c-.007.019-.014.038-.019.057a.748.748,0,0,1-.1.176l-1.114.544-1.7.177-.883-2.138.588-2.343.325-.438.09-.1c.034.424.2,2.634.194,3.3-.014.736.53.794.53.794Z" opacity="0.05"/>
      <path id="Path_155234" data-name="Path 155234" d="M138.09,209.1c-.007.019-.014.038-.019.057a10.364,10.364,0,0,1-1.16,1.4,36.293,36.293,0,0,1-4.078,2.471c-.99.362-2.295,2.251-2.295,2.251l-1.3,2.689a18.427,18.427,0,0,0-2.562,2.238,2.781,2.781,0,0,0-.122,1.215,1.244,1.244,0,0,0,.021.244l-.689.718-.549.572-.773.8-1.259-.177-3.923-.623-.752-.424-4.175-2.351s0-.147-.011-.371c0-.1,0-.212-.011-.337-.012-.381-.03-.856-.049-1.26a6.8,6.8,0,0,1,.595-2.265l1.174-2.89a5.609,5.609,0,0,1,.538-2.011,8.4,8.4,0,0,1,.736-2.519,8.933,8.933,0,0,0,.454-1.686,16.658,16.658,0,0,0,.863-3.1s.581-3.285.706-4.106a10.162,10.162,0,0,1,1.6-2.717,3.217,3.217,0,0,0-.127,3.227l1.02-.177,2.763-.538c-.127.085-.042,1.019-.042,1.019a1.175,1.175,0,0,1,.452.764,2.925,2.925,0,0,0,.623,1.174l.014.016a1.385,1.385,0,0,1,.666-.95l.637.851.214,1.019s-.058.143-.425.425.155,1.019.155,1.019a5.156,5.156,0,0,1,.228,1.4h0a2.063,2.063,0,0,1,1.2-.41,3.647,3.647,0,0,0,.722-1.034.428.428,0,0,1,.514-.317.45.45,0,0,1,.1.035,3.91,3.91,0,0,1,.694-.482c.341-.177.736.177.736.177l.042,1.3s.034.053.088.125c.111.155.311.394.436.353a12.956,12.956,0,0,1,1.6.085s.5.212.68-.057a8.381,8.381,0,0,1,1.236-.976s.2,2.629.2,3.363.53.794.53.794Z" fill="#d39999"/>
      <path id="Path_155235" data-name="Path 155235" d="M138.122,209.1h-.037C138.152,208.923,138.122,209.1,138.122,209.1Z" fill="none"/>
      <circle id="Ellipse_2204" data-name="Ellipse 2204" cx="0.254" cy="0.254" r="0.254" transform="translate(126.251 207.125)" fill="#4b4442"/>
      <circle id="Ellipse_2205" data-name="Ellipse 2205" cx="0.254" cy="0.254" r="0.254" transform="translate(124.395 210.821)" fill="#4b4442"/>
      <circle id="Ellipse_2206" data-name="Ellipse 2206" cx="0.254" cy="0.254" r="0.254" transform="translate(120.743 218.735)" fill="#4b4442"/>
      <circle id="Ellipse_2207" data-name="Ellipse 2207" cx="0.254" cy="0.254" r="0.254" transform="translate(122.469 214.742)" fill="#4b4442"/>
      <path id="Path_155236" data-name="Path 155236" d="M118.527,256.9a3.41,3.41,0,0,1-3.615,1.329l.032-.817s3.531-1.613,3.441-1.274A1.877,1.877,0,0,0,118.527,256.9Z" opacity="0.05"/>
      <path id="Path_155237" data-name="Path 155237" d="M128.2,258.7a2.747,2.747,0,0,1-3.838-.592l-.046-.065a4.875,4.875,0,0,0,.415-1.531c-.085-.341,3.441,1.273,3.441,1.273Z" opacity="0.05"/>
      <path id="Path_155238" data-name="Path 155238" d="M129.109,255.945a5.243,5.243,0,0,0-.425,2.265c-2.916,2.1-4.445-.454-4.445-.454a9.365,9.365,0,0,0-.141-2.945,6.135,6.135,0,0,1-.056-2.577,24.836,24.836,0,0,0-.2-2.973,5.676,5.676,0,0,1-.141-1.841,3.629,3.629,0,0,0-.367-1.3,3.986,3.986,0,0,0-.2-1.388,10.2,10.2,0,0,1-.424-2.069l-1.358-5.1s-.567-3.086-.793-3.765-.51-.538-.51-.538l-.816,3.652-.623,6.23a6.82,6.82,0,0,0-.177,2.351l.2,2.406-.328,4.134a.074.074,0,0,0,0,.021.249.249,0,0,0,.1.2,6.8,6.8,0,0,1,.475,3.993c-2.152,3.116-4.758,1.5-4.758,1.5a6.613,6.613,0,0,0-.508-2.065c-.482-1.19.085-6,.085-6l-.425-3.116a20.824,20.824,0,0,0-.113-2.118,18.621,18.621,0,0,1-.056-2.1l.056-1.954a21.444,21.444,0,0,1-.369-6.428,64.6,64.6,0,0,1,.115-6.571,8.371,8.371,0,0,0,.131-1.809,1.251,1.251,0,0,1,.166-.581l.028-.028c.369-.454.369-2.265.339-2.975a3.823,3.823,0,0,1,.486-1.469c.177-.342.337-.625.4-.727l.025-.041a37.585,37.585,0,0,1,5.889,2.436,8.029,8.029,0,0,0,2.433.754,5.387,5.387,0,0,0,1.269.019,4.428,4.428,0,0,0,1.825-.593,3.2,3.2,0,0,0,.789-.634,5.3,5.3,0,0,0,0,1.14c.011.164.023.275.023.275l.471,2.1a5.525,5.525,0,0,1,.177.761c.034.187.062.39.088.605a58.692,58.692,0,0,1,.154,7.215s.706,6.2.369,6.484-.058,1.246-.058,1.246a5.021,5.021,0,0,1,.454,1.755,2.826,2.826,0,0,0,.341,1.359l-.115,2.8.3,6.082S129.563,255.3,129.109,255.945Z" fill="#8499f0"/>
      <path id="Path_155239" data-name="Path 155239" d="M125.788,245.694s2.145-1.236,2.613-.68S125.788,245.694,125.788,245.694Z" opacity="0.05"/>
      <path id="Path_155240" data-name="Path 155240" d="M127.086,246.373s-.353.177.425.4S127.086,246.373,127.086,246.373Z" opacity="0.05"/>
      <path id="Path_155241" data-name="Path 155241" d="M114.113,242.975a3.292,3.292,0,0,0,3.462.233A25.856,25.856,0,0,0,114.113,242.975Z" opacity="0.05"/>
      <path id="Path_155242" data-name="Path 155242" d="M117.484,245.332a2.277,2.277,0,0,1-1.55,1.147C114.892,246.628,117.484,245.332,117.484,245.332Z" opacity="0.05"/>
      <path id="Path_155243" data-name="Path 155243" d="M124.3,247.5s2.443,3.884,1.975,4.8S124.3,247.5,124.3,247.5Z" opacity="0.05"/>
      <path id="Path_155244" data-name="Path 155244" d="M120.181,223.945l-.254,7.6s1.508-.064,1.765-2.569.447-4.546.447-4.546Z" opacity="0.05"/>
      <path id="Path_155245" data-name="Path 155245" d="M120.092,223.775l-.254,7.6s1.508-.064,1.765-2.57.45-4.544.45-4.544Z" fill="#8499f0"/>
      <path id="Path_155246" data-name="Path 155246" d="M117.039,224.116s-1.19,3.19-3.912,1.645a1.251,1.251,0,0,1,.166-.581,2.149,2.149,0,0,0,3.178-1.3Z" opacity="0.05"/>
      <path id="Path_155247" data-name="Path 155247" d="M116.954,223.775s-1.19,3.19-3.912,1.645a1.251,1.251,0,0,1,.166-.581,2.147,2.147,0,0,0,3.178-1.3Z" opacity="0.05"/>
      <path id="Path_155248" data-name="Path 155248" d="M116.954,223.942s-1.19,3.19-3.912,1.645a1.251,1.251,0,0,1,.166-.581,2.147,2.147,0,0,0,3.178-1.3Z" fill="#8499f0"/>
      <path id="Path_155249" data-name="Path 155249" d="M127.37,226.811c-2.99,1.423-4.087-1.931-4.087-1.931l.706.021c.124,2.145,2.487,1.568,3.3,1.3C127.315,226.4,127.343,226.6,127.37,226.811Z" opacity="0.05"/>
      <path id="Path_155250" data-name="Path 155250" d="M127.539,226.557c-2.989,1.421-4.087-1.933-4.087-1.933l.706.021c.124,2.145,2.487,1.569,3.3,1.306C127.484,226.139,127.512,226.342,127.539,226.557Z" opacity="0.05"/>
      <path id="Path_155251" data-name="Path 155251" d="M127.455,226.642c-2.989,1.421-4.087-1.933-4.087-1.933l.706.021c.124,2.147,2.487,1.569,3.3,1.306C127.4,226.224,127.428,226.427,127.455,226.642Z" fill="#8499f0"/>
      <path id="Path_155252" data-name="Path 155252" d="M116.954,223.942s-1.19,3.19-3.912,1.645a1.251,1.251,0,0,1,.166-.581,2.147,2.147,0,0,0,3.178-1.3Z" fill="#fff" opacity="0.1"/>
      <path id="Path_155253" data-name="Path 155253" d="M127.455,226.642c-2.989,1.421-4.087-1.933-4.087-1.933l.706.021c.124,2.147,2.487,1.569,3.3,1.306C127.4,226.224,127.428,226.427,127.455,226.642Z" fill="#fff" opacity="0.1"/>
      <path id="Path_155254" data-name="Path 155254" d="M119.48,262.943a5.245,5.245,0,0,1-.021.588c-.064.786-2,.489-2,.489-1.765.245-2.4-.6-2.611-1.412a3.218,3.218,0,0,1-.1-.8,3.262,3.262,0,0,1,.032-.484v-.161a1.183,1.183,0,0,1,1.1.224,1.865,1.865,0,0,0,1.827.148,2.453,2.453,0,0,1,1.059.318c.166.143.44-.2.648-.53.012.212.032.6.044,1C119.477,262.533,119.48,262.745,119.48,262.943Z" opacity="0.05"/>
      <path id="Path_155255" data-name="Path 155255" d="M116.381,262.9s-.53.519-1.529-.282a3.218,3.218,0,0,1-.1-.8A9.238,9.238,0,0,0,116.381,262.9Z" opacity="0.05"/>
      <path id="Path_155256" data-name="Path 155256" d="M119.481,262.941a.4.4,0,0,1-.561-.074l-.013-.018a3.779,3.779,0,0,0,.565-.53C119.477,262.533,119.481,262.741,119.481,262.941Z" opacity="0.05"/>
      <path id="Path_155257" data-name="Path 155257" d="M123.624,263.307a5.493,5.493,0,0,0,.019.588c.064.787,2,.489,2,.489,1.765.247,2.4-.6,2.611-1.412a3.391,3.391,0,0,0,.065-1.289v-.161a1.2,1.2,0,0,0-1.1.224,1.861,1.861,0,0,1-1.825.148,2.469,2.469,0,0,0-1.059.32c-.166.143-.44-.2-.646-.53-.012.212-.034.6-.046,1C123.626,262.895,123.622,263.107,123.624,263.307Z" opacity="0.05"/>
      <path id="Path_155258" data-name="Path 155258" d="M126.724,263.257s.53.519,1.527-.282a3.219,3.219,0,0,0,.1-.8A9.407,9.407,0,0,1,126.724,263.257Z" opacity="0.05"/>
      <path id="Path_155259" data-name="Path 155259" d="M123.624,263.306a.4.4,0,0,0,.561-.076l.011-.016a3.73,3.73,0,0,1-.565-.53C123.626,262.895,123.622,263.107,123.624,263.306Z" opacity="0.05"/>
      <path id="Path_155260" data-name="Path 155260" d="M121.294,209.1s-2.719,7.5-1.672,8.156S121.294,209.1,121.294,209.1Z" opacity="0.05"/>
      <path id="Path_155261" data-name="Path 155261" d="M123.276,206.784s-.512,2.493-.256,2.719S123.276,206.784,123.276,206.784Z" opacity="0.05"/>
      <path id="Path_155262" data-name="Path 155262" d="M128.766,212.59s-3.342,3.114-3.116,3.37S128.766,212.59,128.766,212.59Z" opacity="0.05"/>
      <path id="Path_155263" data-name="Path 155263" d="M131.321,205.735c-1.266.387-4.224,1.29-4.258,1.283l.164-.674a2.063,2.063,0,0,1,1.2-.41,3.652,3.652,0,0,0,.722-1.035.428.428,0,0,1,.514-.317.45.45,0,0,1,.1.035,4,4,0,0,1,.694-.482c.341-.176.736.177.736.177l.042,1.3S131.266,205.662,131.321,205.735Z" opacity="0.05"/>
      <path id="Path_155264" data-name="Path 155264" d="M131.321,205.569c-1.266.387-4.224,1.29-4.258,1.282l.164-.673a2.063,2.063,0,0,1,1.2-.41,3.652,3.652,0,0,0,.722-1.035.428.428,0,0,1,.514-.317.45.45,0,0,1,.1.035,3.911,3.911,0,0,1,.694-.482c.341-.177.736.177.736.177l.042,1.3S131.266,205.493,131.321,205.569Z" fill="#d39999"/>
      <path id="Path_155265" data-name="Path 155265" d="M126.914,204.863a5.192,5.192,0,0,1,.226,1.4l-.493.392-.936-2.7-.042-1.4-.018-.079.014.016a1.376,1.376,0,0,1,.666-.948l.637.849.214,1.019s-.058.143-.425.425S126.914,204.863,126.914,204.863Z" opacity="0.05"/>
      <path id="Path_155266" data-name="Path 155266" d="M127,204.774a5.194,5.194,0,0,1,.228,1.4l-.493.4-.936-2.7-.042-1.4-.019-.079.014.016a1.385,1.385,0,0,1,.666-.95l.637.851.214,1.019s-.058.143-.425.425S127,204.774,127,204.774Z" fill="#d39999"/>
      <path id="Path_155267" data-name="Path 155267" d="M133.239,200.158a3.79,3.79,0,1,1-1.109-2.713A3.79,3.79,0,0,1,133.239,200.158Z" opacity="0.05"/>
      <path id="Path_155268" data-name="Path 155268" d="M133.244,199.988a3.8,3.8,0,1,1-1.113-2.709A3.8,3.8,0,0,1,133.244,199.988Z" fill="#f6bac2"/>
      <path id="Path_155269" data-name="Path 155269" d="M133.243,199.987a3.8,3.8,0,0,1-.556,1.986c-.056-.1-.09-.217-.146-.32-.079-.143-.263-.263-.4-.177a.41.41,0,0,0-.125.177c-.111.235-.309.47-.568.464a.563.563,0,0,1-.484-.413,1.7,1.7,0,0,1-.028-.674,1.538,1.538,0,0,0-.295-1.3,1.937,1.937,0,0,0-.738-.33.968.968,0,0,1-.636-.47c-.071-.177-.053-.364-.117-.53a.929.929,0,0,0-.687-.5,1.8,1.8,0,0,1-1.2.411,4.474,4.474,0,0,1-1.183-.187,3.824,3.824,0,0,1,7.164,1.859Z" opacity="0.05"/>
      <path id="Path_155270" data-name="Path 155270" d="M129.151,198.238c.064.177.046.367.117.53a.966.966,0,0,0,.635.47,1.933,1.933,0,0,1,.738.328,1.542,1.542,0,0,1,.295,1.3,1.7,1.7,0,0,0,.028.674.567.567,0,0,0,.484.413.7.7,0,0,0,.568-.464.41.41,0,0,1,.125-.177c.136-.09.32.03.4.177a1.75,1.75,0,0,0,.228.429.508.508,0,0,0,.464.106,1.18,1.18,0,0,0,.436-.226,2.386,2.386,0,0,0,.812-.976,1.4,1.4,0,0,0-.051-1.236,3.7,3.7,0,0,1-.425-.646c-.145-.422.127-.856.295-1.269a2.2,2.2,0,0,0,.15-1.2,1.543,1.543,0,0,0-.63-1.012c-.671-.447-1.578-.2-2.355-.417a5.947,5.947,0,0,1-.81-.334,5.968,5.968,0,0,0-1.236-.4,1.2,1.2,0,0,0-1.2.242,2.649,2.649,0,0,0-.194.339,1.219,1.219,0,0,1-.763.561c-.228.055-.466.041-.706.074a.78.78,0,0,0-.588.337,1.175,1.175,0,0,0-.039.706.715.715,0,0,1-.177.666c-.09.069-.214.1-.268.2a.28.28,0,0,0,.083.334.792.792,0,0,0,.337.148,5.143,5.143,0,0,0,1.354.231,1.786,1.786,0,0,0,1.26-.464c-.03.03-.224.018-.26.016A1.032,1.032,0,0,1,129.151,198.238Z" fill="#7e646b"/>
      <g id="Group_167314" data-name="Group 167314" opacity="0.05">
        <path id="Path_155271" data-name="Path 155271" d="M133.886,201.364a1.2,1.2,0,0,1-.436.228.512.512,0,0,1-.463-.108,1.736,1.736,0,0,1-.229-.429c-.079-.143-.263-.263-.4-.177a.428.428,0,0,0-.125.177.69.69,0,0,1-.568.464.56.56,0,0,1-.482-.413,1.7,1.7,0,0,1-.03-.674,1.538,1.538,0,0,0-.293-1.3,1.945,1.945,0,0,0-.74-.33.972.972,0,0,1-.635-.47c-.071-.177-.053-.364-.117-.53a.923.923,0,0,0-.687-.5,1.832,1.832,0,0,1-1.2.413,5.229,5.229,0,0,1-1.354-.233.822.822,0,0,1-.337-.147.372.372,0,0,1-.055-.064.489.489,0,0,0-.2.154.28.28,0,0,0,.083.334.793.793,0,0,0,.337.148,5.144,5.144,0,0,0,1.354.231,1.815,1.815,0,0,0,1.2-.411.926.926,0,0,1,.689.5c.063.177.046.367.116.53a.968.968,0,0,0,.636.47,1.948,1.948,0,0,1,.738.328,1.541,1.541,0,0,1,.295,1.3,1.7,1.7,0,0,0,.028.674.567.567,0,0,0,.484.413.7.7,0,0,0,.569-.464.411.411,0,0,1,.125-.177c.136-.09.32.03.4.177a1.671,1.671,0,0,0,.229.429.5.5,0,0,0,.463.106,1.18,1.18,0,0,0,.436-.226,2.386,2.386,0,0,0,.812-.976,1.549,1.549,0,0,0,.076-.233A2.525,2.525,0,0,1,133.886,201.364Z"/>
        <path id="Path_155272" data-name="Path 155272" d="M134.239,197.9c.037-.081.072-.162.106-.242a1.724,1.724,0,0,0,.065-.187A4.162,4.162,0,0,0,134.239,197.9Z"/>
        <path id="Path_155273" data-name="Path 155273" d="M125.984,196.793a.722.722,0,0,0,.161-.65,2.93,2.93,0,0,1-.034-.408.625.625,0,0,0-.1.124,1.167,1.167,0,0,0-.039.706A1.452,1.452,0,0,1,125.984,196.793Z"/>
      </g>
      <path id="Path_155274" data-name="Path 155274" d="M126.68,223.075c-.328.023-.789.048-1.343.067-.385.012-.816.021-1.276.021-.4,0-.828,0-1.269-.019a27.152,27.152,0,0,1-4.161-.429,9.109,9.109,0,0,1-4.59-1.993c.177-.342.337-.627.4-.727,0-.1,0-.214-.011-.337,1.862.883,7.669,3.335,12.119,1.942a1.243,1.243,0,0,0,.021.244l.1.085A5.355,5.355,0,0,0,126.68,223.075Z" opacity="0.05"/>
      <path id="Path_155275" data-name="Path 155275" d="M126.68,222.9c-.328.023-.789.048-1.343.065-.385.014-.816.021-1.276.021-.4,0-.828,0-1.269-.019a27.15,27.15,0,0,1-4.161-.427,9.1,9.1,0,0,1-4.59-2c.177-.342.337-.625.4-.727,0-.1,0-.212-.011-.337,1.862.883,7.669,3.337,12.119,1.951a1.243,1.243,0,0,0,.021.244l.1.085A5.29,5.29,0,0,0,126.68,222.9Z" fill="#4b4442"/>
      <path id="Path_155276" data-name="Path 155276" d="M38.57,300.17a2.427,2.427,0,0,1-.542-1.848l7.792-63.759.646-5.3a2.446,2.446,0,0,1,2.408-2.147l22.824-.152a2.442,2.442,0,0,0,2.427-2.457v-.052l-.009-.242a2.444,2.444,0,0,1,2.359-2.525H100.54a2.442,2.442,0,0,1,2.441,2.436,2.568,2.568,0,0,1-.021.328,2.441,2.441,0,0,0,2.1,2.743,2.312,2.312,0,0,0,.263.021l23.034.588a2.441,2.441,0,0,1,2.379,2.5,2.469,2.469,0,0,1-.035.353l-11.515,67.259-.217,1.271a2.4,2.4,0,0,1-.353.911Z" fill="#b7b6cc"/>
      <g id="Group_167315" data-name="Group 167315" opacity="0.5">
        <rect id="Rectangle_30367" data-name="Rectangle 30367" width="46.397" height="14.186" transform="matrix(0.568, -0.823, 0.823, 0.568, 81.511, 245.84)" fill="url(#linear-gradient-3)"/>
      </g>
      <rect id="Rectangle_30368" data-name="Rectangle 30368" width="45.776" height="13.487" transform="matrix(0.568, -0.823, 0.823, 0.568, 82.08, 245.858)" fill="#f9fafb"/>
      <rect id="Rectangle_30369" data-name="Rectangle 30369" width="9.522" height="9.522" transform="matrix(0.571, -0.821, 0.821, 0.571, 103.444, 217.785)" fill="#f7b643"/>
      <rect id="Rectangle_30370" data-name="Rectangle 30370" width="9.535" height="9.535" transform="matrix(0.568, -0.823, 0.823, 0.568, 97.34, 227.236)" fill="#f7b643" opacity="0.5"/>
      <rect id="Rectangle_30371" data-name="Rectangle 30371" width="9.535" height="9.535" transform="matrix(0.568, -0.823, 0.823, 0.568, 90.795, 236.707)" fill="#f7b643" opacity="0.3"/>
      <g id="Group_167316" data-name="Group 167316" opacity="0.5">
        <rect id="Rectangle_30372" data-name="Rectangle 30372" width="46.225" height="14.186" transform="translate(79.077 249.763) rotate(-73.74)" fill="url(#linear-gradient-4)"/>
      </g>
      <rect id="Rectangle_30373" data-name="Rectangle 30373" width="45.604" height="13.487" transform="translate(79.634 249.604) rotate(-73.74)" fill="#f9fafb"/>
      <rect id="Rectangle_30374" data-name="Rectangle 30374" width="9.535" height="9.535" transform="translate(91.433 216.241) rotate(-73.74)" fill="#f97878"/>
      <rect id="Rectangle_30375" data-name="Rectangle 30375" width="9.535" height="9.535" transform="translate(88.203 227.29) rotate(-73.74)" fill="#f97878" opacity="0.5"/>
      <rect id="Rectangle_30376" data-name="Rectangle 30376" width="9.535" height="9.535" transform="translate(84.975 238.337) rotate(-73.74)" fill="#f97878" opacity="0.3"/>
      <g id="Group_167317" data-name="Group 167317" opacity="0.5">
        <rect id="Rectangle_30377" data-name="Rectangle 30377" width="46.234" height="14.189" transform="translate(79.101 252.241) rotate(-85.412)" fill="url(#linear-gradient-5)"/>
      </g>
      <rect id="Rectangle_30378" data-name="Rectangle 30378" width="45.613" height="13.49" transform="translate(79.585 251.981) rotate(-85.412)" fill="#f9fafb"/>
      <rect id="Rectangle_30379" data-name="Rectangle 30379" width="9.537" height="9.537" transform="translate(84.384 216.914) rotate(-85.412)" fill="#73b53b"/>
      <rect id="Rectangle_30380" data-name="Rectangle 30380" width="9.537" height="9.537" transform="translate(83.46 228.385) rotate(-85.412)" fill="#73b53b" opacity="0.5"/>
      <rect id="Rectangle_30381" data-name="Rectangle 30381" width="9.537" height="9.537" transform="translate(82.537 239.86) rotate(-85.412)" fill="#73b53b" opacity="0.3"/>
      <g id="Group_167318" data-name="Group 167318" opacity="0.5">
        <rect id="Rectangle_30382" data-name="Rectangle 30382" width="14.186" height="46.225" transform="translate(76.706 208.052) rotate(-2.61)" fill="url(#linear-gradient-6)"/>
      </g>
      <rect id="Rectangle_30383" data-name="Rectangle 30383" width="13.487" height="45.604" transform="translate(77.185 208.341) rotate(-2.61)" fill="#fff"/>
      <rect id="Rectangle_30384" data-name="Rectangle 30384" width="9.535" height="9.535" transform="translate(79.194 208.985) rotate(-2.61)" fill="tomato"/>
      <rect id="Rectangle_30385" data-name="Rectangle 30385" width="9.546" height="9.546" transform="translate(80.091 220.12) rotate(-2.862)" fill="tomato" opacity="0.5"/>
      <rect id="Rectangle_30386" data-name="Rectangle 30386" width="9.535" height="9.535" transform="translate(80.242 231.983) rotate(-2.61)" fill="tomato" opacity="0.3"/>
      <path id="Path_155277" data-name="Path 155277" d="M82.906,268.444,70.923,273.08l-17.514,6.77c-.662-1.236-1.636-2.906-2.842-4.9-4.149-6.874-11.012-17.567-17.124-26.964-6.885-10.592-12.811-19.53-12.811-19.53l4.29-1.236,35.042-10.176Z" fill="#e6ecf8"/>
      <path id="Path_155278" data-name="Path 155278" d="M82.906,268.444,70.923,273.08a90.052,90.052,0,0,1-20.361,1.871c-4.149-6.874-11.012-17.567-17.124-26.964l-8.514-20.773,35.04-10.17Z" opacity="0.1"/>
      <path id="Path_155279" data-name="Path 155279" d="M91.822,265.555s-18.615,11.012-46.409,8.521L23.256,220.057l10.619-1.825,36.708-6.3,20.831,52.576Z" fill="tomato"/>
      <path id="Path_155280" data-name="Path 155280" d="M91.4,264.512a88.043,88.043,0,0,1-14.557-.415,46.794,46.794,0,0,1-15.837-4.442A48.032,48.032,0,0,1,50.658,252.7c-7.72-6.943-12.5-16.875-16.787-34.463l36.708-6.3Z" opacity="0.1"/>
      <path id="Path_155281" data-name="Path 155281" d="M105.063,261.491a101.635,101.635,0,0,1-27.689,1.033,46.794,46.794,0,0,1-15.837-4.442,48.032,48.032,0,0,1-10.352-6.954c-9.554-8.6-14.6-21.768-19.8-48.37,0,0,22.812,5.506,45.369-6.555C76.745,196.213,84.348,243.662,105.063,261.491Z" fill="#f9fafb"/>
      <path id="Path_155282" data-name="Path 155282" d="M77.374,262.524a46.794,46.794,0,0,1-15.837-4.442,48.032,48.032,0,0,1-10.352-6.954c8.135-.66,9.3-5.107,9.3-5.107C66.519,255.592,77.374,262.524,77.374,262.524Z" opacity="0.1"/>
      <path id="Path_155283" data-name="Path 155283" d="M43.183,212.525s18.55-1.049,23.73-5.047L67.7,210s-12.257,5.407-24.515,5.473Z" fill="#f2b0a5"/>
      <path id="Path_155284" data-name="Path 155284" d="M43.183,224.988s17.961-.983,31.531-7.538l.459,1.049s-10.769,6.286-31.99,7.932Z" fill="#f2b0a5"/>
      <path id="Path_155285" data-name="Path 155285" d="M44.629,229.844s17.961-.983,31.529-7.538l.459,1.049s-10.769,6.285-31.988,7.932Z" fill="#f2b0a5"/>
      <path id="Path_155286" data-name="Path 155286" d="M46.073,234.71s17.961-.983,31.531-7.538l.457,1.049s-10.769,6.286-31.988,7.932Z" fill="#f2b0a5"/>
      <path id="Path_155287" data-name="Path 155287" d="M47.518,239.571s17.961-.983,31.529-7.538l.459,1.049s-10.769,6.286-31.988,7.932Z" fill="#f2b0a5"/>
      <path id="Path_155288" data-name="Path 155288" d="M48.962,244.437s17.961-.983,31.531-7.538l.457,1.049s-10.769,6.285-31.988,7.932Z" fill="#f2b0a5"/>
      <path id="Path_155289" data-name="Path 155289" d="M175.249,304.824s-7.464-.45-6.585,4.781a1.273,1.273,0,0,0,.664,1.343s.012-.388.764-.256a3.449,3.449,0,0,0,.812.039,1.672,1.672,0,0,0,.99-.409h0s2.1-.867,2.914-4.3c0,0,.6-.748.579-.941l-1.259.53a2.252,2.252,0,0,1,.092,1.663s-.041-1.629-.283-1.589c-.049,0-.655.314-.655.314a3.711,3.711,0,0,1,.176,2.733s.212-1.951-.413-2.618l-.883.517a3.917,3.917,0,0,1,.279,2.969s.15-2.046-.466-2.844l-.8.627a3.83,3.83,0,0,1,.318,2.719s-.065-2.383-.493-2.563a4.613,4.613,0,0,0-.809.883s.556,1.169.21,1.787c0,0-.212-1.589-.385-1.589a5.249,5.249,0,0,0-.773,1.765,3.819,3.819,0,0,1,.6-1.873,2.129,2.129,0,0,0-1.073.556s.109-.745,1.246-.809a5.017,5.017,0,0,1,.733-.847,4.632,4.632,0,0,0-1.815.21,2.029,2.029,0,0,1,2.023-.383l.793-.646a6.545,6.545,0,0,0-2.118.021,2.586,2.586,0,0,1,2.332-.176l.863-.516a7.9,7.9,0,0,0-2.023-.177,3.1,3.1,0,0,1,2.277.035l.616-.277s-.928-.177-1.2-.212-.288-.1-.288-.1a3.206,3.206,0,0,1,1.746.194A7.763,7.763,0,0,0,175.249,304.824Z" fill="tomato"/>
      <ellipse id="Ellipse_2208" data-name="Ellipse 2208" cx="5.282" cy="0.893" rx="5.282" ry="0.893" transform="translate(164.827 310.51)" fill="#ecc6a1"/>
      <ellipse id="Ellipse_2209" data-name="Ellipse 2209" cx="18.006" cy="1.631" rx="18.006" ry="1.631" transform="translate(115.048 306.437)" fill="#ecc6a1"/>
      <path id="Path_155290" data-name="Path 155290" d="M178.725,287.552s-4.207-.254-3.707,2.7a.718.718,0,0,0,.372.757s.009-.219.433-.145a1.943,1.943,0,0,0,.457.021.938.938,0,0,0,.558-.229h0a3.343,3.343,0,0,0,1.644-2.422s.341-.422.327-.53l-.706.3a1.276,1.276,0,0,1,.051.939s-.023-.92-.159-.9c-.028,0-.369.177-.369.177a2.1,2.1,0,0,1,.1,1.541s.12-1.1-.233-1.478l-.5.293a2.211,2.211,0,0,1,.157,1.674,3.142,3.142,0,0,0-.263-1.6l-.452.353a2.16,2.16,0,0,1,.176,1.532s-.037-1.343-.277-1.444a2.809,2.809,0,0,0-.457.493s.314.66.12,1.008c0,0-.12-.9-.217-.9a2.959,2.959,0,0,0-.436,1,2.158,2.158,0,0,1,.341-1.059,1.179,1.179,0,0,0-.6.314s.062-.42.706-.456a2.809,2.809,0,0,1,.413-.478,2.612,2.612,0,0,0-1.024.118,1.15,1.15,0,0,1,1.141-.215l.448-.365a3.717,3.717,0,0,0-1.2.012,1.44,1.44,0,0,1,1.315-.1l.487-.291a4.429,4.429,0,0,0-1.142-.1,1.745,1.745,0,0,1,1.283.019l.353-.155s-.53-.1-.678-.12-.162-.058-.162-.058a1.832,1.832,0,0,1,.985.109A4.307,4.307,0,0,0,178.725,287.552Z" fill="tomato"/>
      <ellipse id="Ellipse_2210" data-name="Ellipse 2210" cx="2.978" cy="0.503" rx="2.978" ry="0.503" transform="translate(172.852 290.763)" fill="#ecc6a1"/>
      <path id="Path_155291" data-name="Path 155291" d="M153.891,290.118s-5.081-.307-4.48,3.254a.867.867,0,0,0,.45.914s0-.265.53-.177a2.327,2.327,0,0,0,.553.026,1.144,1.144,0,0,0,.674-.279h0a4.031,4.031,0,0,0,1.984-2.923s.411-.508.394-.641l-.867.367a1.53,1.53,0,0,1,.062,1.132s-.028-1.109-.192-1.084c-.034,0-.445.215-.445.215a2.54,2.54,0,0,1,.124,1.861s.145-1.328-.281-1.783l-.6.353a2.666,2.666,0,0,1,.189,2.021,3.822,3.822,0,0,0-.316-1.942l-.547.427a2.6,2.6,0,0,1,.215,1.85s-.042-1.622-.334-1.744a3.344,3.344,0,0,0-.551.6s.378.8.143,1.216c0,0-.145-1.08-.263-1.086a3.71,3.71,0,0,0-.53,1.206,2.61,2.61,0,0,1,.411-1.275,1.437,1.437,0,0,0-.729.38s.074-.507.847-.551a3.268,3.268,0,0,1,.5-.576,3.137,3.137,0,0,0-1.236.141,1.385,1.385,0,0,1,1.375-.26l.54-.441a4.5,4.5,0,0,0-1.442.014,1.753,1.753,0,0,1,1.589-.113l.588-.353a5.37,5.37,0,0,0-1.379-.118,2.117,2.117,0,0,1,1.55.025l.42-.189s-.632-.124-.817-.143-.194-.071-.194-.071a2.184,2.184,0,0,1,1.188.131A5.4,5.4,0,0,0,153.891,290.118Z" fill="tomato"/>
      <ellipse id="Ellipse_2211" data-name="Ellipse 2211" cx="3.596" cy="0.607" rx="3.596" ry="0.607" transform="translate(146.796 293.988)" fill="#ecc6a1"/>
      <ellipse id="Ellipse_2212" data-name="Ellipse 2212" cx="5.282" cy="0.893" rx="5.282" ry="0.893" transform="translate(-6.234 307.848)" fill="#ecc6a1"/>
      <path id="Path_155292" data-name="Path 155292" d="M-4.5,304.591s3.012-.092,3.921-.738,4.634-1.412,4.86-.383,4.528,5.158,1.126,5.187-7.9-.53-8.811-1.082S-4.5,304.591-4.5,304.591Z" fill="#a8a8a8"/>
      <path id="Path_155293" data-name="Path 155293" d="M5.468,308.294c-3.4.028-7.9-.53-8.811-1.082-.688-.42-.964-1.929-1.059-2.625h-.1s.191,2.431,1.1,2.983,5.419,1.117,8.81,1.1c.982-.009,1.32-.353,1.3-.883C6.573,308.093,6.2,308.287,5.468,308.294Z" opacity="0.2"/>
      <rect id="Rectangle_30387" data-name="Rectangle 30387" width="30.127" height="53.914" transform="matrix(0.309, -0.951, 0.951, 0.309, 128.81, 192.813)" fill="url(#linear-gradient-7)"/>
      <rect id="Rectangle_30388" data-name="Rectangle 30388" width="29.712" height="53.169" transform="matrix(0.309, -0.951, 0.951, 0.309, 129.228, 192.732)" fill="#f6f7f9"/>
      <g id="Group_167319" data-name="Group 167319">
        <circle id="Ellipse_2213" data-name="Ellipse 2213" cx="5.536" cy="5.536" r="5.536" transform="translate(138.32 174.577)" fill="#ffd6cf"/>
      </g>
      <g id="Group_167320" data-name="Group 167320">
        <rect id="Rectangle_30389" data-name="Rectangle 30389" width="1.516" height="24.119" transform="matrix(0.309, -0.951, 0.951, 0.309, 157.101, 179.117)" fill="#ffd6cf"/>
      </g>
      <g id="Group_167321" data-name="Group 167321">
        <rect id="Rectangle_30390" data-name="Rectangle 30390" width="1.516" height="12.286" transform="matrix(0.309, -0.951, 0.951, 0.309, 155.906, 182.794)" fill="#ffd6cf"/>
      </g>
      <g id="Group_167322" data-name="Group 167322">
        <rect id="Rectangle_30391" data-name="Rectangle 30391" width="1.516" height="19.871" transform="matrix(0.309, -0.951, 0.951, 0.309, 154.708, 186.473)" fill="#ffd6cf"/>
      </g>
      <g id="Group_167323" data-name="Group 167323">
        <rect id="Rectangle_30392" data-name="Rectangle 30392" width="1.516" height="24.119" transform="matrix(0.309, -0.951, 0.951, 0.309, 153.513, 190.15)" fill="#ffd6cf"/>
      </g>
      <g id="Group_167324" data-name="Group 167324">
        <rect id="Rectangle_30393" data-name="Rectangle 30393" width="2.932" height="6.675" transform="matrix(0.309, -0.951, 0.951, 0.309, 167.94, 202.201)" fill="#f2b0a5"/>
      </g>
      <path id="Path_155294" data-name="Path 155294" d="M154.454,249.418a1.765,1.765,0,0,0-.018-.177.886.886,0,0,0-.03-.177c-.023-.12-.048-.238-.076-.353-.014-.055-.028-.111-.044-.164a4.478,4.478,0,0,0-.883-1.707c-.023-.028-.048-.055-.071-.081s-.1-.1-.143-.15a1.407,1.407,0,0,0-.138-.131c-.046-.041-.088-.078-.131-.113-.085-.069-.164-.127-.233-.177a1.653,1.653,0,0,0-.143-.092.8.8,0,0,0-.332-.108l-.733-.072h0l-1-.1-3.578-1.389-.141.049a8.225,8.225,0,0,1-.265-.883.791.791,0,0,0,.282-.207.648.648,0,0,0,.194-.249c.09-.208-.083-.651-.048-.906a4.267,4.267,0,0,1,.441-1.17,5.422,5.422,0,0,0,.591-2.523,2.845,2.845,0,0,0-1.176-2.238c-.38-.252-.826-.387-1.222-.616-.307-.177-.577-.413-.87-.614a5,5,0,0,0-4.929-.353,24.234,24.234,0,0,0-2.078,1.352,3.506,3.506,0,0,1-2.348.646.584.584,0,0,0-.025.1l-.069-.009c-.141.385.2.766.53,1.029a3.574,3.574,0,0,0,2.081,1.015,2.184,2.184,0,0,1,.906.067.815.815,0,0,1,.177.106,3.934,3.934,0,0,0,1.236,3.921l-1.827-.657s-.076.039-.194.113l-2.535-1.688s-5.082-1.843-6.495,1.027,6.12,1.389,6.12,1.389l1.612.883a1.469,1.469,0,0,0,.177.967l4.394,2.715a23.2,23.2,0,0,1-2.606.706c-.376,0-1.412.371-2.071,1.852s-3.013,8.707-5.084,9.911-7.531,9.263-7.531,9.263l.025.064c-.1.026-.193.053-.286.085a5.787,5.787,0,0,0-2.837,2.14.907.907,0,0,0,.635,1.432,3.963,3.963,0,0,0,3.9-1.47c.037-.048.071-.1.1-.143a.756.756,0,0,0,.53.025l2.636-2.131s-2.062,2.03-.853,3.884l-.092.129a29.474,29.474,0,0,0-4.413,9.607s-1.13.833-1.223,4.168a63.88,63.88,0,0,1-1.225,8.707s-.752,6.392-.282,8.336c0,0,.055.078.155.2-.035.042-.074.088-.117.134a2.285,2.285,0,0,1-2.016.883c-1.317-.279-1.317,2.037.565,2.223a50.168,50.168,0,0,1,5.141,1.031,1.083,1.083,0,0,0,1.342-1.155,9.738,9.738,0,0,0-.565-2.549c-.019-.044-.039-.088-.058-.129.055-.053.111-.106.166-.162,0,0,0-4.076.66-5.187,0,0,1.788-8.429,1.693-10.56-.072-1.667,4.641-8.158,6.692-10.9l-.018-.1c.53-.706.858-1.13.858-1.13l1.587,10.1a14.468,14.468,0,0,0,1.695,3.426s4.048,7.688,4.519,10.1a7.59,7.59,0,0,0,1.426,3.322l-.122.117a2.06,2.06,0,0,1-1.776.637c-1.317-.279-1.317,2.037.565,2.223a50.456,50.456,0,0,1,5.139,1.033,1.083,1.083,0,0,0,1.315-.787,1.068,1.068,0,0,0,.028-.369,8.37,8.37,0,0,0-.724-2.87,1.991,1.991,0,0,0-.108-.177.983.983,0,0,0,.374-.263s-2.438-5.846-2.438-7.425c0,0-1.034-6.02-4.517-8.242a83.114,83.114,0,0,1,1.317-11.719c.025-.1.049-.2.074-.3a27.66,27.66,0,0,0,2.747-.572l.094-2.779.471,2.223,5.271-3.241s-.046-.584-.134-1.479c-.046-.448-.1-.974-.166-1.545-.053-.455-.113-.939-.176-1.433-.018-.124-.034-.249-.051-.373q-.1-.75-.226-1.5-.048-.279-.1-.551c-.044-.242-.088-.478-.134-.706-.023-.115-.048-.229-.071-.341s-.049-.222-.074-.33-.049-.212-.074-.316c-.014-.051-.026-.1-.039-.152-.026-.1-.053-.2-.079-.295a5.261,5.261,0,0,1-.191-1.215v-.5a3.62,3.62,0,0,1,.048-.487c.011-.079.025-.161.041-.24a5.447,5.447,0,0,1,.266-.946,4.8,4.8,0,0,1,.2-.455c.177-.353.353-.729.54-1.13.1-.2.191-.4.286-.613s.192-.42.289-.635a27.87,27.87,0,0,0,2.062-5.813c.025-.157.044-.305.053-.445A3.027,3.027,0,0,0,154.454,249.418Z" fill="url(#linear-gradient-8)"/>
      <path id="Path_155295" data-name="Path 155295" d="M138.729,243.874l-3.105-2.1s-4.931-1.827-6.3,1,5.935,1.37,5.935,1.37l3.1,1.734Z" fill="#ae6e79"/>
      <rect id="Rectangle_30394" data-name="Rectangle 30394" width="29.7" height="46.235" transform="translate(105.04 261.293) rotate(-57.248)" fill="#f9fafb"/>
      <rect id="Rectangle_30395" data-name="Rectangle 30395" width="8.401" height="1.977" transform="matrix(0.536, -0.844, 0.844, 0.536, 110.804, 259.55)" fill="#b7b6cc"/>
      <rect id="Rectangle_30396" data-name="Rectangle 30396" width="18.452" height="1.813" transform="matrix(0.536, -0.844, 0.844, 0.536, 116.138, 260.986)" fill="#b7b6cc"/>
      <rect id="Rectangle_30397" data-name="Rectangle 30397" width="18.452" height="1.813" transform="matrix(0.536, -0.844, 0.844, 0.536, 119.407, 263.062)" fill="#b7b6cc"/>
      <rect id="Rectangle_30398" data-name="Rectangle 30398" width="18.452" height="1.813" transform="matrix(0.536, -0.844, 0.844, 0.536, 122.675, 265.14)" fill="#b7b6cc"/>
      <rect id="Rectangle_30399" data-name="Rectangle 30399" width="18.429" height="1.81" transform="translate(126.057 268.152) rotate(-57.248)" fill="#b7b6cc"/>
      <rect id="Rectangle_30400" data-name="Rectangle 30400" width="18.452" height="1.813" transform="matrix(0.536, -0.844, 0.844, 0.536, 129.212, 269.293)" fill="#fff"/>
      <rect id="Rectangle_30401" data-name="Rectangle 30401" width="18.452" height="1.813" transform="matrix(0.536, -0.844, 0.844, 0.536, 132.481, 271.368)" fill="#fff"/>
      <rect id="Rectangle_30402" data-name="Rectangle 30402" width="4.778" height="4.778" transform="matrix(0.536, -0.844, 0.844, 0.536, 146.205, 262.519)" fill="#b7b6cc"/>
      <path id="Path_155296" data-name="Path 155296" d="M147.915,307.895a48.651,48.651,0,0,0-4.985-1.017c-1.827-.176-1.827-2.471-.547-2.193a1.978,1.978,0,0,0,1.721-.627,3.921,3.921,0,0,0,.353-.387,1.057,1.057,0,0,1,.591-.362,4.947,4.947,0,0,1,2.985.1,1.293,1.293,0,0,1,.473.519,8.5,8.5,0,0,1,.706,2.825,1.059,1.059,0,0,1-1.3,1.144Z" fill="#bebed0"/>
      <path id="Path_155297" data-name="Path 155297" d="M124.813,308.808a48.3,48.3,0,0,0-4.984-1.017c-1.827-.177-1.827-2.472-.549-2.191a2.192,2.192,0,0,0,1.954-.863,1.591,1.591,0,0,0,.131-.152,1.062,1.062,0,0,1,.59-.353,4.939,4.939,0,0,1,2.987.1,1.614,1.614,0,0,1,.627.835,9.878,9.878,0,0,1,.547,2.512,1.059,1.059,0,0,1-.952,1.156,1.071,1.071,0,0,1-.348-.024Z" fill="#bebed0"/>
      <path id="Path_155298" data-name="Path 155298" d="M125.567,305.157c-2.18,2.247-4.05-.042-4.334-.42a1.591,1.591,0,0,0,.131-.152,1.062,1.062,0,0,1,.59-.353,4.939,4.939,0,0,1,2.987.1A1.531,1.531,0,0,1,125.567,305.157Z" opacity="0.1"/>
      <path id="Path_155299" data-name="Path 155299" d="M148.515,303.926c-.944.644-4.124.485-4.124.485a2.958,2.958,0,0,1-.288-.353,3.919,3.919,0,0,0,.353-.387,1.063,1.063,0,0,1,.591-.362,4.947,4.947,0,0,1,2.985.1A1.293,1.293,0,0,1,148.515,303.926Z" opacity="0.1"/>
      <path id="Path_155300" data-name="Path 155300" d="M148.683,303.5c-.641.823-4.292.639-4.292.639a7,7,0,0,1-1.553-3.469c-.457-2.373-4.383-9.953-4.383-9.953a14.342,14.342,0,0,1-1.644-3.379l-1.552-9.953s-7.487,9.861-7.4,11.962-1.645,10.415-1.645,10.415c-.639,1.1-.639,5.12-.639,5.12-2.373,2.471-4.382-.457-4.382-.457-.457-1.917.274-8.218.274-8.218a63.954,63.954,0,0,0,1.186-8.583c.09-3.287,1.188-4.108,1.188-4.108a29.294,29.294,0,0,1,4.288-9.473c.551-.789.916-1.211.916-1.211l14.792,1.735a9.287,9.287,0,0,0-.636,1.959,83.487,83.487,0,0,0-1.282,11.554c3.379,2.191,4.383,8.121,4.383,8.121C146.308,297.746,148.683,303.5,148.683,303.5Z" fill="#5c5c8e"/>
      <g id="Group_167325" data-name="Group 167325" opacity="0.05">
        <path id="Path_155301" data-name="Path 155301" d="M134.445,278.6l-.191-1.216s-7.487,9.861-7.395,11.962-1.643,10.415-1.643,10.415c-.641,1.1-.641,5.12-.641,5.12a3.122,3.122,0,0,1-1.428.916,2.511,2.511,0,0,0,2.524-.916s0-4.018.639-5.12c0,0,1.735-8.309,1.644-10.415C127.883,287.7,132.454,281.3,134.445,278.6Z"/>
        <path id="Path_155302" data-name="Path 155302" d="M146.4,296.2s-1-5.935-4.382-8.121a83.633,83.633,0,0,1,1.28-11.554,9.317,9.317,0,0,1,.637-1.96l-14.791-1.731s-.035.039-.1.117l13.794,1.619a9.254,9.254,0,0,0-.635,1.96,83.33,83.33,0,0,0-1.282,11.554c3.379,2.191,4.383,8.12,4.383,8.12,0,1.552,2.374,7.3,2.374,7.3-.378.484-1.8.62-2.908.65.883.023,3.472.032,4-.65C148.773,303.5,146.4,297.747,146.4,296.2Z"/>
      </g>
      <path id="Path_155303" data-name="Path 155303" d="M126.31,271.541a3.332,3.332,0,0,1-.432.756,3.817,3.817,0,0,1-3.781,1.449.9.9,0,0,1-.618-1.412,5.63,5.63,0,0,1,2.756-2.115,5,5,0,0,1,1.167-.237Z" fill="#ae6e79"/>
      <path id="Path_155304" data-name="Path 155304" d="M145.6,246l-7.32-2.678s-2.1,1.1-1.278,2.648l7.13,4.475Z" fill="#42383c"/>
      <path id="Path_155305" data-name="Path 155305" d="M145.623,246.034l-7.324-2.678s-2.1,1.1-1.278,2.648l7.121,4.473Z" opacity="0.1"/>
      <path id="Path_155306" data-name="Path 155306" d="M145.851,241.591s-.092,4.292,1.827,5.753-5.571,2.283-5.571,2.283,1.188-4.383,0-6.666S145.851,241.591,145.851,241.591Z" fill="#ae6e79"/>
      <path id="Path_155307" data-name="Path 155307" d="M143.842,274.555a9.38,9.38,0,0,0-.635,1.959,24.159,24.159,0,0,1-14.979-2.325c-.034-.053-.065-.106-.094-.159.551-.789.916-1.211.916-1.211Z" opacity="0.1"/>
      <path id="Path_155308" data-name="Path 155308" d="M126.311,271.542a3.332,3.332,0,0,1-.432.756c-.846-.141-1.522-1.765-1.647-2.073a5.049,5.049,0,0,1,1.167-.237Z" opacity="0.1"/>
      <path id="Path_155309" data-name="Path 155309" d="M146.582,245.427l-3.287,1.186-1.37,1.827s-2.825.913-3.2.913-1.37.365-2.009,1.825-2.922,8.587-4.931,9.771-7.3,9.13-7.3,9.13.913,2.471,2.009,2.1l2.556-2.1s-2.009,2.009-.823,3.836a24.582,24.582,0,0,0,17.808,1.732l.09-2.738.457,2.191,5.12-3.2a64.746,64.746,0,0,0-1.282-8.894,5.422,5.422,0,0,1,.353-3.78c1.326-2.763,3.372-7.377,3.123-9.06a4.2,4.2,0,0,0-1.843-3.1.765.765,0,0,0-.321-.108l-1.672-.166Z" fill="#42383c"/>
      <path id="Path_155310" data-name="Path 155310" d="M140.967,254.6s-1.827,8.491-3.836,9.861-7.4,5.753-7.579,6.484" opacity="0.05"/>
      <path id="Path_155311" data-name="Path 155311" d="M140.144,254.33s-1.825,8.491-3.834,9.861-7.4,5.753-7.579,6.482" fill="#42383c"/>
      <path id="Path_155312" data-name="Path 155312" d="M141.879,248.394s6.3-2.1,8.121-1.554" opacity="0.1"/>
      <g id="Group_167326" data-name="Group 167326" opacity="0.05">
        <path id="Path_155313" data-name="Path 155313" d="M150.764,259.236c1.326-2.763,3.372-7.377,3.123-9.06a4.2,4.2,0,0,0-1.843-3.1.765.765,0,0,0-.321-.108l-.706-.071a.711.711,0,0,1,.212.086,4.214,4.214,0,0,1,1.841,3.1c.249,1.681-1.8,6.3-3.121,9.06a5.422,5.422,0,0,0-.353,3.778,64.725,64.725,0,0,1,1.283,8.894l-4.4,2.752.111.53,5.12-3.2a64.747,64.747,0,0,0-1.282-8.894A5.42,5.42,0,0,1,150.764,259.236Z"/>
        <path id="Path_155314" data-name="Path 155314" d="M149.23,246.705l.791.079-3.439-1.358-.309.111Z"/>
      </g>
      <path id="Path_155315" data-name="Path 155315" d="M140.144,263.186s2.824-1.552,3.744-1.186,4.292-.092,4.292-.092" opacity="0.05"/>
      <path id="Path_155316" data-name="Path 155316" d="M145.537,242.733c-.1-.916.319-.777.319-.777s-4.931-.913-3.744,1.37a5.232,5.232,0,0,1,.5,2.007h.048C144.032,245.335,144.831,243.8,145.537,242.733Z" opacity="0.05"/>
      <circle id="Ellipse_2214" data-name="Ellipse 2214" cx="3.926" cy="3.926" r="3.926" transform="translate(138.73 237.118)" fill="#ae6e79"/>
      <path id="Path_155317" data-name="Path 155317" d="M146.949,242.206a5.472,5.472,0,0,0,.574-2.487,2.821,2.821,0,0,0-1.14-2.208c-.367-.247-.8-.38-1.185-.6-.3-.177-.561-.408-.846-.606a4.787,4.787,0,0,0-4.781-.353,22.15,22.15,0,0,0-2.014,1.335,3.375,3.375,0,0,1-2.277.637c-.138.38.2.754.508,1.015a3.437,3.437,0,0,0,2.02,1,2.124,2.124,0,0,1,.883.067,1.27,1.27,0,0,1,.448.417,8.2,8.2,0,0,1,.932,1.58,1.31,1.31,0,0,0,.417.614c.353.226.81.037,1.236.021a2.542,2.542,0,0,1,1.716.821,5.227,5.227,0,0,0,1.547,1.17c.454.177,1.361.166,1.589-.376.086-.2-.081-.643-.046-.893A4.316,4.316,0,0,1,146.949,242.206Z" opacity="0.1"/>
      <path id="Path_155318" data-name="Path 155318" d="M147.031,242.112a5.455,5.455,0,0,0,.574-2.486,2.826,2.826,0,0,0-1.139-2.208c-.369-.249-.8-.381-1.185-.607-.3-.177-.561-.406-.846-.606a4.787,4.787,0,0,0-4.781-.353,21.922,21.922,0,0,0-2.014,1.333,3.365,3.365,0,0,1-2.277.637c-.138.381.2.756.508,1.015a3.452,3.452,0,0,0,2.02,1,2.092,2.092,0,0,1,.883.067,1.236,1.236,0,0,1,.448.417,8.177,8.177,0,0,1,.93,1.578,1.3,1.3,0,0,0,.418.614c.353.226.81.037,1.236.021a2.548,2.548,0,0,1,1.714.823,5.2,5.2,0,0,0,1.548,1.169c.454.177,1.361.166,1.589-.376.088-.2-.079-.643-.044-.893A4.3,4.3,0,0,1,147.031,242.112Z" fill="#42383c"/>
      <path id="Path_155319" data-name="Path 155319" d="M118.613,300.091a1.823,1.823,0,0,1-1.169.413l-78.87-.335a2.426,2.426,0,0,1-.542-1.848l7.792-63.759,4.886-.053a1.847,1.847,0,0,1,1.8,1.363l.913,3.368a1.846,1.846,0,0,0,1.825,1.363l19.5-.468a1.847,1.847,0,0,0,1.8-1.847v-2.231a1.848,1.848,0,0,1,1.825-1.847l27.024-.291a1.847,1.847,0,0,1,1.831,1.5l11.951,62.493.078.4a1.836,1.836,0,0,1-.65,1.778Z" opacity="0.1"/>
      <path id="Path_155320" data-name="Path 155320" d="M104.516,234.8l-27.024.291a1.848,1.848,0,0,0-1.827,1.845v2.233a1.847,1.847,0,0,1-1.8,1.845l-19.5.468a1.846,1.846,0,0,1-1.827-1.363l-.916-3.366a1.846,1.846,0,0,0-1.8-1.363l-26.048.281a1.845,1.845,0,0,0-1.826,1.864,1.883,1.883,0,0,0,.026.29L32.452,299.5a1.847,1.847,0,0,0,1.813,1.538l82.289.353a1.844,1.844,0,0,0,1.818-2.191l-12.025-62.9A1.845,1.845,0,0,0,104.516,234.8Z" fill="#e6e8ee"/>
      <path id="Path_155321" data-name="Path 155321" d="M142.571,192.572l-.141,1.571.1,2.779-.3,4.687a4.574,4.574,0,0,1-1.2,3.015l-2.961,4.546-.018.009-1.114.544-1.7.177-.883-2.138.584-2.348.325-.438.09-.1a10.214,10.214,0,0,1,2.8-2.238,1.532,1.532,0,0,0,.6-1.359,33.908,33.908,0,0,1,.975-5.24,17.619,17.619,0,0,0,.552-3.2c-.154-.284-.028-6.74,2.408-6.839S142.571,192.572,142.571,192.572Z" fill="#f6bac2"/>
      <ellipse id="Ellipse_2215" data-name="Ellipse 2215" cx="2.862" cy="0.394" rx="2.862" ry="0.394" transform="translate(13.271 287.495)" fill="#ecc6a1"/>
      <ellipse id="Ellipse_2216" data-name="Ellipse 2216" cx="2.862" cy="0.394" rx="2.862" ry="0.394" transform="translate(2.31 288.605)" fill="#ecc6a1"/>
      <ellipse id="Ellipse_2217" data-name="Ellipse 2217" cx="2.862" cy="0.394" rx="2.862" ry="0.394" transform="translate(-10.6 287.101)" fill="#ecc6a1"/>
      <ellipse id="Ellipse_2218" data-name="Ellipse 2218" cx="2.034" cy="0.279" rx="2.034" ry="0.279" transform="translate(7.525 291.885)" fill="#ecc6a1"/>
      <ellipse id="Ellipse_2219" data-name="Ellipse 2219" cx="2.034" cy="0.279" rx="2.034" ry="0.279" transform="translate(-3.851 291.606)" fill="#ecc6a1"/>
      <path id="Path_155322" data-name="Path 155322" d="M5.109,288.913s4.013-13.155-.628-18.425a8.736,8.736,0,0,0-9.18-2.983,3.264,3.264,0,0,0-2.1,1.749c-.618,1.331-.507,3.492,3.85,6.015C4.344,279.492,4.8,285.284,4.8,285.284Z" fill="tomato"/>
      <path id="Path_155323" data-name="Path 155323" d="M-4.068,269.37s11.828,3.707,9.18,19.542" fill="none" stroke="#565987" stroke-miterlimit="10" stroke-width="1"/>
      <path id="Path_155324" data-name="Path 155324" d="M2.841,270.7a2.614,2.614,0,0,0-1.11,2.749" fill="none" stroke="#565987" stroke-miterlimit="10" stroke-width="1"/>
      <path id="Path_155325" data-name="Path 155325" d="M-2.882,271.674a2.054,2.054,0,0,1,2.208-.454" fill="none" stroke="#565987" stroke-miterlimit="10" stroke-width="1"/>
      <path id="Path_155326" data-name="Path 155326" d="M1.794,276.769s1.749-.883,2.2.224" fill="none" stroke="#565987" stroke-miterlimit="10" stroke-width="1"/>
      <path id="Path_155327" data-name="Path 155327" d="M6.121,278.617s-1.313-.1-1.336.53" fill="none" stroke="#565987" stroke-miterlimit="10" stroke-width="1"/>
      <path id="Path_155328" data-name="Path 155328" d="M5.272,289.017s-4.7-9.561-5.992-9.356c-.613.1-.9.706-1.024,1.31a3.85,3.85,0,0,0,.256,2.327A10.3,10.3,0,0,0,5.272,289.017Z" fill="tomato"/>
      <path id="Path_155329" data-name="Path 155329" d="M-.684,281.479s4.932,7.153,5.886,7.467" fill="none" stroke="#565987" stroke-miterlimit="10" stroke-width="1"/>
      <line id="Line_2" data-name="Line 2" x2="1.151" transform="translate(-1.138 282.596)" fill="none" stroke="#565987" stroke-miterlimit="10" stroke-width="1"/>
      <line id="Line_3" data-name="Line 3" x2="1.806" y2="0.078" transform="translate(0.241 285.212)" fill="none" stroke="#565987" stroke-miterlimit="10" stroke-width="1"/>
      <line id="Line_4" data-name="Line 4" x1="0.196" y2="0.941" transform="translate(1.145 283.119)" fill="none" stroke="#565987" stroke-miterlimit="10" stroke-width="1"/>
      <line id="Line_5" data-name="Line 5" x1="0.035" y2="0.854" transform="translate(3.224 285.98)" fill="none" stroke="#565987" stroke-miterlimit="10" stroke-width="1"/>
      <path id="Path_155330" data-name="Path 155330" d="M5.133,289.017s4.7-9.561,5.99-9.356c.614.1.9.706,1.024,1.31a3.85,3.85,0,0,1-.256,2.327A10.307,10.307,0,0,1,5.133,289.017Z" fill="tomato"/>
      <path id="Path_155331" data-name="Path 155331" d="M11.089,281.479s-4.943,7.153-5.887,7.467" fill="none" stroke="#565987" stroke-miterlimit="10" stroke-width="1"/>
      <line id="Line_6" data-name="Line 6" x1="1.151" transform="translate(10.392 282.596)" fill="none" stroke="#565987" stroke-miterlimit="10" stroke-width="1"/>
      <line id="Line_7" data-name="Line 7" x1="1.806" y2="0.078" transform="translate(8.358 285.212)" fill="none" stroke="#565987" stroke-miterlimit="10" stroke-width="1"/>
      <line id="Line_8" data-name="Line 8" x2="0.196" y2="0.941" transform="translate(9.064 283.119)" fill="none" stroke="#565987" stroke-miterlimit="10" stroke-width="1"/>
      <line id="Line_9" data-name="Line 9" x2="0.035" y2="0.854" transform="translate(7.145 285.98)" fill="none" stroke="#565987" stroke-miterlimit="10" stroke-width="1"/>
      <path id="Path_155332" data-name="Path 155332" d="M-2.938,291.249a.817.817,0,0,1-.267-.4.353.353,0,0,1,.187-.411.519.519,0,0,1,.494.177.631.631,0,0,0,.478.224.731.731,0,0,1-.226-.685.279.279,0,0,1,.062-.139.306.306,0,0,1,.383.023,1.45,1.45,0,0,1,.466,1.192,2.239,2.239,0,0,0,0-.491.5.5,0,0,1,.2-.429.55.55,0,0,1,.281-.067.583.583,0,0,1,.457.131.454.454,0,0,1-.018.56,1.784,1.784,0,0,1-.473.378,1.061,1.061,0,0,0-.337.323.241.241,0,0,0-.025.057H-2.3A2.843,2.843,0,0,1-2.938,291.249Z" fill="tomato"/>
      <path id="Path_155333" data-name="Path 155333" d="M14.971,287.4a.8.8,0,0,1-.267-.4.353.353,0,0,1,.185-.411.518.518,0,0,1,.494.177.651.651,0,0,0,.482.231.731.731,0,0,1-.228-.683.282.282,0,0,1,.064-.139.308.308,0,0,1,.383.021,1.427,1.427,0,0,1,.466,1.193,2.257,2.257,0,0,0,0-.493.5.5,0,0,1,.177-.434.559.559,0,0,1,.281-.065.589.589,0,0,1,.457.129.454.454,0,0,1-.019.561,1.759,1.759,0,0,1-.471.378,1.044,1.044,0,0,0-.337.321.3.3,0,0,0-.025.058h-1a2.8,2.8,0,0,1-.637-.441Z" fill="tomato"/>
      <path id="Path_155334" data-name="Path 155334" d="M9,291.25a.83.83,0,0,1-.268-.4.353.353,0,0,1,.187-.411.518.518,0,0,1,.494.177.657.657,0,0,0,.482.233.737.737,0,0,1-.228-.685.277.277,0,0,1,.063-.147.306.306,0,0,1,.383.023,1.428,1.428,0,0,1,.466,1.192,2.239,2.239,0,0,0,0-.491.5.5,0,0,1,.185-.434.551.551,0,0,1,.281-.067.587.587,0,0,1,.457.131.452.452,0,0,1-.019.56,1.774,1.774,0,0,1-.471.378,1.061,1.061,0,0,0-.337.323.241.241,0,0,0-.025.057H9.633A2.868,2.868,0,0,1,9,291.25Z" fill="tomato"/>
      <path id="Path_155335" data-name="Path 155335" d="M-7.926,283.465s-.383.5.177,1.259,1.022,1.4.835,1.868c0,0-.846-1.412-1.534-1.425S-8.683,284.3-7.926,283.465Z" fill="tomato"/>
      <path id="Path_155336" data-name="Path 155336" d="M-7.926,283.465a.658.658,0,0,0-.078.157c-.671.789-1.029,1.525-.383,1.545.6.018,1.322,1.091,1.493,1.363a.638.638,0,0,1-.019.062s-.846-1.412-1.534-1.425S-8.683,284.3-7.926,283.465Z" opacity="0.1"/>
      <path id="Path_155337" data-name="Path 155337" d="M-8.637,284.1c0,.177.019.319.044.319s.044-.143.044-.319-.025-.094-.049-.094S-8.637,283.927-8.637,284.1Z" fill="#ffd037"/>
      <path id="Path_155338" data-name="Path 155338" d="M-8.882,284.316c.155.085.29.134.3.113s-.1-.106-.26-.191-.094-.023-.106,0S-9.038,284.231-8.882,284.316Z" fill="#ffd037"/>
      <path id="Path_155339" data-name="Path 155339" d="M-5.9,283.465s.385.5-.177,1.259-1.022,1.4-.835,1.868c0,0,.846-1.412,1.534-1.425S-5.145,284.3-5.9,283.465Z" fill="tomato"/>
      <path id="Path_155340" data-name="Path 155340" d="M-5.9,283.465a.661.661,0,0,1,.079.157c.671.789,1.029,1.525.383,1.545-.6.018-1.322,1.091-1.5,1.363a.349.349,0,0,0,.021.062s.846-1.412,1.534-1.425S-5.143,284.3-5.9,283.465Z" opacity="0.1"/>
      <path id="Path_155341" data-name="Path 155341" d="M-5.188,284.1c0,.177-.019.319-.044.319s-.044-.143-.044-.319.025-.094.049-.094S-5.188,283.927-5.188,284.1Z" fill="#ffd037"/>
      <path id="Path_155342" data-name="Path 155342" d="M-4.942,284.316c-.155.085-.291.134-.3.113s.1-.106.26-.191.094-.023.1,0S-4.789,284.231-4.942,284.316Z" fill="#ffd037"/>
      <path id="Path_155343" data-name="Path 155343" d="M-5.312,286.525a3.937,3.937,0,0,1-1.395-.263c-.323-.229-1.649-.5-1.73-.136s-1.61,1.836-.4,1.845a10.279,10.279,0,0,0,3.135-.385C-5.377,287.39-5.312,286.525-5.312,286.525Z" fill="#a8a8a8"/>
      <path id="Path_155344" data-name="Path 155344" d="M-8.856,287.844a10.187,10.187,0,0,0,3.135-.385c.245-.148.342-.685.376-.934h.035s-.067.865-.39,1.059a10.28,10.28,0,0,1-3.135.385c-.353,0-.47-.127-.463-.311C-9.25,287.772-9.107,287.834-8.856,287.844Z" opacity="0.2"/>
      <circle id="Ellipse_2220" data-name="Ellipse 2220" cx="3.818" cy="3.818" r="3.818" transform="translate(-8.427 182.71)" fill="#ffe7d1"/>
      <circle id="Ellipse_2221" data-name="Ellipse 2221" cx="3.818" cy="3.818" r="3.818" transform="translate(175.184 213.224)" fill="#ffe7d1"/>
      <circle id="Ellipse_2222" data-name="Ellipse 2222" cx="3.818" cy="3.818" r="3.818" transform="translate(106.544 170.584)" fill="#ffe7d1"/>
      <circle id="Ellipse_2223" data-name="Ellipse 2223" cx="6.399" cy="6.399" r="6.399" transform="translate(-3.371 201.195)" fill="#ffe7d1"/>
      <path id="Path_155345" data-name="Path 155345" d="M65.345,268.074l-.226-.226a.243.243,0,0,1-.011-.342l.011-.011,1.982-1.984a.243.243,0,0,1,.342-.011l.011.011,1.982,1.982a.246.246,0,0,1,.007.346l-.007.007-.226.226a.245.245,0,0,1-.346.007l-.007-.007-1.172-1.236v2.932a.244.244,0,0,1-.243.245h-.326a.245.245,0,0,1-.245-.245v-2.929L65.7,268.075a.245.245,0,0,1-.346.007l-.007-.007Z" fill="#f6f7f9"/>
      <path id="Path_155346" data-name="Path 155346" d="M67.274,263.709a4.023,4.023,0,1,1-4.023,4.023,4.023,4.023,0,0,1,4.023-4.023h0m0-.53a4.553,4.553,0,1,0,4.553,4.553h0a4.552,4.552,0,0,0-4.553-4.553Z" fill="#f6f7f9"/>
    </g>
  </g>
</svg>
