<svg xmlns="http://www.w3.org/2000/svg" viewBox="0 0 24.001 25.129">
  <defs>
    <style>
      .cls-1 {
        fill: #248dc1;
      }
    </style>
  </defs>
  <g id="telephone-with-fax" transform="translate(-7.981)">
    <g id="Layer_5_22_" transform="translate(7.982)">
      <g id="Group_8263" data-name="Group 8263" transform="translate(0)">
        <g id="Group_8258" data-name="Group 8258" transform="translate(11.547 5.971)">
          <path id="Path_10161" data-name="Path 10161" class="cls-1" d="M177.865,85.14h-6.259a.354.354,0,1,1,0-.707h6.259a.354.354,0,1,1,0,.707Z" transform="translate(-171.252 -84.433)"/>
        </g>
        <g id="Group_8259" data-name="Group 8259" transform="translate(11.526 3.956)">
          <path id="Path_10162" data-name="Path 10162" class="cls-1" d="M174.7,56.64h-3.389a.354.354,0,0,1,0-.707H174.7a.354.354,0,0,1,0,.707Z" transform="translate(-170.959 -55.933)"/>
        </g>
        <g id="Group_8262" data-name="Group 8262">
          <g id="Group_8260" data-name="Group 8260" transform="translate(0 4.599)">
            <path id="Path_10163" data-name="Path 10163" class="cls-1" d="M14.716,84.431a1.094,1.094,0,0,1-1.1,1.131H9.079a1.094,1.094,0,0,1-1.1-1.131s.2-6.628.2-9.214c0-2.546-.2-9.054-.2-9.054a1.093,1.093,0,0,1,1.1-1.131h4.54a1.093,1.093,0,0,1,1.1,1.131s-.2,6.507-.2,9.054C14.514,77.8,14.716,84.431,14.716,84.431Z" transform="translate(-7.982 -65.032)"/>
          </g>
          <g id="Group_8261" data-name="Group 8261" transform="translate(7.988)">
            <path id="Path_10164" data-name="Path 10164" class="cls-1" d="M136.024,4.6l-.87.012c-.177,0-.212-.212-.24-.322a1.694,1.694,0,0,0-.516-.86L130.757.435A2.152,2.152,0,0,0,129.543,0h-5.8a.9.9,0,0,0-.9.9V4.263s.01.336-.247.336h-.75a.922.922,0,0,0-.919.919V24.21a.922.922,0,0,0,.919.919h14.173a.922.922,0,0,0,.919-.919V5.519A.922.922,0,0,0,136.024,4.6Zm-5.516-3.294c0-.153.138-.038.138-.038l3.006,2.568s.136.117-.055.117h-2.857a.233.233,0,0,1-.233-.233S130.508,1.909,130.508,1.305Zm-7-.407a.236.236,0,0,1,.233-.233h5.8a.279.279,0,0,1,.3.264V3.72a.9.9,0,0,0,.9.9h3.384a.149.149,0,0,1,.167.158V9.951c0,.177-.151.16-.19.16H123.67a.139.139,0,0,1-.158-.142Zm2.743,21.533a.567.567,0,0,1-.566.566H123.7a.568.568,0,0,1-.566-.566V20.742a.568.568,0,0,1,.566-.566h1.993a.567.567,0,0,1,.566.566Zm0-3.678a.567.567,0,0,1-.566.566H123.7a.568.568,0,0,1-.566-.566V17.064a.568.568,0,0,1,.566-.566h1.993a.567.567,0,0,1,.566.566Zm0-3.678a.567.567,0,0,1-.566.566H123.7a.568.568,0,0,1-.566-.566V13.386a.568.568,0,0,1,.566-.566h1.993a.567.567,0,0,1,.566.566Zm4.245,7.356a.567.567,0,0,1-.566.566H127.94a.567.567,0,0,1-.566-.566V20.742a.567.567,0,0,1,.566-.566h1.993a.567.567,0,0,1,.566.566Zm0-3.678a.567.567,0,0,1-.566.566H127.94a.567.567,0,0,1-.566-.566V17.064a.567.567,0,0,1,.566-.566h1.993a.567.567,0,0,1,.566.566Zm0-3.678a.567.567,0,0,1-.566.566H127.94a.567.567,0,0,1-.566-.566V13.386a.567.567,0,0,1,.566-.566h1.993a.567.567,0,0,1,.566.566Zm4.245,7.356a.567.567,0,0,1-.566.566h-1.993a.567.567,0,0,1-.566-.566V20.742a.567.567,0,0,1,.566-.566h1.993a.567.567,0,0,1,.566.566Zm0-3.678a.567.567,0,0,1-.566.566h-1.993a.567.567,0,0,1-.566-.566V17.064a.567.567,0,0,1,.566-.566h1.993a.567.567,0,0,1,.566.566Zm0-3.678a.567.567,0,0,1-.566.566h-1.993a.567.567,0,0,1-.566-.566V13.386a.567.567,0,0,1,.566-.566h1.993a.567.567,0,0,1,.566.566Z" transform="translate(-120.931)"/>
          </g>
        </g>
      </g>
    </g>
  </g>
</svg>
