<svg id="Group_7659" data-name="Group 7659" xmlns="http://www.w3.org/2000/svg" viewBox="0 0 24 25.458">
  <defs>
    <style>
      .cls-1 {
        fill: #248dc1;
      }
    </style>
  </defs>
  <path id="Path_9820" data-name="Path 9820" class="cls-1" d="M14.8,25.087a1.44,1.44,0,0,1-.791.555l-1.589.434a1.426,1.426,0,0,1-1.8-1.249l-.14-1.641a1.406,1.406,0,0,1,.249-.945l.059-.084H5.115a.834.834,0,0,1,0-1.669h6.863l1.534-2.19h-8.4a.835.835,0,0,1,0-1.669l9.577-.024,3.591-5.149V7.642a1.113,1.113,0,0,0-1.11-1.133H14.425V8.685a1.848,1.848,0,0,1-1.865,1.84H7.03a1.824,1.824,0,0,1-1.838-1.84V6.509H2.413A1.132,1.132,0,0,0,1.28,7.642V27.1a1.156,1.156,0,0,0,1.133,1.16h14.76a1.137,1.137,0,0,0,1.11-1.16V20.141ZM5.115,12.768h9.357a.834.834,0,0,1,0,1.669H5.115a.834.834,0,0,1,0-1.669Z" transform="translate(-1.28 -2.801)"/>
  <path id="Path_9821" data-name="Path 9821" class="cls-1" d="M10.827,6.629h5.524a.759.759,0,0,0,.758-.759V2.693a.759.759,0,0,0-.758-.759h-.832a1.944,1.944,0,0,0-3.889,0h-.8a.758.758,0,0,0-.758.759V5.87A.759.759,0,0,0,10.827,6.629Zm2.748-5.552a.866.866,0,0,1,.867.857H12.707A.868.868,0,0,1,13.575,1.077Z" transform="translate(-5.062)"/>
  <path id="Path_9822" data-name="Path 9822" class="cls-1" d="M34.216,7.915a.54.54,0,0,0-.223-.347L32.609,6.6a.536.536,0,0,0-.747.133l-9.8,14.05,2.263,1.579,9.8-14.05A.541.541,0,0,0,34.216,7.915Z" transform="translate(-10.224 -2.8)"/>
  <path id="Path_9823" data-name="Path 9823" class="cls-1" d="M19.354,34.791l.142,1.65a.317.317,0,0,0,.134.235.326.326,0,0,0,.183.059.3.3,0,0,0,.084-.012l1.6-.438a.324.324,0,0,0,.178-.125l.6-.86-2.265-1.579-.6.86A.312.312,0,0,0,19.354,34.791Z" transform="translate(-9.057 -14.51)"/>
</svg>
