<svg xmlns="http://www.w3.org/2000/svg" viewBox="0 0 24 24">
  <defs>
    <style>
      .cls-1 {
        fill: #727272;
      }

      .cls-2 {
        fill: #fff;
        stroke: #707070;
        opacity: 0;
      }

      .cls-3 {
        stroke: none;
      }

      .cls-4 {
        fill: none;
      }
    </style>
  </defs>
  <g id="bur-2" transform="translate(-2703 -3469)">
    <g id="Group_37710" data-name="Group 37710" transform="translate(2482.147 3396.861)">
      <g id="Group_37708" data-name="Group 37708" transform="translate(222.853 74.139)">
        <path id="Path_46790" data-name="Path 46790" class="cls-1" d="M242.446,84.945l-4.266-2.463V77.559h0a.823.823,0,0,0-.407-.7l-4.514-2.606a.817.817,0,0,0-.813,0l-4.512,2.605a.822.822,0,0,0-.409.706v4.924l-4.264,2.462a.823.823,0,0,0-.409.706v5.212a.817.817,0,0,0,.407.7l4.516,2.608a.825.825,0,0,0,.811,0l4.266-2.463,4.268,2.464a.826.826,0,0,0,.812,0l4.516-2.607a.817.817,0,0,0,.4-.7V85.65A.823.823,0,0,0,242.446,84.945Zm-14.921,7.571-3.362-1.941V86.692l3.362,1.941Zm.655-5.017-3.362-1.941,3.361-1.94,3.362,1.941Zm4.017,3.076-3.362,1.941V88.634l3.362-1.941Zm0-6.151-3.362-1.941V78.6l3.362,1.941Zm-2.707-6.957,3.362-1.941,3.362,1.941-3.362,1.941Zm4.017,3.076L236.87,78.6v3.881l-3.362,1.941Zm3.362,11.974-3.362-1.941V86.692l3.362,1.941Zm.655-5.017-3.361-1.94,3.362-1.941,3.361,1.941Zm4.017,3.076-3.362,1.941V88.634l3.362-1.941Z" transform="translate(-222.853 -74.139)"/>
      </g>
    </g>
    <g id="Rectangle_69" data-name="Rectangle 69" class="cls-2" transform="translate(2703 3469)">
      <rect class="cls-3" width="24" height="24"/>
      <rect class="cls-4" x="0.5" y="0.5" width="23" height="23"/>
    </g>
  </g>
</svg>
