<svg xmlns="http://www.w3.org/2000/svg" viewBox="0 0 24 24">
  <defs>
    <style>
      .cls-1 {
        fill: none;
      }

      .cls-2 {
        fill-rule: evenodd;
        opacity: 0.54;
      }

      .cls-3 {
        fill: #fff;
        stroke: #707070;
        opacity: 0;
      }

      .cls-4 {
        stroke: none;
      }
    </style>
  </defs>
  <g id="bur-13" transform="translate(-2518 -3037)">
    <g id="promos" transform="translate(1431 -2416)">
      <rect id="rectangle" class="cls-1" width="24" height="24" transform="translate(1087 5453)"/>
      <path id="path" class="cls-2" d="M5.5,7A1.5,1.5,0,1,1,7,5.5,1.5,1.5,0,0,1,5.5,7M11,2H2v9a2,2,0,0,0,.587,1.415l9,9a2,2,0,0,0,2.828,0l6.994-7a2,2,0,0,0,0-2.83l-9-9.005A2.008,2.008,0,0,0,11,2" transform="translate(1087 5453)"/>
    </g>
    <g id="Rectangle_48" data-name="Rectangle 48" class="cls-3" transform="translate(2518 3037)">
      <rect class="cls-4" width="24" height="24"/>
      <rect class="cls-1" x="0.5" y="0.5" width="23" height="23"/>
    </g>
  </g>
</svg>
