<svg xmlns="http://www.w3.org/2000/svg" viewBox="0 0 24 24">
  <defs>
    <style>
      .cls-1 {
        fill: #727272;
      }

      .cls-2 {
        fill: #fff;
        stroke: #707070;
        opacity: 0;
      }

      .cls-3 {
        stroke: none;
      }

      .cls-4 {
        fill: none;
      }
    </style>
  </defs>
  <g id="bur-10" transform="translate(-2609 -2867)">
    <g id="icon" transform="translate(2611.2 2869)">
      <path id="Path_46739" data-name="Path 46739" class="cls-1" d="M6.586,4.54h1.49v6.567H6.586Zm4.785-.049a12.04,12.04,0,0,0-2.007.138v6.478h1.472V8.759a3.782,3.782,0,0,0,.507.03A3.043,3.043,0,0,0,13.476,8.1a2.1,2.1,0,0,0,.6-1.559,1.923,1.923,0,0,0-.7-1.519A3.152,3.152,0,0,0,11.372,4.491Zm-.04,3.156a2.224,2.224,0,0,1-.5-.039V5.67a2.546,2.546,0,0,1,.615-.059c.74,0,1.159.361,1.159.964C12.609,7.248,12.121,7.647,11.331,7.647ZM9.8,0a8,8,0,0,0-8,8c0,4.418,8,11.464,8,11.464s8-7.045,8-11.463A8,8,0,0,0,9.8,0Zm.02,12.863A5.312,5.312,0,1,1,15.132,7.55,5.312,5.312,0,0,1,9.82,12.863Z"/>
    </g>
    <g id="Rectangle_51" data-name="Rectangle 51" class="cls-2" transform="translate(2609 2867)">
      <rect class="cls-3" width="24" height="24"/>
      <rect class="cls-4" x="0.5" y="0.5" width="23" height="23"/>
    </g>
  </g>
</svg>
