<svg xmlns="http://www.w3.org/2000/svg" viewBox="0 0 24 24">
  <defs>
    <style>
      .cls-1 {
        fill: #fff;
        stroke: #707070;
        opacity: 0;
      }

      .cls-2 {
        fill: #c91c1d;
      }

      .cls-3 {
        fill: #727272;
      }

      .cls-4 {
        stroke: none;
      }

      .cls-5 {
        fill: none;
      }
    </style>
  </defs>
  <g id="bur-4" transform="translate(-2612 -3527)">
    <g id="Rectangle_68" data-name="Rectangle 68" class="cls-1" transform="translate(2612 3527)">
      <rect class="cls-4" width="24" height="24"/>
      <rect class="cls-5" x="0.5" y="0.5" width="23" height="23"/>
    </g>
    <g id="Group_37689" data-name="Group 37689" transform="translate(2612 3534.238)">
      <path id="Path_46778" data-name="Path 46778" class="cls-2" d="M4.186.1H2.46a.2.2,0,0,0-.135.06A5.118,5.118,0,0,1,.318,1.53C.11,1.59,0,1.7,0,1.83V3.284a.23.23,0,0,0,.012.1c.049.12.2.12.257.12H.306a.715.715,0,0,1,.747.433,6.107,6.107,0,0,1,.049.625v6.681a.179.179,0,0,0,.184.18H4.2a.187.187,0,0,0,.184-.18V.28A.218.218,0,0,0,4.186.1Z" transform="translate(0 -0.088)"/>
      <g id="Group_37660" data-name="Group 37660" transform="translate(4.247)">
        <path id="Path_46779" data-name="Path 46779" class="cls-3" d="M44.945.1H42.632a.187.187,0,0,0-.184.18V4.233H37.381V.28A.187.187,0,0,0,37.2.1H34.884A.187.187,0,0,0,34.7.28V11.239a.187.187,0,0,0,.184.18H37.2a.187.187,0,0,0,.184-.18V6.5h5.068v4.734a.187.187,0,0,0,.184.18h2.313a.187.187,0,0,0,.184-.18V.28A.2.2,0,0,0,44.945.1Z" transform="translate(-34.7 -0.088)"/>
        <path id="Path_46780" data-name="Path 46780" class="cls-3" d="M137.215,4.242V3.4a3.443,3.443,0,0,0-.832-2.644A3.955,3.955,0,0,0,133.641,0h-4.957a.187.187,0,0,0-.184.18V2.007a.187.187,0,0,0,.184.18H133.2a3.022,3.022,0,0,1,1.457.228c.159.1.245.373.245.793v.913c0,.6-.208.721-.269.769a2.474,2.474,0,0,1-1.236.24h-4.713a.187.187,0,0,0-.184.18V7.139a.187.187,0,0,0,.184.18h4.811c.771,0,1.04.144,1.138.24.073.072.233.3.233,1.058v2.632a.187.187,0,0,0,.184.18h1.873a.187.187,0,0,0,.184-.18V8.256a2.458,2.458,0,0,0-.759-1.935,1.893,1.893,0,0,0,.33-.276A2.573,2.573,0,0,0,137.215,4.242Z" transform="translate(-117.463)"/>
      </g>
    </g>
  </g>
</svg>
