<svg xmlns="http://www.w3.org/2000/svg" viewBox="0 0 24 24">
  <defs>
    <style>
      .cls-1 {
        fill: #727272;
      }

      .cls-2, .cls-5 {
        fill: none;
      }

      .cls-2 {
        stroke: #727272;
        stroke-linecap: round;
        stroke-miterlimit: 10;
        stroke-width: 2px;
      }

      .cls-3 {
        fill: #fff;
        stroke: #707070;
        opacity: 0;
      }

      .cls-4 {
        stroke: none;
      }
    </style>
  </defs>
  <g id="bur-9" transform="translate(-2617 -2803)">
    <g id="online_support" transform="translate(2615 2802)">
      <path id="Path_1056" data-name="Path 1056" class="cls-1" d="M15,26v1.739A7.632,7.632,0,0,0,19.89,26Z" transform="translate(-1.435 -3.13)"/>
      <path id="Path_1057" data-name="Path 1057" class="cls-2" d="M5,16v1.739a2.527,2.527,0,0,0,1.739,2.609s1.739,5.217,6.957,5.217" transform="translate(-0.13 -1.826)"/>
      <path id="Path_1058" data-name="Path 1058" class="cls-1" d="M23.13,15.043H20.522c0-5.426-2.609-7.826-2.609-7.826C15.3,13.3,6.609,8.957,6.609,15.043H4V11.565A9.623,9.623,0,0,1,13.565,2c3.478,0,4.348,1.739,4.348,1.739,3.478,0,5.217,4.348,5.217,7.826Z"/>
      <path id="Path_1059" data-name="Path 1059" class="cls-1" d="M15.174,21H14.3a1.3,1.3,0,0,0,0,2.609h.87a1.3,1.3,0,0,0,0-2.609Z" transform="translate(-1.174 -2.478)"/>
      <path id="Path_1060" data-name="Path 1060" class="cls-2" d="M16,22.087h4.348a3.478,3.478,0,0,0,3.478-3.478V16" transform="translate(-1.565 -1.826)"/>
      <path id="Path_1061" data-name="Path 1061" class="cls-1" d="M24.739,19.348H23V15h1.739a1.739,1.739,0,0,1,1.739,1.739v.87A1.739,1.739,0,0,1,24.739,19.348Z" transform="translate(-2.478 -1.696)"/>
    </g>
    <g id="Rectangle_52" data-name="Rectangle 52" class="cls-3" transform="translate(2617 2803)">
      <rect class="cls-4" width="24" height="24"/>
      <rect class="cls-5" x="0.5" y="0.5" width="23" height="23"/>
    </g>
  </g>
</svg>
