<svg xmlns="http://www.w3.org/2000/svg" viewBox="0 0 24 24">
  <defs>
    <style>
      .cls-1 {
        fill: #727272;
      }

      .cls-2 {
        fill: #fff;
        stroke: #707070;
        opacity: 0;
      }

      .cls-3 {
        stroke: none;
      }

      .cls-4 {
        fill: none;
      }
    </style>
  </defs>
  <g id="bur-12" transform="translate(-2569 -3861)">
    <g id="question" transform="translate(2571 3863)">
      <g id="Group_37711" data-name="Group 37711" transform="translate(0 0)">
        <path id="Path_46791" data-name="Path 46791" class="cls-1" d="M10,0A10,10,0,1,0,20,10,10.012,10.012,0,0,0,10,0Zm0,16.25A1.25,1.25,0,1,1,11.25,15,1.25,1.25,0,0,1,10,16.25Zm1-4.375V13H9V10h1A2,2,0,1,0,8,8H6a4,4,0,1,1,5,3.875Z" transform="translate(0 0)"/>
      </g>
    </g>
    <g id="Rectangle_70" data-name="Rectangle 70" class="cls-2" transform="translate(2569 3861)">
      <rect class="cls-3" width="24" height="24"/>
      <rect class="cls-4" x="0.5" y="0.5" width="23" height="23"/>
    </g>
  </g>
</svg>
