<svg xmlns="http://www.w3.org/2000/svg" viewBox="0 0 24 24">
  <defs>
    <style>
      .cls-1 {
        fill: #727272;
      }

      .cls-2 {
        fill: #fff;
        stroke: #707070;
        opacity: 0;
      }

      .cls-3 {
        stroke: none;
      }

      .cls-4 {
        fill: none;
      }
    </style>
  </defs>
  <g id="bur-3" transform="translate(-2647 -2527)">
    <path id="group-people" class="cls-1" d="M13.4,15.2h-.6v4.4a.4.4,0,0,1-.4.4H7.6a.4.4,0,0,1-.4-.4V15.2H6.6a1,1,0,0,1-1-1V11.4A3.4,3.4,0,0,1,8.184,8.107a2.8,2.8,0,1,1,3.64,0A3.4,3.4,0,0,1,14.4,11.4v2.8A1,1,0,0,1,13.4,15.2Zm-8.6-1V11.4A4.184,4.184,0,0,1,6.88,7.779a3.416,3.416,0,0,1-.328-2.76,3.512,3.512,0,0,0-.344-.112,2.8,2.8,0,1,0-3.64,0A3.4,3.4,0,0,0,0,8.2V11a1,1,0,0,0,.992,1H1.6v4.4a.4.4,0,0,0,.4.4H6a.4.4,0,0,0,.4-.4V16A1.8,1.8,0,0,1,4.8,14.2ZM17.416,4.907a2.8,2.8,0,1,0-3.632,0,3.456,3.456,0,0,0-.336.112,3.416,3.416,0,0,1-.328,2.76A4.184,4.184,0,0,1,15.2,11.4v2.8A1.8,1.8,0,0,1,13.6,16V16.4a.4.4,0,0,0,.4.4h4a.4.4,0,0,0,.4-.4V12H19a1,1,0,0,0,1-1V8.2a3.4,3.4,0,0,0-2.584-3.288Z" transform="translate(2649 2529.024)"/>
    <g id="Rectangle_54" data-name="Rectangle 54" class="cls-2" transform="translate(2647 2527)">
      <rect class="cls-3" width="24" height="24"/>
      <rect class="cls-4" x="0.5" y="0.5" width="23" height="23"/>
    </g>
  </g>
</svg>
