<svg xmlns="http://www.w3.org/2000/svg" xmlns:xlink="http://www.w3.org/1999/xlink" viewBox="0 0 24 24.001">
  <defs>
    <style>
      .cls-1 {
        fill: none;
      }

      .cls-2 {
        clip-path: url(#clip-path);
      }

      .cls-3 {
        fill: #fff;
        opacity: 0;
      }

      .cls-4 {
        fill: #727272;
      }

      .cls-5, .cls-6 {
        stroke: none;
      }

      .cls-6 {
        fill: #707070;
      }
    </style>
    <clipPath id="clip-path">
      <rect class="cls-1" width="24" height="24.001"/>
    </clipPath>
  </defs>
  <g id="bur-5" class="cls-2">
    <g id="bur-5-2" data-name="bur-5" transform="translate(-2561 -3743)">
      <g id="Path_46802" data-name="Path 46802" class="cls-3" transform="translate(2561 3743)">
        <path class="cls-5" d="M 23.5 23.5 L 0.5 23.5 L 0.5 0.5 L 23.5 0.5 L 23.5 23.5 Z"/>
        <path class="cls-6" d="M 1 1 L 1 23 L 23 23 L 23 1 L 1 1 M 0 0 L 24 0 L 24 24 L 0 24 L 0 0 Z"/>
      </g>
      <path id="Subtraction_19" data-name="Subtraction 19" class="cls-4" d="M25.807,1H11V-3.131H25.807V1ZM17.053-1.8V-.361h2.7V-1.8Zm8.755-2.511H11V-18.872H25.808V-4.315ZM18.8-15.271a1.519,1.519,0,0,0-1.419.989,1.519,1.519,0,0,0,.436,1.673,1.831,1.831,0,0,0-1.4,1.775v1.512a.541.541,0,0,0,.54.54h.324v2.376a.216.216,0,0,0,.216.216H20.1a.216.216,0,0,0,.216-.216V-8.782h.324a.541.541,0,0,0,.54-.54v-1.512a1.834,1.834,0,0,0-1.391-1.775,1.518,1.518,0,0,0,.436-1.673A1.519,1.519,0,0,0,18.8-15.271ZM21.824-17a1.518,1.518,0,0,0-1.419.99,1.519,1.519,0,0,0,.438,1.674c-.051.014-.107.032-.182.06a1.848,1.848,0,0,1-.177,1.49,2.268,2.268,0,0,1,1.123,1.953v1.512a.97.97,0,0,1-.864.972v.221a.216.216,0,0,0,.216.216h2.16a.216.216,0,0,0,.216-.216V-10.51h.324a.541.541,0,0,0,.54-.54v-1.512a1.832,1.832,0,0,0-1.4-1.775,1.519,1.519,0,0,0,.438-1.674A1.518,1.518,0,0,0,21.824-17Zm-6.055,0a1.519,1.519,0,0,0-1.419.989,1.519,1.519,0,0,0,.436,1.673A1.833,1.833,0,0,0,13.4-12.562v1.512a.541.541,0,0,0,.535.54h.329v2.376a.216.216,0,0,0,.216.216h2.16a.216.216,0,0,0,.216-.216V-8.35a.97.97,0,0,1-.864-.972v-1.512a2.269,2.269,0,0,1,1.122-1.953,1.848,1.848,0,0,1-.177-1.49c-.065-.024-.125-.044-.186-.06a1.518,1.518,0,0,0,.436-1.673A1.519,1.519,0,0,0,15.769-17Zm10.037-3.08H11V-23H25.807v2.921Z" transform="translate(2554.766 3766)"/>
    </g>
  </g>
</svg>
