<svg xmlns="http://www.w3.org/2000/svg" xmlns:xlink="http://www.w3.org/1999/xlink" viewBox="0 0 262 147">
  <defs>
    <style>
      .cls-1 {
        fill: #f1fafe;
      }

      .cls-2 {
        fill: #e3f2fd;
      }

      .cls-3 {
        clip-path: url(#clip-path);
      }

      .cls-10, .cls-4, .cls-6 {
        fill: #248dc1;
      }

      .cls-4 {
        opacity: 0.2;
      }

      .cls-5 {
        fill: none;
        stroke: #535461;
        stroke-miterlimit: 10;
        stroke-width: 0.388px;
      }

      .cls-7 {
        opacity: 0.25;
      }

      .cls-8 {
        fill: #fff;
        opacity: 0.5;
      }

      .cls-9 {
        opacity: 0.7;
      }

      .cls-10 {
        opacity: 0.6;
      }

      .cls-11 {
        fill: url(#linear-gradient);
      }

      .cls-12, .cls-18, .cls-19, .cls-20, .cls-27 {
        opacity: 0.1;
      }

      .cls-13 {
        fill: url(#linear-gradient-2);
      }

      .cls-14 {
        fill: url(#linear-gradient-4);
      }

      .cls-15 {
        fill: url(#linear-gradient-5);
      }

      .cls-16, .cls-18 {
        fill: url(#linear-gradient-7);
      }

      .cls-17 {
        fill: url(#linear-gradient-8);
      }

      .cls-19 {
        fill: url(#linear-gradient-13);
      }

      .cls-20 {
        fill: url(#linear-gradient-14);
      }

      .cls-21 {
        fill: url(#linear-gradient-15);
      }

      .cls-22 {
        fill: url(#linear-gradient-17);
      }

      .cls-23 {
        fill: url(#linear-gradient-18);
      }

      .cls-24 {
        fill: url(#linear-gradient-19);
      }

      .cls-25 {
        fill: url(#linear-gradient-20);
      }

      .cls-26 {
        fill: #535461;
      }

      .cls-28 {
        fill: #e0e0e0;
      }

      .cls-29 {
        fill: #fda57d;
      }

      .cls-30 {
        fill: #4d8af0;
      }

      .cls-31 {
        fill: #72351c;
      }

      .cls-32 {
        fill: url(#linear-gradient-21);
      }

      .cls-33 {
        fill: #fdb797;
      }

      .cls-34 {
        fill: #3ad29f;
      }

      .cls-35 {
        fill: #252a62;
      }

      .cls-36 {
        fill: url(#linear-gradient-22);
      }

      .cls-37 {
        fill: #3e3f49;
      }
    </style>
    <clipPath id="clip-path">
      <path id="Rectangle_8892" data-name="Rectangle 8892" class="cls-1" d="M2,0H218a2,2,0,0,1,2,2V123.435a0,0,0,0,1,0,0H0a0,0,0,0,1,0,0V2A2,2,0,0,1,2,0Z" transform="translate(14826 6488)"/>
    </clipPath>
    <linearGradient id="linear-gradient" y1="0.5" x2="1" y2="0.5" gradientUnits="objectBoundingBox">
      <stop offset="0" stop-color="gray" stop-opacity="0.251"/>
      <stop offset="0.54" stop-color="gray" stop-opacity="0.122"/>
      <stop offset="1" stop-color="gray" stop-opacity="0.102"/>
    </linearGradient>
    <linearGradient id="linear-gradient-2" x1="0" y1="0.5" x2="1" y2="0.5" xlink:href="#linear-gradient"/>
    <linearGradient id="linear-gradient-4" x1="0" y1="0.5" x2="1" y2="0.5" xlink:href="#linear-gradient"/>
    <linearGradient id="linear-gradient-5" x1="0" y1="0.5" x2="1" y2="0.5" xlink:href="#linear-gradient"/>
    <linearGradient id="linear-gradient-7" x1="0" y1="0.5" x2="1" y2="0.5" xlink:href="#linear-gradient"/>
    <linearGradient id="linear-gradient-8" x1="0" y1="0.5" x2="1" y2="0.5" xlink:href="#linear-gradient"/>
    <linearGradient id="linear-gradient-13" x1="0" y1="0.5" x2="1" y2="0.5" xlink:href="#linear-gradient"/>
    <linearGradient id="linear-gradient-14" x1="0" y1="0.501" x2="1" y2="0.501" xlink:href="#linear-gradient"/>
    <linearGradient id="linear-gradient-15" x1="0" y1="0.5" x2="1" y2="0.5" xlink:href="#linear-gradient"/>
    <linearGradient id="linear-gradient-17" x1="0" y1="0.5" x2="1" y2="0.5" xlink:href="#linear-gradient"/>
    <linearGradient id="linear-gradient-18" x1="0" y1="0.5" x2="1" y2="0.5" xlink:href="#linear-gradient"/>
    <linearGradient id="linear-gradient-19" x1="0" y1="0.5" x2="0.999" y2="0.5" xlink:href="#linear-gradient"/>
    <linearGradient id="linear-gradient-20" x1="0" y1="0.5" x2="0.999" y2="0.5" xlink:href="#linear-gradient"/>
    <linearGradient id="linear-gradient-21" x1="0.5" y1="1" x2="0.5" y2="0" xlink:href="#linear-gradient"/>
    <linearGradient id="linear-gradient-22" x1="0.5" y1="1" x2="0.5" y2="0" xlink:href="#linear-gradient"/>
  </defs>
  <g id="card-8" transform="translate(-972 -807)">
    <path id="Rectangle_6965" data-name="Rectangle 6965" class="cls-2" d="M2,0H260a2,2,0,0,1,2,2V147a0,0,0,0,1,0,0H0a0,0,0,0,1,0,0V2A2,2,0,0,1,2,0Z" transform="translate(972 807)"/>
    <g id="Mask_Group_268" data-name="Mask Group 268" class="cls-3" transform="translate(-13833 -5669)">
      <g id="undraw_co-workers_ujs6" transform="translate(14855.421 6488)">
        <path id="Path_44952" data-name="Path 44952" class="cls-4" d="M176.731,142H165.173V135.49h11.558Zm-11.07-.488h10.581v-5.535H165.661Z" transform="translate(-43.571 -33.26)"/>
        <path id="Path_44953" data-name="Path 44953" class="cls-4" d="M190.5,141.614H178.937V135.1H190.5Zm-11.07-.488h10.581v-5.535H179.426Z" transform="translate(-45.777 -33.198)"/>
        <path id="Path_44954" data-name="Path 44954" class="cls-4" d="M204.26,141.614H192.7V135.1H204.26Zm-11.07-.488h10.581v-5.535H193.19Z" transform="translate(-47.984 -33.198)"/>
        <path id="Path_44955" data-name="Path 44955" class="cls-4" d="M204.26,133.859H192.7v-6.511H204.26Zm-11.07-.488h10.581v-5.535H193.19Z" transform="translate(-47.984 -31.955)"/>
        <path id="Path_44956" data-name="Path 44956" class="cls-4" d="M190.5,133.859H178.937v-6.511H190.5Zm-11.07-.488h10.581v-5.535H179.426Z" transform="translate(-45.777 -31.955)"/>
        <path id="Path_44957" data-name="Path 44957" class="cls-4" d="M35.4,141.614H23.845V135.1H35.4Zm-11.07-.488H34.915v-5.535H24.334Z" transform="translate(-20.915 -33.198)"/>
        <path id="Path_44958" data-name="Path 44958" class="cls-4" d="M49.168,141.614H37.61V135.1H49.168Zm-11.07-.488H48.679v-5.535H38.1Z" transform="translate(-23.122 -33.198)"/>
        <path id="Path_44959" data-name="Path 44959" class="cls-4" d="M62.932,141.614H51.374V135.1H62.932Zm-11.07-.488H62.444v-5.535H51.863Z" transform="translate(-25.328 -33.198)"/>
        <path id="Path_44960" data-name="Path 44960" class="cls-4" d="M76.7,142H65.139V135.49H76.7Zm-11.07-.488H76.208v-5.535H65.627Z" transform="translate(-27.535 -33.26)"/>
        <path id="Path_44961" data-name="Path 44961" class="cls-4" d="M62.932,133.859H51.374v-6.511H62.932Zm-11.07-.488H62.444v-5.535H51.863Z" transform="translate(-25.328 -31.955)"/>
        <path id="Path_44962" data-name="Path 44962" class="cls-4" d="M49.168,133.859H37.61v-6.511H49.168Zm-11.07-.488H48.679v-5.535H38.1Z" transform="translate(-23.122 -31.955)"/>
        <path id="Path_44963" data-name="Path 44963" class="cls-5" d="M192.789,114.46s-2.139-7.265.4-12.613a11.475,11.475,0,0,0,.928-7.2A19.3,19.3,0,0,0,193.1,91.27" transform="translate(-47.863 -26.171)"/>
        <path id="Path_44964" data-name="Path 44964" class="cls-6" d="M194.587,86.931c0,.89-1.612,3.472-1.612,3.472s-1.612-2.582-1.612-3.472a1.612,1.612,0,1,1,3.225,0Z" transform="translate(-47.769 -25.217)"/>
        <path id="Path_44965" data-name="Path 44965" class="cls-6" d="M197.757,92.644c-.488.747-3.241,2.038-3.241,2.038s.05-3.044.534-3.791a1.612,1.612,0,1,1,2.707,1.752Z" transform="translate(-48.275 -25.992)"/>
        <path id="Path_44966" data-name="Path 44966" class="cls-6" d="M197.506,102.575c-.794.4-3.826.124-3.826.124s1.579-2.6,2.375-3a1.613,1.613,0,0,1,1.452,2.88Z" transform="translate(-48.141 -27.494)"/>
        <path id="Path_44967" data-name="Path 44967" class="cls-6" d="M195.707,110.172c-.716.529-3.744.768-3.744.768s1.117-2.831,1.833-3.362a1.612,1.612,0,1,1,1.918,2.592Z" transform="translate(-47.865 -28.735)"/>
        <path id="Path_44968" data-name="Path 44968" class="cls-6" d="M190.392,95.224c.638.62,3.614,1.263,3.614,1.263s-.729-2.956-1.367-3.581a1.612,1.612,0,0,0-2.246,2.313Z" transform="translate(-47.535 -26.36)"/>
        <path id="Path_44969" data-name="Path 44969" class="cls-6" d="M188.306,104.05c.794.4,3.826.124,3.826.124s-1.579-2.6-2.375-3a1.613,1.613,0,1,0-1.452,2.88Z" transform="translate(-47.137 -27.73)"/>
        <path id="Path_44970" data-name="Path 44970" class="cls-6" d="M187.581,112.978c.716.529,3.744.768,3.744.768s-1.11-2.824-1.828-3.36a1.612,1.612,0,0,0-1.918,2.592Z" transform="translate(-47.058 -29.185)"/>
        <path id="Path_44971" data-name="Path 44971" class="cls-7" d="M194.587,86.931c0,.89-1.612,3.472-1.612,3.472s-1.612-2.582-1.612-3.472a1.612,1.612,0,1,1,3.225,0Z" transform="translate(-47.769 -25.217)"/>
        <path id="Path_44972" data-name="Path 44972" class="cls-7" d="M197.757,92.644c-.488.747-3.241,2.038-3.241,2.038s.05-3.044.534-3.791a1.612,1.612,0,1,1,2.707,1.752Z" transform="translate(-48.275 -25.992)"/>
        <path id="Path_44973" data-name="Path 44973" class="cls-7" d="M197.506,102.575c-.794.4-3.826.124-3.826.124s1.579-2.6,2.375-3a1.613,1.613,0,0,1,1.452,2.88Z" transform="translate(-48.141 -27.494)"/>
        <path id="Path_44974" data-name="Path 44974" class="cls-7" d="M195.707,110.172c-.716.529-3.744.768-3.744.768s1.117-2.831,1.833-3.362a1.612,1.612,0,1,1,1.918,2.592Z" transform="translate(-47.865 -28.735)"/>
        <path id="Path_44975" data-name="Path 44975" class="cls-7" d="M190.392,95.224c.638.62,3.614,1.263,3.614,1.263s-.729-2.956-1.367-3.581a1.612,1.612,0,0,0-2.246,2.313Z" transform="translate(-47.535 -26.36)"/>
        <path id="Path_44976" data-name="Path 44976" class="cls-7" d="M188.306,104.05c.794.4,3.826.124,3.826.124s-1.579-2.6-2.375-3a1.613,1.613,0,1,0-1.452,2.88Z" transform="translate(-47.137 -27.73)"/>
        <path id="Path_44977" data-name="Path 44977" class="cls-7" d="M187.581,112.978c.716.529,3.744.768,3.744.768s-1.11-2.824-1.828-3.36a1.612,1.612,0,0,0-1.918,2.592Z" transform="translate(-47.058 -29.185)"/>
        <path id="Path_44978" data-name="Path 44978" class="cls-5" d="M52.917,114.46s-2.172-7.373.407-12.793a11.646,11.646,0,0,0,.943-7.306,19.585,19.585,0,0,0-1.035-3.438" transform="translate(-25.438 -26.115)"/>
        <path id="Path_44979" data-name="Path 44979" class="cls-6" d="M54.741,86.539c0,.9-1.636,3.524-1.636,3.524s-1.638-2.629-1.638-3.524a1.636,1.636,0,0,1,3.272,0Z" transform="translate(-25.343 -25.15)"/>
        <path id="Path_44980" data-name="Path 44980" class="cls-6" d="M57.958,92.321c-.488.759-3.288,2.069-3.288,2.069s.05-3.093.542-3.847a1.636,1.636,0,1,1,2.747,1.778Z" transform="translate(-25.857 -25.935)"/>
        <path id="Path_44981" data-name="Path 44981" class="cls-6" d="M57.7,102.4c-.814.407-3.882.125-3.882.125s1.6-2.64,2.409-3.047A1.636,1.636,0,0,1,57.7,102.4Z" transform="translate(-25.72 -27.458)"/>
        <path id="Path_44982" data-name="Path 44982" class="cls-6" d="M55.882,110.106c-.726.537-3.806.78-3.806.78s1.14-2.873,1.861-3.419A1.638,1.638,0,1,1,55.89,110.1Z" transform="translate(-25.441 -28.716)"/>
        <path id="Path_44983" data-name="Path 44983" class="cls-6" d="M50.483,94.938c.651.63,3.668,1.281,3.668,1.281s-.739-3-1.387-3.629a1.636,1.636,0,1,0-2.279,2.348Z" transform="translate(-25.106 -26.309)"/>
        <path id="Path_44984" data-name="Path 44984" class="cls-6" d="M48.366,103.9c.814.407,3.882.125,3.882.125s-1.6-2.64-2.409-3.047a1.636,1.636,0,0,0-1.473,2.922Z" transform="translate(-24.702 -27.699)"/>
        <path id="Path_44985" data-name="Path 44985" class="cls-6" d="M47.629,112.954c.726.537,3.806.78,3.806.78s-1.14-2.873-1.861-3.419a1.638,1.638,0,0,0-1.953,2.631Z" transform="translate(-24.62 -29.172)"/>
        <path id="Path_44986" data-name="Path 44986" class="cls-8" d="M54.741,86.539c0,.9-1.636,3.524-1.636,3.524s-1.638-2.629-1.638-3.524a1.636,1.636,0,0,1,3.272,0Z" transform="translate(-25.343 -25.15)"/>
        <path id="Path_44987" data-name="Path 44987" class="cls-8" d="M57.958,92.321c-.488.759-3.288,2.069-3.288,2.069s.05-3.093.542-3.847a1.636,1.636,0,1,1,2.747,1.778Z" transform="translate(-25.857 -25.935)"/>
        <path id="Path_44988" data-name="Path 44988" class="cls-8" d="M57.7,102.4c-.814.407-3.882.125-3.882.125s1.6-2.64,2.409-3.047A1.636,1.636,0,0,1,57.7,102.4Z" transform="translate(-25.72 -27.458)"/>
        <path id="Path_44989" data-name="Path 44989" class="cls-8" d="M55.882,110.106c-.726.537-3.806.78-3.806.78s1.14-2.873,1.861-3.419A1.638,1.638,0,1,1,55.89,110.1Z" transform="translate(-25.441 -28.716)"/>
        <path id="Path_44990" data-name="Path 44990" class="cls-8" d="M50.483,94.938c.651.63,3.668,1.281,3.668,1.281s-.739-3-1.387-3.629a1.636,1.636,0,1,0-2.279,2.348Z" transform="translate(-25.106 -26.309)"/>
        <path id="Path_44991" data-name="Path 44991" class="cls-8" d="M48.366,103.9c.814.407,3.882.125,3.882.125s-1.6-2.64-2.409-3.047a1.636,1.636,0,0,0-1.473,2.922Z" transform="translate(-24.702 -27.699)"/>
        <path id="Path_44992" data-name="Path 44992" class="cls-8" d="M47.629,112.954c.726.537,3.806.78,3.806.78s-1.14-2.873-1.861-3.419a1.638,1.638,0,0,0-1.953,2.631Z" transform="translate(-24.62 -29.172)"/>
        <path id="Path_44993" data-name="Path 44993" class="cls-5" d="M38.2,115.313s-1.654-5.611.311-9.754a8.875,8.875,0,0,0,.718-5.567,14.926,14.926,0,0,0-.788-2.613" transform="translate(-23.112 -27.15)"/>
        <path id="Path_44994" data-name="Path 44994" class="cls-6" d="M39.592,94.027a9.886,9.886,0,0,1-1.247,2.686A9.886,9.886,0,0,1,37.1,94.027a1.247,1.247,0,0,1,2.494,0Z" transform="translate(-23.04 -26.413)"/>
        <path id="Path_44995" data-name="Path 44995" class="cls-6" d="M42.044,98.44a9.9,9.9,0,0,1-2.507,1.577,9.864,9.864,0,0,1,.413-2.93,1.247,1.247,0,0,1,2.093,1.356Z" transform="translate(-23.431 -27.012)"/>
        <path id="Path_44996" data-name="Path 44996" class="cls-6" d="M41.851,106.119a9.91,9.91,0,0,1-2.959.1,9.885,9.885,0,0,1,1.836-2.323,1.247,1.247,0,1,1,1.123,2.227Z" transform="translate(-23.327 -28.173)"/>
        <path id="Path_44997" data-name="Path 44997" class="cls-6" d="M40.458,112a9.855,9.855,0,0,1-2.9.594,9.99,9.99,0,0,1,1.418-2.6,1.247,1.247,0,0,1,1.483,2.006Z" transform="translate(-23.113 -29.132)"/>
        <path id="Path_44998" data-name="Path 44998" class="cls-6" d="M36.347,100.436a9.811,9.811,0,0,0,2.8.977,9.962,9.962,0,0,0-1.058-2.767,1.247,1.247,0,0,0-1.737,1.791Z" transform="translate(-22.859 -27.297)"/>
        <path id="Path_44999" data-name="Path 44999" class="cls-6" d="M34.734,107.263a9.91,9.91,0,0,0,2.959.1,9.885,9.885,0,0,0-1.836-2.323,1.247,1.247,0,0,0-1.123,2.227Z" transform="translate(-22.551 -28.356)"/>
        <path id="Path_45000" data-name="Path 45000" class="cls-6" d="M34.173,114.165a9.855,9.855,0,0,0,2.9.594,9.99,9.99,0,0,0-1.418-2.6,1.247,1.247,0,1,0-1.483,2.006Z" transform="translate(-22.49 -29.48)"/>
        <path id="Path_45001" data-name="Path 45001" class="cls-7" d="M39.592,94.027a9.886,9.886,0,0,1-1.247,2.686A9.886,9.886,0,0,1,37.1,94.027a1.247,1.247,0,0,1,2.494,0Z" transform="translate(-23.04 -26.413)"/>
        <path id="Path_45002" data-name="Path 45002" class="cls-7" d="M42.044,98.44a9.9,9.9,0,0,1-2.507,1.577,9.864,9.864,0,0,1,.413-2.93,1.247,1.247,0,0,1,2.093,1.356Z" transform="translate(-23.431 -27.012)"/>
        <path id="Path_45003" data-name="Path 45003" class="cls-7" d="M41.851,106.119a9.91,9.91,0,0,1-2.959.1,9.885,9.885,0,0,1,1.836-2.323,1.247,1.247,0,1,1,1.123,2.227Z" transform="translate(-23.327 -28.173)"/>
        <path id="Path_45004" data-name="Path 45004" class="cls-7" d="M40.458,112a9.855,9.855,0,0,1-2.9.594,9.99,9.99,0,0,1,1.418-2.6,1.247,1.247,0,0,1,1.483,2.006Z" transform="translate(-23.113 -29.132)"/>
        <path id="Path_45005" data-name="Path 45005" class="cls-7" d="M36.347,100.436a9.811,9.811,0,0,0,2.8.977,9.962,9.962,0,0,0-1.058-2.767,1.247,1.247,0,0,0-1.737,1.791Z" transform="translate(-22.859 -27.297)"/>
        <path id="Path_45006" data-name="Path 45006" class="cls-7" d="M34.734,107.263a9.91,9.91,0,0,0,2.959.1,9.885,9.885,0,0,0-1.836-2.323,1.247,1.247,0,0,0-1.123,2.227Z" transform="translate(-22.551 -28.356)"/>
        <path id="Path_45007" data-name="Path 45007" class="cls-7" d="M34.173,114.165a9.855,9.855,0,0,0,2.9.594,9.99,9.99,0,0,0-1.418-2.6,1.247,1.247,0,1,0-1.483,2.006Z" transform="translate(-22.49 -29.48)"/>
        <g id="Group_37065" data-name="Group 37065" class="cls-9" transform="translate(0 13.023)">
          <rect id="Rectangle_8893" data-name="Rectangle 8893" class="cls-10" width="161.159" height="82.208" transform="translate(0 0)"/>
          <path id="Path_45008" data-name="Path 45008" class="cls-7" d="M20.356,29.252v82.37H181.515V29.252Zm7.163,7.163H97.354V66.856H27.518Zm0,37.6H97.354V104.46H27.518ZM174.353,104.46H104.517V74.019h69.836Zm0-37.6H104.517V36.415h69.836Z" transform="translate(-20.356 -29.252)"/>
        </g>
        <g id="Group_37072" data-name="Group 37072" class="cls-9" transform="translate(35.926 26.984)">
          <path id="Path_45009" data-name="Path 45009" class="cls-11" d="M87.689,131.057s-14.1-5.157-16.035,2.1l5.409,13.751.58,8.791H89.428v-7.454s-1.739-7.449,2.706-12.032Z" transform="translate(-64.505 -59.249)"/>
          <g id="Group_37066" data-name="Group 37066" class="cls-12" transform="translate(13.178 30.67)">
            <path id="Path_45010" data-name="Path 45010" class="cls-13" d="M91.2,82.621a1.94,1.94,0,0,0-1.809.02,4.562,4.562,0,0,0-.625.889c-.731.959-2.2.78-3.368,1.123-1.711.5-2.767,2.2-3.373,3.86-2.679,7.325.308,15.7-2.025,23.143-.687,2.189-1.81,4.62-.7,6.634a8.773,8.773,0,0,1,1.156,1.975c.251,1.008-.233,2.329.612,2.943a2.5,2.5,0,0,0,.913.326c1.9.5,3.342,1.981,4.791,3.3s3.191,2.588,5.155,2.5a8.394,8.394,0,0,0,1.869-.371l9.751-2.715a4.4,4.4,0,0,0,2.6-1.434,4.091,4.091,0,0,0,.544-1.745,45.973,45.973,0,0,0,.477-6.988,6.055,6.055,0,0,0-.326-2.279,14.64,14.64,0,0,0-1.45-2.248,12.147,12.147,0,0,1-1.387-4.929,26.164,26.164,0,0,1-.221-8.174c.213-1.156.581-2.279.825-3.427a16.256,16.256,0,0,0,.186-5.686,8.087,8.087,0,0,0-1.791-4.346,4.543,4.543,0,0,0-2.7-1.465c-1.319-.163-1.975.6-3.15.879C95.42,84.836,92.874,83.173,91.2,82.621Z" transform="translate(-78.834 -82.404)"/>
          </g>
          <path id="Path_45011" data-name="Path 45011" class="cls-13" d="M91.2,82.157a1.94,1.94,0,0,0-1.809.02,4.562,4.562,0,0,0-.625.889c-.731.959-2.2.78-3.368,1.123-1.711.5-2.767,2.2-3.373,3.86-2.679,7.325.308,15.7-2.025,23.143-.687,2.189-1.81,4.62-.7,6.634a8.773,8.773,0,0,1,1.156,1.975c.251,1.008-.233,2.329.612,2.943a2.5,2.5,0,0,0,.913.326c1.9.5,3.342,1.981,4.791,3.3s3.187,2.6,5.155,2.512a8.394,8.394,0,0,0,1.869-.371l9.751-2.715a4.4,4.4,0,0,0,2.6-1.434,4.091,4.091,0,0,0,.544-1.745,45.974,45.974,0,0,0,.477-6.988,6.055,6.055,0,0,0-.326-2.279,14.64,14.64,0,0,0-1.45-2.248,12.148,12.148,0,0,1-1.387-4.929,26.164,26.164,0,0,1-.221-8.174c.213-1.156.581-2.279.825-3.427a16.256,16.256,0,0,0,.186-5.686,8.087,8.087,0,0,0-1.791-4.346,4.543,4.543,0,0,0-2.7-1.465c-1.319-.163-1.975.6-3.15.879C95.42,84.371,92.874,82.717,91.2,82.157Z" transform="translate(-65.656 -51.66)"/>
          <path id="Path_45012" data-name="Path 45012" class="cls-14" d="M89.811,64.972s.194,7.257-2.124,7.067S94.249,84.07,94.249,84.07l7.534-4.011s-4.441-7.065-1.348-11.459S89.811,64.972,89.811,64.972Z" transform="translate(-67.013 -48.932)"/>
          <g id="Group_37067" data-name="Group 37067" class="cls-12" transform="translate(1.128 27.616)">
            <path id="Path_45013" data-name="Path 45013" class="cls-15" d="M73.209,128.88s-1.545,10.5-5.409,7.64a8.784,8.784,0,0,1-3.285-7.64s7.535-20.244,7.15-23.3,12.86-26.811,12.86-26.811L89.431,117.8S74.754,123.15,73.209,128.88Z" transform="translate(-64.483 -78.767)"/>
          </g>
          <path id="Path_45014" data-name="Path 45014" class="cls-15" d="M72.749,128.88s-1.545,10.5-5.409,7.64a8.784,8.784,0,0,1-3.285-7.64s7.535-20.244,7.148-23.3,12.86-26.811,12.86-26.811L88.969,117.8S74.294,123.15,72.749,128.88Z" transform="translate(-63.282 -51.151)"/>
          <path id="Path_45015" data-name="Path 45015" class="cls-16" d="M86.324,70.441s-7.535,5.152-10.436,4.965l-2.251.612a12.357,12.357,0,0,0-8.917,9.518l-.036.182c-1.156,6.113-1.543,22.92-1.543,22.92s.194,4.4,2.124,5.535l12.372,8.4s-.386-9.167,4.25-10.122-1.159-.383-1.159-.383l-8.5-4.965s.194-7.449,2.512-9.93S85.171,81.712,85.171,81.712l-2.318-8.021Z" transform="translate(-63.14 -49.816)"/>
          <g id="Group_37068" data-name="Group 37068" class="cls-12" transform="translate(30.369 25.589)">
            <path id="Path_45016" data-name="Path 45016" class="cls-17" d="M100.429,76.354S105.174,77.6,108.5,78.2a3.344,3.344,0,0,1,2.416,1.823c1,2.069,2.531,5.812,2.268,8.932l2.9,11.268,8.3,9.93-7.532,3.44-8.5-9.359L115.3,122l-12.945.573s-3.865-28.651-2.9-33.422Z" transform="translate(-99.307 -76.354)"/>
          </g>
          <path id="Path_45017" data-name="Path 45017" class="cls-15" d="M100.889,76.354s4.745,1.242,8.068,1.849a3.344,3.344,0,0,1,2.416,1.823c1,2.069,2.531,5.812,2.268,8.932l2.9,11.268,8.3,9.93-7.534,3.438-8.5-9.359L115.766,122l-12.945.573s-3.865-28.651-2.9-33.422Z" transform="translate(-69.012 -50.764)"/>
          <path id="Path_45018" data-name="Path 45018" class="cls-16" d="M68.862,55.973,71.525,68.9l-4.346,2.2L64.8,59.451Z" transform="translate(-46.313 -35.957)"/>
          <path id="Path_45019" data-name="Path 45019" class="cls-16" d="M78.331,70.919l2.028-8.309,2.609,4.871-1.353,4.011Z" transform="translate(-48.482 -37.021)"/>
          <path id="Path_45020" data-name="Path 45020" class="cls-18" d="M107.43,89.205s0,12.987,1.739,13.941" transform="translate(-70.24 -52.824)"/>
          <path id="Path_45021" data-name="Path 45021" class="cls-19" d="M77.162,93.071s-4.009,12.79-2.875,14.13" transform="translate(-64.894 -53.444)"/>
          <path id="Path_45022" data-name="Path 45022" class="cls-20" d="M76.831,113.993s7.729,5,8.791,5.076" transform="translate(-65.335 -56.798)"/>
          <g id="Group_37069" data-name="Group 37069" class="cls-12" transform="translate(22.916 16.753)">
            <path id="Path_45023" data-name="Path 45023" class="cls-21" d="M90.505,65.881s.029,1.118-.075,2.465a8.891,8.891,0,0,0,8.188,5.372,9.045,9.045,0,0,0,1.424-.114,6.551,6.551,0,0,1,1.087-4.088C104.222,65.118,90.505,65.881,90.505,65.881Z" transform="translate(-90.43 -65.83)"/>
          </g>
          <ellipse id="Ellipse_1339" data-name="Ellipse 1339" class="cls-16" cx="8.887" cy="8.786" rx="8.887" ry="8.786" transform="translate(22.025 6.301)"/>
          <g id="Group_37070" data-name="Group 37070" class="cls-12" transform="translate(17.98 0.191)">
            <path id="Path_45024" data-name="Path 45024" class="cls-22" d="M103.123,57.308c1.076.143,2.442-.212,2.655-1.266.262-1.332-1.54-2.2-1.818-3.528-.1-.5.02-1.019-.041-1.525a3.731,3.731,0,0,0-1.8-2.4A13.979,13.979,0,0,0,92.9,46.164a2.06,2.06,0,0,0-1.14.358,4.315,4.315,0,0,0-.734,1.14c-.833,1.332-2.706,1.488-4.049,2.318a5.734,5.734,0,0,0-2.419,4.706,16.949,16.949,0,0,0,.977,5.383,12.245,12.245,0,0,0,1.885,4.254,4.263,4.263,0,0,0,4.125,1.711c-.7-.5-.192-1.66.568-2.067a11.885,11.885,0,0,0,2.354-1.039,4.315,4.315,0,0,0,1.056-2.318,6.034,6.034,0,0,1,1.433-2.9C98.489,56.206,101.248,57.059,103.123,57.308Z" transform="translate(-84.553 -46.107)"/>
          </g>
          <path id="Path_45025" data-name="Path 45025" class="cls-23" d="M102.888,57.081c1.076.143,2.442-.212,2.655-1.266.262-1.332-1.54-2.2-1.818-3.528-.1-.5.02-1.019-.041-1.525a3.731,3.731,0,0,0-1.8-2.4,13.979,13.979,0,0,0-9.211-2.43,2.06,2.06,0,0,0-1.14.358,4.315,4.315,0,0,0-.734,1.14c-.833,1.332-2.706,1.488-4.049,2.318a5.734,5.734,0,0,0-2.419,4.706,16.949,16.949,0,0,0,.977,5.383,12.245,12.245,0,0,0,1.885,4.254,4.263,4.263,0,0,0,4.125,1.711c-.7-.5-.192-1.66.568-2.067A11.885,11.885,0,0,0,94.239,62.7,4.315,4.315,0,0,0,95.3,60.381a6.034,6.034,0,0,1,1.433-2.9C98.258,55.979,101.017,56.831,102.888,57.081Z" transform="translate(-66.536 -45.879)"/>
          <g id="Group_37071" data-name="Group 37071" class="cls-12" transform="translate(26.565 15.565)">
            <path id="Path_45026" data-name="Path 45026" class="cls-24" d="M97.586,65.122a11.538,11.538,0,0,1-.965,3.474,27.78,27.78,0,0,0-1.844,4.031h0a64.563,64.563,0,0,1,5.372,4.584,4.219,4.219,0,0,0,4.431,1.073,2.824,2.824,0,0,0,1.988-2.22,7.219,7.219,0,0,0-.453-4.26,3.166,3.166,0,0,1-.013-2.6,1.034,1.034,0,0,1,.464-.58s-3.477-.763-3.671.19-2.9,1.91-3.477.19l-.163-3.79a.833.833,0,0,0-.837-.794h0a.833.833,0,0,0-.832.707Z" transform="translate(-94.777 -64.415)"/>
          </g>
          <path id="Path_45027" data-name="Path 45027" class="cls-25" d="M97.586,65.351a11.538,11.538,0,0,1-.965,3.474,27.78,27.78,0,0,0-1.844,4.031h0a64.561,64.561,0,0,1,5.372,4.584,4.219,4.219,0,0,0,4.431,1.073,2.824,2.824,0,0,0,1.988-2.22,7.219,7.219,0,0,0-.453-4.26,3.166,3.166,0,0,1-.013-2.6,1.034,1.034,0,0,1,.464-.58s-3.477-.763-3.671.19-2.9,1.91-3.477.19l-.163-3.79a.833.833,0,0,0-.837-.794h0A.833.833,0,0,0,97.586,65.351Z" transform="translate(-68.211 -48.887)"/>
        </g>
        <path id="Path_45028" data-name="Path 45028" class="cls-26" d="M88.036,130.917s-13.539-5.007-15.393,2.04l5.193,13.349.552,8.541H89.7v-7.236s-1.669-7.233,2.6-11.685Z" transform="translate(-28.738 -32.25)"/>
        <path id="Path_45029" data-name="Path 45029" class="cls-27" d="M91.409,83.882a1.844,1.844,0,0,0-1.735.02,4.458,4.458,0,0,0-.6.863c-.7.931-2.116.757-3.233,1.091-1.643.488-2.655,2.136-3.238,3.744-2.572,7.112.295,15.252-1.944,22.474-.651,2.126-1.737,4.486-.672,6.441a8.711,8.711,0,0,1,1.11,1.918c.241.977-.223,2.263.588,2.859a2.58,2.58,0,0,0,.876.326c1.825.488,3.209,1.924,4.6,3.2s3.064,2.513,4.949,2.43a7.977,7.977,0,0,0,1.791-.36l9.36-2.637a4.234,4.234,0,0,0,2.5-1.393,4.073,4.073,0,0,0,.523-1.695,45.156,45.156,0,0,0,.457-6.787,6,6,0,0,0-.309-2.212,15.39,15.39,0,0,0-1.393-2.185,11.89,11.89,0,0,1-1.332-4.788,25.746,25.746,0,0,1-.213-7.938c.205-1.122.558-2.212.793-3.327a15.966,15.966,0,0,0,.179-5.522,7.917,7.917,0,0,0-1.717-4.221,4.348,4.348,0,0,0-2.595-1.423c-1.266-.163-1.9.58-3.025.855C95.46,86.026,93.014,84.419,91.409,83.882Z" transform="translate(-29.843 -24.953)"/>
        <path id="Path_45030" data-name="Path 45030" class="cls-28" d="M91.409,83.44a1.844,1.844,0,0,0-1.735.02,4.458,4.458,0,0,0-.6.863c-.7.931-2.116.757-3.233,1.091-1.643.488-2.655,2.136-3.238,3.744-2.572,7.112.295,15.252-1.944,22.474-.651,2.126-1.737,4.486-.672,6.441a8.711,8.711,0,0,1,1.11,1.918c.241.977-.223,2.263.588,2.859a2.58,2.58,0,0,0,.876.326c1.825.488,3.209,1.924,4.6,3.2s3.064,2.513,4.949,2.43a7.975,7.975,0,0,0,1.791-.36l9.362-2.636a4.234,4.234,0,0,0,2.5-1.393,4.073,4.073,0,0,0,.523-1.695,45.157,45.157,0,0,0,.457-6.787,6,6,0,0,0-.309-2.212,15.388,15.388,0,0,0-1.393-2.185,11.89,11.89,0,0,1-1.332-4.788,25.745,25.745,0,0,1-.213-7.938c.205-1.122.558-2.212.793-3.327a15.966,15.966,0,0,0,.179-5.522,7.917,7.917,0,0,0-1.717-4.221,4.348,4.348,0,0,0-2.59-1.428c-1.266-.163-1.9.58-3.025.855C95.46,85.586,93.014,83.977,91.409,83.44Z" transform="translate(-29.843 -24.882)"/>
        <path id="Path_45031" data-name="Path 45031" class="cls-29" d="M90.075,66.744s.186,7.047-2.04,6.861S94.341,85.29,94.341,85.29l7.233-3.9s-4.265-6.861-1.3-11.128S90.075,66.744,90.075,66.744Z" transform="translate(-31.146 -22.231)"/>
        <path id="Path_45032" data-name="Path 45032" class="cls-27" d="M74.136,128.805s-1.483,10.2-5.193,7.418a8.583,8.583,0,0,1-3.153-7.418s7.233-19.66,6.861-22.627S85,80.14,85,80.14l4.709,37.907S75.619,123.241,74.136,128.805Z" transform="translate(-27.634 -24.387)"/>
        <path id="Path_45033" data-name="Path 45033" class="cls-30" d="M73.694,128.805s-1.483,10.2-5.193,7.418a8.583,8.583,0,0,1-3.153-7.418s7.233-19.66,6.861-22.627S84.562,80.14,84.562,80.14l4.709,37.907S75.177,123.241,73.694,128.805Z" transform="translate(-27.564 -24.387)"/>
        <path id="Path_45034" data-name="Path 45034" class="cls-30" d="M86.726,72.054s-7.233,5.007-10.015,4.822l-2.162.594a11.945,11.945,0,0,0-8.561,9.243l-.034.177c-1.113,5.935-1.483,22.256-1.483,22.256s.186,4.265,2.04,5.372l11.869,8.169s-.371-8.9,4.081-9.829-1.113-.371-1.113-.371l-8.161-4.823s.186-7.233,2.411-9.644S85.613,83,85.613,83l-2.225-7.8Z" transform="translate(-27.428 -23.091)"/>
        <path id="Path_45035" data-name="Path 45035" class="cls-27" d="M100.267,77.8s4.558,1.206,7.745,1.791a3.213,3.213,0,0,1,2.318,1.771c.962,2.01,2.429,5.642,2.176,8.673l2.782,10.943,7.977,9.644-7.234,3.344-8.156-9.087,6.674,17.255-12.427.547s-3.71-27.82-2.782-32.457Z" transform="translate(-32.994 -24.011)"/>
        <path id="Path_45036" data-name="Path 45036" class="cls-30" d="M100.709,77.8s4.558,1.206,7.745,1.791a3.213,3.213,0,0,1,2.318,1.771c.962,2.01,2.429,5.642,2.176,8.673l2.782,10.943,7.977,9.644-7.233,3.339-8.161-9.088,6.674,17.255-12.426.553s-3.71-27.82-2.782-32.457Z" transform="translate(-33.064 -24.011)"/>
        <path id="Path_45037" data-name="Path 45037" class="cls-28" d="M69.149,57.609l2.557,12.553-4.174,2.133L65.247,60.987Z" transform="translate(-10.459 -9.235)"/>
        <path id="Path_45038" data-name="Path 45038" class="cls-28" d="M78.24,72.123l1.947-8.068,2.5,4.729-1.3,3.9Z" transform="translate(-12.542 -10.268)"/>
        <path id="Path_45039" data-name="Path 45039" class="cls-27" d="M106.988,90.277s0,12.611,1.669,13.539" transform="translate(-34.243 -26.012)"/>
        <path id="Path_45040" data-name="Path 45040" class="cls-27" d="M77.931,94.024s-3.85,12.421-2.767,13.721" transform="translate(-29.111 -26.613)"/>
        <path id="Path_45041" data-name="Path 45041" class="cls-27" d="M77.612,114.351s7.42,4.851,8.439,4.929" transform="translate(-29.534 -29.871)"/>
        <path id="Path_45042" data-name="Path 45042" class="cls-27" d="M90.74,67.628s.029,1.086-.072,2.393a8.533,8.533,0,0,0,9.228,5.1,6.427,6.427,0,0,1,1.043-3.97C103.9,66.886,90.74,67.628,90.74,67.628Z" transform="translate(-31.627 -22.373)"/>
        <circle id="Ellipse_1340" data-name="Ellipse 1340" class="cls-29" cx="8.532" cy="8.532" r="8.532" transform="translate(58.185 35.055)"/>
        <path id="Path_45043" data-name="Path 45043" class="cls-27" d="M102.852,59.305c1.034.138,2.351-.207,2.549-1.229.252-1.294-1.478-2.134-1.745-3.419-.1-.488.02-.99-.039-1.48a3.617,3.617,0,0,0-1.73-2.326,13.3,13.3,0,0,0-8.847-2.357,1.983,1.983,0,0,0-1.1.347,4.08,4.08,0,0,0-.7,1.11c-.8,1.293-2.6,1.446-3.886,2.251a5.582,5.582,0,0,0-2.323,4.571A16.5,16.5,0,0,0,85.971,62a11.945,11.945,0,0,0,1.81,4.13,4.069,4.069,0,0,0,3.959,1.66c-.674-.488-.184-1.613.545-2.007a11.458,11.458,0,0,0,2.261-1.009,4.127,4.127,0,0,0,1.014-2.251,5.923,5.923,0,0,1,1.376-2.813C98.4,58.229,101.047,59.063,102.852,59.305Z" transform="translate(-30.722 -19.305)"/>
        <path id="Path_45044" data-name="Path 45044" class="cls-31" d="M102.639,59.082c1.034.138,2.351-.207,2.549-1.229.252-1.294-1.478-2.134-1.745-3.419-.1-.488.02-.99-.039-1.48a3.649,3.649,0,0,0-1.742-2.334,13.3,13.3,0,0,0-8.843-2.359,1.983,1.983,0,0,0-1.1.347,4.08,4.08,0,0,0-.7,1.11c-.8,1.293-2.6,1.446-3.886,2.251a5.582,5.582,0,0,0-2.323,4.571,16.5,16.5,0,0,0,.941,5.227,11.945,11.945,0,0,0,1.81,4.13,4.069,4.069,0,0,0,3.959,1.66c-.674-.488-.184-1.613.545-2.007a11.458,11.458,0,0,0,2.261-1.009,4.127,4.127,0,0,0,1.014-2.251,5.923,5.923,0,0,1,1.376-2.813C98.184,58.011,100.832,58.843,102.639,59.082Z" transform="translate(-30.687 -19.268)"/>
        <path id="Path_45045" data-name="Path 45045" class="cls-27" d="M97.538,66.889a11.29,11.29,0,0,1-.928,3.373,27.13,27.13,0,0,0-1.771,3.907h0a61.216,61.216,0,0,1,5.152,4.452,4.018,4.018,0,0,0,4.254,1.042,2.726,2.726,0,0,0,1.908-2.155,7.145,7.145,0,0,0-.433-4.138,3.108,3.108,0,0,1-.007-2.526,1.008,1.008,0,0,1,.446-.563s-3.339-.742-3.524.186-2.782,1.854-3.339.186l-.153-3.681a.8.8,0,0,0-.8-.772h0A.8.8,0,0,0,97.538,66.889Z" transform="translate(-32.296 -22.152)"/>
        <path id="Path_45046" data-name="Path 45046" class="cls-31" d="M97.538,67.112a11.29,11.29,0,0,1-.928,3.373,27.131,27.131,0,0,0-1.771,3.907h0a61.215,61.215,0,0,1,5.152,4.452,4.018,4.018,0,0,0,4.254,1.042,2.726,2.726,0,0,0,1.908-2.155,7.145,7.145,0,0,0-.433-4.138,3.108,3.108,0,0,1-.011-2.533,1.008,1.008,0,0,1,.446-.563s-3.339-.742-3.524.186-2.777,1.862-3.339.2L99.138,67.2a.8.8,0,0,0-.8-.772h0A.8.8,0,0,0,97.538,67.112Z" transform="translate(-32.296 -22.189)"/>
        <path id="Path_45047" data-name="Path 45047" class="cls-32" d="M167.838,117.612a20.08,20.08,0,0,1-4.584-7.814h.288l-.138-.387h.138l-.436-1.24a8.7,8.7,0,0,0,2.3-3.06c.251-1.126.5-7.221.651-11.457l.133.033a3.546,3.546,0,0,0,.371-1.895,7.346,7.346,0,0,0-.273-2.116l-.6-6.048a4.125,4.125,0,0,0-1.587-2.841l-6.121-4.749a3.892,3.892,0,0,1,1.2-1.065,2.706,2.706,0,0,0,.993-.63c.426-.575.063-1.431.355-2.085.218-.488.755-.762,1.07-1.2.643-.9.177-2.136-.3-3.129l-2.79-5.768a26.08,26.08,0,0,0-2.634-4.613c-3.309-4.311-9.678-6.455-14.869-4.586a5.883,5.883,0,0,0-3.474,2.994,7.857,7.857,0,0,1-.671,1.493c-.711.991-2.1,1.179-3.093,1.892a4.532,4.532,0,0,0-1.561,4.2,13.461,13.461,0,0,0,1.594,4.4,13.678,13.678,0,0,0,2.715,4.084c.566.519,1.26,1,1.441,1.748a13.331,13.331,0,0,1-.062,1.966,2,2,0,0,0,.238.788c-2.74.343-4.683,2.619-5.554,6.005-.054.21-.075.326-.075.326l-.386,3.506c-.008.151,0,.3,0,.443a4.612,4.612,0,0,0,.488,2.279V101.39l-11.721,7.42c-1.758.781-1.367,7.031,2.149,8.2s6.643-6.236,6.643-6.236c2.141-.143,5.742-3,7.677-5.209a3.528,3.528,0,0,0,1.021,1.063c-1.4,3.148-4.159,9.661-3.718,10.983.265.8,7.125.871,14.54.715a3.542,3.542,0,0,0,.594.262,2.685,2.685,0,0,0,2.279-.334C160.083,118.025,167.838,117.612,167.838,117.612Zm-9.9-23.873c.163-.451.7-.7,1.411-.814v4.749Zm-.682-16.686h0l.023-.034Z" transform="translate(-36.306 -19.921)"/>
        <path id="Path_45048" data-name="Path 45048" class="cls-33" d="M139.884,94.337s-.371,13.168-.742,14.838-5.746,6.668-8.532,6.861c0,0-2.968,7.047-6.306,5.935s-3.71-7.047-2.04-7.789l11.131-7.049v-14.1Z" transform="translate(-36.537 -26.454)"/>
        <path id="Path_45049" data-name="Path 45049" class="cls-34" d="M142.279,113.8s-4.822,10.386-4.265,12.056,31.529,0,31.529,0-5.75-5.75-4.636-12.056Z" transform="translate(-39.21 -29.783)"/>
        <path id="Path_45050" data-name="Path 45050" class="cls-33" d="M147.381,76.924s.742,7.233-.557,8.9,5.193,2.6,5.75,2.6a60.545,60.545,0,0,0,7.6-2.6c1.112-.565,2.04-4.636,2.04-4.636s-5.564,1.113-7.233-5.372Z" transform="translate(-40.602 -23.694)"/>
        <path id="Path_45051" data-name="Path 45051" class="cls-6" d="M143.6,54.915a5.588,5.588,0,0,0-3.3,2.844,7.511,7.511,0,0,1-.636,1.418c-.676.941-1.994,1.118-2.93,1.791a4.306,4.306,0,0,0-1.483,3.987,12.684,12.684,0,0,0,1.512,4.169A12.962,12.962,0,0,0,139.346,73c.537.488,1.2.951,1.367,1.66a12.642,12.642,0,0,1-.059,1.869c.133,1.542,1.976,2.259,3.515,2.43a2.275,2.275,0,0,0,1.906-.4,3.279,3.279,0,0,0,.514-.892,4.276,4.276,0,0,1,7.628-.078c.361.693.571,1.537,1.227,1.953,1,.651,2.349-.112,3.093-1.053s1.278-2.116,2.334-2.681a2.636,2.636,0,0,0,.944-.6c.405-.545.06-1.359.337-1.979.208-.467.718-.723,1.016-1.14.61-.851.163-2.028-.288-2.971l-2.65-5.478a24.828,24.828,0,0,0-2.5-4.382C154.581,55.177,148.534,53.141,143.6,54.915Z" transform="translate(-38.769 -20.24)"/>
        <path id="Path_45052" data-name="Path 45052" class="cls-27" d="M150.357,88.008s7.233,0,9.088-6.674l6.088,4.721a3.917,3.917,0,0,1,1.5,2.707l.575,5.743s.651,2.133-.093,3.432c0,0-7.7-1.953-7.882.278L165,113.237s-8.346.186-10.571-1.3c0,0-9.088,1.854-11.314-.186s-4.451-1.854-2.6-6.492a9.189,9.189,0,0,1-2.04-8.9c1.67-5.193.093.093.093.093s-3.6-1.761-3.417-5.108L135.521,88s.02-.111.072-.309c1.131-4.4,4.169-6.837,8.441-5.281a3.909,3.909,0,0,0,2.525-.067S145.164,88.38,150.357,88.008Z" transform="translate(-38.757 -24.578)"/>
        <path id="Path_45053" data-name="Path 45053" class="cls-35" d="M150.357,87.566s7.233,0,9.088-6.674l6.088,4.721a3.917,3.917,0,0,1,1.5,2.707l.575,5.743s.651,2.133-.093,3.432c0,0-7.7-1.953-7.882.278L165,112.8s-8.346.186-10.571-1.3c0,0-9.088,1.854-11.314-.186s-4.451-1.854-2.6-6.492a9.189,9.189,0,0,1-2.04-8.9c1.67-5.193.093.093.093.093s-3.6-1.761-3.417-5.1l.371-3.339s.02-.111.072-.309c1.131-4.4,4.169-6.837,8.441-5.281a3.909,3.909,0,0,0,2.525-.067S145.164,87.938,150.357,87.566Z" transform="translate(-38.757 -24.507)"/>
        <path id="Path_45054" data-name="Path 45054" class="cls-33" d="M170.144,96.1s-.371,13.168-.742,14.838-5.75,6.674-8.532,6.861c0,0-2.968,7.047-6.306,5.935s-3.71-7.047-2.04-7.789l11.128-7.047V94.8Z" transform="translate(-41.388 -26.737)"/>
        <path id="Path_45055" data-name="Path 45055" class="cls-27" d="M164.2,96.391s4.265,2.894,7.977,2.653c0,0,.371-4.972-.742-5.25S165.494,93.795,164.2,96.391Z" transform="translate(-43.415 -26.562)"/>
        <path id="Path_45056" data-name="Path 45056" class="cls-35" d="M164.2,96.17s4.265,2.894,7.977,2.653c0,0,.371-4.972-.742-5.25S165.494,93.574,164.2,96.17Z" transform="translate(-43.415 -26.527)"/>
        <path id="Path_45057" data-name="Path 45057" class="cls-27" d="M155.565,76.251l-7.6,1.113s.171,1.673.205,3.6a8.535,8.535,0,0,0,8.953-1.455A8.343,8.343,0,0,1,155.565,76.251Z" transform="translate(-40.812 -23.763)"/>
        <circle id="Ellipse_1341" data-name="Ellipse 1341" class="cls-33" cx="8.532" cy="8.532" r="8.532" transform="translate(101.771 40.433)"/>
        <path id="Path_45058" data-name="Path 45058" class="cls-27" d="M152.484,68.24a2.665,2.665,0,0,1-1.14.163q-2.263-.015-4.524-.163a5.55,5.55,0,0,1-3.241-.943,3.7,3.7,0,0,1-.76-4.241A7.572,7.572,0,0,1,146,59.8a9.487,9.487,0,0,1,2.4-1.081,8.041,8.041,0,0,1,7.093,1.779,12.534,12.534,0,0,1,3.837,6.427c.226.846.518,1.856,1.356,2.116a2.286,2.286,0,0,1-2.9.61c-1.442-.685-2.181-3.309-3.475-3.723C152.863,65.466,153.7,67.68,152.484,68.24Z" transform="translate(-39.933 -20.916)"/>
        <path id="Path_45059" data-name="Path 45059" class="cls-6" d="M152.484,68.02a2.665,2.665,0,0,1-1.14.163q-2.263-.015-4.524-.163a5.55,5.55,0,0,1-3.241-.943,3.7,3.7,0,0,1-.76-4.241A7.572,7.572,0,0,1,146,59.581a9.487,9.487,0,0,1,2.395-1.078,8.041,8.041,0,0,1,7.093,1.779,12.534,12.534,0,0,1,3.837,6.427c.226.846.518,1.856,1.356,2.116a2.286,2.286,0,0,1-2.9.61c-1.442-.685-2.181-3.309-3.476-3.723C152.863,65.246,153.7,67.456,152.484,68.02Z" transform="translate(-39.933 -20.881)"/>
        <path id="Path_45060" data-name="Path 45060" class="cls-27" d="M141.446,109.059a32.855,32.855,0,0,1,8.528-1.113" transform="translate(-39.767 -28.844)"/>
        <path id="Path_45061" data-name="Path 45061" class="cls-27" d="M163.79,97.345s-2.782,2.04-2.04,3.153" transform="translate(-43.002 -27.145)"/>
        <g id="Group_37073" data-name="Group 37073" class="cls-9" transform="translate(48.82 90.415)">
          <path id="Path_45062" data-name="Path 45062" class="cls-36" d="M149.2,107.676H58.14v7.964h5.3v25.05h80.653V115.64H149.2Z" transform="translate(-58.14 -107.676)"/>
        </g>
        <rect id="Rectangle_8894" data-name="Rectangle 8894" class="cls-28" width="79.009" height="28.377" transform="translate(54.941 95.053)"/>
        <rect id="Rectangle_8895" data-name="Rectangle 8895" class="cls-27" width="79.009" height="4.451" transform="translate(54.941 96.536)"/>
        <rect id="Rectangle_8896" data-name="Rectangle 8896" class="cls-28" width="89.209" height="7.604" transform="translate(49.748 91.9)"/>
        <rect id="Rectangle_8897" data-name="Rectangle 8897" class="cls-26" width="17.063" height="2.411" rx="1.205" transform="translate(62.533 90.028)"/>
        <g id="Group_37074" data-name="Group 37074" class="cls-9" transform="translate(72.919 63.147)">
          <rect id="Rectangle_8898" data-name="Rectangle 8898" class="cls-36" width="42.409" height="29.323" rx="5.471"/>
        </g>
        <rect id="Rectangle_8899" data-name="Rectangle 8899" class="cls-37" width="40.174" height="28.781" rx="5.203" transform="translate(73.674 63.687)"/>
        <rect id="Rectangle_8900" data-name="Rectangle 8900" class="cls-26" width="40.174" height="28.781" rx="5.203" transform="translate(74.231 63.687)"/>
        <circle id="Ellipse_1342" data-name="Ellipse 1342" class="cls-28" cx="1.299" cy="1.299" r="1.299" transform="translate(94.895 76.582)"/>
        <path id="Path_45063" data-name="Path 45063" class="cls-27" d="M71.649,127.6s1.1,1.61,4.351,2.1" transform="translate(-28.578 -31.996)"/>
        <path id="Path_45064" data-name="Path 45064" class="cls-4" d="M104.031,28.009H92.474V21.5h11.558Zm-11.07-.488h10.581V21.986H92.962Z" transform="translate(-31.917 -14.986)"/>
        <path id="Path_45065" data-name="Path 45065" class="cls-4" d="M117.8,28.009H106.238V21.5H117.8Zm-11.07-.488h10.581V21.986H106.726Z" transform="translate(-34.123 -14.986)"/>
        <path id="Path_45066" data-name="Path 45066" class="cls-4" d="M131.56,28.009H120V21.5H131.56Zm-11.07-.488h10.581V21.986H120.491Z" transform="translate(-36.33 -14.986)"/>
        <path id="Path_45067" data-name="Path 45067" class="cls-4" d="M145.325,28.009H133.767V21.5h11.558Zm-11.07-.488h10.581V21.986H134.255Z" transform="translate(-38.536 -14.986)"/>
        <path id="Path_45068" data-name="Path 45068" class="cls-4" d="M131.56,20.255H120V13.743H131.56Zm-11.07-.488h10.581V14.231H120.491Z" transform="translate(-36.33 -13.743)"/>
        <path id="Path_45069" data-name="Path 45069" class="cls-4" d="M117.8,20.255H106.238V13.743H117.8Zm-11.07-.488h10.581V14.231H106.726Z" transform="translate(-34.123 -13.743)"/>
        <path id="Path_45070" data-name="Path 45070" class="cls-4" d="M53.045,28.009H41.487V21.5H53.045Zm-11.07-.488H52.557V21.986H41.975Z" transform="translate(-23.743 -14.986)"/>
        <path id="Path_45071" data-name="Path 45071" class="cls-4" d="M66.809,28.009H55.251V21.5H66.809Zm-11.07-.488H66.321V21.986H55.74Z" transform="translate(-25.95 -14.986)"/>
        <path id="Path_45072" data-name="Path 45072" class="cls-4" d="M66.809,20.255H55.251V13.743H66.809Zm-11.07-.488H66.321V14.231H55.74Z" transform="translate(-25.95 -13.743)"/>
        <path id="Path_45073" data-name="Path 45073" class="cls-4" d="M173.241,28.009H161.683V21.5h11.558Zm-11.07-.488h10.581V21.986H162.172Z" transform="translate(-43.011 -14.986)"/>
        <path id="Path_45074" data-name="Path 45074" class="cls-4" d="M187.006,28.009H175.448V21.5h11.558Zm-11.07-.488h10.581V21.986H175.936Z" transform="translate(-45.218 -14.986)"/>
        <path id="Path_45075" data-name="Path 45075" class="cls-4" d="M187.006,20.255H175.448V13.743h11.558Zm-11.07-.488h10.581V14.231H175.936Z" transform="translate(-45.218 -13.743)"/>
      </g>
    </g>
  </g>
</svg>
