<svg xmlns="http://www.w3.org/2000/svg" xmlns:xlink="http://www.w3.org/1999/xlink" viewBox="0 0 262 147">
  <defs>
    <style>
      .cls-1 {
        fill: #f1fafe;
      }

      .cls-2 {
        fill: #e3f2fd;
      }

      .cls-3 {
        clip-path: url(#clip-path);
      }

      .cls-4, .cls-6 {
        fill: #248dc1;
      }

      .cls-12, .cls-4 {
        opacity: 0.1;
      }

      .cls-5 {
        fill: none;
        stroke: #535461;
        stroke-miterlimit: 10;
        stroke-width: 0.372px;
      }

      .cls-7 {
        fill: #ffd037;
      }

      .cls-8 {
        fill: #a8a8a8;
      }

      .cls-9 {
        opacity: 0.2;
      }

      .cls-10 {
        fill: url(#linear-gradient);
      }

      .cls-11 {
        fill: #474059;
      }

      .cls-13 {
        fill: #fff;
      }

      .cls-14 {
        fill: #d6d6e3;
      }

      .cls-15 {
        fill: #8499f0;
      }

      .cls-16 {
        fill: #fc6681;
      }

      .cls-17 {
        fill: #ffc74c;
      }

      .cls-18 {
        fill: #85d459;
      }

      .cls-19 {
        fill: url(#linear-gradient-2);
      }

      .cls-20 {
        fill: url(#linear-gradient-3);
      }

      .cls-21 {
        fill: #f7bbc3;
      }

      .cls-22 {
        fill: #b77983;
      }

      .cls-23 {
        fill: #605d82;
      }

      .cls-24, .cls-26 {
        opacity: 0.05;
      }

      .cls-25 {
        fill: #d9d9ea;
      }

      .cls-27 {
        fill: #a1616a;
      }
    </style>
    <clipPath id="clip-path">
      <path id="Rectangle_8879" data-name="Rectangle 8879" class="cls-1" d="M2,0H218a2,2,0,0,1,2,2V123.435a0,0,0,0,1,0,0H0a0,0,0,0,1,0,0V2A2,2,0,0,1,2,0Z" transform="translate(13986 6182)"/>
    </clipPath>
    <linearGradient id="linear-gradient" x1="0.5" y1="1" x2="0.5" gradientUnits="objectBoundingBox">
      <stop offset="0" stop-color="gray" stop-opacity="0.251"/>
      <stop offset="0.54" stop-color="gray" stop-opacity="0.122"/>
      <stop offset="1" stop-color="gray" stop-opacity="0.102"/>
    </linearGradient>
    <linearGradient id="linear-gradient-2" y2="0" xlink:href="#linear-gradient"/>
    <linearGradient id="linear-gradient-3" y2="0" xlink:href="#linear-gradient"/>
  </defs>
  <g id="card-1" transform="translate(-132 -501)">
    <path id="Rectangle_8792" data-name="Rectangle 8792" class="cls-2" d="M2,0H260a2,2,0,0,1,2,2V147a0,0,0,0,1,0,0H0a0,0,0,0,1,0,0V2A2,2,0,0,1,2,0Z" transform="translate(132 501)"/>
    <g id="Mask_Group_267" data-name="Mask Group 267" class="cls-3" transform="translate(-13833 -5669)">
      <g id="undraw_segmentation_uioo" transform="translate(14008.942 6182)">
        <path id="Path_44884" data-name="Path 44884" class="cls-4" d="M30.711,117.557c-.71,1.44.313,2.994-.045,4.481-.444,1.876-2.991,3.337-5.735,4.269s-5.809,1.5-8.484,2.5c-1.157.433-2.363,1.232-1.761,1.967a2.69,2.69,0,0,0,.979.6,68.135,68.135,0,0,0,27.05,5.191c10.176-.064,20.142-2.189,30.31-1.945,13.115.313,25.8,4.544,38.766,3.324,5.505-.518,10.62-1.994,15.978-2.915,7.884-1.356,16.175-1.492,24.339-1.937,6.131-.335,13.134-1.2,16.066-4.464,2.117-2.358,1.229-5.473-1.754-7.469s-7.749-2.85-12.154-2.463c-2.367.208-4.72.747-7.086.533a20.3,20.3,0,0,1-3.9-.863c-9.694-2.846-19.747-5.685-30.514-6.1-17.52-.677-33.744,5.09-50.8,7.583a21.015,21.015,0,0,1-8.051.036c-2.646-.686-4.378-2.308-7.025-2.991-1.251-.325-2.658-.419-3.895-.772-3.4-.973-1.825-2.309-6.533-1.407C33.991,115.19,31.5,115.95,30.711,117.557Z" transform="translate(-9.083 -26.359)"/>
        <path id="Path_44885" data-name="Path 44885" class="cls-5" d="M141.43,53.524S153.076,35.217,154.483,27.4a100.649,100.649,0,0,1,4.065-15.011" transform="translate(-29.427 -10.356)"/>
        <path id="Path_44886" data-name="Path 44886" class="cls-6" d="M163.579,31.01l-7.349.625S160.139,38.358,163.579,31.01Z" transform="translate(-31.799 -13.341)"/>
        <path id="Path_44887" data-name="Path 44887" class="cls-6" d="M149.664,26.168l5.82,4.661S147.944,33.83,149.664,26.168Z" transform="translate(-30.706 -12.565)"/>
        <path id="Path_44888" data-name="Path 44888" class="cls-6" d="M164.836,23.375l-6.617.887S164.054,29,164.836,23.375Z" transform="translate(-32.118 -12.117)"/>
        <path id="Path_44889" data-name="Path 44889" class="cls-6" d="M153.043,20.582l4.369,3.066S152.105,25.9,153.043,20.582Z" transform="translate(-31.271 -11.669)"/>
        <path id="Path_44890" data-name="Path 44890" class="cls-6" d="M160.2,17.042s5.424-1.437,6.206-1.124.313,3.753-1.876,3.909S160.2,17.042,160.2,17.042Z" transform="translate(-32.435 -10.915)"/>
        <path id="Path_44891" data-name="Path 44891" class="cls-6" d="M155.606,12.389s3.44,3.284,3.6,4.065-2.814,2.658-4.378,0A2.829,2.829,0,0,1,155.606,12.389Z" transform="translate(-31.488 -10.356)"/>
        <circle id="Ellipse_1332" data-name="Ellipse 1332" class="cls-7" cx="1.564" cy="1.564" r="1.564" transform="translate(128.965 0.782)"/>
        <circle id="Ellipse_1333" data-name="Ellipse 1333" class="cls-7" cx="1.564" cy="1.564" r="1.564" transform="translate(126.151)"/>
        <path id="Path_44892" data-name="Path 44892" class="cls-5" d="M37.884,117s-4.975-13.059-1.065-23.258A21.173,21.173,0,0,0,37.5,80.363,35.609,35.609,0,0,0,35.14,74.3" transform="translate(-12.388 -20.28)"/>
        <path id="Path_44893" data-name="Path 44893" class="cls-6" d="M36.894,66.095c.127,1.639-2.469,6.619-2.469,6.619s-3.335-4.519-3.462-6.157a2.975,2.975,0,1,1,5.932-.461Z" transform="translate(-11.717 -18.525)"/>
        <path id="Path_44894" data-name="Path 44894" class="cls-6" d="M43.609,76.131c-.782,1.445-5.67,4.214-5.67,4.214s-.342-5.605.441-7.05a2.975,2.975,0,1,1,5.23,2.836Z" transform="translate(-12.825 -19.87)"/>
        <path id="Path_44895" data-name="Path 44895" class="cls-6" d="M44.546,94.4c-1.407.851-7.021.782-7.021.782s2.535-5.013,3.939-5.863a2.975,2.975,0,1,1,3.082,5.09Z" transform="translate(-12.77 -22.619)"/>
        <path id="Path_44896" data-name="Path 44896" class="cls-6" d="M42.333,108.643c-1.241,1.076-6.789,1.95-6.789,1.95s1.651-5.369,2.891-6.445a2.975,2.975,0,1,1,3.9,4.5Z" transform="translate(-12.453 -24.949)"/>
        <path id="Path_44897" data-name="Path 44897" class="cls-6" d="M30.361,81.937c1.263,1.051,6.828,1.808,6.828,1.808s-1.762-5.333-3.027-6.383a2.975,2.975,0,1,0-3.8,4.575Z" transform="translate(-11.449 -20.661)"/>
        <path id="Path_44898" data-name="Path 44898" class="cls-6" d="M27.786,98.474c1.52.625,7.057-.313,7.057-.313s-3.284-4.561-4.8-5.185a2.975,2.975,0,1,0-2.259,5.5Z" transform="translate(-10.913 -23.239)"/>
        <path id="Path_44899" data-name="Path 44899" class="cls-6" d="M27.728,115c1.393.871,7.01.879,7.01.879s-2.461-5.05-3.853-5.915a2.975,2.975,0,0,0-3.157,5.043Z" transform="translate(-10.976 -25.925)"/>
        <path id="Path_44900" data-name="Path 44900" class="cls-6" d="M36.894,66.095c.127,1.639-2.469,6.619-2.469,6.619s-3.335-4.519-3.462-6.157a2.975,2.975,0,1,1,5.932-.461Z" transform="translate(-11.717 -18.525)"/>
        <path id="Path_44901" data-name="Path 44901" class="cls-6" d="M43.609,76.131c-.782,1.445-5.67,4.214-5.67,4.214s-.342-5.605.441-7.05a2.975,2.975,0,1,1,5.23,2.836Z" transform="translate(-12.825 -19.87)"/>
        <path id="Path_44902" data-name="Path 44902" class="cls-6" d="M44.546,94.4c-1.407.851-7.021.782-7.021.782s2.535-5.013,3.939-5.863a2.975,2.975,0,1,1,3.082,5.09Z" transform="translate(-12.77 -22.619)"/>
        <path id="Path_44903" data-name="Path 44903" class="cls-6" d="M42.333,108.643c-1.241,1.076-6.789,1.95-6.789,1.95s1.651-5.369,2.891-6.445a2.975,2.975,0,1,1,3.9,4.5Z" transform="translate(-12.453 -24.949)"/>
        <path id="Path_44904" data-name="Path 44904" class="cls-6" d="M30.361,81.937c1.263,1.051,6.828,1.808,6.828,1.808s-1.762-5.333-3.027-6.383a2.975,2.975,0,1,0-3.8,4.575Z" transform="translate(-11.449 -20.661)"/>
        <path id="Path_44905" data-name="Path 44905" class="cls-6" d="M27.786,98.474c1.52.625,7.057-.313,7.057-.313s-3.284-4.561-4.8-5.185a2.975,2.975,0,1,0-2.259,5.5Z" transform="translate(-10.913 -23.239)"/>
        <path id="Path_44906" data-name="Path 44906" class="cls-6" d="M27.728,115c1.393.871,7.01.879,7.01.879s-2.461-5.05-3.853-5.915a2.975,2.975,0,0,0-3.157,5.043Z" transform="translate(-10.976 -25.925)"/>
        <path id="Path_44907" data-name="Path 44907" class="cls-8" d="M47.331,121.794s-3.775-.455-4.847-1.368-5.662-2.3-6.062-1.024-6.265,5.97-2,6.387,9.993.219,11.186-.372S47.331,121.794,47.331,121.794Z" transform="translate(-12.025 -27.428)"/>
        <path id="Path_44908" data-name="Path 44908" class="cls-9" d="M34.4,125.88c4.27.416,9.987.22,11.188-.371.915-.45,1.429-2.314,1.623-3.179l.127.016s-.513,3.03-1.72,3.623-6.917.782-11.188.371c-1.232-.12-1.62-.6-1.539-1.251C33.029,125.5,33.477,125.791,34.4,125.88Z" transform="translate(-12.025 -27.98)"/>
        <path id="Path_44909" data-name="Path 44909" class="cls-4" d="M171.753,82.272c-6.129,8.4-4.1,20.389-.563,29.941,1.185,3.2,2.531,6.58,1.917,10.059-.751,4.253-4.278,7.44-7.945,9.175a21.052,21.052,0,0,1-20.56-1.327c-5.16-3.44-8.792-9.156-14.052-12.432-8.8-5.48-20.231-3.032-30.029,1.152C93.59,121.8,86,125.611,79.243,122.878c-4.753-1.923-7.954-6.819-9.638-12.052-.813-2.527-1.382-5.269-3-7.247a11.082,11.082,0,0,0-3.545-2.68C51.113,94.644,35.75,98.553,24.17,91.575,16.352,86.862,11.486,77.717,9.464,68.1s-1.521-19.764-.716-29.74c.572-7.089,1.478-14.665,5.74-20.236C19,12.235,26.551,9.893,33.307,10.817S46.119,15.5,51.42,19.97c6.628,5.591,12.726,12.607,20.969,14.724,5.615,1.445,11.58.422,17.417-.03,9.757-.754,19.479.114,29.142,1.095,9.25.938,18.565,1.986,27.325,5.061,6.2,2.177,11.114,6.29,16.951,9.1,3.8,1.833,7.99,2.258,11.571,4.625,4.419,2.916,8.412,8.082,7.116,14.282C180.687,74.723,175,77.814,171.753,82.272Z" transform="translate(-8.044 -10.073)"/>
        <path id="Path_44910" data-name="Path 44910" class="cls-10" d="M148.166,25.138H46.078a3.992,3.992,0,0,0-3.995,3.987V88.62a3.992,3.992,0,0,0,3.995,3.987h41.11v14.662H83.32a.954.954,0,0,0-.954.952V110.2h30v-1.98a.954.954,0,0,0-.954-.952h-4.939V92.6h41.69a3.992,3.992,0,0,0,3.995-3.982V29.126A3.992,3.992,0,0,0,148.166,25.138Z" transform="translate(-13.501 -12.4)"/>
        <rect id="Rectangle_8880" data-name="Rectangle 8880" class="cls-11" width="18.962" height="18.297" transform="translate(73.939 77.426)"/>
        <rect id="Rectangle_8881" data-name="Rectangle 8881" class="cls-12" width="18.962" height="1.623" transform="translate(73.939 94.1)"/>
        <path id="Path_44911" data-name="Path 44911" class="cls-11" d="M83.347,112.285h27.621a.938.938,0,0,1,.938.938v1.951h-29.5v-1.951A.938.938,0,0,1,83.347,112.285Z" transform="translate(-13.211 -18)"/>
        <rect id="Rectangle_8882" data-name="Rectangle 8882" class="cls-11" width="108.224" height="66.468" rx="4.678" transform="translate(29.594 13.364)"/>
        <rect id="Rectangle_8883" data-name="Rectangle 8883" class="cls-13" width="103.44" height="54.301" transform="translate(31.872 21.127)"/>
        <ellipse id="Ellipse_1334" data-name="Ellipse 1334" class="cls-13" cx="0.912" cy="0.901" rx="0.912" ry="0.901" transform="translate(82.681 17.422)"/>
        <rect id="Rectangle_8884" data-name="Rectangle 8884" class="cls-12" width="18.902" height="0.356" transform="translate(73.98 79.878)"/>
        <path id="Path_44912" data-name="Path 44912" class="cls-14" d="M113.575,50.23a21.578,21.578,0,0,0,7.74,37.337l6.029-20.724Z" transform="translate(-23.709 -16.422)"/>
        <path id="Path_44913" data-name="Path 44913" class="cls-14" d="M129.394,44.318a21.488,21.488,0,0,0-13.769,4.964L129.394,65.9l11.4-18.321a21.474,21.474,0,0,0-11.4-3.257Z" transform="translate(-25.29 -15.474)"/>
        <path id="Path_44914" data-name="Path 44914" class="cls-15" d="M130.872,70.015l-6.029,20.722a21.59,21.59,0,0,0,27.607-20.342Z" transform="translate(-26.768 -19.594)"/>
        <rect id="Rectangle_8885" data-name="Rectangle 8885" class="cls-15" width="7.818" height="4.691" transform="translate(41.091 39.945)"/>
        <rect id="Rectangle_8886" data-name="Rectangle 8886" class="cls-16" width="7.818" height="4.691" transform="translate(41.091 48.076)"/>
        <rect id="Rectangle_8887" data-name="Rectangle 8887" class="cls-6" width="7.818" height="4.691" transform="translate(41.091 56.207)"/>
        <rect id="Rectangle_8888" data-name="Rectangle 8888" class="cls-14" width="14.698" height="1.876" transform="translate(53.131 41.352)"/>
        <rect id="Rectangle_8889" data-name="Rectangle 8889" class="cls-14" width="14.698" height="1.876" transform="translate(53.131 49.483)"/>
        <rect id="Rectangle_8890" data-name="Rectangle 8890" class="cls-14" width="14.698" height="1.876" transform="translate(53.131 57.614)"/>
        <rect id="Rectangle_8891" data-name="Rectangle 8891" class="cls-14" width="103.51" height="1.876" transform="translate(31.866 21.026)"/>
        <circle id="Ellipse_1335" data-name="Ellipse 1335" class="cls-16" cx="0.469" cy="0.469" r="0.469" transform="translate(32.648 21.495)"/>
        <circle id="Ellipse_1336" data-name="Ellipse 1336" class="cls-17" cx="0.469" cy="0.469" r="0.469" transform="translate(33.899 21.495)"/>
        <circle id="Ellipse_1337" data-name="Ellipse 1337" class="cls-18" cx="0.469" cy="0.469" r="0.469" transform="translate(35.15 21.495)"/>
        <path id="Path_44915" data-name="Path 44915" class="cls-6" d="M177.426,110.711s.746.976-.344,2.449-1.989,2.716-1.626,3.635c0,0,1.645-2.736,2.985-2.774S178.9,112.356,177.426,110.711Z" transform="translate(-34.868 -26.118)"/>
        <path id="Path_44916" data-name="Path 44916" class="cls-12" d="M177.435,110.711a1.208,1.208,0,0,1,.156.313c1.307,1.535,2,2.971.747,3-1.17.033-2.574,2.125-2.91,2.658a1.129,1.129,0,0,0,.039.12s1.645-2.736,2.985-2.774S178.909,112.356,177.435,110.711Z" transform="translate(-34.877 -26.118)"/>
        <path id="Path_44917" data-name="Path 44917" class="cls-7" d="M179.436,112.149c0,.344-.039.625-.086.625s-.086-.278-.086-.625.048-.181.1-.181S179.436,111.805,179.436,112.149Z" transform="translate(-35.492 -26.313)"/>
        <path id="Path_44918" data-name="Path 44918" class="cls-7" d="M179.925,112.634c-.3.164-.564.264-.586.222s.2-.21.505-.374.183-.045.2,0S180.227,112.47,179.925,112.634Z" transform="translate(-35.503 -26.388)"/>
        <path id="Path_44919" data-name="Path 44919" class="cls-6" d="M172.805,110.711s-.746.976.344,2.449,1.989,2.716,1.626,3.635c0,0-1.645-2.736-2.985-2.774S171.332,112.356,172.805,110.711Z" transform="translate(-34.188 -26.118)"/>
        <path id="Path_44920" data-name="Path 44920" class="cls-12" d="M172.8,110.711a1.209,1.209,0,0,0-.156.313c-1.307,1.535-2,2.971-.747,3,1.17.033,2.574,2.125,2.91,2.658a1.134,1.134,0,0,1-.039.12s-1.645-2.736-2.985-2.774S171.332,112.356,172.8,110.711Z" transform="translate(-34.187 -26.118)"/>
        <path id="Path_44921" data-name="Path 44921" class="cls-7" d="M171.473,112.149c0,.344.039.625.086.625s.086-.278.086-.625-.048-.181-.1-.181S171.473,111.805,171.473,112.149Z" transform="translate(-34.243 -26.313)"/>
        <path id="Path_44922" data-name="Path 44922" class="cls-7" d="M170.872,112.634c.3.164.564.264.586.222s-.2-.21-.505-.374-.183-.045-.2,0S170.57,112.47,170.872,112.634Z" transform="translate(-34.117 -26.388)"/>
        <path id="Path_44923" data-name="Path 44923" class="cls-8" d="M180.017,117.836a7.659,7.659,0,0,1-2.6-.957c-.547-.547-3.01-1.5-3.284-.821s-3.693,3.01-1.368,3.42,5.473.547,6.156.274S180.017,117.836,180.017,117.836Z" transform="translate(-34.321 -26.937)"/>
        <path id="Path_44924" data-name="Path 44924" class="cls-9" d="M172.766,119.605c2.325.41,5.473.547,6.156.274.521-.208.883-1.209,1.026-1.675l.069.014s-.41,1.642-1.095,1.915-3.831.136-6.156-.274c-.671-.119-.863-.4-.791-.749C172.033,119.339,172.268,119.518,172.766,119.605Z" transform="translate(-34.321 -27.319)"/>
        <path id="Path_44925" data-name="Path 44925" class="cls-19" d="M159.573,82.695a23.437,23.437,0,0,0-11.061-19.914L136.119,82.695l23.454.413Z" transform="translate(-28.575 -18.434)"/>
        <path id="Path_44926" data-name="Path 44926" class="cls-6" d="M158.814,82.071a21.562,21.562,0,0,0-10.176-18.321l-11.4,18.321,21.578.386Z" transform="translate(-28.755 -18.59)"/>
        <path id="Path_44927" data-name="Path 44927" class="cls-20" d="M193.25,55.6a.852.852,0,0,0-.017-.174q-.017-.083-.031-.191-.034-.188-.077-.363-.022-.088-.045-.172a4.653,4.653,0,0,0-.905-1.764l-.074-.084-.144-.156a1.841,1.841,0,0,0-.139-.134c-.045-.042-.091-.081-.133-.117-.086-.072-.166-.131-.238-.181s-.1-.069-.144-.094a.8.8,0,0,0-.338-.113l-.744-.075h0l-1.007-.1-3.637-1.435-.144.052a8.647,8.647,0,0,1-.269-.908.81.81,0,0,0,.288-.213.666.666,0,0,0,.2-.258c.091-.214-.084-.674-.048-.938a4.557,4.557,0,0,1,.447-1.209,5.7,5.7,0,0,0,.6-2.607,2.951,2.951,0,0,0-1.195-2.314c-.386-.26-.841-.4-1.242-.636-.313-.185-.588-.425-.887-.633a5.016,5.016,0,0,0-5-.364,23.486,23.486,0,0,0-2.112,1.4,3.507,3.507,0,0,1-2.386.669.549.549,0,0,0-.025.1l-.07-.009c-.144.4.208.791.533,1.063a3.617,3.617,0,0,0,2.117,1.049,2.184,2.184,0,0,1,.921.07.82.82,0,0,1,.172.109,4.114,4.114,0,0,0,1.245,4.058l-1.856-.679s-.078.041-.2.117l-2.578-1.743s-5.168-1.917-6.6,1.054,6.222,1.431,6.222,1.431l1.639.915a1.542,1.542,0,0,0,.18,1l4.467,2.807a23.9,23.9,0,0,1-2.649.735c-.383,0-1.435.383-2.106,1.914s-3.063,9-5.168,10.24-7.662,9.571-7.662,9.571l.025.066q-.149.039-.291.088a5.88,5.88,0,0,0-2.885,2.212.938.938,0,0,0,.647,1.479,4,4,0,0,0,3.964-1.52c.038-.05.072-.1.1-.147a.758.758,0,0,0,.541.025l2.683-2.2s-2.091,2.1-.868,4.007l-.094.133a30.7,30.7,0,0,0-4.494,9.932s-1.149.862-1.251,4.306a67.791,67.791,0,0,1-1.251,9s-.766,6.6-.288,8.614c0,0,.055.08.156.2-.036.044-.075.089-.119.138a2.285,2.285,0,0,1-2.048.9c-1.34-.288-1.34,2.106.574,2.3a50.539,50.539,0,0,1,5.224,1.066,1.107,1.107,0,0,0,1.365-1.193,10.292,10.292,0,0,0-.574-2.633c-.019-.045-.039-.091-.059-.134.056-.053.113-.108.169-.167,0,0,0-4.211.669-5.36,0,0,1.818-8.709,1.72-10.911-.075-1.72,4.717-8.429,6.8-11.258l-.017-.108c.552-.732.891-1.17.891-1.17l1.628,10.432a15.1,15.1,0,0,0,1.72,3.542s4.115,7.943,4.594,10.432a7.95,7.95,0,0,0,1.451,3.432c-.039.041-.081.081-.125.122a2.077,2.077,0,0,1-1.8.658c-1.34-.288-1.34,2.106.574,2.3a50.542,50.542,0,0,1,5.224,1.066,1.107,1.107,0,0,0,1.365-1.193,8.764,8.764,0,0,0-.735-2.971q-.053-.092-.109-.174a1.012,1.012,0,0,0,.38-.272s-2.488-6.029-2.488-7.662c0,0-1.052-6.222-4.594-8.518a87.4,87.4,0,0,1,1.343-12.11q.038-.156.077-.313A28.042,28.042,0,0,0,185,82.131l.1-2.871.478,2.3,5.36-3.349s-.047-.6-.138-1.529c-.045-.469-.1-1.005-.169-1.595-.053-.469-.114-.971-.181-1.482q-.025-.192-.052-.385c-.07-.516-.147-1.038-.23-1.548q-.047-.288-.1-.569c-.044-.25-.089-.5-.136-.733q-.036-.178-.072-.352t-.073-.341q-.038-.167-.077-.327l-.039-.156q-.039-.156-.08-.3a5.561,5.561,0,0,1-.194-1.251q-.009-.253,0-.505a4.564,4.564,0,0,1,.047-.5q.017-.125.041-.25a5.762,5.762,0,0,1,.272-.977q.089-.239.2-.469c.174-.361.36-.754.55-1.166l.291-.633q.147-.321.294-.657a28.685,28.685,0,0,0,2.1-6.006c.027-.156.044-.313.055-.46a3.119,3.119,0,0,0,.009-.411Z" transform="translate(-31.762 -14.768)"/>
        <path id="Path_44928" data-name="Path 44928" class="cls-21" d="M179.458,51.06,176.3,48.924s-5.013-1.856-6.411,1.021,6.034,1.393,6.034,1.393l3.157,1.764Z" transform="translate(-33.961 -16.118)"/>
        <path id="Path_44929" data-name="Path 44929" class="cls-22" d="M191.19,128.167a49.053,49.053,0,0,0-5.068-1.034c-1.856-.186-1.856-2.5-.557-2.228a2,2,0,0,0,1.751-.638,4.1,4.1,0,0,0,.369-.394,1.073,1.073,0,0,1,.6-.367,4.991,4.991,0,0,1,3.036.1,1.31,1.31,0,0,1,.48.527,8.451,8.451,0,0,1,.713,2.877,1.074,1.074,0,0,1-1.326,1.159Z" transform="translate(-36.355 -28.138)"/>
        <path id="Path_44930" data-name="Path 44930" class="cls-22" d="M163.222,129.273a49.059,49.059,0,0,0-5.068-1.034c-1.856-.186-1.856-2.5-.557-2.228a2.223,2.223,0,0,0,1.987-.876c.048-.055.094-.106.133-.156a1.073,1.073,0,0,1,.6-.367,4.991,4.991,0,0,1,3.037.1,1.659,1.659,0,0,1,.636.849,9.819,9.819,0,0,1,.557,2.555,1.074,1.074,0,0,1-1.326,1.159Z" transform="translate(-31.872 -28.315)"/>
        <path id="Path_44931" data-name="Path 44931" class="cls-12" d="M164.542,125.559c-2.217,2.284-4.117-.042-4.4-.427.048-.055.094-.106.133-.156a1.073,1.073,0,0,1,.6-.367,4.991,4.991,0,0,1,3.036.1A1.68,1.68,0,0,1,164.542,125.559Z" transform="translate(-32.426 -28.315)"/>
        <path id="Path_44932" data-name="Path 44932" class="cls-12" d="M192.311,124.131c-.96.657-4.194.494-4.194.494a3.181,3.181,0,0,1-.291-.36,4.1,4.1,0,0,0,.369-.394,1.073,1.073,0,0,1,.6-.367,4.991,4.991,0,0,1,3.036.1A1.31,1.31,0,0,1,192.311,124.131Z" transform="translate(-36.864 -28.138)"/>
        <path id="Path_44933" data-name="Path 44933" class="cls-23" d="M188,117.817c-.65.835-4.362.65-4.362.65a7.111,7.111,0,0,1-1.578-3.527c-.464-2.414-4.448-10.12-4.448-10.12a14.553,14.553,0,0,1-1.671-3.44l-1.578-10.118s-7.619,10.029-7.527,12.166-1.671,10.582-1.671,10.582c-.65,1.113-.65,5.2-.65,5.2-2.414,2.5-4.456-.469-4.456-.469-.469-1.95.278-8.354.278-8.354a65.254,65.254,0,0,0,1.207-8.726c.094-3.343,1.215-4.173,1.215-4.173a29.775,29.775,0,0,1,4.359-9.629,15.4,15.4,0,0,1,.938-1.232l15.029,1.764a9.5,9.5,0,0,0-.647,1.992,84.927,84.927,0,0,0-1.3,11.747c3.44,2.228,4.456,8.262,4.456,8.262C185.59,111.969,188,117.817,188,117.817Z" transform="translate(-32.389 -22.257)"/>
        <g id="Group_37063" data-name="Group 37063" class="cls-24" transform="translate(129.655 64.369)">
          <path id="Path_44934" data-name="Path 44934" d="M173.938,93.39l-.192-1.237s-7.605,10.024-7.519,12.162-1.671,10.582-1.671,10.582c-.65,1.113-.65,5.2-.65,5.2a3.185,3.185,0,0,1-1.453.938,2.541,2.541,0,0,0,2.567-.938s0-4.084.65-5.2c0,0,1.764-8.443,1.671-10.582C167.267,102.647,171.916,96.137,173.938,93.39Z" transform="translate(-162.451 -87.511)"/>
          <path id="Path_44935" data-name="Path 44935" d="M187.236,110.39s-1.021-6.034-4.456-8.262a84.95,84.95,0,0,1,1.3-11.747,9.5,9.5,0,0,1,.647-1.992l-15.039-1.764-.1.119,14.024,1.645a9.5,9.5,0,0,0-.647,1.992,84.927,84.927,0,0,0-1.3,11.747c3.44,2.228,4.456,8.262,4.456,8.262,0,1.578,2.414,7.427,2.414,7.427-.383.493-1.831.625-2.954.66.891.023,3.531.031,4.065-.66C189.644,117.817,187.236,111.969,187.236,110.39Z" transform="translate(-163.596 -86.625)"/>
        </g>
        <path id="Path_44936" data-name="Path 44936" class="cls-21" d="M165.316,84.776a3.361,3.361,0,0,1-.439.769,3.883,3.883,0,0,1-3.845,1.474.913.913,0,0,1-.625-1.435,5.719,5.719,0,0,1,2.8-2.145,5.043,5.043,0,0,1,1.185-.241Z" transform="translate(-32.442 -21.707)"/>
        <path id="Path_44937" data-name="Path 44937" class="cls-25" d="M187.924,53.641l-7.444-2.722s-2.136,1.113-1.3,2.693l7.241,4.549Z" transform="translate(-35.447 -16.533)"/>
        <path id="Path_44938" data-name="Path 44938" class="cls-12" d="M187.924,53.641l-7.444-2.722s-2.136,1.113-1.3,2.693l7.241,4.549Z" transform="translate(-35.447 -16.533)"/>
        <path id="Path_44939" data-name="Path 44939" class="cls-21" d="M189.172,48.782s-.092,4.362,1.856,5.848-5.663,2.32-5.663,2.32,1.207-4.456,0-6.777S189.172,48.782,189.172,48.782Z" transform="translate(-36.44 -16.16)"/>
        <path id="Path_44940" data-name="Path 44940" class="cls-12" d="M184.465,88.391a9.5,9.5,0,0,0-.647,1.992,24.544,24.544,0,0,1-15.226-2.364c-.034-.053-.067-.108-.1-.156a15.4,15.4,0,0,1,.938-1.232Z" transform="translate(-33.765 -22.257)"/>
        <path id="Path_44941" data-name="Path 44941" class="cls-12" d="M165.882,84.776a3.361,3.361,0,0,1-.439.769c-.86-.142-1.546-1.786-1.673-2.106a5.043,5.043,0,0,1,1.185-.241Z" transform="translate(-33.008 -21.707)"/>
        <path id="Path_44942" data-name="Path 44942" class="cls-25" d="M186.537,53.461,183.2,54.668,181.8,56.524s-2.877.929-3.249.929-1.393.371-2.042,1.856-2.971,8.726-5.013,9.934-7.427,9.283-7.427,9.283.929,2.5,2.042,2.136l2.6-2.136s-2.042,2.042-.835,3.9a24.985,24.985,0,0,0,18.1,1.764l.092-2.785.469,2.228,5.188-3.251a66.518,66.518,0,0,0-1.3-9.042,5.51,5.51,0,0,1,.358-3.842c1.348-2.814,3.427-7.505,3.174-9.211a4.279,4.279,0,0,0-1.876-3.157.782.782,0,0,0-.327-.108l-1.69-.169Z" transform="translate(-33.056 -16.94)"/>
        <path id="Path_44943" data-name="Path 44943" class="cls-26" d="M181.812,64.57s-1.858,8.637-3.9,10.026-7.519,5.848-7.705,6.591" transform="translate(-34.04 -18.721)"/>
        <path id="Path_44944" data-name="Path 44944" class="cls-25" d="M180.816,64.242s-1.856,8.631-3.9,10.023-7.519,5.848-7.705,6.591" transform="translate(-33.88 -18.668)"/>
        <path id="Path_44945" data-name="Path 44945" class="cls-12" d="M185.132,56.734s6.411-2.136,8.262-1.578" transform="translate(-36.432 -17.197)"/>
        <g id="Group_37064" data-name="Group 37064" class="cls-24" transform="translate(153.168 36.521)">
          <path id="Path_44946" data-name="Path 44946" d="M195.059,67.783c1.348-2.814,3.427-7.505,3.174-9.211a4.279,4.279,0,0,0-1.876-3.157.782.782,0,0,0-.327-.108l-.722-.072a.763.763,0,0,1,.214.088A4.3,4.3,0,0,1,197.4,58.48c.253,1.711-1.826,6.4-3.174,9.211a5.51,5.51,0,0,0-.358,3.842,65.964,65.964,0,0,1,1.3,9.042l-4.477,2.8.114.544L196,80.666a66.518,66.518,0,0,0-1.3-9.042,5.51,5.51,0,0,1,.366-3.84Z" transform="translate(-190.492 -53.745)"/>
          <path id="Path_44947" data-name="Path 44947" d="M185.415,44.792l.8.081-3.5-1.381-.313.113Z" transform="translate(-182.409 -43.493)"/>
        </g>
        <path id="Path_44948" data-name="Path 44948" class="cls-26" d="M183.031,74.715s2.877-1.578,3.806-1.207,4.362-.092,4.362-.092" transform="translate(-36.096 -20.139)"/>
        <path id="Path_44949" data-name="Path 44949" class="cls-26" d="M188.86,50.014c-.106-.938.325-.782.325-.782s-5.016-.935-3.812,1.385a5.347,5.347,0,0,1,.516,2.042h.047C187.328,52.659,188.141,51.1,188.86,50.014Z" transform="translate(-36.441 -16.232)"/>
        <circle id="Ellipse_1338" data-name="Ellipse 1338" class="cls-21" cx="3.992" cy="3.992" r="3.992" transform="translate(145.497 28.073)"/>
        <path id="Path_44950" data-name="Path 44950" class="cls-12" d="M188.989,48.253a5.522,5.522,0,0,0,.583-2.528,2.867,2.867,0,0,0-1.159-2.245c-.375-.252-.816-.388-1.2-.618-.3-.18-.571-.413-.86-.614a4.866,4.866,0,0,0-4.86-.353,23.79,23.79,0,0,0-2.048,1.356,3.407,3.407,0,0,1-2.316.649c-.139.386.2.768.518,1.032a3.5,3.5,0,0,0,2.053,1.018,2.1,2.1,0,0,1,.893.069,1.282,1.282,0,0,1,.457.424,8.3,8.3,0,0,1,.946,1.606,1.355,1.355,0,0,0,.424.625c.358.23.824.039,1.251.022a2.61,2.61,0,0,1,1.745.835,5.406,5.406,0,0,0,1.573,1.188c.469.175,1.384.169,1.618-.382.089-.208-.081-.654-.047-.907A4.075,4.075,0,0,1,188.989,48.253Z" transform="translate(-35.144 -15.007)"/>
        <path id="Path_44951" data-name="Path 44951" class="cls-27" d="M189.1,48.143a5.522,5.522,0,0,0,.583-2.528,2.867,2.867,0,0,0-1.159-2.245c-.375-.252-.816-.388-1.2-.618-.3-.18-.571-.413-.86-.614a4.866,4.866,0,0,0-4.86-.353,23.789,23.789,0,0,0-2.048,1.356,3.407,3.407,0,0,1-2.316.649c-.139.386.2.768.518,1.032a3.5,3.5,0,0,0,2.053,1.018,2.1,2.1,0,0,1,.893.069,1.282,1.282,0,0,1,.457.424,8.3,8.3,0,0,1,.952,1.6,1.355,1.355,0,0,0,.424.625c.358.23.824.039,1.251.022a2.61,2.61,0,0,1,1.745.835,5.406,5.406,0,0,0,1.573,1.188c.469.175,1.384.169,1.618-.382.089-.208-.081-.654-.047-.907A4.1,4.1,0,0,1,189.1,48.143Z" transform="translate(-35.161 -14.99)"/>
      </g>
    </g>
  </g>
</svg>
