<svg xmlns="http://www.w3.org/2000/svg" xmlns:xlink="http://www.w3.org/1999/xlink" viewBox="0 0 262 147">
  <defs>
    <style>
      .cls-1 {
        fill: #e3f2fd;
      }

      .cls-2, .cls-4 {
        fill: #248dc1;
      }

      .cls-12, .cls-18, .cls-2 {
        opacity: 0.1;
      }

      .cls-15, .cls-3 {
        fill: none;
        stroke-miterlimit: 10;
      }

      .cls-3 {
        stroke: #535461;
        stroke-width: 0.282px;
      }

      .cls-5 {
        opacity: 0.25;
      }

      .cls-6 {
        fill: url(#linear-gradient);
      }

      .cls-7 {
        fill: #f6f7f9;
      }

      .cls-8 {
        opacity: 0.2;
      }

      .cls-9 {
        fill: url(#linear-gradient-2);
      }

      .cls-10 {
        fill: #4c4c78;
      }

      .cls-11 {
        fill: #ffb9b9;
      }

      .cls-13 {
        fill: #cbcdda;
      }

      .cls-14 {
        opacity: 0.05;
      }

      .cls-15 {
        stroke: blue;
        stroke-width: 0.141px;
      }

      .cls-16 {
        fill: #474463;
      }

      .cls-17 {
        fill: #472727;
      }
    </style>
    <linearGradient id="linear-gradient" x1="0.5" y1="1" x2="0.5" gradientUnits="objectBoundingBox">
      <stop offset="0" stop-color="gray" stop-opacity="0.251"/>
      <stop offset="0.54" stop-color="gray" stop-opacity="0.122"/>
      <stop offset="1" stop-color="gray" stop-opacity="0.102"/>
    </linearGradient>
    <linearGradient id="linear-gradient-2" x1="3.193" x2="3.193" y2="0" xlink:href="#linear-gradient"/>
  </defs>
  <g id="card-13" transform="translate(-132 -1419)">
    <path id="Rectangle_6981" data-name="Rectangle 6981" class="cls-1" d="M2,0H260a2,2,0,0,1,2,2V147a0,0,0,0,1,0,0H0a0,0,0,0,1,0,0V2A2,2,0,0,1,2,0Z" transform="translate(132 1419)"/>
    <g id="undraw_onboarding_o8mv" transform="translate(182.444 1431)">
      <ellipse id="Ellipse_1425" data-name="Ellipse 1425" class="cls-2" cx="16.321" cy="4.08" rx="16.321" ry="4.08" transform="translate(103.433 112.788)"/>
      <path id="Path_45373" data-name="Path 45373" class="cls-2" d="M8.978,86.929c-1.846.633-4.087,1.924-3.71,3.976A4.478,4.478,0,0,0,7.1,93.367a51.909,51.909,0,0,0,11.185,6.927c1.913.868,3.946,1.665,5.391,3.266a12.942,12.942,0,0,1,2.583,6,48.746,48.746,0,0,1,.806,15.561c5.766.11,12.151-.02,16.231-4.173,2.443-2.488,3.752-6.178,6.624-8.1,1.915-1.284,4.276-1.6,6.557-1.87q16.19-1.893,32.548-2.292c4.569-.111,9.239-.151,13.505-1.743s8.139-5.074,9.006-9.794a3.812,3.812,0,0,1,.719-2.037,2.828,2.828,0,0,1,1.731-.644l37.475-5.074a13.7,13.7,0,0,0,5.9-1.742,14.528,14.528,0,0,0,3.877-4.685c2.471-4.02,5.034-8.879,3.323-13.475-1.369-3.673-5.047-5.789-8.562-7.1s-7.3-2.237-10.156-4.812c-4.347-3.918-5.311-10.423-6.535-16.259a95.2,95.2,0,0,0-4.651-15.488c-1.753-4.417-3.889-8.771-7.071-12.208s-7.562-5.874-12.018-5.7c-5.821.231-10.941,4.768-16.772,4.2-4.925-.472-8.932-4.419-13.366-6.874C77.563.885,68.272,1.268,59.659,2.629c-9.133,1.439-18.323,3.958-25.722,9.622a14.481,14.481,0,0,0-4.3,4.744c-1.522,2.992-1.391,6.638-2.154,9.963C24.408,40.348,7.935,45.933,4.548,59.225a20.582,20.582,0,0,0,1.9,14.2c2.375,4.695,7.146,6.7,9.591,10.726C14.4,85.641,11.143,86.186,8.978,86.929Z" transform="translate(-4.01 -1.707)"/>
      <path id="Path_45374" data-name="Path 45374" class="cls-3" d="M126.651,119.66s-1.477-10.176,2.96-16.874a15.574,15.574,0,0,0,2.633-9.5,26.134,26.134,0,0,0-.719-4.737" transform="translate(-4.01 -1.707)"/>
      <path id="Path_45375" data-name="Path 45375" class="cls-4" d="M134.307,84.312c-.171,1.2-2.834,4.357-2.834,4.357s-1.665-3.781-1.5-4.978a2.189,2.189,0,1,1,4.333.622Z" transform="translate(-4.01 -1.707)"/>
      <path id="Path_45376" data-name="Path 45376" class="cls-4" d="M136.94,91.453c-.795.91-4.748,2.114-4.748,2.114s.654-4.087,1.447-4.992a2.189,2.189,0,1,1,3.3,2.877Z" transform="translate(-4.01 -1.707)"/>
      <path id="Path_45377" data-name="Path 45377" class="cls-4" d="M135.164,102.757c-1.146.386-5.167-.564-5.167-.564s2.624-3.194,3.77-3.579a2.189,2.189,0,0,1,1.4,4.142Z" transform="translate(-4.01 -1.707)"/>
      <path id="Path_45378" data-name="Path 45378" class="cls-4" d="M131.888,111.008c-1.064.574-5.188.31-5.188.31s2.046-3.59,3.111-4.163a2.189,2.189,0,0,1,2.077,3.853Z" transform="translate(-4.01 -1.707)"/>
      <path id="Path_45379" data-name="Path 45379" class="cls-4" d="M127.609,93.149c.739.957,4.614,2.4,4.614,2.4s-.412-4.113-1.15-5.074a2.189,2.189,0,1,0-3.464,2.678Z" transform="translate(-4.01 -1.707)"/>
      <path id="Path_45380" data-name="Path 45380" class="cls-4" d="M123.905,102.846c.987.692,5.118.9,5.118.9s-1.621-3.805-2.613-4.493a2.189,2.189,0,1,0-2.5,3.59Z" transform="translate(-4.01 -1.707)"/>
      <path id="Path_45381" data-name="Path 45381" class="cls-4" d="M121.6,112.765c.86.846,4.892,1.755,4.892,1.755s-.956-4.021-1.817-4.867a2.189,2.189,0,1,0-3.076,3.115Z" transform="translate(-4.01 -1.707)"/>
      <path id="Path_45382" data-name="Path 45382" class="cls-5" d="M134.307,84.312c-.171,1.2-2.834,4.357-2.834,4.357s-1.665-3.781-1.5-4.978a2.189,2.189,0,1,1,4.333.622Z" transform="translate(-4.01 -1.707)"/>
      <path id="Path_45383" data-name="Path 45383" class="cls-5" d="M136.94,91.453c-.795.91-4.748,2.114-4.748,2.114s.654-4.087,1.447-4.992a2.189,2.189,0,1,1,3.3,2.877Z" transform="translate(-4.01 -1.707)"/>
      <path id="Path_45384" data-name="Path 45384" class="cls-5" d="M135.164,102.757c-1.146.386-5.167-.564-5.167-.564s2.624-3.194,3.77-3.579a2.189,2.189,0,0,1,1.4,4.142Z" transform="translate(-4.01 -1.707)"/>
      <path id="Path_45385" data-name="Path 45385" class="cls-5" d="M131.888,111.008c-1.064.574-5.188.31-5.188.31s2.046-3.59,3.111-4.163a2.189,2.189,0,0,1,2.077,3.853Z" transform="translate(-4.01 -1.707)"/>
      <path id="Path_45386" data-name="Path 45386" class="cls-5" d="M127.609,93.149c.739.957,4.614,2.4,4.614,2.4s-.412-4.113-1.15-5.074a2.189,2.189,0,1,0-3.464,2.678Z" transform="translate(-4.01 -1.707)"/>
      <path id="Path_45387" data-name="Path 45387" class="cls-5" d="M123.905,102.846c.987.692,5.118.9,5.118.9s-1.621-3.805-2.613-4.493a2.189,2.189,0,1,0-2.5,3.59Z" transform="translate(-4.01 -1.707)"/>
      <path id="Path_45388" data-name="Path 45388" class="cls-5" d="M121.6,112.765c.86.846,4.892,1.755,4.892,1.755s-.956-4.021-1.817-4.867a2.189,2.189,0,1,0-3.076,3.115Z" transform="translate(-4.01 -1.707)"/>
      <path id="Path_45389" data-name="Path 45389" class="cls-3" d="M126.772,119.337s-5.474-8.7-4.125-16.631a15.574,15.574,0,0,0-1.436-9.746,26.143,26.143,0,0,0-2.578-4.039" transform="translate(-4.01 -1.707)"/>
      <path id="Path_45390" data-name="Path 45390" class="cls-4" d="M119.45,83.921c.327,1.164-.827,5.132-.827,5.132s-3.058-2.779-3.383-3.946a2.189,2.189,0,0,1,4.214-1.19Z" transform="translate(-4.01 -1.707)"/>
      <path id="Path_45391" data-name="Path 45391" class="cls-4" d="M124.749,89.384c-.357,1.154-3.483,3.858-3.483,3.858s-1.057-3.994-.7-5.15a2.189,2.189,0,1,1,4.183,1.292Z" transform="translate(-4.01 -1.707)"/>
      <path id="Path_45392" data-name="Path 45392" class="cls-4" d="M127.7,100.44c-.891.816-4.954,1.572-4.954,1.572s1.1-3.982,2-4.792a2.19,2.19,0,1,1,2.96,3.228Z" transform="translate(-4.01 -1.707)"/>
      <path id="Path_45393" data-name="Path 45393" class="cls-4" d="M128.056,109.308c-.74.956-4.617,2.386-4.617,2.386s.423-4.111,1.156-5.074a2.189,2.189,0,1,1,3.462,2.678Z" transform="translate(-4.01 -1.707)"/>
      <path id="Path_45394" data-name="Path 45394" class="cls-4" d="M116.907,94.713c1.063.576,5.187.319,5.187.319s-2.041-3.593-3.1-4.168a2.189,2.189,0,1,0-2.086,3.849Z" transform="translate(-4.01 -1.707)"/>
      <path id="Path_45395" data-name="Path 45395" class="cls-4" d="M117.45,105.081c1.187.231,5.046-1.247,5.046-1.247s-3.023-2.819-4.21-3.049a2.189,2.189,0,1,0-.836,4.3Z" transform="translate(-4.01 -1.707)"/>
      <path id="Path_45396" data-name="Path 45396" class="cls-4" d="M119.36,115.085c1.128.423,5.184-.379,5.184-.379s-2.5-3.287-3.633-3.715a2.189,2.189,0,0,0-1.55,4.087Z" transform="translate(-4.01 -1.707)"/>
      <path id="Path_45397" data-name="Path 45397" class="cls-6" d="M40.257,8.151V107.58h71.514V8.151Z"/>
      <rect id="Rectangle_9104" data-name="Rectangle 9104" class="cls-7" width="70.26" height="3.79" transform="translate(40.885 9.023)"/>
      <g id="Group_37104" data-name="Group 37104" class="cls-8">
        <rect id="Rectangle_9105" data-name="Rectangle 9105" class="cls-4" width="70.26" height="3.79" transform="translate(40.885 9.023)"/>
      </g>
      <rect id="Rectangle_9106" data-name="Rectangle 9106" class="cls-7" width="70.26" height="93.894" transform="translate(40.885 12.813)"/>
      <circle id="Ellipse_1426" data-name="Ellipse 1426" class="cls-7" cx="0.643" cy="0.643" r="0.643" transform="translate(42.09 10.276)"/>
      <circle id="Ellipse_1427" data-name="Ellipse 1427" class="cls-7" cx="0.643" cy="0.643" r="0.643" transform="translate(43.832 10.276)"/>
      <circle id="Ellipse_1428" data-name="Ellipse 1428" class="cls-7" cx="0.643" cy="0.643" r="0.643" transform="translate(45.574 10.276)"/>
      <g id="Group_37105" data-name="Group 37105" class="cls-8">
        <rect id="Rectangle_9107" data-name="Rectangle 9107" class="cls-4" width="45.179" height="1.769" transform="translate(53.424 18.602)"/>
      </g>
      <rect id="Rectangle_9108" data-name="Rectangle 9108" class="cls-4" width="6.003" height="1.769" transform="translate(92.601 18.602)"/>
      <g id="Group_37106" data-name="Group 37106" class="cls-8">
        <rect id="Rectangle_9109" data-name="Rectangle 9109" class="cls-4" width="56.862" height="20.365" transform="translate(47.584 28.678)"/>
      </g>
      <rect id="Rectangle_9110" data-name="Rectangle 9110" class="cls-7" width="32.799" height="1.769" transform="translate(63.541 36.1)"/>
      <rect id="Rectangle_9111" data-name="Rectangle 9111" class="cls-7" width="17.016" height="1.769" transform="translate(63.541 39.851)"/>
      <rect id="Rectangle_9112" data-name="Rectangle 9112" class="cls-4" width="6.003" height="1.769" transform="translate(92.601 45.21)"/>
      <circle id="Ellipse_1429" data-name="Ellipse 1429" class="cls-7" cx="3.215" cy="3.215" r="3.215" transform="translate(51.228 35.644)"/>
      <g id="Group_37107" data-name="Group 37107" class="cls-8">
        <rect id="Rectangle_9113" data-name="Rectangle 9113" class="cls-4" width="56.862" height="20.365" transform="translate(47.584 54.75)"/>
      </g>
      <rect id="Rectangle_9114" data-name="Rectangle 9114" class="cls-7" width="32.799" height="1.769" transform="translate(63.541 62.172)"/>
      <rect id="Rectangle_9115" data-name="Rectangle 9115" class="cls-7" width="17.016" height="1.769" transform="translate(63.541 65.924)"/>
      <rect id="Rectangle_9116" data-name="Rectangle 9116" class="cls-4" width="6.003" height="1.769" transform="translate(92.601 71.283)"/>
      <circle id="Ellipse_1430" data-name="Ellipse 1430" class="cls-7" cx="3.215" cy="3.215" r="3.215" transform="translate(51.228 61.717)"/>
      <g id="Group_37108" data-name="Group 37108" class="cls-8">
        <rect id="Rectangle_9117" data-name="Rectangle 9117" class="cls-4" width="56.862" height="20.365" transform="translate(47.584 80.823)"/>
      </g>
      <rect id="Rectangle_9118" data-name="Rectangle 9118" class="cls-7" width="32.799" height="1.769" transform="translate(63.541 88.245)"/>
      <rect id="Rectangle_9119" data-name="Rectangle 9119" class="cls-7" width="17.016" height="1.769" transform="translate(63.541 91.997)"/>
      <rect id="Rectangle_9120" data-name="Rectangle 9120" class="cls-4" width="6.003" height="1.769" transform="translate(92.601 97.356)"/>
      <circle id="Ellipse_1431" data-name="Ellipse 1431" class="cls-7" cx="3.215" cy="3.215" r="3.215" transform="translate(51.228 87.79)"/>
      <path id="Path_45398" data-name="Path 45398" class="cls-9" d="M27.061,65.751c-.545,2.482-1.529,5.54-1.529,5.54.973,1.135,5.215,1.338,5.215,1.338l.007-.008h.066c.03.156.063.307.1.451q-.011.213-.021.431a1.177,1.177,0,0,0-.061.53,1.2,1.2,0,0,0,.031.118c-.1,2.247-.173,4.643-.111,6.027a5.8,5.8,0,0,0,.12,1.167,4.2,4.2,0,0,1,.124.895,40.372,40.372,0,0,1-.423,5.428s.013.047.02.07c-.008.058-.014.092-.014.092a1.605,1.605,0,0,1,.072.423,29.217,29.217,0,0,1-.943,5.425,67.083,67.083,0,0,0-.679,7.893,5.02,5.02,0,0,0,.038.52c.242,1.811.564,6.868.564,6.868a2.27,2.27,0,0,0,.185.238c-.028.113-.062.227-.1.34a9.528,9.528,0,0,0-.472,3.54c.01.141.021.295.035.45.162,1.866,4.676.7,4.974.488a4.046,4.046,0,0,0-.11-1.61l4.651,1.149s3.3.488,4.867,0,1.514-1.832-.73-2.054c-1.572-.152-2.819-1.615-3.435-2.479a47.233,47.233,0,0,0,2.352-8.634A43.221,43.221,0,0,1,42.9,94.534l.351-4.543.623-2.678.743-3.54a35.689,35.689,0,0,0,1.1-6.936l.648-4.258a8.243,8.243,0,0,0,.151-1.4,15.74,15.74,0,0,1,1.8.481c1.015-.789-.423-8.395-.423-8.395s-.692-4.8-1.278-9.182a8.974,8.974,0,0,1,2.8.114l8.517.187a4.328,4.328,0,0,0,.457-.744h.365a.782.782,0,0,0,.106-.206l.151.028a12.6,12.6,0,0,1,1.629.495,1.983,1.983,0,0,0,2.28-2.493c-.3-2.1-2.692-1.338-3.887-.816l-.151.069c-.011-.079-.018-.124-.018-.124l-.385.07a1.861,1.861,0,0,0-.08-.172s-4.178-.162-7.564-.669a10.158,10.158,0,0,1-5.084-2.5c-.593-3.012-2.317-3.927-2.317-3.927a5.158,5.158,0,0,1-2.35-.795,4.966,4.966,0,0,1-.55-.381l-.093.054-.011-.01c.574-.533,1.168-1.022,1.691-1.432l.235-.182a5.225,5.225,0,0,0,4.268-7.316c-.023-.051-.049-.1-.073-.151a1.173,1.173,0,0,0,1.035-1.019c.052-.591-.355-1.219-.089-1.749a1.7,1.7,0,0,0,.127-.247.667.667,0,0,0,.02-.248,1.746,1.746,0,0,0-.7-1.268c-.6-.438-1.142-.216-1.8-.254a21.764,21.764,0,0,1-2.273-.352,7.861,7.861,0,0,0-2.612-.086,3.365,3.365,0,0,0-2.207,1.292c-.214.307-.359.658-.564.975-.23.366-.527.684-.791,1.025a3.108,3.108,0,0,0-.768,1.986c.02.41.165.8.193,1.215a7.4,7.4,0,0,1-.085,1.142,5,5,0,0,0,.083,1.456.9.9,0,0,0,.166.414.884.884,0,0,0,.366.235,3.275,3.275,0,0,0,.45.141,6.439,6.439,0,0,1-.63,1.135l-.228-.237-.617.964-.024-.065c-.03.061-.063.118-.1.176l-.063-.176a3.706,3.706,0,0,1-1.383,1.384,12.974,12.974,0,0,1-3.869,1.435c-3.631.527-2.96,4.278-2.96,4.278s-1.54,6.692-1.973,10.829a11.553,11.553,0,0,0,1.175,6.772ZM44.376,53.52c.141.461.265.9.371,1.28l-.068.027c-.078-.354-.183-.808-.3-1.307ZM40.381,42.291l-.02.013.018-.018Zm-6.262,69.926c-.178-1.061-.443-2.342-.606-3.108.116-.376.269-.951.45-1.807.406-1.918.648-8.706.648-8.706l.947-5.7A18.809,18.809,0,0,0,36.613,88.1c.348-.919,1.153-6.544,1.281-7.447-.037.624-.124,2.206-.171,3.962v.048c-.035,1.326-.045,2.748,0,3.928h0c.013.331.03.646.052.936.007.075.011.152.014.228a22.775,22.775,0,0,1-1.268,6.906,22.687,22.687,0,0,0-.52,4.447,2.934,2.934,0,0,0,.121.846,1.5,1.5,0,0,1,.069.392,26.478,26.478,0,0,1-1.1,5.511A20.385,20.385,0,0,0,34.119,112.217Z" transform="translate(-4.01 -1.707)"/>
      <path id="Path_45399" data-name="Path 45399" class="cls-10" d="M39.144,108.055s1.581,2.867,3.805,3.081,2.278,1.55.723,2.037-4.823,0-4.823,0l-4.662-1.151s.564-4.609,1.312-4.85S39.144,108.055,39.144,108.055Z" transform="translate(-4.01 -1.707)"/>
      <path id="Path_45400" data-name="Path 45400" class="cls-10" d="M33.463,108.1s1.18,5.305.885,5.521-4.769,1.366-4.933-.483c-.014-.154-.025-.3-.034-.445a9.392,9.392,0,0,1,.468-3.509,2.908,2.908,0,0,0,.182-1.082C29.953,107.359,33.463,108.1,33.463,108.1Z" transform="translate(-4.01 -1.707)"/>
      <path id="Path_45401" data-name="Path 45401" class="cls-11" d="M34.924,40.94s3.617,8.879,2.974,6.032c-.423-1.891,2.327-4.4,4.228-5.877.968-.753,1.718-1.236,1.718-1.236s-6.793-7.918-6.311-4.5a5.144,5.144,0,0,1-.371,2.757,7.228,7.228,0,0,1-2.238,2.826Z" transform="translate(-4.01 -1.707)"/>
      <path id="Path_45402" data-name="Path 45402" class="cls-11" d="M58.036,53.558a2.079,2.079,0,0,1,.827.052,12.208,12.208,0,0,1,1.614.49,1.961,1.961,0,0,0,2.255-2.471c-.3-2.083-2.667-1.328-3.852-.809-.4.176-.671.326-.671.326Z" transform="translate(-4.01 -1.707)"/>
      <path id="Path_45403" data-name="Path 45403" class="cls-12" d="M58.036,53.558a2.079,2.079,0,0,1,.827.052,7.778,7.778,0,0,0,.023-2.789c-.4.176-.671.326-.671.326Z" transform="translate(-4.01 -1.707)"/>
      <path id="Path_45404" data-name="Path 45404" class="cls-13" d="M58.022,50.9l.7-.128s.358,2.4-.109,3.022h-.8Z" transform="translate(-4.01 -1.707)"/>
      <path id="Path_45405" data-name="Path 45405" class="cls-10" d="M44.047,55.266S46.178,54,46.432,55.6s.591,4.355.591,4.355l.589,3.5.764,7.008-.107,1.192s-2.265-.758-2.8-.5-.965-2.94-.965-2.94l-.884-3.323-.141-7.047Z" transform="translate(-4.01 -1.707)"/>
      <path id="Path_45406" data-name="Path 45406" class="cls-12" d="M44.047,55.266S46.178,54,46.432,55.6s.591,4.355.591,4.355l.589,3.5.764,7.008-.107,1.192s-2.265-.758-2.8-.5-.965-2.94-.965-2.94l-.884-3.323-.141-7.047Z" transform="translate(-4.01 -1.707)"/>
      <path id="Path_45407" data-name="Path 45407" class="cls-10" d="M45.193,47.013a10.234,10.234,0,0,0,5.567,3c3.356.5,7.5.662,7.5.662a3.634,3.634,0,0,1-.462,3.859l-8.441-.186a8.158,8.158,0,0,0-3.316,0Z" transform="translate(-4.01 -1.707)"/>
      <path id="Path_45408" data-name="Path 45408" class="cls-14" d="M45.193,47.013a10.234,10.234,0,0,0,5.567,3c3.356.5,7.5.662,7.5.662a3.634,3.634,0,0,1-.462,3.859l-8.441-.186a8.158,8.158,0,0,0-3.316,0Z" transform="translate(-4.01 -1.707)"/>
      <path id="Path_45409" data-name="Path 45409" class="cls-15" d="M63.542,57.242" transform="translate(-4.01 -1.707)"/>
      <path id="Path_45410" data-name="Path 45410" class="cls-12" d="M37.523,38.036A4.746,4.746,0,0,0,41.858,41.1h.271c.968-.753,1.718-1.236,1.718-1.236s-6.793-7.918-6.311-4.5A5.027,5.027,0,0,1,37.523,38.036Z" transform="translate(-4.01 -1.707)"/>
      <path id="Path_45411" data-name="Path 45411" class="cls-11" d="M36.68,35.761A5.167,5.167,0,1,0,38.195,32.1,5.178,5.178,0,0,0,36.68,35.761Z" transform="translate(-4.01 -1.707)"/>
      <path id="Path_45412" data-name="Path 45412" class="cls-13" d="M33.516,67.4s11.549,1.019,11.98-.455-1.178-5.466-1.178-5.466l.516-5.574.02-.214s-1.443-6.03-1.4-6.506a65.1,65.1,0,0,0-2.819-6.527l-.089-.186-.092.054-.039.024-.564.33-2.237-.527-2.692-1.409-.255,15.419Z" transform="translate(-4.01 -1.707)"/>
      <path id="Path_45413" data-name="Path 45413" class="cls-12" d="M39.519,42.658a.92.92,0,0,1,1.1.576,8.127,8.127,0,0,0,.423.987l.309,1.832.564,2.894.414,12.826-.186,2.283L41.11,62.223l-.187-11.98V48.749a10.812,10.812,0,0,0-.86-3.743l-.141-.337-.9-1.152Z" transform="translate(-4.01 -1.707)"/>
      <path id="Path_45414" data-name="Path 45414" class="cls-10" d="M39.679,42.5a.92.92,0,0,1,1.1.576,8.126,8.126,0,0,0,.423.987l.309,1.832.564,2.894.416,12.826L42.3,63.889l-1.032-1.832-.187-11.98V48.583a10.81,10.81,0,0,0-.858-3.743l-.141-.337-.9-1.147Z" transform="translate(-4.01 -1.707)"/>
      <path id="Path_45415" data-name="Path 45415" class="cls-12" d="M36.3,39.182s2.733,2.895,3.7,3.242a8.417,8.417,0,0,1-.964,2.626,39.812,39.812,0,0,0-3.383-3.161l-.423-1.042Z" transform="translate(-4.01 -1.707)"/>
      <path id="Path_45416" data-name="Path 45416" class="cls-13" d="M36.3,39.027s2.733,2.895,3.7,3.242a8.417,8.417,0,0,1-.964,2.626,39.812,39.812,0,0,0-3.383-3.161l-.423-1.042Z" transform="translate(-4.01 -1.707)"/>
      <path id="Path_45417" data-name="Path 45417" class="cls-12" d="M40.391,42.473l.028.075L41.3,44.9l1.564,4.434s.015.045.042.13c.259.806,1.655,5.182,1.93,6.455l.02-.214s-1.442-6.035-1.394-6.512a65.1,65.1,0,0,0-2.819-6.527c-.078-.054-.141-.1-.18-.132Z" transform="translate(-4.01 -1.707)"/>
      <path id="Path_45418" data-name="Path 45418" class="cls-10" d="M40.551,42.47l.9,2.426,1.566,4.434s.016.045.042.13c.275.86,1.841,5.765,1.973,6.662.141.987,2.114,6.311,2.114,6.311l1.128,9.225c1-.784-.423-8.316-.423-8.316s-1.608-11.174-1.989-14.891-2.443-4.816-2.443-4.816a5.117,5.117,0,0,1-2.328-.788,4.971,4.971,0,0,1-.545-.378Z" transform="translate(-4.01 -1.707)"/>
      <path id="Path_45419" data-name="Path 45419" class="cls-12" d="M29.2,101.811c.241,1.8.564,6.808.564,6.808,1.128,1.691,3.618.777,3.618.777a11.516,11.516,0,0,0,.668-2.413c.4-1.9.644-8.628.644-8.628l.939-5.653a18.641,18.641,0,0,0,1.044-4.743c.375-.987,1.287-7.5,1.287-7.5a87.284,87.284,0,0,0-.141,8.923,21.894,21.894,0,0,1-1.232,7.236s-.832,3.886-.4,5.091-1.073,6.19-1.073,6.19c.134,1.447,4.395.857,4.395.857a47.745,47.745,0,0,0,2.358-8.628,42.827,42.827,0,0,1,1.033-5.8l.347-4.5.617-2.653.737-3.509a35.455,35.455,0,0,0,1.085-6.874l.643-4.22a13.362,13.362,0,0,0-.489-5.82c-.158-.554-.282-.894-.282-.894a26.117,26.117,0,0,1-3.577.819,6.224,6.224,0,0,1-1.832.141,40.708,40.708,0,0,1-8.161-1.493l-.282-.085-.056.482-.132,1.15-.234,2.039s-.724,10.879-.3,12.354-.295,6.426-.295,6.426c.4,1.175-.857,5.953-.857,5.953S28.962,100.017,29.2,101.811Z" transform="translate(-4.01 -1.707)"/>
      <path id="Path_45420" data-name="Path 45420" class="cls-16" d="M29.2,101.65c.241,1.8.564,6.808.564,6.808,1.128,1.691,3.618.777,3.618.777a11.516,11.516,0,0,0,.668-2.413c.4-1.9.644-8.628.644-8.628l.939-5.653A18.641,18.641,0,0,0,36.68,87.8c.375-.987,1.287-7.5,1.287-7.5a87.284,87.284,0,0,0-.141,8.923,21.894,21.894,0,0,1-1.232,7.236s-.832,3.886-.4,5.091-1.073,6.19-1.073,6.19c.134,1.447,4.395.857,4.395.857a47.746,47.746,0,0,0,2.358-8.628,42.827,42.827,0,0,1,1.033-5.8l.347-4.5.617-2.653.737-3.509a35.455,35.455,0,0,0,1.085-6.874l.643-4.221a13.358,13.358,0,0,0-.489-5.818c-.158-.554-.282-.894-.282-.894a26.117,26.117,0,0,1-3.577.819,6.224,6.224,0,0,1-1.832.141,40.709,40.709,0,0,1-8.161-1.493l-.282-.085-.056.482-.132,1.15-.234,2.039s-.724,10.879-.3,12.354-.29,6.427-.29,6.427c.4,1.175-.857,5.953-.857,5.953S28.962,99.856,29.2,101.65Z" transform="translate(-4.01 -1.707)"/>
      <path id="Path_45421" data-name="Path 45421" class="cls-12" d="M36.68,35.761a5.167,5.167,0,0,0,.686,2.575,2.73,2.73,0,0,0,2.275-.548,11.153,11.153,0,0,0,1.035-1.283,7.539,7.539,0,0,1,.74-.73A2.292,2.292,0,0,1,42,35.353a.792.792,0,0,1,.7-.008c.282.159.383.513.544.8a1.063,1.063,0,0,0,.593.517.629.629,0,0,0,.7-.241c.175-.3.047-.772.341-.956a1.776,1.776,0,0,1,.24-.1c.379-.172.423-.681.454-1.1a.685.685,0,0,1,.233-.545,1.048,1.048,0,0,1,.6-.049.846.846,0,0,0,.18-.016,5.178,5.178,0,0,0-9.912,2.1Z" transform="translate(-4.01 -1.707)"/>
      <path id="Path_45422" data-name="Path 45422" class="cls-17" d="M46.9,29.034a1.719,1.719,0,0,1,.7,1.252.658.658,0,0,1-.018.247,1.832,1.832,0,0,1-.125.245c-.265.524.141,1.147.087,1.734a1.153,1.153,0,0,1-1.128,1.012,1.1,1.1,0,0,0-.6.049.668.668,0,0,0-.233.545c-.032.416-.075.925-.454,1.1a1.989,1.989,0,0,0-.24.1c-.295.183-.165.655-.341.954a.627.627,0,0,1-.7.242,1.068,1.068,0,0,1-.593-.517c-.162-.282-.259-.637-.544-.8a.8.8,0,0,0-.7.007,2.3,2.3,0,0,0-.584.423,7.7,7.7,0,0,0-.74.73,10.9,10.9,0,0,1-1.036,1.283A2.88,2.88,0,0,1,36.713,38a.9.9,0,0,1-.364-.233.91.91,0,0,1-.169-.417,5.009,5.009,0,0,1-.083-1.443,7.284,7.284,0,0,0,.085-1.128c-.027-.406-.172-.8-.192-1.2a3.1,3.1,0,0,1,.761-1.973c.262-.338.557-.653.784-1.015.2-.314.341-.662.554-.967a3.386,3.386,0,0,1,2.187-1.281,7.655,7.655,0,0,1,2.589.085,21.3,21.3,0,0,0,2.255.35C45.772,28.813,46.305,28.592,46.9,29.034Z" transform="translate(-4.01 -1.707)"/>
      <path id="Path_45423" data-name="Path 45423" class="cls-12" d="M40.551,42.47l.9,2.426,1.566,4.434s.016.045.042.13h0L41.09,42.848A4.973,4.973,0,0,1,40.551,42.47Z" transform="translate(-4.01 -1.707)"/>
      <path id="Path_45424" data-name="Path 45424" class="cls-11" d="M30.771,70.219s-.094,2.933.7,3.664l2.1-3.966L31.8,69.062Z" transform="translate(-4.01 -1.707)"/>
      <path id="Path_45425" data-name="Path 45425" class="cls-12" d="M25.86,71.29c.965,1.128,5.164,1.326,5.164,1.326l4.162-6.551s.987-.684,2.832-3.759a11.463,11.463,0,0,0,1.691-7.215,69.066,69.066,0,0,0-1.268-6.854c-.179-1.144-2.771-8.316-2.771-8.316A3.674,3.674,0,0,1,34.3,41.293a12.807,12.807,0,0,1-3.836,1.412c-3.6.523-2.934,4.241-2.934,4.241s-.044,14.456.182,16.184S25.86,71.29,25.86,71.29Z" transform="translate(-4.01 -1.707)"/>
      <path id="Path_45426" data-name="Path 45426" class="cls-13" d="M26.707,69.074l.12,1.071,1.462-.536,1.071-1.621-.8-.63Z"/>
      <path id="Path_45427" data-name="Path 45427" class="cls-12" d="M30.768,66.628l.764.078,7.368.736a11.937,11.937,0,0,0,3.54-.173l3.415-.684c-.158-.554-.282-.894-.282-.894A26.115,26.115,0,0,1,42,66.509a6.224,6.224,0,0,1-1.832.141,40.709,40.709,0,0,1-8.17-1.493l-.333.4Z" transform="translate(-4.01 -1.707)"/>
      <g id="Group_37109" data-name="Group 37109" class="cls-18">
        <path id="Path_45428" data-name="Path 45428" d="M45.489,65.731a.769.769,0,0,0,.072-.041l.007.02Z" transform="translate(-4.01 -1.707)"/>
        <path id="Path_45429" data-name="Path 45429" d="M29.839,93.477s1.26-4.778.857-5.953c0,0,.724-4.951.295-6.426s.3-12.354.3-12.354l.238-2.039.141-1.15.056-.482s.1.031.282.085l.171.051-.039.189L32,66.547l-.238,2.039s-.723,10.878-.3,12.354-.293,6.426-.293,6.426c.4,1.175-.857,5.953-.857,5.953s-.885,6.379-.644,8.175.564,6.806.564,6.806a2.9,2.9,0,0,0,3.149.906c-.008.021-.014.032-.014.032s-2.492.91-3.618-.777c0,0-.321-5.012-.564-6.808S29.839,93.477,29.839,93.477Z" transform="translate(-4.01 -1.707)"/>
        <path id="Path_45430" data-name="Path 45430" d="M36.19,101.543c-.423-1.205.4-5.091.4-5.091a21.742,21.742,0,0,0,1.23-7.236c-.1-1.284-.093-3.046-.051-4.665.342-2.086.668-4.419.668-4.419a85.876,85.876,0,0,0-.134,8.923,21.689,21.689,0,0,1-1.232,7.236s-.832,3.886-.4,5.091-1.073,6.19-1.073,6.19c.107,1.16,2.861,1.012,3.946.906l-.041.111s-4.261.591-4.393-.857C35.119,107.733,36.618,102.747,36.19,101.543Z" transform="translate(-4.01 -1.707)"/>
      </g>
      <path id="Path_45431" data-name="Path 45431" class="cls-10" d="M25.7,71.29c.965,1.128,5.164,1.326,5.164,1.326l4.161-6.551s.987-.684,2.833-3.759a11.454,11.454,0,0,0,1.691-7.215,69.066,69.066,0,0,0-1.268-6.854c-.179-1.144-2.771-8.316-2.771-8.316a3.674,3.674,0,0,1-1.371,1.371A12.818,12.818,0,0,1,30.3,42.706c-3.6.523-2.934,4.241-2.934,4.241s-.039,14.451.182,16.179S25.7,71.29,25.7,71.29Z" transform="translate(-4.01 -1.707)"/>
      <path id="Path_45432" data-name="Path 45432" class="cls-12" d="M34.742,43.475l.9.341-.6.423,4.5,10.853c-.1-1.769-1.268-6.854-1.268-6.854C38.1,47.093,35.5,39.922,35.5,39.922a3.674,3.674,0,0,1-1.371,1.371Z" transform="translate(-4.01 -1.707)"/>
      <path id="Path_45433" data-name="Path 45433" class="cls-12" d="M29.649,61.1l-4.6-1.185-.6,1.869,4.7,1.146Z"/>
      <path id="Path_45434" data-name="Path 45434" class="cls-12" d="M31.024,44.239s2.09,1.973,1.307,6.351-2.049,9.144-2.049,9.144l3.4,9.426s-2.372,2.472-3.538,2.772l-3.4-7.536a11.519,11.519,0,0,1-1.166-6.712c.421-4.1,1.949-10.733,1.949-10.733S27.527,42.913,31.024,44.239Z" transform="translate(-4.01 -1.707)"/>
      <path id="Path_45435" data-name="Path 45435" class="cls-10" d="M30.866,44.239s2.09,1.973,1.307,6.351-2.049,9.144-2.049,9.144l3.392,9.426s-2.368,2.472-3.536,2.772l-3.4-7.536a11.519,11.519,0,0,1-1.166-6.712c.421-4.1,1.949-10.733,1.949-10.733S27.367,42.913,30.866,44.239Z" transform="translate(-4.01 -1.707)"/>
      <path id="Path_45436" data-name="Path 45436" class="cls-12" d="M33.4,69.361s-2.653,3.664-2.451,4.651.978.455.978.455l1.05-1.435.939-2.678S33.826,69.2,33.4,69.361Z" transform="translate(-4.01 -1.707)"/>
      <path id="Path_45437" data-name="Path 45437" class="cls-12" d="M33.732,69.361s-2.654,3.664-2.452,4.651.978.455.978.455L33.3,73.033l.939-2.678S34.149,69.2,33.732,69.361Z" transform="translate(-4.01 -1.707)"/>
      <path id="Path_45438" data-name="Path 45438" class="cls-16" d="M33.57,69.361s-2.653,3.664-2.451,4.651.978.455.978.455l1.044-1.433.939-2.678S33.988,69.2,33.57,69.361Z" transform="translate(-4.01 -1.707)"/>
    </g>
  </g>
</svg>
