<svg xmlns="http://www.w3.org/2000/svg" xmlns:xlink="http://www.w3.org/1999/xlink" viewBox="0 0 262 147">
  <defs>
    <style>
      .cls-1 {
        fill: #e3f2fd;
      }

      .cls-2 {
        clip-path: url(#clip-path);
      }

      .cls-3, .cls-8 {
        fill: #248dc1;
      }

      .cls-24, .cls-3, .cls-7 {
        opacity: 0.1;
      }

      .cls-4 {
        fill: #474059;
      }

      .cls-10, .cls-24, .cls-5 {
        fill: #fff;
      }

      .cls-6 {
        fill: #c0bccf;
      }

      .cls-27, .cls-9 {
        fill: none;
        stroke-miterlimit: 10;
      }

      .cls-9 {
        stroke: #535461;
        stroke-width: 0.314px;
      }

      .cls-10 {
        opacity: 0.5;
      }

      .cls-11 {
        fill: #e8eaf1;
      }

      .cls-12 {
        fill: url(#linear-gradient);
      }

      .cls-13 {
        fill: #b96b6b;
      }

      .cls-14 {
        fill: #ffb9b9;
      }

      .cls-15 {
        fill: #fec5d9;
      }

      .cls-16 {
        fill: #747b9c;
      }

      .cls-17 {
        fill: url(#linear-gradient-2);
      }

      .cls-18 {
        fill: #d6e6f9;
      }

      .cls-19 {
        fill: #5f546f;
      }

      .cls-20 {
        fill: #ffced8;
      }

      .cls-21 {
        fill: #bc8387;
      }

      .cls-22 {
        fill: #ae767a;
      }

      .cls-23 {
        fill: #cb919b;
      }

      .cls-25 {
        fill: #5a5773;
      }

      .cls-26 {
        opacity: 0.2;
      }

      .cls-27 {
        stroke: #248dc1;
        stroke-width: 0.157px;
      }
    </style>
    <clipPath id="clip-path">
      <path id="Rectangle_9021" data-name="Rectangle 9021" class="cls-1" d="M2,0H218a2,2,0,0,1,2,2V123.435a0,0,0,0,1,0,0H0a0,0,0,0,1,0,0V2A2,2,0,0,1,2,0Z" transform="translate(12017 6228)"/>
    </clipPath>
    <linearGradient id="linear-gradient" x1="0.499" y1="1" x2="0.499" y2="-0.001" gradientUnits="objectBoundingBox">
      <stop offset="0" stop-color="gray" stop-opacity="0.251"/>
      <stop offset="0.54" stop-color="gray" stop-opacity="0.122"/>
      <stop offset="1" stop-color="gray" stop-opacity="0.102"/>
    </linearGradient>
    <linearGradient id="linear-gradient-2" x1="0.5" y1="1" x2="0.5" y2="0" xlink:href="#linear-gradient"/>
  </defs>
  <g id="card-4" transform="translate(-972 -501)">
    <path id="Rectangle_8609" data-name="Rectangle 8609" class="cls-1" d="M2,0H260a2,2,0,0,1,2,2V147a0,0,0,0,1,0,0H0a0,0,0,0,1,0,0V2A2,2,0,0,1,2,0Z" transform="translate(972 501)"/>
    <g id="Mask_Group_272" data-name="Mask Group 272" class="cls-2" transform="translate(-11024 -5715)">
      <g id="undraw_social_networking_nqk4" transform="translate(12038.534 6228.001)">
        <path id="Path_45226" data-name="Path 45226" class="cls-3" d="M172.249,80.929c-6.149,8.437-4.12,20.48-.565,30.075,1.19,3.212,2.543,6.609,1.926,10.1-.754,4.272-4.3,7.473-7.98,9.216a21.146,21.146,0,0,1-20.652-1.333c-5.183-3.455-8.831-9.2-14.115-12.488-8.842-5.5-20.322-3.045-30.163,1.158-6.962,2.973-14.589,6.8-21.374,4.057-4.775-1.932-7.99-6.849-9.681-12.106-.817-2.538-1.388-5.293-3.016-7.28a11.132,11.132,0,0,0-3.561-2.692c-12-6.282-27.43-2.356-39.062-9.365C16.153,85.54,11.266,76.354,9.235,66.7S7.707,46.844,8.516,36.824C9.091,29.7,10,22.093,14.281,16.5c4.528-5.918,12.117-8.271,18.9-7.342s12.869,4.7,18.194,9.194c6.655,5.615,12.781,12.662,21.063,14.792,5.64,1.451,11.632.424,17.495-.03,9.8-.757,19.566.115,29.272,1.1,9.292.942,18.647,1.995,27.447,5.084,6.227,2.186,11.164,6.318,17.027,9.142,3.821,1.841,8.026,2.268,11.622,4.646,4.438,2.929,8.45,8.118,7.148,14.346C181.223,73.346,175.512,76.451,172.249,80.929Z" transform="translate(-5.761 -8.96)"/>
        <rect id="Rectangle_9022" data-name="Rectangle 9022" class="cls-4" width="32.269" height="21.68" rx="1.509" transform="translate(59.784 24.958)"/>
        <rect id="Rectangle_9023" data-name="Rectangle 9023" class="cls-5" width="30.843" height="17.711" transform="translate(60.463 27.49)"/>
        <ellipse id="Ellipse_1391" data-name="Ellipse 1391" class="cls-5" cx="0.272" cy="0.294" rx="0.272" ry="0.294" transform="translate(75.612 26.281)"/>
        <rect id="Rectangle_9024" data-name="Rectangle 9024" class="cls-4" width="5.654" height="5.968" transform="translate(73.007 45.853)"/>
        <path id="Path_45227" data-name="Path 45227" class="cls-4" d="M72.536,51.35h6.911a.942.942,0,0,1,.942.942h-8.8a.942.942,0,0,1,.942-.942Z"/>
        <rect id="Rectangle_9025" data-name="Rectangle 9025" class="cls-6" width="23.245" height="8.01" transform="translate(36.569 56.376)"/>
        <rect id="Rectangle_9026" data-name="Rectangle 9026" class="cls-6" width="5.026" height="43.662" transform="translate(131.432 52.45)"/>
        <rect id="Rectangle_9027" data-name="Rectangle 9027" class="cls-7" width="23.245" height="0.471" transform="translate(36.569 56.376)"/>
        <rect id="Rectangle_9028" data-name="Rectangle 9028" class="cls-7" width="5.026" height="4.398" transform="translate(131.432 52.45)"/>
        <rect id="Rectangle_9029" data-name="Rectangle 9029" class="cls-6" width="23.245" height="8.01" transform="translate(36.569 64.072)"/>
        <circle id="Ellipse_1392" data-name="Ellipse 1392" class="cls-8" cx="1.414" cy="1.414" r="1.414" transform="translate(46.778 66.585)"/>
        <circle id="Ellipse_1393" data-name="Ellipse 1393" class="cls-8" cx="1.414" cy="1.414" r="1.414" transform="translate(46.778 58.889)"/>
        <rect id="Rectangle_9030" data-name="Rectangle 9030" class="cls-6" width="23.245" height="8.01" transform="translate(36.569 72.082)"/>
        <circle id="Ellipse_1394" data-name="Ellipse 1394" class="cls-8" cx="1.414" cy="1.414" r="1.414" transform="translate(46.778 74.438)"/>
        <rect id="Rectangle_9031" data-name="Rectangle 9031" class="cls-6" width="23.245" height="8.01" transform="translate(36.569 80.092)"/>
        <circle id="Ellipse_1395" data-name="Ellipse 1395" class="cls-8" cx="1.414" cy="1.414" r="1.414" transform="translate(46.778 82.448)"/>
        <rect id="Rectangle_9032" data-name="Rectangle 9032" class="cls-6" width="23.245" height="8.01" transform="translate(36.569 88.102)"/>
        <circle id="Ellipse_1396" data-name="Ellipse 1396" class="cls-8" cx="1.414" cy="1.414" r="1.414" transform="translate(46.778 90.458)"/>
        <rect id="Rectangle_9033" data-name="Rectangle 9033" class="cls-7" width="23.245" height="0.628" transform="translate(36.569 71.611)"/>
        <rect id="Rectangle_9034" data-name="Rectangle 9034" class="cls-7" width="23.245" height="0.628" transform="translate(36.569 63.758)"/>
        <rect id="Rectangle_9035" data-name="Rectangle 9035" class="cls-7" width="23.245" height="0.628" transform="translate(36.569 79.621)"/>
        <rect id="Rectangle_9036" data-name="Rectangle 9036" class="cls-7" width="23.245" height="0.628" transform="translate(36.569 87.631)"/>
        <path id="Path_45228" data-name="Path 45228" class="cls-9" d="M29.572,99.306s-.518-15.354-8.825-24.03a23.274,23.274,0,0,1-6.383-13.268,39.149,39.149,0,0,1-.195-7.157" transform="translate(-5.761 -8.96)"/>
        <path id="Path_45229" data-name="Path 45229" class="cls-8" d="M8.966,49.357c.569,1.715,5.321,5.654,5.321,5.654s1.456-6,.887-7.715a3.271,3.271,0,0,0-6.209,2.059Z" transform="translate(-5.761 -8.96)"/>
        <path id="Path_45230" data-name="Path 45230" class="cls-8" d="M6.984,60.554c1.414,1.131,7.539,1.856,7.539,1.856s-2.042-5.828-3.455-6.958a3.271,3.271,0,0,0-4.093,5.1Z" transform="translate(-5.761 -8.96)"/>
        <path id="Path_45231" data-name="Path 45231" class="cls-8" d="M12.591,76.707c1.787.264,7.446-2.2,7.446-2.2s-4.7-4.007-6.49-4.272a3.271,3.271,0,0,0-.956,6.471Z" transform="translate(-5.761 -8.96)"/>
        <path id="Path_45232" data-name="Path 45232" class="cls-8" d="M19.584,87.975c1.717.562,7.712-.914,7.712-.914s-3.959-4.738-5.676-5.3a3.271,3.271,0,0,0-2.042,6.215Z" transform="translate(-5.761 -8.96)"/>
        <path id="Path_45233" data-name="Path 45233" class="cls-8" d="M21.154,60.58C20.32,62.182,15,65.32,15,65.32s-.484-6.155.35-7.759a3.27,3.27,0,1,1,5.8,3.019Z" transform="translate(-5.761 -8.96)"/>
        <path id="Path_45234" data-name="Path 45234" class="cls-8" d="M29.166,73.861c-1.275,1.28-7.287,2.681-7.287,2.681s1.381-6.018,2.654-7.3a3.27,3.27,0,1,1,4.633,4.616Z" transform="translate(-5.761 -8.96)"/>
        <path id="Path_45235" data-name="Path 45235" class="cls-8" d="M35.181,87.838c-1.04,1.476-6.73,3.875-6.73,3.875s.342-6.165,1.384-7.642a3.27,3.27,0,1,1,5.34,3.769Z" transform="translate(-5.761 -8.96)"/>
        <path id="Path_45236" data-name="Path 45236" class="cls-9" d="M27.747,92.952s4.712-6.854,3.886-13.3a12.6,12.6,0,0,1,1.489-7.831,21.2,21.2,0,0,1,2.216-3.184" transform="translate(-5.761 -8.96)"/>
        <path id="Path_45237" data-name="Path 45237" class="cls-8" d="M34.842,64.573c-.3.93.5,4.175.5,4.175S37.9,66.6,38.208,65.674a1.77,1.77,0,0,0-3.366-1.1Z" transform="translate(-5.761 -8.96)"/>
        <path id="Path_45238" data-name="Path 45238" class="cls-8" d="M30.377,68.81c.25.942,2.687,3.234,2.687,3.234s.986-3.195.737-4.14a1.771,1.771,0,0,0-3.424.906Z" transform="translate(-5.761 -8.96)"/>
        <path id="Path_45239" data-name="Path 45239" class="cls-8" d="M27.622,77.648c.693.689,3.952,1.436,3.952,1.436s-.76-3.256-1.454-3.945a1.771,1.771,0,1,0-2.5,2.513Z" transform="translate(-5.761 -8.96)"/>
        <path id="Path_45240" data-name="Path 45240" class="cls-8" d="M27.044,84.811c.567.8,3.653,2.083,3.653,2.083s-.2-3.337-.766-4.134a1.771,1.771,0,0,0-2.887,2.051Z" transform="translate(-5.761 -8.96)"/>
        <path id="Path_45241" data-name="Path 45241" class="cls-8" d="M36.538,73.381c-.878.43-4.2.085-4.2.085S34.1,70.629,34.983,70.2a1.77,1.77,0,1,1,1.556,3.18Z" transform="translate(-5.761 -8.96)"/>
        <path id="Path_45242" data-name="Path 45242" class="cls-8" d="M35.756,81.741c-.967.146-4.03-1.17-4.03-1.17s2.536-2.177,3.5-2.324a1.771,1.771,0,1,1,.532,3.5Z" transform="translate(-5.761 -8.96)"/>
        <path id="Path_45243" data-name="Path 45243" class="cls-8" d="M33.879,89.762c-.928.314-4.178-.471-4.178-.471s2.133-2.574,3.061-2.884a1.771,1.771,0,0,1,1.117,3.361Z" transform="translate(-5.761 -8.96)"/>
        <path id="Path_45244" data-name="Path 45244" class="cls-10" d="M34.842,64.573c-.3.93.5,4.175.5,4.175S37.9,66.6,38.208,65.674a1.77,1.77,0,0,0-3.366-1.1Z" transform="translate(-5.761 -8.96)"/>
        <path id="Path_45245" data-name="Path 45245" class="cls-10" d="M30.377,68.81c.25.942,2.687,3.234,2.687,3.234s.986-3.195.737-4.14a1.771,1.771,0,0,0-3.424.906Z" transform="translate(-5.761 -8.96)"/>
        <path id="Path_45246" data-name="Path 45246" class="cls-10" d="M27.622,77.648c.693.689,3.952,1.436,3.952,1.436s-.76-3.256-1.454-3.945a1.771,1.771,0,1,0-2.5,2.513Z" transform="translate(-5.761 -8.96)"/>
        <path id="Path_45247" data-name="Path 45247" class="cls-10" d="M27.044,84.811c.567.8,3.653,2.083,3.653,2.083s-.2-3.337-.766-4.134a1.771,1.771,0,0,0-2.887,2.051Z" transform="translate(-5.761 -8.96)"/>
        <path id="Path_45248" data-name="Path 45248" class="cls-10" d="M36.538,73.381c-.878.43-4.2.085-4.2.085S34.1,70.629,34.983,70.2a1.77,1.77,0,1,1,1.556,3.18Z" transform="translate(-5.761 -8.96)"/>
        <path id="Path_45249" data-name="Path 45249" class="cls-10" d="M35.756,81.741c-.967.146-4.03-1.17-4.03-1.17s2.536-2.177,3.5-2.324a1.771,1.771,0,1,1,.532,3.5Z" transform="translate(-5.761 -8.96)"/>
        <path id="Path_45250" data-name="Path 45250" class="cls-10" d="M33.879,89.762c-.928.314-4.178-.471-4.178-.471s2.133-2.574,3.061-2.884a1.771,1.771,0,0,1,1.117,3.361Z" transform="translate(-5.761 -8.96)"/>
        <path id="Path_45251" data-name="Path 45251" class="cls-4" d="M30.7,102.576H17.3l-3.35-20.438h20.1Z"/>
        <path id="Path_45252" data-name="Path 45252" class="cls-7" d="M31.49,82.138l-3.13,19.1H17.083l.22,1.34H30.7l3.352-20.438Z"/>
        <rect id="Rectangle_9037" data-name="Rectangle 9037" class="cls-6" width="100.988" height="4.712" transform="translate(36.098 51.821)"/>
        <rect id="Rectangle_9038" data-name="Rectangle 9038" class="cls-11" width="14.449" height="15.271" transform="translate(61.228 28.715)"/>
        <rect id="Rectangle_9039" data-name="Rectangle 9039" class="cls-5" width="13.821" height="14.606" transform="translate(61.542 29.048)"/>
        <path id="Path_45253" data-name="Path 45253" class="cls-12" d="M79.628,48.653c.193-1.53-.193-1.626-.193-1.626l-.554-.265a2.291,2.291,0,0,0,.011-.27,1.931,1.931,0,0,0,0-.225,5.344,5.344,0,0,0-.667-1.679,5.037,5.037,0,0,1-.437-1.607,8.219,8.219,0,0,0-.236-2.042,3.672,3.672,0,0,0-.978-1.343A4.954,4.954,0,0,0,75,38.533a2.591,2.591,0,0,0-1.871-.053,4.088,4.088,0,0,0-1.348,1.041,4.749,4.749,0,0,0-.762.927,4.188,4.188,0,0,0-.429,1.4,23.167,23.167,0,0,0-.264,2.342,2.359,2.359,0,0,1-.628,1.8c-.256.2-.614.306-.732.6a.66.66,0,0,0-.038.28,1.118,1.118,0,0,0,.016.237.7.7,0,0,0,.027.137,10.689,10.689,0,0,0-.377,1.223,32.263,32.263,0,0,0-.774,4.3h9.317a1.1,1.1,0,0,0,.265,0h2.423Z" transform="translate(-5.761 -8.96)"/>
        <rect id="Rectangle_9040" data-name="Rectangle 9040" class="cls-13" width="5.348" height="4.035" transform="translate(65.807 33.35)"/>
        <rect id="Rectangle_9041" data-name="Rectangle 9041" class="cls-7" width="5.348" height="4.035" transform="translate(65.807 33.35)"/>
        <path id="Path_45254" data-name="Path 45254" class="cls-14" d="M77.1,46.532,75.041,49.44l-2.166-.187s-2.814.187-.942-1.971a4.6,4.6,0,0,0,1.256-2.513,1.952,1.952,0,0,0-.134-1.048l2.346-.281a1.75,1.75,0,0,0-.038.978A4.318,4.318,0,0,0,77.1,46.532Z" transform="translate(-5.761 -8.96)"/>
        <path id="Path_45255" data-name="Path 45255" class="cls-7" d="M75.377,44.414a2.345,2.345,0,0,1-2.174.347,1.952,1.952,0,0,0-.134-1.048l2.346-.281A1.75,1.75,0,0,0,75.377,44.414Z" transform="translate(-5.761 -8.96)"/>
        <circle id="Ellipse_1397" data-name="Ellipse 1397" class="cls-14" cx="2.346" cy="2.346" r="2.346" transform="translate(65.853 31.143)"/>
        <path id="Path_45256" data-name="Path 45256" class="cls-7" d="M74.1,48.688a3.826,3.826,0,0,0,.845-1.877,1.9,1.9,0,0,1,1.126-.942c.845-.281.751,0,.751,0l.562,2.252L77.2,52.156l.094.471H70.348l.471-1.877-.1-1.591L71.1,46.72l1.126-.657.845,1.126Z" transform="translate(-5.761 -8.96)"/>
        <path id="Path_45257" data-name="Path 45257" class="cls-15" d="M74.1,48.784a3.826,3.826,0,0,0,.845-1.877,1.9,1.9,0,0,1,1.126-.942c.845-.281.751,0,.751,0l.562,2.252L77.2,52.252l.094.471H70.348l.471-1.877-.094-1.6.375-2.439,1.126-.657.845,1.126Z" transform="translate(-5.761 -8.96)"/>
        <path id="Path_45258" data-name="Path 45258" class="cls-7" d="M72.789,45.875l-2.909.471s-.471-.094-1.032,2.158a32.042,32.042,0,0,0-.751,4.222h3.628s.218-3.754.785-4.035l.785-1.214s-1.256-.1-1.071-.755A1.33,1.33,0,0,1,72.789,45.875Z" transform="translate(-5.761 -8.96)"/>
        <path id="Path_45259" data-name="Path 45259" class="cls-16" d="M72.694,45.875l-2.909.471s-.471-.094-1.032,2.158a32.038,32.038,0,0,0-.748,4.22h3.628s.218-3.754.785-4.035l.785-1.214s-1.256-.1-1.071-.755A1.326,1.326,0,0,1,72.694,45.875Z" transform="translate(-5.761 -8.96)"/>
        <path id="Path_45260" data-name="Path 45260" class="cls-7" d="M76.073,45.594l3.1,1.5s.375.094.187,1.6l.187,4.035h-3.33a12.032,12.032,0,0,0,.141-3.846A25.711,25.711,0,0,1,76.073,45.594Z" transform="translate(-5.761 -8.96)"/>
        <path id="Path_45261" data-name="Path 45261" class="cls-16" d="M76.173,45.594l3.1,1.5s.375.094.187,1.6l.187,4.035H76.307a12.032,12.032,0,0,0,.141-3.846,25.711,25.711,0,0,1-.275-3.286Z" transform="translate(-5.761 -8.96)"/>
        <path id="Path_45262" data-name="Path 45262" class="cls-7" d="M73.189,41.426a2.339,2.339,0,0,1-.518,1.008,1.266,1.266,0,0,0-.284,1.068c.047.141.14.267.173.413.057.251-.071.51-.049.766.03.352.328.613.493.924a2.24,2.24,0,0,1-.3,2.114,6.175,6.175,0,0,0-.994,1.982,4,4,0,0,0,.342,2.01.628.628,0,0,1,.053.4c-.072.217-.344.281-.573.3a6.044,6.044,0,0,1-.752,0,.628.628,0,0,1-.275-.058c-.173-.094-.225-.314-.289-.5s-.206-.39-.4-.369c-.129.014-.229.124-.357.146a.368.368,0,0,1-.314-.129.877.877,0,0,1-.024-.969,6.4,6.4,0,0,0,.492-.9c.253-.817-.38-1.626-.514-2.471a.8.8,0,0,1,.022-.415c.115-.292.462-.4.71-.592a2.326,2.326,0,0,0,.611-1.765,23.033,23.033,0,0,1,.245-2.3,4.151,4.151,0,0,1,.415-1.374,4.65,4.65,0,0,1,.738-.909,3.918,3.918,0,0,1,1.307-1.021,2.482,2.482,0,0,1,1.812.052,4.8,4.8,0,0,1,1.525,1.054,3.6,3.6,0,0,1,.942,1.318,8.379,8.379,0,0,1,.228,2.01,4.993,4.993,0,0,0,.422,1.571,5.3,5.3,0,0,1,.647,1.649,5.57,5.57,0,0,1-.19,1.406,9.228,9.228,0,0,0,.027,2.461,1.98,1.98,0,0,0,.123.58,2.072,2.072,0,0,0,.559.671.24.24,0,0,1,.1.157.19.19,0,0,1-.074.138c-.284.253-.776.066-1.084.291a1.742,1.742,0,0,0-.234.248,1.055,1.055,0,0,1-1.808-.49,3.382,3.382,0,0,1,.085-1.118,6.71,6.71,0,0,0-.942-3.386,2.952,2.952,0,0,1-.349-1.607,5.072,5.072,0,0,1,.495-1.238,3.486,3.486,0,0,0,.157-2.607A2.584,2.584,0,0,0,74.262,40.5c-.223-.1-.54-.239-.774-.1C73.1,40.615,73.22,41.074,73.189,41.426Z" transform="translate(-5.761 -8.96)"/>
        <path id="Path_45263" data-name="Path 45263" class="cls-13" d="M73.189,41.331a2.339,2.339,0,0,1-.518,1.008,1.266,1.266,0,0,0-.284,1.068c.047.141.14.267.173.413.057.251-.071.51-.049.766.03.352.328.613.493.924a2.24,2.24,0,0,1-.3,2.114,6.175,6.175,0,0,0-.994,1.982,4,4,0,0,0,.342,2.01.628.628,0,0,1,.053.4c-.072.217-.344.281-.573.3a6.044,6.044,0,0,1-.752,0,.628.628,0,0,1-.275-.058c-.173-.094-.225-.314-.289-.5s-.206-.39-.4-.369c-.129.014-.229.124-.357.146a.368.368,0,0,1-.314-.129.877.877,0,0,1-.024-.969,6.4,6.4,0,0,0,.492-.9c.253-.817-.38-1.626-.514-2.471a.8.8,0,0,1,.022-.415c.115-.292.462-.4.71-.592a2.326,2.326,0,0,0,.611-1.765A23.029,23.029,0,0,1,70.7,42a4.151,4.151,0,0,1,.415-1.374,4.65,4.65,0,0,1,.738-.909,3.918,3.918,0,0,1,1.307-1.021,2.482,2.482,0,0,1,1.812.052,4.8,4.8,0,0,1,1.522,1.044,3.6,3.6,0,0,1,.942,1.318,8.38,8.38,0,0,1,.228,2.01,4.993,4.993,0,0,0,.422,1.571,5.3,5.3,0,0,1,.647,1.649,5.57,5.57,0,0,1-.19,1.406A9.228,9.228,0,0,0,78.57,50.2a1.981,1.981,0,0,0,.119.583,2.072,2.072,0,0,0,.559.671.24.24,0,0,1,.1.157.19.19,0,0,1-.074.138c-.284.253-.776.066-1.084.291a1.743,1.743,0,0,0-.234.248,1.055,1.055,0,0,1-1.808-.49,3.382,3.382,0,0,1,.085-1.118,6.71,6.71,0,0,0-.942-3.386,2.952,2.952,0,0,1-.349-1.607,5.072,5.072,0,0,1,.495-1.238,3.486,3.486,0,0,0,.157-2.607A2.584,2.584,0,0,0,74.265,40.4c-.223-.1-.54-.239-.774-.1C73.1,40.521,73.22,40.981,73.189,41.331Z" transform="translate(-5.761 -8.96)"/>
        <rect id="Rectangle_9042" data-name="Rectangle 9042" class="cls-11" width="11.308" height="0.471" transform="translate(78.661 29.676)"/>
        <rect id="Rectangle_9043" data-name="Rectangle 9043" class="cls-11" width="11.308" height="0.471" transform="translate(78.661 30.933)"/>
        <rect id="Rectangle_9044" data-name="Rectangle 9044" class="cls-11" width="11.308" height="0.471" transform="translate(78.661 32.189)"/>
        <rect id="Rectangle_9045" data-name="Rectangle 9045" class="cls-11" width="11.308" height="0.471" transform="translate(78.661 33.446)"/>
        <rect id="Rectangle_9046" data-name="Rectangle 9046" class="cls-11" width="11.308" height="0.471" transform="translate(78.661 34.702)"/>
        <rect id="Rectangle_9047" data-name="Rectangle 9047" class="cls-11" width="11.308" height="0.471" transform="translate(78.661 35.958)"/>
        <rect id="Rectangle_9048" data-name="Rectangle 9048" class="cls-11" width="11.308" height="0.471" transform="translate(78.661 37.215)"/>
        <rect id="Rectangle_9049" data-name="Rectangle 9049" class="cls-11" width="11.308" height="0.471" transform="translate(78.661 38.471)"/>
        <rect id="Rectangle_9050" data-name="Rectangle 9050" class="cls-11" width="11.308" height="0.471" transform="translate(78.661 39.728)"/>
        <rect id="Rectangle_9051" data-name="Rectangle 9051" class="cls-11" width="11.308" height="0.471" transform="translate(78.661 40.984)"/>
        <rect id="Rectangle_9052" data-name="Rectangle 9052" class="cls-11" width="11.308" height="0.471" transform="translate(78.661 42.241)"/>
        <path id="Path_45264" data-name="Path 45264" class="cls-17" d="M124.527,75.832a11.465,11.465,0,0,0,.669-6.884,58.739,58.739,0,0,1-1.12-8.363,19.746,19.746,0,0,0-1-5.569h0s.165-3.666-2.318-5.577a79.081,79.081,0,0,0-8.279-4.939l.58-2.367h-.024a2.274,2.274,0,0,0,.5-.228,2.161,2.161,0,0,0,.448-.372c.98-.858.994-2.431,1.459-3.685a24.348,24.348,0,0,1,1.509-2.7,6.092,6.092,0,0,0,.265-5.4,4.788,4.788,0,0,0-4.665-2.692,8.382,8.382,0,0,0-1.816.488c-1.393.49-2.493-.9-3.886-.405-.7.247-3.308.514-3.873,1.231a.644.644,0,0,0-.267.361c-.148.7,1.129,2.094,2.076,3.209a5.111,5.111,0,0,0-1.165,3.245q0,.04,0,.08v.08a5.142,5.142,0,0,0,1.563,3.68c-.08.7-.2,1.489-.371,2.3H104.7s-.663,2.868-2.814,2.868c-.575,0-1.36-.035-2.2-.083a22.99,22.99,0,0,0-7.512.865,2.886,2.886,0,0,1-2.535-.3c-1.847-1.333-3.835-4.729-4.107-5.2.207-1.377.179-3.9-2.681-4.358-3.353-.537-3.169,3.348-1.241,5.821a1.539,1.539,0,0,0-.094.383c-.165,2.072,1.822,5.9,2.318,6.373s.509,3.5,3.98,4.307,5.968,1.115,6.125,5.1,3.477,8.126,1.822,12.748c-.994,2.774-.735,4.226-.369,4.944-.03.094-.058.187-.09.283a11.274,11.274,0,0,1-1.363,2.984c-.119.157-.236.327-.347.5a21.551,21.551,0,0,0-3.3,2.445c-1.159,1.275-.663,6.373,0,8.445s4.8,14.66,4.8,14.66h.157l.05.314.166,1.043a1.554,1.554,0,0,1-.157-.1.269.269,0,0,0-.4.107l-.809,1.806s-3.311-1.431-3.48,1.916v.383a2.465,2.465,0,0,0,1.812,2.681,6.928,6.928,0,0,1,2.158,1,4.215,4.215,0,0,0,3.388.839,3.349,3.349,0,0,1,.85-.079,1.352,1.352,0,0,0,1.571-1.486,2.568,2.568,0,0,0,0-.314,25.71,25.71,0,0,1-.729-3.926.919.919,0,0,1,.066-.368,2.627,2.627,0,0,0,.146-1.11,11.657,11.657,0,0,0-.061-1.2.185.185,0,0,0-.337-.078l-.027.036c-.107-.353-.231-.766-.347-1.156l-.1-.314h.223s-1.327-7.823-.831-8.451c.325-.416-.2-5.4-.6-8.8,4.033.256,10.462-.457,14.859-.677a5.629,5.629,0,0,0,2.4-.669c-.4,3.223-1.136,9.664-.765,10.14.5.638-.828,8.445-.828,8.445h.2l-.072.239h.025c-.123.413-.256.858-.371,1.236l-.027-.036a.185.185,0,0,0-.338.08,11.645,11.645,0,0,0-.061,1.2,2.847,2.847,0,0,0,.146,1.11.917.917,0,0,1,.066.368,25.506,25.506,0,0,1-.729,3.926,2.578,2.578,0,0,0,0,.314,1.348,1.348,0,0,0,1.571,1.486,3.349,3.349,0,0,1,.85.079,4.233,4.233,0,0,0,3.388-.839,6.928,6.928,0,0,1,2.158-1,2.465,2.465,0,0,0,1.812-2.681v-.383c-.174-3.344-3.485-1.913-3.485-1.913l-.814-1.812a.269.269,0,0,0-.4-.107,1.549,1.549,0,0,1-.157.1l.218-1.362h.157s4.138-12.588,4.8-14.66,1.159-7.171,0-8.445a21.7,21.7,0,0,0-3.344-2.477,31.046,31.046,0,0,1,3.344,2.318Zm-7.149,1.6-.526-.314a2.5,2.5,0,0,0-.4-.517,4.188,4.188,0,0,1-.405-.455c-.324-.978-1.519-5.026.075-7.113,1.158-1.52,1.245-4.457,1.154-6.4.785,3.849,1.885,9.266,1.991,10.378C119.4,74.4,117.977,76.586,117.377,77.43Z" transform="translate(-5.761 -8.96)"/>
        <path id="Path_45265" data-name="Path 45265" class="cls-18" d="M116.851,102.952l-.628,4.084-3.769-.785s.785-2.67.942-3.3.157,0,.157,0Z" transform="translate(-5.761 -8.96)"/>
        <path id="Path_45266" data-name="Path 45266" class="cls-18" d="M99.889,106.25l-3.769.785-.435-2.827-.193-1.256h3.3s0-.628.157,0c.057.226.195.719.35,1.256C99.575,105.16,99.889,106.25,99.889,106.25Z" transform="translate(-5.761 -8.96)"/>
        <path id="Path_45267" data-name="Path 45267" class="cls-7" d="M99.3,104.208H95.688l-.193-1.256h3.3s0-.628.157,0C99.006,103.178,99.144,103.671,99.3,104.208Z" transform="translate(-5.761 -8.96)"/>
        <path id="Path_45268" data-name="Path 45268" class="cls-7" d="M113.049,104.129h3.612l.193-1.256h-3.3s0-.628-.157,0C113.343,103.1,113.2,103.592,113.049,104.129Z" transform="translate(-5.761 -8.96)"/>
        <path id="Path_45269" data-name="Path 45269" class="cls-18" d="M120.464,53.478s2.042.157,2.513,7.539a60.026,60.026,0,0,0,1.07,8.246,11.707,11.707,0,0,1-.628,6.779l-2.012,4.922s-3.769-3.141-5.026-2.984c0,0,2.2-2.984,2.042-4.712s-2.67-14.135-2.67-14.135Z" transform="translate(-5.761 -8.96)"/>
        <path id="Path_45270" data-name="Path 45270" class="cls-19" d="M96.9,76.88s-4.869,2.984-5.968,4.241-.628,6.282,0,8.324,4.555,14.449,4.555,14.449h3.926s-1.256-7.7-.785-8.324S97.69,83.79,97.69,83.79Z" transform="translate(-5.761 -8.96)"/>
        <path id="Path_45271" data-name="Path 45271" class="cls-19" d="M115.438,76.88s4.869,2.984,5.968,4.241.628,6.282,0,8.324-4.555,14.449-4.555,14.449h-3.926s1.256-7.7.785-8.324.942-11.779.942-11.779Z" transform="translate(-5.761 -8.96)"/>
        <path id="Path_45272" data-name="Path 45272" class="cls-7" d="M96.9,76.88s-4.869,2.984-5.968,4.241-.628,6.282,0,8.324,4.555,14.449,4.555,14.449h3.926s-1.256-7.7-.785-8.324S97.69,83.79,97.69,83.79Z" transform="translate(-5.761 -8.96)"/>
        <path id="Path_45273" data-name="Path 45273" class="cls-7" d="M115.438,76.88s4.869,2.984,5.968,4.241.628,6.282,0,8.324-4.555,14.449-4.555,14.449h-3.926s1.256-7.7.785-8.324.942-11.779.942-11.779Z" transform="translate(-5.761 -8.96)"/>
        <path id="Path_45274" data-name="Path 45274" class="cls-20" d="M105.229,37.144s0,6.125-2.2,9.266,10.052.471,10.052.471a3.262,3.262,0,0,1-1.178-1.649c-.647-2.3-.892-6.362.079-8.088C113.4,34.631,105.229,37.144,105.229,37.144Z" transform="translate(-5.761 -8.96)"/>
        <circle id="Ellipse_1398" data-name="Ellipse 1398" class="cls-7" cx="5.183" cy="5.183" r="5.183" transform="translate(97.822 21.98)"/>
        <circle id="Ellipse_1399" data-name="Ellipse 1399" class="cls-20" cx="5.183" cy="5.183" r="5.183" transform="translate(97.822 21.823)"/>
        <path id="Path_45275" data-name="Path 45275" class="cls-19" d="M112.463,89.419c-5.618.248-14.963,1.294-16.38-.258-2.285-2.5-1.475-4.754-.3-6.125A8.342,8.342,0,0,0,97,80.7c.113-.3.218-.608.314-.9a3.013,3.013,0,0,1,2.937-1.893H111.6a3.014,3.014,0,0,1,2.94,1.905,5.04,5.04,0,0,0,.722,1.468,3.556,3.556,0,0,0,.58.628,5.046,5.046,0,0,1,1.183,2.683C117.528,87.029,115.38,89.291,112.463,89.419Z" transform="translate(-5.761 -8.96)"/>
        <path id="Path_45276" data-name="Path 45276" class="cls-7" d="M112.463,89.419c-5.618.248-14.963,1.294-16.38-.258-2.285-2.5-1.475-4.754-.3-6.125A8.342,8.342,0,0,0,97,80.7c.113-.3.218-.608.314-.9a3.013,3.013,0,0,1,2.937-1.893H111.6a3.014,3.014,0,0,1,2.94,1.905,5.04,5.04,0,0,0,.722,1.468,3.556,3.556,0,0,0,.58.628,5.046,5.046,0,0,1,1.183,2.683C117.528,87.029,115.38,89.291,112.463,89.419Z" transform="translate(-5.761 -8.96)"/>
        <path id="Path_45277" data-name="Path 45277" class="cls-7" d="M97.968,105.9a7.318,7.318,0,0,1-2.273-.76.25.25,0,0,0-.377.105l-.77,1.792s-3.141-1.414-3.3,1.885c-.091,1.924.886,2.618,1.717,2.863a6.461,6.461,0,0,1,2.053.985,3.9,3.9,0,0,0,3.213.828,3.063,3.063,0,0,1,.806-.079c.586.019,1.6-.157,1.484-1.616,0,0-.942-3.769-.628-4.4a5.441,5.441,0,0,0,.082-2.114.174.174,0,0,0-.314-.08,1.382,1.382,0,0,1-1.211.628A2.2,2.2,0,0,1,97.968,105.9Z" transform="translate(-5.761 -8.96)"/>
        <path id="Path_45278" data-name="Path 45278" class="cls-21" d="M97.968,106.055a7.318,7.318,0,0,1-2.273-.76.25.25,0,0,0-.377.105l-.77,1.792s-3.141-1.414-3.3,1.885c-.091,1.924.886,2.618,1.717,2.863a6.461,6.461,0,0,1,2.053.985,3.9,3.9,0,0,0,3.213.828,3.063,3.063,0,0,1,.806-.079c.586.019,1.6-.157,1.484-1.616,0,0-.942-3.769-.628-4.4a5.441,5.441,0,0,0,.082-2.114.174.174,0,0,0-.314-.08,1.382,1.382,0,0,1-1.211.628,2.2,2.2,0,0,1-.484-.039Z" transform="translate(-5.761 -8.96)"/>
        <path id="Path_45279" data-name="Path 45279" class="cls-7" d="M114.379,105.9a7.318,7.318,0,0,0,2.273-.76.25.25,0,0,1,.377.105l.765,1.792s3.141-1.414,3.3,1.885c.091,1.924-.886,2.618-1.717,2.863a6.461,6.461,0,0,0-2.042.988,3.9,3.9,0,0,1-3.213.828,3.063,3.063,0,0,0-.806-.079c-.586.019-1.6-.157-1.484-1.616,0,0,.942-3.769.628-4.4a5.441,5.441,0,0,1-.082-2.114.174.174,0,0,1,.314-.08,1.382,1.382,0,0,0,1.211.628A2.2,2.2,0,0,0,114.379,105.9Z" transform="translate(-5.761 -8.96)"/>
        <path id="Path_45280" data-name="Path 45280" class="cls-21" d="M114.379,106.055a7.318,7.318,0,0,0,2.273-.76.25.25,0,0,1,.377.105l.765,1.792s3.141-1.414,3.3,1.885c.091,1.924-.886,2.618-1.717,2.863a6.461,6.461,0,0,0-2.042.988,3.9,3.9,0,0,1-3.213.828,3.063,3.063,0,0,0-.806-.079c-.586.019-1.6-.157-1.484-1.616,0,0,.942-3.769.628-4.4a5.441,5.441,0,0,1-.082-2.114.174.174,0,0,1,.314-.08,1.382,1.382,0,0,0,1.211.628,2.2,2.2,0,0,0,.477-.042Z" transform="translate(-5.761 -8.96)"/>
        <path id="Path_45281" data-name="Path 45281" class="cls-20" d="M86.225,41.071s1.414-4.555-2.356-5.183-2.827,4.869,0,6.911S86.225,41.071,86.225,41.071Z" transform="translate(-5.761 -8.96)"/>
        <path id="Path_45282" data-name="Path 45282" class="cls-7" d="M115.438,77.037c-4.4,7.225-19.161-.942-19.161-.942a1.573,1.573,0,0,1-.592-.817c.121-.382.232-.763.333-1.126a3.242,3.242,0,0,1,3.132-2.376h12.093a3.237,3.237,0,0,1,3.132,2.392,6.848,6.848,0,0,0,.77,1.844C115.3,76.644,115.438,77.037,115.438,77.037Z" transform="translate(-5.761 -8.96)"/>
        <path id="Path_45283" data-name="Path 45283" class="cls-18" d="M105.543,42.013H104.6s-.628,2.827-2.67,2.827c-.545,0-1.289-.033-2.09-.083a21.033,21.033,0,0,0-7.127.853,2.648,2.648,0,0,1-2.4-.3c-1.885-1.414-3.926-5.183-3.926-5.183s-3.612-.157-3.769,1.885,1.728,5.811,2.2,6.282.471,3.455,3.769,4.241,5.654,1.1,5.811,5.026,3.3,8.01,1.728,12.565.157,5.5.157,5.5,14.763,8.167,19.161.942c0,0-1.728-4.869,0-7.225s.942-8.167.942-8.167l5.654-5.654s.157-3.612-2.2-5.5a74.368,74.368,0,0,0-7.853-4.869l.55-2.334Z" transform="translate(-5.761 -8.96)"/>
        <path id="Path_45284" data-name="Path 45284" class="cls-7" d="M105.713,37.553c-.119,1.478-.072,3.165,1.021,4.168a4.366,4.366,0,0,0,1.962.911,12.532,12.532,0,0,0,2.263.335,3.42,3.42,0,0,0,2.026-.372c1.2-.774,1.172-2.5,1.652-3.842a24.71,24.71,0,0,1,1.432-2.67,6.21,6.21,0,0,0,.251-5.323,4.508,4.508,0,0,0-4.424-2.646,7.717,7.717,0,0,0-1.728.482c-1.322.484-2.364-.884-3.686-.4-.722.264-3.593.554-3.769,1.414-.209,1.021,2.569,3.567,2.869,4.46A10.331,10.331,0,0,1,105.713,37.553Z" transform="translate(-5.761 -8.96)"/>
        <path id="Path_45285" data-name="Path 45285" class="cls-22" d="M105.87,37.4c-.119,1.478-.072,3.165,1.021,4.168a4.366,4.366,0,0,0,1.962.911,12.532,12.532,0,0,0,2.263.335,3.42,3.42,0,0,0,2.026-.372c1.2-.774,1.172-2.5,1.652-3.842a24.71,24.71,0,0,1,1.432-2.67,6.21,6.21,0,0,0,.251-5.323,4.508,4.508,0,0,0-4.424-2.646,7.716,7.716,0,0,0-1.728.482c-1.322.484-2.364-.884-3.686-.4-.722.264-3.593.554-3.769,1.414-.209,1.021,2.569,3.567,2.869,4.46A10.331,10.331,0,0,1,105.87,37.4Z" transform="translate(-5.761 -8.96)"/>
        <path id="Path_45286" data-name="Path 45286" class="cls-7" d="M103.583,44.053s.942.394,3.612,1.18a7.932,7.932,0,0,0,4.712,0" transform="translate(-5.761 -8.96)"/>
        <path id="Path_45287" data-name="Path 45287" class="cls-7" d="M96.512,66.5s4.4.251,5.811,2.136,1.885,2.513,3.612,2.513a55.293,55.293,0,0,1,8.01.628" transform="translate(-5.761 -8.96)"/>
        <rect id="Rectangle_9053" data-name="Rectangle 9053" class="cls-6" width="2.626" height="3.001" transform="translate(99.964 105.133)"/>
        <rect id="Rectangle_9054" data-name="Rectangle 9054" class="cls-23" width="2.064" height="15.194" transform="translate(116.471 68.18)"/>
        <rect id="Rectangle_9055" data-name="Rectangle 9055" class="cls-23" width="4.501" height="0.562" transform="translate(113.094 83.186)"/>
        <rect id="Rectangle_9056" data-name="Rectangle 9056" class="cls-23" width="2.064" height="15.194" transform="translate(84.207 68.18)"/>
        <rect id="Rectangle_9057" data-name="Rectangle 9057" class="cls-23" width="4.501" height="0.562" transform="translate(84.582 83.186)"/>
        <rect id="Rectangle_9058" data-name="Rectangle 9058" class="cls-6" width="4.314" height="18.384" transform="translate(99.4 84.125)"/>
        <path id="Path_45288" data-name="Path 45288" class="cls-23" d="M107.414,86.493c11.622.405,12.006-4.047,12.006-4.047L118.668,70.1c-.187-19.229-11.255-16.4-11.255-16.4S96.346,50.877,96.159,70.1l-.751,12.346S95.783,86.9,107.414,86.493Z" transform="translate(-5.761 -8.96)"/>
        <path id="Path_45289" data-name="Path 45289" class="cls-24" d="M107.414,86.493c11.622.405,12.006-4.047,12.006-4.047L118.668,70.1c-.187-19.229-11.255-16.4-11.255-16.4S96.346,50.877,96.159,70.1l-.751,12.346S95.783,86.9,107.414,86.493Z" transform="translate(-5.761 -8.96)"/>
        <path id="Path_45290" data-name="Path 45290" class="cls-23" d="M107.1,85.722c11.085.386,11.442-3.859,11.442-3.859L117.827,70.1C117.647,51.768,107.1,54.469,107.1,54.469S96.551,51.768,96.372,70.1l-.715,11.768S96.014,86.109,107.1,85.722Z" transform="translate(-5.761 -8.96)"/>
        <rect id="Rectangle_9059" data-name="Rectangle 9059" class="cls-6" width="4.69" height="8.067" rx="1.963" transform="translate(99.027 71.744)"/>
        <path id="Path_45291" data-name="Path 45291" class="cls-7" d="M109.469,110.814v.655h-4.308v-.65l.375-.1H109.1Z" transform="translate(-5.761 -8.96)"/>
        <path id="Path_45292" data-name="Path 45292" class="cls-6" d="M89.781,117.095s-1.877-1.5,15.762-6.19h3.564s15.189,3.747,15.376,6.19h-2.251s-8.253-2.442-12.006-2.442-15.007.375-18.376,2.439Z" transform="translate(-5.761 -8.96)"/>
        <path id="Path_45293" data-name="Path 45293" class="cls-23" d="M84.749,65.928h.793a2.042,2.042,0,0,1,2.042,2.042v.96H82.707v-.96a2.042,2.042,0,0,1,2.042-2.042Z"/>
        <path id="Path_45294" data-name="Path 45294" class="cls-23" d="M117.008,65.928h.793a2.042,2.042,0,0,1,2.042,2.042v.96h-4.877v-.96a2.042,2.042,0,0,1,2.042-2.042Z"/>
        <circle id="Ellipse_1400" data-name="Ellipse 1400" class="cls-25" cx="1.313" cy="1.313" r="1.313" transform="translate(83.644 108.134)"/>
        <circle id="Ellipse_1401" data-name="Ellipse 1401" class="cls-25" cx="1.313" cy="1.313" r="1.313" transform="translate(99.964 108.134)"/>
        <circle id="Ellipse_1402" data-name="Ellipse 1402" class="cls-25" cx="1.313" cy="1.313" r="1.313" transform="translate(116.471 108.134)"/>
        <rect id="Rectangle_9060" data-name="Rectangle 9060" class="cls-7" width="4.314" height="0.751" transform="translate(99.4 84.125)"/>
        <path id="Path_45295" data-name="Path 45295" class="cls-23" d="M107.414,93.461h12.565l.942-1.875c.562-3.188-1.5-3.377-1.5-3.377H95.408s-2.064.187-1.5,3.377l.942,1.875Z" transform="translate(-5.761 -8.96)"/>
        <path id="Path_45296" data-name="Path 45296" class="cls-24" d="M107.414,93.461h12.565l.942-1.875c.562-3.188-1.5-3.377-1.5-3.377H95.408s-2.064.187-1.5,3.377l.942,1.875Z" transform="translate(-5.761 -8.96)"/>
        <path id="Path_45297" data-name="Path 45297" class="cls-23" d="M107.414,93.461h12.565l.942-1.608c.562-2.733-1.5-2.895-1.5-2.895H95.408s-2.064.157-1.5,2.895l.942,1.608Z" transform="translate(-5.761 -8.96)"/>
        <path id="Path_45298" data-name="Path 45298" class="cls-8" d="M132.714,56.144a1.787,1.787,0,0,0-2.123.785,2.306,2.306,0,0,0,.03,2.219,3.255,3.255,0,0,0,3.157,1.789,2.267,2.267,0,0,0,2.136-2.291,2.356,2.356,0,0,0-3.125-2.513Z" transform="translate(-5.761 -8.96)"/>
        <path id="Path_45299" data-name="Path 45299" class="cls-24" d="M130.927,59.255a2.306,2.306,0,0,1-.03-2.219,1.807,1.807,0,0,1,2.123-.785l.074-.027a2.332,2.332,0,0,1,1.685.038,2.334,2.334,0,0,0-1.988-.19l-.074.027a1.787,1.787,0,0,0-2.123.785,2.306,2.306,0,0,0,.03,2.219,3.446,3.446,0,0,0,1.619,1.534,3.554,3.554,0,0,1-1.316-1.382Z" transform="translate(-5.761 -8.96)"/>
        <path id="Path_45300" data-name="Path 45300" class="cls-26" d="M131.976,56.751s.531.418,1.823,0" transform="translate(-5.761 -8.96)"/>
        <path id="Path_45301" data-name="Path 45301" class="cls-8" d="M131.863,53.714a14.2,14.2,0,0,1,.836,3.114l.721-.075s-1.216-2.164-.911-3.038Z" transform="translate(-5.761 -8.96)"/>
        <path id="Path_45302" data-name="Path 45302" class="cls-26" d="M131.863,53.714a14.2,14.2,0,0,1,.836,3.114l.721-.075s-1.216-2.164-.911-3.038Z" transform="translate(-5.761 -8.96)"/>
        <path id="Path_45303" data-name="Path 45303" class="cls-8" d="M135.582,53.92s-1.434-.733-2.076-.127a4.021,4.021,0,0,0-.74,2.155A2.5,2.5,0,0,0,135.582,53.92Z" transform="translate(-5.761 -8.96)"/>
        <path id="Path_45304" data-name="Path 45304" class="cls-24" d="M135.582,53.92s-1.434-.733-2.076-.127a4.021,4.021,0,0,0-.74,2.155A2.5,2.5,0,0,0,135.582,53.92Z" transform="translate(-5.761 -8.96)"/>
        <path id="Path_45305" data-name="Path 45305" class="cls-27" d="M132.766,55.947a2.906,2.906,0,0,1,2.816-2.028" transform="translate(-5.761 -8.96)"/>
      </g>
    </g>
  </g>
</svg>
