<svg xmlns="http://www.w3.org/2000/svg" xmlns:xlink="http://www.w3.org/1999/xlink" viewBox="0 0 262 147">
  <defs>
    <style>
      .cls-1 {
        fill: #e3f2fd;
      }

      .cls-2 {
        opacity: 0.82;
      }

      .cls-3 {
        fill: rgba(255,255,255,0.8);
      }

      .cls-26, .cls-28, .cls-4, .cls-6 {
        fill: #248dc1;
      }

      .cls-15, .cls-24, .cls-4 {
        opacity: 0.1;
      }

      .cls-5 {
        fill: none;
        stroke: #535461;
        stroke-miterlimit: 10;
        stroke-width: 2px;
      }

      .cls-7 {
        opacity: 0.25;
      }

      .cls-8 {
        fill: url(#linear-gradient);
      }

      .cls-9 {
        fill: #f6f7f9;
      }

      .cls-10, .cls-25, .cls-26 {
        opacity: 0.2;
      }

      .cls-11 {
        fill: #bdbdbd;
      }

      .cls-12 {
        fill: url(#linear-gradient-2);
      }

      .cls-13 {
        fill: #cc818c;
      }

      .cls-14 {
        fill: #444053;
      }

      .cls-16 {
        opacity: 0.05;
      }

      .cls-17 {
        fill: #ff748f;
      }

      .cls-18, .cls-20 {
        fill: #575988;
      }

      .cls-19 {
        fill: #dce6f2;
      }

      .cls-20 {
        opacity: 0.5;
      }

      .cls-21 {
        fill: #67647e;
      }

      .cls-22 {
        fill: #585268;
      }

      .cls-23 {
        fill: #e4aab4;
      }

      .cls-27 {
        fill: #e0e0e0;
      }

      .cls-28 {
        opacity: 0.4;
      }

      .cls-29 {
        fill: #ffd037;
      }

      .cls-30 {
        fill: #65617d;
      }

      .cls-31 {
        fill: #9d9cb5;
      }
    </style>
    <linearGradient id="linear-gradient" x1="0.5" y1="1" x2="0.5" gradientUnits="objectBoundingBox">
      <stop offset="0" stop-color="gray" stop-opacity="0.251"/>
      <stop offset="0.54" stop-color="gray" stop-opacity="0.122"/>
      <stop offset="1" stop-color="gray" stop-opacity="0.102"/>
    </linearGradient>
    <linearGradient id="linear-gradient-2" x1="3.47" y1="1" x2="3.47" xlink:href="#linear-gradient"/>
  </defs>
  <g id="card-2" transform="translate(-412 -501)">
    <path id="Rectangle_7084" data-name="Rectangle 7084" class="cls-1" d="M2,0H260a2,2,0,0,1,2,2V147a0,0,0,0,1,0,0H0a0,0,0,0,1,0,0V2A2,2,0,0,1,2,0Z" transform="translate(412 501)"/>
    <g id="undraw_collection_u2np" class="cls-2" transform="translate(463 515)">
      <path id="Path_38779" data-name="Path 38779" class="cls-3" d="M230.09,120.653c-6.661,4.213-15.3,3.939-22.871,1.749s-14.525-6.1-21.9-8.87A77.308,77.308,0,0,0,166.08,109c-9.4-.972-19.9.211-26.448,7.022-7.294,7.586-6.735,21.268,1.155,28.229,4.013,3.542,9.268,5.279,13.85,8.044s8.822,7.357,8.435,12.695c-.361,4.941-4.561,8.733-8.909,11.112-3.359,1.839-7.5,3.846-7.9,7.653-.392,3.685,3.088,6.573,6.41,8.214a39.821,39.821,0,0,0,34.989-.135c3.852-1.941,7.394-4.521,11.433-6.034,10.606-3.972,22.294.027,33.525,1.489a73.933,73.933,0,0,0,28.515-1.876c5.563-1.484,11.146-3.753,15.053-7.98,2.817-3.048,4.569-6.905,6.22-10.713q2.637-6.094,5.068-12.273a28.528,28.528,0,0,0,2.182-7.641c.455-4.794-1.464-9.533-4.076-13.58a40.525,40.525,0,0,0-60.025-9.111" transform="translate(-129.723 -100.753)"/>
      <ellipse id="Ellipse_695" data-name="Ellipse 695" class="cls-4" cx="21.385" cy="4.181" rx="21.385" ry="4.181" transform="translate(0 115.077)"/>
      <ellipse id="Ellipse_696" data-name="Ellipse 696" class="cls-4" cx="44.827" cy="4.181" rx="44.827" ry="4.181" transform="translate(40.087 106.345)"/>
      <path id="Path_38780" data-name="Path 38780" class="cls-5" d="M836.32,427.082s6.284-11.132,15.754-14.336a19.373,19.373,0,0,0,9.81-7.338,32.64,32.64,0,0,0,2.894-5.207" transform="translate(-720.978 -346.325)"/>
      <path id="Path_38781" data-name="Path 38781" class="cls-6" d="M1022.071,362.126c-1.079,1.046-6.1,2.128-6.1,2.128s1.232-4.986,2.311-6.034a2.721,2.721,0,1,1,3.791,3.905Z" transform="translate(-872.325 -310.312)"/>
      <path id="Path_38782" data-name="Path 38782" class="cls-6" d="M1003.088,415.578c-1.473.291-6.278-1.53-6.278-1.53s3.745-3.516,5.219-3.809a2.722,2.722,0,1,1,1.059,5.339Z" transform="translate(-856.184 -354.738)"/>
      <path id="Path_38783" data-name="Path 38783" class="cls-6" d="M946.147,478.239c-1.418-.491-4.648-4.488-4.648-4.488s5.008-1.147,6.428-.655a2.722,2.722,0,0,1-1.78,5.144Z" transform="translate(-809.587 -407.633)"/>
      <path id="Path_38784" data-name="Path 38784" class="cls-6" d="M882.2,513.28c-1.483-.244-5.341-3.638-5.341-3.638s4.744-1.976,6.226-1.733a2.721,2.721,0,1,1-.885,5.369Z" transform="translate(-755.131 -437.048)"/>
      <path id="Path_38785" data-name="Path 38785" class="cls-6" d="M970.23,395.459c0,1.5,2.718,5.862,2.718,5.862s2.724-4.358,2.724-5.861a2.721,2.721,0,1,0-5.442,0Z" transform="translate(-833.791 -340.04)"/>
      <path id="Path_38786" data-name="Path 38786" class="cls-6" d="M899.607,433.715c.449,1.434,4.348,4.78,4.348,4.78s1.3-4.972.846-6.406a2.724,2.724,0,0,0-5.2,1.626Z" transform="translate(-774.185 -371.58)"/>
      <path id="Path_38787" data-name="Path 38787" class="cls-6" d="M837.894,486.937c.2,1.49,3.482,5.448,3.482,5.448s2.117-4.681,1.917-6.171a2.721,2.721,0,0,0-5.394.725Z" transform="translate(-722.287 -416.8)"/>
      <path id="Path_38788" data-name="Path 38788" class="cls-7" d="M1022.071,362.126c-1.079,1.046-6.1,2.128-6.1,2.128s1.232-4.986,2.311-6.034a2.721,2.721,0,1,1,3.791,3.905Z" transform="translate(-872.325 -310.312)"/>
      <path id="Path_38789" data-name="Path 38789" class="cls-7" d="M1003.088,415.578c-1.473.291-6.278-1.53-6.278-1.53s3.745-3.516,5.219-3.809a2.722,2.722,0,1,1,1.059,5.339Z" transform="translate(-856.184 -354.738)"/>
      <path id="Path_38790" data-name="Path 38790" class="cls-7" d="M946.147,478.239c-1.418-.491-4.648-4.488-4.648-4.488s5.008-1.147,6.428-.655a2.722,2.722,0,0,1-1.78,5.144Z" transform="translate(-809.587 -407.633)"/>
      <path id="Path_38791" data-name="Path 38791" class="cls-7" d="M882.2,513.28c-1.483-.244-5.341-3.638-5.341-3.638s4.744-1.976,6.226-1.733a2.721,2.721,0,1,1-.885,5.369Z" transform="translate(-755.131 -437.048)"/>
      <path id="Path_38792" data-name="Path 38792" class="cls-7" d="M970.23,395.459c0,1.5,2.718,5.862,2.718,5.862s2.724-4.358,2.724-5.861a2.721,2.721,0,1,0-5.442,0Z" transform="translate(-833.791 -340.04)"/>
      <path id="Path_38793" data-name="Path 38793" class="cls-7" d="M899.607,433.715c.449,1.434,4.348,4.78,4.348,4.78s1.3-4.972.846-6.406a2.724,2.724,0,0,0-5.2,1.626Z" transform="translate(-774.185 -371.58)"/>
      <path id="Path_38794" data-name="Path 38794" class="cls-7" d="M837.894,486.937c.2,1.49,3.482,5.448,3.482,5.448s2.117-4.681,1.917-6.171a2.721,2.721,0,0,0-5.394.725Z" transform="translate(-722.287 -416.8)"/>
      <path id="Path_38795" data-name="Path 38795" class="cls-5" d="M838.61,376.337s1.235-12.723,8.586-19.49a19.283,19.283,0,0,0,5.987-10.685,32.6,32.6,0,0,0,.537-5.933" transform="translate(-722.907 -295.803)"/>
      <path id="Path_38796" data-name="Path 38796" class="cls-6" d="M935.833,293.532c-.561,1.394-4.714,4.411-4.714,4.411s-.895-5.059-.332-6.459a2.721,2.721,0,0,1,5.041,2.034Z" transform="translate(-800.406 -253.394)"/>
      <path id="Path_38797" data-name="Path 38797" class="cls-6" d="M936.538,346.21c-1.229.865-6.359,1.147-6.359,1.147s2-4.726,3.228-5.6a2.721,2.721,0,1,1,3.13,4.451Z" transform="translate(-800.051 -296.674)"/>
      <path id="Path_38798" data-name="Path 38798" class="cls-6" d="M903.179,426.891c-1.5.126-6.069-2.22-6.069-2.22s4.115-3.077,5.613-3.2a2.721,2.721,0,0,1,.455,5.423Z" transform="translate(-772.191 -364.234)"/>
      <path id="Path_38799" data-name="Path 38799" class="cls-6" d="M861.007,484.359c-1.454.377-6.357-1.163-6.357-1.163s3.535-3.729,4.991-4.106a2.721,2.721,0,1,1,1.366,5.268Z" transform="translate(-736.42 -412.713)"/>
      <path id="Path_38800" data-name="Path 38800" class="cls-6" d="M894.6,347.644c.608,1.374,4.86,4.254,4.86,4.254s.725-5.086.117-6.459a2.722,2.722,0,0,0-4.977,2.206Z" transform="translate(-769.878 -298.827)"/>
      <path id="Path_38801" data-name="Path 38801" class="cls-6" d="M845.562,411.269c.992,1.128,5.913,2.607,5.913,2.607s-.832-5.07-1.823-6.2a2.724,2.724,0,1,0-4.1,3.592Z" transform="translate(-728.189 -351.843)"/>
      <path id="Path_38802" data-name="Path 38802" class="cls-6" d="M810.706,484.939c.788,1.281,5.386,3.57,5.386,3.57s.038-5.137-.748-6.418a2.721,2.721,0,0,0-4.638,2.848Z" transform="translate(-699.06 -414.221)"/>
      <path id="Path_38803" data-name="Path 38803" class="cls-8" d="M281.84,0V111.14h79.937V0Z" transform="translate(-237.438)"/>
      <rect id="Rectangle_6068" data-name="Rectangle 6068" class="cls-9" width="78.535" height="4.236" transform="translate(45.103 0.975)"/>
      <g id="Group_32774" data-name="Group 32774" class="cls-10" transform="translate(45.103 0.975)">
        <rect id="Rectangle_6069" data-name="Rectangle 6069" class="cls-6" width="78.535" height="4.236"/>
      </g>
      <rect id="Rectangle_6070" data-name="Rectangle 6070" class="cls-9" width="78.535" height="104.954" transform="translate(45.103 5.212)"/>
      <circle id="Ellipse_697" data-name="Ellipse 697" class="cls-9" cx="0.718" cy="0.718" r="0.718" transform="translate(46.45 2.374)"/>
      <circle id="Ellipse_698" data-name="Ellipse 698" class="cls-9" cx="0.718" cy="0.718" r="0.718" transform="translate(48.397 2.374)"/>
      <circle id="Ellipse_699" data-name="Ellipse 699" class="cls-9" cx="0.718" cy="0.718" r="0.718" transform="translate(50.344 2.374)"/>
      <g id="Group_32775" data-name="Group 32775" class="cls-10" transform="translate(59.12 11.682)">
        <rect id="Rectangle_6071" data-name="Rectangle 6071" class="cls-6" width="50.5" height="1.977"/>
      </g>
      <rect id="Rectangle_6072" data-name="Rectangle 6072" class="cls-6" width="6.71" height="1.977" transform="translate(102.91 11.682)"/>
      <g id="Group_32776" data-name="Group 32776" transform="translate(52.591 52.087)">
        <rect id="Rectangle_6073" data-name="Rectangle 6073" class="cls-11" width="63.559" height="22.763" transform="translate(0)"/>
      </g>
      <path id="Path_38805" data-name="Path 38805" class="cls-12" d="M117.552,340.14s.671,1.706.43,2.125a3,3,0,0,0,1.747,2.125,16.146,16.146,0,0,1,3.466,2.933,2.206,2.206,0,0,0,1.449,1c.016.2.027.315.027.315l.085.036c-.019.069-.038.142-.057.216-.044.172-.088.354-.129.544-.269,1.227-.432,2.749.112,3.6a2.978,2.978,0,0,1,.2.361,5.932,5.932,0,0,1,.232,3.51s.643,4.43.923,5.148a2.6,2.6,0,0,1-.109,1.59,1.774,1.774,0,0,0-.091.551v1.575a4.883,4.883,0,0,0-.158,1.676c.158.359-.28,1.358-.28,1.358s-1.045,4.35-.6,5.068a5.6,5.6,0,0,1,.4,2.314s.843,6.226,1.166,6.459a3.837,3.837,0,0,1,.682.8s-.573,1.41-.228,1.991a.4.4,0,0,0,.028.043,8.436,8.436,0,0,0-.282.849c-.025.1-.05.222-.072.359a4.57,4.57,0,0,0-.061.8l-.025.022.027.024a1.324,1.324,0,0,0,.052.351c.12.359,1.024.359,1.024.359a19.293,19.293,0,0,1,2.34.819,1.6,1.6,0,0,0,1.215.169,10.831,10.831,0,0,0,4.429-.408c.648-.129.895-.958.1-1.119a1.7,1.7,0,0,1-.3-.09,2.423,2.423,0,0,1-1-.8,20.182,20.182,0,0,0-1.692-1.448,4.94,4.94,0,0,1-1.06-1.067,1.1,1.1,0,0,0-.6-.3.643.643,0,0,0-.134-.8.651.651,0,0,0-.184-.808l-.3-.23.069-.08a.649.649,0,0,0,.06-.764,2.775,2.775,0,0,1-.288-1.27,4.637,4.637,0,0,0-.482-2.155l.241-7.105a10.012,10.012,0,0,1,0-1.156c.039-.44.788-.158.9-.269s.14-.688.462-.849a.9.9,0,0,0,.291-.492,2.85,2.85,0,0,0,.082-1.386.815.815,0,0,1,.148-.63,4.827,4.827,0,0,0,.241-2.114l.556-3.422c.882,2.9,2.006,6.4,2.377,6.655a1.143,1.143,0,0,1,.561,1.037c-.521.64-.315,3.393-.315,3.393s0,7.622.377,8.142a19.5,19.5,0,0,1,1.1,2.114s-2.143,1.89-.473,2.856l.071.807a.246.246,0,0,0-.027.035,1.561,1.561,0,0,0-.315.66l-.011.013h0c-.03.255.082.506.553.611a42.144,42.144,0,0,0,5.062.23l2.206.348s3.781.359,4.206-.808-.331-1.1-.331-1.1h-.03l-1.575-.126a17.83,17.83,0,0,1-2.732-1.3,15.72,15.72,0,0,1-1.635-1.457.638.638,0,0,0-.416.077l-.068-.068-.109-.109.414-.63c.414-.718-1.212-2.076-1.212-2.076s.435-1.676.274-1.755a6.042,6.042,0,0,1-.266-1.6s.4-5.514.235-6.026a.809.809,0,0,1,.191-.687,1.708,1.708,0,0,0,.315-1.07,1.261,1.261,0,0,1,.263-.917c.482-.52,0-2.754,0-2.754l-.4-2.954v-4.692a7.426,7.426,0,0,0-.493-2.642,7.524,7.524,0,0,1-.406-1.82l.134.039a.557.557,0,0,1-.142-.117c-.008-.076-.017-.158-.024-.228a8.772,8.772,0,0,0-1.46-3.759,16.593,16.593,0,0,1,.014-2.557,3.526,3.526,0,0,0,.03-2.634s-.63-7.364-1.024-8.381-.572-7.334.362-7.274,6.957-2.993,6.957-2.993-.15-.239,1.839-1.048a24.1,24.1,0,0,0,4.884-3.323l4.006-4.789a.1.1,0,0,1-.044,0l.082-.027a3.39,3.39,0,0,0,2.1-1.805c.693-1.522-.695-3.581-1.6-4.506l-.868-.466c-.232.191-.147,1.03-.525,1.93a20.606,20.606,0,0,0-.788,2.458l-.041.158-.038-.069-2.106,1.668-1.988,1.616a47.964,47.964,0,0,0-4.941,2.664c-.542.539-.723.389-1.2.509s-.544.449-.693.419-.422.419-.63.359-.662.18-.964.239-2.442.967-2.442.967c-1.326-.659-4.911-.389-4.911-.389s-1.175-.688-1.506,0a1.137,1.137,0,0,1-1.024.659l-1.429-.608a.407.407,0,0,1,.011-.115v-.024c.011-.09.025-.175.039-.257a4.747,4.747,0,0,0,1.64-7.739l-.124-.12a2.084,2.084,0,0,0,.411-.255.219.219,0,0,0,.088-.112.124.124,0,0,0-.013-.095.285.285,0,0,0-.158-.175c-.435-.235-.915-.158-1.292-.534a.844.844,0,0,1-.2-.3.591.591,0,0,1,0-.38c.106-.28.446-.473.425-.775h-.014v-.052a2.678,2.678,0,0,1-1.125.192l.071-.315h.027l.038-.167-.027.008.011-.054-1.059.284a.266.266,0,0,1-.238-.014.4.4,0,0,1-.082-.165.517.517,0,0,0-.618-.23,2.572,2.572,0,0,0-.63.345,5.754,5.754,0,0,1-2.319.573,3.635,3.635,0,0,0-2.206.846c-.744.766-.734,1.971-1.2,2.93a2.592,2.592,0,0,0-.213.484,1.891,1.891,0,0,0,.013.764,5.609,5.609,0,0,0,.63,2.135l-.043-.05a2.843,2.843,0,0,0,.158.246c.282.4.679.72.98,1.1-.019-.036-.043-.069-.063-.106a2.15,2.15,0,0,1,.394.654c.1.3.126.63.25.911h0a.984.984,0,0,0,.18.3.911.911,0,0,0,.763.262,6.548,6.548,0,0,1-.473.983l-.024.041a.751.751,0,0,0-.236.027,7.921,7.921,0,0,0-1.547,1.093l-2.138,1.891a7.005,7.005,0,0,0-2.5,6.436v1.985a8.379,8.379,0,0,0,0,4.254ZM124.027,322.613ZM122.26,340.17s1.115-.9.723-1.437a1.934,1.934,0,0,1-.187-.945l1.453,3.227s.874,1.407.422,2.035v.011l-1.733-2.017S122.863,340.17,122.26,340.17Z" transform="translate(-115.262 -269.493)"/>
      <path id="Path_38806" data-name="Path 38806" class="cls-13" d="M347.23,317.089l.945,1.845a3.722,3.722,0,0,0,.884-.184,3.354,3.354,0,0,0,2.075-1.794c.848-1.875-1.457-4.569-2.111-4.922s-.358.714-.848,1.891a20.2,20.2,0,0,0-.77,2.442C347.3,316.794,347.23,317.089,347.23,317.089Z" transform="translate(-308.941 -271.991)"/>
      <path id="Path_38807" data-name="Path 38807" class="cls-13" d="M155.69,373.758l1.517,2.261s7.168,3.42,5.8-.594a9,9,0,0,1-.567-3.961.136.136,0,0,0,0-.025,3.184,3.184,0,0,1,.564-1.607s-6.989-3.576-5.949-1.13a3.377,3.377,0,0,1,.258,1.61,5.5,5.5,0,0,1-.753,2.232A7.352,7.352,0,0,1,155.69,373.758Z" transform="translate(-147.577 -319.069)"/>
      <path id="Path_38808" data-name="Path 38808" class="cls-14" d="M163.814,576.418s-1.032,4.321-.6,5.041a5.586,5.586,0,0,1,.4,2.3s.833,6.187,1.152,6.425a3.838,3.838,0,0,1,.674.788s-.567,1.4-.227,1.979a.472.472,0,0,0,.227.2c.531.224,2.494-.77,3.612-1.38a.639.639,0,0,0,.115-1.038.652.652,0,0,0-.183-.8l-.293-.228.068-.08a.652.652,0,0,0,.06-.759,2.741,2.741,0,0,1-.287-1.26,4.633,4.633,0,0,0-.473-2.141l.235-7.066a10.3,10.3,0,0,1,0-1.15c.039-.436.774-.148.893-.268s.137-.684.455-.843a.9.9,0,0,0,.288-.488,2.869,2.869,0,0,0,.08-1.377.811.811,0,0,1,.147-.63,4.858,4.858,0,0,0,.238-2.1l.548-3.4c.871,2.885,1.98,6.36,2.347,6.617a1.154,1.154,0,0,1,.555,1.03c-.515.63-.315,3.373-.315,3.373s0,7.573.372,8.09a20.273,20.273,0,0,1,1.1,2.1s-2.125,1.891-.454,2.845l.017.011c1.706.945,5.237-1.7,5.237-1.7l-.37-.369-.107-.109.41-.63c.41-.714-1.2-2.062-1.2-2.062s.429-1.667.271-1.746a6.092,6.092,0,0,1-.271-1.586s.389-5.473.232-5.987a.808.808,0,0,1,.187-.682,1.7,1.7,0,0,0,.3-1.063,1.257,1.257,0,0,1,.262-.911c.473-.517,0-2.737,0-2.737l-.4-2.935v-4.67a7.424,7.424,0,0,0-.473-2.625,7.926,7.926,0,0,1-.449-2.111,8.943,8.943,0,0,0-1.481-3.8c-.288-.44-.5-.7-.5-.7l-12.688-.5s-.208.564-.408,1.352c-.044.17-.088.351-.129.54-.265,1.219-.425,2.73.112,3.581a3.061,3.061,0,0,1,.2.359,5.924,5.924,0,0,1,.23,3.488s.63,4.4.911,5.115a2.583,2.583,0,0,1-.107,1.575,1.761,1.761,0,0,0-.09.548V573.4a4.822,4.822,0,0,0-.158,1.665C164.25,575.422,163.814,576.418,163.814,576.418Z" transform="translate(-153.528 -476.973)"/>
      <path id="Path_38809" data-name="Path 38809" class="cls-15" d="M163.864,571.587a3.281,3.281,0,0,1,.192.351l.715-.041c-.069-.367.417-3.817.417-3.817l-1.438-.08C163.486,569.226,163.325,570.737,163.864,571.587Z" transform="translate(-154.161 -487.689)"/>
      <path id="Path_38810" data-name="Path 38810" class="cls-14" d="M163.1,570.851a3.066,3.066,0,0,1,.2.359l.715-.041c-.069-.367.416-3.817.416-3.817l-1.438-.082C162.731,568.488,162.57,570,163.1,570.851Z" transform="translate(-153.524 -487.074)"/>
      <path id="Path_38811" data-name="Path 38811" class="cls-16" d="M163.1,570.851a3.066,3.066,0,0,1,.2.359l.715-.041c-.069-.367.416-3.817.416-3.817l-1.438-.082C162.731,568.488,162.57,570,163.1,570.851Z" transform="translate(-153.524 -487.074)"/>
      <path id="Path_38812" data-name="Path 38812" class="cls-15" d="M178.36,786.132a.472.472,0,0,0,.227.2c.531.224,2.494-.77,3.612-1.38a.63.63,0,0,0,.3-.353c-.63-.117-1.054.592-1.054.592a.945.945,0,0,0-1.308.315c-.547.8-1.716.465-1.716.465S178.395,786.036,178.36,786.132Z" transform="translate(-166.675 -670.155)"/>
      <path id="Path_38813" data-name="Path 38813" class="cls-17" d="M175.982,789.228c.12.356,1.011.356,1.011.356a18.854,18.854,0,0,1,2.311.815,1.565,1.565,0,0,0,1.2.167,10.617,10.617,0,0,0,4.372-.4c.633-.128.882-.945.1-1.1a1.618,1.618,0,0,1-.293-.09,2.382,2.382,0,0,1-.975-.788,20.144,20.144,0,0,0-1.67-1.446,4.858,4.858,0,0,1-1.048-1.06c-.931-.822-1.6.315-1.6.315a.945.945,0,0,0-1.308.315c-.547.8-1.716.463-1.716.463s-.21.537-.307.923c-.025.1-.05.221-.072.358A3.1,3.1,0,0,0,175.982,789.228Z" transform="translate(-164.627 -670.819)"/>
      <circle id="Ellipse_700" data-name="Ellipse 700" class="cls-18" cx="0.109" cy="0.109" r="0.109" transform="translate(13.974 115.682)"/>
      <circle id="Ellipse_701" data-name="Ellipse 701" class="cls-18" cx="0.109" cy="0.109" r="0.109" transform="translate(14.905 116.555)"/>
      <circle id="Ellipse_702" data-name="Ellipse 702" class="cls-18" cx="0.109" cy="0.109" r="0.109" transform="translate(15.852 117.338)"/>
      <circle id="Ellipse_703" data-name="Ellipse 703" class="cls-18" cx="0.109" cy="0.109" r="0.109" transform="translate(15.362 116.988)"/>
      <circle id="Ellipse_704" data-name="Ellipse 704" class="cls-18" cx="0.109" cy="0.109" r="0.109" transform="translate(14.42 116.09)"/>
      <path id="Path_38814" data-name="Path 38814" class="cls-19" d="M175.982,803.511c.12.356,1.011.356,1.011.356a18.843,18.843,0,0,1,2.311.815,1.564,1.564,0,0,0,1.2.167,10.615,10.615,0,0,0,4.372-.4c.633-.128.882-.945.1-1.1a1.628,1.628,0,0,1-.293-.09,7.665,7.665,0,0,1-2.146.406c-1.616.069-2.9,0-2.9,0l-1.635-.526a2.76,2.76,0,0,0-1.011-.365,2.626,2.626,0,0,1-1-.436A3.1,3.1,0,0,0,175.982,803.511Z" transform="translate(-164.627 -685.102)"/>
      <path id="Path_38815" data-name="Path 38815" class="cls-20" d="M179.953,808.43a1.374,1.374,0,0,0,.271-.027l-.024-.117a1.733,1.733,0,0,1-.98-.137c-.147-.057-.291-.126-.433-.192-.167-.079-.34-.158-.517-.225l-.158-.057c-.088-.03-.18-.06-.265-.1-.05-.02-.1-.044-.147-.068a1.629,1.629,0,0,0-.367-.139,1.752,1.752,0,0,0-.2-.027,1.658,1.658,0,0,1-.181-.022,1.6,1.6,0,0,1-.343-.128,1.723,1.723,0,0,0-.369-.137l-.088-.014a.419.419,0,0,1-.255-.094l-.088.08a.519.519,0,0,0,.325.131l.083.014a1.793,1.793,0,0,1,.343.128,1.642,1.642,0,0,0,.369.137,1.708,1.708,0,0,0,.2.024,1.687,1.687,0,0,1,.186.025,1.482,1.482,0,0,1,.34.131c.049.024.1.047.15.068.09.039.184.071.274.1l.158.055c.172.063.342.143.507.221s.29.137.441.2A2.116,2.116,0,0,0,179.953,808.43Z" transform="translate(-164.527 -688.995)"/>
      <path id="Path_38816" data-name="Path 38816" class="cls-15" d="M176.993,684.118a2.913,2.913,0,0,0-2.231-1.18,8.315,8.315,0,0,1-2.012-.157,5.037,5.037,0,0,0,1.527.6A26.745,26.745,0,0,1,176.993,684.118Z" transform="translate(-161.949 -584.387)"/>
      <path id="Path_38817" data-name="Path 38817" class="cls-15" d="M186.2,689.815a3.323,3.323,0,0,0-1.169-.536c-.425-.021-.788-.06-.788-.06a2.292,2.292,0,0,0,.654.315C185.245,689.642,186.2,689.815,186.2,689.815Z" transform="translate(-171.629 -589.812)"/>
      <path id="Path_38818" data-name="Path 38818" class="cls-15" d="M189.61,695.3s-1.12.088-1.13.386" transform="translate(-175.201 -594.934)"/>
      <path id="Path_38819" data-name="Path 38819" class="cls-15" d="M251.868,577.947a4.427,4.427,0,0,1-1.13-1.457,1.016,1.016,0,0,0-.436-.64s-.644.258-.069,1.049A3.182,3.182,0,0,0,251.868,577.947Z" transform="translate(-227.024 -494.302)"/>
      <path id="Path_38820" data-name="Path 38820" class="cls-15" d="M163.816,368.7c.228.539.429.58.386,1.1a3.947,3.947,0,0,0,.907.714c.709.421,1.481,1.245,2.363,1.245a4.689,4.689,0,0,0,1.733-.326,3.184,3.184,0,0,1,.564-1.607S162.776,366.255,163.816,368.7Z" transform="translate(-154.334 -319.067)"/>
      <path id="Path_38821" data-name="Path 38821" class="cls-13" d="M157.58,335.926a4.726,4.726,0,1,0,4.726-4.726A4.726,4.726,0,0,0,157.58,335.926Z" transform="translate(-149.169 -288.195)"/>
      <path id="Path_38822" data-name="Path 38822" class="cls-15" d="M155.69,393.1l1.517,2.261s7.168,3.42,5.8-.594a9,9,0,0,1-.567-3.961h-.011a3.747,3.747,0,0,0-.143.911c-.022.618-.038,1.4-1.575,1.656a4.277,4.277,0,0,1-4.164-1.481A7.349,7.349,0,0,1,155.69,393.1Z" transform="translate(-147.577 -338.414)"/>
      <path id="Path_38823" data-name="Path 38823" class="cls-15" d="M347.23,340.429l.945,1.845a3.722,3.722,0,0,0,.884-.184l.082-.1c-.386.148-1.7-2.321-1.7-2.321l-.041.033C347.3,340.135,347.23,340.429,347.23,340.429Z" transform="translate(-308.941 -295.331)"/>
      <path id="Path_38824" data-name="Path 38824" class="cls-15" d="M165.13,556.622c3.061,1.328,13.653.2,13.653.2a1.345,1.345,0,0,1-.054-.346c-.288-.44-.5-.7-.5-.7l-12.689-.5S165.33,555.834,165.13,556.622Z" transform="translate(-155.529 -476.965)"/>
      <path id="Path_38825" data-name="Path 38825" class="cls-21" d="M132.66,348.48l1.418.6a1.122,1.122,0,0,0,1.011-.655c.328-.684,1.487,0,1.487,0s3.54-.268,4.848.388c0,0,2.113-.893,2.41-.945s.744-.3.945-.238.473-.388.63-.358.208-.3.685-.416.654.03,1.189-.506a47.259,47.259,0,0,1,4.884-2.647l1.95-1.613,2.081-1.665s1.309,2.469,1.7,2.319l-3.956,4.759a23.962,23.962,0,0,1-4.819,3.308c-1.963.81-1.813,1.04-1.813,1.04s-5.949,3.034-6.872,2.974-.744,6.217-.356,7.228,1.015,8.321,1.015,8.321a3.519,3.519,0,0,1-.03,2.618,14.906,14.906,0,0,0,0,2.587s-10.658,1.141-13.683-.208c0,0-.446-4.937,0-5.561s-.416-2.023-.416-2.023l-1.9-4.254-4.64-4.67a6.985,6.985,0,0,1,2.469-6.395L125,350.6a7.838,7.838,0,0,1,1.527-1.087c.345-.065.219,0,.219,0a4.261,4.261,0,0,0,4.2,1.533c1.531-.258,1.549-1.04,1.575-1.656A3.822,3.822,0,0,1,132.66,348.48Z" transform="translate(-117.809 -295.971)"/>
      <path id="Path_38826" data-name="Path 38826" class="cls-15" d="M161.55,493.16s6.543.268,7.852,2.321a6.45,6.45,0,0,0-3.212-.566C164.673,495.153,161.55,493.16,161.55,493.16Z" transform="translate(-152.513 -424.64)"/>
      <path id="Path_38827" data-name="Path 38827" class="cls-15" d="M183.873,530.707s-3.093.208-3.748-.446-.655-1.041-.655-1.041Z" transform="translate(-167.61 -455.019)"/>
      <path id="Path_38828" data-name="Path 38828" class="cls-15" d="M154.556,453.14s2.618,3.093-.566,4.432Z" transform="translate(-146.144 -390.925)"/>
      <path id="Path_38829" data-name="Path 38829" class="cls-15" d="M248.307,415.19s-.945,1.943-1.427,2.072Z" transform="translate(-224.4 -358.954)"/>
      <path id="Path_38830" data-name="Path 38830" class="cls-15" d="M261.225,409.9a35.6,35.6,0,0,1-2.825,2.351A19.747,19.747,0,0,1,261.225,409.9Z" transform="translate(-234.105 -354.497)"/>
      <path id="Path_38831" data-name="Path 38831" class="cls-15" d="M216.11,396.88s2.289,3.42.8,5.5A7.384,7.384,0,0,0,216.11,396.88Z" transform="translate(-198.478 -343.528)"/>
      <path id="Path_38832" data-name="Path 38832" class="cls-13" d="M179.47,551.143l.7.659.1.091.811.766c.058.044.115.088.172.128,3.3,2.363,3.962-1.227,3.962-1.227s1.457.945,1.665.178-3.386-1.873-3.926-1.813a.633.633,0,0,1-.143,0,2.335,2.335,0,0,1-.739-.262l-.158-.087c-.3-.169-.534-.336-.534-.336Z" transform="translate(-167.61 -471.885)"/>
      <path id="Path_38833" data-name="Path 38833" class="cls-15" d="M156.83,335.877a4.726,4.726,0,0,0,2.31,4.065,2.7,2.7,0,0,0,.173-.343c.17-.4.273-.819.444-1.215a3.75,3.75,0,0,1,.8-1.158.5.5,0,0,1,.21-.145.575.575,0,0,1,.435.12,1.984,1.984,0,0,0,.659.29.709.709,0,0,0,.662-.2,1,1,0,0,0,.106-.826,10.057,10.057,0,0,1-.315-1.846,1.81,1.81,0,0,1,.788-1.61,6.6,6.6,0,0,1,1.609-.351,1.919,1.919,0,0,0,.243-.083,4.726,4.726,0,0,0-8.115,3.308Z" transform="translate(-148.537 -288.146)"/>
      <path id="Path_38834" data-name="Path 38834" class="cls-22" d="M154.086,322.026c.087.046.18.128.158.222a.213.213,0,0,1-.087.11,2.038,2.038,0,0,1-.748.384,6.692,6.692,0,0,0-1.61.35,1.831,1.831,0,0,0-.788,1.61,9.777,9.777,0,0,0,.315,1.846.992.992,0,0,1-.1.826.706.706,0,0,1-.662.2,1.97,1.97,0,0,1-.66-.288.573.573,0,0,0-.433-.121.54.54,0,0,0-.211.145,3.782,3.782,0,0,0-.788,1.16c-.173.394-.276.816-.444,1.213a1.966,1.966,0,0,1-.8.989,1,1,0,0,1-1.191-.126c-.29-.318-.269-.766-.406-1.155-.236-.674-.9-1.1-1.309-1.679a5.217,5.217,0,0,1-.715-2.27,1.87,1.87,0,0,1-.013-.759,2.772,2.772,0,0,1,.21-.482c.458-.945.451-2.149,1.185-2.91a3.529,3.529,0,0,1,2.174-.841,5.635,5.635,0,0,0,2.289-.569,2.448,2.448,0,0,1,.621-.343.5.5,0,0,1,.608.228.408.408,0,0,0,.082.165.257.257,0,0,0,.233.013l1.048-.28-.12.528a2.6,2.6,0,0,0,1.1-.191c.02.3-.315.492-.421.77a.714.714,0,0,0,.2.725C153.184,321.865,153.658,321.8,154.086,322.026Z" transform="translate(-137.358 -278.35)"/>
      <path id="Path_38835" data-name="Path 38835" class="cls-15" d="M237.31,778.05l.043.473.017.011c1.706.945,5.237-1.7,5.237-1.7l-.37-.369a.654.654,0,0,0-.158.5l-.72.039-.863.931a16.214,16.214,0,0,1-2.963.12Z" transform="translate(-216.338 -663.308)"/>
      <path id="Path_38836" data-name="Path 38836" class="cls-17" d="M236.257,780.591a41.344,41.344,0,0,0,5,.228l2.18.347s3.737.356,4.153-.8-.328-1.09-.328-1.09h-.028l-1.557-.126a17.528,17.528,0,0,1-2.7-1.29,15.712,15.712,0,0,1-1.616-1.448s-.649-.126-.638.63l-.72.039-.863.933a16.256,16.256,0,0,1-2.963.118h-.219l.1,1.15-.028.035C235.887,779.488,235.266,780.365,236.257,780.591Z" transform="translate(-214.987 -663.257)"/>
      <circle id="Ellipse_705" data-name="Ellipse 705" class="cls-18" cx="0.109" cy="0.109" r="0.109" transform="translate(25.186 114.332)"/>
      <circle id="Ellipse_706" data-name="Ellipse 706" class="cls-18" cx="0.109" cy="0.109" r="0.109" transform="translate(27.983 115.545)"/>
      <circle id="Ellipse_707" data-name="Ellipse 707" class="cls-18" cx="0.109" cy="0.109" r="0.109" transform="translate(29.423 115.982)"/>
      <circle id="Ellipse_708" data-name="Ellipse 708" class="cls-18" cx="0.109" cy="0.109" r="0.109" transform="translate(27.249 115.314)"/>
      <circle id="Ellipse_709" data-name="Ellipse 709" class="cls-18" cx="0.109" cy="0.109" r="0.109" transform="translate(28.706 115.764)"/>
      <circle id="Ellipse_710" data-name="Ellipse 710" class="cls-18" cx="0.109" cy="0.109" r="0.109" transform="translate(26.507 114.969)"/>
      <circle id="Ellipse_711" data-name="Ellipse 711" class="cls-18" cx="0.109" cy="0.109" r="0.109" transform="translate(25.774 114.65)"/>
      <path id="Path_38837" data-name="Path 38837" class="cls-19" d="M236.257,795.944a41.36,41.36,0,0,0,5,.228l2.18.347s3.737.356,4.153-.8-.328-1.09-.328-1.09h-.028a2.009,2.009,0,0,1-1.656.676l-2.688.109-2.785-.2s-2.607-.079-3.033-.167a6.249,6.249,0,0,1-1.04-.383C235.887,794.842,235.266,795.719,236.257,795.944Z" transform="translate(-214.987 -678.611)"/>
      <path id="Path_38838" data-name="Path 38838" class="cls-20" d="M243.219,799.583a1.707,1.707,0,0,0,.441-.055l-.032-.115a2.162,2.162,0,0,1-1.1-.05c-.132-.033-.263-.073-.392-.112a6.117,6.117,0,0,0-.726-.183,6.039,6.039,0,0,0-1.2-.035h-.085a18.554,18.554,0,0,1-3.571-.158,1.352,1.352,0,0,1-.763-.306l-.085.082a1.434,1.434,0,0,0,.829.34,18.434,18.434,0,0,0,3.6.157h.085a5.912,5.912,0,0,1,1.18.035,5.785,5.785,0,0,1,.711.18c.132.039.265.077.4.112A2.913,2.913,0,0,0,243.219,799.583Z" transform="translate(-214.981 -681.935)"/>
      <path id="Path_38839" data-name="Path 38839" class="cls-15" d="M179.47,551.135l.7.659,1.733-2.228c-.3-.169-.534-.336-.534-.336Z" transform="translate(-167.61 -471.876)"/>
      <path id="Path_38840" data-name="Path 38840" class="cls-21" d="M120.64,445.4l-1.367,1.9V449.3a8.265,8.265,0,0,0,0,4.224l-.069,1.843s.663,1.7.425,2.113a2.988,2.988,0,0,0,1.725,2.111,15.955,15.955,0,0,1,3.42,2.922,2.331,2.331,0,0,0,2.529,1.011l1.755.744,2.023-2.587-2.737-1.487s-.945-1.279-1.517-1.219l-2.319-2.714s-.058-.863-.654-.863c0,0,1.1-.892.714-1.427s-.06-2.915-.06-2.915Z" transform="translate(-116.66 -384.404)"/>
      <path id="Path_38841" data-name="Path 38841" class="cls-15" d="M126.735,500.167s-3.124-.058-3.51.744S125.783,499.722,126.735,500.167Z" transform="translate(-120.197 -430.488)"/>
      <path id="Path_38842" data-name="Path 38842" class="cls-15" d="M184.45,553.987a.856.856,0,0,0,.013.158,1.051,1.051,0,0,0,.983.893h.057a1.049,1.049,0,0,0,1.049-1.051,1.026,1.026,0,0,0-.058-.342,1.806,1.806,0,0,0,.51-1.473,2.333,2.333,0,0,1-.739-.261,4.918,4.918,0,0,1-.518,1.056,1.048,1.048,0,0,0-1.3,1.021Z" transform="translate(-171.805 -474.134)"/>
      <path id="Path_38843" data-name="Path 38843" class="cls-18" d="M192.122,550.43s.7.158.7.287.158,1.29-.616,1.766-.693-.665-.693-.665S192.182,550.8,192.122,550.43Z" transform="translate(-177.757 -472.887)"/>
      <circle id="Ellipse_712" data-name="Ellipse 712" class="cls-23" cx="1.051" cy="1.051" r="1.051" transform="translate(12.526 78.801)"/>
      <circle id="Ellipse_713" data-name="Ellipse 713" class="cls-19" cx="0.903" cy="0.903" r="0.903" transform="translate(12.674 78.95)"/>
      <path id="Path_38844" data-name="Path 38844" class="cls-15" d="M189.216,567.67a5.2,5.2,0,0,1-5.076.674v.893s1.9,1.308,3.623.515S189.216,567.67,189.216,567.67Z" transform="translate(-171.544 -487.411)"/>
      <path id="Path_38845" data-name="Path 38845" class="cls-15" d="M189.216,566.16a5.206,5.206,0,0,1-5.076.674v.892s1.9,1.309,3.623.517S189.216,566.16,189.216,566.16Z" transform="translate(-171.544 -486.139)"/>
      <path id="Path_38846" data-name="Path 38846" class="cls-14" d="M189.216,566.16a5.206,5.206,0,0,1-5.076.674v.892s1.9,1.309,3.623.517S189.216,566.16,189.216,566.16Z" transform="translate(-171.544 -486.139)"/>
      <path id="Path_38847" data-name="Path 38847" class="cls-16" d="M188.856,566.16a5.206,5.206,0,0,1-5.076.674v.892s1.9,1.309,3.623.517S188.856,566.16,188.856,566.16Z" transform="translate(-171.241 -486.139)"/>
      <path id="Path_38848" data-name="Path 38848" class="cls-15" d="M241.527,776.41s-2.974.547-3.411.665.12.328.12.328A12.172,12.172,0,0,0,241.527,776.41Z" transform="translate(-216.876 -663.266)"/>
      <path id="Path_38849" data-name="Path 38849" class="cls-15" d="M248.008,758.348c-.049,0-2.021-.556-2.448-1.508" transform="translate(-223.288 -646.779)"/>
      <path id="Path_38850" data-name="Path 38850" class="cls-15" d="M235.18,694.154s-.8,1.051-1.315,1.022S234.71,694.115,235.18,694.154Z" transform="translate(-213.338 -593.968)"/>
      <path id="Path_38851" data-name="Path 38851" class="cls-15" d="M235.543,705.24s-.337.744-.833.506" transform="translate(-214.148 -603.308)"/>
      <path id="Path_38852" data-name="Path 38852" class="cls-16" d="M216.473,601.547l-2.109,5.563s-.3-3.579.331-4.651A1.861,1.861,0,0,1,216.473,601.547Z" transform="translate(-196.947 -515.944)"/>
      <g id="Group_32777" data-name="Group 32777" class="cls-24" transform="translate(6.814 41.357)">
        <path id="Path_38853" data-name="Path 38853" d="M195.17,320.912l.019-.08.339-.091-.038.167a2.708,2.708,0,0,1-.32,0Z" transform="translate(-187.65 -320.74)"/>
        <path id="Path_38854" data-name="Path 38854" d="M199.648,324.061l-.035-.033a.711.711,0,0,1-.2-.725,1.008,1.008,0,0,1,.169-.268,2.636,2.636,0,0,0,.488-.145c.02.3-.315.492-.419.77A.6.6,0,0,0,199.648,324.061Z" transform="translate(-191.197 -322.551)"/>
        <path id="Path_38855" data-name="Path 38855" d="M159.34,343.71a1.964,1.964,0,0,0,.788-.989c.169-.4.273-.818.444-1.213a3.755,3.755,0,0,1,.788-1.158.509.509,0,0,1,.211-.145.57.57,0,0,1,.435.12,1.949,1.949,0,0,0,.659.288.7.7,0,0,0,.662-.2,1,1,0,0,0,.1-.827,10.172,10.172,0,0,1-.315-1.846,1.815,1.815,0,0,1,.78-1.609,6.619,6.619,0,0,1,1.61-.351,2.035,2.035,0,0,0,.748-.383l.041-.038a1.1,1.1,0,0,1,.131.061c.085.046.178.128.158.222a.23.23,0,0,1-.088.11,2.038,2.038,0,0,1-.748.384,6.62,6.62,0,0,0-1.61.35,1.807,1.807,0,0,0-.78,1.61,10.311,10.311,0,0,0,.315,1.846.992.992,0,0,1-.1.826.706.706,0,0,1-.662.2,1.98,1.98,0,0,1-.659-.288.578.578,0,0,0-.435-.121.525.525,0,0,0-.211.145,3.781,3.781,0,0,0-.788,1.159c-.172.394-.276.816-.444,1.213a1.962,1.962,0,0,1-.788.988,1,1,0,0,1-1.193-.126.953.953,0,0,1-.178-.3A1.021,1.021,0,0,0,159.34,343.71Z" transform="translate(-156.513 -333.057)"/>
        <path id="Path_38856" data-name="Path 38856" d="M148.565,371.624c-.3-.375-.688-.7-.967-1.092a2.622,2.622,0,0,1-.158-.243A9.783,9.783,0,0,1,148.565,371.624Z" transform="translate(-147.44 -362.484)"/>
      </g>
      <g id="Group_32778" data-name="Group 32778" class="cls-24" transform="translate(45.103 18.376)">
        <path id="Path_38857" data-name="Path 38857" class="cls-25" d="M327.573,138.965,286.29,147.2V123.985l36.832-7.345Z" transform="translate(-286.29 -116.64)"/>
      </g>
      <g id="Group_32779" data-name="Group 32779" class="cls-10" transform="translate(52.589 22.559)">
        <rect id="Rectangle_6074" data-name="Rectangle 6074" class="cls-26" width="63.559" height="22.763" transform="translate(0.002)"/>
        <path id="Path_38858" data-name="Path 38858" class="cls-6" d="M501.561,201.43h-1.89v.158h1.89Zm-3.781,0h-1.891v.158h1.891Zm-3.781,0h-1.891v.158H494Zm-3.781,0h-1.891v.158h1.891Zm-3.781,0h-1.89v.158h1.89Zm-3.781,0h-1.891v.158h1.891Zm-3.781,0h-1.891v.158h1.891Zm-3.781,0H473.2v.158h1.891Zm-3.781,0h-1.891v.158h1.891Zm-3.781,0h-1.891v.158h1.891Zm-3.781,0H461.86v.158h1.891Zm-3.781,0h-1.89v.158h1.89Zm-3.781,0H454.3v.158h1.891Zm-3.781,0h-1.891v.158h1.891Zm-3.781,0h-1.891v.158h1.891Zm-3.781,0h-1.891v.158h1.891Zm-3.781,0h-1.891v.158h1.891Zm-2.907.72H438v1.891h.158Zm0,3.781H438v1.891h.158Zm0,3.781H438V211.6h.158Zm0,3.781H438v1.891h.158Zm0,3.781H438v1.891h.158Zm0,3.781H438v1.891h.158Zm2.373,2.982H438.64v.158h1.891Zm3.781,0h-1.891v.158h1.891Zm3.781,0H446.2v.158h1.89Zm3.781,0h-1.891v.158h1.891Zm3.781,0h-1.891v.158h1.891Zm3.781,0h-1.891v.158h1.891Zm3.781,0h-1.891v.158h1.891Zm3.781,0h-1.89v.158H467Zm3.781,0h-1.891v.158h1.891Zm3.781,0h-1.891v.158h1.891Zm3.781,0H476.45v.158h1.891Zm3.781,0h-1.891v.158h1.891Zm3.781,0h-1.891v.158H485.9Zm3.781,0h-1.891v.158h1.891Zm3.781,0h-1.891v.158h1.891Zm3.781,0h-1.89v.158h1.89Zm3.781,0h-1.891v.158h1.891Zm.532-3.091H501.4v1.891h.158Zm0-3.781H501.4v1.891h.158Zm0-3.781H501.4v1.891h.158Zm0-3.781H501.4v1.891h.158Zm0-3.781H501.4v1.891h.158Zm0-3.781H501.4v1.891h.158Z" transform="translate(-438 -201.428)"/>
      </g>
      <g id="Group_32780" data-name="Group 32780" transform="translate(52.591 81.231)">
        <path id="Path_42530" data-name="Path 42530" class="cls-27" d="M0,0H63.559V3.358H0Z" transform="translate(0)"/>
      </g>
      <g id="Group_34440" data-name="Group 34440" transform="translate(52.591 87.765)">
        <path id="Path_42530-2" data-name="Path 42530" class="cls-27" d="M0,0H63.559V3.358H0Z" transform="translate(0)"/>
      </g>
      <g id="Group_34441" data-name="Group 34441" transform="translate(52.591 94.298)">
        <path id="Path_42530-3" data-name="Path 42530" class="cls-27" d="M0,0H63.559V3.358H0Z" transform="translate(0)"/>
      </g>
      <g id="Group_34442" data-name="Group 34442" transform="translate(52.591 100.832)">
        <path id="Path_42530-4" data-name="Path 42530" class="cls-27" d="M0,0H63.559V3.358H0Z" transform="translate(0)"/>
      </g>
      <rect id="Rectangle_6076" data-name="Rectangle 6076" class="cls-9" width="63.559" height="22.763" transform="matrix(0.981, -0.196, 0.196, 0.981, 16.955, 29.248)"/>
      <rect id="Rectangle_6077" data-name="Rectangle 6077" class="cls-28" width="63.559" height="22.763" transform="matrix(0.981, -0.196, 0.196, 0.981, 16.955, 29.248)"/>
      <path id="Path_38877" data-name="Path 38877" class="cls-15" d="M338.353,298.73a.726.726,0,0,1,.115.15c.866.685,1.4,1.382.723,1.534-.63.145-1.156,1.418-1.281,1.741.011.021.022.041.035.06s.592-1.648,1.308-1.812S339.322,299.458,338.353,298.73Z" transform="translate(-301.089 -260.841)"/>
      <path id="Path_38878" data-name="Path 38878" class="cls-9" d="M345.719,301.39c.038.184.046.339.021.343s-.076-.14-.113-.326,0-.1.033-.107S345.682,301.211,345.719,301.39Z" transform="translate(-307.576 -262.986)"/>
      <path id="Path_38882" data-name="Path 38882" class="cls-9" d="M323.284,305.892c.036.184.088.331.113.325s.016-.158-.02-.343-.046-.093-.071-.087S323.248,305.707,323.284,305.892Z" transform="translate(-288.754 -266.761)"/>
      <path id="Path_38883" data-name="Path 38883" class="cls-9" d="M321.4,307.719c.181.057.332.082.34.057s-.132-.09-.315-.147-.1,0-.11.02S321.227,307.667,321.4,307.719Z" transform="translate(-287.089 -268.317)"/>
      <path id="Path_38888" data-name="Path 38888" class="cls-6" d="M1019.234,692.73s1.125,1.47-.518,3.688-2.993,4.1-2.45,5.476c0,0,2.478-4.121,4.5-4.178S1021.454,695.208,1019.234,692.73Z" transform="translate(-872.472 -592.769)"/>
      <path id="Path_38889" data-name="Path 38889" class="cls-15" d="M1019.568,692.73a1.81,1.81,0,0,1,.23.46c1.969,2.313,3.017,4.471,1.125,4.526-1.763.05-3.877,3.2-4.383,4a1.438,1.438,0,0,0,.06.181s2.478-4.121,4.5-4.178S1021.788,695.208,1019.568,692.73Z" transform="translate(-872.806 -592.769)"/>
      <path id="Path_38890" data-name="Path 38890" class="cls-29" d="M1047.61,702.847c0,.517-.058.936-.131.936s-.129-.419-.129-.936.073-.274.143-.274S1047.61,702.328,1047.61,702.847Z" transform="translate(-898.762 -601.013)"/>
      <path id="Path_38891" data-name="Path 38891" class="cls-29" d="M1048.832,706.644c-.455.247-.851.4-.885.334s.315-.315.761-.562.276-.066.315,0S1049.286,706.4,1048.832,706.644Z" transform="translate(-899.263 -604.192)"/>
      <path id="Path_38892" data-name="Path 38892" class="cls-6" d="M984.587,692.73s-1.123,1.47.52,3.688,2.993,4.1,2.45,5.476c0,0-2.478-4.121-4.5-4.178S982.37,695.208,984.587,692.73Z" transform="translate(-843.763 -592.769)"/>
      <path id="Path_38893" data-name="Path 38893" class="cls-15" d="M984.587,692.73a1.845,1.845,0,0,0-.228.46c-1.969,2.313-3.017,4.471-1.125,4.526,1.761.05,3.877,3.2,4.383,4a1.725,1.725,0,0,1-.06.181s-2.478-4.121-4.5-4.178S982.37,695.208,984.587,692.73Z" transform="translate(-843.763 -592.769)"/>
      <path id="Path_38894" data-name="Path 38894" class="cls-29" d="M984.81,702.847c0,.517.058.936.129.936s.131-.419.131-.936-.073-.274-.145-.274S984.81,702.328,984.81,702.847Z" transform="translate(-846.075 -601.013)"/>
      <path id="Path_38895" data-name="Path 38895" class="cls-29" d="M978.76,706.644c.454.247.851.4.884.334s-.306-.315-.759-.562-.276-.066-.315,0S978.307,706.4,978.76,706.644Z" transform="translate(-840.742 -604.192)"/>
      <ellipse id="Ellipse_721" data-name="Ellipse 721" class="cls-4" cx="11.753" cy="1.804" rx="11.753" ry="1.804" transform="translate(132.042 116.763)"/>
      <path id="Path_38896" data-name="Path 38896" class="cls-30" d="M990.607,734.64l-.057.458-.079.649-.033.269-.079.649-.035.271-.083.644-.9,7.373c-.08.659-1.155,1.171-2.453,1.171h-4.673c-1.3,0-2.373-.512-2.453-1.171l-.895-7.373-.08-.648-.031-.271-.08-.649-.033-.269-.079-.649-.057-.458c-.044-.372.537-.687,1.271-.687h9.558C990.069,733.958,990.652,734.273,990.607,734.64Z" transform="translate(-840.763 -627.495)"/>
      <path id="Path_38897" data-name="Path 38897" class="cls-31" d="M886.676,683.01l-.079.648H874.769l-.079-.648Z" transform="translate(-736.888 -575.407)"/>
      <path id="Path_38898" data-name="Path 38898" class="cls-31" d="M887.162,688.84l-.079.649h-11.6l-.08-.649Z" transform="translate(-737.487 -580.318)"/>
      <path id="Path_38899" data-name="Path 38899" class="cls-31" d="M887.655,694.67l-.079.649H876.2l-.079-.649Z" transform="translate(-738.093 -585.229)"/>
    </g>
  </g>
</svg>
