<svg xmlns="http://www.w3.org/2000/svg" xmlns:xlink="http://www.w3.org/1999/xlink" viewBox="0 0 262 147">
  <defs>
    <style>
      .cls-1 {
        fill: #f1fafe;
      }

      .cls-1, .cls-2 {
        opacity: 0.995;
      }

      .cls-2 {
        fill: #e3f2fd;
      }

      .cls-3 {
        clip-path: url(#clip-path);
      }

      .cls-10, .cls-4 {
        fill: #248dc1;
      }

      .cls-17, .cls-4, .cls-9 {
        opacity: 0.1;
      }

      .cls-5 {
        fill: url(#linear-gradient);
      }

      .cls-6 {
        fill: #d38884;
      }

      .cls-7 {
        fill: #444053;
      }

      .cls-8 {
        fill: #b07473;
      }

      .cls-11 {
        fill: #67647e;
      }

      .cls-12 {
        fill: #585268;
      }

      .cls-13 {
        fill: #e1e7ef;
      }

      .cls-14 {
        fill: url(#linear-gradient-2);
      }

      .cls-15 {
        fill: #a27772;
      }

      .cls-16 {
        fill: #cc818c;
      }

      .cls-18 {
        fill: #f6f8fb;
      }

      .cls-19 {
        fill: url(#linear-gradient-3);
      }

      .cls-20 {
        fill: #65617d;
      }

      .cls-21 {
        fill: #fbbebe;
      }

      .cls-22, .cls-29 {
        opacity: 0.05;
      }

      .cls-23 {
        fill: #7c5c5c;
      }

      .cls-24 {
        fill: url(#linear-gradient-4);
      }

      .cls-25 {
        fill: #fdc2cc;
      }

      .cls-26 {
        fill: #d39999;
      }

      .cls-27 {
        fill: #7e5659;
      }

      .cls-28 {
        fill: #865a61;
      }

      .cls-30 {
        fill: url(#linear-gradient-5);
      }

      .cls-31 {
        fill: #fff;
        opacity: 0.5;
      }

      .cls-32 {
        fill: #3f2b3b;
      }

      .cls-33 {
        fill: none;
        stroke: #3f2b3b;
        stroke-miterlimit: 10;
        stroke-width: 0.171px;
      }

      .cls-34 {
        fill: #a8a8a8;
      }

      .cls-35 {
        opacity: 0.2;
      }
    </style>
    <clipPath id="clip-path">
      <path id="Rectangle_8855" data-name="Rectangle 8855" class="cls-1" d="M2,0H218a2,2,0,0,1,2,2V123.435a0,0,0,0,1,0,0H0a0,0,0,0,1,0,0V2A2,2,0,0,1,2,0Z" transform="translate(14266 7100)"/>
    </clipPath>
    <linearGradient id="linear-gradient" x1="0.5" y1="1" x2="0.5" gradientUnits="objectBoundingBox">
      <stop offset="0" stop-color="gray" stop-opacity="0.251"/>
      <stop offset="0.54" stop-color="gray" stop-opacity="0.122"/>
      <stop offset="1" stop-color="gray" stop-opacity="0.102"/>
    </linearGradient>
    <linearGradient id="linear-gradient-2" x1="0.5" x2="0.5" y2="0" xlink:href="#linear-gradient"/>
    <linearGradient id="linear-gradient-3" x1="0.5" x2="0.5" y2="0" xlink:href="#linear-gradient"/>
    <linearGradient id="linear-gradient-4" x1="1.096" x2="1.096" y2="0" xlink:href="#linear-gradient"/>
    <linearGradient id="linear-gradient-5" x1="0.5" x2="0.5" y2="0" xlink:href="#linear-gradient"/>
  </defs>
  <g id="card-14" transform="translate(-412 -1419)">
    <path id="Rectangle_8546" data-name="Rectangle 8546" class="cls-2" d="M2,0H260a2,2,0,0,1,2,2V147a0,0,0,0,1,0,0H0a0,0,0,0,1,0,0V2A2,2,0,0,1,2,0Z" transform="translate(412 1419)"/>
    <g id="Mask_Group_265" data-name="Mask Group 265" class="cls-3" transform="translate(-13833 -5669)">
      <g id="undraw_team_spirit_hrr4" transform="translate(14294.326 7100)">
        <path id="Path_44563" data-name="Path 44563" class="cls-4" d="M7.428,72.952c2.584,10.072,8.056,18.779,16.7,23,17.979,8.771,58.5,4.247,88.749-.945a71.044,71.044,0,0,0,39.388-20.532Z" transform="translate(-5.663 -14.587)"/>
        <path id="Path_44564" data-name="Path 44564" class="cls-4" d="M166.846,14.4h-16.6a1.38,1.38,0,0,1-1.436-1.308,1.38,1.38,0,0,1,1.436-1.308h2.872a1.38,1.38,0,0,1-1.436-1.308,1.378,1.378,0,0,1,1.436-1.307h-2.049a1.38,1.38,0,0,1-1.436-1.308,1.38,1.38,0,0,1,1.436-1.308h8.662a24.541,24.541,0,0,0-6.757-1.7c-23.62-2.767-32.054-.938-35.033.945a34.762,34.762,0,0,1-12.14,4.852C91.232,13.4,63.978,16.693,39.276,9.6,27,6.073,17.874,12.038,12.4,21.99H169.728a21.65,21.65,0,0,0-1.948-7.907A1.5,1.5,0,0,1,166.846,14.4Z" transform="translate(-6.46 -3.444)"/>
        <path id="Path_44565" data-name="Path 44565" class="cls-4" d="M5.682,47.916a60.869,60.869,0,0,0,.645,17.573l145.715,4.859a62.192,62.192,0,0,0,10.124-14.071ZM63.31,60.452H60.439a1.313,1.313,0,1,1,0,2.615H43.85a1.313,1.313,0,1,1,0-2.615h2.872a1.314,1.314,0,1,1,0-2.616H44.67a1.313,1.313,0,1,1,0-2.615h16.6a1.313,1.313,0,1,1,0,2.615H63.31a1.314,1.314,0,1,1,0,2.616Z" transform="translate(-5.326 -10.573)"/>
        <path id="Path_44566" data-name="Path 44566" class="cls-4" d="M168.673,25.638,9.588,29.166A53.432,53.432,0,0,0,5.776,44.144H165.884A57.287,57.287,0,0,0,168.2,34.6,41.353,41.353,0,0,0,168.673,25.638ZM38.077,37.2H35.205a1.314,1.314,0,1,1,0,2.616H18.61a1.314,1.314,0,1,1,0-2.616h2.872a1.313,1.313,0,1,1,0-2.615H19.43a1.314,1.314,0,1,1,0-2.616h16.6a1.314,1.314,0,1,1,0,2.616h2.05a1.313,1.313,0,1,1,0,2.615Z" transform="translate(-5.398 -7.002)"/>
        <ellipse id="Ellipse_1300" data-name="Ellipse 1300" class="cls-4" cx="10.801" cy="2.425" rx="10.801" ry="2.425" transform="translate(84.585 105.249)"/>
        <ellipse id="Ellipse_1301" data-name="Ellipse 1301" class="cls-4" cx="19.486" cy="1.599" rx="19.486" ry="1.599" transform="translate(100.999 113.777)"/>
        <ellipse id="Ellipse_1302" data-name="Ellipse 1302" class="cls-4" cx="19.486" cy="2.425" rx="19.486" ry="2.425" transform="translate(22.759 110.526)"/>
        <ellipse id="Ellipse_1303" data-name="Ellipse 1303" class="cls-4" cx="14.662" cy="2.425" rx="14.662" ry="2.425" transform="translate(57.294 98.386)"/>
        <ellipse id="Ellipse_1304" data-name="Ellipse 1304" class="cls-4" cx="11.738" cy="2.425" rx="11.738" ry="2.425" transform="translate(64.312 118.585)"/>
        <path id="Path_44567" data-name="Path 44567" class="cls-5" d="M98.665,49.831a50.613,50.613,0,0,0-2.207-6.959h0q-.05-.215-.112-.431c-1.345-4.623-3.208-5.025-3.208-5.025L86.468,35.98a.517.517,0,0,1,.144.134.925.925,0,0,0-.1.016,2.613,2.613,0,0,1-.584-1.263c-.013-.069-.024-.144-.033-.214a4.692,4.692,0,0,0-.382-7.054c-.07-.055-.144-.108-.214-.158a1.063,1.063,0,0,0,.089-1.265,4.409,4.409,0,0,0-2.843-2.119A4.819,4.819,0,0,0,79.781,24a9.969,9.969,0,0,0-1.444.671,8.12,8.12,0,0,0-2.528,1.52.742.742,0,0,0-.253.61,1.647,1.647,0,0,0,.251.444,1.339,1.339,0,0,1,.013,1.111,10.767,10.767,0,0,0-.412,1.068,1.117,1.117,0,0,0,.223,1.073,4.725,4.725,0,0,0,.416.287,2.184,2.184,0,0,1,.4.447q.4.531.79,1.067a10.99,10.99,0,0,1,.989,1.5,7.326,7.326,0,0,0,.612,1.149,1.7,1.7,0,0,0,.263.276l-.078-.03a1.2,1.2,0,0,0,.877.358h.04a.241.241,0,0,0,.161-.066c0,.049,0,.1,0,.144.016.513.013,1.058-.023,1.571l-.062-.032a.538.538,0,0,0-.574.06L73.3,42.154a8.087,8.087,0,0,0-1.149,4.979l-1.077,4.728s-1.345,4.012-.31,6.876,1.635,4.5,1.635,4.5.414,3.255,1.035,3.521.89.409.89.409l.123.778h0s.042.076.115.2c.452.787,2.128,3.564,3.1,3.266a12.448,12.448,0,0,1,.158,2.281l.963,6.468a9.515,9.515,0,0,1,.63,2.681,5.108,5.108,0,0,0,.784,2.236,4.272,4.272,0,0,0-.414,3.008c.393,1.723.89,9.66.89,9.66l.718,1.924-.02,2.256a2.154,2.154,0,0,1-.445,1.005c-.465.505-.431,1.09-1.552,1.78s-1.832.952-1.832,1.867a2.4,2.4,0,0,1-.034.38c-.1.672-.3,1.037,1.757,1.232a5.436,5.436,0,0,0,4.037-1.35s.356-.646,2.033-.907c0,0,.574-.03.6-.537.011-.175.009-.51,0-.879a5.408,5.408,0,0,0-.184-1.562,3.405,3.405,0,0,1-.375-1.012h.467a20.417,20.417,0,0,0,0-5.363,8.7,8.7,0,0,1-.042-3.6l-.083-5.567a1.59,1.59,0,0,1-.123-1.7c.451-1.085,0-6.447,0-6.447s.167-1.924.642-2.375.023-2.818,0-2.942L87.09,76.8s.372,5.648,1.16,6.671l.227,2.559s1.614,2.355,1.3,3.622.332,5.854.332,5.854v4.688s-.725,1.882.287,2.559l.431-.017c-.144.134-.254.335-.422.508a3.881,3.881,0,0,0-.366,1.612c-.052.553-.069,1.028-.069,1.028a1.693,1.693,0,0,0,1.242.737c.811.047,3.485,2.08,3.485,2.08a31.618,31.618,0,0,0,3.324-.144l.04-.01a.9.9,0,0,0,.515-.421,1.077,1.077,0,0,0,.123-.774,1.932,1.932,0,0,0-1.114-1.222c-1.765-.93-2.027-1.8-2.027-1.8L94.4,102.585h.165a7.438,7.438,0,0,1,1.159-3.91l-.082-9.107s.517-3.131-.372-4.831c0,0-.073-1.8.521-2.353S95,76.244,95,76.244s-.287-3-.625-5.736h0c1.4,1.325,2.846-3.446,3.09-4.294H97.5l-.016-.062c.01-.04.016-.06.016-.06h0s-.31-1.1-.083-.879.787-.615.787-.615-.083-4.564.89-6.864S98.665,49.831,98.665,49.831Zm-4.164,2.9.007-.013c.144,2.787-.027,8.734-.027,8.734s-.192.762-.4,1.66l-.144-5.65h0L93.8,52.144Zm-17.82-1.921s.7,8.8,0,10.069a6.648,6.648,0,0,0-.507,1.739,6.4,6.4,0,0,1-.548-2.8,12.651,12.651,0,0,0-.455-3.622,6.121,6.121,0,0,1,.431-2.487c.492-1.051.169-1.506.169-1.506S76.185,50.482,76.682,50.815Z" transform="translate(-15.753 -6.711)"/>
        <path id="Path_44568" data-name="Path 44568" class="cls-6" d="M79.219,78.736c-.613,2.695-3.051-1.38-3.607-2.358-.072-.128-.112-.2-.112-.2l.264-1.239,1.4-.574a3.9,3.9,0,0,1,.626.408A3.774,3.774,0,0,1,79.219,78.736Z" transform="translate(-16.575 -14.813)"/>
        <path id="Path_44569" data-name="Path 44569" class="cls-6" d="M101.686,74.188a.188.188,0,0,1-.016.06.3.3,0,0,1-.019.065c-.24.841-1.661,5.578-3.034,4.263-1.5-1.436-.772-4.755-.772-4.755h.01l3.159-.323.626.643h0Z" transform="translate(-20.129 -14.674)"/>
        <path id="Path_44570" data-name="Path 44570" class="cls-7" d="M96.588,97.568l.08,9.045a7.419,7.419,0,0,0-1.137,3.877l-4.083.161c-1-.671-.287-2.538-.287-2.538v-4.658s-.63-4.55-.326-5.811-1.279-3.589-1.279-3.589l-.224-2.54c-.772-1.015-1.139-6.622-1.139-6.622l-.828-2.831c.023.122.454,2.485,0,2.92s-.63,2.356-.63,2.356.447,5.324,0,6.4a1.584,1.584,0,0,0,.121,1.687l.082,5.526a8.642,8.642,0,0,0,.04,3.575,20.327,20.327,0,0,1,0,5.324H82.6l.02-2.256-.709-1.91s-.488-7.882-.874-9.59a4.284,4.284,0,0,1,.4-2.986,5.081,5.081,0,0,1-.771-2.214,9.469,9.469,0,0,0-.626-2.659L79.1,81.816a12.471,12.471,0,0,0-.468-3.657c-.548-1.829-1.361-4.227-1.361-4.227l.917.082,4.629.412s11.255-.757,11.759-.128a2.112,2.112,0,0,1,.213.656c.505,2.27,1.173,9.381,1.173,9.381s1.361,5.546.777,6.095-.513,2.335-.513,2.335C97.1,94.452,96.588,97.568,96.588,97.568Z" transform="translate(-16.858 -14.744)"/>
        <path id="Path_44571" data-name="Path 44571" class="cls-8" d="M87.354,119.97c-.032.5-.593.534-.593.534-1.645.258-2,.9-2,.9a5.285,5.285,0,0,1-3.961,1.341c-2.024-.2-1.828-.556-1.723-1.223a2.531,2.531,0,0,0,.033-.376c0-.915.7-1.174,1.8-1.867s1.067-1.265,1.523-1.767a2.8,2.8,0,0,0,.5-1.477c.517-.9,1.828.144,1.828.144.062.319,2.01.274,2.01.274a4.291,4.291,0,0,0,.392,1.1,5.391,5.391,0,0,1,.179,1.551C87.363,119.465,87.366,119.8,87.354,119.97Z" transform="translate(-17.14 -21.434)"/>
        <path id="Path_44572" data-name="Path 44572" class="cls-9" d="M87.354,120.626c-.032.5-.593.534-.593.534-1.645.258-2,.9-2,.9A5.285,5.285,0,0,1,80.8,123.4c-2.024-.2-1.828-.556-1.723-1.223.9.224,2.633.537,3.643-.011,1.4-.761,2.409-1.292,2.409-1.292l2.217-1.116C87.363,120.12,87.366,120.452,87.354,120.626Z" transform="translate(-17.14 -22.09)"/>
        <path id="Path_44573" data-name="Path 44573" class="cls-8" d="M102.1,122.793a.876.876,0,0,1-.505.418l-.039.01a30.457,30.457,0,0,1-3.262.144s-2.62-2.026-3.413-2.072a1.667,1.667,0,0,1-1.219-.732s.016-.471.066-1.019a3.892,3.892,0,0,1,.36-1.6c.35-.366.431-.861,1.219-.548,0,0,1.126-1.984,2.452-.451l1.373,2.082s.258.861,2,1.8a1.926,1.926,0,0,1,1.093,1.213A1.07,1.07,0,0,1,102.1,122.793Z" transform="translate(-19.487 -21.545)"/>
        <path id="Path_44574" data-name="Path 44574" class="cls-9" d="M102.1,123.4c-.155.131-.326.271-.505.418l-.039.01a30.457,30.457,0,0,1-3.262.144s-2.62-2.026-3.413-2.072a1.667,1.667,0,0,1-1.219-.732s.016-.471.066-1.019a5.655,5.655,0,0,1,2.356,1.127,9.985,9.985,0,0,0,2.029,1.676s2.846-.274,4.109-.312A1.07,1.07,0,0,1,102.1,123.4Z" transform="translate(-19.487 -22.153)"/>
        <path id="Path_44575" data-name="Path 44575" class="cls-6" d="M89.076,38.679l-3.747,3.961s-4.541-.335-3.749-1.676a7.535,7.535,0,0,0,.431-3.357c-.033-1.2-.157-2.22-.157-2.22s6.369-3.17,5.887-.214a4.865,4.865,0,0,0-.017,1.687A2.211,2.211,0,0,0,89.076,38.679Z" transform="translate(-17.535 -8.329)"/>
        <path id="Path_44576" data-name="Path 44576" class="cls-9" d="M87.805,35.175a4.866,4.866,0,0,0-.017,1.687,4.675,4.675,0,0,1-3.334,1.391,5.712,5.712,0,0,1-2.49-1.117c-.033-1.2-.04-1.747-.04-1.747S88.293,32.218,87.805,35.175Z" transform="translate(-17.605 -8.329)"/>
        <path id="Path_44577" data-name="Path 44577" class="cls-6" d="M88.733,32.305a4.694,4.694,0,1,1-1.766-3.667A4.694,4.694,0,0,1,88.733,32.305Z" transform="translate(-17.192 -7.319)"/>
        <path id="Path_44578" data-name="Path 44578" class="cls-9" d="M94.92,74.969c-1.169,2.781-8.686,2.839-8.686,2.839V74.776l-.455-.03a10.443,10.443,0,0,1-.276,2.986c-5.941.838-7.39-2.547-7.39-2.547l.207-1.159,4.629.412s11.255-.757,11.759-.128A2.112,2.112,0,0,1,94.92,74.969Z" transform="translate(-16.994 -14.759)"/>
        <path id="Path_44579" data-name="Path 44579" class="cls-10" d="M86.234,71.813V68.781l-.455-.029a10.476,10.476,0,0,1-.276,2.986c-4.471.63-6.4-1.13-7.077-2.04a2.777,2.777,0,0,1-.313-.505l1.815-10.208.431-15.024.65-2.636.151-1.265v-.014h.016l.462.2,2.767,1.2,3.143-2.373.046-.033.157-.119.26.208.646.518,2.072,13.38s3.589,10.3,4.261,14.46c.027.167.049.322.066.467C95.5,71.743,86.234,71.813,86.234,71.813Z" transform="translate(-16.994 -9.13)"/>
        <circle id="Ellipse_1305" data-name="Ellipse 1305" class="cls-11" cx="0.267" cy="0.267" r="0.267" transform="translate(67.479 32.338)"/>
        <circle id="Ellipse_1306" data-name="Ellipse 1306" class="cls-11" cx="0.267" cy="0.267" r="0.267" transform="translate(67.603 34.776)"/>
        <circle id="Ellipse_1307" data-name="Ellipse 1307" class="cls-11" cx="0.267" cy="0.267" r="0.267" transform="translate(67.87 38.723)"/>
        <circle id="Ellipse_1308" data-name="Ellipse 1308" class="cls-11" cx="0.267" cy="0.267" r="0.267" transform="translate(68.311 42.974)"/>
        <circle id="Ellipse_1309" data-name="Ellipse 1309" class="cls-11" cx="0.267" cy="0.267" r="0.267" transform="translate(68.578 46.965)"/>
        <circle id="Ellipse_1310" data-name="Ellipse 1310" class="cls-11" cx="0.267" cy="0.267" r="0.267" transform="translate(68.845 51.217)"/>
        <circle id="Ellipse_1311" data-name="Ellipse 1311" class="cls-11" cx="0.267" cy="0.267" r="0.267" transform="translate(68.739 55.422)"/>
        <path id="Path_44580" data-name="Path 44580" class="cls-9" d="M81.337,60.677a24.041,24.041,0,0,1-.847,5.047,18.517,18.517,0,0,0-.793,4.327l-1.274-.144a2.779,2.779,0,0,1-.313-.505l1.815-10.208.431-15.024.652-2.638.151-1.265.017-.007a.514.514,0,0,1,.454.007l.06.032q-.027.078-.052.159a24.4,24.4,0,0,0-.682,4.421s.718,5.242.793,7.68S81.337,60.677,81.337,60.677Z" transform="translate(-16.994 -9.338)"/>
        <path id="Path_44581" data-name="Path 44581" class="cls-9" d="M77.787,74.775a.735.735,0,0,1-.049.095,4.571,4.571,0,0,1-2.126,1.509c-.072-.128-.112-.2-.112-.2l.264-1.239,1.4-.574A3.9,3.9,0,0,1,77.787,74.775Z" transform="translate(-16.575 -14.813)"/>
        <path id="Path_44582" data-name="Path 44582" class="cls-11" d="M73.639,51.093l-1.159.691-1.055,4.694S70.1,60.459,71.12,63.3s1.605,4.472,1.605,4.472.406,3.231,1.017,3.495.873.406.873.406l.122.772A4.826,4.826,0,0,0,76.975,70.9c.584-.989-.431-3.446-.431-3.446a7.509,7.509,0,0,1-.649-3.068,12.6,12.6,0,0,0-.448-3.589,6.084,6.084,0,0,1,.431-2.47c.491-1.047.164-1.493.164-1.493l-.306-2.986Z" transform="translate(-15.811 -11.083)"/>
        <path id="Path_44583" data-name="Path 44583" class="cls-9" d="M96.8,68.481s-3.068,1.157-4.043.144-.874-5.77-.874-5.77-.933-8.777-1.523-10.218-.287-11.845-.287-11.845a6.305,6.305,0,0,0-.742-1.7.376.376,0,0,0-.073-.059l.119.026.416.089.646.518,2.072,13.38s3.589,10.3,4.261,14.46Z" transform="translate(-18.781 -9.15)"/>
        <path id="Path_44584" data-name="Path 44584" class="cls-9" d="M101.719,74.31h-.034c-.386.05-3.795.462-3.809-.247a2.075,2.075,0,0,1,.013-.246l3.159-.323.626.643h0c.011.042.02.078.029.106Z" transform="translate(-20.162 -14.674)"/>
        <path id="Path_44585" data-name="Path 44585" class="cls-11" d="M98.448,45.495l2.24,1.169a49.788,49.788,0,0,1,2.165,6.9s1.383,5.551.431,7.834-.873,6.814-.873,6.814-.548.833-.772.61.082.873.082.873-3.829.508-3.845-.244a39.272,39.272,0,0,1,.879-4.348s.244-8.553-.1-9.894S98.448,45.495,98.448,45.495Z" transform="translate(-20.162 -10.185)"/>
        <path id="Path_44586" data-name="Path 44586" class="cls-9" d="M90.249,56.344s-1.261,3.087-1.667,3.291.082,1.015.082,1.015S90.96,57.441,90.249,56.344Z" transform="translate(-18.646 -11.924)"/>
        <path id="Path_44587" data-name="Path 44587" class="cls-9" d="M89.327,43.448c.014-.059-1.5,1.489-1.91,1.723S88.9,45.156,89.327,43.448Z" transform="translate(-18.476 -9.857)"/>
        <path id="Path_44588" data-name="Path 44588" class="cls-9" d="M84.281,56.054s-2.316,1.5-2.01,2.09S84.281,56.054,84.281,56.054Z" transform="translate(-17.656 -11.878)"/>
        <path id="Path_44589" data-name="Path 44589" class="cls-9" d="M89.678,82.087a12.4,12.4,0,0,0,5.038,1.579Z" transform="translate(-18.848 -16.051)"/>
        <path id="Path_44590" data-name="Path 44590" class="cls-9" d="M84.041,85.717s1.828,2.3,2.662,2.356S84.041,85.717,84.041,85.717Z" transform="translate(-17.944 -16.633)"/>
        <path id="Path_44591" data-name="Path 44591" class="cls-9" d="M86.669,96.438c-.082.04-1.037,2.072-2.01,2.134S86.669,96.438,86.669,96.438Z" transform="translate(-18.012 -18.352)"/>
        <path id="Path_44592" data-name="Path 44592" class="cls-9" d="M97.178,101.727s1.812-.406,2.215.893C99.393,102.616,99.271,102.209,97.178,101.727Z" transform="translate(-20.05 -19.19)"/>
        <path id="Path_44593" data-name="Path 44593" class="cls-9" d="M95.726,110.558s2.2-.448,2.662.162S95.726,110.558,95.726,110.558Z" transform="translate(-19.817 -20.59)"/>
        <path id="Path_44594" data-name="Path 44594" class="cls-9" d="M87.919,111.827c0,.02-2.234.448-2.154.732s2.383.244,2.465-.2a.431.431,0,0,0-.312-.528Z" transform="translate(-18.22 -20.819)"/>
        <path id="Path_44595" data-name="Path 44595" class="cls-9" d="M94.856,114.1s3.671-.448,3.446.324S94.856,114.1,94.856,114.1Z" transform="translate(-19.678 -21.162)"/>
        <path id="Path_44596" data-name="Path 44596" class="cls-9" d="M71.967,60.263c.02.06,2.418.386,2.742,1.159a20.621,20.621,0,0,0-2.728-1.1" transform="translate(-16.009 -12.553)"/>
        <path id="Path_44597" data-name="Path 44597" class="cls-9" d="M75.63,67.739s-1.991.63-1.849,1.579S73.578,68.879,75.63,67.739Z" transform="translate(-16.298 -13.751)"/>
        <path id="Path_44598" data-name="Path 44598" class="cls-9" d="M74.879,73.338s.725-.995,1.416-.813S74.879,73.338,74.879,73.338Z" transform="translate(-16.476 -14.515)"/>
        <path id="Path_44599" data-name="Path 44599" class="cls-9" d="M86.968,28.638a1.13,1.13,0,0,1-.233.174,2.68,2.68,0,0,0-1.005,1.444,3.072,3.072,0,0,1-1.047,1.429c-.662.4-1.533.253-2.221.6a1.723,1.723,0,0,0-.919,1.7,4.9,4.9,0,0,0,.2.778,5.549,5.549,0,0,1,.21,1.69.288.288,0,0,1,0,.05,4.692,4.692,0,1,1,5.025-7.864Z" transform="translate(-17.193 -7.319)"/>
        <path id="Path_44600" data-name="Path 44600" class="cls-12" d="M86.4,26.705a4.331,4.331,0,0,0-2.79-2.1,4.685,4.685,0,0,0-2.709-.057,9.938,9.938,0,0,0-1.417.665A8.015,8.015,0,0,0,77,26.718a.756.756,0,0,0-.248.606,1.692,1.692,0,0,0,.246.439,1.333,1.333,0,0,1,.013,1.1,10.127,10.127,0,0,0-.4,1.061,1.116,1.116,0,0,0,.218,1.064,3.979,3.979,0,0,0,.411.287,2.161,2.161,0,0,1,.389.442l.775,1.06a10.747,10.747,0,0,1,.971,1.492,7.109,7.109,0,0,0,.6,1.139,1.3,1.3,0,0,0,1.088.581.211.211,0,0,0,.172-.082.227.227,0,0,0,.022-.108,5.511,5.511,0,0,0-.205-1.684,4.86,4.86,0,0,1-.2-.778,1.73,1.73,0,0,1,.919-1.7c.689-.347,1.561-.2,2.221-.6a3.051,3.051,0,0,0,1.047-1.436,2.7,2.7,0,0,1,1.005-1.444A1.01,1.01,0,0,0,86.4,26.705Z" transform="translate(-16.745 -6.799)"/>
        <path id="Path_44601" data-name="Path 44601" class="cls-9" d="M85.773,118.505s.718.915.531,1.436S85.773,118.505,85.773,118.505Z" transform="translate(-18.222 -21.889)"/>
        <path id="Path_44602" data-name="Path 44602" class="cls-9" d="M97.34,120.992s.159-1.226.8-1.238a2.138,2.138,0,0,1,1.159.122c.488.188.946.48.8.523s-.84-.7-1.552-.32a5.128,5.128,0,0,0-1.2.913Z" transform="translate(-20.076 -22.087)"/>
        <path id="Path_44603" data-name="Path 44603" class="cls-9" d="M82.864,43.194l2.01-1.409s-2.94-1.737-3.291-1.493-.592,2.441-.592,2.441Z" transform="translate(-17.456 -9.348)"/>
        <path id="Path_44604" data-name="Path 44604" class="cls-13" d="M82.854,43.081l2.01-1.436s-2.94-1.737-3.291-1.493-.592,2.561-.592,2.561Z" transform="translate(-17.454 -9.325)"/>
        <path id="Path_44605" data-name="Path 44605" class="cls-10" d="M82.854,43.081l2.01-1.436s-2.94-1.737-3.291-1.493-.592,2.561-.592,2.561Z" transform="translate(-17.454 -9.325)"/>
        <path id="Path_44606" data-name="Path 44606" class="cls-11" d="M80.594,40.154l-.06-.03a.521.521,0,0,0-.564.059l-6.03,4.892a8.1,8.1,0,0,0-1.129,4.942l3.556,5.038s.406-1.706.893-1.381c0,0,.691,8.737,0,10s-.995,5.973-.995,5.973l2.336.264a18.517,18.517,0,0,1,.793-4.327,24.042,24.042,0,0,0,.847-5.047s.494-5.68.412-8.118-.793-7.68-.793-7.68A23.278,23.278,0,0,1,80.594,40.154Z" transform="translate(-16.141 -9.315)"/>
        <path id="Path_44607" data-name="Path 44607" class="cls-9" d="M88.759,42.106l-2.505-.928s3.19-3.495,3.589-1.556Z" transform="translate(-18.299 -9.15)"/>
        <path id="Path_44608" data-name="Path 44608" class="cls-13" d="M88.759,41.961l-2.505-.928s3.19-3.495,3.589-1.556Z" transform="translate(-18.299 -9.127)"/>
        <path id="Path_44609" data-name="Path 44609" class="cls-10" d="M88.759,41.961l-2.505-.928s3.19-3.495,3.589-1.556Z" transform="translate(-18.299 -9.127)"/>
        <path id="Path_44610" data-name="Path 44610" class="cls-9" d="M89.14,39.006a.144.144,0,0,1,.1.023Z" transform="translate(-18.762 -9.145)"/>
        <path id="Path_44611" data-name="Path 44611" class="cls-11" d="M89.427,38.716l6.648,1.436s1.829.406,3.15,5-1.809,10.217-1.809,10.217l-.691-.587.346,13.409s-3.068,1.157-4.043.144-.873-5.775-.873-5.775-.935-8.776-1.525-10.218S90.343,40.5,90.343,40.5,89.8,38.636,89.427,38.716Z" transform="translate(-18.808 -9.098)"/>
        <path id="Path_44612" data-name="Path 44612" class="cls-9" d="M96.654,48.881a38.045,38.045,0,0,0,.2,7.232,39.412,39.412,0,0,0,1.149,5.567l-.6-12.372S96.938,48.617,96.654,48.881Z" transform="translate(-19.952 -10.718)"/>
        <path id="Path_44613" data-name="Path 44613" class="cls-9" d="M95.7,44.731a3.605,3.605,0,0,1,.548,2.478C95.925,47.9,95.7,44.731,95.7,44.731Z" transform="translate(-19.814 -10.063)"/>
        <path id="Path_44614" data-name="Path 44614" class="cls-9" d="M87.046,26.859a3.67,3.67,0,0,0-1.462-1.531,3.476,3.476,0,0,1,1.1,1.292,1.021,1.021,0,0,1-.356,1.463,2.689,2.689,0,0,0-1.005,1.444,3.122,3.122,0,0,1-1.048,1.436c-.66.4-1.532.251-2.221.6a1.734,1.734,0,0,0-.919,1.7,4.882,4.882,0,0,0,.2.777,5.554,5.554,0,0,1,.21,1.69.227.227,0,0,1-.023.108.205.205,0,0,1-.171.082.989.989,0,0,1-.5-.093,1.166,1.166,0,0,0,.861.337.169.169,0,0,0,.192-.19,5.509,5.509,0,0,0-.208-1.69,4.715,4.715,0,0,1-.2-.778,1.73,1.73,0,0,1,.919-1.7c.689-.347,1.561-.2,2.221-.6a3.051,3.051,0,0,0,1.047-1.436,2.7,2.7,0,0,1,1.005-1.444A1.022,1.022,0,0,0,87.046,26.859Z" transform="translate(-17.431 -6.953)"/>
        <path id="Path_44615" data-name="Path 44615" class="cls-14" d="M131.6,45.52a5.886,5.886,0,0,1-4.714-3.143,3.158,3.158,0,0,1-.477-1.345,1.552,1.552,0,0,1,.055-.322,3.338,3.338,0,0,0,.144-.492.861.861,0,0,0,0-.2V40a1.188,1.188,0,0,0-.431-.966c-.264-.248-.6-.431-.872-.678a4.081,4.081,0,0,1-1.124-3.084v-.06c.01-.488.049-.978.044-1.466a6.164,6.164,0,0,0-.036-.83,2.742,2.742,0,0,0-.887-1.835c-1.416-1.149-3.8.047-5.262-1.038-.356-.266-.645-.658-1.077-.761a1.814,1.814,0,0,0-.984.134c-1.08.356-2.284.824-2.706,1.867-.241.6-.174,1.282-.395,1.888a9.428,9.428,0,0,1-.617,1.14,1.785,1.785,0,0,0-.23.952,1.074,1.074,0,0,0,.07.507,1.292,1.292,0,0,0,.352.5,1.674,1.674,0,0,1-.21.336c-.276.337-.7.574-.986.91A2.151,2.151,0,0,0,111,39.7c.261.724.734,1.383,1.06,2.088a1.12,1.12,0,0,1,.108.952,2.729,2.729,0,0,1-.477.554,1.742,1.742,0,0,0-.431.962c-3.232.738-3.235,3.335-3.235,3.335h0l-1.746,4.391s-.28.739-.609,1.716l-2.066-.37,1.436,2.4a7.589,7.589,0,0,0-.4,2.343s-.642,3.015.5,3.542l2.518,1.133a1.492,1.492,0,0,0,.349.156l.1.046a.27.27,0,0,0,.235,0h.034a.339.339,0,0,0,.144-.022.287.287,0,0,0,.126-.136.043.043,0,0,1,0-.014l.754-.218.639.757c.287.2.574.378.846.536l-.989,9.824s-.159,13.066-.642,16.043a8.339,8.339,0,0,0-.112,2.366l-.019.032c.119.84.431,1.005.431,1.005v-.011a.094.094,0,0,0,.019.011,8.458,8.458,0,0,1,.517-1.108v.215c-.01,1.108-.045,2.661-.159,3.67a57.316,57.316,0,0,0,.5,7.4l.24,5.169a4.778,4.778,0,0,1-.589,2.518,11.888,11.888,0,0,0-1.361,3.13.646.646,0,0,0,0,.1h0l-1.232,1.482s-.481.744.606,1.044a5.818,5.818,0,0,0,2.4-.191A1.605,1.605,0,0,0,111.747,115a5.528,5.528,0,0,1,1.017-1.951l.2,1.19,1.355.336.174-3.262a1.436,1.436,0,0,0,.093-.574h0c.267-2.32-.629-2.112-.629-2.112a.125.125,0,0,1,.043.08l-.043-.079h0a5.869,5.869,0,0,1-.287-2.872s.718-5.169.963-6.534a47.389,47.389,0,0,0,.045-5.887,2.1,2.1,0,0,0-.007-.214c2.1-.027,4.678-.1,6.485-.273v.212l-.333,12.211a6.7,6.7,0,0,1-.468,2.271.124.124,0,0,1-.016.042,9.907,9.907,0,0,0-.662,3.2l-.155,3.877v.108h0c-.27.1-.7.4-.708,1.274-.019,1.275,2.228.85,2.228.85a2.284,2.284,0,0,0,2.264-2.337s.07-2.144.178-3.578-.339-1.118-.339-1.118l-.034,4.08v-3.545l.034-.518v-.014h0v-.111l.283-4.208s2.069-7.012,2.389-8.358a31.526,31.526,0,0,0,.059-5.429,1.265,1.265,0,0,0-.011-.211c.642-.057,1.209-.063,1.436-.063h.1s-.106-11.262-.375-15.506-.695-8.128-1.765-9.3a19.24,19.24,0,0,1-2.154-4.5,22.525,22.525,0,0,0,3.958,1.292c3.387.709,2.923-2.231,2.923-2.231l-.343-5.561h.023a28.352,28.352,0,0,0-.373-4.348,12.791,12.791,0,0,0-.873-3.159c.368-.144.731-.3,1.087-.455.92-.406,1.957-.982,2.089-1.974h-.044a1.282,1.282,0,0,0,.034-.218Zm-21,8.04h0c.007.574-.014,1.571-.049,2.672L109.477,54.8l1.078-1.749ZM125.011,56.476Zm.448,2.172-1.792-.574a8.04,8.04,0,0,1,1.107-1.37l.155-.144-.056.011.086-.079.052-.011-.082.079.1-.02a3.057,3.057,0,0,0,.61,1.228c.643.7-.177.88-.177.88Z" transform="translate(-21.081 -7.583)"/>
        <path id="Path_44616" data-name="Path 44616" class="cls-15" d="M110.99,122.37l-.21,3.974-1.337-.335-.281-1.653Z" transform="translate(-17.497 -19.617)"/>
        <path id="Path_44617" data-name="Path 44617" class="cls-9" d="M110.99,122.37l-.21,3.974-1.337-.335-.281-1.653Z" transform="translate(-17.497 -19.617)"/>
        <path id="Path_44618" data-name="Path 44618" class="cls-16" d="M122.51,126.333l2.039.422,1.512-1.335v-3.763l.034-.514v-.016h0v-.109l.281-4.182s2.04-6.962,2.358-8.3a31.528,31.528,0,0,0,.056-5.388c-.03-.648-.056-1.081-.056-1.081l-4.5-1.09-.095,3.46-.329,12.124a6.718,6.718,0,0,1-.461,2.256l-.016.042a9.867,9.867,0,0,0-.653,3.176l-.152,3.855V126Z" transform="translate(-24.111 -19.079)"/>
        <path id="Path_44619" data-name="Path 44619" class="cls-9" d="M126.78,124.847v.106h0v-.109Z" transform="translate(-24.795 -22.905)"/>
        <path id="Path_44620" data-name="Path 44620" class="cls-9" d="M122.51,130.938l2.039.422,1.512-1.335v-.32a.431.431,0,0,1-.217.345l-.022.013a4.063,4.063,0,0,1-2.289.452l-.8-.067a.745.745,0,0,0-.211.052v.106Z" transform="translate(-24.111 -23.685)"/>
        <path id="Path_44621" data-name="Path 44621" class="cls-8" d="M125.691,129.4l.022-.011a.431.431,0,0,0,.22-.373l.033-4.05s.439-.314.333,1.11-.175,3.552-.175,3.552a2.262,2.262,0,0,1-2.233,2.32s-2.215.422-2.2-.844.915-1.318.915-1.318l.8.069A4.053,4.053,0,0,0,125.691,129.4Z" transform="translate(-23.98 -22.921)"/>
        <path id="Path_44622" data-name="Path 44622" class="cls-16" d="M109.864,125.725c.052.915,2.742.386,2.742.386l1.811-3.515s1.512-1.162.755-2.181a1.628,1.628,0,0,1-.111-.174l-.007-.009h0c-.016-.026-.03-.053-.045-.082h0a5.787,5.787,0,0,1-.276-2.843s.7-5.134.949-6.488a47.6,47.6,0,0,0,.045-5.848c-.023-.729-.045-1.219-.045-1.219l-4.467-1.2v1.332c-.01,1.1-.045,2.642-.158,3.644a57.415,57.415,0,0,0,.492,7.348l.237,5.136a4.757,4.757,0,0,1-.574,2.5,12.016,12.016,0,0,0-1.342,3.108.627.627,0,0,0-.007.1Z" transform="translate(-22.084 -19.333)"/>
        <path id="Path_44623" data-name="Path 44623" class="cls-9" d="M109.863,129.1c.052.915,2.742.386,2.742.386l1.811-3.515s1.512-1.162.755-2.181a1.628,1.628,0,0,1-.111-.174,8.73,8.73,0,0,1-.609,1.867s-1.495,2.991-1.97,3.676-2.54-.128-2.617-.157a.629.629,0,0,0,0,.1Z" transform="translate(-22.084 -22.709)"/>
        <path id="Path_44624" data-name="Path 44624" class="cls-8" d="M114.755,123.5s.884-.205.62,2.1h0a1.483,1.483,0,0,1-.7,1.317,5.028,5.028,0,0,0-2.1,2.918h0a1.591,1.591,0,0,1-1.228,1.551,5.756,5.756,0,0,1-2.369.19c-1.073-.3-.6-1.037-.6-1.037l1.23-1.46s2.145.844,2.619.158,1.97-3.674,1.97-3.674S115.017,123.7,114.755,123.5Z" transform="translate(-21.829 -22.69)"/>
        <path id="Path_44625" data-name="Path 44625" class="cls-9" d="M124.544,101.485l-.095,3.46a4.477,4.477,0,0,0,2.2-.507c.317-.491,1.469-.7,2.448-.783-.03-.648-.056-1.081-.056-1.081Z" transform="translate(-24.422 -19.161)"/>
        <path id="Path_44626" data-name="Path 44626" class="cls-9" d="M111.474,104.391a1.643,1.643,0,0,1,.492-.594c.474-.263.422,1.689.422,1.689s1.579.014,3.6-.012c-.023-.729-.045-1.22-.045-1.22l-4.467-1.195S111.483,103.613,111.474,104.391Z" transform="translate(-22.342 -19.413)"/>
        <path id="Path_44627" data-name="Path 44627" class="cls-7" d="M110.779,98.972s.528-1.436,1.005-1.691.422,1.687.422,1.687,11.6.106,12.184-.791,3.956-.844,3.956-.844-.1-11.182-.369-15.4-.685-8.071-1.74-9.231a20.993,20.993,0,0,1-2.253-4.8c-.326-.884-.543-1.529-.543-1.529L112.365,67l-.09.9L111.1,79.664s-.158,12.975-.633,15.929S110.779,98.972,110.779,98.972Z" transform="translate(-22.156 -13.532)"/>
        <g id="Group_37049" data-name="Group 37049" class="cls-17" transform="translate(88.17 52.841)">
          <path id="Path_44628" data-name="Path 44628" d="M123.973,98.177c.574-.9,3.956-.844,3.956-.844s-.1-11.182-.369-15.4-.685-8.071-1.74-9.231a20.93,20.93,0,0,1-2.253-4.8c-.274-.744-.471-1.317-.525-1.48l.861-.049s.217.645.544,1.529a21,21,0,0,0,2.251,4.8c1.055,1.16,1.477,5.011,1.74,9.231s.37,15.4.37,15.4-3.376-.052-3.957.844c-.5.765-9.034.8-11.512.794C116.52,98.963,123.525,98.869,123.973,98.177Z" transform="translate(-110.811 -66.373)"/>
          <path id="Path_44629" data-name="Path 44629" d="M110.884,103.177c.214-.119.32.211.373.612a8.281,8.281,0,0,0-.5,1.08s-.306-.165-.431-1.005A1.954,1.954,0,0,1,110.884,103.177Z" transform="translate(-110.329 -72.269)"/>
        </g>
        <path id="Path_44630" data-name="Path 44630" class="cls-12" d="M114.522,33.85c-.767,1.045.009,2.531-.814,3.548-.271.336-.689.574-.972.9a2.148,2.148,0,0,0-.247,2.161c.257.718.718,1.373,1.045,2.073a1.109,1.109,0,0,1,.106.945,2.676,2.676,0,0,1-.471.55,1.983,1.983,0,0,0-.258,2.1,6.812,6.812,0,0,0,1.363,1.881.93.93,0,0,0,1.351.309,5.312,5.312,0,0,0,2.418-6.933c-.445-1.067-1.187-2.089-1.195-3.216,0-.894.459-1.749.541-2.639a3.374,3.374,0,0,0-1.848-3.274C115.628,32.959,114.911,33.313,114.522,33.85Z" transform="translate(-22.476 -8.064)"/>
        <path id="Path_44631" data-name="Path 44631" class="cls-9" d="M114.522,33.85c-.767,1.045.009,2.531-.814,3.548-.271.336-.689.574-.972.9a2.148,2.148,0,0,0-.247,2.161c.257.718.718,1.373,1.045,2.073a1.109,1.109,0,0,1,.106.945,2.676,2.676,0,0,1-.471.55,1.983,1.983,0,0,0-.258,2.1,6.812,6.812,0,0,0,1.363,1.881.93.93,0,0,0,1.351.309,5.312,5.312,0,0,0,2.418-6.933c-.445-1.067-1.187-2.089-1.195-3.216,0-.894.459-1.749.541-2.639a3.374,3.374,0,0,0-1.848-3.274C115.628,32.959,114.911,33.313,114.522,33.85Z" transform="translate(-22.476 -8.064)"/>
        <path id="Path_44632" data-name="Path 44632" class="cls-9" d="M123.463,79.433a10.2,10.2,0,0,0-4.323,1.487,29.614,29.614,0,0,1-4.091,2.122" transform="translate(-22.915 -15.626)"/>
        <path id="Path_44633" data-name="Path 44633" class="cls-9" d="M122.559,83.74a6.327,6.327,0,0,0-3.984,1.938c-.373.395-.695.837-1.084,1.216a4.816,4.816,0,0,1-2.136,1.21" transform="translate(-22.964 -16.316)"/>
        <path id="Path_44634" data-name="Path 44634" class="cls-9" d="M122.65,87.018a6.966,6.966,0,0,0-3.2,1.933c-.235.254-.449.526-.685.78a12.647,12.647,0,0,1-4.8,2.772" transform="translate(-22.741 -16.842)"/>
        <path id="Path_44635" data-name="Path 44635" class="cls-16" d="M122.99,41.546a31.508,31.508,0,0,0,.316,3.664,4.8,4.8,0,0,0,.633,1.98c.844,1.005-4.114,2.348-4.114,2.348L116.9,47.269s2.32-2.136,1.239-4.22S122.99,41.546,122.99,41.546Z" transform="translate(-23.211 -9.54)"/>
        <path id="Path_44636" data-name="Path 44636" class="cls-9" d="M112.646,67.9h11.709c-.326-.884-.543-1.529-.543-1.529L112.736,67Z" transform="translate(-22.53 -13.532)"/>
        <path id="Path_44637" data-name="Path 44637" class="cls-10" d="M111.312,64.513H123.83a4.344,4.344,0,0,1,.5-3.32,7.337,7.337,0,0,1,1.311-1.7l.086-.079,4.371-.968.235-.052s.036-7.947-2.778-9.038a16.453,16.453,0,0,1-4.5-2.566l-3.867,1.195L116.34,46.55c-.915.984-3.341.6-3.341.6-3.973.457-3.973,3.446-3.973,3.446s2.32,5.414,2.5,5.414S111.312,64.513,111.312,64.513Z" transform="translate(-21.949 -10.354)"/>
        <path id="Path_44638" data-name="Path 44638" class="cls-9" d="M116.242,61.628s-2.553-.566-3.421-1.555" transform="translate(-22.558 -12.522)"/>
        <path id="Path_44639" data-name="Path 44639" class="cls-9" d="M131.659,58.394,128.7,60.821a5.041,5.041,0,0,0,.1.574l.086-.079,4.371-.968Z" transform="translate(-25.103 -12.253)"/>
        <path id="Path_44640" data-name="Path 44640" class="cls-9" d="M122.678,66.279s.648.365,1.64.844h1.7a4.344,4.344,0,0,1,.5-3.32l-3-.971C124.541,63.782,122.678,66.279,122.678,66.279Z" transform="translate(-24.138 -12.965)"/>
        <path id="Path_44641" data-name="Path 44641" class="cls-10" d="M110.112,50.23l-1.757.949-1.723,4.36s-1.793,4.781-1.618,6.048c0,0-.632,2.989.492,3.516l2.929,1.327a.273.273,0,0,0,.352-.376c-.418-.791-.877-2.029-.144-2.709l-.844-1.757,3.051-4.994,1.019-1.723Z" transform="translate(-21.278 -10.944)"/>
        <path id="Path_44642" data-name="Path 44642" class="cls-9" d="M115.77,60.506a2.715,2.715,0,0,0,2.368,1.937L120,63.972l1.986.9.81.366.343-2.48-.78-.431-.909-.5s-2.05-3.714-5.3-2.154a.718.718,0,0,0-.388.828Z" transform="translate(-23.027 -12.397)"/>
        <path id="Path_44643" data-name="Path 44643" class="cls-16" d="M115.9,60.256a2.71,2.71,0,0,0,2.366,1.937l1.867,1.529,1.987.9.808.366.343-2.48-.78-.431-.9-.492s-2.052-3.714-5.3-2.146a.718.718,0,0,0-.392.817Z" transform="translate(-23.048 -12.359)"/>
        <circle id="Ellipse_1312" data-name="Ellipse 1312" class="cls-9" cx="4.536" cy="4.536" r="4.536" transform="translate(91.972 26.151)"/>
        <circle id="Ellipse_1313" data-name="Ellipse 1313" class="cls-16" cx="4.536" cy="4.536" r="4.536" transform="translate(91.972 26.046)"/>
        <path id="Path_44644" data-name="Path 44644" class="cls-9" d="M123.344,50.521l-1.364-2.65s2-.807,2.141-1.742,1.912,1.1,1.531,1.769A25.1,25.1,0,0,1,123.344,50.521Z" transform="translate(-24.026 -10.248)"/>
        <path id="Path_44645" data-name="Path 44645" class="cls-10" d="M123.344,50.27l-1.364-2.65s2-.807,2.141-1.742,1.912,1.1,1.531,1.769A25.258,25.258,0,0,1,123.344,50.27Z" transform="translate(-24.026 -10.208)"/>
        <path id="Path_44646" data-name="Path 44646" class="cls-18" d="M109.272,59.121l7.536,10.132s-2.778,1.512-6.6-1.195l-1.653-1.97-4.718-7.953Z" transform="translate(-21.117 -12.212)"/>
        <path id="Path_44647" data-name="Path 44647" class="cls-16" d="M108.51,65.372l.686-.019s4.192-4.069,5.222-2.01-2.612,3.983-2.612,3.983l-1.107.6-1.443.431-.923-1.239Z" transform="translate(-21.838 -12.953)"/>
        <path id="Path_44648" data-name="Path 44648" class="cls-9" d="M109.341,67.986a1.024,1.024,0,0,1,.017.709.287.287,0,0,1-.125.136.32.32,0,0,1-.144.02,1.443,1.443,0,0,1-.946-.468,4.321,4.321,0,0,1-.613-.887,1.637,1.637,0,0,1-.314-1.057,1.541,1.541,0,0,1,.78-.91c.695-.459.718.076.87.668S109.182,67.388,109.341,67.986Z" transform="translate(-21.657 -13.369)"/>
        <path id="Path_44649" data-name="Path 44649" class="cls-10" d="M109.216,67.986a1.033,1.033,0,0,1,.017.709.287.287,0,0,1-.125.136.323.323,0,0,1-.144.02,1.436,1.436,0,0,1-.946-.468,4.272,4.272,0,0,1-.615-.887,1.627,1.627,0,0,1-.313-1.057,1.539,1.539,0,0,1,.778-.91c.7-.459.718.076.872.668S109.055,67.388,109.216,67.986Z" transform="translate(-21.637 -13.369)"/>
        <path id="Path_44650" data-name="Path 44650" class="cls-9" d="M106.671,54.251l.35-.593-.306,1.1Z" transform="translate(-17.098 -8.602)"/>
        <path id="Path_44651" data-name="Path 44651" class="cls-9" d="M123.315,65.2l.808.366.343-2.48-.78-.431C124.226,63.273,123.755,64.414,123.315,65.2Z" transform="translate(-24.24 -12.936)"/>
        <path id="Path_44652" data-name="Path 44652" class="cls-9" d="M126.47,62.151s-2.61.159-3.719-.553" transform="translate(-24.15 -12.767)"/>
        <g id="Group_37050" data-name="Group 37050" class="cls-17" transform="translate(90.883 36.402)">
          <path id="Path_44653" data-name="Path 44653" d="M126.571,61.491a7.348,7.348,0,0,1,1.311-1.7,3.5,3.5,0,0,1,.386-.21l4.069-.836.235-.052s.036-7.947-2.777-9.038a16.9,16.9,0,0,1-4.388-2.471l.309-.095a16.409,16.409,0,0,0,4.5,2.566c2.814,1.09,2.777,9.038,2.777,9.038h-.422l-4.164.8s-.179.174-.234.224a8.069,8.069,0,0,0-1.331,1.76,4.414,4.414,0,0,0-.349,3.337h-.431A4.389,4.389,0,0,1,126.571,61.491Z" transform="translate(-115.458 -46.843)"/>
          <path id="Path_44654" data-name="Path 44654" d="M113.559,47.53c.067-.01.132-.02.2-.027a7.281,7.281,0,0,0,.861.07,7.83,7.83,0,0,1-1.064-.043Z" transform="translate(-113.559 -46.909)"/>
          <path id="Path_44655" data-name="Path 44655" d="M120.175,48.236l-2.576-1.3a1.363,1.363,0,0,0,.144-.136l2.688,1.36Z" transform="translate(-114.206 -46.796)"/>
        </g>
        <path id="Path_44656" data-name="Path 44656" class="cls-10" d="M130.815,58.136l1.723,2.111.352,5.732s.457,2.918-2.883,2.214a30.794,30.794,0,0,1-7.2-2.877s1.867-2.5.844-3.446l4.783,1.548s.808-.177.175-.879a3.956,3.956,0,0,1-.745-1.97Z" transform="translate(-24.158 -12.212)"/>
        <path id="Path_44657" data-name="Path 44657" class="cls-9" d="M133.272,65.347l.949,1.09a1.368,1.368,0,0,1-.949-1.09Z" transform="translate(-25.836 -13.368)"/>
        <path id="Path_44658" data-name="Path 44658" class="cls-9" d="M126.017,61.693l1.477,1.9-.738.177Z" transform="translate(-20.199 -9.89)"/>
        <path id="Path_44659" data-name="Path 44659" class="cls-9" d="M113.792,36.19a1.515,1.515,0,0,1,.158-1.236,9.762,9.762,0,0,0,.61-1.133c.217-.6.151-1.279.388-1.867.418-1.041,1.605-1.506,2.669-1.867a1.794,1.794,0,0,1,.971-.132c.431.1.711.492,1.062.755,1.444,1.077,3.793-.109,5.19,1.031a2.717,2.717,0,0,1,.874,1.821,16.074,16.074,0,0,1-.009,2.07,4.263,4.263,0,0,0,1.108,3.332c.273.241.594.422.861.672a1.176,1.176,0,0,1,.431.961,3.327,3.327,0,0,1-.144.488,2.5,2.5,0,0,0,.416,1.867,5.818,5.818,0,0,0,4.649,3.121c-.131.985-1.149,1.556-2.06,1.96a8.092,8.092,0,0,1-3.637.956,2.916,2.916,0,0,1-2.806-2.121c-.076-.431-.066-.949-.431-1.173-.224-.136-.514-.1-.755-.2a1.331,1.331,0,0,1-.636-.9,8.064,8.064,0,0,1-.375-2.3,4.8,4.8,0,0,0-.418-2.695c-.485-.7-1.347-1.062-1.907-1.71a3.376,3.376,0,0,0-1.925-1.436C116.908,36.293,114.484,37.885,113.792,36.19Z" transform="translate(-22.702 -7.69)"/>
        <path id="Path_44660" data-name="Path 44660" class="cls-12" d="M113.792,35.938a1.515,1.515,0,0,1,.158-1.236,9.761,9.761,0,0,0,.61-1.133c.217-.6.151-1.279.388-1.867.418-1.042,1.605-1.508,2.669-1.867a1.794,1.794,0,0,1,.971-.132c.431.1.711.492,1.062.755,1.444,1.077,3.793-.109,5.19,1.031a2.717,2.717,0,0,1,.874,1.822,16.05,16.05,0,0,1-.009,2.069,4.263,4.263,0,0,0,1.108,3.332c.273.241.594.422.861.672a1.176,1.176,0,0,1,.431.961,3.327,3.327,0,0,1-.144.488,2.5,2.5,0,0,0,.416,1.867,5.827,5.827,0,0,0,4.645,3.12c-.131.985-1.149,1.556-2.06,1.961a8.109,8.109,0,0,1-3.637.955,2.916,2.916,0,0,1-2.806-2.121c-.076-.431-.066-.949-.431-1.173-.224-.136-.514-.1-.755-.2a1.331,1.331,0,0,1-.636-.9,8.055,8.055,0,0,1-.375-2.3,4.8,4.8,0,0,0-.418-2.695c-.485-.7-1.347-1.062-1.907-1.71a3.376,3.376,0,0,0-1.925-1.436C116.908,36.042,114.484,37.637,113.792,35.938Z" transform="translate(-22.702 -7.65)"/>
        <path id="Path_44661" data-name="Path 44661" class="cls-9" d="M117.469,50.218l2.6-2.111s-1.78-.965-1.993-1.788-1.637.391-1.492,1.129S117.469,50.218,117.469,50.218Z" transform="translate(-23.16 -10.273)"/>
        <path id="Path_44662" data-name="Path 44662" class="cls-10" d="M117.592,49.84l2.6-2.109s-1.78-.965-1.984-1.788-1.637.391-1.492,1.129S117.592,49.84,117.592,49.84Z" transform="translate(-23.181 -10.213)"/>
        <circle id="Ellipse_1314" data-name="Ellipse 1314" class="cls-9" cx="0.207" cy="0.207" r="0.207" transform="translate(96.907 39.077)"/>
        <circle id="Ellipse_1315" data-name="Ellipse 1315" class="cls-9" cx="0.207" cy="0.207" r="0.207" transform="translate(96.907 40.226)"/>
        <circle id="Ellipse_1316" data-name="Ellipse 1316" class="cls-9" cx="0.207" cy="0.207" r="0.207" transform="translate(96.907 41.373)"/>
        <g id="Group_37051" data-name="Group 37051" class="cls-17" transform="translate(91.049 23.591)">
          <path id="Path_44663" data-name="Path 44663" d="M115.005,33.3c.205-.564.161-1.2.353-1.766a1.93,1.93,0,0,0-.22.4c-.238.593-.171,1.272-.389,1.867l-.014.034A3.281,3.281,0,0,0,115.005,33.3Z" transform="translate(-113.914 -31.539)"/>
          <path id="Path_44664" data-name="Path 44664" d="M131.252,48.121a8.109,8.109,0,0,1-3.637.955,2.916,2.916,0,0,1-2.806-2.119c-.076-.431-.066-.95-.431-1.174-.224-.136-.514-.1-.755-.2a1.331,1.331,0,0,1-.636-.9,8.055,8.055,0,0,1-.375-2.3,4.8,4.8,0,0,0-.416-2.695c-.487-.7-1.348-1.061-1.908-1.71a3.382,3.382,0,0,0-1.925-1.436c-1.162-.158-3.589,1.436-4.276-.261a1.335,1.335,0,0,1,.044-.981c-.05.085-.1.169-.144.256a1.521,1.521,0,0,0-.157,1.238c.691,1.694,3.114.1,4.276.261a3.407,3.407,0,0,1,1.925,1.436c.56.649,1.421,1.005,1.907,1.711a4.782,4.782,0,0,1,.418,2.694,8.055,8.055,0,0,0,.375,2.3,1.334,1.334,0,0,0,.636.9c.241.1.531.069.755.2.37.224.36.748.431,1.174a2.92,2.92,0,0,0,2.806,2.119A8.119,8.119,0,0,0,131,48.634c.833-.37,1.76-.883,2.01-1.723A4.35,4.35,0,0,1,131.252,48.121Z" transform="translate(-113.757 -32.142)"/>
        </g>
        <path id="Path_44665" data-name="Path 44665" class="cls-19" d="M159.557,57.139a33.776,33.776,0,0,0-4.194-2.18l-.063-.045a2.528,2.528,0,0,1-.765-.968,2.02,2.02,0,0,1,0-.208.089.089,0,0,0,0,.02,4.582,4.582,0,0,1,1.331-2.5l1.6-1.879a1.852,1.852,0,0,0,.412-.652,1.5,1.5,0,0,0,.043-.4q0-.082,0-.164c-.009-.467-.022-.935-.039-1.4-.014-.408-.119-.922-.527-1.005-.212-.043-.494.033-.606-.144a.349.349,0,0,1-.027-.243.084.084,0,0,0,0,.02v-.023a5.407,5.407,0,0,0,.151-.961,1.309,1.309,0,0,0-.066-.487c-.235-.676-1.05-.955-1.769-1.083a3.1,3.1,0,0,1-1.977-.8,5.849,5.849,0,0,0-.393-.541,1.552,1.552,0,0,0-.735-.363,4.164,4.164,0,0,0-2.675.233,2.4,2.4,0,0,1-1.078.342c-.382-.023-.735-.3-1.126-.365a1.606,1.606,0,0,0-1.548.906,2.216,2.216,0,0,0-.287,1.068v.063h0a1.562,1.562,0,0,0,.411,1.091c.273.287.678.477.791.849.046.151.034.314.076.468a.422.422,0,0,0,.017.056l-.02.027a4.738,4.738,0,0,0-1.005,2.92,4.847,4.847,0,0,0,3.406,4.595v.144a2.066,2.066,0,0,1-.66,1.608l-4.306,1.72s-2.6-.309-3.532,3.485a6.469,6.469,0,0,0-.161,1.924,5.577,5.577,0,0,1-.718,2.882c-1.064,2.085-.821,6.87,1.355,7.344a7.1,7.1,0,0,0,2.943.24v.083c-.034.9-.36,8.643-1.545,9.58-.327.26-.267.431,0,.553,0,0,0,.05-.007.144a9.652,9.652,0,0,1-1.005,3.951c-.92,1.421-.824,9.62-.824,9.62l-.627,4.833s.386,2.985,0,3.506c-.346.464-.805,11.506-.9,13.9h-.04a1.166,1.166,0,0,0-.93.574,16.221,16.221,0,0,1-2.289,2.352,6.438,6.438,0,0,1-2.57,1.321,1.6,1.6,0,0,0-.287.126,1.532,1.532,0,0,0-.649.683.734.734,0,0,0-.069.574c.192.472,4.208.805,5.225.33a34.75,34.75,0,0,1,5.277-1.054,1.083,1.083,0,0,0,.939-.939.619.619,0,0,0-.121-.47,4.162,4.162,0,0,1-.431-1.723,1.164,1.164,0,0,0,.3-.175,12.613,12.613,0,0,1,.718-5.07c.968-2.559,1.258-7.3,1.017-10.376,0,0,2.951-12.7,5.274-13.883h0c.036.046,1.163,1.492,1.307,5.97a18.09,18.09,0,0,0,1.789,7.534s-.727,7.723,0,10.613l-.949,4.559c-.07-.059-.115-.1-.115-.1s.029.126.067.329l-.02.1.042.009a8.973,8.973,0,0,1,.2,2.154c-.037.332-.131.787-.194,1.233-.1.7-.128,1.383.241,1.532.606.244,4.164.574,4.767-.207a1.119,1.119,0,0,0,.175-1.17,1.184,1.184,0,0,0-.175-.3,4.415,4.415,0,0,1-.678-2.632.8.8,0,0,0-.113-.625,32.1,32.1,0,0,1,.814-5.106c.606-2.28,1.882-7.279.943-10.566h0q-.053-.194-.121-.379a14.191,14.191,0,0,1-.533-5.544,11.3,11.3,0,0,1,0-4.833c.581-2.653.988-5.259.988-5.259a33.251,33.251,0,0,0,.04-5.656,1.411,1.411,0,0,0-.019-.144l.152-.034s-.823-3.648-1.113-5.97c-.069-.548-.158-1.242-.256-1.983a5.06,5.06,0,0,0,.788-.2c2.612-.9,3.434-9.045,3.434-9.045V62.865S162.606,58.893,159.557,57.139Zm-19.463,62.922c-.08-.04-.128-.067-.128-.067h0Z" transform="translate(-25.639 -9.466)"/>
        <path id="Path_44666" data-name="Path 44666" class="cls-20" d="M159.326,111.8c1.133,3.258-.19,8.546-.8,10.912a32.986,32.986,0,0,0-.8,5.195,10.94,10.94,0,0,1-4.155-.095l.992-4.863c-.709-2.88,0-10.577,0-10.577a18.35,18.35,0,0,1-1.747-7.508c-.144-4.461-1.239-5.9-1.274-5.948h0c-2.266,1.18-5.146,13.835-5.146,13.835.235,3.068-.049,7.791-.992,10.338a12.778,12.778,0,0,0-.708,5.051,1.536,1.536,0,0,1-1.292.247,8.819,8.819,0,0,1-2.965-1.38s.518-13.784.9-14.306,0-3.495,0-3.495l.613-4.816s-.095-8.17.8-9.585a9.728,9.728,0,0,0,.988-3.938v-.144l1.367-1.637s13.221-.992,14.214,0a2.833,2.833,0,0,1,.482,1.493,33.83,33.83,0,0,1-.04,5.635s-.4,2.6-.963,5.241a11.5,11.5,0,0,0,0,4.817A14.419,14.419,0,0,0,159.326,111.8Z" transform="translate(-26.984 -17.103)"/>
        <path id="Path_44667" data-name="Path 44667" class="cls-15" d="M161,139.765c-.59.78-4.06.449-4.652.207-.36-.144-.333-.828-.235-1.528.062-.444.152-.9.19-1.228a11.3,11.3,0,0,0-.287-2.574s.778.827.966,0a.9.9,0,0,1,.675-.64,1.763,1.763,0,0,1,1.226.076c.613.267,1.635.834,1.453,1.6a4.479,4.479,0,0,0,.66,2.623,1.194,1.194,0,0,1,.172.3A1.133,1.133,0,0,1,161,139.765Z" transform="translate(-29.482 -24.361)"/>
        <path id="Path_44668" data-name="Path 44668" class="cls-9" d="M161,140.627c-.59.78-4.06.449-4.652.207-.36-.144-.333-.828-.235-1.528a4.006,4.006,0,0,0,2.063.223,5.818,5.818,0,0,1,.742-.023,17.264,17.264,0,0,0,2.254-.046A1.133,1.133,0,0,1,161,140.627Z" transform="translate(-29.488 -25.224)"/>
        <path id="Path_44669" data-name="Path 44669" class="cls-9" d="M146.954,114.532c.235,3.068-.049,7.791-.992,10.338a12.779,12.779,0,0,0-.708,5.051,1.536,1.536,0,0,1-1.292.247c.287-1.991,1.5-10.572,2.276-17.351a28.393,28.393,0,0,1,5.025-13.031l.826.909C149.835,101.878,146.954,114.532,146.954,114.532Z" transform="translate(-27.55 -18.888)"/>
        <path id="Path_44670" data-name="Path 44670" class="cls-21" d="M158.424,57.166,157.849,60l-2.824,4.745-3.482-1.487s-4.738-4.958-1.759-5.666a2.636,2.636,0,0,0,.988-.439,2.043,2.043,0,0,0,.771-1.709,5.238,5.238,0,0,0-.48-2.03l6.091-1.912a9.776,9.776,0,0,0-.431,2.467,3.282,3.282,0,0,0,1.075,2.872A1.829,1.829,0,0,0,158.424,57.166Z" transform="translate(-28.326 -11.148)"/>
        <path id="Path_44671" data-name="Path 44671" class="cls-9" d="M157.581,51.5a9.776,9.776,0,0,0-.431,2.467,4.633,4.633,0,0,1-.355.378,4.819,4.819,0,0,1-4.816,1.1,5.237,5.237,0,0,0-.484-2.03Z" transform="translate(-28.758 -11.148)"/>
        <path id="Path_44672" data-name="Path 44672" class="cls-21" d="M157.736,49.652a4.794,4.794,0,1,1-1.4-3.412A4.817,4.817,0,0,1,157.736,49.652Z" transform="translate(-28.214 -10.08)"/>
        <path id="Path_44673" data-name="Path 44673" class="cls-9" d="M158.424,58.184l-.574,2.833-2.824,4.745-3.482-1.487s-4.738-4.958-1.759-5.666a2.636,2.636,0,0,0,.988-.439c-.537,1.476,1.68,4.547,1.68,4.547.258.38.85.144.85.144,1.429-.217,4.058-4.325,4.487-5.008A1.829,1.829,0,0,0,158.424,58.184Z" transform="translate(-28.326 -12.166)"/>
        <path id="Path_44674" data-name="Path 44674" class="cls-9" d="M160.44,90.584c-.839.191-5.478,1.218-7.236.961-1.935-.287-5.7-.471-5.7-.471a11.113,11.113,0,0,1-3.134-.208v-.144l1.367-1.637s13.221-.992,14.214,0A2.82,2.82,0,0,1,160.44,90.584Z" transform="translate(-27.615 -17.102)"/>
        <path id="Path_44675" data-name="Path 44675" class="cls-10" d="M151.114,62.867s-2.491-3.446-1.552-4.8l-4.208,1.723s-2.533-.307-3.446,3.473a6.577,6.577,0,0,0-.156,1.918,5.675,5.675,0,0,1-.694,2.872c-1.038,2.078-.8,6.847,1.322,7.322a6.461,6.461,0,0,0,2.879.235s-.287,8.641-1.51,9.633,3.13.755,3.13.755,3.763.19,5.7.472,7.366-.992,7.366-.992-.8-3.635-1.087-5.948-.946-7.241-.946-7.241l4.816-6.524s.85-3.943-2.125-5.69a33.615,33.615,0,0,0-4.093-2.175s-2.989,4.867-4.547,5.1C151.964,63.008,151.372,63.246,151.114,62.867Z" transform="translate(-26.988 -12.175)"/>
        <path id="Path_44676" data-name="Path 44676" class="cls-9" d="M146.415,65.444a7.1,7.1,0,0,0,.237,2.172c.283.613,1.322,4.02,1.322,4.02h-2.362s1.275-1.37,1.182-2.032S146.415,65.444,146.415,65.444Z" transform="translate(-27.814 -13.383)"/>
        <path id="Path_44677" data-name="Path 44677" class="cls-21" d="M153.455,78.183s-5.215-1.275-5.7-2.36-1.825-3.516-1.825-3.516l.55-.741,2.536,1.99s3.015,2.408,4.439,2.645S153.455,78.183,153.455,78.183Z" transform="translate(-27.865 -14.365)"/>
        <path id="Path_44678" data-name="Path 44678" class="cls-22" d="M153.455,78.183s-5.215-1.275-5.7-2.36-1.825-3.516-1.825-3.516l.55-.741,2.536,1.99s3.015,2.408,4.439,2.645S153.455,78.183,153.455,78.183Z" transform="translate(-27.865 -14.365)"/>
        <path id="Path_44679" data-name="Path 44679" class="cls-21" d="M158.462,72.131v2.828h-.454a13.222,13.222,0,0,0-6.423,1.664l-.851.471-.228.128-1.464-3.3,1.37-1.228h.07a8.19,8.19,0,0,0,2.4-.053,3.9,3.9,0,0,1,3.024-.388c.846.217,1.569,1.164,2.389.869Z" transform="translate(-28.364 -14.45)"/>
        <path id="Path_44680" data-name="Path 44680" class="cls-9" d="M163.725,65.389l.943,1.062v2.574s-.8,8.121-3.351,9.018-7.1-.52-7.1-.52-1.176-3.116-.626-3.3,4.86-1.327,4.86-1.327-.06-4.764.883-6.181c0,0-.613-4.438,1.512-4.533S163.725,65.389,163.725,65.389Z" transform="translate(-29.07 -12.86)"/>
        <path id="Path_44681" data-name="Path 44681" class="cls-10" d="M163.9,65.389l.945,1.062v2.574s-.8,8.121-3.353,9.018-7.1-.52-7.1-.52-1.176-3.116-.625-3.3,4.86-1.327,4.86-1.327-.062-4.764.883-6.181c0,0-.615-4.438,1.51-4.533S163.9,65.389,163.9,65.389Z" transform="translate(-29.097 -12.86)"/>
        <path id="Path_44682" data-name="Path 44682" class="cls-9" d="M156.6,51.694a1.9,1.9,0,0,0-.108-.92.7.7,0,0,0-.749-.431c-.4.095-.574.62-.973.747a.778.778,0,0,1-.861-.442,2.2,2.2,0,0,1-.164-1.028V48.436a1.958,1.958,0,0,0-.279-1.23,2.173,2.173,0,0,0-1.62-.586,1.374,1.374,0,0,0-.925.372,1.19,1.19,0,0,1-.972.346.837.837,0,0,1-.678-.586v-.014a4.816,4.816,0,1,1,7.159,6.392,12.984,12.984,0,0,0,.169-1.436Z" transform="translate(-28.402 -10.076)"/>
        <path id="Path_44683" data-name="Path 44683" class="cls-23" d="M149.714,46.64a.844.844,0,0,1-.679-.587c-.039-.152-.029-.314-.073-.465-.111-.372-.507-.564-.772-.847a1.9,1.9,0,0,1-.121-2.171,1.569,1.569,0,0,1,1.51-.9c.382.066.718.337,1.1.363a2.219,2.219,0,0,0,1.052-.34,3.966,3.966,0,0,1,2.616-.233,1.508,1.508,0,0,1,.718.363,6.279,6.279,0,0,1,.383.538,2.991,2.991,0,0,0,1.93.8c.7.126,1.5.4,1.723,1.08a2.822,2.822,0,0,1-.083,1.4.422.422,0,0,0,.019.287c.111.181.385.1.592.144.4.085.5.6.515,1.005q.024.7.037,1.4a1.779,1.779,0,0,1-.042.517,1.825,1.825,0,0,1-.4.65l-1.559,1.874a4.032,4.032,0,0,0-1.292,2.872.669.669,0,0,1-.824-.48,2.145,2.145,0,0,1,.052-1.064,13.042,13.042,0,0,0,.25-1.845,1.892,1.892,0,0,0-.108-.919.7.7,0,0,0-.749-.431c-.4.095-.574.62-.973.747a.778.778,0,0,1-.861-.442,2.2,2.2,0,0,1-.164-1.027V47.736a1.958,1.958,0,0,0-.279-1.23,2.173,2.173,0,0,0-1.62-.586,1.374,1.374,0,0,0-.923.372A1.192,1.192,0,0,1,149.714,46.64Z" transform="translate(-28.163 -9.519)"/>
        <path id="Path_44684" data-name="Path 44684" class="cls-9" d="M151.376,65.3l1.479,6.075S154.021,71.372,151.376,65.3Z" transform="translate(-28.738 -13.361)"/>
        <path id="Path_44685" data-name="Path 44685" class="cls-9" d="M157.135,64.1a9.725,9.725,0,0,0-1.18,6.45l.36.026S155.672,69.053,157.135,64.1Z" transform="translate(-29.444 -13.167)"/>
        <path id="Path_44686" data-name="Path 44686" class="cls-9" d="M158.848,85.431s2.378-.787,2.55,1.038C161.4,86.469,160.956,85.219,158.848,85.431Z" transform="translate(-29.936 -16.56)"/>
        <path id="Path_44687" data-name="Path 44687" class="cls-9" d="M149.9,72.98s-.472,3.3.378,4.628a10.356,10.356,0,0,1-4.155.567l-.287-5.195Z" transform="translate(-27.85 -14.591)"/>
        <path id="Path_44688" data-name="Path 44688" class="cls-9" d="M150.735,77.207l-.228.128-1.464-3.3,1.37-1.228h.07C150.461,72.969,150.079,75.807,150.735,77.207Z" transform="translate(-28.364 -14.563)"/>
        <path id="Path_44689" data-name="Path 44689" class="cls-10" d="M149.637,72.812s-.472,3.3.378,4.626a10.325,10.325,0,0,1-4.155.567l-1.653-5.193Z" transform="translate(-27.589 -14.564)"/>
        <path id="Path_44690" data-name="Path 44690" class="cls-15" d="M143.673,137.731a1.07,1.07,0,0,1-.917.936,33.072,33.072,0,0,0-5.15,1.051c-.992.472-4.91.144-5.1-.33a.749.749,0,0,1,.067-.574,1.513,1.513,0,0,1,.633-.681,1.681,1.681,0,0,1,.287-.126A6.2,6.2,0,0,0,136,136.691a16,16,0,0,0,2.234-2.342,1.134,1.134,0,0,1,.907-.566c.414-.019.874.19,1.064,1.1,0,0,2.264,1.292,2.872.159a6.214,6.214,0,0,0,.471,2.217h0a.632.632,0,0,1,.124.477Z" transform="translate(-25.709 -24.338)"/>
        <path id="Path_44691" data-name="Path 44691" class="cls-9" d="M143.673,138.394a1.07,1.07,0,0,1-.917.936,33.072,33.072,0,0,0-5.15,1.051c-.992.472-4.91.144-5.1-.33a.749.749,0,0,1,.067-.574,1.513,1.513,0,0,1,.633-.681c.639.431,2.057.839,5.177.352a22.856,22.856,0,0,0,5.169-1.23h0a.632.632,0,0,1,.121.477Z" transform="translate(-25.709 -25.001)"/>
        <g id="Group_37052" data-name="Group 37052" class="cls-17" transform="translate(119.621 34.05)">
          <path id="Path_44692" data-name="Path 44692" d="M161.151,46.325V46.3a4.229,4.229,0,0,0,.144-1.073,7.079,7.079,0,0,1-.144.861A.523.523,0,0,0,161.151,46.325Z" transform="translate(-149.924 -44.193)"/>
          <path id="Path_44693" data-name="Path 44693" d="M156.255,50.547a1.365,1.365,0,0,1,.116.54,1.628,1.628,0,0,0-.116-.752.7.7,0,0,0-.748-.431c-.4.095-.574.62-.975.747a.78.78,0,0,1-.861-.442,2.185,2.185,0,0,1-.164-1.028V48a1.958,1.958,0,0,0-.279-1.23,2.176,2.176,0,0,0-1.62-.587,1.375,1.375,0,0,0-.925.373,1.193,1.193,0,0,1-.973.346.841.841,0,0,1-.678-.586c-.039-.152-.029-.316-.073-.467-.111-.37-.507-.564-.772-.846a1.546,1.546,0,0,1-.4-1.005,1.609,1.609,0,0,0,.4,1.21c.266.287.662.475.772.846.045.144.034.314.073.467a.841.841,0,0,0,.678.586,1.193,1.193,0,0,0,.973-.346,1.375,1.375,0,0,1,.925-.373,2.172,2.172,0,0,1,1.62.587,1.969,1.969,0,0,1,.279,1.23v1.183a2.173,2.173,0,0,0,.164,1.027.782.782,0,0,0,.861.444c.4-.126.574-.652.975-.747A.725.725,0,0,1,156.255,50.547Z" transform="translate(-147.783 -43.995)"/>
          <path id="Path_44694" data-name="Path 44694" d="M161.872,50.192a1.815,1.815,0,0,1-.4.649l-1.559,1.874a4.2,4.2,0,0,0-1.292,2.708,4.645,4.645,0,0,1,1.292-2.5l1.559-1.874a1.815,1.815,0,0,0,.4-.649,1.792,1.792,0,0,0,.042-.518A1.365,1.365,0,0,1,161.872,50.192Z" transform="translate(-149.519 -44.94)"/>
          <path id="Path_44695" data-name="Path 44695" d="M157.642,56.055a1.1,1.1,0,0,1-.047-.253,1.273,1.273,0,0,0,.047.465.666.666,0,0,0,.824.478,2.012,2.012,0,0,1-.017-.207A.667.667,0,0,1,157.642,56.055Z" transform="translate(-149.355 -45.888)"/>
        </g>
        <path id="Path_44696" data-name="Path 44696" class="cls-9" d="M138.961,134.972s.494.861,2.283.1" transform="translate(-26.748 -24.529)"/>
        <path id="Path_44697" data-name="Path 44697" class="cls-9" d="M156.968,135.221a2.729,2.729,0,0,0,3.486.6" transform="translate(-29.635 -24.569)"/>
        <path id="Path_44698" data-name="Path 44698" class="cls-9" d="M162.1,109.643s-1.09.681-1.124,1.07.563-.287.563-.287Z" transform="translate(-30.277 -20.469)"/>
        <path id="Path_44699" data-name="Path 44699" class="cls-9" d="M162.452,115.86a2.279,2.279,0,0,1-1.342.524c-.816.036-.747,1.1-.214.78A13.363,13.363,0,0,0,162.452,115.86Z" transform="translate(-30.2 -21.465)"/>
        <path id="Path_44700" data-name="Path 44700" class="cls-9" d="M162.891,116.672s-.523,2.569-.948,2.073" transform="translate(-30.432 -21.595)"/>
        <path id="Path_44701" data-name="Path 44701" class="cls-24" d="M42.529,123.522s3.281.9,4.86-.3,2.264-.813,2.264-.813,3.766-.208,4.076-1.1-1.444-4.124-1.444-4.124c-.125-.287-.307-.652-.389-.652l.017-1.364h0l.546-5.707c1.259-3.229.023-7.4.023-7.4l-.225-1.035a2.619,2.619,0,0,1,.214-1.723l2.287-4.594a6.876,6.876,0,0,1,.431-.882c.144-.263.335-.587.574-.976.07-.112.144-.228.224-.35.277-.431.613-.919,1.019-1.482a12.125,12.125,0,0,0,1.821-4.451l.122.4h.027l.033.007h.055l.059.01h.022l.7,8.954a10.674,10.674,0,0,0,1.325,5.424L61,109.081a16.674,16.674,0,0,1-.53,5.32l-.554,1.251a1.5,1.5,0,0,0-.817,1.137,14.048,14.048,0,0,1-1.081,2.913c-.376.477-1.193,1.765-1.193,1.765s-.385,1.243-.146,1.709,2.231.418,2.231.418c2.276.5,4.02-.718,3.91-1.559s.355-1.055.355-1.055c.9-.287.817-.9.817-.9a5.634,5.634,0,0,0-.685-3.667l-.144.332a5.049,5.049,0,0,1,.273-1.957l-.083.057-.026.016h-.009a13.861,13.861,0,0,1,1.466-3.589c2.429-4.261,1.546-10.036,1.546-10.036l-.376-1.8-.022-.679a22.667,22.667,0,0,1,.366-4.839c.131-.706.266-1.559.369-2.5a22.094,22.094,0,0,1,1.246-4.906l.1-.017h.011c.132-.023.266-.046.4-.072h.026s.078-.419.144-1.133c.039-.455.07-1.032.07-1.7a19.077,19.077,0,0,0-.906-5.9l.073-.1s.174-.235.491-.643h0c.583-.741,1.49-1.867,2.609-3.136a5.375,5.375,0,0,0,1.414-4.594s-1.45-5.314-2.1-8.5a9.671,9.671,0,0,0-1.591-3.783,7.53,7.53,0,0,0,.2-1.533,5.6,5.6,0,0,0-.415-2.778,2.387,2.387,0,0,0-2.274-1.406.87.87,0,0,1-.408,0,.62.62,0,0,1-.268-.234,3.524,3.524,0,0,1-.416-2.712c.172-.925.525-1.809.683-2.737a3.388,3.388,0,0,0-.5-2.692c-.693-.861-1.9-1.1-2.8-1.752-.633-.455-1.108-1.108-1.776-1.512a2.542,2.542,0,0,0-2.017-.1,16.134,16.134,0,0,0-3.531.9,9.4,9.4,0,0,0-3.077,2.238,2.92,2.92,0,0,0-.686,1.083c-.287.949.274,1.96.157,2.942a5.821,5.821,0,0,1-.82,1.924,2.493,2.493,0,0,0-.319,2.01c.4,1.017,1.713,1.232,2.666,1.773a.814.814,0,0,1,.316.274c.235.411-.246.837-.548,1.2a1.811,1.811,0,0,0-.359.729,2.6,2.6,0,0,0-1.561,1.884A8.8,8.8,0,0,0,51.5,60.9c-.478,2.686.144,3.746.6,4.152a2.3,2.3,0,0,1,.8,1.571v.05c.03.488.082.975.151,1.46h0c-.016-.113-.032-.234-.04-.287a16.942,16.942,0,0,0-1.49,5.446,16.367,16.367,0,0,1-.363,1.9,10.372,10.372,0,0,0-.3,3.391l.072.966a.3.3,0,0,1-.2-.065l.5.923v1.558a5.743,5.743,0,0,1-.382,2.055c-.036.095-.075.19-.116.287a1.671,1.671,0,0,0-.169.846C49.484,86.816,47,96.126,47,96.126a5.133,5.133,0,0,0,.111,5.025s.706,8.5.838,8.938.425,5.62.425,5.62h0v.412a.967.967,0,0,0-.246-.07c-1.182-.066-1.5,1.8-1.5,1.8l-2.418,2.309a3.93,3.93,0,0,0-2.728,1.032C39.856,122.41,42.529,123.522,42.529,123.522ZM66.672,74.4l-.007-.026-.066.039h0l-.027.016-.013.009h0L65.444,70.51a6.53,6.53,0,0,1-.082-3.235l.861-3.773h0v-.907l2.738,7.3C69.137,70.874,67.51,73.256,66.672,74.4Z" transform="translate(-11.038 -9.194)"/>
        <path id="Path_44702" data-name="Path 44702" class="cls-25" d="M71.331,95.241a22.612,22.612,0,0,0-1.387,5.269c-.1.93-.234,1.772-.363,2.47a22.567,22.567,0,0,0-.353,4.777l.022.671.359,1.776s.861,5.7-1.518,9.907a12.881,12.881,0,0,0-1.453,3.709l-.955.369-1.93-.541a17.863,17.863,0,0,0,.629-5.683l.174-7.61a10.592,10.592,0,0,1-1.3-5.35l-.737-9.456Z" transform="translate(-14.495 -18.16)"/>
        <path id="Path_44703" data-name="Path 44703" class="cls-25" d="M60.146,93.637a13.8,13.8,0,0,1-2.06,6.228,17.675,17.675,0,0,0-2.211,3.644l-2.246,4.54a2.6,2.6,0,0,0-.211,1.7l.221,1.022s1.215,4.121-.022,7.31l-.586,6.16H49.605s-.287-5.119-.412-5.552-.824-8.827-.824-8.827a5.094,5.094,0,0,1-.109-4.966s2.994-11.278,3.795-11.083S60.146,93.637,60.146,93.637Z" transform="translate(-12.118 -17.903)"/>
        <g id="Group_37053" data-name="Group 37053" class="cls-17" transform="translate(40.566 75.734)">
          <path id="Path_44704" data-name="Path 44704" d="M54.243,110.777l-.22-1.022a2.584,2.584,0,0,1,.21-1.706l2.246-4.544a17.672,17.672,0,0,1,2.211-3.644,13.762,13.762,0,0,0,2.059-6.207l.349-.017a13.8,13.8,0,0,1-2.06,6.228,17.675,17.675,0,0,0-2.211,3.644l-2.246,4.54a2.6,2.6,0,0,0-.211,1.7l.221,1.022s1.215,4.121-.022,7.31l-.586,6.16h-.347l.586-6.16C55.458,114.891,54.243,110.777,54.243,110.777Z" transform="translate(-53.636 -93.637)"/>
        </g>
        <path id="Path_44705" data-name="Path 44705" class="cls-9" d="M66.86,123.823a12.881,12.881,0,0,1,1.453-3.709c2.386-4.207,1.518-9.907,1.518-9.907l-.368-1.778-.022-.671a22.567,22.567,0,0,1,.353-4.777c.128-.7.26-1.539.362-2.47a22.609,22.609,0,0,1,1.383-5.258l.356-.014a22.612,22.612,0,0,0-1.387,5.269c-.1.93-.234,1.772-.363,2.47a22.568,22.568,0,0,0-.353,4.777l.022.671.359,1.776s.861,5.7-1.518,9.907a12.88,12.88,0,0,0-1.453,3.709l-.955.369-.2-.056Z" transform="translate(-15.06 -18.16)"/>
        <path id="Path_44706" data-name="Path 44706" class="cls-26" d="M65.28,129.121a1.66,1.66,0,0,0,1.579-.2,5.1,5.1,0,0,0-.129,2.863c.391,1.562-3.644-1.258-3.644-1.258l.861-1.968A1.351,1.351,0,0,0,65.28,129.121Z" transform="translate(-14.585 -23.502)"/>
        <path id="Path_44707" data-name="Path 44707" class="cls-9" d="M65.581,129.208a1.612,1.612,0,0,0,1.282-.287,5.1,5.1,0,0,0-.129,2.863c.391,1.562-3.644-1.258-3.644-1.258l.861-1.968a1.231,1.231,0,0,0,.984.554C65.157,129.138,65.37,129.168,65.581,129.208Z" transform="translate(-14.586 -23.501)"/>
        <path id="Path_44708" data-name="Path 44708" class="cls-25" d="M49.47,80.462h1.686V70.9l-1.265-.227Z" transform="translate(-7.929 -11.33)"/>
        <path id="Path_44709" data-name="Path 44709" class="cls-22" d="M49.47,80.462h1.686V70.9l-1.265-.227Z" transform="translate(-7.929 -11.33)"/>
        <path id="Path_44710" data-name="Path 44710" class="cls-27" d="M63.764,130.074a1.681,1.681,0,0,1,1.539.889l.586.455.287-.672a5.6,5.6,0,0,1,.663,3.622s.086.606-.8.889c0,0-.455.217-.347,1.041s-1.6,2.039-3.838,1.539c0,0-1.953.045-2.191-.412s.152-1.67.152-1.67.8-1.272,1.17-1.742a14.1,14.1,0,0,0,1.064-2.872C62.156,130.238,63.2,129.575,63.764,130.074Z" transform="translate(-14.024 -23.716)"/>
        <path id="Path_44711" data-name="Path 44711" class="cls-26" d="M53.4,130.791l.017-1.348a6.218,6.218,0,0,1-3.51-.073s.132,1.355-.086,1.541.727,1.93.727,1.93l1.055,1.106,1.815-.66.492-1.551S53.528,130.791,53.4,130.791Z" transform="translate(-12.453 -23.631)"/>
        <path id="Path_44712" data-name="Path 44712" class="cls-9" d="M53.4,130.791l.017-1.348a6.218,6.218,0,0,1-3.51-.073s.132,1.355-.086,1.541.727,1.93.727,1.93l1.055,1.106,1.815-.66.492-1.551S53.528,130.791,53.4,130.791Z" transform="translate(-12.453 -23.631)"/>
        <path id="Path_44713" data-name="Path 44713" class="cls-27" d="M48.34,130.481s1.031.119.9,1.436.055,0,.055,0a3.776,3.776,0,0,1,1.486,1.062c.391.619,1.1-.553,1.149-.889s.492-.475.492-.475,1.723,3.195,1.419,4.073-4,1.081-4,1.081-.673-.379-2.224.8-4.771.287-4.771.287-2.625-1.1-1.029-2.3a3.855,3.855,0,0,1,2.678-1.019l2.375-2.289S47.18,130.415,48.34,130.481Z" transform="translate(-11.092 -23.809)"/>
        <path id="Path_44714" data-name="Path 44714" class="cls-28" d="M62.4,40.49c.656.4,1.123,1.044,1.744,1.493.884.639,2.072.877,2.752,1.73a3.38,3.38,0,0,1,.494,2.658c-.155.916-.5,1.79-.671,2.7a3.5,3.5,0,0,0,.409,2.678.607.607,0,0,0,.263.231.862.862,0,0,0,.4,0,2.345,2.345,0,0,1,2.234,1.388,5.56,5.56,0,0,1,.406,2.744,5.671,5.671,0,0,1-.458,2.236A5.846,5.846,0,0,1,67.025,60.8a22.834,22.834,0,0,1-2.353.95,3.541,3.541,0,0,1-1.706.257c-.981-.169-1.676-1.061-2.606-1.41a5.486,5.486,0,0,0-2.419-.112,2.357,2.357,0,0,1-1.96-.447c-.612-.649-.336-1.7-.023-2.531a1.8,1.8,0,0,1-1.275-2.946c.3-.36.768-.781.537-1.187a.787.787,0,0,0-.31-.27c-.935-.534-2.223-.748-2.616-1.75a2.468,2.468,0,0,1,.312-1.987,5.891,5.891,0,0,0,.805-1.9c.115-.971-.431-1.968-.154-2.9a2.912,2.912,0,0,1,.673-1.071,9.241,9.241,0,0,1,3.015-2.21,15.661,15.661,0,0,1,3.466-.887A2.452,2.452,0,0,1,62.4,40.49Z" transform="translate(-12.838 -9.342)"/>
        <path id="Path_44715" data-name="Path 44715" class="cls-25" d="M56.161,57.753s-2.747-.144-3.266,2.2,1.127,5.7,1.127,5.7Z" transform="translate(-12.935 -12.15)"/>
        <path id="Path_44716" data-name="Path 44716" class="cls-22" d="M56.161,57.753s-2.747-.144-3.266,2.2,1.127,5.7,1.127,5.7Z" transform="translate(-12.935 -12.15)"/>
        <path id="Path_44717" data-name="Path 44717" class="cls-25" d="M54.716,63.638l1.041.824,4.857.217L63.647,62.6,66.731,57.3a3.813,3.813,0,0,1-2.932-3,6.57,6.57,0,0,1-.06-2.507s-4.945-2.56-4.337,1.436a5.427,5.427,0,0,1,.046,1.485,2.1,2.1,0,0,1-2.559,1.9l-.872,1.344-1,3.3Z" transform="translate(-13.243 -11.066)"/>
        <path id="Path_44718" data-name="Path 44718" class="cls-9" d="M60.291,53.227a5.427,5.427,0,0,1,.046,1.485,4.383,4.383,0,0,0,4.352-.408,6.57,6.57,0,0,1-.06-2.507S59.684,49.237,60.291,53.227Z" transform="translate(-14.129 -11.066)"/>
        <circle id="Ellipse_1317" data-name="Ellipse 1317" class="cls-25" cx="4.381" cy="4.381" r="4.381" transform="translate(43.65 35.107)"/>
        <path id="Path_44719" data-name="Path 44719" class="cls-10" d="M57.97,63.862c.106,0,.211.016.316.026.574.057,2.974.187,4.34-1.446,1.529-1.826,3.565-4.082,3.648-4.174l2.072.626s-1.64-.583-2.728,2.467a3.159,3.159,0,0,0,1.067,3.634,3.282,3.282,0,0,0,1.355.574.007.007,0,0,1,0,.007v1.338h0l-.847,3.733a6.471,6.471,0,0,0,.08,3.195l1.292,4.567c-.2.135-8.213,5.588-13.568,1.822h0c.02-.164.682-5.523.223-8.147a18.115,18.115,0,0,1-.24-2.027c0-.017,0-.033,0-.05a2.286,2.286,0,0,0-.785-1.551c-.482-.431-1.136-1.579-.49-4.615a11.151,11.151,0,0,1,.718-2.187l1.8-4.059h0l1.655.033v.011c-.144.178-2.063,2.576-2.271,4.121C55.4,63.23,55.148,63.681,57.97,63.862Z" transform="translate(-13.038 -12.125)"/>
        <path id="Path_44720" data-name="Path 44720" class="cls-25" d="M71.319,59.842a8.354,8.354,0,0,1,2.256,4.54c.636,3.152,2.053,8.386,2.053,8.386a5.35,5.35,0,0,1-1.388,4.54c-1.963,2.256-3.268,4.02-3.268,4.02l-1.292,1.9a1.621,1.621,0,0,1-.93.658,3.143,3.143,0,0,1-2.277-.162,1.327,1.327,0,0,1-.574-1.676l.287-.665s-2.66,1.677-2.892.751,3.094-1.851,3.094-1.851,2.747-.462,3.3-1.763c0,0,2.949-3.789,2.718-5.09L69.558,65.8S66,65.33,67.211,61.328,71.319,59.842,71.319,59.842Z" transform="translate(-14.616 -12.36)"/>
        <path id="Path_44721" data-name="Path 44721" class="cls-20" d="M52.564,92.238s6.507,1.3,8.04,1.127l.165.55s2.47.553,8.053-.333q.547-.086,1.136-.194l.131-.023s.076-.414.136-1.118a19.4,19.4,0,0,0-.946-7.874l-.939-2.892s-5.8,3.479-9.646,3.159c-.343-.029-.683-.056-1.027-.067a4.778,4.778,0,0,1-2.8-.636l-1.666.287v4.738a5.677,5.677,0,0,1-.376,2.027c-.036.095-.073.188-.115.287A1.508,1.508,0,0,0,52.564,92.238Z" transform="translate(-12.894 -15.954)"/>
        <path id="Path_44722" data-name="Path 44722" class="cls-9" d="M62.339,94.5V95.97s2.843.636,9.32-.55c0,0,.076-.413.136-1.118C69.808,94.621,64.328,95.387,62.339,94.5Z" transform="translate(-14.465 -18.009)"/>
        <path id="Path_44723" data-name="Path 44723" class="cls-9" d="M52.564,94.054s6.507,1.3,8.04,1.127l.165.55V94.257c-.741.307-6.03-.968-7.947-1.446-.036.095-.073.188-.115.287a1.508,1.508,0,0,0-.144.956Z" transform="translate(-12.895 -17.77)"/>
        <path id="Path_44724" data-name="Path 44724" class="cls-20" d="M71.355,92.157l.482,2.992q.547-.086,1.136-.194a19.633,19.633,0,0,1-.389-3.2l-.607-.52Z" transform="translate(-15.911 -17.517)"/>
        <path id="Path_44725" data-name="Path 44725" class="cls-9" d="M71.436,92.08l.482,2.994q.547-.088,1.136-.194a19.632,19.632,0,0,1-.389-3.2l-.607-.521Z" transform="translate(-15.924 -17.505)"/>
        <g id="Group_37054" data-name="Group 37054" class="cls-29" transform="translate(41.69 65.523)">
          <path id="Path_44726" data-name="Path 44726" d="M58.736,85.107c-.342-.029-.683-.056-1.027-.067a4.93,4.93,0,0,1-2.735-.587l.279-.049a4.8,4.8,0,0,0,2.8.636c.343.011.683.039,1.027.067.112.01.227.016.343.019a6.442,6.442,0,0,1-.691-.019Z" transform="translate(-54.975 -81.945)"/>
          <path id="Path_44727" data-name="Path 44727" d="M70.464,93.581q.547-.086,1.136-.192l.132-.024s.076-.414.135-1.118a19.346,19.346,0,0,0-.946-7.874l-.884-2.728c.188-.106.287-.168.287-.168l.939,2.892a19.4,19.4,0,0,1,.946,7.874c-.06.7-.136,1.118-.136,1.118l-.131.024q-.587.106-1.136.192a35.765,35.765,0,0,1-5.851.5A36.9,36.9,0,0,0,70.464,93.581Z" transform="translate(-56.575 -81.476)"/>
          <path id="Path_44728" data-name="Path 44728" d="M61.691,95.634v.016H61.5Q61.611,95.643,61.691,95.634Z" transform="translate(-56.021 -83.746)"/>
        </g>
        <ellipse id="Ellipse_1318" data-name="Ellipse 1318" class="cls-26" cx="0.246" cy="0.505" rx="0.246" ry="0.505" transform="translate(56.007 74.188)"/>
        <path id="Path_44729" data-name="Path 44729" class="cls-25" d="M53.526,79.183a16.8,16.8,0,0,1,1.464-5.377c.014.093.052.4.069.49a14.218,14.218,0,0,1,.032,1.52l-.368,6.656.492,2.082c.462,1.648-1.251.346-1.251.346a1.019,1.019,0,0,1-1.005.695L52.871,84.4a10.318,10.318,0,0,1,.3-3.35,15.961,15.961,0,0,0,.356-1.868Z" transform="translate(-12.943 -14.724)"/>
        <path id="Path_44730" data-name="Path 44730" class="cls-22" d="M53.526,79.183a16.8,16.8,0,0,1,1.464-5.377c.014.093.052.4.069.49a14.218,14.218,0,0,1,.032,1.52l-.368,6.656.492,2.082c.462,1.648-1.251.346-1.251.346a1.019,1.019,0,0,1-1.005.695L52.871,84.4a10.318,10.318,0,0,1,.3-3.35,15.961,15.961,0,0,0,.356-1.868Z" transform="translate(-12.943 -14.724)"/>
        <path id="Path_44731" data-name="Path 44731" class="cls-25" d="M71.722,83.922c-.312.4-.482.635-.482.635l-1.292,1.9a1.614,1.614,0,0,1-.93.658,3.135,3.135,0,0,1-2.277-.162,1.324,1.324,0,0,1-.574-1.674l.287-.666s-2.661,1.677-2.892.752,3.094-1.851,3.094-1.851,2.747-.462,3.3-1.765c0,0,.24-.307.574-.778" transform="translate(-14.659 -15.873)"/>
        <path id="Path_44732" data-name="Path 44732" class="cls-20" d="M70.477,87.881s-3.146-.306-4.142-2.1l-.457,1.486s3.3,2.28,4.056,1.984Z" transform="translate(-15.033 -16.643)"/>
        <path id="Path_44733" data-name="Path 44733" class="cls-9" d="M70.344,87.864S67.2,87.558,66.2,85.758l-.455,1.482s3.3,2.28,4.055,1.984Z" transform="translate(-15.012 -16.64)"/>
        <path id="Path_44734" data-name="Path 44734" class="cls-20" d="M54.051,87.283s-1.1.391-1.318.174l.5.912.936-.718Z" transform="translate(-12.925 -16.884)"/>
        <path id="Path_44735" data-name="Path 44735" class="cls-9" d="M54.051,87.283s-1.1.391-1.318.174l.5.912.936-.718Z" transform="translate(-12.925 -16.884)"/>
        <path id="Path_44736" data-name="Path 44736" class="cls-9" d="M56.925,90.726v-1.9l-.452,1.948Z" transform="translate(-9.051 -14.239)"/>
        <path id="Path_44737" data-name="Path 44737" class="cls-9" d="M65.755,46.93a1.69,1.69,0,0,1-1.18.622,9.3,9.3,0,0,1-1.371,0,3.439,3.439,0,0,0-2.069.521,5.261,5.261,0,0,0-.949,1.005c-.887,1.084-2.119,2.1-3.518,1.986a.912.912,0,0,1-.653-.276,1.048,1.048,0,0,1-.167-.594,13.588,13.588,0,0,1,.085-2.679,5.649,5.649,0,0,1,.4-1.6,5.456,5.456,0,0,1,.973-1.39,5.954,5.954,0,0,1,1.7-1.361,3.047,3.047,0,0,1,2.125-.274,19.582,19.582,0,0,1,2.287,1.22C64.333,44.495,66.754,45.518,65.755,46.93Z" transform="translate(-13.42 -9.755)"/>
        <path id="Path_44738" data-name="Path 44738" class="cls-28" d="M65.754,46.722a1.69,1.69,0,0,1-1.18.622,9.3,9.3,0,0,1-1.371,0,3.428,3.428,0,0,0-2.069.52,5.26,5.26,0,0,0-.949,1.005c-.887,1.084-2.119,2.1-3.518,1.986a.906.906,0,0,1-.653-.276,1.044,1.044,0,0,1-.167-.594,13.588,13.588,0,0,1,.085-2.679,5.649,5.649,0,0,1,.4-1.6,5.419,5.419,0,0,1,.973-1.388,5.934,5.934,0,0,1,1.7-1.363,3.047,3.047,0,0,1,2.125-.274,19.582,19.582,0,0,1,2.287,1.22C64.333,44.287,66.754,45.308,65.754,46.722Z" transform="translate(-13.42 -9.721)"/>
        <path id="Path_44739" data-name="Path 44739" class="cls-25" d="M49.955,80.958l-.011.524-.118-.5Z" transform="translate(-7.986 -12.979)"/>
        <path id="Path_44740" data-name="Path 44740" class="cls-22" d="M49.955,80.958l-.011.524-.118-.5Z" transform="translate(-7.986 -12.979)"/>
        <g id="Group_37055" data-name="Group 37055" class="cls-29" transform="translate(52.268 46.825)">
          <path id="Path_44741" data-name="Path 44741" d="M68.347,61.078c-1.216,4,2.329,4.471,2.329,4.471l2.849,7.634c.231,1.3-2.719,5.09-2.719,5.09A2.523,2.523,0,0,1,69.527,79.4a2,2,0,0,0,.758-.833S73.234,74.779,73,73.478l-2.849-7.635s-3.544-.47-2.329-4.471c.406-1.337,1.005-1.945,1.611-2.164A3.686,3.686,0,0,0,68.347,61.078Z" transform="translate(-67.572 -59.208)"/>
        </g>
        <g id="Group_37056" data-name="Group 37056" class="cls-17" transform="translate(40.407 45.469)">
          <path id="Path_44742" data-name="Path 44742" d="M68.566,65.764a2.992,2.992,0,0,0,.574.544,3.263,3.263,0,0,0,1.355.574v.151a3.254,3.254,0,0,1-1.229-.544A2.979,2.979,0,0,1,68.566,65.764Z" transform="translate(-55.871 -58.904)"/>
          <path id="Path_44743" data-name="Path 44743" d="M55.35,72.341v.05a18.544,18.544,0,0,0,.247,2.035c.431,2.475-.134,7.39-.214,8.069L55.24,82.4c.022-.164.683-5.523.224-8.145a18.194,18.194,0,0,1-.24-2.027v-.05a2.215,2.215,0,0,0-.386-1.1A2.233,2.233,0,0,1,55.35,72.341Z" transform="translate(-53.67 -59.756)"/>
          <path id="Path_44744" data-name="Path 44744" d="M57.771,57.791l-1.4-.027a.007.007,0,0,0-.007,0l-1.795,4.058a11.187,11.187,0,0,0-.718,2.187c-.523,2.455-.194,3.678.205,4.283-.449-.53-.913-1.737-.335-4.451a11.068,11.068,0,0,1,.711-2.188l1.808-4.058h0l1.655.033v.01C57.878,57.654,57.834,57.709,57.771,57.791Z" transform="translate(-53.447 -57.594)"/>
          <path id="Path_44745" data-name="Path 44745" d="M71.2,59.14l.024.007Z" transform="translate(-56.293 -57.842)"/>
          <path id="Path_44746" data-name="Path 44746" d="M68.272,59l-1.407-.424h-.007c-.083.092-2.118,2.348-3.647,4.174-1.367,1.632-3.763,1.5-4.34,1.447-.1-.011-.211-.02-.316-.027-1.569-.1-2.187-.287-2.393-.683.294.287.942.431,2.263.511.106,0,.211.016.316.026.574.057,2.974.185,4.34-1.446,1.529-1.828,3.565-4.083,3.648-4.175h0l2.047.62a1.279,1.279,0,0,0-.5-.023Z" transform="translate(-53.882 -57.723)"/>
        </g>
        <path id="Path_44747" data-name="Path 44747" class="cls-9" d="M50.293,132.907s-1.981.541-2.365-.309" transform="translate(-12.155 -24.148)"/>
        <path id="Path_44748" data-name="Path 44748" class="cls-9" d="M65.185,132.42s-2.3.593-2.828-.324" transform="translate(-14.468 -24.068)"/>
        <path id="Path_44749" data-name="Path 44749" class="cls-30" d="M102.21,130.183c.033-.287.08-.574.132-.861a6,6,0,0,0-.287-2.912h0c-.053-.151-.092-.235-.092-.235-.915-.25-4.52,2.547-5.834,3.6-.455,0-.949.02-1.489.056-.235.017-.471.023-.706.019h-.861c-1.219-.982-4.992-3.935-5.931-3.68,0,0-.039.085-.092.235h0a5.9,5.9,0,0,0-.294,2.912c.052.287.1.574.132.861a4.122,4.122,0,0,0,1.292,2.658,17.418,17.418,0,0,0,1.565,4.648,3.328,3.328,0,0,0,.2.656,9.738,9.738,0,0,0-.445,2.584s-1.275-.309-1.4,1.226V142c-.461.211-1.037.695-.389,1.709a.665.665,0,0,0,.333.271c.115.04.227.04.215-.121l.8.9s1.444.167,1.462-.672l.085.013c.194.029.4.053.6.075l.1.332s-1.084-.023-.788.645c0,0,.273.253.366.161,0,0-.144.438.422.438,0,0,.607.322.844.092s.728-.574.774-.718c.013-.039.019-.379.022-.85h.093c1.21.029,2.5-.01,3.664-.073H96.8c0,.51.007.886.02.926.047.144.54.484.775.718s.843-.092.843-.092c.563,0,.422-.438.422-.438.095.092.368-.161.368-.161.3-.668-.79-.645-.79-.645l.129-.431.6-.05.095-.009c-.057.912,1.46.737,1.46.737l.8-.9c-.013.161.1.161.214.121a.659.659,0,0,0,.323-.274c.978-1.529-.828-1.854-.828-1.854a.887.887,0,0,0-.171-.027.294.294,0,0,1,.007-.079h0a3.151,3.151,0,0,0,.011-.606,1.333,1.333,0,0,0-1.075-.783c-.368-.046-.375-1.734-.337-2.9a3.342,3.342,0,0,0,.057-.666,3.515,3.515,0,0,0-.144-1.067,13.681,13.681,0,0,0,1.357-2.872A4.177,4.177,0,0,0,102.21,130.183Z" transform="translate(-18.367 -23.115)"/>
        <path id="Path_44750" data-name="Path 44750" class="cls-10" d="M101.131,143.8h0c-.057.8-.211,2.072-.211,2.072s-.639.078-1.627.167l-.671.057c-.514.042-1.091.082-1.7.116-1.127.062-2.365.1-3.532.072-.583-.013-1.149-.043-1.673-.095-.234-.023-.461-.05-.676-.082-1.338-.2-2.3-.581-2.379-1.252a3.877,3.877,0,0,1-.03-.861c.125-1.508,1.353-1.2,1.353-1.2a10.392,10.392,0,0,1,.459-2.646c.152-.59.287-1.038.287-1.038l8.632-.574h.029a.422.422,0,0,1,.422.444c-.052,1.035-.125,3.406.3,3.459a1.3,1.3,0,0,1,1.038.768A3.222,3.222,0,0,1,101.131,143.8Z" transform="translate(-18.678 -25.1)"/>
        <path id="Path_44751" data-name="Path 44751" class="cls-10" d="M93.542,130.527s-3.255,3.918-4.823,2.833c-.037-.026-.073-.052-.108-.079a3.994,3.994,0,0,1-1.4-2.738c-.032-.287-.078-.564-.128-.844a5.863,5.863,0,0,1,.287-2.859h0c.052-.144.088-.231.088-.231C88.538,126.308,93.542,130.527,93.542,130.527Z" transform="translate(-18.42 -23.186)"/>
        <path id="Path_44752" data-name="Path 44752" class="cls-10" d="M91.792,130.936s-1.025.718-2.471,1.9a5.223,5.223,0,0,1-.718.494,3.994,3.994,0,0,1-1.4-2.738c-.032-.287-.078-.564-.128-.844a5.862,5.862,0,0,1,.287-2.859h0C89.385,127.028,91.792,130.936,91.792,130.936Z" transform="translate(-18.419 -23.233)"/>
        <path id="Path_44753" data-name="Path 44753" class="cls-31" d="M91.792,130.936s-1.025.718-2.471,1.9a5.223,5.223,0,0,1-.718.494,3.994,3.994,0,0,1-1.4-2.738c-.032-.287-.078-.564-.128-.844a5.862,5.862,0,0,1,.287-2.859h0C89.385,127.028,91.792,130.936,91.792,130.936Z" transform="translate(-18.419 -23.233)"/>
        <path id="Path_44754" data-name="Path 44754" class="cls-9" d="M90.892,130.837s-.547.386-1.319,1.014a2.781,2.781,0,0,1-.379.263,2.114,2.114,0,0,1-.749-1.46c-.016-.152-.04-.3-.067-.452a3.139,3.139,0,0,1,.159-1.525h0C89.608,128.75,90.892,130.837,90.892,130.837Z" transform="translate(-18.634 -23.52)"/>
        <path id="Path_44755" data-name="Path 44755" class="cls-10" d="M97.3,130.527s3.255,3.918,4.823,2.833c.036-.026.073-.052.108-.079a3.994,3.994,0,0,0,1.4-2.738c.032-.287.078-.564.126-.844a5.845,5.845,0,0,0-.287-2.859h0c-.052-.144-.089-.231-.089-.231C102.3,126.308,97.3,130.527,97.3,130.527Z" transform="translate(-20.07 -23.186)"/>
        <path id="Path_44756" data-name="Path 44756" class="cls-10" d="M99.382,130.936s1.027.718,2.472,1.9a5.221,5.221,0,0,0,.711.494,3.994,3.994,0,0,0,1.4-2.738c.032-.287.078-.564.126-.844a5.845,5.845,0,0,0-.287-2.859h0C101.791,127.028,99.382,130.936,99.382,130.936Z" transform="translate(-20.404 -23.233)"/>
        <path id="Path_44757" data-name="Path 44757" class="cls-31" d="M99.382,130.936s1.027.718,2.472,1.9a5.221,5.221,0,0,0,.711.494,3.994,3.994,0,0,0,1.4-2.738c.032-.287.078-.564.126-.844a5.845,5.845,0,0,0-.287-2.859h0C101.791,127.028,99.382,130.936,99.382,130.936Z" transform="translate(-20.404 -23.233)"/>
        <path id="Path_44758" data-name="Path 44758" class="cls-9" d="M100.721,130.835s.544.385,1.311,1.005a2.629,2.629,0,0,0,.378.261,2.12,2.12,0,0,0,.745-1.452c.016-.144.04-.3.067-.449a3.145,3.145,0,0,0-.151-1.516h0C102,128.762,100.721,130.835,100.721,130.835Z" transform="translate(-20.618 -23.521)"/>
        <path id="Path_44759" data-name="Path 44759" class="cls-9" d="M99.705,138.54a7.8,7.8,0,0,1-1.246,1.588c-1.292,1.149-6.872.692-7.233.633-.076-.013-.234-.238-.431-.6.152-.59.287-1.038.287-1.038Z" transform="translate(-19.027 -25.101)"/>
        <path id="Path_44760" data-name="Path 44760" class="cls-10" d="M94.948,130.876c-.227.016-.454.022-.682.017-1.164-.02-5.087.032-5.522,1.615-.513,1.867,1.779,6.864,2.139,6.925s5.938.513,7.235-.633a13.914,13.914,0,0,0,2.893-5.064S102.62,130.345,94.948,130.876Z" transform="translate(-18.686 -23.863)"/>
        <path id="Path_44761" data-name="Path 44761" class="cls-9" d="M95.127,134.486a4.119,4.119,0,0,0-4.218,2.383,3.446,3.446,0,0,0,.254,3.473,1.587,1.587,0,0,0,2.02.718C95.216,140.224,95.127,134.486,95.127,134.486Z" transform="translate(-18.989 -24.447)"/>
        <path id="Path_44762" data-name="Path 44762" class="cls-9" d="M95.019,134.271a4.119,4.119,0,0,0-4.218,2.383,3.446,3.446,0,0,0,.254,3.473,1.587,1.587,0,0,0,2.02.718C95.108,140.008,95.019,134.271,95.019,134.271Z" transform="translate(-18.971 -24.413)"/>
        <path id="Path_44763" data-name="Path 44763" class="cls-10" d="M95.019,134.379a4.119,4.119,0,0,0-4.218,2.383,3.446,3.446,0,0,0,.254,3.473,1.587,1.587,0,0,0,2.02.718C95.108,140.116,95.019,134.379,95.019,134.379Z" transform="translate(-18.971 -24.43)"/>
        <path id="Path_44764" data-name="Path 44764" class="cls-31" d="M95.019,134.379a4.119,4.119,0,0,0-4.218,2.383,3.446,3.446,0,0,0,.254,3.473,1.587,1.587,0,0,0,2.02.718C95.108,140.116,95.019,134.379,95.019,134.379Z" transform="translate(-18.971 -24.43)"/>
        <path id="Path_44765" data-name="Path 44765" class="cls-32" d="M92.151,137.326s-.392.362-.241.452S92.151,137.326,92.151,137.326Z" transform="translate(-19.2 -24.906)"/>
        <path id="Path_44766" data-name="Path 44766" class="cls-32" d="M92.684,137.877s-.214.472-.062.524.243-.339.243-.339Z" transform="translate(-19.311 -24.995)"/>
        <path id="Path_44767" data-name="Path 44767" class="cls-32" d="M91.562,138.727s-.21.557,0,.557S91.562,138.727,91.562,138.727Z" transform="translate(-19.135 -25.131)"/>
        <path id="Path_44768" data-name="Path 44768" class="cls-33" d="M91.27,140.5a1.588,1.588,0,0,0,1.51.995" transform="translate(-19.103 -25.416)"/>
        <path id="Path_44769" data-name="Path 44769" class="cls-33" d="M92.438,140.879a.756.756,0,0,0,.9.121" transform="translate(-19.29 -25.476)"/>
        <path id="Path_44770" data-name="Path 44770" class="cls-9" d="M96.437,134.486a4.119,4.119,0,0,1,4.218,2.383,3.446,3.446,0,0,1-.254,3.473,1.587,1.587,0,0,1-2.02.718C96.343,140.224,96.437,134.486,96.437,134.486Z" transform="translate(-19.931 -24.447)"/>
        <path id="Path_44771" data-name="Path 44771" class="cls-9" d="M96.538,134.271a4.119,4.119,0,0,1,4.218,2.383,3.446,3.446,0,0,1-.254,3.473,1.587,1.587,0,0,1-2.02.718C96.454,140.008,96.538,134.271,96.538,134.271Z" transform="translate(-19.948 -24.413)"/>
        <path id="Path_44772" data-name="Path 44772" class="cls-10" d="M96.538,134.379a4.119,4.119,0,0,1,4.218,2.383,3.446,3.446,0,0,1-.254,3.473,1.587,1.587,0,0,1-2.02.718C96.454,140.116,96.538,134.379,96.538,134.379Z" transform="translate(-19.948 -24.43)"/>
        <path id="Path_44773" data-name="Path 44773" class="cls-31" d="M96.538,134.379a4.119,4.119,0,0,1,4.218,2.383,3.446,3.446,0,0,1-.254,3.473,1.587,1.587,0,0,1-2.02.718C96.454,140.116,96.538,134.379,96.538,134.379Z" transform="translate(-19.948 -24.43)"/>
        <path id="Path_44774" data-name="Path 44774" class="cls-32" d="M100.227,137.326s.392.362.241.452S100.227,137.326,100.227,137.326Z" transform="translate(-20.539 -24.906)"/>
        <path id="Path_44775" data-name="Path 44775" class="cls-32" d="M99.689,137.877s.214.472.062.524-.243-.339-.243-.339Z" transform="translate(-20.424 -24.995)"/>
        <path id="Path_44776" data-name="Path 44776" class="cls-32" d="M100.835,138.727s.208.557,0,.557S100.835,138.727,100.835,138.727Z" transform="translate(-20.622 -25.131)"/>
        <path id="Path_44777" data-name="Path 44777" class="cls-33" d="M100.872,140.5a1.588,1.588,0,0,1-1.51.995" transform="translate(-20.4 -25.416)"/>
        <path id="Path_44778" data-name="Path 44778" class="cls-33" d="M99.821,140.879a.757.757,0,0,1-.9.121" transform="translate(-20.329 -25.476)"/>
        <path id="Path_44779" data-name="Path 44779" class="cls-32" d="M94.591,144.074a4.17,4.17,0,0,1,2.984,0Z" transform="translate(-19.635 -25.942)"/>
        <path id="Path_44780" data-name="Path 44780" class="cls-9" d="M91.041,147.118c-1.338-.2-2.3-.581-2.379-1.252a3.877,3.877,0,0,1-.03-.861,1.933,1.933,0,0,1,.511-.187,2.3,2.3,0,0,1,1.176.159c.633.181.587.926.718,1.9a.8.8,0,0,1,0,.243Z" transform="translate(-18.678 -26.103)"/>
        <path id="Path_44781" data-name="Path 44781" class="cls-10" d="M88.929,144.93s-1.74.319-.8,1.821a.642.642,0,0,0,.322.266c.111.039.217.039.205-.119l.77.882s1.536.181,1.4-.791-.09-1.723-.718-1.9A2.375,2.375,0,0,0,88.929,144.93Z" transform="translate(-18.555 -26.121)"/>
        <path id="Path_44782" data-name="Path 44782" class="cls-33" d="M89.629,146.139s.369.843.882.135" transform="translate(-18.84 -26.319)"/>
        <path id="Path_44783" data-name="Path 44783" class="cls-33" d="M88.62,146.537s.191.8.915.2" transform="translate(-18.678 -26.383)"/>
        <path id="Path_44784" data-name="Path 44784" class="cls-9" d="M103.168,144.808h0c-.057.8-.211,2.072-.211,2.072s-.639.078-1.627.167a.834.834,0,0,1,0-.167c.135-.972.09-1.723.718-1.9A2.761,2.761,0,0,1,103.168,144.808Z" transform="translate(-20.715 -26.103)"/>
        <path id="Path_44785" data-name="Path 44785" class="cls-10" d="M103.344,144.93s1.742.319.8,1.821a.648.648,0,0,1-.322.266c-.111.039-.218.039-.207-.119l-.768.882s-1.538.181-1.4-.791.09-1.723.718-1.9A2.373,2.373,0,0,1,103.344,144.93Z" transform="translate(-20.733 -26.121)"/>
        <path id="Path_44786" data-name="Path 44786" class="cls-33" d="M103.047,146.139s-.37.843-.882.135" transform="translate(-20.85 -26.319)"/>
        <path id="Path_44787" data-name="Path 44787" class="cls-33" d="M104.05,146.537s-.192.8-.916.2" transform="translate(-21.005 -26.383)"/>
        <path id="Path_44788" data-name="Path 44788" class="cls-9" d="M93.872,147.148c-.583-.013-1.149-.043-1.673-.095l-.521-1.755a1.139,1.139,0,0,1-.047-.32,1.117,1.117,0,0,1,2.233-.007C93.869,145.655,93.875,146.52,93.872,147.148Z" transform="translate(-19.161 -25.96)"/>
        <path id="Path_44789" data-name="Path 44789" class="cls-10" d="M91.543,145.291l.615,2.07s-1.045-.023-.76.633c0,0,.263.248.353.158,0,0-.136.431.406.431,0,0,.586.317.813.09s.7-.566.748-.7c.029-.089.02-1.821.01-3.015a1.114,1.114,0,0,0-1.116-1.106h0a1.116,1.116,0,0,0-1.07,1.439Z" transform="translate(-19.116 -25.953)"/>
        <path id="Path_44790" data-name="Path 44790" class="cls-33" d="M92.514,148.67s-.457.431-.215.685" transform="translate(-19.257 -26.725)"/>
        <path id="Path_44791" data-name="Path 44791" class="cls-33" d="M92.253,148.343a.62.62,0,0,0-.422.53" transform="translate(-19.193 -26.672)"/>
        <path id="Path_44792" data-name="Path 44792" class="cls-9" d="M100.749,144.971a1.136,1.136,0,0,1-.046.32l-.487,1.661c-.514.042-1.091.082-1.7.116,0-.62,0-1.446.01-2.1a1.116,1.116,0,0,1,2.231.007Z" transform="translate(-20.265 -25.952)"/>
        <path id="Path_44793" data-name="Path 44793" class="cls-10" d="M100.807,145.291l-.615,2.07s1.047-.023.761.633c0,0-.263.248-.353.158,0,0,.135.431-.408.431,0,0-.586.317-.813.09s-.7-.566-.747-.7c-.029-.089-.02-1.821-.01-3.015a1.114,1.114,0,0,1,1.116-1.106h0a1.116,1.116,0,0,1,1.068,1.439Z" transform="translate(-20.28 -25.953)"/>
        <path id="Path_44794" data-name="Path 44794" class="cls-33" d="M100.239,148.67s.457.431.215.685" transform="translate(-20.541 -26.725)"/>
        <path id="Path_44795" data-name="Path 44795" class="cls-33" d="M100.478,148.343a.62.62,0,0,1,.422.53" transform="translate(-20.579 -26.672)"/>
        <path id="Path_44796" data-name="Path 44796" class="cls-9" d="M95.475,133.845s-2.126-.067-2.194,1.579,3.322.949,3.322.949,1.424-.191,1.176-1.192S97.013,133.935,95.475,133.845Z" transform="translate(-19.425 -24.348)"/>
        <path id="Path_44797" data-name="Path 44797" class="cls-9" d="M95.475,133.629s-2.126-.067-2.194,1.579,3.322.949,3.322.949,1.424-.191,1.176-1.192S97.013,133.72,95.475,133.629Z" transform="translate(-19.425 -24.314)"/>
        <path id="Path_44798" data-name="Path 44798" class="cls-32" d="M95.475,133.737s-2.126-.067-2.194,1.579,3.322.949,3.322.949,1.424-.191,1.176-1.192S97.013,133.827,95.475,133.737Z" transform="translate(-19.425 -24.331)"/>
        <path id="Path_44799" data-name="Path 44799" class="cls-9" d="M90.244,143.617s.718.256.861.745" transform="translate(-18.939 -25.915)"/>
        <path id="Path_44800" data-name="Path 44800" class="cls-9" d="M102.208,143.186s-.51.214-.474,1.107" transform="translate(-20.78 -25.846)"/>
        <ellipse id="Ellipse_1319" data-name="Ellipse 1319" class="cls-10" cx="0.333" cy="0.552" rx="0.333" ry="0.552" transform="translate(71.044 121.122) rotate(-29.887)"/>
        <ellipse id="Ellipse_1320" data-name="Ellipse 1320" class="cls-10" cx="0.55" cy="0.332" rx="0.55" ry="0.332" transform="matrix(0.5, -0.866, 0.866, 0.5, 81.15, 121.252)"/>
        <ellipse id="Ellipse_1321" data-name="Ellipse 1321" class="cls-31" cx="0.333" cy="0.552" rx="0.333" ry="0.552" transform="translate(71.044 121.122) rotate(-29.887)"/>
        <ellipse id="Ellipse_1322" data-name="Ellipse 1322" class="cls-31" cx="0.55" cy="0.332" rx="0.55" ry="0.332" transform="matrix(0.5, -0.866, 0.866, 0.5, 81.15, 121.252)"/>
        <ellipse id="Ellipse_1323" data-name="Ellipse 1323" class="cls-4" cx="3.867" cy="0.653" rx="3.867" ry="0.653" transform="translate(23.788 102.157)"/>
        <ellipse id="Ellipse_1324" data-name="Ellipse 1324" class="cls-4" cx="3.867" cy="0.653" rx="3.867" ry="0.653" transform="translate(8.556 111.422)"/>
        <ellipse id="Ellipse_1325" data-name="Ellipse 1325" class="cls-10" cx="5.773" cy="0.976" rx="5.773" ry="0.976" transform="translate(2.624 102.81)"/>
        <path id="Path_44801" data-name="Path 44801" class="cls-10" d="M12.374,124.635a1.67,1.67,0,0,1-.551-.83.74.74,0,0,1,.385-.846,1.08,1.08,0,0,1,1.017.356,1.364,1.364,0,0,0,.989.478,1.506,1.506,0,0,1-.465-1.41.574.574,0,0,1,.129-.287c.2-.21.551-.119.787.046a2.93,2.93,0,0,1,.958,2.452,4.523,4.523,0,0,0,.014-1.005,1.034,1.034,0,0,1,.379-.893,1.148,1.148,0,0,1,.574-.144,1.2,1.2,0,0,1,.939.267.923.923,0,0,1-.037,1.149,3.754,3.754,0,0,1-.971.778,2.142,2.142,0,0,0-.695.662.677.677,0,0,0-.052.118h-2.1a5.806,5.806,0,0,1-1.3-.892Z" transform="translate(-6.364 -22.445)"/>
        <ellipse id="Ellipse_1326" data-name="Ellipse 1326" class="cls-4" cx="3.867" cy="0.653" rx="3.867" ry="0.653" transform="translate(143.997 107.621)"/>
        <path id="Path_44802" data-name="Path 44802" class="cls-34" d="M178.326,128.546A8.084,8.084,0,0,0,181.2,128c.666-.474,3.391-1.038,3.556-.279s3.315,3.775.824,3.795-5.785-.388-6.448-.793S178.326,128.546,178.326,128.546Z" transform="translate(-33.059 -23.308)"/>
        <path id="Path_44803" data-name="Path 44803" class="cls-35" d="M185.621,131.485c-2.49.02-5.785-.388-6.448-.793-.505-.307-.706-1.411-.774-1.921h-.073s.144,1.779.8,2.182,3.958.813,6.448.793c.718,0,.968-.261.953-.64C186.431,131.342,186.157,131.485,185.621,131.485Z" transform="translate(-33.059 -23.535)"/>
      </g>
    </g>
  </g>
</svg>
