<svg xmlns="http://www.w3.org/2000/svg" xmlns:xlink="http://www.w3.org/1999/xlink" viewBox="0 0 262 147.492">
  <defs>
    <style>
      .cls-1 {
        fill: #e3f2fd;
      }

      .cls-2 {
        opacity: 0.82;
      }

      .cls-3 {
        fill: url(#linear-gradient);
      }

      .cls-4 {
        fill: #fff;
      }

      .cls-11, .cls-5, .cls-6, .cls-7 {
        fill: #248dc1;
      }

      .cls-6 {
        opacity: 0.5;
      }

      .cls-7 {
        opacity: 0.2;
      }

      .cls-8 {
        fill: #69f0ae;
      }

      .cls-9 {
        fill: url(#linear-gradient-3);
      }

      .cls-10 {
        fill: url(#linear-gradient-4);
      }

      .cls-11, .cls-14 {
        opacity: 0.1;
      }

      .cls-12 {
        fill: #f7d6c8;
      }

      .cls-13 {
        fill: #efb7b9;
      }

      .cls-15 {
        opacity: 0.05;
      }

      .cls-16 {
        fill: #c3705a;
      }

      .cls-17 {
        fill: #ecb4b6;
      }

      .cls-18 {
        fill: #463a3e;
      }

      .cls-19 {
        fill: #c17174;
      }
    </style>
    <linearGradient id="linear-gradient" x1="0.5" y1="1" x2="0.5" gradientUnits="objectBoundingBox">
      <stop offset="0" stop-color="gray" stop-opacity="0.251"/>
      <stop offset="0.54" stop-color="gray" stop-opacity="0.122"/>
      <stop offset="1" stop-color="gray" stop-opacity="0.102"/>
    </linearGradient>
    <linearGradient id="linear-gradient-3" x1="35.813" y1="30.815" x2="35.813" y2="29.815" xlink:href="#linear-gradient"/>
    <linearGradient id="linear-gradient-4" x1="25.656" y1="0.713" x2="25.656" y2="-0.287" xlink:href="#linear-gradient"/>
  </defs>
  <g id="card-11" transform="translate(-692 -1113)">
    <path id="Rectangle_6969" data-name="Rectangle 6969" class="cls-1" d="M2,0H260a2,2,0,0,1,2,2V147a0,0,0,0,1,0,0H0a0,0,0,0,1,0,0V2A2,2,0,0,1,2,0Z" transform="translate(692 1113)"/>
    <g id="undraw_calendar_dutt" class="cls-2" transform="translate(715.39 1137)">
      <rect id="Rectangle_6384" data-name="Rectangle 6384" class="cls-3" width="151.229" height="100" transform="translate(35.61)"/>
      <rect id="Rectangle_6385" data-name="Rectangle 6385" class="cls-4" width="148.204" height="85.161" transform="translate(36.933 11.815)"/>
      <rect id="Rectangle_6386" data-name="Rectangle 6386" class="cls-5" width="148.204" height="9.735" transform="translate(36.933 2.079)"/>
      <rect id="Rectangle_6387" data-name="Rectangle 6387" class="cls-3" width="144.423" height="74.291" transform="translate(39.013 17.958)"/>
      <rect id="Rectangle_6388" data-name="Rectangle 6388" class="cls-6" width="17.391" height="13.894" transform="translate(40.808 19.282)"/>
      <rect id="Rectangle_6389" data-name="Rectangle 6389" class="cls-4" width="17.391" height="13.894" transform="translate(58.389 19.282)"/>
      <rect id="Rectangle_6390" data-name="Rectangle 6390" class="cls-7" width="17.391" height="13.894" transform="translate(75.969 19.282)"/>
      <rect id="Rectangle_6391" data-name="Rectangle 6391" class="cls-4" width="17.391" height="13.894" transform="translate(93.549 19.282)"/>
      <rect id="Rectangle_6392" data-name="Rectangle 6392" class="cls-4" width="17.391" height="13.894" transform="translate(111.13 19.282)"/>
      <rect id="Rectangle_6393" data-name="Rectangle 6393" class="cls-6" width="17.391" height="13.894" transform="translate(128.71 19.282)"/>
      <rect id="Rectangle_6394" data-name="Rectangle 6394" class="cls-4" width="17.391" height="13.894" transform="translate(146.291 19.282)"/>
      <rect id="Rectangle_6395" data-name="Rectangle 6395" class="cls-7" width="17.391" height="13.894" transform="translate(163.871 19.282)"/>
      <rect id="Rectangle_6396" data-name="Rectangle 6396" class="cls-7" width="17.391" height="13.894" transform="translate(40.808 33.459)"/>
      <rect id="Rectangle_6397" data-name="Rectangle 6397" class="cls-7" width="17.391" height="13.894" transform="translate(58.389 33.459)"/>
      <rect id="Rectangle_6398" data-name="Rectangle 6398" class="cls-4" width="17.391" height="13.894" transform="translate(75.969 33.459)"/>
      <rect id="Rectangle_6399" data-name="Rectangle 6399" class="cls-6" width="17.391" height="13.894" transform="translate(93.549 33.459)"/>
      <rect id="Rectangle_6400" data-name="Rectangle 6400" class="cls-4" width="17.391" height="13.894" transform="translate(111.13 33.459)"/>
      <rect id="Rectangle_6401" data-name="Rectangle 6401" class="cls-7" width="17.391" height="13.894" transform="translate(128.71 33.459)"/>
      <rect id="Rectangle_6402" data-name="Rectangle 6402" class="cls-6" width="17.391" height="13.894" transform="translate(146.291 33.459)"/>
      <rect id="Rectangle_6403" data-name="Rectangle 6403" class="cls-4" width="17.391" height="13.894" transform="translate(163.871 33.459)"/>
      <rect id="Rectangle_6404" data-name="Rectangle 6404" class="cls-4" width="17.391" height="13.894" transform="translate(40.808 47.448)"/>
      <rect id="Rectangle_6405" data-name="Rectangle 6405" class="cls-4" width="17.391" height="13.894" transform="translate(58.389 47.448)"/>
      <rect id="Rectangle_6406" data-name="Rectangle 6406" class="cls-7" width="17.391" height="13.894" transform="translate(75.969 47.448)"/>
      <rect id="Rectangle_6407" data-name="Rectangle 6407" class="cls-4" width="17.391" height="13.894" transform="translate(93.549 47.448)"/>
      <rect id="Rectangle_6408" data-name="Rectangle 6408" class="cls-7" width="17.391" height="13.894" transform="translate(111.13 47.448)"/>
      <rect id="Rectangle_6409" data-name="Rectangle 6409" class="cls-4" width="17.391" height="13.894" transform="translate(128.71 47.448)"/>
      <rect id="Rectangle_6410" data-name="Rectangle 6410" class="cls-4" width="17.391" height="13.894" transform="translate(146.291 47.448)"/>
      <rect id="Rectangle_6411" data-name="Rectangle 6411" class="cls-7" width="17.391" height="13.894" transform="translate(163.871 47.448)"/>
      <rect id="Rectangle_6412" data-name="Rectangle 6412" class="cls-4" width="17.391" height="13.894" transform="translate(40.808 61.437)"/>
      <rect id="Rectangle_6413" data-name="Rectangle 6413" class="cls-6" width="17.391" height="13.894" transform="translate(58.389 61.437)"/>
      <rect id="Rectangle_6414" data-name="Rectangle 6414" class="cls-6" width="17.391" height="13.894" transform="translate(75.969 61.437)"/>
      <rect id="Rectangle_6415" data-name="Rectangle 6415" class="cls-4" width="17.391" height="13.894" transform="translate(93.549 61.437)"/>
      <rect id="Rectangle_6416" data-name="Rectangle 6416" class="cls-4" width="17.391" height="13.894" transform="translate(111.13 61.437)"/>
      <rect id="Rectangle_6417" data-name="Rectangle 6417" class="cls-6" width="17.391" height="13.894" transform="translate(128.71 61.437)"/>
      <rect id="Rectangle_6418" data-name="Rectangle 6418" class="cls-4" width="17.391" height="13.894" transform="translate(146.291 61.437)"/>
      <rect id="Rectangle_6419" data-name="Rectangle 6419" class="cls-6" width="17.391" height="13.894" transform="translate(163.871 61.437)"/>
      <rect id="Rectangle_6422" data-name="Rectangle 6422" class="cls-4" width="17.391" height="13.894" transform="translate(75.969 75.614)"/>
      <rect id="Rectangle_6423" data-name="Rectangle 6423" class="cls-6" width="17.391" height="13.894" transform="translate(93.549 75.614)"/>
      <rect id="Rectangle_6424" data-name="Rectangle 6424" class="cls-7" width="17.391" height="13.894" transform="translate(111.13 75.614)"/>
      <rect id="Rectangle_6425" data-name="Rectangle 6425" class="cls-4" width="17.391" height="13.894" transform="translate(128.71 75.614)"/>
      <rect id="Rectangle_6426" data-name="Rectangle 6426" class="cls-7" width="17.391" height="13.894" transform="translate(146.291 75.614)"/>
      <rect id="Rectangle_6427" data-name="Rectangle 6427" class="cls-4" width="17.391" height="13.894" transform="translate(163.871 75.614)"/>
      <rect id="Rectangle_6428" data-name="Rectangle 6428" class="cls-8" width="5.293" height="5.293" transform="translate(42.226 48.771)"/>
      <rect id="Rectangle_6429" data-name="Rectangle 6429" class="cls-8" width="5.293" height="5.293" transform="translate(94.778 20.794)"/>
      <rect id="Rectangle_6430" data-name="Rectangle 6430" class="cls-8" width="5.293" height="5.293" transform="translate(94.211 48.771)"/>
      <rect id="Rectangle_6431" data-name="Rectangle 6431" class="cls-8" width="5.293" height="5.293" transform="translate(112.17 62.193)"/>
      <rect id="Rectangle_6432" data-name="Rectangle 6432" class="cls-8" width="5.293" height="5.293" transform="translate(147.141 48.771)"/>
      <ellipse id="Ellipse_916" data-name="Ellipse 916" class="cls-5" cx="0.658" cy="0.658" rx="0.658" ry="0.658" transform="translate(84.534 92.344)"/>
      <ellipse id="Ellipse_919" data-name="Ellipse 919" class="cls-9" cx="0.854" cy="0.854" rx="0.854" ry="0.854" transform="translate(36.57 92.147)"/>
      <circle id="Ellipse_923" data-name="Ellipse 923" class="cls-10" cx="0.854" cy="0.854" r="0.854" transform="translate(80.716 80.222) rotate(-30)"/>
      <ellipse id="Ellipse_928" data-name="Ellipse 928" class="cls-8" cx="0.658" cy="0.658" rx="0.658" ry="0.658" transform="translate(60.65 68.021)"/>
      <ellipse id="Ellipse_930" data-name="Ellipse 930" class="cls-8" cx="0.658" cy="0.658" rx="0.658" ry="0.658" transform="translate(80.903 80.271) rotate(-30)"/>
      <ellipse id="Ellipse_934" data-name="Ellipse 934" class="cls-8" cx="0.658" cy="0.658" rx="0.658" ry="0.658" transform="translate(39.916 80.752) rotate(-60)"/>
      <circle id="Ellipse_935" data-name="Ellipse 935" class="cls-8" cx="0.854" cy="0.854" r="0.854" transform="translate(84.005 92.712) rotate(-30)"/>
      <ellipse id="Ellipse_938" data-name="Ellipse 938" class="cls-8" cx="0.658" cy="0.658" rx="0.658" ry="0.658" transform="translate(36.767 92.344)"/>
    </g>
    <g id="undraw_community_8nwl" transform="translate(702.999 1196.542)">
      <path id="Path_45195" data-name="Path 45195" class="cls-11" d="M49.6,164.017a24.711,24.711,0,0,1,.7,3.685c.016,4.091-4.947,6.6-5.707,10.623-.451,2.385.718,4.821,2.365,6.6a41.4,41.4,0,0,0,5.683,4.524,36.392,36.392,0,0,1,11.922,15.772,15.135,15.135,0,0,1,1.048,3.9,22.276,22.276,0,0,0,.282,2.927c.905,3.782,5.495,5.25,9.375,5.495a41.115,41.115,0,0,0,18.291-3.055,8.414,8.414,0,0,1,4.04-1,8.431,8.431,0,0,1,3.093,1.276,41.02,41.02,0,0,0,9.146,3.766,12.479,12.479,0,0,0,5.426.542c5.42-.956,8.3-7.529,13.618-8.967,3.679-.994,7.508.743,10.807,2.649s6.705,4.1,10.514,4.108c5.082.007,9.259-3.839,12.706-7.573a7.724,7.724,0,0,0,1.8-2.612c.7-2.049-.434-4.35-2.108-5.727a20.6,20.6,0,0,0-5.8-2.846,50.324,50.324,0,0,1-9.731-5.082,19.059,19.059,0,0,1-5.233-4.769,28.781,28.781,0,0,1-2.636-5.523c-1.706-4.14-4.119-8.346-8.148-10.289-3.29-1.587-7.111-1.409-10.763-1.451-5.381-.06-10.9-.707-15.669-3.2-4.029-2.1-7.338-5.42-11.427-7.407-6.5-3.158-13.939-2.539-20.946-2.419-3.368.057-7.371.393-10.605-.71-2.392-.816-3.624-2.484-6.372-1.812A7.713,7.713,0,0,0,49.6,164.017Z" transform="translate(-44.49 -155.23)"/>
      <path id="Path_45196" data-name="Path 45196" class="cls-3" d="M193.478,254.26a2.71,2.71,0,0,1,.051-1.719c.325-.841,1.118-1.448,1.4-2.308.518-1.6-.878-3.091-1.734-4.539a7.623,7.623,0,0,1-1.02-4.444c.133-1.665.815-3.257.867-4.927a13.181,13.181,0,0,0-.955-4.543,15.73,15.73,0,0,0-1.524-3.533,8.085,8.085,0,0,0-6.047-3.543c-1.133-.1-2.241.268-3.354.124-1.546-.2-3.007-.6-4.583-.65-1.5-.044-3.152.145-4.172,1.242-.779.84-1.029,2.053-1.742,2.951-1.012,1.274-2.783,1.71-3.9,2.89a4.094,4.094,0,0,0-.925,3.949c.155.5.409.97.573,1.47.693,2.088-.217,4.321-.766,6.45a.975.975,0,0,0-.033.542c.087.26.36.4.586.551a3.068,3.068,0,0,1,1.192,2.314,8.7,8.7,0,0,1-.338,2.659c-.519,2.221-1.169,4.6-2.88,6.078a15.637,15.637,0,0,0-1.1-2.142,11.635,11.635,0,0,1-1.835-5.8.075.075,0,0,1,0-.018c0-.108.005-.217.012-.325.135-2.367,1.159-4.651,1.136-7.008q0-.286-.016-.573a11.825,11.825,0,0,0-2.213-5.572,13.569,13.569,0,0,0-2.96-3.4,13.786,13.786,0,0,0-6.511-2.342c-2.31-.323-4.412-.627-6.74-.783-2.5-.168-5.259-.262-7.239,1.279-2.581,2.01-2.724,5.891-4.691,8.5-1.171,1.554-3.035,2.755-3.652,4.521a10.918,10.918,0,0,1-.416-1.328l-.02-.09a12.925,12.925,0,0,0,.5-6.637,8.169,8.169,0,0,0,.075-1.084,4.268,4.268,0,0,0-.127-1.172,6.734,6.734,0,0,0-1.79-2.7,7.928,7.928,0,0,0-.878-.851,12.869,12.869,0,0,0-21.944,12.791,3.369,3.369,0,0,1-.907,1.979c-.24.237-.55.534-.5.838a.409.409,0,0,0,.035.255.713.713,0,0,0,.217.237,3.9,3.9,0,0,0,2.655.791,11.1,11.1,0,0,0,4.47,5.738q0,.108-.008.21c0,.12-.01.24-.015.361V251c0-.011-3.774,4.92-7.263,5.1a7.072,7.072,0,0,0-4.718,2.79,12.22,12.22,0,0,0-2.469,4.253c-.144,1.006-1.15,5.895-1.15,5.895h28.979c-.343,1.76-.8,4-.8,4H169.2c-.108-1.508-.229-2.9-.34-4.082h5.9l-.007.036h27.207l1.726-2.59C203.253,258.868,198.8,254.719,193.478,254.26Zm-67.737-8.429a7.029,7.029,0,0,0,1.951.7,1.173,1.173,0,0,0,.879-.067,1.01,1.01,0,0,0,.354-.5l.013.033a19.144,19.144,0,0,1,1.54,5.723c.012.186.02.373.021.56a8.106,8.106,0,0,1-.684,3.28,63.224,63.224,0,0,1-7.075-4.336l-.153-.065c0,.012.053.147.116.376.015.055.031.116.048.181q-.232-.751-.419-1.534L122.29,250a11.114,11.114,0,0,0,3.451-4.167Z" transform="translate(-88.731 -215.676)"/>
      <path id="Path_45202" data-name="Path 45202" class="cls-12" d="M731.613,236.731a5.275,5.275,0,0,0-4.106,1.223c-.767.826-1.012,2.021-1.715,2.9-1,1.254-2.738,1.683-3.842,2.844a4.03,4.03,0,0,0-.911,3.887c.153.494.4.955.565,1.446.682,2.06-.208,4.252-.759,6.348a.955.955,0,0,0-.031.535c.085.256.354.39.577.542a3,3,0,0,1,1.169,2.276,8.739,8.739,0,0,1-.333,2.617c-.532,2.276-1.2,4.727-3.052,6.161-.78.612-1.823,1.109-2.027,2.084-.239,1.143.852,2.114,1.9,2.631,3.071,1.518,6.636,1.539,10,2.216,2.958.6,5.909,1.726,8.9,1.34a17.957,17.957,0,0,0,3.873-1.106l7.863-2.9a2.045,2.045,0,0,0,.618-.311,1.46,1.46,0,0,0,.232-1.705,6.209,6.209,0,0,0-1.138-1.449,3.762,3.762,0,0,1-1.09-3.679c.325-.828,1.1-1.425,1.374-2.276.509-1.572-.867-3.044-1.7-4.468a7.5,7.5,0,0,1-1-4.369c.131-1.639.8-3.206.851-4.85a12.983,12.983,0,0,0-.94-4.471,15.5,15.5,0,0,0-1.5-3.477,7.964,7.964,0,0,0-5.953-3.488c-1.115-.1-2.2.263-3.3.122C734.6,237.173,733.164,236.778,731.613,236.731Z" transform="translate(-644.204 -227.846)"/>
      <path id="Path_45203" data-name="Path 45203" class="cls-13" d="M814.7,424.1s-8.914-5.589-5.448-12.032a9.941,9.941,0,0,0,1.229-4.185,9.016,9.016,0,0,0,0-1.018v-.049q-.017-.262-.047-.516a10.5,10.5,0,0,0-2.6-5.618s14.786-4.315,12.31-.425c-1.149,1.806-.805,3.577-.036,5.41.081.193.168.388.258.582.889,1.933,2.122,3.935,2.467,6.106C823.547,416.816,814.7,424.1,814.7,424.1Z" transform="translate(-725.095 -372.205)"/>
      <path id="Path_45204" data-name="Path 45204" class="cls-14" d="M820.151,400.257c-1.149,1.806-.805,3.577-.036,5.41a9.991,9.991,0,0,1-9.68.637,10.49,10.49,0,0,0-2.595-5.623S822.627,396.365,820.151,400.257Z" transform="translate(-725.095 -372.201)"/>
      <circle id="Ellipse_1387" data-name="Ellipse 1387" class="cls-13" cx="9.976" cy="9.976" r="9.976" transform="translate(79.631 14.896)"/>
      <path id="Path_45205" data-name="Path 45205" class="cls-14" d="M832.24,474.068v-.049l.012-.019A.322.322,0,0,0,832.24,474.068Z" transform="translate(-746.851 -439.401)"/>
      <path id="Path_45206" data-name="Path 45206" class="cls-14" d="M819.763,486.725s-8.914-5.589-5.448-12.032a9.939,9.939,0,0,0,1.229-4.185c.2,1.591,1.3,3.569,3.3,6.308a8.867,8.867,0,0,1,1.358,4.526l.2.144.976-.59a10.374,10.374,0,0,1,1.364-5.025c2.319-3.469,2.869-5.2,2.7-7,.889,1.933,2.122,3.935,2.467,6.106C828.606,479.438,819.763,486.725,819.763,486.725Z" transform="translate(-730.155 -434.827)"/>
      <path id="Path_45207" data-name="Path 45207" class="cls-5" d="M700.933,472.649a13.5,13.5,0,0,1-8.672-4.509c.283,1.932-.177,3.661-2.654,7.371a10.39,10.39,0,0,0-1.357,5.022l-.976.59-.2-.144a8.856,8.856,0,0,0-1.358-4.526c-2.476-3.4-3.577-5.625-3.29-7.394a10.931,10.931,0,0,1-8.03,4.776c-5.306.354-9.763,4.1-10.189,10.966l1.7,2.335h16.744l-.006.036h26.774l1.7-2.551C710.7,477.129,706.245,473.035,700.933,472.649Z" transform="translate(-597.034 -434.176)"/>
      <path id="Path_45208" data-name="Path 45208" class="cls-15" d="M700.933,472.649a13.5,13.5,0,0,1-8.672-4.509c.283,1.932-.177,3.661-2.654,7.371a10.39,10.39,0,0,0-1.357,5.022l-.976.59-.2-.144a8.856,8.856,0,0,0-1.358-4.526c-2.476-3.4-3.577-5.625-3.29-7.394a10.931,10.931,0,0,1-8.03,4.776c-5.306.354-9.763,4.1-10.189,10.966l1.7,2.335h16.744l-.006.036h26.774l1.7-2.551C710.7,477.129,706.245,473.035,700.933,472.649Z" transform="translate(-597.034 -434.176)"/>
      <path id="Path_45209" data-name="Path 45209" class="cls-14" d="M789.44,281.737a8.128,8.128,0,0,1-2.044,2.775,6.051,6.051,0,0,1-4.221,1.994A6.474,6.474,0,0,0,785,283.513c-1.008.587-1.77,1.518-2.733,2.18A2.913,2.913,0,0,1,779,286a9.784,9.784,0,0,0,4.083-3.858c-2.285.593-3.458,3.166-5.516,4.322a6.258,6.258,0,0,1-3.2.722,2.509,2.509,0,0,1-2.1-.852,2.419,2.419,0,0,1-.325-1.315,8.986,8.986,0,0,1,2.1-5.737,15.029,15.029,0,0,1,4.886-3.8,6.756,6.756,0,0,1,2.08-.759,7.522,7.522,0,0,1,2.738.268,15.614,15.614,0,0,1,3.407,1.084C789.447,277.208,790.446,279.261,789.44,281.737Z" transform="translate(-693.089 -261.687)"/>
      <path id="Path_45210" data-name="Path 45210" class="cls-12" d="M789.44,280.427A8.128,8.128,0,0,1,787.4,283.2a6.051,6.051,0,0,1-4.221,1.994A6.474,6.474,0,0,0,785,282.2c-1.008.588-1.77,1.518-2.733,2.18a2.913,2.913,0,0,1-3.264.312,9.784,9.784,0,0,0,4.083-3.858c-2.285.593-3.458,3.166-5.516,4.322a6.259,6.259,0,0,1-3.2.722,2.509,2.509,0,0,1-2.1-.852,2.419,2.419,0,0,1-.325-1.315,8.986,8.986,0,0,1,2.1-5.737,15.029,15.029,0,0,1,4.886-3.8,6.755,6.755,0,0,1,2.08-.759,7.521,7.521,0,0,1,2.738.268,15.616,15.616,0,0,1,3.407,1.084C789.447,275.9,790.446,277.951,789.44,280.427Z" transform="translate(-693.089 -260.519)"/>
      <circle id="Ellipse_1388" data-name="Ellipse 1388" class="cls-16" cx="12.664" cy="12.664" r="12.664" transform="translate(14.904 7.794)"/>
      <path id="Path_45211" data-name="Path 45211" class="cls-17" d="M244.053,397.717s-11.6,2.971-11.886,3.252-9.763.778-7-5.023a21.375,21.375,0,0,0,1.563-7.832c.005-.119.011-.237.015-.356a57.849,57.849,0,0,0-.445-9.076s13.441-5.311,12.451,2.76a16.864,16.864,0,0,0,.406,5.922c.15.633.325,1.252.52,1.853A31.587,31.587,0,0,0,244.053,397.717Z" transform="translate(-205.13 -352.886)"/>
      <path id="Path_45212" data-name="Path 45212" class="cls-14" d="M252.6,387.384a10.9,10.9,0,0,1-12.412.395,57.85,57.85,0,0,0-.446-9.076s13.441-5.311,12.451,2.76A16.911,16.911,0,0,0,252.6,387.384Z" transform="translate(-218.575 -352.904)"/>
      <circle id="Ellipse_1389" data-name="Ellipse 1389" class="cls-17" cx="10.895" cy="10.895" r="10.895" transform="translate(16.637 14.621)"/>
      <path id="Path_45213" data-name="Path 45213" class="cls-14" d="M244.053,489.4s-11.6,2.971-11.886,3.252-9.763.778-7-5.023a21.375,21.375,0,0,0,1.563-7.832c.108,1.468.947,5.022,1.055,6.2a1.031,1.031,0,0,0,.041.2,4.368,4.368,0,0,0,1.393,1.706l.04.034a5.167,5.167,0,0,0,6.085.406,27.451,27.451,0,0,0,2.771-2,4.847,4.847,0,0,0,1.7-3.685,7.89,7.89,0,0,0-.141-1.776A31.568,31.568,0,0,0,244.053,489.4Z" transform="translate(-205.13 -444.572)"/>
      <path id="Path_45214" data-name="Path 45214" class="cls-5" d="M149.334,498.039H102s.991-4.811,1.132-5.8a11.993,11.993,0,0,1,2.431-4.187,6.979,6.979,0,0,1,4.644-2.747c3.431-.18,7.145-5.023,7.145-5.023h0c.082,1.409.952,5.089,1.061,6.3a1.031,1.031,0,0,0,.041.2,4.368,4.368,0,0,0,1.393,1.706l.04.034a5.166,5.166,0,0,0,6.085.408,27.568,27.568,0,0,0,2.771-2,4.847,4.847,0,0,0,1.7-3.685,8.163,8.163,0,0,0-.3-2.438,3.864,3.864,0,0,0-.115-.37l.151.064s6.409,4.661,12.281,6.567a7.021,7.021,0,0,1,1.925.976,8.321,8.321,0,0,1,1.307,1.174,12.17,12.17,0,0,1,1.951,3A20.6,20.6,0,0,1,149.334,498.039Z" transform="translate(-95.766 -445)"/>
      <path id="Path_45215" data-name="Path 45215" class="cls-15" d="M149.334,498.039H102s.991-4.811,1.132-5.8a11.993,11.993,0,0,1,2.431-4.187,6.979,6.979,0,0,1,4.644-2.747c3.431-.18,7.145-5.023,7.145-5.023h0c.082,1.409.952,5.089,1.061,6.3a1.031,1.031,0,0,0,.041.2,4.368,4.368,0,0,0,1.393,1.706l.04.034a5.166,5.166,0,0,0,6.085.408,27.568,27.568,0,0,0,2.771-2,4.847,4.847,0,0,0,1.7-3.685,8.163,8.163,0,0,0-.3-2.438,3.864,3.864,0,0,0-.115-.37l.151.064s6.409,4.661,12.281,6.567a7.021,7.021,0,0,1,1.925.976,8.321,8.321,0,0,1,1.307,1.174,12.17,12.17,0,0,1,1.951,3A20.6,20.6,0,0,1,149.334,498.039Z" transform="translate(-95.766 -445)"/>
      <path id="Path_45216" data-name="Path 45216" class="cls-14" d="M195.254,259.11a4.362,4.362,0,0,0,1.618,2.853,1.42,1.42,0,0,1,.354.242c.238.259.166.663.13,1.015a4.2,4.2,0,0,0,1.244,3.291,6.185,6.185,0,0,0,3.187,1.635,1.159,1.159,0,0,0,.867-.066,1.011,1.011,0,0,0,.356-.511,4.319,4.319,0,0,0-.086-2.764c-.276-.9-.684-1.754-.893-2.67-.5-2.173.162-4.419.459-6.63a5.692,5.692,0,0,0-.034-2.209,6.634,6.634,0,0,0-1.761-2.659,5.433,5.433,0,0,0-1.3-1.133c-1.489-.814-3.407-.091-5-.684a18.741,18.741,0,0,1-1.783-.976,6.462,6.462,0,0,0-4.222-.39,19.246,19.246,0,0,0-4.04,1.507l-1,.453a7.507,7.507,0,0,0-3.678,2.746c-.808,1.448-.583,3.3-1.391,4.75a3.941,3.941,0,0,0-.65,1.348,2.689,2.689,0,0,0,.17,1.068,8.549,8.549,0,0,1,.451,2.6,3.5,3.5,0,0,1-.928,2.413c-.264.262-.618.6-.455.933a.7.7,0,0,0,.217.234,3.838,3.838,0,0,0,3.656.542,2.375,2.375,0,0,0,1.192-.9,3.522,3.522,0,0,0,.384-1.006,14.05,14.05,0,0,0,.66-3.895,13.779,13.779,0,0,1-.043-2.276,2.035,2.035,0,0,1,1.281-1.734,6.391,6.391,0,0,1,1.688.027c.815-.007,1.815-.911,2.57-.645.65.23,1.165,1.474,1.7,1.951A6.174,6.174,0,0,0,195.254,259.11Z" transform="translate(-162.484 -237.253)"/>
      <path id="Path_45217" data-name="Path 45217" class="cls-16" d="M195.325,257.756a4.362,4.362,0,0,0,1.618,2.853,1.421,1.421,0,0,1,.35.236c.238.259.166.663.13,1.015a4.194,4.194,0,0,0,1.244,3.291,6.185,6.185,0,0,0,3.187,1.635,1.159,1.159,0,0,0,.867-.066,1.011,1.011,0,0,0,.356-.511,4.319,4.319,0,0,0-.086-2.764c-.276-.9-.684-1.754-.893-2.67-.5-2.173.161-4.419.458-6.63a5.692,5.692,0,0,0-.034-2.209,6.633,6.633,0,0,0-1.761-2.659,5.434,5.434,0,0,0-1.3-1.133c-1.489-.814-3.407-.091-5-.684a18.741,18.741,0,0,1-1.783-.976,6.462,6.462,0,0,0-4.222-.39,19.245,19.245,0,0,0-4.04,1.507l-.987.455a7.508,7.508,0,0,0-3.678,2.746c-.808,1.448-.583,3.3-1.391,4.75a3.941,3.941,0,0,0-.65,1.348,2.689,2.689,0,0,0,.17,1.068,8.548,8.548,0,0,1,.451,2.6,3.5,3.5,0,0,1-.928,2.413c-.264.262-.618.6-.455.933a.7.7,0,0,0,.217.234,3.838,3.838,0,0,0,3.656.542,2.375,2.375,0,0,0,1.192-.9,3.521,3.521,0,0,0,.384-1.006,14.05,14.05,0,0,0,.66-3.895,13.78,13.78,0,0,1-.043-2.276,2.035,2.035,0,0,1,1.281-1.734,6.394,6.394,0,0,1,1.688.027c.815-.007,1.815-.911,2.57-.645.65.23,1.165,1.474,1.7,1.951A6.131,6.131,0,0,0,195.325,257.756Z" transform="translate(-162.556 -236.041)"/>
      <rect id="Rectangle_9019" data-name="Rectangle 9019" class="cls-18" width="24.834" height="21.295" transform="translate(44.229 26.343)"/>
      <rect id="Rectangle_9020" data-name="Rectangle 9020" class="cls-15" width="24.834" height="21.295" transform="translate(44.229 26.343)"/>
      <path id="Path_45218" data-name="Path 45218" class="cls-19" d="M474.016,428.56H452.77a10.807,10.807,0,0,1,2.639-5.07A18.753,18.753,0,0,0,458.4,418.7q.3-.7.542-1.4a20.461,20.461,0,0,0,.953-4.273,1.2,1.2,0,0,1,.014-.124,23.345,23.345,0,0,0,.132-3.026v-.217a27.578,27.578,0,0,0-1.219-7.308l-.027-.085c-.231-.727-.4-1.136-.4-1.136s.422-.229,1.118-.566l.059-.028c2.559-1.229,8.617-3.794,11.288-1.966l.043.029c.934.666,1.437,1.887,1.2,3.922v.024a1.075,1.075,0,0,1-.012.108,39.371,39.371,0,0,0-.2,4.221c0,.07,0,.141,0,.217q0,.5.011,1v.137c.022,1.095.07,2.225.139,3.372.094,1.59.229,3.21.384,4.8.066.68.138,1.355.217,2.019.009.078.017.158.026.235.091.81.185,1.6.282,2.373l.007.05C473.325,424.14,473.733,426.808,474.016,428.56Z" transform="translate(-408.514 -371.582)"/>
      <path id="Path_45219" data-name="Path 45219" class="cls-14" d="M518.346,402.568v.024a39,39,0,0,0-.217,4.336v.217a10.342,10.342,0,0,1-11.842,2.784v-.217a27.523,27.523,0,0,0-1.247-7.393c-.231-.727-.4-1.136-.4-1.136s.422-.229,1.118-.566c2.534-1.225,8.718-3.87,11.387-1.971C518.078,399.311,518.581,400.533,518.346,402.568Z" transform="translate(-454.761 -371.621)"/>
      <circle id="Ellipse_1390" data-name="Ellipse 1390" class="cls-19" cx="10.332" cy="10.332" r="10.332" transform="translate(45.205 18.229)"/>
      <path id="Path_45220" data-name="Path 45220" class="cls-14" d="M380.582,578.426H358.54s.991-4.811,1.132-5.8a11.994,11.994,0,0,1,2.431-4.187,10.694,10.694,0,0,1,6.577-2.334c4.216-.063,5.443,1.389,5.775,2.462a2.4,2.4,0,0,1,.087,1.115l.8,1.156Z" transform="translate(-324.498 -521.519)"/>
      <path id="Path_45221" data-name="Path 45221" class="cls-5" d="M379.932,579.076H357.89s.991-4.811,1.132-5.8a11.994,11.994,0,0,1,2.431-4.187,10.694,10.694,0,0,1,6.577-2.334c4.216-.063,5.443,1.389,5.775,2.462a2.4,2.4,0,0,1,.087,1.115l.8,1.156Z" transform="translate(-323.918 -522.099)"/>
      <path id="Path_45222" data-name="Path 45222" class="cls-14" d="M593.255,575.432H570.16c1.1-2.344,3.988-8.591,4.148-10.036.062-.559.658-1.084,1.447-1.529a8.213,8.213,0,0,1,.769-.388l.048-.022q.217-.1.439-.177a8.8,8.8,0,0,1,6.179.049c1.9.721,4.336,1.692,6.235,2.6l.015.008c.488.234.942.463,1.342.683a5.27,5.27,0,0,1,1.609,1.161,7.4,7.4,0,0,1,.341,1.843C592.9,571.018,593.078,573.086,593.255,575.432Z" transform="translate(-513.179 -518.525)"/>
      <path id="Path_45223" data-name="Path 45223" class="cls-5" d="M593.9,576.082H570.81c1.1-2.344,3.988-8.591,4.148-10.036.062-.559.658-1.084,1.447-1.529a8.227,8.227,0,0,1,.769-.388l.048-.022q.217-.1.439-.177a8.8,8.8,0,0,1,6.179.049c1.9.721,4.336,1.692,6.235,2.6l.015.008c.488.234.942.463,1.342.683a5.268,5.268,0,0,1,1.609,1.161,7.4,7.4,0,0,1,.341,1.843C593.548,571.668,593.728,573.737,593.9,576.082Z" transform="translate(-513.758 -519.104)"/>
      <path id="Path_45224" data-name="Path 45224" class="cls-14" d="M400.615,299.253q0,.5-.027,1-.015.244-.037.488c-.01.117-.022.233-.034.349l-.015.134c-.177,1.576-.5,3.143-.542,4.727v.224a19.728,19.728,0,0,0,.559,4.41h-13.3c-.022-.27-.033-.542-.029-.81a7.1,7.1,0,0,1,.04-.726c.2-2,1.225-3.863,1.379-5.846l.007-.091c.01-.148.015-.3.013-.448v-.04a7.665,7.665,0,0,0-.3-1.936l-.026-.094a19.492,19.492,0,0,0-.65-1.843l-.048-.12c-.361-.9-.74-1.8-1-2.693a7.164,7.164,0,0,1-.313-2.06c0-.125.008-.249.017-.374.009-.1.021-.2.036-.307a4.8,4.8,0,0,1,.1-.478,10.505,10.505,0,0,1,1.123-2.449h0a7.045,7.045,0,0,0,1.048-2.686,3.1,3.1,0,0,0,.012-.353h0a3.112,3.112,0,0,0-.043-.453,7.776,7.776,0,0,0-.732-1.86c-.028-.062-.056-.124-.083-.186,0-.01-.009-.02-.012-.029a24.893,24.893,0,0,1-1.187-3.916c-.014-.057-.028-.115-.043-.171-.081-.325-.165-.65-.254-.976a10.448,10.448,0,0,0-2.493-4.845,4.625,4.625,0,0,0-5.062-1.113,5.465,5.465,0,0,0-2.545,3.851c-.348,1.552-.376,3.173-.828,4.7q-.049.167-.108.333c-.02.056-.039.108-.059.17a17.039,17.039,0,0,1-.692,1.644l-.027.057c-.824,1.753-1.781,3.475-1.811,5.237v.165a4.542,4.542,0,0,0,.189,1.236,6.157,6.157,0,0,0,1.067,1.951q.135.177.277.35c.455.559.95,1.1,1.382,1.678l.014.018a6.857,6.857,0,0,1,.827,1.38,5.037,5.037,0,0,1,.022,3.891,7.314,7.314,0,0,1-.422.83c-.279.481-.585.95-.827,1.45a5.406,5.406,0,0,0-.217.513c-.542,1.4-.659,2.941-1.1,4.381a9.947,9.947,0,0,1-1.575,3.067H358.19c.164-.8.976-4.769,1.1-5.66a11.994,11.994,0,0,1,2.431-4.187q-.184.145-.354.292a12.058,12.058,0,0,0-2.36,2.716c.031-.1.064-.2.1-.294.2-.592.413-1.178.631-1.757a12.763,12.763,0,0,1,2.591-4.632c.71-.713,1.574-1.263,2.25-2.008a7.165,7.165,0,0,0,1.671-4.906c0-.184-.008-.367-.02-.551a18.82,18.82,0,0,0-1.518-5.637,8.1,8.1,0,0,1-.782-3.035,3.385,3.385,0,0,1,.031-.434c.3-2.143,2.466-3.426,3.768-5.155,1.936-2.572,2.077-6.4,4.617-8.37,1.951-1.518,4.661-1.424,7.125-1.26,2.292.154,4.36.452,6.634.771a11.237,11.237,0,0,1,9.32,5.662,11.653,11.653,0,0,1,2.179,5.484c.01.142.015.283.015.423.023,2.32-.984,4.568-1.118,6.9-.005.108-.01.217-.011.325a.075.075,0,0,0,0,.017,11.37,11.37,0,0,0,1.806,5.853A15.7,15.7,0,0,1,400.615,299.253Z" transform="translate(-324.186 -253.608)"/>
      <path id="Path_45225" data-name="Path 45225" class="cls-18" d="M400.348,298.121c0,.286-.011.573-.027.858q-.015.244-.037.488t-.049.483c-.177,1.576-.5,3.143-.542,4.727v.365a20.364,20.364,0,0,0,.591,4.41h-13.32c-.025-.27-.04-.542-.042-.81a7.748,7.748,0,0,1,.04-.867c.2-2,1.225-3.863,1.379-5.846.011-.145.018-.29.02-.434v-.1a7.756,7.756,0,0,0-.324-2.07,19.5,19.5,0,0,0-.65-1.843c-.375-.942-.777-1.877-1.046-2.818a7.329,7.329,0,0,1-.313-1.922,5.046,5.046,0,0,1,.017-.516c.009-.1.021-.2.036-.307a4.8,4.8,0,0,1,.1-.478,10.5,10.5,0,0,1,1.123-2.449,7.033,7.033,0,0,0,1.05-2.69c.007-.07.01-.142.012-.217h0a3.035,3.035,0,0,0-.043-.6,7.775,7.775,0,0,0-.732-1.86c-.028-.062-.056-.124-.083-.186a24.365,24.365,0,0,1-1.2-3.946c-.1-.384-.193-.767-.3-1.148a10.448,10.448,0,0,0-2.493-4.845,4.6,4.6,0,0,0-5.058-1.1,5.465,5.465,0,0,0-2.545,3.851c-.348,1.552-.376,3.173-.828,4.7-.05.168-.108.336-.164.5-.2.571-.453,1.138-.718,1.7-.847,1.8-1.832,3.567-1.811,5.379v.023a4.542,4.542,0,0,0,.189,1.236,6.156,6.156,0,0,0,1.067,1.951q.135.177.277.35c.461.566.96,1.113,1.4,1.7a6.857,6.857,0,0,1,.827,1.38,5.037,5.037,0,0,1,.022,3.891,7.311,7.311,0,0,1-.422.83c-.279.481-.585.95-.827,1.45a5.413,5.413,0,0,0-.217.513c-.542,1.4-.659,2.941-1.1,4.381a9.972,9.972,0,0,1-1.683,3.207H357.89s.991-4.811,1.132-5.8A11.48,11.48,0,0,1,361.1,299.9c.108-.145.232-.29.354-.434a12.147,12.147,0,0,0-2.617,2.855l-.1.152c.225-.693.474-1.377.728-2.051a12.763,12.763,0,0,1,2.591-4.632c.71-.713,1.574-1.263,2.25-2.008a7.142,7.142,0,0,0,1.672-4.769c0-.232,0-.463-.02-.693a18.819,18.819,0,0,0-1.518-5.637,8.658,8.658,0,0,1-.782-2.9,3.523,3.523,0,0,1,.031-.571c.3-2.131,2.467-3.409,3.769-5.143,1.936-2.572,2.077-6.4,4.617-8.37,1.951-1.518,4.661-1.424,7.125-1.26,2.292.154,4.36.452,6.634.771a11.216,11.216,0,0,1,9.321,5.657,11.653,11.653,0,0,1,2.179,5.484q.02.283.015.565c-.018,2.269-.988,4.473-1.118,6.756-.009.154-.013.307-.011.462a.075.075,0,0,0,0,.017,11.454,11.454,0,0,0,1.806,5.709A15.7,15.7,0,0,1,400.348,298.121Z" transform="translate(-323.918 -252.476)"/>
    </g>
  </g>
</svg>
