<svg xmlns="http://www.w3.org/2000/svg" xmlns:xlink="http://www.w3.org/1999/xlink" viewBox="0 0 262 147">
  <defs>
    <style>
      .cls-1 {
        fill: #f1fafe;
      }

      .cls-2 {
        fill: #e3f2fd;
      }

      .cls-3 {
        clip-path: url(#clip-path);
      }

      .cls-4, .cls-7 {
        fill: #248dc1;
      }

      .cls-19, .cls-4 {
        opacity: 0.1;
      }

      .cls-5 {
        opacity: 0.2;
      }

      .cls-13, .cls-6 {
        fill: none;
        stroke: #535461;
        stroke-miterlimit: 10;
      }

      .cls-6 {
        stroke-width: 0.398px;
      }

      .cls-8 {
        fill: url(#linear-gradient);
      }

      .cls-9 {
        fill: #f6f7f9;
      }

      .cls-10 {
        fill: url(#linear-gradient-2);
      }

      .cls-11 {
        fill: #797c9c;
      }

      .cls-12 {
        opacity: 0.05;
      }

      .cls-13 {
        stroke-width: 0.199px;
      }

      .cls-14 {
        opacity: 0.25;
      }

      .cls-15 {
        fill: #e8eaf1;
      }

      .cls-16 {
        fill: #ffb9b9;
      }

      .cls-17 {
        fill: #e4e2f3;
      }

      .cls-18 {
        fill: #4c4c78;
      }

      .cls-20 {
        fill: #b36362;
      }

      .cls-21 {
        fill: url(#linear-gradient-4);
      }

      .cls-22 {
        fill: #db8b8b;
      }

      .cls-23 {
        fill: #474463;
      }

      .cls-24 {
        fill: #cbcdda;
      }

      .cls-25 {
        fill: #472727;
      }
    </style>
    <clipPath id="clip-path">
      <path id="Rectangle_8856" data-name="Rectangle 8856" class="cls-1" d="M2,0H218a2,2,0,0,1,2,2V123.435a0,0,0,0,1,0,0H0a0,0,0,0,1,0,0V2A2,2,0,0,1,2,0Z" transform="translate(14266 6794)"/>
    </clipPath>
    <linearGradient id="linear-gradient" x1="0.5" y1="1" x2="0.5" gradientUnits="objectBoundingBox">
      <stop offset="0" stop-color="gray" stop-opacity="0.251"/>
      <stop offset="0.54" stop-color="gray" stop-opacity="0.122"/>
      <stop offset="1" stop-color="gray" stop-opacity="0.102"/>
    </linearGradient>
    <linearGradient id="linear-gradient-2" y2="0" xlink:href="#linear-gradient"/>
    <linearGradient id="linear-gradient-4" x1="16.117" x2="16.117" y2="0" xlink:href="#linear-gradient"/>
  </defs>
  <g id="card-10" transform="translate(-412 -1113)">
    <path id="Rectangle_8569" data-name="Rectangle 8569" class="cls-2" d="M2,0H260a2,2,0,0,1,2,2V147a0,0,0,0,1,0,0H0a0,0,0,0,1,0,0V2A2,2,0,0,1,2,0Z" transform="translate(412 1113)"/>
    <g id="Mask_Group_266" data-name="Mask Group 266" class="cls-3" transform="translate(-13833 -5669)">
      <g id="undraw_organize_resume_utk5" transform="translate(14292.396 6794)">
        <path id="Path_44804" data-name="Path 44804" class="cls-4" d="M24.462,93.538c-2,.326-4.519,1.258-4.5,3.425a4.625,4.625,0,0,0,1.452,2.84,53.964,53.964,0,0,0,10.246,9.05c1.808,1.225,3.751,2.4,4.952,4.289a13.345,13.345,0,0,1,1.6,6.594,50.686,50.686,0,0,1-1.895,16.081c5.886,1.121,12.45,2.1,17.355-1.437,2.937-2.12,4.924-5.672,8.2-7.142,2.185-.982,4.66-.9,7.042-.77q16.916.89,33.748,3.341c4.7.685,9.49,1.46,14.139.575s9.224-3.774,10.938-8.457a4.022,4.022,0,0,1,1.093-1.961,2.962,2.962,0,0,1,1.885-.356l39.275,1.35a14.173,14.173,0,0,0,6.349-.752,14.984,14.984,0,0,0,4.792-4.122c3.233-3.686,6.71-8.22,5.759-13.222-.76-4.01-4.158-6.811-7.528-8.773s-7.087-3.567-9.563-6.7c-3.767-4.773-3.619-11.6-3.853-17.8a98.867,98.867,0,0,0-2.063-16.679c-1.021-4.827-2.443-9.66-5.1-13.737s-6.723-7.341-11.321-7.939c-6-.782-12.041,2.964-17.915,1.373-4.962-1.337-8.377-6.086-12.489-9.378-7.3-5.847-16.886-7.072-25.946-7.184-9.607-.122-19.467.85-28.029,5.361a15.022,15.022,0,0,0-5.238,4.107c-2.082,2.8-2.586,6.558-3.948,9.829C48.41,48.515,30.56,51.356,24.766,64.387a21.388,21.388,0,0,0-.538,14.869c1.612,5.224,6.15,8.11,7.949,12.664C30.241,93.167,26.809,93.155,24.462,93.538Z" transform="translate(-19.842 -16.037)"/>
        <g id="Group_37057" data-name="Group 37057" class="cls-5" transform="translate(144.019 24.771)">
          <path id="Path_44805" data-name="Path 44805" class="cls-6" d="M196.012,84.023s.8-10.654,6.823-16.443a16.189,16.189,0,0,0,4.817-9.037,27.234,27.234,0,0,0,.334-4.967" transform="translate(-192.082 -46.825)"/>
          <path id="Path_44806" data-name="Path 44806" class="cls-7" d="M213.936,48.616c-.444,1.169-3.859,3.777-3.859,3.777s-.835-4.212-.394-5.386a2.275,2.275,0,0,1,4.255,1.609Z" transform="translate(-194.253 -45.537)"/>
          <path id="Path_44807" data-name="Path 44807" class="cls-7" d="M215.019,57.754c-1.011.745-5.293,1.073-5.293,1.073s1.585-3.991,2.6-4.736a2.274,2.274,0,0,1,2.7,3.662Z" transform="translate(-194.28 -46.837)"/>
          <path id="Path_44808" data-name="Path 44808" class="cls-7" d="M209.863,70.847c-1.25.132-5.111-1.746-5.111-1.746s3.383-2.645,4.631-2.778a2.275,2.275,0,1,1,.48,4.524Z" transform="translate(-193.483 -48.867)"/>
          <path id="Path_44809" data-name="Path 44809" class="cls-7" d="M203.649,79.946c-1.21.334-5.333-.857-5.333-.857s2.887-3.174,4.1-3.52a2.274,2.274,0,0,1,1.236,4.377Z" transform="translate(-192.451 -50.337)"/>
          <path id="Path_44810" data-name="Path 44810" class="cls-7" d="M204.263,57.458c.533,1.138,4.138,3.47,4.138,3.47s.513-4.264-.02-5.4a2.274,2.274,0,0,0-4.118,1.931Z" transform="translate(-193.37 -46.928)"/>
          <path id="Path_44811" data-name="Path 44811" class="cls-7" d="M197.1,68.065c.849.926,4.987,2.073,4.987,2.073s-.787-4.222-1.636-5.147a2.275,2.275,0,0,0-3.353,3.074Z" transform="translate(-192.161 -48.537)"/>
          <path id="Path_44812" data-name="Path 44812" class="cls-7" d="M191.694,79.483c.68,1.056,4.566,2.885,4.566,2.885s-.062-4.294-.742-5.346a2.275,2.275,0,0,0-3.824,2.464Z" transform="translate(-191.331 -50.417)"/>
        </g>
        <path id="Path_44813" data-name="Path 44813" class="cls-8" d="M32.658,17.475v77.02H156.424V17.475Z" transform="translate(-5.236 -2.803)"/>
        <rect id="Rectangle_8857" data-name="Rectangle 8857" class="cls-9" width="121.151" height="5.883" transform="translate(28.73 15.486)"/>
        <g id="Group_37058" data-name="Group 37058" class="cls-5" transform="translate(28.73 15.486)">
          <rect id="Rectangle_8858" data-name="Rectangle 8858" class="cls-7" width="121.151" height="5.883"/>
        </g>
        <rect id="Rectangle_8859" data-name="Rectangle 8859" class="cls-9" width="121.151" height="69.51" transform="translate(28.73 21.368)"/>
        <circle id="Ellipse_1327" data-name="Ellipse 1327" class="cls-9" cx="1.308" cy="1.308" r="1.308" transform="translate(30.327 17.083)"/>
        <circle id="Ellipse_1328" data-name="Ellipse 1328" class="cls-9" cx="1.308" cy="1.308" r="1.308" transform="translate(33.812 17.083)"/>
        <circle id="Ellipse_1329" data-name="Ellipse 1329" class="cls-9" cx="1.308" cy="1.308" r="1.308" transform="translate(37.299 17.083)"/>
        <g id="Group_37059" data-name="Group 37059" class="cls-5" transform="translate(32.942 30.012)">
          <rect id="Rectangle_8860" data-name="Rectangle 8860" class="cls-7" width="62.319" height="4.503"/>
        </g>
        <g id="Group_37060" data-name="Group 37060" class="cls-5" transform="translate(111.24 30.012)">
          <rect id="Rectangle_8861" data-name="Rectangle 8861" class="cls-7" width="32.684" height="4.503"/>
        </g>
        <g id="Group_37061" data-name="Group 37061" class="cls-5" transform="translate(45.071 51.947)">
          <rect id="Rectangle_8862" data-name="Rectangle 8862" class="cls-7" width="4.357" height="14.381" transform="translate(0 20.628)"/>
          <rect id="Rectangle_8863" data-name="Rectangle 8863" class="cls-7" width="4.357" height="24.695" transform="translate(8.425 10.313)"/>
          <rect id="Rectangle_8864" data-name="Rectangle 8864" class="cls-7" width="4.357" height="35.008" transform="translate(16.851)"/>
          <rect id="Rectangle_8865" data-name="Rectangle 8865" class="cls-7" width="4.357" height="31.668" transform="translate(25.276 3.341)"/>
          <rect id="Rectangle_8866" data-name="Rectangle 8866" class="cls-7" width="4.357" height="21.789" transform="translate(33.702 13.219)"/>
        </g>
        <g id="Group_37062" data-name="Group 37062" class="cls-5" transform="translate(111.168 44.394)">
          <rect id="Rectangle_8867" data-name="Rectangle 8867" class="cls-7" width="32.684" height="40.166"/>
        </g>
        <path id="Path_44814" data-name="Path 44814" class="cls-10" d="M213.956,99.435a17.668,17.668,0,0,1-.62-3.184c-.015-1.758.921-3.8-.309-5.1a5.784,5.784,0,0,1-.865-.862,1.9,1.9,0,0,1-.217-.972c-.02-2.05,1.109-4.132.433-6.075a2.065,2.065,0,0,0-.775-1.081,2.249,2.249,0,0,0-1.315-.294c-.433,0-.889.048-1.337.057a2.889,2.889,0,0,1-.75-.1c-.518-.147-.957-.486-1.47-.653a2.4,2.4,0,0,0-.835-.115,4.492,4.492,0,0,0-2.947,1.433,11.007,11.007,0,0,1-1.261.917c.067-.047-1.559,1.069-.947,1.081a2.129,2.129,0,0,1,1.21.421,3.268,3.268,0,0,0,.167,3.789c-.266-.261-.56-.546-.86-.835a19.8,19.8,0,0,0-2.735-2.384,19.357,19.357,0,0,1-2.349-1.649s-1.8,1-1.243,2.394a5.589,5.589,0,0,1,.77.3,1.442,1.442,0,0,0,.105.54,5.948,5.948,0,0,1,1.6.782,2.72,2.72,0,0,1,.154.239,12.432,12.432,0,0,0,1.891,2.023c.638.64,1.479,1.405,2.316,2.142a4.5,4.5,0,0,0-.565,1.5,1.852,1.852,0,0,1-.189-.087c-1.243-.668-4.143-.6-4.143-.6a6.06,6.06,0,0,1-2.9-4.122,7.784,7.784,0,0,1-.346-2.194h-.008l.062-.013.58-1.051a.464.464,0,0,0-.381-.682,2.511,2.511,0,0,0-2.961,2.339h.025l-.008.022c.346,1.662.621,1.529.553,2.859l1.1,2.925s.068,1,2.072,2.327a43.293,43.293,0,0,1,4.282,3.392s-1.208.632-.76,3.524a33.769,33.769,0,0,1-.276,8.577v3.258l.154-.042c-.02.109-.038.224-.058.349a18.344,18.344,0,0,0-.1,4.947,48.3,48.3,0,0,0,2.072,8.186,14.8,14.8,0,0,1,.76,2.992,2.758,2.758,0,0,0,.177.769,6.043,6.043,0,0,1,.485,2.307,16.247,16.247,0,0,0,1.064,5.832A15.42,15.42,0,0,1,203.5,143c-.5.648-1.146,1.355-1.659,1.425-.967.134-2.832.266-1.589,1.861a1.137,1.137,0,0,0,.144.152c-.944.15-1.981.481-.972,1.776,1.243,1.6,8.562.864,8.562.864s.047-.887,0-1.861c.513-.035.835-.067.835-.067s.207-3.856-.69-4.322a1.938,1.938,0,0,0-.485.117c-.1-.533-.167-1.2-.217-1.686l.356-.027v-.027h.022V135.4s-.414-3.59-1.933-5.179a3.227,3.227,0,0,1-.5-.668l-.02-.042c.01-.454.01-1.068,0-1.771l.022-.038c.027-.043.053-.082.079-.117a1.449,1.449,0,0,1,.114-.134l.022-.028h0s.835-1,3.661-7.314c1.726-3.853,1.27-6.015.652-7.129-.13-.5-.4-1.624-.743-3.547a13.906,13.906,0,0,1-.2-2.471,4.969,4.969,0,0,0,1.31.147,4.448,4.448,0,0,0,2-.428,2.719,2.719,0,0,1-.7-2.187c.257-.862,1.276-1.258,1.865-1.953A3.682,3.682,0,0,0,213.956,99.435Z" transform="translate(-47.245 -26.46)"/>
        <path id="Path_44815" data-name="Path 44815" class="cls-11" d="M197.27,85.207s-1.714.989-1.186,2.374a4.708,4.708,0,0,1,2.506,1.846c.725,1.318,6.33,6.066,6.33,6.066l4.093-2.043s-1.422-1.9-5.919-3.224a31.646,31.646,0,0,0-3.575-3.37A20,20,0,0,1,197.27,85.207Z" transform="translate(-48.058 -27.125)"/>
        <path id="Path_44816" data-name="Path 44816" class="cls-12" d="M198.265,86.2s-1.714.989-1.186,2.374a4.709,4.709,0,0,1,2.506,1.846c.725,1.318,6.33,6.066,6.33,6.066l4.093-2.043s-1.422-1.9-5.919-3.224a31.646,31.646,0,0,0-3.575-3.37A20,20,0,0,1,198.265,86.2Z" transform="translate(-48.218 -27.285)"/>
        <path id="Path_44817" data-name="Path 44817" class="cls-7" d="M22.427,143.975s-9.633,5.812,8.125,14.761c0,0,3.913-7.264-.413-13.187a5.832,5.832,0,0,0-7.567-1.657Z" transform="translate(-19.818 -36.413)"/>
        <path id="Path_44818" data-name="Path 44818" class="cls-13" d="M23.056,143.986s8.245,6.307,8.019,14.883" transform="translate(-20.337 -36.548)"/>
        <path id="Path_44819" data-name="Path 44819" class="cls-6" d="M32.929,155.591s-3.019-10.256.561-17.793a16.189,16.189,0,0,0,1.31-10.156,27.233,27.233,0,0,0-1.438-4.767" transform="translate(-21.729 -33.164)"/>
        <path id="Path_44820" data-name="Path 44820" class="cls-7" d="M35.465,116.757c0,1.256-2.274,4.9-2.274,4.9s-2.274-3.642-2.274-4.9a2.275,2.275,0,0,1,4.549,0Z" transform="translate(-21.598 -31.818)"/>
        <path id="Path_44821" data-name="Path 44821" class="cls-7" d="M39.937,124.814c-.683,1.054-4.571,2.875-4.571,2.875s.07-4.294.753-5.346a2.274,2.274,0,0,1,3.818,2.473Z" transform="translate(-22.311 -32.912)"/>
        <path id="Path_44822" data-name="Path 44822" class="cls-7" d="M39.584,138.819c-1.121.566-5.4.167-5.4.167s2.229-3.676,3.35-4.237a2.274,2.274,0,1,1,2.048,4.061Z" transform="translate(-22.122 -35.028)"/>
        <path id="Path_44823" data-name="Path 44823" class="cls-7" d="M37.044,149.54c-1,.747-5.291,1.084-5.291,1.084s1.575-3.995,2.586-4.741a2.274,2.274,0,0,1,2.7,3.657Z" transform="translate(-21.731 -36.78)"/>
        <path id="Path_44824" data-name="Path 44824" class="cls-7" d="M29.547,128.453c.9.875,5.1,1.783,5.1,1.783s-1.027-4.177-1.93-5.046a2.276,2.276,0,1,0-3.174,3.263Z" transform="translate(-21.267 -33.431)"/>
        <path id="Path_44825" data-name="Path 44825" class="cls-7" d="M26.6,140.9c1.121.566,5.4.167,5.4.167s-2.229-3.676-3.35-4.237A2.274,2.274,0,0,0,26.6,140.9Z" transform="translate(-20.706 -35.362)"/>
        <path id="Path_44826" data-name="Path 44826" class="cls-7" d="M25.582,153.5c1,.747,5.291,1.084,5.291,1.084s-1.575-3.995-2.586-4.741a2.274,2.274,0,1,0-2.7,3.657Z" transform="translate(-20.594 -37.415)"/>
        <path id="Path_44827" data-name="Path 44827" class="cls-14" d="M35.465,116.757c0,1.256-2.274,4.9-2.274,4.9s-2.274-3.642-2.274-4.9a2.275,2.275,0,0,1,4.549,0Z" transform="translate(-21.598 -31.818)"/>
        <path id="Path_44828" data-name="Path 44828" class="cls-14" d="M39.937,124.814c-.683,1.054-4.571,2.875-4.571,2.875s.07-4.294.753-5.346a2.274,2.274,0,0,1,3.818,2.473Z" transform="translate(-22.311 -32.912)"/>
        <path id="Path_44829" data-name="Path 44829" class="cls-14" d="M39.584,138.819c-1.121.566-5.4.167-5.4.167s2.229-3.676,3.35-4.237a2.274,2.274,0,1,1,2.048,4.061Z" transform="translate(-22.122 -35.028)"/>
        <path id="Path_44830" data-name="Path 44830" class="cls-14" d="M37.044,149.54c-1,.747-5.291,1.084-5.291,1.084s1.575-3.995,2.586-4.741a2.274,2.274,0,0,1,2.7,3.657Z" transform="translate(-21.731 -36.78)"/>
        <path id="Path_44831" data-name="Path 44831" class="cls-14" d="M29.547,128.453c.9.875,5.1,1.783,5.1,1.783s-1.027-4.177-1.93-5.046a2.276,2.276,0,1,0-3.174,3.263Z" transform="translate(-21.267 -33.431)"/>
        <path id="Path_44832" data-name="Path 44832" class="cls-14" d="M26.6,140.9c1.121.566,5.4.167,5.4.167s-2.229-3.676-3.35-4.237A2.274,2.274,0,0,0,26.6,140.9Z" transform="translate(-20.706 -35.362)"/>
        <path id="Path_44833" data-name="Path 44833" class="cls-14" d="M25.582,153.5c1,.747,5.291,1.084,5.291,1.084s-1.575-3.995-2.586-4.741a2.274,2.274,0,1,0-2.7,3.657Z" transform="translate(-20.594 -37.415)"/>
        <path id="Path_44834" data-name="Path 44834" class="cls-6" d="M41.248,155.824s-3.019-10.25.566-17.793a16.189,16.189,0,0,0,1.31-10.156,27.233,27.233,0,0,0-1.438-4.767" transform="translate(-23.063 -33.201)"/>
        <path id="Path_44835" data-name="Path 44835" class="cls-7" d="M43.784,117c0,1.256-2.274,4.9-2.274,4.9s-2.274-3.642-2.274-4.9a2.275,2.275,0,0,1,4.549,0Z" transform="translate(-22.931 -31.857)"/>
        <path id="Path_44836" data-name="Path 44836" class="cls-7" d="M48.258,125.045c-.683,1.054-4.571,2.875-4.571,2.875s.07-4.294.753-5.346a2.274,2.274,0,1,1,3.818,2.473Z" transform="translate(-23.645 -32.949)"/>
        <path id="Path_44837" data-name="Path 44837" class="cls-7" d="M47.9,139.05c-1.121.566-5.4.167-5.4.167s2.229-3.676,3.35-4.237a2.278,2.278,0,0,1,2.048,4.07Z" transform="translate(-23.455 -35.065)"/>
        <path id="Path_44838" data-name="Path 44838" class="cls-7" d="M45.363,149.772c-1,.747-5.291,1.084-5.291,1.084s1.575-3.995,2.586-4.741a2.274,2.274,0,0,1,2.7,3.657Z" transform="translate(-23.065 -36.818)"/>
        <path id="Path_44839" data-name="Path 44839" class="cls-7" d="M37.87,128.684c.9.875,5.1,1.783,5.1,1.783s-1.027-4.177-1.93-5.046a2.276,2.276,0,1,0-3.174,3.263Z" transform="translate(-22.601 -33.468)"/>
        <path id="Path_44840" data-name="Path 44840" class="cls-7" d="M34.923,141.135c1.121.566,5.4.167,5.4.167s-2.229-3.676-3.35-4.237a2.274,2.274,0,1,0-2.048,4.061Z" transform="translate(-22.039 -35.399)"/>
        <path id="Path_44841" data-name="Path 44841" class="cls-7" d="M33.9,153.732c1,.747,5.291,1.084,5.291,1.084s-1.575-3.995-2.586-4.741a2.274,2.274,0,0,0-2.7,3.657Z" transform="translate(-21.928 -37.452)"/>
        <rect id="Rectangle_8868" data-name="Rectangle 8868" class="cls-7" width="159.219" height="1.169" transform="translate(4.099 122.266)"/>
        <rect id="Rectangle_8869" data-name="Rectangle 8869" class="cls-8" width="33.743" height="41.467" transform="translate(116.653 56.941)"/>
        <rect id="Rectangle_8870" data-name="Rectangle 8870" class="cls-7" width="32.684" height="40.166" transform="translate(117.182 57.592)"/>
        <rect id="Rectangle_8871" data-name="Rectangle 8871" class="cls-15" width="6.683" height="6.683" transform="translate(119.378 61.118)"/>
        <rect id="Rectangle_8872" data-name="Rectangle 8872" class="cls-15" width="23.724" height="1.337" transform="translate(122.719 71.81)"/>
        <rect id="Rectangle_8873" data-name="Rectangle 8873" class="cls-15" width="23.724" height="1.337" transform="translate(122.719 74.65)"/>
        <rect id="Rectangle_8874" data-name="Rectangle 8874" class="cls-15" width="23.724" height="1.337" transform="translate(122.719 77.491)"/>
        <rect id="Rectangle_8875" data-name="Rectangle 8875" class="cls-15" width="23.724" height="1.337" transform="translate(122.719 80.331)"/>
        <rect id="Rectangle_8876" data-name="Rectangle 8876" class="cls-15" width="23.724" height="1.337" transform="translate(122.719 83.171)"/>
        <rect id="Rectangle_8877" data-name="Rectangle 8877" class="cls-15" width="23.724" height="1.337" transform="translate(122.719 86.011)"/>
        <rect id="Rectangle_8878" data-name="Rectangle 8878" class="cls-15" width="23.724" height="1.337" transform="translate(122.719 88.851)"/>
        <path id="Path_44842" data-name="Path 44842" class="cls-16" d="M209.772,152.187s.2,2.9.528,3.231-2.967.528-2.967.528l.461-3.759Z" transform="translate(-49.878 -37.863)"/>
        <path id="Path_44843" data-name="Path 44843" class="cls-12" d="M209.772,152.187s.2,2.9.528,3.231-2.967.528-2.967.528l.461-3.759Z" transform="translate(-49.878 -37.863)"/>
        <path id="Path_44844" data-name="Path 44844" class="cls-17" d="M209.593,154.681a6.336,6.336,0,0,0-2.11.857,2.288,2.288,0,0,1-1.582-1.781s-1.385,2.374-2.307,2.506-2.7.264-1.517,1.846,8.176.857,8.176.857S210.448,155.142,209.593,154.681Z" transform="translate(-48.972 -38.114)"/>
        <path id="Path_44845" data-name="Path 44845" class="cls-12" d="M209.593,154.681a6.336,6.336,0,0,0-2.11.857,2.288,2.288,0,0,1-1.582-1.781s-1.385,2.374-2.307,2.506-2.7.264-1.517,1.846,8.176.857,8.176.857S210.448,155.142,209.593,154.681Z" transform="translate(-48.972 -38.114)"/>
        <path id="Path_44846" data-name="Path 44846" class="cls-16" d="M209.256,157.068l-.461,1.253-3.032-.857.167-1.243.042-.3.115-.835s2.571-.66,2.571-.334a5.112,5.112,0,0,0,.167.8c.105.406.237.867.334,1.17C209.216,156.936,209.256,157.068,209.256,157.068Z" transform="translate(-49.626 -38.259)"/>
        <path id="Path_44847" data-name="Path 44847" class="cls-18" d="M207.278,134.075a1.8,1.8,0,0,0,0,1.838,3.2,3.2,0,0,0,.475.657c1.45,1.582,1.846,5.142,1.846,5.142v5.736l-.989.075-1.582.122-2.374-9.759s-1.385-7.121-.725-8.374,1.253-9.1,1.253-9.1l.548-.566,1.3-1.345h3.759a2.528,2.528,0,0,1,.732.817c.632,1.044,1.2,3.216-.533,7.226-2.7,6.263-3.5,7.253-3.5,7.253a1.52,1.52,0,0,0-.212.277Z" transform="translate(-49.304 -32.463)"/>
        <path id="Path_44848" data-name="Path 44848" class="cls-12" d="M207.3,134.041a1.8,1.8,0,0,0,0,1.838,3.194,3.194,0,0,0,.474.657c1.45,1.582,1.846,5.142,1.846,5.142v5.736l-.989.075-1.582.122-2.374-9.759s-1.385-7.121-.725-8.374,1.253-9.1,1.253-9.1l.548-.566,1.3-1.345h3.759a2.528,2.528,0,0,1,.732.817c.632,1.044,1.2,3.216-.533,7.226-2.7,6.263-3.5,7.253-3.5,7.253A1.516,1.516,0,0,0,207.3,134.041Z" transform="translate(-49.308 -32.457)"/>
        <path id="Path_44849" data-name="Path 44849" class="cls-19" d="M208.873,155.563l-2.855.358.115-.835s2.571-.66,2.571-.334A5.118,5.118,0,0,0,208.873,155.563Z" transform="translate(-49.667 -38.259)"/>
        <path id="Path_44850" data-name="Path 44850" class="cls-18" d="M206.378,125.435s.167,5.191.19,8.452v1.838a4.063,4.063,0,0,1-.053.723,4.605,4.605,0,0,0,.2,1.911,19.031,19.031,0,0,1,1.186,8.176v2.9l-3.164.4s.528-.4-.924-4.22a16.667,16.667,0,0,1-1.017-5.784,6.19,6.19,0,0,0-.463-2.289,2.824,2.824,0,0,1-.167-.762,15.133,15.133,0,0,0-.725-2.967,49.157,49.157,0,0,1-1.978-8.11,18.88,18.88,0,0,1,.092-4.905,12.242,12.242,0,0,1,.237-1.226s6.446-4.056,8.88-1.253a3.174,3.174,0,0,1,.55.924,6.093,6.093,0,0,1,.311,1.027C210.285,123.985,206.378,125.435,206.378,125.435Z" transform="translate(-48.597 -32.274)"/>
        <circle id="Ellipse_1330" data-name="Ellipse 1330" class="cls-16" cx="3.363" cy="3.363" r="3.363" transform="translate(154.222 57.556)"/>
        <path id="Path_44851" data-name="Path 44851" class="cls-16" d="M205.249,90.705s1.385,3.889,0,5.934,4.417,1.385,4.417,1.385l2.242-2.7s-2.638,0-2.77-4.616S205.249,90.705,205.249,90.705Z" transform="translate(-49.51 -27.678)"/>
        <path id="Path_44852" data-name="Path 44852" class="cls-19" d="M211.035,119.9a8.656,8.656,0,0,1-1.469.368,3,3,0,0,1-2.356-.368,3.344,3.344,0,0,0-2.157-.237,36.97,36.97,0,0,0-5.467,1.134,12.246,12.246,0,0,1,.237-1.226s6.446-4.056,8.88-1.253h1.407a2.528,2.528,0,0,1,.732.817C210.965,119.655,211.035,119.9,211.035,119.9Z" transform="translate(-48.636 -32.274)"/>
        <path id="Path_44853" data-name="Path 44853" class="cls-19" d="M209.256,157.366l-.461,1.253-3.032-.857.167-1.243a2.137,2.137,0,0,0,1.41,1.31,10.755,10.755,0,0,1,1.814-.8C209.216,157.234,209.256,157.366,209.256,157.366Z" transform="translate(-49.626 -38.557)"/>
        <path id="Path_44854" data-name="Path 44854" class="cls-17" d="M208.648,156.959a6.336,6.336,0,0,0-2.11.857,2.288,2.288,0,0,1-1.582-1.781s-1.385,2.374-2.307,2.506-2.7.264-1.517,1.846,8.176.857,8.176.857S209.5,157.42,208.648,156.959Z" transform="translate(-48.821 -38.479)"/>
        <path id="Path_44855" data-name="Path 44855" class="cls-16" d="M191.529,88.906a2.439,2.439,0,0,1,2.827-2.317.461.461,0,0,1,.364.668l-.553,1.041Z" transform="translate(-47.344 -27.344)"/>
        <path id="Path_44856" data-name="Path 44856" class="cls-11" d="M207.109,95.991s-3.231-.528-4.088-1.186a1.334,1.334,0,0,1-1.846.593,10.654,10.654,0,0,0-3.956-.593,5.979,5.979,0,0,1-2.77-4.088,8.108,8.108,0,0,1-.334-2.172s-1.714-1.781-2.571.593c.334,1.649.593,1.517.528,2.84l1.054,2.9s.065.989,1.978,2.307a42.3,42.3,0,0,1,4.088,3.363s-1.154.627-.725,3.5a34.658,34.658,0,0,1-.264,8.506v3.231s6.594-1.911,7.714-.924,3.824,0,3.824,0a36.845,36.845,0,0,1-.792-3.824,16.762,16.762,0,0,1,.065-5.346s1.714-4.549,2.506-6.4-.593-4.344-1.978-5.274-1.9-.369-1.9-.369S210.076,95.4,207.109,95.991Z" transform="translate(-47.347 -27.558)"/>
        <path id="Path_44857" data-name="Path 44857" class="cls-12" d="M199.991,108.76s.526-.127,3.163-.523,7.253.528,7.253.528" transform="translate(-48.701 -30.801)"/>
        <path id="Path_44858" data-name="Path 44858" class="cls-19" d="M202.68,85.339a2.343,2.343,0,0,1,1.95,3.224c-.292.588-.859,1.106-.8,1.759a6.356,6.356,0,0,0,.254.857c.316,1.337-1.283,2.588-.917,3.908a2.822,2.822,0,0,0,.571.957l2.777,3.5a2.628,2.628,0,0,1,.414.642,2.705,2.705,0,0,1,.12,1.027,7.98,7.98,0,0,0,1.081,4.818,4.427,4.427,0,0,0,5.395,1.3,2.79,2.79,0,0,1-.668-2.172c.246-.854,1.218-1.248,1.779-1.936a3.78,3.78,0,0,0,.5-3.076,18.565,18.565,0,0,1-.591-3.158c-.013-1.743.879-3.767-.3-5.054a5.627,5.627,0,0,1-.827-.855,1.943,1.943,0,0,1-.207-.966c-.018-2.032,1.059-4.1.413-6.025a2.047,2.047,0,0,0-.74-1.073c-.916-.616-2.185-.018-3.245-.334-.5-.145-.914-.483-1.4-.648-1.32-.446-2.541.449-3.453,1.308a10.523,10.523,0,0,1-1.2.909C203.647,84.221,202.095,85.327,202.68,85.339Z" transform="translate(-49.111 -26.598)"/>
        <path id="Path_44859" data-name="Path 44859" class="cls-20" d="M202.879,85.339a2.343,2.343,0,0,1,1.95,3.224c-.292.588-.859,1.106-.8,1.759a6.359,6.359,0,0,0,.254.857c.316,1.337-1.283,2.588-.917,3.908a2.822,2.822,0,0,0,.571.957l2.777,3.5a2.627,2.627,0,0,1,.414.642,2.7,2.7,0,0,1,.12,1.027,7.98,7.98,0,0,0,1.081,4.818,4.427,4.427,0,0,0,5.395,1.3,2.79,2.79,0,0,1-.668-2.172c.246-.854,1.218-1.248,1.779-1.936a3.78,3.78,0,0,0,.5-3.076,18.565,18.565,0,0,1-.591-3.158c-.013-1.743.879-3.767-.3-5.054a5.627,5.627,0,0,1-.827-.855,1.943,1.943,0,0,1-.207-.966c-.018-2.032,1.059-4.1.413-6.025a2.047,2.047,0,0,0-.74-1.073c-.916-.616-2.185-.018-3.245-.334-.5-.145-.914-.483-1.4-.648-1.32-.446-2.541.449-3.453,1.308a10.523,10.523,0,0,1-1.2.909C203.846,84.221,202.294,85.327,202.879,85.339Z" transform="translate(-49.143 -26.598)"/>
        <path id="Path_44860" data-name="Path 44860" class="cls-21" d="M139.664,117.505a5.794,5.794,0,0,1-.987-1.211,4.4,4.4,0,0,0-2.209-1.642v-.3h.04l-.018-.274h.018l-.047-.725h0l-.236-3.622a5.6,5.6,0,0,1,.652-4.65,3.592,3.592,0,0,0-1.32-5.188s-.668-3.52-.094-4.354a24.272,24.272,0,0,0-2.372-1.208q-.018-.065-.035-.134c-.015-.334-.035-.657-.053-.984a3.6,3.6,0,0,1,.094-.5q.028-.1.06-.211a3.614,3.614,0,0,0,2.307-3.351,3.549,3.549,0,0,0-.224-1.243,1.583,1.583,0,0,0,.167-.394,1.609,1.609,0,0,0-.224-1.156,4.169,4.169,0,0,0-2-1.878A7.812,7.812,0,0,0,129.7,84.3c-.573.068-1.228.262-1.435.792a5.483,5.483,0,0,0-.13.61c-.214.809-1.141,1.186-1.714,1.8a4.306,4.306,0,0,0-.892,2,18.51,18.51,0,0,0-.334,6.294c.058.484.135.966.217,1.447a4.109,4.109,0,0,0-.513,2.84l-1.131,5.373-.471,3.149a2.753,2.753,0,0,0,.849,2.409,21.215,21.215,0,0,1,2.137,2.683,6.389,6.389,0,0,0-.344,2.135c.012.334.03.65.053.954a8.494,8.494,0,0,0,.361,1.888,13.458,13.458,0,0,0,.906,4.01l.189,5.65s-.282,5.188-.849,6.207,1.226,9.635,1.226,9.635v1.2l-.3.882-.075-.057c-1.415,1.761,0,2.409,0,2.409s.384.018,1,.042a1.138,1.138,0,0,0,.6,1.255s8.019.371,9.433,0,1.038-1.671.282-1.575a3.45,3.45,0,0,1-1.129-.149.661.661,0,0,0-.473-1.148,7.737,7.737,0,0,1-2.453-.58v.012a1.274,1.274,0,0,0-.167-.05,18.918,18.918,0,0,1-1.866-.526c-.364-.78-1.2-2.879-.6-4.511a8.1,8.1,0,0,0,.361-2.663,30.42,30.42,0,0,1,1.241-8.45l1.131-3.888a48.912,48.912,0,0,0,1.7-6.015l-.013-1.891a2.745,2.745,0,0,0,3.052.2.727.727,0,0,0,.117-1.18Zm-12.589-9.827c.032-.135.058-.284.082-.439h.668a3.442,3.442,0,0,1,.334,1.823C127.648,108.894,126.883,108.5,127.075,107.678Z" transform="translate(-36.402 -26.963)"/>
        <path id="Path_44861" data-name="Path 44861" class="cls-22" d="M128.8,156.417l-.363,1.089,1.18,1.18,3.9.907,2.813-.272-.182-1h0a1.2,1.2,0,0,0-.894-.879c-1.156-.272-3.361-.891-3.826-1.753Z" transform="translate(-37.231 -38.424)"/>
        <path id="Path_44862" data-name="Path 44862" class="cls-19" d="M128.8,156.417l-.363,1.089,1.18,1.18,3.9.907,2.813-.272-.182-1h0a1.2,1.2,0,0,0-.894-.879c-1.156-.272-3.361-.891-3.826-1.753Z" transform="translate(-37.231 -38.424)"/>
        <path id="Path_44863" data-name="Path 44863" class="cls-23" d="M135.311,159.347l-.545-.727.545-.835a7.29,7.29,0,0,0,2.359.568c.725-.092,1.089,1.18-.272,1.544s-9.077,0-9.077,0-1.362-.635,0-2.359l1.18.907s2,1.089,3,.907Z" transform="translate(-37.115 -38.72)"/>
        <path id="Path_44864" data-name="Path 44864" class="cls-22" d="M138.168,160.836l-2.813.272-3.9-.914-1.18-1.169.1-.289.135-.4.132-.4,2.631-.727a1.63,1.63,0,0,0,.533.535,11.407,11.407,0,0,0,3.291,1.218.944.944,0,0,1,.112.033,1.2,1.2,0,0,1,.782.845Z" transform="translate(-37.525 -38.668)"/>
        <path id="Path_44865" data-name="Path 44865" class="cls-19" d="M138.168,161.128l-2.813.272-3.9-.914-1.18-1.169.1-.289,1.084.835s2,1.089,3,.907h2.813l-.545-.727.49-.755a1.2,1.2,0,0,1,.782.845Z" transform="translate(-37.525 -38.959)"/>
        <path id="Path_44866" data-name="Path 44866" class="cls-23" d="M137.148,160.859l-.545-.727.545-.835a7.29,7.29,0,0,0,2.359.568c.725-.092,1.089,1.18-.272,1.544s-9.077,0-9.077,0-1.362-.635,0-2.359l1.18.907s2,1.089,3,.907Z" transform="translate(-37.409 -38.963)"/>
        <path id="Path_44867" data-name="Path 44867" class="cls-22" d="M135.062,97.594s-4.357.454-3.721-1.362a3.268,3.268,0,0,0,.134-1.6,4.442,4.442,0,0,0-.77-1.846l4.085.635a5.115,5.115,0,0,0-.553,1.312A2.673,2.673,0,0,0,135.062,97.594Z" transform="translate(-37.594 -28.34)"/>
        <path id="Path_44868" data-name="Path 44868" class="cls-23" d="M127.032,123.16s.09,3.9,1,5.809l.182,5.537s-.272,5.082-.817,6.081,1.18,9.439,1.18,9.439v1.452s2.9,1.086,3.722-.184l-.817-10.8.363-14.976Z" transform="translate(-37.005 -33.209)"/>
        <path id="Path_44869" data-name="Path 44869" class="cls-19" d="M127.032,123.16s.09,3.9,1,5.809l.182,5.537s-.272,5.082-.817,6.081,1.18,9.439,1.18,9.439v1.452s2.9,1.086,3.722-.184l-.817-10.8.363-14.976Z" transform="translate(-37.005 -33.209)"/>
        <path id="Path_44870" data-name="Path 44870" class="cls-24" d="M124.675,108.238l-.545,1.452-.454,3.086a2.73,2.73,0,0,0,.817,2.359,25.953,25.953,0,0,1,2.541,3.358l1.724-5.179s-1.724-.272-1.452-1.452a16.884,16.884,0,0,0,.182-3.358Z" transform="translate(-36.463 -30.817)"/>
        <path id="Path_44871" data-name="Path 44871" class="cls-12" d="M124.675,108.039l-.545,1.452-.454,3.086a2.73,2.73,0,0,0,.817,2.359,25.953,25.953,0,0,1,2.541,3.358l1.724-5.179s-1.724-.272-1.452-1.452a16.884,16.884,0,0,0,.182-3.358Z" transform="translate(-36.463 -30.785)"/>
        <path id="Path_44872" data-name="Path 44872" class="cls-19" d="M133.848,157.74a2.257,2.257,0,0,1-3.3.586l.132-.4,2.631-.727A1.63,1.63,0,0,0,133.848,157.74Z" transform="translate(-37.569 -38.667)"/>
        <path id="Path_44873" data-name="Path 44873" class="cls-23" d="M136.874,125.449a48.372,48.372,0,0,1-1.634,5.9l-1.088,3.809a30.309,30.309,0,0,0-1.2,8.287,8.058,8.058,0,0,1-.348,2.608c-.727,2,.727,4.72.727,4.72-1.271,2.269-3.448.727-3.448.727v-1.452s-1.724-7.9-1.271-9.44a37.836,37.836,0,0,0,.635-5.719v-7.533a8.549,8.549,0,0,1-2.491-5.42c-.022-.3-.038-.61-.05-.934-.074-2.048,1.327-4.449,1.873-5.3.132-.207.214-.322.214-.322l8.019,3.174h.018v1Z" transform="translate(-36.953 -31.961)"/>
        <path id="Path_44874" data-name="Path 44874" class="cls-19" d="M134.792,93.419a5.116,5.116,0,0,0-.553,1.312,3.552,3.552,0,0,1-2.762-.1,4.442,4.442,0,0,0-.77-1.846Z" transform="translate(-37.594 -28.34)"/>
        <circle id="Ellipse_1331" data-name="Ellipse 1331" class="cls-22" cx="3.54" cy="3.54" r="3.54" transform="translate(91.841 59.36)"/>
        <path id="Path_44875" data-name="Path 44875" class="cls-19" d="M137.169,119.55h-.038c-3.806.782-8.584-3.184-8.584-3.184a4.7,4.7,0,0,0,.334-.668c.132-.207.214-.322.214-.322l8.019,3.174.02.317Z" transform="translate(-37.248 -31.961)"/>
        <path id="Path_44876" data-name="Path 44876" class="cls-24" d="M135.477,98s-5.082-3.086-6.716-1.816l-2.269,2.9s-1.452.454-1.18,3.358l-1.089,5.264,3.268.817a3.574,3.574,0,0,1,.363,4.447s4.81,3.993,8.623,3.174l-.281-4.262a5.526,5.526,0,0,1,.635-4.538,3.547,3.547,0,0,0-1.271-5.082C135.568,102.265,134.932,98.815,135.477,98Z" transform="translate(-36.555 -28.835)"/>
        <path id="Path_44877" data-name="Path 44877" class="cls-22" d="M137.771,120.454a4.681,4.681,0,0,1,2.813,1.816,5.657,5.657,0,0,0,.951,1.186.72.72,0,0,1-.112,1.148c-.72.433-1.895.7-3.378-.52C135.5,122,137.771,120.454,137.771,120.454Z" transform="translate(-38.577 -32.776)"/>
        <path id="Path_44878" data-name="Path 44878" class="cls-19" d="M133.922,100.445s-1.816-.182-2.269,4.538-1.18,5.809-1.18,5.809-.454,2.451.635,3.9,3.174,4.538,3.174,4.538a2.1,2.1,0,0,0,2.723-1.634l-2.813-5.264a3.776,3.776,0,0,1,.635-3.086C135.917,107.978,136.736,99.536,133.922,100.445Z" transform="translate(-37.542 -29.557)"/>
        <path id="Path_44879" data-name="Path 44879" class="cls-24" d="M134.139,100.121s-1.816-.182-2.269,4.538-1.18,5.809-1.18,5.809-.454,2.451.635,3.9,3.174,4.538,3.174,4.538a2.1,2.1,0,0,0,2.723-1.634l-2.813-5.264a3.768,3.768,0,0,1,.635-3.079C136.132,107.666,136.953,99.212,134.139,100.121Z" transform="translate(-37.577 -29.505)"/>
        <path id="Path_44880" data-name="Path 44880" class="cls-19" d="M136.36,104.187a10.293,10.293,0,0,1-.635,4.357,4.658,4.658,0,0,0,0,4.63" transform="translate(-38.301 -30.168)"/>
        <path id="Path_44881" data-name="Path 44881" class="cls-19" d="M136.031,99.785a4.378,4.378,0,0,0-2.813-.817,6.011,6.011,0,0,1-3-.727" transform="translate(-37.517 -29.215)"/>
        <path id="Path_44882" data-name="Path 44882" class="cls-19" d="M130.035,85.478c-.551.068-1.181.257-1.38.775a5.462,5.462,0,0,0-.125.6c-.206.794-1.1,1.17-1.649,1.768a4.223,4.223,0,0,0-.859,1.965,18.458,18.458,0,0,0-.319,6.167c.177,1.5.54,2.987.64,4.5a7.125,7.125,0,0,1-.911,4.372,10.882,10.882,0,0,0-1.076,1.627,3.107,3.107,0,0,0,1.91.5q1.169.04,2.339,0a2.5,2.5,0,0,0,1.191-.247,1.838,1.838,0,0,0,.625-.668,4.794,4.794,0,0,0,.54-2.548c-.02-.877-.159-1.753-.167-2.633a2.3,2.3,0,0,1,.3-1.38,4.412,4.412,0,0,1,.76-.7,4.807,4.807,0,0,0,1.337-3.54c.032-1.3-.182-2.6-.072-3.891.043-.5.232-1.114.73-1.213a2.809,2.809,0,0,0,.474-.06c.4-.154.361-.717.474-1.129.129-.463.523-.82.635-1.288.261-1.1-1.136-2.409-2.052-2.792A7.407,7.407,0,0,0,130.035,85.478Z" transform="translate(-36.576 -27.152)"/>
        <path id="Path_44883" data-name="Path 44883" class="cls-25" d="M129.935,85.261c-.551.068-1.181.257-1.38.775a5.469,5.469,0,0,0-.125.6c-.206.794-1.1,1.17-1.649,1.768a4.222,4.222,0,0,0-.859,1.965,18.458,18.458,0,0,0-.319,6.167c.177,1.5.54,2.987.64,4.5a7.125,7.125,0,0,1-.911,4.372,10.882,10.882,0,0,0-1.076,1.627,3.107,3.107,0,0,0,1.91.5q1.17.04,2.339,0a2.5,2.5,0,0,0,1.191-.247,1.838,1.838,0,0,0,.625-.668,4.794,4.794,0,0,0,.54-2.548c-.02-.877-.159-1.753-.167-2.633a2.3,2.3,0,0,1,.3-1.38,4.412,4.412,0,0,1,.76-.7,4.807,4.807,0,0,0,1.337-3.54c.032-1.3-.182-2.6-.072-3.891.043-.5.232-1.114.73-1.213a2.809,2.809,0,0,0,.474-.06c.4-.154.361-.717.475-1.129.129-.463.523-.82.635-1.288.261-1.1-1.136-2.409-2.052-2.792A7.393,7.393,0,0,0,129.935,85.261Z" transform="translate(-36.56 -27.117)"/>
      </g>
    </g>
  </g>
</svg>
