<svg xmlns="http://www.w3.org/2000/svg" xmlns:xlink="http://www.w3.org/1999/xlink" viewBox="0 0 262 147">
  <defs>
    <style>
      .cls-1 {
        fill: #e3f2fd;
      }

      .cls-2 {
        clip-path: url(#clip-path);
      }

      .cls-3 {
        fill: url(#linear-gradient);
      }

      .cls-4 {
        fill: #926b5a;
      }

      .cls-5 {
        fill: url(#linear-gradient-2);
      }

      .cls-30, .cls-6 {
        fill: #fff;
      }

      .cls-7 {
        opacity: 0.2;
      }

      .cls-8 {
        fill: #248dc1;
      }

      .cls-9 {
        fill: #eee;
      }

      .cls-10 {
        fill: none;
        stroke: #000;
        stroke-miterlimit: 10;
        stroke-width: 0.172px;
      }

      .cls-10, .cls-11, .cls-13 {
        opacity: 0.1;
      }

      .cls-12 {
        fill: #c5a692;
      }

      .cls-14, .cls-15 {
        fill: #3ad29f;
      }

      .cls-15 {
        opacity: 0.25;
      }

      .cls-16 {
        fill: url(#linear-gradient-6);
      }

      .cls-17 {
        fill: url(#linear-gradient-7);
      }

      .cls-18 {
        fill: url(#linear-gradient-8);
      }

      .cls-19 {
        fill: url(#linear-gradient-9);
      }

      .cls-20 {
        fill: url(#linear-gradient-11);
      }

      .cls-21 {
        fill: url(#linear-gradient-12);
      }

      .cls-22 {
        fill: url(#linear-gradient-13);
      }

      .cls-23 {
        fill: url(#linear-gradient-14);
      }

      .cls-24 {
        fill: url(#linear-gradient-15);
      }

      .cls-25 {
        fill: url(#linear-gradient-19);
      }

      .cls-26 {
        fill: url(#linear-gradient-21);
      }

      .cls-27 {
        fill: url(#linear-gradient-22);
      }

      .cls-28 {
        fill: #fdd835;
      }

      .cls-29 {
        fill: #fdb797;
      }

      .cls-30 {
        opacity: 0.5;
      }

      .cls-31 {
        fill: #0e0d15;
      }

      .cls-32 {
        fill: #e0e0e0;
      }
    </style>
    <clipPath id="clip-path">
      <path id="Rectangle_8979" data-name="Rectangle 8979" class="cls-1" d="M2,0H218a2,2,0,0,1,2,2V123.435a0,0,0,0,1,0,0H0a0,0,0,0,1,0,0V2A2,2,0,0,1,2,0Z" transform="translate(11737 7146)"/>
    </clipPath>
    <linearGradient id="linear-gradient" x1="0.5" y1="1" x2="0.5" gradientUnits="objectBoundingBox">
      <stop offset="0" stop-color="gray" stop-opacity="0.251"/>
      <stop offset="0.54" stop-color="gray" stop-opacity="0.122"/>
      <stop offset="1" stop-color="gray" stop-opacity="0.102"/>
    </linearGradient>
    <linearGradient id="linear-gradient-2" x1="0.5" y1="1" x2="0.5" y2="0" xlink:href="#linear-gradient"/>
    <linearGradient id="linear-gradient-6" x1="0.5" y1="1" x2="0.5" y2="0" xlink:href="#linear-gradient"/>
    <linearGradient id="linear-gradient-7" x1="0.5" y1="1" x2="0.5" y2="0" xlink:href="#linear-gradient"/>
    <linearGradient id="linear-gradient-8" x1="0.5" y1="1" x2="0.5" y2="0" xlink:href="#linear-gradient"/>
    <linearGradient id="linear-gradient-9" x1="0.5" y1="0.999" x2="0.5" y2="0" xlink:href="#linear-gradient"/>
    <linearGradient id="linear-gradient-11" x1="0.5" y1="1" x2="0.5" y2="0" xlink:href="#linear-gradient"/>
    <linearGradient id="linear-gradient-12" x1="0.5" y1="1" x2="0.5" y2="-0.002" xlink:href="#linear-gradient"/>
    <linearGradient id="linear-gradient-13" x1="0.5" y1="1" x2="0.5" y2="0" xlink:href="#linear-gradient"/>
    <linearGradient id="linear-gradient-14" x1="0.5" y1="1" x2="0.5" y2="0" xlink:href="#linear-gradient"/>
    <linearGradient id="linear-gradient-15" x1="0.5" y1="1" x2="0.5" y2="0.001" xlink:href="#linear-gradient"/>
    <linearGradient id="linear-gradient-19" x1="0.5" y1="1.492" x2="0.5" y2="-0.492" xlink:href="#linear-gradient"/>
    <linearGradient id="linear-gradient-21" x1="0.5" y1="1" x2="0.5" y2="0" xlink:href="#linear-gradient"/>
    <linearGradient id="linear-gradient-22" x1="0.499" y1="1" x2="0.499" y2="0" xlink:href="#linear-gradient"/>
  </defs>
  <g id="card-15" transform="translate(-692 -1419)">
    <path id="Rectangle_8671" data-name="Rectangle 8671" class="cls-1" d="M2,0H260a2,2,0,0,1,2,2V147a0,0,0,0,1,0,0H0a0,0,0,0,1,0,0V2A2,2,0,0,1,2,0Z" transform="translate(692 1419)"/>
    <g id="Mask_Group_271" data-name="Mask Group 271" class="cls-2" transform="translate(-11024 -5715)">
      <g id="undraw_meeting_115p" transform="translate(11770.355 7146)">
        <path id="Path_45147" data-name="Path 45147" class="cls-3" d="M172.583,124.5s.431-60.89-22.245-78.011c1.243-2.49,1.824-5.713-2.619-6.787-3.539-.859-5.542.738-6.671,2.682a22.023,22.023,0,0,0-3.8-.326h-.78a18.222,18.222,0,0,0-1.889.527c-.893-1.35-3.513-4.827-6.479-4.192-2.892.62-1.219,5.638-.386,7.728a15.254,15.254,0,0,0-6.252,14.037c-.266.139-.428.22-.428.22a3.817,3.817,0,0,0-1.092,1.492h0a12.92,12.92,0,0,0-.787,5c-.012.951.048,1.618.048,1.618a5.5,5.5,0,0,0,4.98,3.665c.4.022.792.036,1.176.046l.146.276q-.058.343-.12.665c-1.355.757-6.065,3.465-6.96,5.032-1.048,1.832-8.636-6.543-8.636-6.543a4.007,4.007,0,0,0-3.926-3.4,3.789,3.789,0,0,1-3.015-1.863,3.523,3.523,0,0,0-6.328,1.151c-.017.076-.029.153-.041.228a5.981,5.981,0,0,0-1.607,1.269s-.515-7.851-4.188,0a13.051,13.051,0,0,0-1.24,5.574c-.069,4.966,3.009,9.381,9.982,8.5a6.139,6.139,0,0,0,1.728,1.631,26.6,26.6,0,0,1,6.979,6.471,35.707,35.707,0,0,0-4.755,7.077c-3.606.9-9.57,5.011-6.945,22.822,0,0-5.5.515-.515,3.665,0,0,4.592,2.919,9.488,1.494a17.145,17.145,0,0,0,4.654,2.78c-.314,1.815-.582,3.788-.8,5.935,0,0-3.79,1.76-3.486,2.845-.131.548.5.991,2.687,1.08v.064c-.039.393-.033,2.507,4.719,2.032,0,0,0,2.093,9.16,0,8.025-1.834,27.7-12.307,32.456-14.873,2.693,4.709,7.879,8.143,17.535,7.283V131.56s2.878,1.048,3.4.261,0-2.356,0-2.356,2.093.515,2.093-.261S177.821,125.539,172.583,124.5Z" transform="translate(-25.389 -18.479)"/>
        <path id="Path_45148" data-name="Path 45148" class="cls-4" d="M152.356,105.42s-6.847,28.908,18.766,26.626V130.27s2.789,1.015,3.3.254,0-2.282,0-2.282,2.028.515,2.028-.254,0-3.55-5.071-4.564c0,0,.567-79.879-34.235-79.879h-.761s-24.091,4.819-10.4,29.923c0,0-6.086,3.3-7.1,5.071s-8.368-6.34-8.368-6.34a3.9,3.9,0,0,0-3.8-3.3,3.663,3.663,0,0,1-2.919-1.8,3.412,3.412,0,0,0-6.131,1.114,3.224,3.224,0,0,0-.076.687c0,3.043,0,13.187,4.564,15.97a25.739,25.739,0,0,1,7.353,7.1l-2.789,5.839s-12.68-1.776-9.129,22.324c0,0-5.323.515-.515,3.55,0,0,5.579,3.55,10.9.761l45.773.127Z" transform="translate(-25.389 -18.479)"/>
        <rect id="Rectangle_8980" data-name="Rectangle 8980" class="cls-5" width="16.657" height="19.061" transform="translate(66.912 36.406)"/>
        <rect id="Rectangle_8981" data-name="Rectangle 8981" class="cls-6" width="15.97" height="18.375" transform="translate(67.256 36.749)"/>
        <g id="Group_37081" data-name="Group 37081" class="cls-7">
          <rect id="Rectangle_8982" data-name="Rectangle 8982" class="cls-8" width="7.899" height="0.687" transform="translate(68.458 41.042)"/>
        </g>
        <rect id="Rectangle_8983" data-name="Rectangle 8983" class="cls-9" width="13.051" height="0.687" transform="translate(68.458 43.618)"/>
        <rect id="Rectangle_8984" data-name="Rectangle 8984" class="cls-9" width="10.99" height="0.687" transform="translate(68.458 45.335)"/>
        <rect id="Rectangle_8985" data-name="Rectangle 8985" class="cls-9" width="9.617" height="0.687" transform="translate(68.458 47.052)"/>
        <rect id="Rectangle_8986" data-name="Rectangle 8986" class="cls-9" width="12.364" height="0.687" transform="translate(68.458 48.77)"/>
        <rect id="Rectangle_8987" data-name="Rectangle 8987" class="cls-9" width="5.323" height="0.687" transform="translate(68.458 50.487)"/>
        <g id="Group_37082" data-name="Group 37082" class="cls-7">
          <rect id="Rectangle_8988" data-name="Rectangle 8988" class="cls-8" width="4.121" height="0.687" transform="translate(76.701 52.204)"/>
        </g>
        <rect id="Rectangle_8989" data-name="Rectangle 8989" class="cls-8" width="15.97" height="2.919" transform="translate(67.256 36.749)"/>
        <path id="Path_45149" data-name="Path 45149" class="cls-10" d="M149.694,86.02s3.3,14.454,1.015,21.294" transform="translate(-25.389 -18.479)"/>
        <g id="Group_37083" data-name="Group 37083" class="cls-11">
          <path id="Path_45150" data-name="Path 45150" d="M137.647,63.832s13.441,5.839.761,26.373c0,0-16.23,14.454-18.005,22.061s-8.368,15.97-8.368,15.97-14.531-3.539-10.7-21.8a34.477,34.477,0,0,1,11.751-19.4A42.3,42.3,0,0,1,123.7,80.563s3.8-9.635,2.028-16.736Z" transform="translate(-25.389 -18.479)"/>
        </g>
        <path id="Path_45151" data-name="Path 45151" class="cls-12" d="M137.895,63.832s13.441,5.839.761,26.373c0,0-16.23,14.454-18.005,22.061s-8.368,15.97-8.368,15.97-14.531-3.539-10.7-21.8a34.477,34.477,0,0,1,11.751-19.4,42.3,42.3,0,0,1,10.614-6.471s3.8-9.635,2.028-16.736Z" transform="translate(-25.389 -18.479)"/>
        <path id="Path_45152" data-name="Path 45152" class="cls-4" d="M139.423,48.615s.515-9.129,7.862-7.353.515,9.635.515,9.635Z" transform="translate(-25.389 -18.479)"/>
        <path id="Path_45153" data-name="Path 45153" class="cls-12" d="M140.419,48.146s.417-7.515,6.471-6.053.417,7.932.417,7.932Z" transform="translate(-25.389 -18.479)"/>
        <path id="Path_45154" data-name="Path 45154" class="cls-4" d="M134.859,44.559s-3.043-5.323-6.593-4.564,0,8.368,0,8.368Z" transform="translate(-25.389 -18.479)"/>
        <g id="Group_37084" data-name="Group 37084" class="cls-11">
          <path id="Path_45155" data-name="Path 45155" d="M140.438,61.8s2.282,11.919-15.97,10.9a5.326,5.326,0,0,1-4.819-3.55s-.515-5.579,1.776-7.353c0,0,5.579-2.789,5.579-4.058S140.438,61.8,140.438,61.8Z" transform="translate(-25.389 -18.479)"/>
        </g>
        <path id="Path_45156" data-name="Path 45156" class="cls-4" d="M140.438,61.3s2.282,11.919-15.97,10.9a5.326,5.326,0,0,1-4.819-3.55s-.515-5.579,1.776-7.353c0,0,5.579-2.789,5.579-4.058S140.438,61.3,140.438,61.3Z" transform="translate(-25.389 -18.479)"/>
        <path id="Path_45157" data-name="Path 45157" class="cls-12" d="M120.36,62.741s4.355-.939,6.891,1.089c0,0-1.728,3.924-3.907,3.864S120.36,62.741,120.36,62.741Z" transform="translate(-25.389 -18.479)"/>
        <g id="Group_37085" data-name="Group 37085" class="cls-11">
          <path id="Path_45158" data-name="Path 45158" d="M130.04,109.732s-16.736-9.385-20.033,23.835c0,0-7.1,3.3-.761,3.55,0,0-.515,2.536,4.564,2.028,0,0,0,2.028,8.875,0s32.456-14.962,32.456-14.962Z" transform="translate(-25.389 -18.479)"/>
        </g>
        <path id="Path_45159" data-name="Path 45159" class="cls-4" d="M130.04,109.984S113.3,100.6,110.007,133.821c0,0-7.1,3.3-.761,3.55,0,0-.515,2.536,4.564,2.028,0,0,0,2.028,8.875,0s32.456-14.962,32.456-14.962l-.479-1.139a22.432,22.432,0,0,0-24.62-13.314Z" transform="translate(-25.389 -18.479)"/>
        <g id="Group_37086" data-name="Group 37086" class="cls-11">
          <path id="Path_45160" data-name="Path 45160" d="M96.059,69.663s-.515-7.607-4.058,0,.515,18.258,15.469,11.162c0,0-.761-5.579-1.776-6.086s0-4.058-1.776-4.564-3.289,2.531-3.289,2.531,0-4.31-1.521-4.564S96.059,69.663,96.059,69.663Z" transform="translate(-25.389 -18.479)"/>
        </g>
        <path id="Path_45161" data-name="Path 45161" class="cls-4" d="M96.059,69.918s-.515-7.607-4.058,0,.515,18.258,15.469,11.162c0,0-.761-5.579-1.776-6.086s0-4.058-1.776-4.564-3.289,2.531-3.289,2.531,0-4.31-1.521-4.564S96.059,69.918,96.059,69.918Z" transform="translate(-25.389 -18.479)"/>
        <path id="Path_45162" data-name="Path 45162" class="cls-10" d="M123.827,80.441s9.89-2.028,14.708,9.635" transform="translate(-25.389 -18.479)"/>
        <rect id="Rectangle_8990" data-name="Rectangle 8990" class="cls-13" width="15.97" height="18.375" transform="translate(47.164 2.748)"/>
        <rect id="Rectangle_8991" data-name="Rectangle 8991" class="cls-5" width="16.657" height="19.061" transform="translate(45.103)"/>
        <rect id="Rectangle_8992" data-name="Rectangle 8992" class="cls-6" width="15.97" height="18.375" transform="translate(45.447 0.343)"/>
        <rect id="Rectangle_8993" data-name="Rectangle 8993" class="cls-14" width="2.404" height="2.576" transform="translate(46.992 2.576)"/>
        <rect id="Rectangle_8994" data-name="Rectangle 8994" class="cls-9" width="7.899" height="0.687" transform="translate(51.285 3.434)"/>
        <rect id="Rectangle_8995" data-name="Rectangle 8995" class="cls-9" width="7.899" height="0.687" transform="translate(49.397 7.384)"/>
        <rect id="Rectangle_8996" data-name="Rectangle 8996" class="cls-9" width="7.899" height="0.687" transform="translate(49.397 8.93)"/>
        <rect id="Rectangle_8997" data-name="Rectangle 8997" class="cls-9" width="7.899" height="0.687" transform="translate(49.397 10.475)"/>
        <rect id="Rectangle_8998" data-name="Rectangle 8998" class="cls-9" width="7.899" height="0.687" transform="translate(49.397 12.021)"/>
        <rect id="Rectangle_8999" data-name="Rectangle 8999" class="cls-9" width="7.899" height="0.687" transform="translate(49.397 13.566)"/>
        <rect id="Rectangle_9000" data-name="Rectangle 9000" class="cls-9" width="7.899" height="0.687" transform="translate(49.397 15.112)"/>
        <rect id="Rectangle_9001" data-name="Rectangle 9001" class="cls-13" width="15.97" height="18.375" transform="translate(3.89 3.263)"/>
        <rect id="Rectangle_9002" data-name="Rectangle 9002" class="cls-5" width="16.657" height="19.061" transform="translate(1.829 0.343)"/>
        <rect id="Rectangle_9003" data-name="Rectangle 9003" class="cls-6" width="15.97" height="18.375" transform="translate(2.172 0.687)"/>
        <rect id="Rectangle_9004" data-name="Rectangle 9004" class="cls-9" width="7.899" height="0.687" transform="translate(8.354 4.98)"/>
        <rect id="Rectangle_9005" data-name="Rectangle 9005" class="cls-9" width="7.899" height="0.687" transform="translate(8.354 9.617)"/>
        <rect id="Rectangle_9006" data-name="Rectangle 9006" class="cls-9" width="7.899" height="0.687" transform="translate(8.354 14.253)"/>
        <rect id="Rectangle_9007" data-name="Rectangle 9007" class="cls-8" width="2.748" height="2.748" transform="translate(3.89 4.036)"/>
        <rect id="Rectangle_9008" data-name="Rectangle 9008" class="cls-8" width="2.748" height="2.748" transform="translate(3.89 8.5)"/>
        <rect id="Rectangle_9009" data-name="Rectangle 9009" class="cls-8" width="2.748" height="2.748" transform="translate(3.89 12.965)"/>
        <rect id="Rectangle_9010" data-name="Rectangle 9010" class="cls-13" width="15.97" height="18.375" transform="translate(137.319 3.434)"/>
        <rect id="Rectangle_9011" data-name="Rectangle 9011" class="cls-5" width="16.657" height="19.061" transform="translate(134.4 0.515)"/>
        <rect id="Rectangle_9012" data-name="Rectangle 9012" class="cls-6" width="15.97" height="18.375" transform="translate(134.744 0.859)"/>
        <rect id="Rectangle_9013" data-name="Rectangle 9013" class="cls-8" width="7.899" height="0.687" transform="translate(139.208 3.95)"/>
        <rect id="Rectangle_9014" data-name="Rectangle 9014" class="cls-9" width="7.899" height="0.687" transform="translate(139.208 13.91)"/>
        <rect id="Rectangle_9015" data-name="Rectangle 9015" class="cls-9" width="7.899" height="0.687" transform="translate(139.208 15.455)"/>
        <rect id="Rectangle_9016" data-name="Rectangle 9016" class="cls-9" width="5.839" height="0.687" transform="translate(143.501 7.212)"/>
        <rect id="Rectangle_9017" data-name="Rectangle 9017" class="cls-9" width="5.839" height="0.687" transform="translate(143.501 8.758)"/>
        <rect id="Rectangle_9018" data-name="Rectangle 9018" class="cls-9" width="5.839" height="0.687" transform="translate(143.501 10.303)"/>
        <path id="Path_45163" data-name="Path 45163" class="cls-14" d="M163.911,25.348a2.4,2.4,0,1,0,2.4,2.4h-2.4Z" transform="translate(-25.389 -18.479)"/>
        <path id="Path_45164" data-name="Path 45164" class="cls-15" d="M164.254,24.833v2.4h2.4a2.4,2.4,0,0,0-2.4-2.4Z" transform="translate(-25.389 -18.479)"/>
        <path id="Path_45165" data-name="Path 45165" class="cls-16" d="M29.9,70.682l4.309,8.437s9.514,2.512,13.283.539c0,0,1.257-15.258,0-15.8S29,65.116,29.9,70.682Z" transform="translate(-25.389 -18.479)"/>
        <path id="Path_45166" data-name="Path 45166" class="cls-17" d="M50.144,108.815l-3.263.55L42.957,86.1l.141-.024a3.156,3.156,0,0,1,3.637,2.586Z" transform="translate(-25.389 -18.479)"/>
        <path id="Path_45167" data-name="Path 45167" class="cls-18" d="M54.952,122.177v11.27a5.335,5.335,0,0,1-5.323,5.335H31.6a5.335,5.335,0,0,1-5.341-5.335v-11.27a5.323,5.323,0,0,1,5.341-5.334H49.628a5.323,5.323,0,0,1,5.323,5.334Z" transform="translate(-25.389 -18.479)"/>
        <path id="Path_45168" data-name="Path 45168" class="cls-19" d="M54.636,120.343c-10.552,5.323-28.056,0-28.056,0a5.339,5.339,0,0,1,5.018-3.5H49.628a5.339,5.339,0,0,1,5.007,3.5Z" transform="translate(-25.389 -18.479)"/>
        <path id="Path_45169" data-name="Path 45169" class="cls-5" d="M47.537,107.439H27.742V88.112a8.385,8.385,0,0,1,8.385-8.385h5.334c4.637,0,6.076,3.754,6.076,8.385Z" transform="translate(-25.389 -18.479)"/>
        <path id="Path_45170" data-name="Path 45170" class="cls-20" d="M53.406,107.439H27.742c0,4.281,3.471,9.4,7.753,9.4H51.826L40.608,135.491h0c9.567,0,.172.824,9.567,0l10.243-17.277a5.78,5.78,0,0,0,.809-2.949h0a7.819,7.819,0,0,0-7.82-7.825Z" transform="translate(-25.389 -18.479)"/>
        <path id="Path_45171" data-name="Path 45171" class="cls-21" d="M57.435,140.266H40.606v-4.776H52.855a4.576,4.576,0,0,1,4.576,4.576Z" transform="translate(-25.389 -18.479)"/>
        <path id="Path_45172" data-name="Path 45172" class="cls-22" d="M37.608,82.7H35.992V71.808H41.6V78.7A3.993,3.993,0,0,1,37.608,82.7Z" transform="translate(-25.389 -18.479)"/>
        <path id="Path_45173" data-name="Path 45173" class="cls-23" d="M10.183,61.266l5.861,3.941-3.8.824-3.464-.495Z"/>
        <g id="Group_37087" data-name="Group 37087" class="cls-11">
          <path id="Path_45174" data-name="Path 45174" class="cls-24" d="M35.99,77.295a8.906,8.906,0,0,0,5.609,0v-5H35.99Z" transform="translate(-25.389 -18.479)"/>
        </g>
        <circle id="Ellipse_1383" data-name="Ellipse 1383" class="cls-5" cx="8.907" cy="8.907" r="8.907" transform="translate(4.497 40.958)"/>
        <g id="Group_37088" data-name="Group 37088" class="cls-11">
          <path id="Path_45175" data-name="Path 45175" class="cls-5" d="M39.234,66.373s5.566,2.334,10.59,0c0,0-2.153-10.412-10.771-9.335S19.487,70.86,29.181,77.862l8.427,6.421-1.425-4.808S29,72.657,39.234,66.373Z" transform="translate(-25.389 -18.479)"/>
        </g>
        <path id="Path_45176" data-name="Path 45176" class="cls-5" d="M39.234,66.014s5.566,2.334,10.59,0c0,0-2.153-10.412-10.771-9.335S19.487,70.5,29.181,77.5l8.427,6.421-1.425-4.808S29,72.3,39.234,66.014Z" transform="translate(-25.389 -18.479)"/>
        <ellipse id="Ellipse_1384" data-name="Ellipse 1384" class="cls-25" cx="1.886" cy="0.898" rx="1.886" ry="0.898" transform="translate(6.747 54.066) rotate(-68.23)"/>
        <path id="Path_45177" data-name="Path 45177" class="cls-5" d="M24.435,72.667,25.776,88.96l9.429-3.728-1.436-15.8Z"/>
        <path id="Path_45178" data-name="Path 45178" class="cls-26" d="M30.138,88.891c1.154,3.134,6.577,14.94,22.458,13.783a.194.194,0,0,0,.172-.232l-.615-2.919s-9.316-.282-13.063-7.113a13.125,13.125,0,0,0-4.1-4.6c-1.576-1.068-3.347-1.819-4.413-.859a1.783,1.783,0,0,0-.434,1.942Z" transform="translate(-25.389 -18.479)"/>
        <path id="Path_45179" data-name="Path 45179" class="cls-27" d="M52.156,99.521s3.793-3.793,4.949-1.65-3.134,4.121-4.455,4.784l-1.477-1.649Z" transform="translate(-25.389 -18.479)"/>
        <path id="Path_45180" data-name="Path 45180" class="cls-28" d="M30.481,71.886,34.6,79.957s9.1,2.4,12.708.515c0,0,1.2-14.6,0-15.112S29.622,66.562,30.481,71.886Z" transform="translate(-25.389 -18.479)"/>
        <path id="Path_45181" data-name="Path 45181" class="cls-29" d="M45.021,86.606h0a3.17,3.17,0,0,1,3.17,3.17v19.492h-3.17Z" transform="translate(-40.975 -9.392) rotate(-9.744)"/>
        <path id="Path_45182" data-name="Path 45182" class="cls-14" d="M54.454,121.148v10.781a5.1,5.1,0,0,1-5.1,5.107H32.1a5.1,5.1,0,0,1-5.1-5.1V121.148a5.1,5.1,0,0,1,5.1-5.1H49.352a5.1,5.1,0,0,1,5.1,5.1Z" transform="translate(-25.389 -18.479)"/>
        <path id="Path_45183" data-name="Path 45183" class="cls-30" d="M54.145,119.393c-10.094,5.085-26.839,0-26.839,0a5.109,5.109,0,0,1,4.795-3.349H49.352A5.109,5.109,0,0,1,54.145,119.393Z" transform="translate(-25.389 -18.479)"/>
        <path id="Path_45184" data-name="Path 45184" class="cls-8" d="M47.353,107.05H28.417V88.56a8.021,8.021,0,0,1,8.021-8.021h5.1c4.43,0,5.813,3.591,5.813,8.021Z" transform="translate(-25.389 -18.479)"/>
        <path id="Path_45185" data-name="Path 45185" class="cls-31" d="M52.972,107.05H28.415c0,4.1,3.321,8.995,7.417,8.995H51.459L40.726,133.876h0c9.153,0,.158.788,9.153,0l9.8-16.528a5.53,5.53,0,0,0,.773-2.82h0A7.479,7.479,0,0,0,52.972,107.05Z" transform="translate(-25.389 -18.479)"/>
        <path id="Path_45186" data-name="Path 45186" class="cls-31" d="M15.335,115.4H26.854a4.576,4.576,0,0,1,4.571,4.575H15.335Z"/>
        <path id="Path_45187" data-name="Path 45187" class="cls-29" d="M11.174,54.742H16.54v6.422a3.993,3.993,0,0,1-3.993,3.993H11.174Z"/>
        <path id="Path_45188" data-name="Path 45188" class="cls-8" d="M10.518,62.077l5.607,3.769-3.63.79-3.313-.474Z"/>
        <path id="Path_45189" data-name="Path 45189" class="cls-13" d="M36.308,78.21a8.519,8.519,0,0,0,5.365,0V73.436H36.308Z" transform="translate(-25.389 -18.479)"/>
        <circle id="Ellipse_1385" data-name="Ellipse 1385" class="cls-29" cx="8.521" cy="8.521" r="8.521" transform="translate(5.337 42.907)"/>
        <path id="Path_45190" data-name="Path 45190" class="cls-13" d="M39.411,67.764s5.323,2.232,10.132,0c0,0-2.061-9.96-10.3-8.93s-18.718,13.223-9.445,19.92L37.855,84.9l-1.363-4.6S29.622,73.775,39.411,67.764Z" transform="translate(-25.389 -18.479)"/>
        <path id="Path_45191" data-name="Path 45191" class="cls-28" d="M39.411,67.421s5.323,2.232,10.132,0c0,0-2.061-9.96-10.3-8.93s-18.718,13.223-9.445,19.92l8.061,6.141-1.363-4.6S29.622,73.431,39.411,67.421Z" transform="translate(-25.389 -18.479)"/>
        <ellipse id="Ellipse_1386" data-name="Ellipse 1386" class="cls-29" cx="1.803" cy="0.859" rx="1.803" ry="0.859" transform="translate(7.489 55.446) rotate(-68.23)"/>
        <path id="Path_45192" data-name="Path 45192" class="cls-32" d="M24.153,72.983,25.436,88.57,34.456,85,33.083,69.892Z"/>
        <path id="Path_45193" data-name="Path 45193" class="cls-29" d="M30.967,89.563c1.1,3,6.3,14.3,21.483,13.183a.185.185,0,0,0,.172-.222l-.589-2.792s-8.911-.27-12.5-6.805a12.555,12.555,0,0,0-3.926-4.4c-1.509-1.022-3.2-1.74-4.221-.814A1.705,1.705,0,0,0,30.967,89.563Z" transform="translate(-25.389 -18.479)"/>
        <path id="Path_45194" data-name="Path 45194" class="cls-29" d="M51.771,99.475s3.63-3.63,4.734-1.578-3,3.95-4.26,4.576l-1.415-1.578Z" transform="translate(-25.389 -18.479)"/>
      </g>
    </g>
  </g>
</svg>
