<svg xmlns="http://www.w3.org/2000/svg" xmlns:xlink="http://www.w3.org/1999/xlink" viewBox="0 0 262 147">
  <defs>
    <style>
      .cls-1 {
        fill: #e1f5fe;
      }

      .cls-2 {
        fill: #f1fafe;
      }

      .cls-3 {
        fill: #e3f2fd;
      }

      .cls-4 {
        opacity: 0.82;
        clip-path: url(#clip-path);
      }

      .cls-5 {
        fill: rgba(255,255,255,0.8);
      }

      .cls-6 {
        fill: #ccc;
      }

      .cls-14, .cls-28, .cls-7, .cls-9 {
        fill: #fff;
      }

      .cls-7 {
        opacity: 0.9;
      }

      .cls-8 {
        fill: #474059;
      }

      .cls-10 {
        fill: #c0bccf;
      }

      .cls-11, .cls-28 {
        opacity: 0.1;
      }

      .cls-12 {
        fill: #4285f4;
      }

      .cls-13, .cls-31 {
        fill: none;
        stroke-miterlimit: 10;
      }

      .cls-13 {
        stroke: #535461;
        stroke-width: 0.374px;
      }

      .cls-14, .cls-33 {
        opacity: 0.5;
      }

      .cls-15 {
        fill: #e8eaf1;
      }

      .cls-16 {
        fill: url(#linear-gradient);
      }

      .cls-17 {
        fill: #b96b6b;
      }

      .cls-18 {
        fill: #ffb9b9;
      }

      .cls-19 {
        fill: #fec5d9;
      }

      .cls-20 {
        fill: #747b9c;
      }

      .cls-21 {
        fill: url(#linear-gradient-2);
      }

      .cls-22 {
        fill: #d6e6f9;
      }

      .cls-23 {
        fill: #5f546f;
      }

      .cls-24 {
        fill: #ffced8;
      }

      .cls-25 {
        fill: #bc8387;
      }

      .cls-26 {
        fill: #ae767a;
      }

      .cls-27 {
        fill: #cb919b;
      }

      .cls-29 {
        fill: #5a5773;
      }

      .cls-30 {
        opacity: 0.2;
      }

      .cls-31 {
        stroke: #4285f4;
        stroke-width: 0.187px;
      }

      .cls-32 {
        clip-path: url(#clip-path-2);
      }

      .cls-34 {
        fill: url(#linear-gradient-3);
      }

      .cls-35 {
        fill: #f5f5f5;
      }

      .cls-36 {
        fill: #333;
      }

      .cls-37 {
        fill: #248dc1;
      }

      .cls-38 {
        fill: #fda57d;
      }

      .cls-39 {
        fill: url(#linear-gradient-4);
      }

      .cls-40 {
        fill: #72351c;
      }

      .cls-41 {
        fill: #be7c5e;
      }

      .cls-42 {
        fill: url(#linear-gradient-6);
      }

      .cls-43 {
        fill: #e6e6e6;
      }

      .cls-44 {
        fill: url(#linear-gradient-8);
      }

      .cls-45 {
        fill: #535461;
      }

      .cls-46 {
        fill: #edeef9;
      }

      .cls-47 {
        fill: #4d8af0;
      }
    </style>
    <clipPath id="clip-path">
      <path id="Rectangle_8672" data-name="Rectangle 8672" class="cls-1" d="M2,0H218a2,2,0,0,1,2,2V123.435a0,0,0,0,1,0,0H0a0,0,0,0,1,0,0V2A2,2,0,0,1,2,0Z" transform="translate(14546 6182)"/>
    </clipPath>
    <linearGradient id="linear-gradient" x1="0.499" y1="1" x2="0.499" y2="-0.001" gradientUnits="objectBoundingBox">
      <stop offset="0" stop-color="gray" stop-opacity="0.251"/>
      <stop offset="0.54" stop-color="gray" stop-opacity="0.122"/>
      <stop offset="1" stop-color="gray" stop-opacity="0.102"/>
    </linearGradient>
    <linearGradient id="linear-gradient-2" x1="0.5" y1="1" x2="0.5" y2="0" xlink:href="#linear-gradient"/>
    <clipPath id="clip-path-2">
      <path id="Rectangle_8901" data-name="Rectangle 8901" class="cls-2" d="M2,0H218a2,2,0,0,1,2,2V123.435a0,0,0,0,1,0,0H0a0,0,0,0,1,0,0V2A2,2,0,0,1,2,0Z" transform="translate(14546 6182)"/>
    </clipPath>
    <linearGradient id="linear-gradient-3" x1="0.5" y1="1" x2="0.5" y2="0" xlink:href="#linear-gradient"/>
    <linearGradient id="linear-gradient-4" x1="0.5" y1="1" x2="0.5" y2="0" xlink:href="#linear-gradient"/>
    <linearGradient id="linear-gradient-6" x1="0.5" y1="1" x2="0.5" y2="0" xlink:href="#linear-gradient"/>
    <linearGradient id="linear-gradient-8" x1="0.5" y1="1" x2="0.5" y2="0" xlink:href="#linear-gradient"/>
  </defs>
  <g id="card-3" transform="translate(-692 -501)">
    <g id="Group_37691" data-name="Group 37691">
      <path id="Rectangle_4205" data-name="Rectangle 4205" class="cls-3" d="M2,0H260a2,2,0,0,1,2,2V147a0,0,0,0,1,0,0H0a0,0,0,0,1,0,0V2A2,2,0,0,1,2,0Z" transform="translate(692 501)"/>
      <g id="Mask_Group_259" data-name="Mask Group 259" class="cls-4" transform="translate(-13833 -5667)">
        <g id="undraw_connecting_teams3_1pgn" transform="translate(14588.609 6182)">
          <path id="Path_44160" data-name="Path 44160" class="cls-5" d="M173.74,82.639c-6.149,8.437-4.12,20.48-.565,30.075,1.19,3.212,2.543,6.609,1.926,10.1-.754,4.272-4.3,7.473-7.98,9.216a21.147,21.147,0,0,1-20.652-1.333c-5.183-3.455-8.831-9.2-14.115-12.488-8.842-5.5-20.322-3.045-30.163,1.158-6.962,2.973-14.589,6.8-21.374,4.057-4.775-1.932-7.99-6.849-9.681-12.106-.817-2.538-1.388-5.293-3.016-7.28a11.132,11.132,0,0,0-3.561-2.692c-12-6.282-27.43-2.356-39.062-9.365-7.853-4.734-12.741-13.92-14.771-23.578S9.2,48.554,10.006,38.534c.575-7.121,1.484-14.73,5.766-20.326,4.528-5.918,12.117-8.271,18.9-7.342s12.869,4.7,18.194,9.194c6.655,5.615,12.781,12.662,21.063,14.792,5.64,1.451,11.632.424,17.495-.03,9.8-.757,19.566.115,29.272,1.1,9.292.942,18.648,1.995,27.447,5.084,6.227,2.186,11.164,6.318,17.027,9.142,3.821,1.841,8.026,2.268,11.622,4.646,4.438,2.929,8.45,8.118,7.148,14.346C182.714,75.056,177,78.161,173.74,82.639Z" transform="translate(-30.326 -10.669)"/>
          <ellipse id="Ellipse_1231" data-name="Ellipse 1231" class="cls-6" cx="0.443" cy="0.831" rx="0.443" ry="0.831" transform="translate(5.688 61.184)"/>
          <g id="undraw_social_networking_nqk4" transform="translate(257.915)">
            <path id="Path_43894" data-name="Path 43894" class="cls-7" d="M173.74,82.639c-6.149,8.437-4.12,20.48-.565,30.075,1.19,3.212,2.543,6.609,1.926,10.1-.754,4.272-4.3,7.473-7.98,9.216a21.147,21.147,0,0,1-20.652-1.333c-5.183-3.455-8.831-9.2-14.115-12.488-8.842-5.5-20.322-3.045-30.163,1.158-6.962,2.973-14.589,6.8-21.374,4.057-4.775-1.932-7.99-6.849-9.681-12.106-.817-2.538-1.388-5.293-3.016-7.28a11.132,11.132,0,0,0-3.561-2.692c-12-6.282-27.43-2.356-39.062-9.365-7.853-4.734-12.741-13.92-14.771-23.578S9.2,48.554,10.006,38.534c.575-7.121,1.484-14.73,5.766-20.326,4.528-5.918,12.117-8.271,18.9-7.342s12.869,4.7,18.194,9.194c6.655,5.615,12.781,12.662,21.063,14.792,5.64,1.451,11.632.424,17.495-.03,9.8-.757,19.566.115,29.272,1.1,9.292.942,18.648,1.995,27.447,5.084,6.227,2.186,11.164,6.318,17.027,9.142,3.821,1.841,8.026,2.268,11.622,4.646,4.438,2.929,8.45,8.118,7.148,14.346C182.714,75.056,177,78.161,173.74,82.639Z" transform="translate(-7.241 -10.669)"/>
            <rect id="Rectangle_8570" data-name="Rectangle 8570" class="cls-8" width="32.269" height="21.68" rx="1.797" transform="translate(59.794 24.959)"/>
            <rect id="Rectangle_8571" data-name="Rectangle 8571" class="cls-9" width="30.843" height="17.711" transform="translate(60.473 27.491)"/>
            <ellipse id="Ellipse_1183" data-name="Ellipse 1183" class="cls-9" cx="0.272" cy="0.294" rx="0.272" ry="0.294" transform="translate(75.623 26.282)"/>
            <rect id="Rectangle_8572" data-name="Rectangle 8572" class="cls-8" width="5.654" height="5.968" transform="translate(73.017 45.854)"/>
            <path id="Path_43895" data-name="Path 43895" class="cls-8" d="M86.2,61.153h6.911a.942.942,0,0,1,.942.942h-8.8a.942.942,0,0,1,.942-.942Z" transform="translate(-13.658 -9.802)"/>
            <rect id="Rectangle_8573" data-name="Rectangle 8573" class="cls-10" width="23.245" height="8.01" transform="translate(36.58 56.377)"/>
            <rect id="Rectangle_8574" data-name="Rectangle 8574" class="cls-10" width="5.026" height="43.662" transform="translate(131.443 52.451)"/>
            <rect id="Rectangle_8575" data-name="Rectangle 8575" class="cls-11" width="23.245" height="0.471" transform="translate(36.58 56.377)"/>
            <rect id="Rectangle_8576" data-name="Rectangle 8576" class="cls-11" width="5.026" height="4.398" transform="translate(131.443 52.451)"/>
            <rect id="Rectangle_8577" data-name="Rectangle 8577" class="cls-10" width="23.245" height="8.01" transform="translate(36.58 64.073)"/>
            <circle id="Ellipse_1184" data-name="Ellipse 1184" class="cls-12" cx="1.414" cy="1.414" r="1.414" transform="translate(46.788 66.586)"/>
            <circle id="Ellipse_1185" data-name="Ellipse 1185" class="cls-12" cx="1.414" cy="1.414" r="1.414" transform="translate(46.788 58.89)"/>
            <rect id="Rectangle_8578" data-name="Rectangle 8578" class="cls-10" width="23.245" height="8.01" transform="translate(36.58 72.083)"/>
            <circle id="Ellipse_1186" data-name="Ellipse 1186" class="cls-12" cx="1.414" cy="1.414" r="1.414" transform="translate(46.788 74.439)"/>
            <rect id="Rectangle_8579" data-name="Rectangle 8579" class="cls-10" width="23.245" height="8.01" transform="translate(36.58 80.093)"/>
            <circle id="Ellipse_1187" data-name="Ellipse 1187" class="cls-12" cx="1.414" cy="1.414" r="1.414" transform="translate(46.788 82.449)"/>
            <rect id="Rectangle_8580" data-name="Rectangle 8580" class="cls-10" width="23.245" height="8.01" transform="translate(36.58 88.103)"/>
            <circle id="Ellipse_1188" data-name="Ellipse 1188" class="cls-12" cx="1.414" cy="1.414" r="1.414" transform="translate(46.788 90.459)"/>
            <rect id="Rectangle_8581" data-name="Rectangle 8581" class="cls-11" width="23.245" height="0.628" transform="translate(36.58 71.612)"/>
            <rect id="Rectangle_8582" data-name="Rectangle 8582" class="cls-11" width="23.245" height="0.628" transform="translate(36.58 63.759)"/>
            <rect id="Rectangle_8583" data-name="Rectangle 8583" class="cls-11" width="23.245" height="0.628" transform="translate(36.58 79.622)"/>
            <rect id="Rectangle_8584" data-name="Rectangle 8584" class="cls-11" width="23.245" height="0.628" transform="translate(36.58 87.632)"/>
            <path id="Path_43896" data-name="Path 43896" class="cls-13" d="M32.262,109.778s-.518-15.354-8.825-24.03A23.274,23.274,0,0,1,17.054,72.48a39.149,39.149,0,0,1-.195-7.157" transform="translate(-8.44 -19.43)"/>
            <path id="Path_43897" data-name="Path 43897" class="cls-12" d="M10.646,57.958c.569,1.715,5.321,5.654,5.321,5.654s1.456-6,.887-7.715a3.271,3.271,0,0,0-6.209,2.059Z" transform="translate(-7.43 -17.56)"/>
            <path id="Path_43898" data-name="Path 43898" class="cls-12" d="M8.082,71c1.414,1.131,7.539,1.856,7.539,1.856s-2.042-5.828-3.455-6.958A3.271,3.271,0,0,0,8.073,71Z" transform="translate(-6.848 -19.408)"/>
            <path id="Path_43899" data-name="Path 43899" class="cls-12" d="M14.462,90.109c1.787.264,7.446-2.2,7.446-2.2s-4.7-4.007-6.49-4.272a3.271,3.271,0,1,0-.956,6.471Z" transform="translate(-7.621 -22.361)"/>
            <path id="Path_43900" data-name="Path 43900" class="cls-12" d="M22.891,103.552c1.717.562,7.712-.914,7.712-.914s-3.959-4.738-5.676-5.3a3.271,3.271,0,0,0-2.042,6.215Z" transform="translate(-9.058 -24.536)"/>
            <path id="Path_43901" data-name="Path 43901" class="cls-12" d="M23.992,71.233c-.834,1.6-6.152,4.74-6.152,4.74s-.484-6.155.35-7.759a3.27,3.27,0,0,1,5.8,3.019Z" transform="translate(-8.588 -19.612)"/>
            <path id="Path_43902" data-name="Path 43902" class="cls-12" d="M33.342,86.9c-1.275,1.28-7.287,2.681-7.287,2.681s1.381-6.018,2.654-7.3A3.27,3.27,0,1,1,33.342,86.9Z" transform="translate(-9.927 -21.994)"/>
            <path id="Path_43903" data-name="Path 43903" class="cls-12" d="M40.613,103.606c-1.04,1.476-6.73,3.875-6.73,3.875s.342-6.165,1.384-7.642a3.27,3.27,0,1,1,5.34,3.769Z" transform="translate(-11.182 -24.727)"/>
            <path id="Path_43904" data-name="Path 43904" class="cls-13" d="M33.045,106.055s4.712-6.854,3.886-13.3a12.6,12.6,0,0,1,1.489-7.831,21.2,21.2,0,0,1,2.216-3.184" transform="translate(-11.048 -22.062)"/>
            <path id="Path_43905" data-name="Path 43905" class="cls-12" d="M41.48,76.668c-.3.93.5,4.175.5,4.175s2.565-2.145,2.868-3.074a1.77,1.77,0,0,0-3.366-1.1Z" transform="translate(-12.389 -21.053)"/>
            <path id="Path_43906" data-name="Path 43906" class="cls-12" d="M36.164,81.522c.25.942,2.687,3.234,2.687,3.234s.986-3.195.737-4.14a1.771,1.771,0,0,0-3.424.906Z" transform="translate(-11.538 -21.671)"/>
            <path id="Path_43907" data-name="Path 43907" class="cls-12" d="M32.8,91.894c.693.689,3.952,1.436,3.952,1.436s-.76-3.256-1.454-3.945A1.771,1.771,0,1,0,32.8,91.9Z" transform="translate(-10.924 -23.205)"/>
            <path id="Path_43908" data-name="Path 43908" class="cls-12" d="M32.144,100.469c.567.8,3.653,2.083,3.653,2.083s-.2-3.337-.766-4.134a1.771,1.771,0,0,0-2.887,2.051Z" transform="translate(-10.851 -24.616)"/>
            <path id="Path_43909" data-name="Path 43909" class="cls-12" d="M42.711,86.749c-.878.43-4.2.085-4.2.085S40.277,84,41.156,83.573a1.77,1.77,0,0,1,1.556,3.18Z" transform="translate(-11.924 -22.327)"/>
            <path id="Path_43910" data-name="Path 43910" class="cls-12" d="M41.813,96.675c-.967.146-4.03-1.17-4.03-1.17s2.536-2.177,3.5-2.324a1.771,1.771,0,1,1,.532,3.5Z" transform="translate(-11.807 -23.893)"/>
            <path id="Path_43911" data-name="Path 43911" class="cls-12" d="M39.549,106.24c-.928.314-4.178-.471-4.178-.471s2.133-2.574,3.061-2.884a1.771,1.771,0,0,1,1.117,3.361Z" transform="translate(-11.421 -25.437)"/>
            <path id="Path_43912" data-name="Path 43912" class="cls-14" d="M41.48,76.668c-.3.93.5,4.175.5,4.175s2.565-2.145,2.868-3.074a1.77,1.77,0,0,0-3.366-1.1Z" transform="translate(-12.389 -21.053)"/>
            <path id="Path_43913" data-name="Path 43913" class="cls-14" d="M36.164,81.522c.25.942,2.687,3.234,2.687,3.234s.986-3.195.737-4.14a1.771,1.771,0,0,0-3.424.906Z" transform="translate(-11.538 -21.671)"/>
            <path id="Path_43914" data-name="Path 43914" class="cls-14" d="M32.8,91.894c.693.689,3.952,1.436,3.952,1.436s-.76-3.256-1.454-3.945A1.771,1.771,0,1,0,32.8,91.9Z" transform="translate(-10.924 -23.205)"/>
            <path id="Path_43915" data-name="Path 43915" class="cls-14" d="M32.144,100.469c.567.8,3.653,2.083,3.653,2.083s-.2-3.337-.766-4.134a1.771,1.771,0,0,0-2.887,2.051Z" transform="translate(-10.851 -24.616)"/>
            <path id="Path_43916" data-name="Path 43916" class="cls-14" d="M42.711,86.749c-.878.43-4.2.085-4.2.085S40.277,84,41.156,83.573a1.77,1.77,0,0,1,1.556,3.18Z" transform="translate(-11.924 -22.327)"/>
            <path id="Path_43917" data-name="Path 43917" class="cls-14" d="M41.813,96.675c-.967.146-4.03-1.17-4.03-1.17s2.536-2.177,3.5-2.324a1.771,1.771,0,1,1,.532,3.5Z" transform="translate(-11.807 -23.893)"/>
            <path id="Path_43918" data-name="Path 43918" class="cls-14" d="M39.549,106.24c-.928.314-4.178-.471-4.178-.471s2.133-2.574,3.061-2.884a1.771,1.771,0,0,1,1.117,3.361Z" transform="translate(-11.421 -25.437)"/>
            <path id="Path_43919" data-name="Path 43919" class="cls-8" d="M33.369,118.257h-13.4l-3.35-20.438h20.1Z" transform="translate(-2.653 -15.68)"/>
            <path id="Path_43920" data-name="Path 43920" class="cls-11" d="M34.751,97.819l-3.13,19.1H20.345l.22,1.34h13.4l3.352-20.438Z" transform="translate(-3.251 -15.68)"/>
            <rect id="Rectangle_8585" data-name="Rectangle 8585" class="cls-10" width="100.988" height="4.712" transform="translate(36.109 51.823)"/>
            <rect id="Rectangle_8586" data-name="Rectangle 8586" class="cls-15" width="14.449" height="15.271" transform="translate(61.238 28.716)"/>
            <rect id="Rectangle_8587" data-name="Rectangle 8587" class="cls-9" width="13.821" height="14.606" transform="translate(61.552 29.049)"/>
            <path id="Path_43921" data-name="Path 43921" class="cls-16" d="M92.577,55.971c.193-1.53-.193-1.626-.193-1.626l-.554-.265a2.293,2.293,0,0,0,.011-.27,1.931,1.931,0,0,0,0-.225,5.344,5.344,0,0,0-.667-1.679,5.037,5.037,0,0,1-.437-1.607,8.218,8.218,0,0,0-.236-2.042,3.672,3.672,0,0,0-.978-1.343,4.954,4.954,0,0,0-1.571-1.065,2.591,2.591,0,0,0-1.871-.053,4.088,4.088,0,0,0-1.348,1.041,4.749,4.749,0,0,0-.762.927,4.188,4.188,0,0,0-.429,1.4,23.169,23.169,0,0,0-.264,2.342,2.359,2.359,0,0,1-.628,1.8c-.256.2-.614.306-.732.6a.66.66,0,0,0-.038.28,1.118,1.118,0,0,0,.016.237.7.7,0,0,0,.027.137,10.686,10.686,0,0,0-.377,1.223,32.263,32.263,0,0,0-.774,4.3h9.317a1.1,1.1,0,0,0,.265,0h2.423Z" transform="translate(-18.699 -16.276)"/>
            <rect id="Rectangle_8588" data-name="Rectangle 8588" class="cls-17" width="5.348" height="4.035" transform="translate(65.818 33.351)"/>
            <rect id="Rectangle_8589" data-name="Rectangle 8589" class="cls-11" width="5.348" height="4.035" transform="translate(65.818 33.351)"/>
            <path id="Path_43922" data-name="Path 43922" class="cls-18" d="M90.714,54.825l-2.064,2.909-2.166-.187s-2.814.187-.942-1.971A4.6,4.6,0,0,0,86.8,53.063a1.952,1.952,0,0,0-.133-1.048l2.346-.281a1.75,1.75,0,0,0-.038.978A4.318,4.318,0,0,0,90.714,54.825Z" transform="translate(-19.36 -17.252)"/>
            <path id="Path_43923" data-name="Path 43923" class="cls-11" d="M89.327,52.706a2.345,2.345,0,0,1-2.174.347,1.952,1.952,0,0,0-.134-1.048l2.346-.281a1.75,1.75,0,0,0-.039.982Z" transform="translate(-19.7 -17.25)"/>
            <circle id="Ellipse_1189" data-name="Ellipse 1189" class="cls-18" cx="2.346" cy="2.346" r="2.346" transform="translate(65.863 31.144)"/>
            <path id="Path_43924" data-name="Path 43924" class="cls-11" d="M87.532,57.421a3.826,3.826,0,0,0,.845-1.877A1.9,1.9,0,0,1,89.5,54.6c.845-.281.751,0,.751,0l.562,2.252-.187,4.035.094.471H83.778l.471-1.877-.1-1.591.375-2.439,1.126-.657.845,1.126Z" transform="translate(-19.181 -17.692)"/>
            <path id="Path_43925" data-name="Path 43925" class="cls-19" d="M87.532,57.535a3.826,3.826,0,0,0,.845-1.877,1.9,1.9,0,0,1,1.126-.942c.845-.281.751,0,.751,0l.562,2.252L90.629,61l.094.471H83.778l.471-1.877L84.155,58l.375-2.439,1.126-.657.845,1.126Z" transform="translate(-19.181 -17.71)"/>
            <path id="Path_43926" data-name="Path 43926" class="cls-11" d="M85.789,54.633,82.88,55.1s-.471-.094-1.032,2.158a32.041,32.041,0,0,0-.751,4.222h3.628s.218-3.754.785-4.035l.785-1.214s-1.256-.1-1.071-.755A1.33,1.33,0,0,1,85.789,54.633Z" transform="translate(-18.751 -17.717)"/>
            <path id="Path_43927" data-name="Path 43927" class="cls-20" d="M85.677,54.633l-2.909.471s-.471-.094-1.032,2.158a32.039,32.039,0,0,0-.748,4.22h3.628s.218-3.754.785-4.035l.785-1.214s-1.256-.1-1.071-.755A1.326,1.326,0,0,1,85.677,54.633Z" transform="translate(-18.734 -17.717)"/>
            <path id="Path_43928" data-name="Path 43928" class="cls-11" d="M90.6,54.3l3.1,1.5s.375.094.187,1.6l.187,4.035h-3.33a12.032,12.032,0,0,0,.141-3.846A25.709,25.709,0,0,1,90.6,54.3Z" transform="translate(-20.274 -17.663)"/>
            <path id="Path_43929" data-name="Path 43929" class="cls-20" d="M90.715,54.3l3.1,1.5s.375.094.187,1.6l.187,4.035H90.849a12.032,12.032,0,0,0,.141-3.846,25.711,25.711,0,0,1-.275-3.286Z" transform="translate(-20.293 -17.663)"/>
            <path id="Path_43930" data-name="Path 43930" class="cls-11" d="M86.36,48.8a2.339,2.339,0,0,1-.518,1.008,1.266,1.266,0,0,0-.284,1.068c.047.141.14.267.173.413.057.251-.071.51-.049.766.03.352.328.613.493.924a2.24,2.24,0,0,1-.3,2.114,6.175,6.175,0,0,0-.994,1.982,4,4,0,0,0,.342,2.01.628.628,0,0,1,.053.4c-.072.217-.344.281-.573.3a6.044,6.044,0,0,1-.752,0,.628.628,0,0,1-.275-.058c-.173-.094-.225-.314-.289-.5s-.206-.39-.4-.369c-.129.014-.229.124-.357.146a.368.368,0,0,1-.314-.129.877.877,0,0,1-.024-.969,6.4,6.4,0,0,0,.492-.9c.253-.817-.38-1.626-.514-2.471a.8.8,0,0,1,.022-.415c.115-.292.462-.4.71-.592a2.326,2.326,0,0,0,.611-1.765,23.035,23.035,0,0,1,.245-2.3,4.151,4.151,0,0,1,.415-1.374,4.65,4.65,0,0,1,.738-.909,3.918,3.918,0,0,1,1.307-1.021,2.481,2.481,0,0,1,1.812.052,4.8,4.8,0,0,1,1.525,1.054,3.6,3.6,0,0,1,.942,1.318,8.38,8.38,0,0,1,.228,2.01,4.993,4.993,0,0,0,.422,1.571,5.3,5.3,0,0,1,.647,1.649,5.57,5.57,0,0,1-.19,1.406,9.227,9.227,0,0,0,.027,2.461,1.98,1.98,0,0,0,.123.58,2.071,2.071,0,0,0,.559.671.24.24,0,0,1,.1.157.19.19,0,0,1-.074.138c-.284.253-.776.066-1.084.291a1.741,1.741,0,0,0-.234.248,1.055,1.055,0,0,1-1.808-.49A3.382,3.382,0,0,1,89.4,58.16a6.71,6.71,0,0,0-.942-3.386,2.952,2.952,0,0,1-.349-1.607,5.073,5.073,0,0,1,.495-1.238,3.486,3.486,0,0,0,.157-2.607,2.584,2.584,0,0,0-1.329-1.447c-.223-.1-.54-.239-.774-.1C86.274,47.992,86.391,48.451,86.36,48.8Z" transform="translate(-18.921 -16.336)"/>
            <path id="Path_43931" data-name="Path 43931" class="cls-17" d="M86.36,48.69a2.339,2.339,0,0,1-.518,1.008,1.266,1.266,0,0,0-.284,1.068c.047.141.14.267.173.413.057.251-.071.51-.049.766.03.352.328.613.493.924a2.24,2.24,0,0,1-.3,2.114,6.175,6.175,0,0,0-.994,1.982,4,4,0,0,0,.342,2.01.628.628,0,0,1,.053.4c-.072.217-.344.281-.573.3a6.044,6.044,0,0,1-.752,0,.628.628,0,0,1-.275-.058c-.173-.094-.225-.314-.289-.5s-.206-.39-.4-.369c-.129.014-.229.124-.357.146a.368.368,0,0,1-.314-.129A.877.877,0,0,1,82.3,57.8a6.4,6.4,0,0,0,.492-.9c.253-.817-.38-1.626-.514-2.471a.8.8,0,0,1,.022-.415c.115-.292.462-.4.71-.592a2.326,2.326,0,0,0,.611-1.765,23.029,23.029,0,0,1,.254-2.3,4.151,4.151,0,0,1,.415-1.374,4.651,4.651,0,0,1,.738-.909A3.918,3.918,0,0,1,86.33,46.05a2.481,2.481,0,0,1,1.812.052,4.8,4.8,0,0,1,1.522,1.044,3.6,3.6,0,0,1,.942,1.318,8.38,8.38,0,0,1,.228,2.01,4.993,4.993,0,0,0,.422,1.571,5.3,5.3,0,0,1,.647,1.649,5.57,5.57,0,0,1-.19,1.406,9.228,9.228,0,0,0,.027,2.461,1.98,1.98,0,0,0,.119.583,2.072,2.072,0,0,0,.559.671.24.24,0,0,1,.1.157.19.19,0,0,1-.074.138c-.284.253-.776.066-1.084.291a1.743,1.743,0,0,0-.234.248,1.055,1.055,0,0,1-1.808-.49A3.382,3.382,0,0,1,89.4,58.04a6.71,6.71,0,0,0-.942-3.386,2.952,2.952,0,0,1-.349-1.607,5.072,5.072,0,0,1,.495-1.238,3.486,3.486,0,0,0,.157-2.607,2.584,2.584,0,0,0-1.329-1.447c-.223-.1-.54-.239-.774-.1C86.274,47.88,86.391,48.34,86.36,48.69Z" transform="translate(-18.921 -16.317)"/>
            <rect id="Rectangle_8590" data-name="Rectangle 8590" class="cls-15" width="11.308" height="0.471" transform="translate(78.671 29.678)"/>
            <rect id="Rectangle_8591" data-name="Rectangle 8591" class="cls-15" width="11.308" height="0.471" transform="translate(78.671 30.934)"/>
            <rect id="Rectangle_8592" data-name="Rectangle 8592" class="cls-15" width="11.308" height="0.471" transform="translate(78.671 32.19)"/>
            <rect id="Rectangle_8593" data-name="Rectangle 8593" class="cls-15" width="11.308" height="0.471" transform="translate(78.671 33.447)"/>
            <rect id="Rectangle_8594" data-name="Rectangle 8594" class="cls-15" width="11.308" height="0.471" transform="translate(78.671 34.703)"/>
            <rect id="Rectangle_8595" data-name="Rectangle 8595" class="cls-15" width="11.308" height="0.471" transform="translate(78.671 35.96)"/>
            <rect id="Rectangle_8596" data-name="Rectangle 8596" class="cls-15" width="11.308" height="0.471" transform="translate(78.671 37.216)"/>
            <rect id="Rectangle_8597" data-name="Rectangle 8597" class="cls-15" width="11.308" height="0.471" transform="translate(78.671 38.473)"/>
            <rect id="Rectangle_8598" data-name="Rectangle 8598" class="cls-15" width="11.308" height="0.471" transform="translate(78.671 39.729)"/>
            <rect id="Rectangle_8599" data-name="Rectangle 8599" class="cls-15" width="11.308" height="0.471" transform="translate(78.671 40.986)"/>
            <rect id="Rectangle_8600" data-name="Rectangle 8600" class="cls-15" width="11.308" height="0.471" transform="translate(78.671 42.242)"/>
            <path id="Path_43932" data-name="Path 43932" class="cls-21" d="M139.843,80.992a11.465,11.465,0,0,0,.669-6.884,58.741,58.741,0,0,1-1.12-8.363,19.746,19.746,0,0,0-1-5.569h0s.165-3.666-2.318-5.577a79.081,79.081,0,0,0-8.279-4.939l.58-2.367h-.024a2.274,2.274,0,0,0,.5-.228,2.161,2.161,0,0,0,.448-.372c.98-.858.994-2.431,1.459-3.685a24.35,24.35,0,0,1,1.509-2.7,6.092,6.092,0,0,0,.265-5.4,4.788,4.788,0,0,0-4.665-2.692,8.382,8.382,0,0,0-1.816.488c-1.393.49-2.493-.9-3.886-.405-.7.247-3.308.514-3.873,1.231a.644.644,0,0,0-.267.361c-.148.7,1.129,2.094,2.076,3.209a5.111,5.111,0,0,0-1.165,3.245q0,.04,0,.08v.08a5.142,5.142,0,0,0,1.563,3.68c-.08.7-.2,1.489-.371,2.3h-.115s-.663,2.868-2.814,2.868c-.575,0-1.36-.035-2.2-.083a22.99,22.99,0,0,0-7.512.865,2.886,2.886,0,0,1-2.535-.3c-1.847-1.333-3.835-4.729-4.107-5.2.207-1.377.179-3.9-2.681-4.358-3.353-.537-3.169,3.348-1.241,5.821a1.539,1.539,0,0,0-.094.383c-.165,2.072,1.822,5.9,2.318,6.373s.509,3.5,3.98,4.307,5.968,1.115,6.125,5.1,3.477,8.126,1.822,12.748c-.994,2.774-.735,4.226-.369,4.944-.03.094-.058.187-.09.283a11.275,11.275,0,0,1-1.363,2.984c-.119.157-.236.327-.347.5a21.551,21.551,0,0,0-3.3,2.445c-1.159,1.275-.663,6.373,0,8.445s4.8,14.66,4.8,14.66h.157l.05.314.166,1.043a1.554,1.554,0,0,1-.157-.1.269.269,0,0,0-.4.107l-.809,1.806s-3.311-1.431-3.48,1.916v.383a2.465,2.465,0,0,0,1.812,2.681,6.928,6.928,0,0,1,2.158,1,4.215,4.215,0,0,0,3.388.839,3.349,3.349,0,0,1,.85-.079,1.352,1.352,0,0,0,1.571-1.486,2.571,2.571,0,0,0,0-.314,25.709,25.709,0,0,1-.729-3.926.919.919,0,0,1,.066-.368,2.627,2.627,0,0,0,.146-1.11,11.655,11.655,0,0,0-.061-1.2.185.185,0,0,0-.337-.078l-.027.036c-.107-.353-.231-.766-.347-1.156l-.1-.314h.223s-1.327-7.823-.831-8.451c.325-.416-.2-5.4-.6-8.8,4.033.256,10.462-.457,14.859-.677a5.629,5.629,0,0,0,2.4-.669c-.4,3.223-1.136,9.664-.765,10.14.5.638-.828,8.445-.828,8.445h.2l-.072.239h.025c-.122.413-.256.858-.371,1.236l-.027-.036a.185.185,0,0,0-.338.08,11.645,11.645,0,0,0-.061,1.2,2.846,2.846,0,0,0,.146,1.11.917.917,0,0,1,.066.368,25.506,25.506,0,0,1-.729,3.926,2.578,2.578,0,0,0,0,.314,1.348,1.348,0,0,0,1.571,1.486,3.351,3.351,0,0,1,.85.079,4.233,4.233,0,0,0,3.388-.839,6.928,6.928,0,0,1,2.158-1,2.465,2.465,0,0,0,1.812-2.681v-.383c-.174-3.344-3.485-1.913-3.485-1.913l-.814-1.812a.269.269,0,0,0-.4-.107,1.55,1.55,0,0,1-.157.1l.218-1.362h.157s4.138-12.588,4.8-14.66,1.159-7.171,0-8.445a21.694,21.694,0,0,0-3.344-2.477,31.049,31.049,0,0,1,3.344,2.318Zm-7.149,1.6-.526-.314a2.5,2.5,0,0,0-.4-.517,4.186,4.186,0,0,1-.405-.455c-.324-.978-1.519-5.026.075-7.113,1.158-1.52,1.245-4.457,1.154-6.4.785,3.849,1.885,9.266,1.991,10.378C134.716,79.561,133.293,81.745,132.693,82.589Z" transform="translate(-21.067 -14.118)"/>
            <path id="Path_43933" data-name="Path 43933" class="cls-22" d="M138.32,122.553l-.628,4.084-3.769-.785s.785-2.67.942-3.3.157,0,.157,0Z" transform="translate(-27.219 -28.56)"/>
            <path id="Path_43934" data-name="Path 43934" class="cls-22" d="M118.119,125.851l-3.769.785-.435-2.827-.193-1.256h3.3s0-.628.157,0c.057.226.195.719.35,1.256C117.8,124.761,118.119,125.851,118.119,125.851Z" transform="translate(-23.981 -28.56)"/>
            <path id="Path_43935" data-name="Path 43935" class="cls-11" d="M117.531,123.809h-3.612l-.193-1.256h3.3s0-.628.157,0C117.237,122.779,117.375,123.272,117.531,123.809Z" transform="translate(-23.981 -28.56)"/>
            <path id="Path_43936" data-name="Path 43936" class="cls-11" d="M134.631,123.716h3.612l.193-1.256h-3.3s0-.628-.157,0C134.925,122.685,134.786,123.178,134.631,123.716Z" transform="translate(-27.333 -28.545)"/>
            <path id="Path_43937" data-name="Path 43937" class="cls-22" d="M142.562,63.688s2.042.157,2.513,7.539a60.028,60.028,0,0,0,1.07,8.246,11.707,11.707,0,0,1-.628,6.779L143.5,91.173s-3.769-3.141-5.026-2.984c0,0,2.2-2.984,2.042-4.712s-2.67-14.135-2.67-14.135Z" transform="translate(-27.849 -19.168)"/>
            <path id="Path_43938" data-name="Path 43938" class="cls-23" d="M114.14,91.557s-4.869,2.984-5.968,4.241-.628,6.282,0,8.324,4.555,14.449,4.555,14.449h3.926s-1.256-7.7-.785-8.324-.942-11.779-.942-11.779Z" transform="translate(-22.985 -23.636)"/>
            <path id="Path_43939" data-name="Path 43939" class="cls-23" d="M137,91.557s4.869,2.984,5.968,4.241.628,6.282,0,8.324-4.555,14.449-4.555,14.449h-3.926s1.256-7.7.785-8.324.942-11.779.942-11.779Z" transform="translate(-27.309 -23.636)"/>
            <path id="Path_43940" data-name="Path 43940" class="cls-11" d="M114.14,91.557s-4.869,2.984-5.968,4.241-.628,6.282,0,8.324,4.555,14.449,4.555,14.449h3.926s-1.256-7.7-.785-8.324-.942-11.779-.942-11.779Z" transform="translate(-22.985 -23.636)"/>
            <path id="Path_43941" data-name="Path 43941" class="cls-11" d="M137,91.557s4.869,2.984,5.968,4.241.628,6.282,0,8.324-4.555,14.449-4.555,14.449h-3.926s1.256-7.7.785-8.324.942-11.779.942-11.779Z" transform="translate(-27.309 -23.636)"/>
            <path id="Path_43942" data-name="Path 43942" class="cls-24" d="M124.848,44.022s0,6.125-2.2,9.266,10.052.471,10.052.471a3.262,3.262,0,0,1-1.178-1.649c-.647-2.3-.892-6.362.079-8.088C133.015,41.509,124.848,44.022,124.848,44.022Z" transform="translate(-25.37 -15.837)"/>
            <circle id="Ellipse_1190" data-name="Ellipse 1190" class="cls-11" cx="5.183" cy="5.183" r="5.183" transform="translate(97.832 21.982)"/>
            <circle id="Ellipse_1191" data-name="Ellipse 1191" class="cls-24" cx="5.183" cy="5.183" r="5.183" transform="translate(97.832 21.825)"/>
            <path id="Path_43943" data-name="Path 43943" class="cls-23" d="M130.529,104.293c-5.618.248-14.963,1.294-16.38-.258-2.285-2.5-1.475-4.754-.3-6.125a8.342,8.342,0,0,0,1.212-2.34c.113-.3.218-.608.314-.9a3.013,3.013,0,0,1,2.937-1.893h11.344a3.014,3.014,0,0,1,2.94,1.905,5.04,5.04,0,0,0,.722,1.468,3.556,3.556,0,0,0,.58.628,5.046,5.046,0,0,1,1.183,2.683C135.594,101.9,133.445,104.164,130.529,104.293Z" transform="translate(-23.816 -23.832)"/>
            <path id="Path_43944" data-name="Path 43944" class="cls-11" d="M130.529,104.293c-5.618.248-14.963,1.294-16.38-.258-2.285-2.5-1.475-4.754-.3-6.125a8.342,8.342,0,0,0,1.212-2.34c.113-.3.218-.608.314-.9a3.013,3.013,0,0,1,2.937-1.893h11.344a3.014,3.014,0,0,1,2.94,1.905,5.04,5.04,0,0,0,.722,1.468,3.556,3.556,0,0,0,.58.628,5.046,5.046,0,0,1,1.183,2.683C135.594,101.9,133.445,104.164,130.529,104.293Z" transform="translate(-23.816 -23.832)"/>
            <path id="Path_43945" data-name="Path 43945" class="cls-11" d="M115.388,125.961a7.318,7.318,0,0,1-2.273-.76.25.25,0,0,0-.377.105l-.77,1.792s-3.141-1.414-3.3,1.885c-.091,1.924.886,2.618,1.717,2.863a6.461,6.461,0,0,1,2.053.985,3.9,3.9,0,0,0,3.213.828,3.063,3.063,0,0,1,.806-.079c.586.019,1.6-.157,1.484-1.616,0,0-.942-3.769-.628-4.4a5.441,5.441,0,0,0,.082-2.114.174.174,0,0,0-.314-.08,1.382,1.382,0,0,1-1.211.628A2.2,2.2,0,0,1,115.388,125.961Z" transform="translate(-23.17 -29.021)"/>
            <path id="Path_43946" data-name="Path 43946" class="cls-25" d="M115.388,126.148a7.318,7.318,0,0,1-2.273-.76.25.25,0,0,0-.377.105l-.77,1.792s-3.141-1.414-3.3,1.885c-.091,1.924.886,2.618,1.717,2.863a6.461,6.461,0,0,1,2.053.985,3.9,3.9,0,0,0,3.213.828,3.063,3.063,0,0,1,.806-.079c.586.019,1.6-.157,1.484-1.616,0,0-.942-3.769-.628-4.4a5.441,5.441,0,0,0,.082-2.114.174.174,0,0,0-.314-.08,1.382,1.382,0,0,1-1.211.628,2.2,2.2,0,0,1-.484-.039Z" transform="translate(-23.17 -29.051)"/>
            <path id="Path_43947" data-name="Path 43947" class="cls-11" d="M135.727,125.961A7.317,7.317,0,0,0,138,125.2a.25.25,0,0,1,.377.105l.765,1.792s3.141-1.414,3.3,1.885c.091,1.924-.886,2.618-1.717,2.863a6.461,6.461,0,0,0-2.042.988,3.9,3.9,0,0,1-3.213.828,3.063,3.063,0,0,0-.806-.079c-.586.019-1.6-.157-1.484-1.616,0,0,.942-3.769.628-4.4a5.441,5.441,0,0,1-.082-2.114.174.174,0,0,1,.314-.08,1.382,1.382,0,0,0,1.211.628A2.2,2.2,0,0,0,135.727,125.961Z" transform="translate(-27.098 -29.021)"/>
            <path id="Path_43948" data-name="Path 43948" class="cls-25" d="M135.727,126.148a7.317,7.317,0,0,0,2.273-.76.25.25,0,0,1,.377.105l.765,1.792s3.141-1.414,3.3,1.885c.091,1.924-.886,2.618-1.717,2.863a6.461,6.461,0,0,0-2.042.988,3.9,3.9,0,0,1-3.213.828,3.063,3.063,0,0,0-.806-.079c-.586.019-1.6-.157-1.484-1.616,0,0,.942-3.769.628-4.4a5.441,5.441,0,0,1-.082-2.114.174.174,0,0,1,.314-.08,1.382,1.382,0,0,0,1.211.628,2.2,2.2,0,0,0,.477-.042Z" transform="translate(-27.098 -29.051)"/>
            <path id="Path_43949" data-name="Path 43949" class="cls-24" d="M101.762,47.912s1.414-4.555-2.356-5.183-2.827,4.869,0,6.911S101.762,47.912,101.762,47.912Z" transform="translate(-21.287 -15.801)"/>
            <path id="Path_43950" data-name="Path 43950" class="cls-11" d="M133.7,90.74c-4.4,7.225-19.161-.942-19.161-.942a1.573,1.573,0,0,1-.592-.817c.121-.382.232-.763.333-1.126a3.242,3.242,0,0,1,3.132-2.376H129.51a3.237,3.237,0,0,1,3.132,2.392,6.848,6.848,0,0,0,.77,1.844C133.566,90.347,133.7,90.74,133.7,90.74Z" transform="translate(-24.018 -22.661)"/>
            <path id="Path_43951" data-name="Path 43951" class="cls-22" d="M121.313,49.673h-.942s-.628,2.827-2.67,2.827c-.545,0-1.289-.033-2.09-.083a21.033,21.033,0,0,0-7.127.853,2.648,2.648,0,0,1-2.4-.3c-1.885-1.414-3.926-5.183-3.926-5.183s-3.612-.157-3.769,1.885,1.728,5.811,2.2,6.282.471,3.455,3.769,4.241,5.654,1.1,5.811,5.026,3.3,8.01,1.728,12.565.157,5.5.157,5.5,14.763,8.167,19.161.942c0,0-1.728-4.869,0-7.225s.942-8.167.942-8.167L137.8,63.18s.157-3.612-2.2-5.5a74.368,74.368,0,0,0-7.853-4.869l.55-2.334Z" transform="translate(-21.52 -16.619)"/>
            <path id="Path_43952" data-name="Path 43952" class="cls-11" d="M125.319,42.915c-.119,1.478-.072,3.165,1.021,4.168a4.366,4.366,0,0,0,1.962.911,12.532,12.532,0,0,0,2.263.335,3.42,3.42,0,0,0,2.026-.372c1.2-.774,1.172-2.5,1.652-3.842a24.714,24.714,0,0,1,1.432-2.67,6.21,6.21,0,0,0,.251-5.323,4.508,4.508,0,0,0-4.424-2.646,7.716,7.716,0,0,0-1.728.482c-1.322.484-2.364-.884-3.686-.4-.722.264-3.593.554-3.769,1.414-.209,1.021,2.569,3.567,2.869,4.46A10.331,10.331,0,0,1,125.319,42.915Z" transform="translate(-25.357 -14.321)"/>
            <path id="Path_43953" data-name="Path 43953" class="cls-26" d="M125.506,42.728c-.119,1.478-.072,3.165,1.021,4.168a4.366,4.366,0,0,0,1.962.911,12.532,12.532,0,0,0,2.263.335,3.42,3.42,0,0,0,2.026-.372c1.2-.774,1.172-2.5,1.652-3.842a24.714,24.714,0,0,1,1.432-2.67,6.21,6.21,0,0,0,.251-5.323,4.508,4.508,0,0,0-4.424-2.646,7.716,7.716,0,0,0-1.728.482c-1.322.484-2.364-.884-3.686-.4-.722.264-3.593.554-3.769,1.414-.209,1.021,2.569,3.567,2.869,4.46A10.331,10.331,0,0,1,125.506,42.728Z" transform="translate(-25.387 -14.291)"/>
            <path id="Path_43954" data-name="Path 43954" class="cls-11" d="M123.358,52.463s.942.394,3.612,1.18a7.932,7.932,0,0,0,4.712,0" transform="translate(-25.525 -17.369)"/>
            <path id="Path_43955" data-name="Path 43955" class="cls-11" d="M114.937,79.194s4.4.251,5.811,2.136,1.885,2.513,3.612,2.513a55.293,55.293,0,0,1,8.01.628" transform="translate(-24.176 -21.654)"/>
            <rect id="Rectangle_8601" data-name="Rectangle 8601" class="cls-10" width="2.626" height="3.001" transform="translate(99.975 105.134)"/>
            <rect id="Rectangle_8602" data-name="Rectangle 8602" class="cls-27" width="2.064" height="15.194" transform="translate(116.481 68.182)"/>
            <rect id="Rectangle_8603" data-name="Rectangle 8603" class="cls-27" width="4.501" height="0.562" transform="translate(113.105 83.187)"/>
            <rect id="Rectangle_8604" data-name="Rectangle 8604" class="cls-27" width="2.064" height="15.194" transform="translate(84.217 68.182)"/>
            <rect id="Rectangle_8605" data-name="Rectangle 8605" class="cls-27" width="4.501" height="0.562" transform="translate(84.592 83.187)"/>
            <rect id="Rectangle_8606" data-name="Rectangle 8606" class="cls-10" width="4.314" height="18.384" transform="translate(99.411 84.126)"/>
            <path id="Path_43956" data-name="Path 43956" class="cls-27" d="M125.628,96.718c11.622.405,12.006-4.047,12.006-4.047l-.751-12.346c-.187-19.229-11.255-16.4-11.255-16.4s-11.068-2.827-11.255,16.4l-.751,12.346S114,97.123,125.628,96.718Z" transform="translate(-23.965 -19.183)"/>
            <path id="Path_43957" data-name="Path 43957" class="cls-28" d="M125.628,96.718c11.622.405,12.006-4.047,12.006-4.047l-.751-12.346c-.187-19.229-11.255-16.4-11.255-16.4s-11.068-2.827-11.255,16.4l-.751,12.346S114,97.123,125.628,96.718Z" transform="translate(-23.965 -19.183)"/>
            <path id="Path_43958" data-name="Path 43958" class="cls-27" d="M125.361,96.094c11.085.386,11.442-3.859,11.442-3.859l-.715-11.768c-.179-18.327-10.727-15.626-10.727-15.626s-10.548-2.7-10.727,15.626l-.715,11.768S114.276,96.481,125.361,96.094Z" transform="translate(-24.013 -19.331)"/>
            <rect id="Rectangle_8607" data-name="Rectangle 8607" class="cls-10" width="4.69" height="8.067" rx="2.338" transform="translate(99.037 71.746)"/>
            <path id="Path_43959" data-name="Path 43959" class="cls-11" d="M129.546,131.951v.655h-4.308v-.65l.375-.1h3.564Z" transform="translate(-25.827 -30.096)"/>
            <path id="Path_43960" data-name="Path 43960" class="cls-10" d="M106.91,138.267s-1.877-1.5,15.762-6.19h3.564s15.189,3.747,15.376,6.19h-2.251s-8.253-2.442-12.006-2.442-15.007.375-18.376,2.439Z" transform="translate(-22.879 -30.132)"/>
            <path id="Path_43961" data-name="Path 43961" class="cls-27" d="M100.538,78.515h.793a2.042,2.042,0,0,1,2.042,2.042v.96H98.5v-.96A2.042,2.042,0,0,1,100.538,78.515Z" transform="translate(-15.779 -12.585)"/>
            <path id="Path_43962" data-name="Path 43962" class="cls-27" d="M138.956,78.515h.793a2.042,2.042,0,0,1,2.042,2.042v.96h-4.877v-.96A2.042,2.042,0,0,1,138.956,78.515Z" transform="translate(-21.938 -12.585)"/>
            <circle id="Ellipse_1192" data-name="Ellipse 1192" class="cls-29" cx="1.313" cy="1.313" r="1.313" transform="translate(83.655 108.136)"/>
            <circle id="Ellipse_1193" data-name="Ellipse 1193" class="cls-29" cx="1.313" cy="1.313" r="1.313" transform="translate(99.975 108.136)"/>
            <circle id="Ellipse_1194" data-name="Ellipse 1194" class="cls-29" cx="1.313" cy="1.313" r="1.313" transform="translate(116.481 108.136)"/>
            <rect id="Rectangle_8608" data-name="Rectangle 8608" class="cls-11" width="4.314" height="0.751" transform="translate(99.411 84.126)"/>
            <path id="Path_43963" data-name="Path 43963" class="cls-27" d="M125.323,110.3h12.565l.942-1.875c.562-3.188-1.5-3.377-1.5-3.377H113.317s-2.064.187-1.5,3.377l.942,1.875Z" transform="translate(-23.66 -25.799)"/>
            <path id="Path_43964" data-name="Path 43964" class="cls-28" d="M125.323,110.3h12.565l.942-1.875c.562-3.188-1.5-3.377-1.5-3.377H113.317s-2.064.187-1.5,3.377l.942,1.875Z" transform="translate(-23.66 -25.799)"/>
            <path id="Path_43965" data-name="Path 43965" class="cls-27" d="M125.323,110.443h12.565l.942-1.608c.562-2.733-1.5-2.895-1.5-2.895H113.317s-2.064.157-1.5,2.895l.942,1.608Z" transform="translate(-23.66 -25.942)"/>
            <path id="Path_43966" data-name="Path 43966" class="cls-12" d="M157.593,66.834a1.787,1.787,0,0,0-2.123.785,2.306,2.306,0,0,0,.03,2.219,3.255,3.255,0,0,0,3.157,1.789,2.267,2.267,0,0,0,2.136-2.291,2.356,2.356,0,0,0-3.125-2.513Z" transform="translate(-30.63 -19.649)"/>
            <path id="Path_43967" data-name="Path 43967" class="cls-28" d="M155.807,69.933a2.306,2.306,0,0,1-.03-2.219,1.807,1.807,0,0,1,2.123-.785l.074-.027a2.332,2.332,0,0,1,1.685.038,2.334,2.334,0,0,0-1.988-.19l-.074.027a1.787,1.787,0,0,0-2.123.785,2.306,2.306,0,0,0,.03,2.219,3.446,3.446,0,0,0,1.619,1.534,3.554,3.554,0,0,1-1.316-1.382Z" transform="translate(-30.631 -19.637)"/>
            <path id="Path_43968" data-name="Path 43968" class="cls-30" d="M157.171,67.586s.531.418,1.823,0" transform="translate(-30.946 -19.793)"/>
            <path id="Path_43969" data-name="Path 43969" class="cls-12" d="M157.037,63.968a14.2,14.2,0,0,1,.836,3.114l.721-.075s-1.216-2.164-.911-3.037Z" transform="translate(-30.924 -19.213)"/>
            <path id="Path_43970" data-name="Path 43970" class="cls-30" d="M157.037,63.968a14.2,14.2,0,0,1,.836,3.114l.721-.075s-1.216-2.164-.911-3.037Z" transform="translate(-30.924 -19.213)"/>
            <path id="Path_43971" data-name="Path 43971" class="cls-12" d="M160.928,64.143s-1.434-.733-2.076-.127a4.021,4.021,0,0,0-.74,2.155A2.5,2.5,0,0,0,160.928,64.143Z" transform="translate(-31.097 -19.182)"/>
            <path id="Path_43972" data-name="Path 43972" class="cls-28" d="M160.928,64.143s-1.434-.733-2.076-.127a4.021,4.021,0,0,0-.74,2.155A2.5,2.5,0,0,0,160.928,64.143Z" transform="translate(-31.097 -19.182)"/>
            <path id="Path_43973" data-name="Path 43973" class="cls-31" d="M158.112,66.241a2.906,2.906,0,0,1,2.816-2.028" transform="translate(-31.097 -19.253)"/>
          </g>
        </g>
      </g>
    </g>
    <g id="Mask_Group_269" data-name="Mask Group 269" class="cls-32" transform="translate(-13833 -5669)">
      <g id="undraw_connecting_teams3_1pgn-2" data-name="undraw_connecting_teams3_1pgn" transform="translate(14588.609 6182)">
        <g id="Group_37075" data-name="Group 37075" class="cls-33" transform="translate(51.93 5.046)">
          <circle id="Ellipse_1343" data-name="Ellipse 1343" class="cls-34" cx="12.431" cy="12.431" r="12.431"/>
        </g>
        <circle id="Ellipse_1344" data-name="Ellipse 1344" class="cls-35" cx="12.167" cy="12.167" r="12.167" transform="translate(52.218 5.23)"/>
        <path id="Path_45076" data-name="Path 45076" class="cls-36" d="M119.382,35.449c0,4.047-2.908,6.04-6.684,6.04s-6.99-1.991-6.99-6.04a6.853,6.853,0,1,1,13.673,0Z" transform="translate(-48.303 -16.851)"/>
        <path id="Path_45077" data-name="Path 45077" class="cls-37" d="M112.7,49.089a12.111,12.111,0,0,0,6.689-2c-.449-2.451-2.154-2.6-2.154-2.6h-9.409s-1.61.132-2.113,2.386A12.111,12.111,0,0,0,112.7,49.089Z" transform="translate(-48.303 -19.476)"/>
        <path id="Path_45078" data-name="Path 45078" class="cls-11" d="M74.284,26.239h3.764v3.116a1.777,1.777,0,0,1-1.789,1.777h-.211a1.777,1.777,0,0,1-1.764-1.777Z" transform="translate(-11.908 -4.206)"/>
        <path id="Path_45079" data-name="Path 45079" class="cls-38" d="M74.613,26.068H77.7a.339.339,0,0,1,.339.339V29.2a1.777,1.777,0,0,1-1.777,1.777H76.05A1.777,1.777,0,0,1,74.284,29.2V26.412A.339.339,0,0,1,74.613,26.068Z" transform="translate(-11.908 -4.179)"/>
        <path id="Path_45080" data-name="Path 45080" class="cls-11" d="M111.632,42.546a5.416,5.416,0,0,0,3.764.01v-.462h-3.764Z" transform="translate(-49.253 -19.091)"/>
        <circle id="Ellipse_1345" data-name="Ellipse 1345" class="cls-38" cx="5.393" cy="5.393" r="5.393" transform="translate(58.874 12.918)"/>
        <path id="Path_45081" data-name="Path 45081" class="cls-11" d="M106.477,35.739a9.681,9.681,0,0,0,5.9-3.665s3.359,3.7,5.7,3.292a2.04,2.04,0,0,0,0-2.851c-1.358-1.425-2.409-3.222-4.207-2.985s-4,.339-4.954,1.188S106.477,35.739,106.477,35.739Z" transform="translate(-48.426 -17.074)"/>
        <path id="Path_45082" data-name="Path 45082" class="cls-36" d="M106.477,35.659a9.681,9.681,0,0,0,5.9-3.665s3.359,3.7,5.7,3.292a2.04,2.04,0,0,0,0-2.851c-1.358-1.425-2.409-3.222-4.207-2.985s-4,.339-4.954,1.188S106.477,35.659,106.477,35.659Z" transform="translate(-48.426 -17.061)"/>
        <ellipse id="Ellipse_1346" data-name="Ellipse 1346" class="cls-38" cx="0.502" cy="0.941" rx="0.502" ry="0.941" transform="translate(58.368 17.365)"/>
        <ellipse id="Ellipse_1347" data-name="Ellipse 1347" class="cls-38" cx="0.502" cy="0.941" rx="0.502" ry="0.941" transform="translate(69.158 17.365)"/>
        <g id="Group_37076" data-name="Group 37076" class="cls-33" transform="translate(104.571 5.933)">
          <circle id="Ellipse_1348" data-name="Ellipse 1348" class="cls-39" cx="12.431" cy="12.431" r="12.431"/>
        </g>
        <circle id="Ellipse_1349" data-name="Ellipse 1349" class="cls-35" cx="12.167" cy="12.167" r="12.167" transform="translate(104.859 6.117)"/>
        <path id="Path_45083" data-name="Path 45083" class="cls-37" d="M175.389,50.146a12.111,12.111,0,0,0,6.689-2c-.448-2.451-2.154-2.59-2.154-2.59h-9.414s-1.61.132-2.113,2.386a12.111,12.111,0,0,0,6.993,2.205Z" transform="translate(-58.352 -19.646)"/>
        <circle id="Ellipse_1350" data-name="Ellipse 1350" class="cls-40" cx="5.874" cy="5.874" r="5.874" transform="translate(111.034 12.154)"/>
        <path id="Path_45084" data-name="Path 45084" class="cls-11" d="M136.97,27.295h3.764V30.41a1.777,1.777,0,0,1-1.777,1.779h-.211a1.777,1.777,0,0,1-1.777-1.777V27.295Z" transform="translate(-21.957 -4.376)"/>
        <path id="Path_45085" data-name="Path 45085" class="cls-38" d="M137.31,27.128H140.4a.339.339,0,0,1,.339.339v2.776a1.777,1.777,0,0,1-1.777,1.777h-.211a1.777,1.777,0,0,1-1.777-1.777V27.467a.339.339,0,0,1,.339-.339Z" transform="translate(-21.957 -4.349)"/>
        <path id="Path_45086" data-name="Path 45086" class="cls-11" d="M174.323,43.6a5.416,5.416,0,0,0,3.764.01v-.462h-3.764Z" transform="translate(-59.302 -19.261)"/>
        <circle id="Ellipse_1351" data-name="Ellipse 1351" class="cls-38" cx="5.393" cy="5.393" r="5.393" transform="translate(111.515 13.805)"/>
        <path id="Path_45087" data-name="Path 45087" class="cls-11" d="M172,31.462s2.273,4.608,8.687,1.934l-1.493-2.34-2.646-.95Z" transform="translate(-58.929 -17.17)"/>
        <path id="Path_45088" data-name="Path 45088" class="cls-40" d="M172,31.383s2.273,4.608,8.687,1.934l-1.493-2.334-2.646-.95Z" transform="translate(-58.929 -17.158)"/>
        <path id="Path_45089" data-name="Path 45089" class="cls-40" d="M171.951,30.557a3.115,3.115,0,0,1,.772-1.256c1.062-1.048,2.8-1.271,3.693-2.469a.7.7,0,0,1-.319.987,2.71,2.71,0,0,0,2.329-.783,1.6,1.6,0,0,1-.27,1.689,1.613,1.613,0,0,1,1.615,1.305,1.5,1.5,0,0,1-.7,1.271,3.879,3.879,0,0,1-1.409.53C176.222,32.148,171.011,33.48,171.951,30.557Z" transform="translate(-58.904 -16.645)"/>
        <path id="Path_45090" data-name="Path 45090" class="cls-40" d="M180.936,37.62h-.143l-2.781,2.469a5,5,0,0,0-4.648,0l-2.92-2.367-.295.036a5.393,5.393,0,1,0,10.785-.138Zm-5.4,3.427c-1.05,0-1.9-.212-1.9-.476s.851-.476,1.9-.476,1.9.212,1.9.476-.851.476-1.9.476Z" transform="translate(-58.633 -18.374)"/>
        <ellipse id="Ellipse_1352" data-name="Ellipse 1352" class="cls-38" cx="0.502" cy="0.941" rx="0.502" ry="0.941" transform="translate(111.011 18.252)"/>
        <ellipse id="Ellipse_1353" data-name="Ellipse 1353" class="cls-38" cx="0.502" cy="0.941" rx="0.502" ry="0.941" transform="translate(121.799 18.252)"/>
        <g id="Group_37077" data-name="Group 37077" class="cls-33" transform="translate(78.253 26.326)">
          <circle id="Ellipse_1354" data-name="Ellipse 1354" class="cls-39" cx="12.431" cy="12.431" r="12.431"/>
        </g>
        <circle id="Ellipse_1355" data-name="Ellipse 1355" class="cls-35" cx="12.167" cy="12.167" r="12.167" transform="translate(78.516 26.522)"/>
        <path id="Path_45091" data-name="Path 45091" class="cls-36" d="M139.275,60.9s-1.379,6.8-2.14,6.419c0,0,7.261,6.272,13.673,0,0,0-1.129-4.789-2.76-6.419Z" transform="translate(-53.341 -22.107)"/>
        <path id="Path_45092" data-name="Path 45092" class="cls-37" d="M144.045,74.433a12.111,12.111,0,0,0,6.689-2c-.448-2.451-2.154-2.59-2.154-2.59h-9.407s-1.61.132-2.113,2.386a12.111,12.111,0,0,0,6.986,2.205Z" transform="translate(-53.329 -23.539)"/>
        <circle id="Ellipse_1356" data-name="Ellipse 1356" class="cls-36" cx="5.393" cy="5.393" r="5.393" transform="translate(85.197 33.028)"/>
        <path id="Path_45093" data-name="Path 45093" class="cls-11" d="M105.626,51.581h3.764V54.7a1.777,1.777,0,0,1-1.774,1.777H107.4a1.777,1.777,0,0,1-1.777-1.777V51.581Z" transform="translate(-16.932 -8.269)"/>
        <path id="Path_45094" data-name="Path 45094" class="cls-41" d="M105.97,51.415h3.086a.339.339,0,0,1,.339.339V54.53a1.777,1.777,0,0,1-1.779,1.769H107.4a1.777,1.777,0,0,1-1.777-1.777V51.754a.339.339,0,0,1,.339-.339Z" transform="translate(-16.932 -8.242)"/>
        <path id="Path_45095" data-name="Path 45095" class="cls-11" d="M142.978,67.886a5.416,5.416,0,0,0,3.764.01v-.462h-3.764Z" transform="translate(-54.278 -23.154)"/>
        <circle id="Ellipse_1357" data-name="Ellipse 1357" class="cls-41" cx="5.393" cy="5.393" r="5.393" transform="translate(85.197 34.198)"/>
        <path id="Path_45096" data-name="Path 45096" class="cls-36" d="M139.086,58.665h10.286s-.879-4.154-4.773-3.889A6.948,6.948,0,0,0,139.086,58.665Z" transform="translate(-53.654 -21.123)"/>
        <ellipse id="Ellipse_1358" data-name="Ellipse 1358" class="cls-41" cx="0.502" cy="0.941" rx="0.502" ry="0.941" transform="translate(84.805 38.42)"/>
        <ellipse id="Ellipse_1359" data-name="Ellipse 1359" class="cls-41" cx="0.502" cy="0.941" rx="0.502" ry="0.941" transform="translate(95.341 38.42)"/>
        <path id="Path_45097" data-name="Path 45097" class="cls-11" d="M139.086,58.839h10.286s-.879-4.154-4.773-3.889A6.948,6.948,0,0,0,139.086,58.839Z" transform="translate(-53.654 -21.151)"/>
        <path id="Path_45098" data-name="Path 45098" class="cls-6" d="M142.643,46.829a11.33,11.33,0,1,1-11.33,11.33,11.33,11.33,0,0,1,11.33-11.33m0-2.8A14.128,14.128,0,1,0,156.77,58.159,14.128,14.128,0,0,0,142.643,44.031Z" transform="translate(-51.959 -19.402)"/>
        <rect id="Rectangle_8902" data-name="Rectangle 8902" class="cls-6" width="3.311" height="3.486" transform="translate(88.592 21.326)"/>
        <rect id="Rectangle_8903" data-name="Rectangle 8903" class="cls-6" width="3.486" height="3.311" transform="translate(96.014 25.728) rotate(-59)"/>
        <rect id="Rectangle_8904" data-name="Rectangle 8904" class="cls-6" width="3.486" height="3.311" transform="translate(101.814 30.138) rotate(-29)"/>
        <rect id="Rectangle_8905" data-name="Rectangle 8905" class="cls-6" width="3.311" height="3.486" transform="translate(101.864 47.122) rotate(-58)"/>
        <rect id="Rectangle_8906" data-name="Rectangle 8906" class="cls-6" width="3.311" height="3.486" transform="translate(74.897 31.345) rotate(-61)"/>
        <rect id="Rectangle_8907" data-name="Rectangle 8907" class="cls-6" width="3.486" height="3.311" transform="translate(74.794 46.161) rotate(-32)"/>
        <rect id="Rectangle_8908" data-name="Rectangle 8908" class="cls-6" width="3.311" height="3.486" transform="translate(80.718 24.445) rotate(-31)"/>
        <rect id="Rectangle_8909" data-name="Rectangle 8909" class="cls-6" width="3.311" height="3.486" transform="translate(88.592 52.7)"/>
        <rect id="Rectangle_8910" data-name="Rectangle 8910" class="cls-6" width="3.311" height="3.486" transform="translate(96.014 51.786) rotate(-31)"/>
        <rect id="Rectangle_8911" data-name="Rectangle 8911" class="cls-6" width="3.503" height="3.328" transform="matrix(0.517, -0.856, 0.856, 0.517, 81.457, 53.062)"/>
        <rect id="Rectangle_8912" data-name="Rectangle 8912" class="cls-6" width="4.009" height="2.962" transform="translate(72.904 37.363)"/>
        <rect id="Rectangle_8913" data-name="Rectangle 8913" class="cls-6" width="4.009" height="2.962" transform="translate(108.462 40.324) rotate(180)"/>
        <path id="Path_45099" data-name="Path 45099" class="cls-6" d="M173.985,22.543a11.33,11.33,0,1,1-11.33,11.33,11.33,11.33,0,0,1,11.33-11.33m0-2.8a14.128,14.128,0,1,0,14.128,14.128,14.128,14.128,0,0,0-14.128-14.128Z" transform="translate(-56.984 -15.509)"/>
        <rect id="Rectangle_8914" data-name="Rectangle 8914" class="cls-6" width="3.311" height="3.486" transform="translate(114.91 0.933)"/>
        <rect id="Rectangle_8915" data-name="Rectangle 8915" class="cls-6" width="3.486" height="3.311" transform="translate(122.333 5.334) rotate(-59)"/>
        <rect id="Rectangle_8916" data-name="Rectangle 8916" class="cls-6" width="3.486" height="3.311" transform="translate(128.134 9.745) rotate(-29)"/>
        <rect id="Rectangle_8917" data-name="Rectangle 8917" class="cls-6" width="3.311" height="3.486" transform="translate(128.182 26.729) rotate(-58)"/>
        <rect id="Rectangle_8918" data-name="Rectangle 8918" class="cls-6" width="3.311" height="3.486" transform="translate(101.218 10.951) rotate(-61)"/>
        <rect id="Rectangle_8919" data-name="Rectangle 8919" class="cls-6" width="3.486" height="3.311" transform="translate(101.112 25.768) rotate(-32)"/>
        <rect id="Rectangle_8920" data-name="Rectangle 8920" class="cls-6" width="3.311" height="3.486" transform="translate(107.038 4.05) rotate(-31)"/>
        <rect id="Rectangle_8921" data-name="Rectangle 8921" class="cls-6" width="3.311" height="3.486" transform="translate(114.91 32.307)"/>
        <rect id="Rectangle_8922" data-name="Rectangle 8922" class="cls-6" width="3.311" height="3.486" transform="translate(122.334 31.394) rotate(-31)"/>
        <rect id="Rectangle_8923" data-name="Rectangle 8923" class="cls-6" width="3.503" height="3.328" transform="matrix(0.517, -0.856, 0.856, 0.517, 107.848, 32.492)"/>
        <rect id="Rectangle_8924" data-name="Rectangle 8924" class="cls-6" width="4.009" height="2.962" transform="translate(99.224 16.97)"/>
        <rect id="Rectangle_8925" data-name="Rectangle 8925" class="cls-6" width="4.009" height="2.962" transform="translate(134.781 19.932) rotate(180)"/>
        <path id="Path_45100" data-name="Path 45100" class="cls-6" d="M111.245,21.5h.4a11.329,11.329,0,1,1-.387,22.654c-.133,0-.266,0-.4,0a11.329,11.329,0,1,1,.387-22.654m0-2.8h0a14.127,14.127,0,1,0-.482,28.249c.165,0,.329.006.494.006a14.126,14.126,0,1,0,.486-28.248c-.165,0-.329-.005-.494-.005Z" transform="translate(-46.887 -15.342)"/>
        <rect id="Rectangle_8926" data-name="Rectangle 8926" class="cls-6" width="3.486" height="3.311" transform="translate(62.761 3.484) rotate(-88.01)"/>
        <rect id="Rectangle_8927" data-name="Rectangle 8927" class="cls-6" width="3.486" height="3.311" transform="translate(70.145 4.656) rotate(-57.01)"/>
        <rect id="Rectangle_8928" data-name="Rectangle 8928" class="cls-6" width="3.486" height="3.311" transform="translate(75.789 9.268) rotate(-27.01)"/>
        <rect id="Rectangle_8929" data-name="Rectangle 8929" class="cls-6" width="3.311" height="3.486" transform="matrix(0.559, -0.829, 0.829, 0.559, 75.25, 26.243)"/>
        <rect id="Rectangle_8930" data-name="Rectangle 8930" class="cls-6" width="3.311" height="3.486" transform="translate(48.846 9.538) rotate(-59.01)"/>
        <rect id="Rectangle_8931" data-name="Rectangle 8931" class="cls-6" width="3.498" height="3.323" transform="translate(48.545 24.501) rotate(-29.887)"/>
        <rect id="Rectangle_8932" data-name="Rectangle 8932" class="cls-6" width="3.311" height="3.486" transform="translate(54.904 2.847) rotate(-29.01)"/>
        <rect id="Rectangle_8933" data-name="Rectangle 8933" class="cls-6" width="3.486" height="3.311" transform="translate(61.672 34.84) rotate(-88.01)"/>
        <rect id="Rectangle_8934" data-name="Rectangle 8934" class="cls-6" width="3.311" height="3.486" transform="translate(69.24 30.703) rotate(-29.01)"/>
        <rect id="Rectangle_8935" data-name="Rectangle 8935" class="cls-6" width="3.486" height="3.311" transform="translate(53.91 31.45) rotate(-57.01)"/>
        <rect id="Rectangle_8936" data-name="Rectangle 8936" class="cls-6" width="4.009" height="2.962" transform="translate(46.642 15.483) rotate(1.99)"/>
        <rect id="Rectangle_8937" data-name="Rectangle 8937" class="cls-6" width="4.009" height="2.962" transform="translate(82.077 19.671) rotate(-178.01)"/>
        <g id="Group_37078" data-name="Group 37078" class="cls-33" transform="translate(0 50.301)">
          <circle id="Ellipse_1360" data-name="Ellipse 1360" class="cls-42" cx="10.981" cy="10.981" r="10.981"/>
        </g>
        <circle id="Ellipse_1361" data-name="Ellipse 1361" class="cls-43" cx="10.749" cy="10.749" r="10.749" transform="translate(0.253 50.463)"/>
        <path id="Path_45101" data-name="Path 45101" class="cls-6" d="M49.278,99.676a10.7,10.7,0,0,0,5.908-1.768c-.4-2.164-1.9-2.288-1.9-2.288H44.971s-1.422.117-1.866,2.108a10.7,10.7,0,0,0,6.173,1.947Z" transform="translate(-38.267 -27.672)"/>
        <circle id="Ellipse_1362" data-name="Ellipse 1362" class="cls-6" cx="5.189" cy="5.189" r="5.189" transform="translate(5.709 55.796)"/>
        <path id="Path_45102" data-name="Path 45102" class="cls-11" d="M10.976,77.775H14.3v2.752a1.57,1.57,0,0,1-1.57,1.57h-.178a1.57,1.57,0,0,1-1.577-1.57Z" transform="translate(-1.76 -12.468)"/>
        <path id="Path_45103" data-name="Path 45103" class="cls-6" d="M11.083,77.628H14.21a.1.1,0,0,1,.1.1V80.38a1.57,1.57,0,0,1-1.57,1.57h-.186a1.57,1.57,0,0,1-1.577-1.57V77.727a.1.1,0,0,1,.1-.1Z" transform="translate(-1.76 -12.444)"/>
        <path id="Path_45104" data-name="Path 45104" class="cls-11" d="M48.336,93.892a4.784,4.784,0,0,0,3.325.01v-.41H48.336Z" transform="translate(-39.106 -27.331)"/>
        <circle id="Ellipse_1363" data-name="Ellipse 1363" class="cls-6" cx="4.765" cy="4.765" r="4.765" transform="translate(6.134 57.254)"/>
        <path id="Path_45105" data-name="Path 45105" class="cls-11" d="M46.282,83.169s2.008,4.077,7.673,1.708l-1.317-2.069L50.3,81.969Z" transform="translate(-38.777 -25.484)"/>
        <path id="Path_45106" data-name="Path 45106" class="cls-6" d="M46.282,83.1s2.008,4.077,7.673,1.708l-1.317-2.069L50.3,81.9Z" transform="translate(-38.777 -25.472)"/>
        <path id="Path_45107" data-name="Path 45107" class="cls-6" d="M46.237,82.37a2.753,2.753,0,0,1,.683-1.109c.938-.927,2.469-1.122,3.262-2.179a.617.617,0,0,1-.283.871,2.39,2.39,0,0,0,2.057-.693,1.412,1.412,0,0,1-.239,1.491A1.424,1.424,0,0,1,53.145,81.9a1.327,1.327,0,0,1-.617,1.122,3.427,3.427,0,0,1-1.244.469C50.014,83.776,45.414,84.951,46.237,82.37Z" transform="translate(-38.754 -25.021)"/>
        <ellipse id="Ellipse_1364" data-name="Ellipse 1364" class="cls-6" cx="0.443" cy="0.831" rx="0.443" ry="0.831" transform="translate(5.688 61.184)"/>
        <ellipse id="Ellipse_1365" data-name="Ellipse 1365" class="cls-6" cx="0.443" cy="0.831" rx="0.443" ry="0.831" transform="translate(15.22 61.184)"/>
        <g id="Group_37079" data-name="Group 37079" class="cls-33" transform="translate(1.743 49.255)">
          <circle id="Ellipse_1366" data-name="Ellipse 1366" class="cls-42" cx="10.981" cy="10.981" r="10.981"/>
        </g>
        <circle id="Ellipse_1367" data-name="Ellipse 1367" class="cls-35" cx="10.749" cy="10.749" r="10.749" transform="translate(1.996 49.417)"/>
        <path id="Path_45108" data-name="Path 45108" class="cls-6" d="M51.349,98.429a10.7,10.7,0,0,0,5.908-1.768c-.4-2.164-1.9-2.288-1.9-2.288H47.042s-1.422.117-1.866,2.108A10.7,10.7,0,0,0,51.349,98.429Z" transform="translate(-38.599 -27.472)"/>
        <circle id="Ellipse_1368" data-name="Ellipse 1368" class="cls-6" cx="5.189" cy="5.189" r="5.189" transform="translate(7.452 54.749)"/>
        <path id="Path_45109" data-name="Path 45109" class="cls-11" d="M13.059,76.528h3.325V79.28a1.57,1.57,0,0,1-1.57,1.57H14.63a1.57,1.57,0,0,1-1.57-1.57Z" transform="translate(-2.094 -12.268)"/>
        <path id="Path_45110" data-name="Path 45110" class="cls-6" d="M13.16,76.381h3.127a.1.1,0,0,1,.1.1v2.653a1.57,1.57,0,0,1-1.57,1.577H14.63a1.57,1.57,0,0,1-1.57-1.57V76.482a.1.1,0,0,1,.1-.1Z" transform="translate(-2.094 -12.244)"/>
        <path id="Path_45111" data-name="Path 45111" class="cls-11" d="M50.411,92.648a4.784,4.784,0,0,0,3.325.01v-.408H50.411Z" transform="translate(-39.439 -27.132)"/>
        <circle id="Ellipse_1369" data-name="Ellipse 1369" class="cls-6" cx="4.765" cy="4.765" r="4.765" transform="translate(7.877 56.209)"/>
        <path id="Path_45112" data-name="Path 45112" class="cls-11" d="M48.357,81.922S50.365,86,56.03,83.631l-1.317-2.069-2.339-.839Z" transform="translate(-39.109 -25.284)"/>
        <path id="Path_45113" data-name="Path 45113" class="cls-6" d="M48.357,81.852s2.008,4.077,7.673,1.708l-1.317-2.069-2.339-.839Z" transform="translate(-39.109 -25.273)"/>
        <path id="Path_45114" data-name="Path 45114" class="cls-6" d="M48.317,81.126A2.753,2.753,0,0,1,49,80.017c.938-.927,2.469-1.122,3.262-2.179a.617.617,0,0,1-.283.871,2.39,2.39,0,0,0,2.057-.693,1.412,1.412,0,0,1-.239,1.491,1.424,1.424,0,0,1,1.427,1.152,1.326,1.326,0,0,1-.617,1.122,3.427,3.427,0,0,1-1.244.469C52.09,82.531,47.485,83.706,48.317,81.126Z" transform="translate(-39.087 -24.821)"/>
        <ellipse id="Ellipse_1370" data-name="Ellipse 1370" class="cls-6" cx="0.443" cy="0.831" rx="0.443" ry="0.831" transform="translate(7.431 60.138)"/>
        <ellipse id="Ellipse_1371" data-name="Ellipse 1371" class="cls-6" cx="0.443" cy="0.831" rx="0.443" ry="0.831" transform="translate(16.963 60.138)"/>
        <path id="Path_45115" data-name="Path 45115" class="cls-44" d="M99.967,41.427v.527l-1.481-.132v3.292l-3.876,5.68-.239-.14-.527.658,5.008,3.163V53.289l-.281-.165c.351-1.308,1.786-6.526,2.605-7.215a8.77,8.77,0,0,0,2.281-2.5C104.258,41.954,103.856,36.946,99.967,41.427Z" transform="translate(-46.401 -18.692)"/>
        <path id="Path_45116" data-name="Path 45116" class="cls-42" d="M84.452,52.158a64.627,64.627,0,0,1-8.315-2.329,12.6,12.6,0,0,0-4.322-.927L68.595,48.8l-1.6-.963.494-1.3a1.534,1.534,0,0,0,.148-.072l.046-.278a7.63,7.63,0,0,0,.76-.23,1.991,1.991,0,0,0,.635,1.7,1.957,1.957,0,0,0,1.466.648h0a1.975,1.975,0,0,0,1.975-2.14l-.23-2.906-.117.061-.015-.194-.043.023a7.681,7.681,0,0,0,.13-8.665l.125-.115v-3.2c-.043-.041-.087-.079-.132-.117v-.015c-2.656-2.469-6.307-2.274-8.947-1.646a4.85,4.85,0,0,0-3.706,4.215c-3.524.961-2.347,2.809-2.4,3.524-.273,3.481.848,5.528,2.065,6.713a6.369,6.369,0,0,0,1.749,1.274l-.772,1.542L60,46.653l-.617,1.84h-.03L51.7,53.67,46.422,59.5a1.708,1.708,0,0,0,1.394,2.851l5.4-.408s3.822,7.479,2.633,14.957c-.4,2.513-.232,4.05.165,4.987a9.172,9.172,0,0,1-.823,2.921c-1.45,3.032-1.45,6.195.395,9.885l.527,19.111s.658,8.963,0,10.808.263,10.676.263,10.676h-.128v4.878l9.875.263s2.3-1.093,2.717-1.919l4.964,1.526s5.461-.941,2.266-2.242c-2.385-.971-2.977-2.355-3.127-3l7.806-22.444s-1.45-19.111-6.721-25.7L73.5,82.761h.074l1.121-22.692.092.013-.026.008a25.127,25.127,0,0,0,8.7-.135,13.553,13.553,0,0,0,2.52-.706l.148-.059h.031a7.63,7.63,0,0,0,1.715-.978l3.292-5.035-5.008-3.456ZM63.759,129.346l2.5-17.529V102.86l4.482,9.358L65.924,132.5l-.253-.071-1.113,3.994a2.623,2.623,0,0,1-.8-1.137Z" transform="translate(-38.728 -16.99)"/>
        <path id="Path_45117" data-name="Path 45117" class="cls-45" d="M52.815,59.976s-7.437,1.749-6.124,12.467a28.982,28.982,0,0,1,3.631-1.06,27.786,27.786,0,0,1,3.588.186l1.279-4.845Z" transform="translate(-38.817 -21.958)"/>
        <path id="Path_45118" data-name="Path 45118" class="cls-38" d="M97.677,44.24v3.147l-3.747,5.49,3.747,2.437s1.666-6.419,2.563-7.174a8.447,8.447,0,0,0,2.179-2.391c.769-1.384.385-6.167-3.333-1.888v.5Z" transform="translate(-46.415 -19.096)"/>
        <path id="Path_45119" data-name="Path 45119" class="cls-38" d="M62.852,52.9l1.481-2.962a.55.55,0,0,1,.464-.3l5.635-.288a.55.55,0,0,1,.541.747l-1.453,3.757a.55.55,0,0,1-.561.349l-5.665-.5a.55.55,0,0,1-.443-.8Z" transform="translate(-41.423 -20.254)"/>
        <path id="Path_45120" data-name="Path 45120" class="cls-46" d="M25.835,37.364l-.956,2.808,9.829-.352-3.775-2.266Z" transform="translate(-3.988 -5.99)"/>
        <path id="Path_45121" data-name="Path 45121" class="cls-46" d="M55.768,40.617l.5-.629L60.549,42.5v1.132Z" transform="translate(-8.94 -6.41)"/>
        <path id="Path_45122" data-name="Path 45122" class="cls-47" d="M58.365,88.592a9.381,9.381,0,0,1-.658,5.76c-1.378,2.895-1.384,5.915.377,9.439l.5,18.249s.629,8.558,0,10.319.252,10.194.252,10.194h7.047v-5.662l2.391-16.738V111.6l4.279,8.935-4.913,20.64,6.419,2.643,8.055-23.156S80.733,102.409,75.7,96.117l-.94-6.866Z" transform="translate(-40.449 -26.545)"/>
        <path id="Path_45123" data-name="Path 45123" class="cls-36" d="M59.09,157.514v-4.658h7.174s.5,1.888,3.775,2.265-1.511,2.643-1.511,2.643Z" transform="translate(-40.83 -36.847)"/>
        <path id="Path_45124" data-name="Path 45124" class="cls-36" d="M68.316,154.093l1.249-4.486,6.912,1.924s-.021,1.954,3.03,3.194-2.164,2.14-2.164,2.14Z" transform="translate(-42.309 -36.326)"/>
        <path id="Path_45125" data-name="Path 45125" class="cls-11" d="M75.075,89.707l-16.389-.658a9.169,9.169,0,0,1,.123,2.971,1.965,1.965,0,0,0,2.358,1.28l14.34-.441Z" transform="translate(-40.765 -26.619)"/>
        <path id="Path_45126" data-name="Path 45126" class="cls-45" d="M61.219,54.163,53.92,59.1,55.366,67s3.65,7.141,2.516,14.282S60.4,87.324,60.4,87.324L74.8,86.885l1.07-21.667s8.688,1.233,12.59-1.786l3.147-4.806-4.783-3.292-1.636,2.334a63.209,63.209,0,0,1-7.939-2.228,12.026,12.026,0,0,0-4.126-.884Z" transform="translate(-40.001 -21.026)"/>
        <path id="Path_45127" data-name="Path 45127" class="cls-11" d="M62.75,95.679s-.881,4.4,4.152,11.7" transform="translate(-41.407 -27.682)"/>
        <path id="Path_45128" data-name="Path 45128" class="cls-11" d="M80.146,66.967s6.04-2.013,8.683-2.013,2.2,1.142,2.2,1.142S86.817,67.975,80.146,66.967Z" transform="translate(-44.205 -22.756)"/>
        <path id="Path_45129" data-name="Path 45129" class="cls-11" d="M71.495,49.645l-2.4.281c-.076.01-.145.105-.186.253.528.953,1.19,1.522,1.907,1.522a1.481,1.481,0,0,0,.729-.2l.184-1.113C71.788,50.02,71.666,49.623,71.495,49.645Z" transform="translate(-42.403 -20.302)"/>
        <circle id="Ellipse_1372" data-name="Ellipse 1372" class="cls-38" cx="7.34" cy="7.34" r="7.34" transform="translate(20.074 16.473)"/>
        <path id="Path_45130" data-name="Path 45130" class="cls-11" d="M74.65,34.092V37.15l-.37.339a1.269,1.269,0,0,0,.37,2.108h0a39.516,39.516,0,0,1-1.376,6.728l1.3-.688.221,2.775a1.893,1.893,0,0,1-1.886,2.042h0A1.893,1.893,0,0,1,71.225,47.7a11.286,11.286,0,0,0,1.132-2.14c.987-3.292-.987-2.676-1.453-2.064s.076,2.217.076,2.217,1.453,2.676-6.193,2.064c0,0-5.046-1.07-4.511-7.875.054-.681-1.07-2.447,2.294-3.364h0a4.63,4.63,0,0,1,3.538-4.024C68.632,31.921,72.118,31.732,74.65,34.092Z" transform="translate(-40.998 -17.494)"/>
        <path id="Path_45131" data-name="Path 45131" class="cls-40" d="M74.506,33.943V37l-.374.339a1.269,1.269,0,0,0,.37,2.108h0a39.517,39.517,0,0,1-1.376,6.728l1.3-.688.221,2.775a1.893,1.893,0,0,1-1.886,2.042h0a1.893,1.893,0,0,1-1.684-2.757,11.286,11.286,0,0,0,1.132-2.14c.987-3.292-.987-2.676-1.453-2.064s.076,2.217.076,2.217,1.453,2.676-6.193,2.064c0,0-5.046-1.07-4.511-7.875.054-.681-1.07-2.447,2.294-3.364h0a4.63,4.63,0,0,1,3.538-4.024C68.484,31.77,71.97,31.581,74.506,33.943Z" transform="translate(-40.974 -17.47)"/>
      </g>
    </g>
  </g>
</svg>
