<svg xmlns="http://www.w3.org/2000/svg" xmlns:xlink="http://www.w3.org/1999/xlink" viewBox="0 0 262 147">
  <defs>
    <style>
      .cls-1 {
        fill: #e3f2fd;
      }

      .cls-2 {
        opacity: 0.82;
      }

      .cls-3 {
        fill: url(#linear-gradient);
      }

      .cls-4 {
        fill: #bdbdbd;
      }

      .cls-5 {
        fill: #fff;
      }

      .cls-6 {
        fill: #4fa3cd;
      }

      .cls-13, .cls-7 {
        fill: #91c6e0;
      }

      .cls-8 {
        fill: url(#linear-gradient-5);
      }

      .cls-9 {
        fill: #d3e8f2;
      }

      .cls-10 {
        fill: #e0e0e0;
      }

      .cls-11 {
        fill: #f5f5f5;
      }

      .cls-12, .cls-13, .cls-14 {
        opacity: 0.4;
      }

      .cls-14 {
        fill: #248dc1;
      }
    </style>
    <linearGradient id="linear-gradient" x1="0.5" y1="1" x2="0.5" gradientUnits="objectBoundingBox">
      <stop offset="0" stop-color="gray" stop-opacity="0.251"/>
      <stop offset="0.54" stop-color="gray" stop-opacity="0.122"/>
      <stop offset="1" stop-color="gray" stop-opacity="0.102"/>
    </linearGradient>
    <linearGradient id="linear-gradient-5" x1="0.5" x2="0.5" y2="0" xlink:href="#linear-gradient"/>
  </defs>
  <g id="card-12" transform="translate(-972 -1113)">
    <path id="Rectangle_7221" data-name="Rectangle 7221" class="cls-1" d="M2,0H260a2,2,0,0,1,2,2V147a0,0,0,0,1,0,0H0a0,0,0,0,1,0,0V2A2,2,0,0,1,2,0Z" transform="translate(972 1113)"/>
    <g id="undraw_statistics_ctoq" class="cls-2" transform="translate(1025 1234.588)">
      <path id="Path_40669" data-name="Path 40669" class="cls-3" d="M129.415,250.392l-4.415.024,51.988-75.3,3.548,1.238Z" transform="translate(-102.547 -236.564)"/>
      <path id="Path_40670" data-name="Path 40670" class="cls-3" d="M482.29,250.392l3.636.024-51.208-75.3-3.548,1.238Z" transform="translate(-353.72 -236.564)"/>
      <rect id="Rectangle_6929" data-name="Rectangle 6929" class="cls-3" width="3.952" height="82.469" transform="translate(75.982 -68.617)"/>
      <path id="Path_40671" data-name="Path 40671" class="cls-4" d="M129.415,249.383l-4.415.024,51.988-74.718,3.548,1.228Z" transform="translate(-102.547 -236.189)"/>
      <path id="Path_40672" data-name="Path 40672" class="cls-4" d="M482.29,249.383l3.636.024L434.718,174.69l-3.548,1.228Z" transform="translate(-353.72 -236.189)"/>
      <rect id="Rectangle_6930" data-name="Rectangle 6930" class="cls-4" width="3.952" height="81.836" transform="translate(75.982 -68.617)"/>
      <path id="Path_40673" data-name="Path 40673" class="cls-4" d="M577.03,77.105a5.03,5.03,0,0,1-5.03-5.03v-1.8a5.03,5.03,0,0,1,10.059,0v1.8A5.03,5.03,0,0,1,577.03,77.105Zm0-10.6a3.772,3.772,0,0,0-3.772,3.772v1.8a3.772,3.772,0,0,0,7.544,0v-1.8A3.772,3.772,0,0,0,577.03,66.507Z" transform="translate(-499.52 -155.153)"/>
      <rect id="Rectangle_6931" data-name="Rectangle 6931" class="cls-3" width="155.018" height="72.39" transform="translate(0 -85.682)"/>
      <rect id="Rectangle_6932" data-name="Rectangle 6932" class="cls-4" width="151.965" height="93.871" transform="translate(1.527 -109.588)"/>
      <rect id="Rectangle_6933" data-name="Rectangle 6933" class="cls-5" width="146.217" height="85.516" transform="translate(4.221 -106.639)"/>
      <path id="Path_40674" data-name="Path 40674" class="cls-6" d="M818.125,120.735h-.185v61.611h.185a30.808,30.808,0,0,0,0-61.616Z" transform="translate(-703.023 -222.106)"/>
      <path id="Path_40675" data-name="Path 40675" class="cls-7" d="M724.228,120.77a30.8,30.8,0,0,0-30.618,30.618h30.618Z" transform="translate(-609.312 -222.136)"/>
      <path id="Path_40676" data-name="Path 40676" class="cls-8" d="M686.83,246.43v.195a32.147,32.147,0,0,0,31.949,32.145l0-32.34Z" transform="translate(-604.201 -316.85)"/>
      <path id="Path_40677" data-name="Path 40677" class="cls-9" d="M690.59,248.11v.185A30.806,30.806,0,0,0,721.209,279.1V248.11Z" transform="translate(-607.036 -318.117)"/>
      <rect id="Rectangle_6934" data-name="Rectangle 6934" class="cls-4" width="43.362" height="3.068" transform="translate(8.442 -77.778)"/>
      <rect id="Rectangle_6935" data-name="Rectangle 6935" class="cls-10" width="69.336" height="3.068" transform="translate(8.442 -72.757)"/>
      <rect id="Rectangle_6936" data-name="Rectangle 6936" class="cls-10" width="69.336" height="3.068" transform="translate(8.442 -67.737)"/>
      <rect id="Rectangle_6937" data-name="Rectangle 6937" class="cls-10" width="69.336" height="3.068" transform="translate(8.442 -62.714)"/>
      <rect id="Rectangle_6938" data-name="Rectangle 6938" class="cls-9" width="4.85" height="4.85" transform="translate(124.841 -28.021)"/>
      <rect id="Rectangle_6939" data-name="Rectangle 6939" class="cls-10" width="15.807" height="2.874" transform="translate(131.667 -26.943)"/>
      <rect id="Rectangle_6940" data-name="Rectangle 6940" class="cls-7" width="4.85" height="4.85" transform="translate(97.358 -28.021)"/>
      <rect id="Rectangle_6941" data-name="Rectangle 6941" class="cls-10" width="15.807" height="2.874" transform="translate(104.184 -26.943)"/>
      <rect id="Rectangle_6942" data-name="Rectangle 6942" class="cls-6" width="4.85" height="4.85" transform="translate(70.773 -28.021)"/>
      <rect id="Rectangle_6943" data-name="Rectangle 6943" class="cls-10" width="15.807" height="2.874" transform="translate(77.599 -26.943)"/>
      <g id="Group_34434" data-name="Group 34434" transform="translate(14.191 -48.96)">
        <g id="Group_34439" data-name="Group 34439" transform="translate(0 1.054)">
          <rect id="Rectangle_6944" data-name="Rectangle 6944" class="cls-10" width="1.529" height="24.375" transform="translate(1.658)"/>
          <circle id="Ellipse_1110" data-name="Ellipse 1110" class="cls-9" cx="2.402" cy="2.402" r="2.402" transform="translate(0 8.775)"/>
        </g>
        <g id="Group_34438" data-name="Group 34438" transform="translate(5.928 1.054)">
          <rect id="Rectangle_6946" data-name="Rectangle 6946" class="cls-10" width="1.529" height="24.375" transform="translate(1.658)"/>
          <circle id="Ellipse_1112" data-name="Ellipse 1112" class="cls-7" cx="2.402" cy="2.402" r="2.402" transform="translate(0 8.696)"/>
        </g>
        <g id="Group_34437" data-name="Group 34437" transform="translate(11.855)">
          <rect id="Rectangle_6947" data-name="Rectangle 6947" class="cls-10" width="1.529" height="24.375" transform="translate(1.658 1.054)"/>
          <circle id="Ellipse_1113" data-name="Ellipse 1113" class="cls-6" cx="2.402" cy="2.402" r="2.402"/>
        </g>
      </g>
      <g id="Group_34436" data-name="Group 34436" transform="translate(38.081 -49.487)">
        <rect id="Rectangle_7212" data-name="Rectangle 7212" class="cls-11" width="5.64" height="26.405" transform="translate(0 0)"/>
        <rect id="Rectangle_7213" data-name="Rectangle 7213" class="cls-11" width="5.64" height="26.405" transform="translate(9.357 0)"/>
        <rect id="Rectangle_7214" data-name="Rectangle 7214" class="cls-11" width="5.64" height="26.405" transform="translate(18.714 0)"/>
        <rect id="Rectangle_7216" data-name="Rectangle 7216" class="cls-9" width="5.64" height="13.203" transform="translate(0 13.203)"/>
        <g id="Group_34435" data-name="Group 34435" class="cls-12" transform="translate(0 7.691)">
          <rect id="Rectangle_6466" data-name="Rectangle 6466" class="cls-9" width="5.64" height="5.768"/>
        </g>
        <rect id="Rectangle_7217" data-name="Rectangle 7217" class="cls-7" width="5.64" height="13.211" transform="translate(9.357 13.195)"/>
        <rect id="Rectangle_7218" data-name="Rectangle 7218" class="cls-13" width="5.64" height="5.454" transform="translate(9.357 7.741)"/>
        <rect id="Rectangle_7219" data-name="Rectangle 7219" class="cls-6" width="5.64" height="15.125" transform="translate(18.714 11.28)"/>
        <rect id="Rectangle_7220" data-name="Rectangle 7220" class="cls-14" width="5.64" height="5.255" transform="translate(18.714 6.024)"/>
      </g>
    </g>
  </g>
</svg>
