<svg xmlns="http://www.w3.org/2000/svg" width="48" height="48" viewBox="0 0 48 48">
  <g id="icon_15" transform="translate(-908 -616)">
    <g id="Rectangle_14" data-name="Rectangle 14" transform="translate(908 616)" fill="#fff" stroke="#707070" stroke-width="1" opacity="0">
      <rect width="48" height="48" stroke="none"/>
      <rect x="0.5" y="0.5" width="47" height="47" fill="none"/>
    </g>
    <g id="black-back-closed-envelope-shape" transform="translate(910 622)">
      <path id="Path" d="M39.57,13.78a3.837,3.837,0,0,0,2.631-1L29.461,0c-.306.22-.6.433-.882.636Q27.149,1.7,26.257,2.288A14.286,14.286,0,0,1,23.886,3.5a7.209,7.209,0,0,1-2.761.617h-.05A7.206,7.206,0,0,1,18.315,3.5a14.24,14.24,0,0,1-2.371-1.208Q15.052,1.7,13.622.64c-.266-.2-.561-.41-.879-.64L0,12.784a3.838,3.838,0,0,0,2.632,1Z" transform="translate(1.292 21.531)" fill="#585b60"/>
      <path id="Path-2" data-name="Path" d="M2.527,2.183A13.275,13.275,0,0,1,0,0V19.378L11.2,8.152Q7.836,5.8,2.527,2.183Z" transform="translate(0 11.411)" fill="#585b60"/>
      <path id="Path-3" data-name="Path" d="M8.693,2.183Q3.579,5.652,0,8.157L11.2,19.378V0A13.823,13.823,0,0,1,8.693,2.183Z" transform="translate(33.804 11.411)" fill="#585b60"/>
      <path id="Path-4" data-name="Path" d="M40.982,0H4.018A3.593,3.593,0,0,0,1.042,1.3,5.026,5.026,0,0,0,0,4.548,5.824,5.824,0,0,0,1.381,7.96a12.43,12.43,0,0,0,2.938,2.886q.854.6,5.148,3.561c1.546,1.066,2.89,1.995,4.045,2.8.984.683,1.834,1.274,2.535,1.764l.375.266.692.5q.816.587,1.356.95t1.306.812a7.635,7.635,0,0,0,1.444.675,4.013,4.013,0,0,0,1.255.225h.05a4.014,4.014,0,0,0,1.256-.225,7.618,7.618,0,0,0,1.444-.675q.766-.45,1.306-.812t1.356-.95l.692-.5.375-.266L31.5,17.211q3.123-2.159,9.211-6.365A11.915,11.915,0,0,0,43.77,7.772,6.59,6.59,0,0,0,45,4a3.825,3.825,0,0,0-1.193-2.824A3.893,3.893,0,0,0,40.982,0Z" fill="#585b60"/>
    </g>
  </g>
</svg>
