<svg xmlns="http://www.w3.org/2000/svg" width="66.5" height="66.5" viewBox="0 0 66.5 66.5">
  <g id="icon_20" transform="translate(1 1)">
    <circle id="Ellipse_1_copy_5" cx="32.25" cy="32.25" r="32.25" fill="#fff" stroke="#e9ebec" stroke-linejoin="round" stroke-miterlimit="10" stroke-width="2"/>
    <g id="refresh" transform="translate(18 16)">
      <path id="Path" d="M24.917,0a1.109,1.109,0,0,0-1.083,1.133v4.14A13.622,13.622,0,0,0,3.957,5.61,15.07,15.07,0,0,0,0,15.867,1.109,1.109,0,0,0,1.083,17a1.109,1.109,0,0,0,1.083-1.133A12.2,12.2,0,0,1,14.086,3.4a11.684,11.684,0,0,1,8.788,4.049l-4.8,1.674a1.147,1.147,0,0,0-.687,1.435,1.075,1.075,0,0,0,1.371.719l6.5-2.267A1.131,1.131,0,0,0,26,7.933v-6.8A1.109,1.109,0,0,0,24.917,0Z" fill="#585b60"/>
      <path id="Path-2" data-name="Path" d="M24.917,0a1.109,1.109,0,0,0-1.083,1.133A12.2,12.2,0,0,1,11.914,13.6,11.684,11.684,0,0,1,3.127,9.548l4.8-1.674A1.147,1.147,0,0,0,8.612,6.44a1.075,1.075,0,0,0-1.371-.719L.741,7.988A1.131,1.131,0,0,0,0,9.067v6.8A1.109,1.109,0,0,0,1.083,17a1.109,1.109,0,0,0,1.083-1.133v-4.14a13.622,13.622,0,0,0,19.876-.337A15.07,15.07,0,0,0,26,1.133,1.109,1.109,0,0,0,24.917,0Z" transform="translate(3 15)" fill="#585b60"/>
    </g>
  </g>
</svg>
