<svg xmlns="http://www.w3.org/2000/svg" width="48" height="48" viewBox="0 0 48 48">
  <g id="icon_2" transform="translate(-930 -551)">
    <g id="Rectangle_2" data-name="Rectangle 2" transform="translate(930 551)" fill="#fff" stroke="#707070" stroke-width="1" opacity="0">
      <rect width="48" height="48" stroke="none"/>
      <rect x="0.5" y="0.5" width="47" height="47" fill="none"/>
    </g>
    <path id="fa-tasks-2" d="M36.644,28.99H1.349A1.357,1.357,0,0,1,0,27.671V22.4a1.349,1.349,0,0,1,1.34-1.31H36.652A1.347,1.347,0,0,1,37.99,22.4v5.27A1.353,1.353,0,0,1,36.644,28.99ZM21.709,23.72v2.64h13.57V23.72Zm14.935-5.27H1.349A1.358,1.358,0,0,1,0,17.13V11.86a1.359,1.359,0,0,1,1.351-1.32H36.644a1.354,1.354,0,0,1,1.346,1.32V17.13A1.354,1.354,0,0,1,36.644,18.45ZM13.568,13.181v2.63H35.279v-2.63ZM36.643,7.91H1.35A1.358,1.358,0,0,1,0,6.59V1.32A1.358,1.358,0,0,1,1.35,0H36.643A1.354,1.354,0,0,1,37.99,1.32V6.59A1.354,1.354,0,0,1,36.643,7.91Zm-9.5-5.27V5.27h8.139V2.64Z" transform="translate(936 561)" fill="#585b60"/>
  </g>
</svg>
