<svg xmlns="http://www.w3.org/2000/svg" width="48" height="48" viewBox="0 0 48 48">
  <g id="icon_1" transform="translate(-930 -446)">
    <g id="Rectangle_1" data-name="Rectangle 1" transform="translate(930 446)" fill="#fff" stroke="#707070" stroke-width="1" opacity="0">
      <rect width="48" height="48" stroke="none"/>
      <rect x="0.5" y="0.5" width="47" height="47" fill="none"/>
    </g>
    <path id="fa-file-text-2" d="M30.957,38.02H2.049a2.035,2.035,0,0,1-1.441-.592A2.063,2.063,0,0,1,0,35.98V2.04A2.062,2.062,0,0,1,2.056,0h17.2V11.54a2.065,2.065,0,0,0,.609,1.448,2.035,2.035,0,0,0,1.441.592H33.01v22.4a2.056,2.056,0,0,1-2.053,2.039ZM8.922,27.16a.67.67,0,0,0-.67.68v1.35a.67.67,0,0,0,.67.68h15.16a.666.666,0,0,0,.472-.2.673.673,0,0,0,.2-.485V27.84a.667.667,0,0,0-.667-.68H8.922Zm0-5.431a.671.671,0,0,0-.67.68v1.35a.679.679,0,0,0,.2.484.668.668,0,0,0,.476.2H24.07a.687.687,0,0,0,.483-.2.677.677,0,0,0,.2-.482V22.41a.669.669,0,0,0-.67-.68H8.923Zm0-5.43a.661.661,0,0,0-.465.19.669.669,0,0,0-.2.481v1.36a.676.676,0,0,0,.674.68H24.076a.673.673,0,0,0,.674-.68V16.97a.667.667,0,0,0-.667-.671H8.919ZM32.15,10.86H22V.85a4.212,4.212,0,0,1,.774.6L31.55,10.1a5.444,5.444,0,0,1,.6.759Z" transform="translate(937 451)" fill="#585b60"/>
  </g>
</svg>
