<svg xmlns="http://www.w3.org/2000/svg" width="48" height="48" viewBox="0 0 48 48">
  <g id="icon_5" transform="translate(-109 -618)">
    <g id="history-clock-button" transform="translate(113 623)">
      <path id="Shape" d="M21,38.222A18.823,18.823,0,0,1,9.325,34.2,19.306,19.306,0,0,1,2.6,24.141H6.8A15.178,15.178,0,0,0,21,34.2,15.246,15.246,0,0,0,36,19.111,15.246,15.246,0,0,0,21,4.023,15.148,15.148,0,0,0,7.4,12.472L13,18.105H0V5.029L4.6,9.656A18.719,18.719,0,0,1,28.356,1.515a19.378,19.378,0,0,1,10.137,10.2A18.836,18.836,0,0,1,40,19.111,19.07,19.07,0,0,1,34.475,32.59,18.8,18.8,0,0,1,21,38.222Zm6.4-12.271h0L18,20.318V10.058h3v8.449l8,4.829L27.4,25.95Z" fill="#585b60" opacity="0.9"/>
    </g>
    <g id="Rectangle_5" data-name="Rectangle 5" transform="translate(109 618)" fill="#fff" stroke="#707070" stroke-width="1" opacity="0">
      <rect width="48" height="48" stroke="none"/>
      <rect x="0.5" y="0.5" width="47" height="47" fill="none"/>
    </g>
  </g>
</svg>
