<svg id="Group_9558" data-name="Group 9558" xmlns="http://www.w3.org/2000/svg" viewBox="0 0 160 50">
  <defs>
    <style>
      .cls-1 {
        fill: #fff;
      }
    </style>
  </defs>
  <g id="app-store-badge" transform="translate(0 0)">
    <path id="Path_9426" data-name="Path 9426" d="M199.2,69H49.2a5.015,5.015,0,0,1-5-5V24a5.015,5.015,0,0,1,5-5h150a5.015,5.015,0,0,1,5,5V64A5.015,5.015,0,0,1,199.2,69Z" transform="translate(-44.2 -19)"/>
    <path id="Path_9427" data-name="Path 9427" class="cls-1" d="M75.389,40.605a7.247,7.247,0,0,1,3.375-5.875,7.788,7.788,0,0,0-5.625-3.125c-2.375-.25-4.75,1.375-5.875,1.375-1.25,0-3.125-1.375-5.125-1.375a7.426,7.426,0,0,0-6.375,3.875c-2.75,4.75-.75,11.75,1.875,15.625,1.375,1.875,2.875,4,4.875,3.875s2.75-1.25,5.125-1.25,3,1.25,5.125,1.25,3.5-1.875,4.75-3.75a14.328,14.328,0,0,0,2.125-4.375A6.912,6.912,0,0,1,75.389,40.605Z" transform="translate(-41.639 -15.855)"/>
    <path id="Path_9428" data-name="Path 9428" class="cls-1" d="M69.009,30.6a7.752,7.752,0,0,0,1.625-5,6.694,6.694,0,0,0-4.5,2.375,6.321,6.321,0,0,0-1.625,4.75A5.938,5.938,0,0,0,69.009,30.6Z" transform="translate(-39.134 -17.35)"/>
    <path id="Path_9429" data-name="Path 9429" class="cls-1" d="M96.7,53.325H93.95l-1.5-4.75H87.2l-1.375,4.75H83.2L88.45,37.2H91.7Zm-4.75-6.75-1.375-4.25c-.125-.375-.375-1.5-.875-3h0c-.125.625-.375,1.75-.75,3l-1.375,4.25Z" transform="translate(-34.45 -14.45)"/>
    <path id="Path_9430" data-name="Path 9430" class="cls-1" d="M106.95,46.575a6.656,6.656,0,0,1-1.625,4.75,4.808,4.808,0,0,1-3.625,1.5A3.4,3.4,0,0,1,98.45,51.2h0v6.125H95.825v-12.5c0-1.25,0-2.5-.125-3.875h2.25l.125,1.875h0A4.307,4.307,0,0,1,101.95,40.7a4.031,4.031,0,0,1,3.375,1.625A5.3,5.3,0,0,1,106.95,46.575Zm-2.625,0a4.491,4.491,0,0,0-.75-2.75,2.524,2.524,0,0,0-2.25-1.125,2.987,2.987,0,0,0-1.75.625,2.778,2.778,0,0,0-1,1.625,2.2,2.2,0,0,0-.125.75v2a3.154,3.154,0,0,0,.75,2.125,2.487,2.487,0,0,0,2,.875,2.524,2.524,0,0,0,2.25-1.125A4.515,4.515,0,0,0,104.325,46.575Z" transform="translate(-31.325 -13.575)"/>
    <path id="Path_9431" data-name="Path 9431" class="cls-1" d="M117.65,46.575a6.656,6.656,0,0,1-1.625,4.75,4.808,4.808,0,0,1-3.625,1.5,3.4,3.4,0,0,1-3.25-1.625h0v6.125h-2.625v-12.5c0-1.25,0-2.5-.125-3.875h2.25l.125,1.875h0A4.307,4.307,0,0,1,112.65,40.7a4.031,4.031,0,0,1,3.375,1.625A5.3,5.3,0,0,1,117.65,46.575Zm-2.625,0a4.491,4.491,0,0,0-.75-2.75,2.524,2.524,0,0,0-2.25-1.125,2.987,2.987,0,0,0-1.75.625,2.779,2.779,0,0,0-1,1.625,2.2,2.2,0,0,0-.125.75v2a3.154,3.154,0,0,0,.75,2.125,2.487,2.487,0,0,0,2,.875,2.524,2.524,0,0,0,2.25-1.125A4.516,4.516,0,0,0,115.025,46.575Z" transform="translate(-28.65 -13.575)"/>
    <path id="Path_9432" data-name="Path 9432" class="cls-1" d="M129.375,48.85A4.615,4.615,0,0,1,128,52.225a5.951,5.951,0,0,1-4.375,1.375,7.728,7.728,0,0,1-4.125-1l.625-2.125a7.636,7.636,0,0,0,3.75,1,3.711,3.711,0,0,0,2.25-.625,2.269,2.269,0,0,0,.75-1.75,2.377,2.377,0,0,0-.625-1.625,6.266,6.266,0,0,0-2.25-1.25c-2.875-1-4.25-2.625-4.25-4.625a4.031,4.031,0,0,1,1.5-3.25,5.693,5.693,0,0,1,4-1.25,7.8,7.8,0,0,1,3.625.75l-.625,2.125a6.09,6.09,0,0,0-3.125-.75A3.575,3.575,0,0,0,123,39.85a2.07,2.07,0,0,0-.625,1.5,2.2,2.2,0,0,0,.75,1.625,9.7,9.7,0,0,0,2.375,1.25,8.431,8.431,0,0,1,3.125,2A5.031,5.031,0,0,1,129.375,48.85Z" transform="translate(-25.375 -14.475)"/>
    <path id="Path_9433" data-name="Path 9433" class="cls-1" d="M135.625,43.375H132.75V49c0,1.375.5,2.125,1.5,2.125A2.774,2.774,0,0,0,135.375,51l.125,2a4.58,4.58,0,0,1-2,.25,2.94,2.94,0,0,1-2.375-.875,4.253,4.253,0,0,1-.875-3.125V43.375H128.5v-2h1.75V39.25l2.5-.75v2.875h2.875Z" transform="translate(-23.125 -14.125)"/>
    <path id="Path_9434" data-name="Path 9434" class="cls-1" d="M146.775,46.6a6.412,6.412,0,0,1-1.5,4.375,5.745,5.745,0,0,1-4.25,1.75,5.278,5.278,0,0,1-4.125-1.75,6.088,6.088,0,0,1-1.5-4.25,5.94,5.94,0,0,1,1.625-4.375,5.551,5.551,0,0,1,4.25-1.75,5.278,5.278,0,0,1,4.125,1.75A6.663,6.663,0,0,1,146.775,46.6Zm-2.75.125a4.753,4.753,0,0,0-.75-2.75,2.739,2.739,0,0,0-4.75,0,5.04,5.04,0,0,0-.75,2.75,4.754,4.754,0,0,0,.75,2.75A2.68,2.68,0,0,0,140.9,50.85a2.831,2.831,0,0,0,2.375-1.375A5.039,5.039,0,0,0,144.025,46.725Z" transform="translate(-21.4 -13.6)"/>
    <path id="Path_9435" data-name="Path 9435" class="cls-1" d="M152.475,43.125c-.25,0-.5-.125-.875-.125a2.67,2.67,0,0,0-2.125,1,4.317,4.317,0,0,0-.625,2.25v6.125h-2.625v-8a32.788,32.788,0,0,0-.125-3.625h2.25l.125,2.25h.125a4.945,4.945,0,0,1,1.25-1.875,3.72,3.72,0,0,1,1.875-.625h.625v2.625Z" transform="translate(-18.725 -13.625)"/>
    <path id="Path_9436" data-name="Path 9436" class="cls-1" d="M162.475,46.1a2.775,2.775,0,0,1-.125,1.125H154.6a3.229,3.229,0,0,0,1.125,2.625,4.026,4.026,0,0,0,2.5.875,8.208,8.208,0,0,0,3.125-.5l.375,1.75a9.319,9.319,0,0,1-3.875.75A5.469,5.469,0,0,1,153.6,51.1a5.881,5.881,0,0,1-1.5-4.25,7.031,7.031,0,0,1,1.375-4.375A4.994,4.994,0,0,1,157.6,40.6a4.16,4.16,0,0,1,3.75,1.875A5.247,5.247,0,0,1,162.475,46.1Zm-2.375-.625a3.668,3.668,0,0,0-.5-2,2.252,2.252,0,0,0-2-1.125,2.429,2.429,0,0,0-2,1,4.773,4.773,0,0,0-.75,2h5.25Z" transform="translate(-17.225 -13.6)"/>
    <path id="Path_9437" data-name="Path 9437" class="cls-1" d="M90.9,30.05a4.066,4.066,0,0,1-1.25,3.25,5.173,5.173,0,0,1-3.375,1,8.279,8.279,0,0,1-1.875-.125v-7.75a12.153,12.153,0,0,1,2.25-.125,4.658,4.658,0,0,1,3.125.875A4.048,4.048,0,0,1,90.9,30.05Zm-1.375,0a2.612,2.612,0,0,0-2.875-2.875,2.437,2.437,0,0,0-1,.125v5.875h.875a3.056,3.056,0,0,0,2.25-.75A3.384,3.384,0,0,0,89.525,30.05Z" transform="translate(-34.15 -17.175)"/>
    <path id="Path_9438" data-name="Path 9438" class="cls-1" d="M96.325,30.9a2.94,2.94,0,0,1-.75,2.125,2.575,2.575,0,0,1-2.125.875,2.331,2.331,0,0,1-2-.875A2.94,2.94,0,0,1,90.7,30.9a2.94,2.94,0,0,1,.75-2.125,2.575,2.575,0,0,1,2.125-.875,2.331,2.331,0,0,1,2,.875A2.94,2.94,0,0,1,96.325,30.9Zm-1.25,0a2.519,2.519,0,0,0-.375-1.375,1.093,1.093,0,0,0-1.125-.625,1.313,1.313,0,0,0-1.125.625,2.709,2.709,0,0,0,0,2.75,1.093,1.093,0,0,0,1.125.625,1.2,1.2,0,0,0,1.125-.75A1.866,1.866,0,0,0,95.075,30.9Z" transform="translate(-32.575 -16.775)"/>
    <path id="Path_9439" data-name="Path 9439" class="cls-1" d="M104.575,28l-1.75,5.75H101.7l-.75-2.5a10.418,10.418,0,0,1-.5-1.875h0a10.413,10.413,0,0,1-.5,1.875l-.75,2.5H98.075L96.2,28h1.25l.625,2.75.375,1.875h0c.125-.5.25-1.125.5-1.875L99.7,28h1l.75,2.625a10.414,10.414,0,0,1,.5,1.875h0l.375-1.875.75-2.625Z" transform="translate(-31.2 -16.75)"/>
    <path id="Path_9440" data-name="Path 9440" class="cls-1" d="M109.075,33.8h-1.25V30.55q0-1.5-1.125-1.5a1.135,1.135,0,0,0-.875.375,1.419,1.419,0,0,0-.375,1V33.8H104.2V28.05h1.125v.875h0a3.316,3.316,0,0,1,.625-.75,2.016,2.016,0,0,1,1.125-.375,1.88,1.88,0,0,1,1.375.5,2.151,2.151,0,0,1,.625,1.875Z" transform="translate(-29.2 -16.8)"/>
    <path id="Path_9441" data-name="Path 9441" class="cls-1" d="M111.15,34.275H109.9V25.9h1.25Z" transform="translate(-27.775 -17.275)"/>
    <path id="Path_9442" data-name="Path 9442" class="cls-1" d="M118.025,30.9a2.94,2.94,0,0,1-.75,2.125,2.575,2.575,0,0,1-2.125.875,2.331,2.331,0,0,1-2-.875,2.94,2.94,0,0,1-.75-2.125,2.94,2.94,0,0,1,.75-2.125,3.016,3.016,0,0,1,2.125-.875,2.331,2.331,0,0,1,2,.875A2.94,2.94,0,0,1,118.025,30.9Zm-1.25,0a2.52,2.52,0,0,0-.375-1.375,1.093,1.093,0,0,0-1.125-.625,1.313,1.313,0,0,0-1.125.625,2.708,2.708,0,0,0,0,2.75,1.093,1.093,0,0,0,1.125.625,1.2,1.2,0,0,0,1.125-.75A1.866,1.866,0,0,0,116.775,30.9Z" transform="translate(-27.15 -16.775)"/>
    <path id="Path_9443" data-name="Path 9443" class="cls-1" d="M122.725,33.775H121.6l-.125-.625h0a2.016,2.016,0,0,1-1.625.75,1.449,1.449,0,0,1-1.25-.5,2.246,2.246,0,0,1-.5-1.125,1.7,1.7,0,0,1,.875-1.625,4.672,4.672,0,0,1,2.5-.5v-.125A.994.994,0,0,0,120.35,28.9a2.969,2.969,0,0,0-1.5.375l-.25-.875a3.172,3.172,0,0,1,2-.5c1.5,0,2.25.75,2.25,2.375V32.4A6.132,6.132,0,0,0,122.725,33.775Zm-1.25-2V30.9c-1.375,0-2.125.375-2.125,1.125a.854.854,0,0,0,.875.875,1.777,1.777,0,0,0,.75-.25,1.248,1.248,0,0,0,.5-.625Z" transform="translate(-25.725 -16.775)"/>
    <path id="Path_9444" data-name="Path 9444" class="cls-1" d="M128.675,34.25H127.55v-.875h0a1.845,1.845,0,0,1-1.875,1,2.27,2.27,0,0,1-1.75-.75A2.889,2.889,0,0,1,123.3,31.5a3.49,3.49,0,0,1,.75-2.25,2.468,2.468,0,0,1,1.75-.75,1.857,1.857,0,0,1,1.625.75h0V26h1.25v8.25Zm-1.25-2.375V30.5a2.615,2.615,0,0,0-.5-.75,1.055,1.055,0,0,0-.875-.25,1.313,1.313,0,0,0-1.125.625,2.666,2.666,0,0,0-.375,1.5A2.245,2.245,0,0,0,124.925,33a1.313,1.313,0,0,0,1.125.625,1.137,1.137,0,0,0,1-.5A2.794,2.794,0,0,0,127.425,31.875Z" transform="translate(-24.425 -17.25)"/>
    <path id="Path_9445" data-name="Path 9445" class="cls-1" d="M137.425,30.9a2.94,2.94,0,0,1-.75,2.125,2.575,2.575,0,0,1-2.125.875,2.331,2.331,0,0,1-2-.875,2.94,2.94,0,0,1-.75-2.125,2.94,2.94,0,0,1,.75-2.125,2.575,2.575,0,0,1,2.125-.875,2.331,2.331,0,0,1,2,.875A2.94,2.94,0,0,1,137.425,30.9Zm-1.375,0a2.52,2.52,0,0,0-.375-1.375,1.093,1.093,0,0,0-1.125-.625,1.313,1.313,0,0,0-1.125.625,2.708,2.708,0,0,0,0,2.75,1.093,1.093,0,0,0,1.125.625,1.2,1.2,0,0,0,1.125-.75A1.866,1.866,0,0,0,136.05,30.9Z" transform="translate(-22.3 -16.775)"/>
    <path id="Path_9446" data-name="Path 9446" class="cls-1" d="M142.775,33.8h-1.25V30.55q0-1.5-1.125-1.5a1.135,1.135,0,0,0-.875.375,1.419,1.419,0,0,0-.375,1V33.8H137.9V28.05h1.125v.875h0a3.319,3.319,0,0,1,.625-.75,2.017,2.017,0,0,1,1.125-.375,1.88,1.88,0,0,1,1.375.5,2.151,2.151,0,0,1,.625,1.875Z" transform="translate(-20.775 -16.8)"/>
    <path id="Path_9447" data-name="Path 9447" class="cls-1" d="M149.275,29.275H147.9v2.75c0,.75.25,1,.75,1h.625v1a2.437,2.437,0,0,1-1,.125,1.218,1.218,0,0,1-1.125-.5,2.4,2.4,0,0,1-.375-1.5V29.275H145.9v-1h.875v-1l1.25-.375v1.375H149.4v1Z" transform="translate(-18.775 -17.025)"/>
    <path id="Path_9448" data-name="Path 9448" class="cls-1" d="M154.975,34.275h-1.25v-3.25q0-1.5-1.125-1.5a1.2,1.2,0,0,0-1.25.875v3.875H150.1V25.9h1.25v3.5h0a2,2,0,0,1,1.75-1,1.449,1.449,0,0,1,1.25.5,2.813,2.813,0,0,1,.625,1.875Z" transform="translate(-17.725 -17.275)"/>
    <path id="Path_9449" data-name="Path 9449" class="cls-1" d="M160.5,30.625v.625h-3.75a1.666,1.666,0,0,0,.5,1.25,2.112,2.112,0,0,0,1.25.375,4.661,4.661,0,0,0,1.5-.25l.25.875a4.174,4.174,0,0,1-1.875.375,3.011,3.011,0,0,1-2.125-5,2.331,2.331,0,0,1,2-.875,1.973,1.973,0,0,1,1.875.875A3.311,3.311,0,0,1,160.5,30.625Zm-1.125-.375a2.355,2.355,0,0,0-.25-1,1.014,1.014,0,0,0-1-.5,1.137,1.137,0,0,0-1,.5,1.419,1.419,0,0,0-.375,1Z" transform="translate(-16.375 -16.75)"/>
  </g>
</svg>
