<svg xmlns="http://www.w3.org/2000/svg" viewBox="0 0 158.934 42.6">
  <defs>
    <style>
      .cls-1 {
        fill: #1e1e1e;
      }
    </style>
  </defs>
  <g id="Group_71341" data-name="Group 71341" transform="translate(-126.366 -458.9)">
    <g id="app-store-badge" transform="translate(111 449)">
      <path id="Path_9427" data-name="Path 9427" class="cls-1" d="M79.578,42.41c0-4.65,3.9-6.9,4.05-7.05a9.346,9.346,0,0,0-6.75-3.75c-2.85-.3-5.7,1.65-7.05,1.65-1.5,0-3.75-1.65-6.15-1.65a8.911,8.911,0,0,0-7.65,4.65c-3.3,5.7-.9,14.1,2.25,18.75,1.65,2.25,3.45,4.8,5.85,4.65s3.3-1.5,6.15-1.5,3.6,1.5,6.15,1.5,4.2-2.25,5.7-4.5a17.194,17.194,0,0,0,2.55-5.25C84.528,49.76,79.578,47.96,79.578,42.41Z" transform="translate(-39.078 -12.71)"/>
      <path id="Path_9428" data-name="Path 9428" class="cls-1" d="M69.917,31.6a9.3,9.3,0,0,0,1.95-6,8.033,8.033,0,0,0-5.4,2.85,7.585,7.585,0,0,0-1.95,5.7A7.125,7.125,0,0,0,69.917,31.6Z" transform="translate(-34.067 -15.7)"/>
      <path id="Path_9429" data-name="Path 9429" class="cls-1" d="M99.4,56.55H96.1l-1.8-5.7H88l-1.65,5.7H83.2L89.5,37.2h3.9Zm-5.7-8.1-1.65-5.1c-.15-.45-.45-1.8-1.05-3.6h0c-.15.75-.45,2.1-.9,3.6l-1.65,5.1Z" transform="translate(-24.7 -9.9)"/>
      <path id="Path_9430" data-name="Path 9430" class="cls-1" d="M109.2,47.75a7.987,7.987,0,0,1-1.95,5.7,5.77,5.77,0,0,1-4.35,1.8A4.083,4.083,0,0,1,99,53.3h0v7.35H95.85v-15c0-1.5,0-3-.15-4.65h2.7l.15,2.25h0a5.168,5.168,0,0,1,4.65-2.55,4.838,4.838,0,0,1,4.05,1.95A6.355,6.355,0,0,1,109.2,47.75Zm-3.15,0a5.389,5.389,0,0,0-.9-3.3,3.029,3.029,0,0,0-2.7-1.35,3.584,3.584,0,0,0-2.1.75,3.334,3.334,0,0,0-1.2,1.95,2.639,2.639,0,0,0-.15.9v2.4a3.785,3.785,0,0,0,.9,2.55,2.985,2.985,0,0,0,2.4,1.05,3.029,3.029,0,0,0,2.7-1.35A5.418,5.418,0,0,0,106.05,47.75Z" transform="translate(-18.45 -8.15)"/>
      <path id="Path_9431" data-name="Path 9431" class="cls-1" d="M119.9,47.75a7.987,7.987,0,0,1-1.95,5.7,5.77,5.77,0,0,1-4.35,1.8,4.083,4.083,0,0,1-3.9-1.95h0v7.35h-3.15v-15c0-1.5,0-3-.15-4.65h2.7l.15,2.25h0a5.168,5.168,0,0,1,4.65-2.55,4.838,4.838,0,0,1,4.05,1.95A6.355,6.355,0,0,1,119.9,47.75Zm-3.15,0a5.389,5.389,0,0,0-.9-3.3,3.029,3.029,0,0,0-2.7-1.35,3.584,3.584,0,0,0-2.1.75,3.335,3.335,0,0,0-1.2,1.95,2.64,2.64,0,0,0-.15.9v2.4a3.785,3.785,0,0,0,.9,2.55A2.984,2.984,0,0,0,113,52.7a3.029,3.029,0,0,0,2.7-1.35A5.419,5.419,0,0,0,116.75,47.75Z" transform="translate(-13.1 -8.15)"/>
      <path id="Path_9432" data-name="Path 9432" class="cls-1" d="M131.35,51.2a5.539,5.539,0,0,1-1.65,4.05c-1.2,1.2-3,1.65-5.25,1.65a9.273,9.273,0,0,1-4.95-1.2l.75-2.55a9.164,9.164,0,0,0,4.5,1.2,4.454,4.454,0,0,0,2.7-.75,2.723,2.723,0,0,0,.9-2.1,2.852,2.852,0,0,0-.75-1.95,7.519,7.519,0,0,0-2.7-1.5c-3.45-1.2-5.1-3.15-5.1-5.55a4.837,4.837,0,0,1,1.8-3.9,6.832,6.832,0,0,1,4.8-1.5,9.354,9.354,0,0,1,4.35.9L130,40.55a7.308,7.308,0,0,0-3.75-.9,4.29,4.29,0,0,0-2.55.75,2.484,2.484,0,0,0-.75,1.8,2.641,2.641,0,0,0,.9,1.95,11.641,11.641,0,0,0,2.85,1.5,10.118,10.118,0,0,1,3.75,2.4A6.037,6.037,0,0,1,131.35,51.2Z" transform="translate(-6.55 -9.95)"/>
      <path id="Path_9433" data-name="Path 9433" class="cls-1" d="M137.05,44.35H133.6V51.1c0,1.65.6,2.55,1.8,2.55a3.329,3.329,0,0,0,1.35-.15l.15,2.4a5.5,5.5,0,0,1-2.4.3,3.529,3.529,0,0,1-2.85-1.05c-.75-.75-1.05-1.95-1.05-3.75V44.35h-2.1v-2.4h2.1V39.4l3-.9v3.45h3.45Z" transform="translate(-2.05 -9.25)"/>
      <path id="Path_9434" data-name="Path 9434" class="cls-1" d="M149.05,47.8a7.694,7.694,0,0,1-1.8,5.25,6.894,6.894,0,0,1-5.1,2.1,6.334,6.334,0,0,1-4.95-2.1,7.306,7.306,0,0,1-1.8-5.1,7.128,7.128,0,0,1,1.95-5.25,6.661,6.661,0,0,1,5.1-2.1,6.334,6.334,0,0,1,4.95,2.1A8,8,0,0,1,149.05,47.8Zm-3.3.15a5.7,5.7,0,0,0-.9-3.3,3.286,3.286,0,0,0-5.7,0,6.048,6.048,0,0,0-.9,3.3,5.7,5.7,0,0,0,.9,3.3A3.216,3.216,0,0,0,142,52.9a3.4,3.4,0,0,0,2.85-1.65A6.047,6.047,0,0,0,145.75,47.95Z" transform="translate(1.4 -8.2)"/>
      <path id="Path_9435" data-name="Path 9435" class="cls-1" d="M153.75,43.65c-.3,0-.6-.15-1.05-.15a3.2,3.2,0,0,0-2.55,1.2,5.18,5.18,0,0,0-.75,2.7v7.35h-3.15v-9.6a39.346,39.346,0,0,0-.15-4.35h2.7l.15,2.7h.15a5.934,5.934,0,0,1,1.5-2.25,4.464,4.464,0,0,1,2.25-.75h.75v3.15Z" transform="translate(6.75 -8.25)"/>
      <path id="Path_9436" data-name="Path 9436" class="cls-1" d="M164.55,47.2a3.331,3.331,0,0,1-.15,1.35h-9.3a3.874,3.874,0,0,0,1.35,3.15,4.831,4.831,0,0,0,3,1.05,9.85,9.85,0,0,0,3.75-.6l.45,2.1a11.182,11.182,0,0,1-4.65.9,6.563,6.563,0,0,1-5.1-1.95,7.057,7.057,0,0,1-1.8-5.1,8.437,8.437,0,0,1,1.65-5.25,5.993,5.993,0,0,1,4.95-2.25,4.992,4.992,0,0,1,4.5,2.25A6.3,6.3,0,0,1,164.55,47.2Zm-2.85-.75a4.4,4.4,0,0,0-.6-2.4,2.7,2.7,0,0,0-2.4-1.35,2.915,2.915,0,0,0-2.4,1.2,5.728,5.728,0,0,0-.9,2.4h6.3Z" transform="translate(9.75 -8.2)"/>
      <path id="Path_9437" data-name="Path 9437" class="cls-1" d="M92.2,30.8a4.879,4.879,0,0,1-1.5,3.9,6.208,6.208,0,0,1-4.05,1.2,9.933,9.933,0,0,1-2.25-.15v-9.3a14.584,14.584,0,0,1,2.7-.15,5.59,5.59,0,0,1,3.75,1.05A4.858,4.858,0,0,1,92.2,30.8Zm-1.65,0a3.134,3.134,0,0,0-3.45-3.45,2.924,2.924,0,0,0-1.2.15v7.05h1.05a3.667,3.667,0,0,0,2.7-.9A4.061,4.061,0,0,0,90.55,30.8Z" transform="translate(-24.1 -15.35)"/>
      <path id="Path_9438" data-name="Path 9438" class="cls-1" d="M97.45,31.5a3.528,3.528,0,0,1-.9,2.55A3.09,3.09,0,0,1,94,35.1a2.8,2.8,0,0,1-2.4-1.05,3.528,3.528,0,0,1-.9-2.55,3.528,3.528,0,0,1,.9-2.55,3.09,3.09,0,0,1,2.55-1.05,2.8,2.8,0,0,1,2.4,1.05A3.528,3.528,0,0,1,97.45,31.5Zm-1.5,0a3.023,3.023,0,0,0-.45-1.65,1.312,1.312,0,0,0-1.35-.75,1.575,1.575,0,0,0-1.35.75,3.25,3.25,0,0,0,0,3.3,1.312,1.312,0,0,0,1.35.75A1.441,1.441,0,0,0,95.5,33,2.239,2.239,0,0,0,95.95,31.5Z" transform="translate(-20.95 -14.55)"/>
      <path id="Path_9439" data-name="Path 9439" class="cls-1" d="M106.25,28l-2.1,6.9H102.8l-.9-3a12.5,12.5,0,0,1-.6-2.25h0a12.5,12.5,0,0,1-.6,2.25l-.9,3H98.45L96.2,28h1.5l.75,3.3.45,2.25h0c.15-.6.3-1.35.6-2.25l.9-3.3h1.2l.9,3.15a12.5,12.5,0,0,1,.6,2.25h0l.45-2.25.9-3.15Z" transform="translate(-18.2 -14.5)"/>
      <path id="Path_9440" data-name="Path 9440" class="cls-1" d="M110.05,35h-1.5V31.1q0-1.8-1.35-1.8a1.362,1.362,0,0,0-1.05.45,1.7,1.7,0,0,0-.45,1.2V35h-1.5V28.1h1.35v1.05h0a3.978,3.978,0,0,1,.75-.9,2.419,2.419,0,0,1,1.35-.45,2.256,2.256,0,0,1,1.65.6,2.581,2.581,0,0,1,.75,2.25Z" transform="translate(-14.2 -14.6)"/>
      <path id="Path_9441" data-name="Path 9441" class="cls-1" d="M111.4,35.95h-1.5V25.9h1.5Z" transform="translate(-11.35 -15.55)"/>
      <path id="Path_9442" data-name="Path 9442" class="cls-1" d="M119.15,31.5a3.528,3.528,0,0,1-.9,2.55,3.09,3.09,0,0,1-2.55,1.05,2.8,2.8,0,0,1-2.4-1.05,3.528,3.528,0,0,1-.9-2.55,3.528,3.528,0,0,1,.9-2.55,3.619,3.619,0,0,1,2.55-1.05,2.8,2.8,0,0,1,2.4,1.05A3.528,3.528,0,0,1,119.15,31.5Zm-1.5,0a3.024,3.024,0,0,0-.45-1.65,1.312,1.312,0,0,0-1.35-.75,1.575,1.575,0,0,0-1.35.75,3.25,3.25,0,0,0,0,3.3,1.312,1.312,0,0,0,1.35.75,1.442,1.442,0,0,0,1.35-.9A2.24,2.24,0,0,0,117.65,31.5Z" transform="translate(-10.1 -14.55)"/>
      <path id="Path_9443" data-name="Path 9443" class="cls-1" d="M123.65,34.95H122.3l-.15-.75h0a2.419,2.419,0,0,1-1.95.9,1.739,1.739,0,0,1-1.5-.6,2.7,2.7,0,0,1-.6-1.35,2.035,2.035,0,0,1,1.05-1.95,5.606,5.606,0,0,1,3-.6v-.15a1.193,1.193,0,0,0-1.35-1.35,3.563,3.563,0,0,0-1.8.45l-.3-1.05a3.806,3.806,0,0,1,2.4-.6c1.8,0,2.7.9,2.7,2.85V33.3A7.357,7.357,0,0,0,123.65,34.95Zm-1.5-2.4V31.5c-1.65,0-2.55.45-2.55,1.35a1.025,1.025,0,0,0,1.05,1.05,2.132,2.132,0,0,0,.9-.3,1.5,1.5,0,0,0,.6-.75Z" transform="translate(-7.25 -14.55)"/>
      <path id="Path_9444" data-name="Path 9444" class="cls-1" d="M129.75,35.9H128.4V34.85h0a2.214,2.214,0,0,1-2.25,1.2,2.724,2.724,0,0,1-2.1-.9,3.467,3.467,0,0,1-.75-2.55,4.188,4.188,0,0,1,.9-2.7,2.961,2.961,0,0,1,2.1-.9,2.229,2.229,0,0,1,1.95.9h0V26h1.5v9.9Zm-1.5-2.85V31.4a3.138,3.138,0,0,0-.6-.9,1.266,1.266,0,0,0-1.05-.3,1.575,1.575,0,0,0-1.35.75,3.2,3.2,0,0,0-.45,1.8,2.694,2.694,0,0,0,.45,1.65,1.575,1.575,0,0,0,1.35.75,1.364,1.364,0,0,0,1.2-.6A3.353,3.353,0,0,0,128.25,33.05Z" transform="translate(-4.65 -15.5)"/>
      <path id="Path_9445" data-name="Path 9445" class="cls-1" d="M138.55,31.5a3.528,3.528,0,0,1-.9,2.55,3.09,3.09,0,0,1-2.55,1.05,2.8,2.8,0,0,1-2.4-1.05,3.528,3.528,0,0,1-.9-2.55,3.528,3.528,0,0,1,.9-2.55,3.09,3.09,0,0,1,2.55-1.05,2.8,2.8,0,0,1,2.4,1.05A3.528,3.528,0,0,1,138.55,31.5Zm-1.65,0a3.024,3.024,0,0,0-.45-1.65,1.312,1.312,0,0,0-1.35-.75,1.575,1.575,0,0,0-1.35.75,3.25,3.25,0,0,0,0,3.3,1.312,1.312,0,0,0,1.35.75,1.441,1.441,0,0,0,1.35-.9A2.239,2.239,0,0,0,136.9,31.5Z" transform="translate(-0.4 -14.55)"/>
      <path id="Path_9446" data-name="Path 9446" class="cls-1" d="M143.75,35h-1.5V31.1q0-1.8-1.35-1.8a1.362,1.362,0,0,0-1.05.45,1.7,1.7,0,0,0-.45,1.2V35h-1.5V28.1h1.35v1.05h0a3.981,3.981,0,0,1,.75-.9,2.42,2.42,0,0,1,1.35-.45,2.256,2.256,0,0,1,1.65.6,2.581,2.581,0,0,1,.75,2.25Z" transform="translate(2.65 -14.6)"/>
      <path id="Path_9447" data-name="Path 9447" class="cls-1" d="M149.95,29.75H148.3v3.3c0,.9.3,1.2.9,1.2h.75v1.2a2.924,2.924,0,0,1-1.2.15,1.462,1.462,0,0,1-1.35-.6,2.884,2.884,0,0,1-.45-1.8V29.75H145.9v-1.2h1.05v-1.2l1.5-.45v1.65h1.65v1.2Z" transform="translate(6.65 -15.05)"/>
      <path id="Path_9448" data-name="Path 9448" class="cls-1" d="M155.95,35.95h-1.5v-3.9q0-1.8-1.35-1.8a1.444,1.444,0,0,0-1.5,1.05v4.65h-1.5V25.9h1.5v4.2h0a2.394,2.394,0,0,1,2.1-1.2,1.739,1.739,0,0,1,1.5.6,3.376,3.376,0,0,1,.75,2.25Z" transform="translate(8.75 -15.55)"/>
      <path id="Path_9449" data-name="Path 9449" class="cls-1" d="M161.5,31.15v.75H157a2,2,0,0,0,.6,1.5,2.534,2.534,0,0,0,1.5.45,5.593,5.593,0,0,0,1.8-.3l.3,1.05a5.009,5.009,0,0,1-2.25.45,3.613,3.613,0,0,1-2.55-6A2.8,2.8,0,0,1,158.8,28a2.368,2.368,0,0,1,2.25,1.05A3.973,3.973,0,0,1,161.5,31.15Zm-1.35-.45a2.826,2.826,0,0,0-.3-1.2,1.217,1.217,0,0,0-1.2-.6,1.364,1.364,0,0,0-1.2.6,1.7,1.7,0,0,0-.45,1.2Z" transform="translate(11.45 -14.5)"/>
    </g>
  </g>
</svg>
