<svg xmlns="http://www.w3.org/2000/svg" viewBox="0 0 1781.719 1041.024">
  <defs>
    <style>
      .cls-1 {
        fill: #fff;
        stroke: #919191;
        stroke-width: 0.5px;
      }

      .cls-2 {
        fill: #248dc1;
      }
    </style>
  </defs>
  <g id="Group_71489" data-name="Group 71489" transform="translate(1420.25 -258.75)">
    <g id="Group_44535" data-name="Group 44535" transform="translate(-1420 259)">
      <path id="Path_31388" data-name="Path 31388" class="cls-1" d="M3.8,138.1V269.814s96.589-13.171,94.394,100.979V963.5H348.446V2H199.173S117.95,100.784,3.8,138.1Z" transform="translate(31.323 37.514)"/>
      <path id="Path_31389" data-name="Path 31389" class="cls-1" d="M94.4,1038.529V404.116h0c0-35.123-10.976-43.9-17.562-50.49h0c-8.781-6.586-21.952-8.781-28.538-8.781h-4.39L2.2,351.432V149.474l26.342-8.781C116.35,112.155,188.792,35.323,201.963,17.762h0a6.8,6.8,0,0,0,2.2-4.39h0L215.134.2H419.288V1038.529Zm26.342-746.368c28.538,19.757,50.49,59.27,48.294,111.955h0v4.39h0V963.892H344.651V77.032H250.257c-24.147,28.538-87.808,90-173.421,125.126h0V272.4c10.976,2.2,28.538,8.781,43.9,19.757Z" transform="translate(-2.2 -0.2)"/>
    </g>
    <g id="Group_44536" data-name="Group 44536" transform="translate(-968.608 261.195)">
      <path id="Path_31390" data-name="Path 31390" class="cls-1" d="M24.4,138.1V269.814s96.589-13.171,94.394,100.979V963.5H369.046V2H219.773S138.55,100.784,24.4,138.1Z" transform="translate(10.723 35.318)"/>
      <path id="Path_31391" data-name="Path 31391" class="cls-1" d="M115,1036.434V402.021h0c0-35.123-10.976-43.9-17.562-50.49h0c-8.781-6.586-21.952-8.781-28.538-8.781h-4.39L22.8,349.337V147.378L49.142,138.6C136.95,110.06,209.392,33.228,222.563,15.666h0a2.15,2.15,0,0,1,2.2-2.2h0L235.734.3H439.888V1038.629H115Zm26.342-746.367c28.538,19.757,50.49,59.27,48.294,111.955h0v4.39h0V961.8H365.251V74.937H270.857c-24.147,28.538-87.808,90-173.421,125.126h0v70.246c13.171,2.2,28.538,8.781,43.9,19.757Z" transform="translate(-22.8 -0.3)"/>
    </g>
    <g id="Group_44537" data-name="Group 44537" transform="translate(-513.898 259)">
      <path id="Path_31392" data-name="Path 31392" class="cls-1" d="M45.1,138.1V269.814s96.589-13.171,94.393,100.979V963.5H389.746V2H240.473C238.278,2,159.25,100.784,45.1,138.1Z" transform="translate(-9.977 37.514)"/>
      <path id="Path_31393" data-name="Path 31393" class="cls-1" d="M135.7,1038.529V404.116h0c0-35.123-10.976-43.9-17.562-50.49h0c-8.781-6.586-21.952-8.781-28.537-8.781h-4.39L43.5,351.432V149.474l26.342-8.781C157.65,112.155,230.092,35.323,243.263,17.762h0a6.8,6.8,0,0,0,2.2-4.39h0L256.434.2H460.588V1038.529Zm24.147-746.368c28.538,19.757,50.49,59.27,48.294,111.955h0v4.39h0V963.892H383.756V77.032H289.362c-24.147,28.538-87.808,90-173.421,125.126h0V272.4c13.171,2.2,28.538,8.781,43.9,19.757Z" transform="translate(-43.5 -0.2)"/>
    </g>
    <g id="Group_44542" data-name="Group 44542" transform="translate(-55.869 259)">
      <path id="Path_31392-2" data-name="Path 31392" class="cls-1" d="M45.1,138.1V269.814s96.589-13.171,94.393,100.979V963.5H389.746V2H240.473C238.278,2,159.25,100.784,45.1,138.1Z" transform="translate(-9.977 37.514)"/>
      <path id="Path_31393-2" data-name="Path 31393" class="cls-1" d="M135.7,1038.529V404.116h0c0-35.123-10.976-43.9-17.562-50.49h0c-8.781-6.586-21.952-8.781-28.537-8.781h-4.39L43.5,351.432V149.474l26.342-8.781C157.65,112.155,230.092,35.323,243.263,17.762h0a6.8,6.8,0,0,0,2.2-4.39h0L256.434.2H460.588V1038.529Zm24.147-746.368c28.538,19.757,50.49,59.27,48.294,111.955h0v4.39h0V963.892H383.756V77.032H289.362c-24.147,28.538-87.808,90-173.421,125.126h0V272.4c13.171,2.2,28.538,8.781,43.9,19.757Z" transform="translate(-43.5 -0.2)"/>
    </g>
    <path id="Intersection_1" data-name="Intersection 1" class="cls-2" d="M94.638,959.193V377.574l-4.39-61.467C72.686,263.423,15.611,265.619,6.83,265.619s-6.587-2.2-6.587-2.2V133.906c0-6.585,17.561-10.976,17.561-10.976C123.175,87.807,197.812,0,195.617,0H344.89V959.193Z" transform="translate(-932.099 304.028)"/>
    <path id="Intersection_2" data-name="Intersection 2" class="cls-2" d="M94.638,959.193V377.574l-4.39-61.467C72.686,263.423,15.611,265.619,6.83,265.619s-6.587-2.2-6.587-2.2V133.906c0-6.585,17.561-10.976,17.561-10.976C123.175,87.807,197.812,0,195.617,0H344.89V959.193Z" transform="translate(-1383.49 304.028)"/>
    <path id="Intersection_3" data-name="Intersection 3" class="cls-2" d="M94.638,959.193V377.574l-4.39-61.467C72.686,263.423,15.611,265.619,6.83,265.619s-6.587-2.2-6.587-2.2V133.906c0-6.585,17.561-10.976,17.561-10.976C123.175,87.807,197.812,0,195.617,0H344.89V959.193Z" transform="translate(-477.388 304.028)"/>
    <path id="Intersection_4" data-name="Intersection 4" class="cls-2" d="M94.638,959.193V377.574l-4.39-61.467C72.686,263.423,15.611,265.619,6.83,265.619s-6.587-2.2-6.587-2.2V133.906c0-6.585,17.561-10.976,17.561-10.976C123.175,87.807,197.812,0,195.617,0H344.89V959.193Z" transform="translate(-19.359 304.028)"/>
  </g>
</svg>
