<svg xmlns="http://www.w3.org/2000/svg" viewBox="0 0 365.987 92.964">
  <defs>
    <style>
      .cls-1 {
        fill: #fff;
      }
    </style>
  </defs>
  <g id="Group_71343" data-name="Group 71343" transform="translate(1972 -280.703)">
    <g id="Group_71342" data-name="Group 71342" transform="translate(-1977.2 276.8)">
      <g id="Group_26484" data-name="Group 26484" transform="translate(195.66 12.858)">
        <path id="Path_31384" data-name="Path 31384" class="cls-1" d="M108.457,16.949H103.6v6.54c1.055-.422,2.321-1.055,3.586-1.688l.633,3.586a27.285,27.285,0,0,1-4.219,1.9v13.08c0,2.321-1.688,3.586-4.852,3.586H96.01l-1.266-3.8h2.321c1.477,0,2.321,0,2.532-.211a1.1,1.1,0,0,0,.422-.844V28.763c-1.055.422-2.743,1.055-5.274,1.9L93.9,27.075c1.9-.633,4.008-1.477,6.118-2.321V16.738h-5.7V13.362h5.7V6.4h3.8v6.962h4.852v3.586Zm22.574-9.916c0,2.954-.211,5.7-.422,8.439a38.681,38.681,0,0,1-.633,5.274,3.072,3.072,0,0,1-1.266,1.9A4.946,4.946,0,0,1,126.6,23.7a27.192,27.192,0,0,1-4.852.211l-1.477-3.8h2.954c1.477,0,2.321,0,2.532-.211.422-.211.633-.633.633-1.688.211-.844.211-3.376.422-7.595h-6.962a18.2,18.2,0,0,1-8.439,14.557l-2.954-2.743c4.641-2.954,7.173-6.962,7.595-11.814H109.3V7.033Zm-1.055,37.131h-3.8V41.843H114.153v2.321h-3.8V26.653h19.831V44.164Zm-3.8-5.907V30.24H114.153v8.017Z" transform="translate(-93.9 -5.978)"/>
        <path id="Path_31385" data-name="Path 31385" class="cls-1" d="M153.719,34.037l-1.9,3.376a39.307,39.307,0,0,1-5.7-2.321,23.434,23.434,0,0,1-1.055,6.329,5.158,5.158,0,0,1-1.9,2.321,10.376,10.376,0,0,1-4.219.633h-2.11L135.575,41h2.743c1.688,0,2.532-.211,2.954-.633s.633-1.9.844-4.43h-7.806c-2.321,4.219-7.173,7.173-14.768,8.861l-1.9-3.165c5.907-1.055,9.916-2.954,12.447-5.7h-6.329V34.248a43.4,43.4,0,0,1-7.173,3.376L114.9,34.459a31.53,31.53,0,0,0,9.283-4.43h-8.861V27.075h12.025a11.593,11.593,0,0,0,1.477-1.9h-9.283V13.362h29.114v11.6H132.833l-1.266,1.9H153.3v2.954h-9.283A40.826,40.826,0,0,0,153.719,34.037ZM133.465,11.252H128.4v1.266h-3.8V11.252h-9.283V8.3H124.6V6.4h3.8V8.3h5.063Zm11.6,6.329V16.1H123.55v1.688h21.519Zm0,4.43V20.324H123.55v1.688Zm-2.532,10.759a16.476,16.476,0,0,1-3.376-3.165h-9.494c-.844.844-2.11,1.9-3.587,3.165H132.2l.422-2.11,3.586.211a6.16,6.16,0,0,1-.422,1.9Zm10.549-21.519H143.8v1.266h-3.8V11.252h-4.852V8.3h4.852V6.4h3.8V8.3h9.283Z" transform="translate(-70.596 -5.978)"/>
        <path id="Path_31386" data-name="Path 31386" class="cls-1" d="M154.876,12.318H143.484a33.707,33.707,0,0,1-4.852,4.43L136.1,13.584c3.376-2.321,5.485-4.641,6.54-7.384l4.008,1.055a6.318,6.318,0,0,1-.844,1.688h9.072Zm18.354,12.869h-3.8V20.968h-28.27v4.219h-3.8V17.8h15.612a9.251,9.251,0,0,0-1.055-1.9l4.43-.633a27.613,27.613,0,0,1,1.477,2.743h15.4ZM169.222,42.7h-23v1.688h-3.8V23.078h25.316v8.228H146.227v2.321h23ZM150.868,16.116l-4.219.844a16.983,16.983,0,0,0-1.9-2.954l4.008-.844A9.63,9.63,0,0,1,150.868,16.116Zm13.08,12.447V26.031H146.227v2.532Zm1.266,11.181V36.791h-19.2v2.954Zm9.072-27.426H160.995a16.638,16.638,0,0,1-2.532,3.165l-3.586-1.9A28.912,28.912,0,0,0,159.94,6.2l4.008,1.055a5.841,5.841,0,0,1-1.055,1.688h11.392v3.376Zm-5.907,4.008-4.219.633a16.733,16.733,0,0,0-1.688-3.376l4.219-.422A11.182,11.182,0,0,1,168.379,16.327Z" transform="translate(-47.07 -6.2)"/>
        <path id="Path_31387" data-name="Path 31387" class="cls-1" d="M170.491,34.326a104.126,104.126,0,0,1-12.025,6.329L157.2,37.069c1.055-.422,2.743-1.266,5.274-2.321V23.989h-4.219V20.4h4.219V11.541h-4.852V8.166H170.7v3.376h-4.43v8.65h3.8v3.586h-3.8v8.861a44.647,44.647,0,0,0,4.43-2.321Zm24.684,8.439H170.28V39.178h10.76V34.959h-9.072V31.584h9.072v-3.8h-8.861V6.9H193.7V27.786h-8.65v3.8h9.283v3.376h-9.283v4.219h10.338v3.586ZM181.04,15.55V10.276h-5.063V15.55Zm0,8.861v-5.7h-5.063v5.7Zm8.65-8.861V10.276h-5.063V15.55Zm0,8.861v-5.7h-5.063v5.7Z" transform="translate(-23.656 -5.423)"/>
      </g>
      <path id="Exclusion_1" data-name="Exclusion 1" class="cls-1" d="M2325.512-251.905H2131.525V-276.8h193.987v24.894Zm-30.168-15.4h0v1.477h1.476v5.908a4.882,4.882,0,0,0,.422,2.32c.192.576.93.844,2.321.844a2.727,2.727,0,0,0,.588-.09,3.856,3.856,0,0,1,.889-.122l-.212-1.265h-.843a1.24,1.24,0,0,1-1.055-.422,1.586,1.586,0,0,1-.212-1.055v-6.118h1.9v-1.477h-1.9v-3.586l-1.9,1.055v2.532Zm-23,0h0v10.549h1.9v-5.486a4.565,4.565,0,0,1,.421-2.532c0-.422.429-.636.844-.843a3.9,3.9,0,0,1,1.477-.422,1.717,1.717,0,0,1,1.688.843c.211.212.211.855.211,1.477v6.751H2281v-6.118a2.852,2.852,0,0,1,.421-1.9,2.731,2.731,0,0,1,2.321-1.055c1.134,0,1.7.252,1.9.843a3.636,3.636,0,0,1,.211,1.688v6.539h2.11v-6.962a3.235,3.235,0,0,0-3.587-3.586,4.13,4.13,0,0,0-3.586,1.9,3.378,3.378,0,0,0-3.375-1.9,4.073,4.073,0,0,0-3.376,1.688v-1.477Zm-18.987-.422a6.086,6.086,0,0,0-3.586,1.055,6.019,6.019,0,0,0-1.688,4.431,5.918,5.918,0,0,0,1.266,3.8,5.109,5.109,0,0,0,4.009,1.688,5.654,5.654,0,0,0,2.532-.633,4.071,4.071,0,0,0,2.32-3.165l-2.11-.211a2.667,2.667,0,0,1-2.954,2.532c-2.129,0-3.164-1.311-3.164-4.009a4.615,4.615,0,0,1,.818-3.033,3.129,3.129,0,0,1,2.558-.976,2.461,2.461,0,0,1,2.532,2.11l1.9-.211a2.386,2.386,0,0,0-.633-1.688A4.666,4.666,0,0,0,2253.361-267.728Zm55.905,2.75h0v.2c.21.842.42,1.471.422,1.477l1.9,6.329h2.11l3.586-10.548h-2.109l-1.9,6.118a1.378,1.378,0,0,1-.133.567.752.752,0,0,0-.079.276,5.76,5.76,0,0,1-.23.578,1.562,1.562,0,0,0-.192.689,1.324,1.324,0,0,1-.249-.632c-.043-.184-.092-.391-.173-.634a1.379,1.379,0,0,0-.133-.566.756.756,0,0,1-.079-.277l-1.687-6.118h-1.9l-1.9,6.118-.211.422a15.706,15.706,0,0,1-.422,1.688c-.115-.287-.216-.532-.3-.729l-.017-.04a3.492,3.492,0,0,1-.318-.918l-1.9-6.54h-2.11l3.587,10.548h2.11Zm-18.353,5.9v2.11h2.321v-2.11Zm-26.16-8.861a5.535,5.535,0,0,0-4.219,1.688,5.914,5.914,0,0,0-1.266,3.8c0,1.947.306,3.047,1.055,3.8a5.9,5.9,0,0,0,4.22,1.688,5.133,5.133,0,0,0,4.219-1.687,5.183,5.183,0,0,0,1.265-3.8,6.807,6.807,0,0,0-1.687-4.431A6.53,6.53,0,0,0,2264.753-267.939Zm-21.73,8.861v2.11h2.32v-2.11Zm-7.807-9.283v11.392h2.11v-14.557h-1.265c-.8,1.4-2.187,2.471-4.641,3.587v1.687a10.855,10.855,0,0,0,3.8-2.108Zm-12.236,0v11.392h2.111v-14.557h-1.266c-.8,1.4-2.188,2.472-4.641,3.587v1.687a10.855,10.855,0,0,0,3.8-2.108Zm-12.235,0v11.392h2.109v-14.557h-1.266c-.8,1.4-2.187,2.471-4.641,3.587v1.687a10.86,10.86,0,0,0,3.8-2.108Zm-12.237,0v11.392h2.11v-14.557h-1.266c-.8,1.4-2.187,2.471-4.641,3.587v1.687a10.859,10.859,0,0,0,3.8-2.108Zm-10.76,9.283v2.11h2.32v-2.11Zm-9.918-5.9h0v.2c.191.762.384,1.361.421,1.473l1.9,6.333h2.11l3.586-10.548h-2.11l-1.9,6.118a1.384,1.384,0,0,1-.132.567.756.756,0,0,0-.078.276,5.817,5.817,0,0,1-.23.576,1.567,1.567,0,0,0-.192.69,1.323,1.323,0,0,1-.248-.632c-.043-.184-.093-.391-.174-.635a1.392,1.392,0,0,0-.132-.566.76.76,0,0,1-.079-.277l-1.688-6.118h-1.9l-1.9,6.118-.211.422a15.675,15.675,0,0,1-.422,1.688c-.127-.318-.24-.591-.315-.771a3.479,3.479,0,0,1-.318-.916l-1.9-6.54h-3.8l-1.9,6.118a1.384,1.384,0,0,1-.133.567.749.749,0,0,0-.079.276,5.8,5.8,0,0,1-.228.571l0,.007a1.56,1.56,0,0,0-.192.688,1.323,1.323,0,0,1-.248-.631v-.006c-.043-.182-.092-.389-.172-.629a1.379,1.379,0,0,0-.133-.566.761.761,0,0,1-.079-.277l-1.9-6.118h-1.9l-1.9,6.118-.21.422a15.7,15.7,0,0,1-.422,1.688c-.117-.293-.22-.541-.3-.741l-.012-.03a3.479,3.479,0,0,1-.318-.916l-1.9-6.54h-4.009l-1.9,6.118a1.384,1.384,0,0,1-.132.567.757.757,0,0,0-.078.276,5.756,5.756,0,0,1-.23.578,1.563,1.563,0,0,0-.192.689,1.325,1.325,0,0,1-.249-.632c-.041-.173-.091-.388-.173-.634a1.38,1.38,0,0,0-.132-.566.761.761,0,0,1-.078-.277l-1.687-6.118h-1.9l-1.9,6.118-.211.422a15.7,15.7,0,0,1-.422,1.688c-.115-.288-.217-.534-.3-.732l-.016-.038a3.494,3.494,0,0,1-.318-.918l-1.9-6.54h-2.11l3.586,10.548h2.11l2.321-8.016v.211c.19.762.383,1.361.42,1.473l1.9,6.333h2.109l3.481-10.238,3.481,10.238h2.11l2.321-8.016v.211c.19.762.383,1.361.42,1.473l1.9,6.333h2.11l3.481-10.238,3.481,10.238h2.11Zm86.711,6.744a3.551,3.551,0,0,1-2.111-.633,4.47,4.47,0,0,1-1.265-3.376,3.719,3.719,0,0,1,1.265-3.164,3.552,3.552,0,0,1,2.111-.633,3.15,3.15,0,0,1,2.32.843,4.178,4.178,0,0,1,1.055,2.954,4.521,4.521,0,0,1-.633,2.532A2.851,2.851,0,0,1,2264.542-258.234Z" transform="translate(-1954.325 343.456)"/>
    </g>
    <g id="_1111ws" data-name="1111ws" transform="translate(-588.509 -23.325)">
      <path id="Intersection_1" data-name="Intersection 1" class="cls-1" d="M9.172,92.964V36.594l-.425-5.957c-1.7-5.106-7.234-4.893-8.085-4.893S.023,25.53.023,25.53V12.978c0-.638,1.7-1.064,1.7-1.064C11.937,8.51,19.171,0,18.958,0H33.426V92.964Z" transform="translate(-1339.742 304.028)"/>
      <path id="Intersection_2" data-name="Intersection 2" class="cls-1" d="M9.172,92.964V36.594l-.425-5.957c-1.7-5.106-7.234-4.893-8.085-4.893S.023,25.53.023,25.53V12.978c0-.638,1.7-1.064,1.7-1.064C11.937,8.51,19.171,0,18.958,0H33.426V92.964Z" transform="translate(-1383.49 304.028)"/>
      <path id="Intersection_3" data-name="Intersection 3" class="cls-1" d="M9.172,92.964V36.594l-.425-5.957c-1.7-5.106-7.234-4.893-8.085-4.893S.023,25.53.023,25.53V12.978c0-.638,1.7-1.064,1.7-1.064C11.937,8.51,19.171,0,18.958,0H33.426V92.964Z" transform="translate(-1295.672 304.028)"/>
      <path id="Intersection_4" data-name="Intersection 4" class="cls-1" d="M9.172,92.964V36.594l-.425-5.957c-1.7-5.106-7.234-4.893-8.085-4.893S.023,25.53.023,25.53V12.978c0-.638,1.7-1.064,1.7-1.064C11.937,8.51,19.171,0,18.958,0H33.426V92.964Z" transform="translate(-1251.28 304.028)"/>
    </g>
  </g>
</svg>
