<svg xmlns="http://www.w3.org/2000/svg" xmlns:xlink="http://www.w3.org/1999/xlink" viewBox="0 0 369.988 98.553">
  <defs>
    <style>
      .cls-1 {
        fill: url(#linear-gradient);
      }

      .cls-2 {
        fill: #fff;
      }

      .cls-3 {
        fill: url(#linear-gradient-2);
      }

      .cls-4 {
        fill: url(#linear-gradient-3);
      }

      .cls-5 {
        fill: url(#linear-gradient-4);
      }

      .cls-6 {
        fill: url(#linear-gradient-5);
      }
    </style>
    <linearGradient id="linear-gradient" x1="0.5" x2="0.5" y2="1" gradientUnits="objectBoundingBox">
      <stop offset="0" stop-color="#231815"/>
      <stop offset="1" stop-color="#6c6462"/>
    </linearGradient>
    <linearGradient id="linear-gradient-2" x1="1" y1="1" x2="1" gradientUnits="objectBoundingBox">
      <stop offset="0" stop-color="#d50918"/>
      <stop offset="1" stop-color="#ff4b2b"/>
    </linearGradient>
    <linearGradient id="linear-gradient-3" x1="0.742" y1="1" x2="0.742" y2="0" xlink:href="#linear-gradient-2"/>
    <linearGradient id="linear-gradient-4" x1="0.742" y1="1" x2="0.832" y2="0" xlink:href="#linear-gradient-2"/>
    <linearGradient id="linear-gradient-5" x1="0.832" y1="1" x2="0.772" y2="0" xlink:href="#linear-gradient-2"/>
  </defs>
  <g id="_1111" data-name="1111" transform="translate(-1.199 -0.197)">
    <rect id="Rectangle_20" data-name="Rectangle 20" class="cls-1" width="348.312" height="24.895" transform="translate(22.875 66.656)"/>
    <g id="red-1111" transform="translate(1.12 0.12)">
      <g id="圖層_1" data-name="圖層 1" transform="translate(0.08 0.08)">
        <g id="Group_71901" data-name="Group 71901">
          <path id="Union_81" data-name="Union 81" class="cls-2" d="M-6928.13-2494.45v-60.213c0-3.343-1.033-4.163-1.67-4.8a5.138,5.138,0,0,0-2.735-.822h-.455l-4.011.608v-19.138l2.521-.851a40.636,40.636,0,0,0,16.649-11.665.7.7,0,0,0,.212-.427l1.032-1.245h19.6v98.552Z" transform="translate(6937 2593)"/>
          <path id="Path_74681" data-name="Path 74681" class="cls-3" d="M2.917,13.047s-1.671.4-1.671,1.033v12.3s-.213.182.638.182a7.838,7.838,0,0,1,7.99,4.8L10.3,37.2V92.43h24V1.29H19.99A40.83,40.83,0,0,1,2.917,13.047Z" transform="translate(2.248 2.386)"/>
        </g>
        <g id="Group_71900" data-name="Group 71900" transform="translate(0.431)">
          <path id="Union_82" data-name="Union 82" class="cls-2" d="M-6928.13-2494.45v-60.213c0-3.343-1.033-4.163-1.67-4.8a5.138,5.138,0,0,0-2.735-.822h-.455l-4.011.608v-19.138l2.521-.851a40.636,40.636,0,0,0,16.649-11.665.7.7,0,0,0,.212-.427l1.032-1.245h19.6v98.552Z" transform="translate(6982.57 2593)"/>
          <path id="Path_74682" data-name="Path 74682" class="cls-4" d="M17.917,13.047s-1.671.4-1.671,1.033v12.3s-.213.182.638.182a7.838,7.838,0,0,1,7.99,4.8L25.3,37.2V92.43h24V1.29H34.99A40.83,40.83,0,0,1,17.917,13.047Z" transform="translate(32.817 2.386)"/>
        </g>
        <g id="Group_71898" data-name="Group 71898" transform="translate(-0.139)">
          <path id="Union_83" data-name="Union 83" class="cls-2" d="M-6928.13-2494.45v-60.213c0-3.343-1.033-4.163-1.67-4.8a5.138,5.138,0,0,0-2.735-.822h-.455l-4.011.608v-19.138l2.521-.851a40.636,40.636,0,0,0,16.649-11.665.7.7,0,0,0,.212-.427l1.032-1.245h19.6v98.552Z" transform="translate(7028.14 2593)"/>
          <path id="Path_74683" data-name="Path 74683" class="cls-5" d="M32.917,13.047s-1.671.4-1.671,1.033v12.3s-.213.182.638.182a7.838,7.838,0,0,1,7.99,4.8L40.3,37.2V92.43h24V1.29H49.99A40.83,40.83,0,0,1,32.917,13.047Z" transform="translate(63.387 2.386)"/>
        </g>
        <g id="Group_71899" data-name="Group 71899" transform="translate(0.292)">
          <path id="Union_80" data-name="Union 80" class="cls-2" d="M-6928.13-2494.45v-60.213c0-3.343-1.033-4.163-1.67-4.8a5.138,5.138,0,0,0-2.735-.822h-.455l-4.011.608v-19.138l2.521-.851a40.636,40.636,0,0,0,16.649-11.665.7.7,0,0,0,.212-.427l1.032-1.245h19.6v98.552Z" transform="translate(7073.709 2593)"/>
          <path id="Path_74684" data-name="Path 74684" class="cls-6" d="M47.917,13.047s-1.671.4-1.671,1.033v12.3s-.213.182.638.182a7.838,7.838,0,0,1,7.99,4.8L55.3,37.2V92.43h24V1.29H64.99A40.83,40.83,0,0,1,47.917,13.047Z" transform="translate(93.957 2.386)"/>
        </g>
      </g>
    </g>
    <g id="Group_26505" data-name="Group 26505" transform="translate(183.846 71.93)">
      <path id="Path_32388" data-name="Path 32388" class="cls-2" d="M104.334,36.1l-3.586,10.549h-2.11l-1.9-6.329s-.211-.633-.422-1.477v-.211h0L94,46.649H91.89L88.3,36.1h2.11l1.9,6.54a9.32,9.32,0,0,0,.633,1.688,15.5,15.5,0,0,0,.422-1.688l.211-.422,1.9-6.118h1.9l1.688,6.118c0,.211.211.422.211.844.211.633.211,1.055.422,1.266h0c0-.422.211-.633.422-1.266,0-.211.211-.422.211-.844l1.9-6.118h2.11Z" transform="translate(-88.3 -32.092)"/>
      <path id="Path_32389" data-name="Path 32389" class="cls-2" d="M111.834,36.1l-3.586,10.549h-2.11l-1.9-6.329s-.211-.633-.422-1.477v-.211h0L101.5,46.649H99.39L95.8,36.1h2.11l1.9,6.54a9.318,9.318,0,0,0,.633,1.688,15.5,15.5,0,0,0,.422-1.688l.211-.422,1.9-6.118h1.9l1.9,6.118c0,.211.211.422.211.844.211.633.211,1.055.422,1.266h0c0-.422.211-.633.422-1.266,0-.211.211-.422.211-.844l1.9-6.118Z" transform="translate(-79.977 -32.092)"/>
      <path id="Path_32390" data-name="Path 32390" class="cls-2" d="M119.334,36.1l-3.586,10.549h-2.11l-1.9-6.329s-.211-.633-.422-1.477v-.211h0L109,46.649h-2.11L103.3,36.1h2.11l1.9,6.54a9.318,9.318,0,0,0,.633,1.688,15.5,15.5,0,0,0,.422-1.688l.211-.422,1.9-6.118h1.9l1.688,6.118c0,.211.211.422.211.844.211.633.211,1.055.422,1.266h0c0-.422.211-.633.422-1.266,0-.211.211-.422.211-.844l1.9-6.118h2.11Z" transform="translate(-71.654 -32.092)"/>
      <path id="Path_32391" data-name="Path 32391" class="cls-2" d="M114.121,42.21H111.8V40.1h2.321Z" transform="translate(-62.222 -27.653)"/>
      <path id="Path_32392" data-name="Path 32392" class="cls-2" d="M120.8,48.757h-1.9V37.365a11.063,11.063,0,0,1-3.8,2.11V37.787c2.321-1.055,3.8-2.11,4.641-3.586h1.266V48.757Z" transform="translate(-58.56 -34.2)"/>
      <path id="Path_32393" data-name="Path 32393" class="cls-2" d="M126.6,48.757h-1.9V37.365a11.063,11.063,0,0,1-3.8,2.11V37.787c2.321-1.055,3.8-2.11,4.641-3.586h1.266V48.757Z" transform="translate(-52.124 -34.2)"/>
      <path id="Path_32394" data-name="Path 32394" class="cls-2" d="M132.4,48.757h-1.9V37.365a11.063,11.063,0,0,1-3.8,2.11V37.787c2.321-1.055,3.8-2.11,4.641-3.586h1.266V48.757Z" transform="translate(-45.687 -34.2)"/>
      <path id="Path_32395" data-name="Path 32395" class="cls-2" d="M138.2,48.757h-1.9V37.365a11.063,11.063,0,0,1-3.8,2.11V37.787c2.321-1.055,3.8-2.11,4.641-3.586h1.266V48.757Z" transform="translate(-39.251 -34.2)"/>
      <path id="Path_32396" data-name="Path 32396" class="cls-2" d="M140.321,42.21H138V40.1h2.321Z" transform="translate(-33.148 -27.653)"/>
      <path id="Path_32397" data-name="Path 32397" class="cls-2" d="M150.527,43.173a4.056,4.056,0,0,1-2.321,3.165,5.617,5.617,0,0,1-2.532.633,5.078,5.078,0,0,1-4.008-1.688,5.89,5.89,0,0,1-1.266-3.8,6.043,6.043,0,0,1,1.688-4.43A6.034,6.034,0,0,1,145.674,36a4.635,4.635,0,0,1,3.8,1.688,2.4,2.4,0,0,1,.633,1.688l-1.9.211a2.468,2.468,0,0,0-2.532-2.11c-2.321,0-3.376,1.266-3.376,4.008s1.055,4.008,3.165,4.008a2.67,2.67,0,0,0,2.954-2.532Z" transform="translate(-30.484 -32.203)"/>
      <path id="Path_32398" data-name="Path 32398" class="cls-2" d="M156.46,41.385a5.081,5.081,0,0,1-5.485,5.485,5.891,5.891,0,0,1-4.219-1.688c-.844-.844-1.055-2.11-1.055-3.8a5.89,5.89,0,0,1,1.266-3.8,5.547,5.547,0,0,1,4.219-1.688,6.538,6.538,0,0,1,3.586,1.055,6.808,6.808,0,0,1,1.688,4.436Zm-2.11.211a4.174,4.174,0,0,0-1.055-2.954,3.173,3.173,0,0,0-2.321-.844,3.564,3.564,0,0,0-2.11.633A3.7,3.7,0,0,0,147.6,41.6a4.454,4.454,0,0,0,1.266,3.376,3.564,3.564,0,0,0,2.11.633,2.862,2.862,0,0,0,2.743-1.477,4.5,4.5,0,0,0,.631-2.532Z" transform="translate(-24.603 -32.314)"/>
      <path id="Path_32399" data-name="Path 32399" class="cls-2" d="M167.3,46.649h-1.9v-6.54a3.626,3.626,0,0,0-.211-1.688c-.211-.633-.844-.844-1.9-.844a2.722,2.722,0,0,0-2.321,1.055,2.836,2.836,0,0,0-.422,1.9V46.65h-2.11V39.9c0-.633,0-1.266-.211-1.477a1.712,1.712,0,0,0-1.688-.844A3.911,3.911,0,0,0,155.06,38c-.422.211-.844.422-.844.844a4.569,4.569,0,0,0-.422,2.532v5.485h-1.9V36.311h1.688v1.477h0a4.1,4.1,0,0,1,3.376-1.688,3.381,3.381,0,0,1,3.376,1.9,4.145,4.145,0,0,1,3.587-1.9,3.228,3.228,0,0,1,3.586,3.587v6.962Z" transform="translate(-17.723 -32.092)"/>
      <path id="Path_32400" data-name="Path 32400" class="cls-2" d="M163.021,42.21H160.7V40.1h2.321Z" transform="translate(-7.957 -27.653)"/>
      <path id="Path_32401" data-name="Path 32401" class="cls-2" d="M168.5,48.424c-.633,0-1.055.211-1.477.211-1.266,0-2.11-.211-2.321-.844a4.92,4.92,0,0,1-.422-2.321V39.563H162.8V38.086h1.477V35.555l1.9-1.055v3.586h1.9v1.477h-1.9v6.118a1.581,1.581,0,0,0,.211,1.055,1.24,1.24,0,0,0,1.055.422h.844Z" transform="translate(-5.627 -33.867)"/>
      <path id="Path_32402" data-name="Path 32402" class="cls-2" d="M181.634,36.1l-3.587,10.549h-2.11l-1.9-6.329s-.211-.633-.422-1.477v-.211h0L171.3,46.649h-2.11L165.6,36.1h2.11l1.9,6.54a9.323,9.323,0,0,0,.633,1.688,15.491,15.491,0,0,0,.422-1.688l.211-.422,1.9-6.118h1.9l1.688,6.118c0,.211.211.422.211.844.211.633.211,1.055.422,1.266h0c0-.422.211-.633.422-1.266,0-.211.211-.422.211-.844l1.9-6.118h2.11Z" transform="translate(-2.52 -32.092)"/>
    </g>
    <g id="Group_71897" data-name="Group 71897" transform="translate(192.66 14.858)">
      <path id="Path_31384" data-name="Path 31384" class="cls-1" d="M108.457,16.949H103.6v6.54c1.055-.422,2.321-1.055,3.586-1.688l.633,3.586a27.286,27.286,0,0,1-4.219,1.9v13.08c0,2.321-1.688,3.586-4.852,3.586H96.01l-1.266-3.8h2.321c1.477,0,2.321,0,2.532-.211a1.1,1.1,0,0,0,.422-.844V28.763c-1.055.422-2.743,1.055-5.274,1.9L93.9,27.075c1.9-.633,4.008-1.477,6.118-2.321V16.738h-5.7V13.362h5.7V6.4h3.8v6.962h4.852v3.586Zm22.574-9.916c0,2.954-.211,5.7-.422,8.439a38.681,38.681,0,0,1-.633,5.274,3.072,3.072,0,0,1-1.266,1.9A4.946,4.946,0,0,1,126.6,23.7a27.192,27.192,0,0,1-4.852.211l-1.477-3.8h2.954c1.477,0,2.321,0,2.532-.211.422-.211.633-.633.633-1.688.211-.844.211-3.376.422-7.595H119.85a18.2,18.2,0,0,1-8.439,14.557l-2.954-2.743c4.641-2.954,7.173-6.962,7.6-11.814H109.3V7.033Zm-1.055,37.131h-3.8V41.843H114.153v2.321h-3.8V26.653h19.831V44.164Zm-3.8-5.907V30.24H114.153v8.017Z" transform="translate(-93.9 -5.978)"/>
      <path id="Path_31385" data-name="Path 31385" class="cls-1" d="M153.719,34.037l-1.9,3.376a39.307,39.307,0,0,1-5.7-2.321,23.435,23.435,0,0,1-1.055,6.329,5.158,5.158,0,0,1-1.9,2.321,10.376,10.376,0,0,1-4.219.633h-2.11L135.575,41h2.743c1.688,0,2.532-.211,2.954-.633s.633-1.9.844-4.43H134.31c-2.321,4.219-7.173,7.173-14.768,8.861l-1.9-3.165c5.907-1.055,9.916-2.954,12.447-5.7H123.76V34.248a43.4,43.4,0,0,1-7.173,3.376L114.9,34.459a31.53,31.53,0,0,0,9.283-4.43h-8.861V27.075h12.025a11.592,11.592,0,0,0,1.477-1.9h-9.283V13.362h29.114v11.6H132.833l-1.266,1.9H153.3v2.954h-9.283a40.826,40.826,0,0,0,9.7,4.221ZM133.465,11.252H128.4v1.266h-3.8V11.252h-9.283V8.3H124.6V6.4h3.8V8.3h5.063Zm11.6,6.329V16.1H123.55v1.688h21.519Zm0,4.43V20.324H123.55v1.688ZM142.533,32.77a16.476,16.476,0,0,1-3.376-3.165h-9.494c-.844.844-2.11,1.9-3.587,3.165H132.2l.422-2.11,3.586.211a6.16,6.16,0,0,1-.422,1.9Zm10.549-21.519H143.8v1.266H140V11.252h-4.852V8.3H140V6.4h3.8V8.3h9.283Z" transform="translate(-70.596 -5.978)"/>
      <path id="Path_31386" data-name="Path 31386" class="cls-1" d="M154.876,12.318H143.484a33.707,33.707,0,0,1-4.852,4.43L136.1,13.584c3.376-2.321,5.485-4.641,6.54-7.384l4.008,1.055a6.318,6.318,0,0,1-.844,1.688h9.072ZM173.23,25.187h-3.8V20.968H141.16v4.219h-3.8V17.8h15.612a9.25,9.25,0,0,0-1.055-1.9l4.43-.633a27.613,27.613,0,0,1,1.477,2.743h15.4ZM169.222,42.7h-23v1.688h-3.8V23.078h25.316v8.228H146.227v2.321h23ZM150.868,16.116l-4.219.844a16.984,16.984,0,0,0-1.9-2.954l4.008-.844a9.63,9.63,0,0,1,2.111,2.954Zm13.08,12.447V26.031H146.227v2.532Zm1.266,11.181V36.791h-19.2v2.954Zm9.072-27.426H160.995a16.638,16.638,0,0,1-2.532,3.165l-3.586-1.9A28.912,28.912,0,0,0,159.94,6.2l4.008,1.055a5.841,5.841,0,0,1-1.055,1.688h11.392v3.376Zm-5.907,4.008-4.219.633a16.733,16.733,0,0,0-1.688-3.376l4.219-.422a11.182,11.182,0,0,1,1.688,3.166Z" transform="translate(-47.07 -6.2)"/>
      <path id="Path_31387" data-name="Path 31387" class="cls-1" d="M170.491,34.326a104.126,104.126,0,0,1-12.025,6.329L157.2,37.069c1.055-.422,2.743-1.266,5.274-2.321V23.989h-4.219V20.4h4.219V11.541h-4.852V8.166H170.7v3.376h-4.43v8.65h3.8v3.586h-3.8v8.861a44.644,44.644,0,0,0,4.43-2.321Zm24.684,8.439h-24.9V39.178h10.76V34.959h-9.072V31.584h9.072v-3.8h-8.861V6.9H193.7V27.786h-8.65v3.8h9.283v3.376H185.05v4.219h10.338v3.586ZM181.04,15.55V10.276h-5.063V15.55Zm0,8.861v-5.7h-5.063v5.7Zm8.65-8.861V10.276h-5.063V15.55Zm0,8.861v-5.7h-5.063v5.7Z" transform="translate(-23.656 -5.423)"/>
    </g>
  </g>
</svg>
