<svg xmlns="http://www.w3.org/2000/svg" viewBox="0 0 1709.021 959.193">
  <defs>
    <style>
      .cls-1 {
        fill: #142834;
      }
    </style>
  </defs>
  <g id="Group_71492" data-name="Group 71492" transform="translate(1383.49 -304.028)">
    <path id="Intersection_1" data-name="Intersection 1" class="cls-1" d="M94.638,959.193V377.574l-4.39-61.467C72.686,263.423,15.611,265.619,6.83,265.619s-6.587-2.2-6.587-2.2V133.906c0-6.585,17.561-10.976,17.561-10.976C123.175,87.807,197.812,0,195.617,0H344.89V959.193Z" transform="translate(-932.099 304.028)"/>
    <path id="Intersection_2" data-name="Intersection 2" class="cls-1" d="M94.638,959.193V377.574l-4.39-61.467C72.686,263.423,15.611,265.619,6.83,265.619s-6.587-2.2-6.587-2.2V133.906c0-6.585,17.561-10.976,17.561-10.976C123.175,87.807,197.812,0,195.617,0H344.89V959.193Z" transform="translate(-1383.49 304.028)"/>
    <path id="Intersection_3" data-name="Intersection 3" class="cls-1" d="M94.638,959.193V377.574l-4.39-61.467C72.686,263.423,15.611,265.619,6.83,265.619s-6.587-2.2-6.587-2.2V133.906c0-6.585,17.561-10.976,17.561-10.976C123.175,87.807,197.812,0,195.617,0H344.89V959.193Z" transform="translate(-477.388 304.028)"/>
    <path id="Intersection_4" data-name="Intersection 4" class="cls-1" d="M94.638,959.193V377.574l-4.39-61.467C72.686,263.423,15.611,265.619,6.83,265.619s-6.587-2.2-6.587-2.2V133.906c0-6.585,17.561-10.976,17.561-10.976C123.175,87.807,197.812,0,195.617,0H344.89V959.193Z" transform="translate(-19.359 304.028)"/>
  </g>
</svg>
