<svg xmlns="http://www.w3.org/2000/svg" viewBox="0 0 128 128.002">
  <defs>
    <style>
      .cls-1 {
        fill: #248dc1;
      }
    </style>
  </defs>
  <g id="check-sign-in-a-rounded-black-square" transform="translate(-0.003)">
    <path id="Path_74673" data-name="Path 74673" class="cls-1" d="M120.962,7.041A23.113,23.113,0,0,0,104,0H24A23.121,23.121,0,0,0,7.044,7.041,23.12,23.12,0,0,0,0,24v80A23.121,23.121,0,0,0,7.044,120.96,23.118,23.118,0,0,0,24,128h80a24.043,24.043,0,0,0,24-24V24A23.121,23.121,0,0,0,120.962,7.041ZM108.256,46.417,57.087,97.584a5.234,5.234,0,0,1-7.5,0L19.752,67.752a5.233,5.233,0,0,1,0-7.5l8.5-8.5a5.234,5.234,0,0,1,7.5,0L53.337,69.334,92.255,30.416a5.232,5.232,0,0,1,7.5,0l8.5,8.5a5.234,5.234,0,0,1,0,7.5Z"/>
  </g>
</svg>
