<svg xmlns="http://www.w3.org/2000/svg" xmlns:xlink="http://www.w3.org/1999/xlink" width="321.001" height="360.995" viewBox="0 0 321.001 360.995">
  <defs>
    <linearGradient id="linear-gradient" x1="1" y1="1" x2="1" gradientUnits="objectBoundingBox">
      <stop offset="0" stop-color="#d50918"/>
      <stop offset="1" stop-color="#ff4b2b"/>
    </linearGradient>
    <linearGradient id="linear-gradient-2" x1="0.742" x2="0.742" xlink:href="#linear-gradient"/>
    <linearGradient id="linear-gradient-3" x1="0.742" x2="0.832" xlink:href="#linear-gradient"/>
    <linearGradient id="linear-gradient-4" x1="0.832" x2="0.772" xlink:href="#linear-gradient"/>
  </defs>
  <g id="complete" transform="translate(-2243.001 -2366)">
    <g id="meeting_1_" data-name="meeting (1)" transform="translate(2243.001 2357.682)">
      <path id="Path_10002" data-name="Path 10002" d="M311.794,230.366H9.2a9.232,9.232,0,0,1-9.2-9.2V17.518a9.232,9.232,0,0,1,9.2-9.2H311.79a9.232,9.232,0,0,1,9.2,9.2V221.162A9.232,9.232,0,0,1,311.794,230.366Z" fill="#f9fcef"/>
      <g id="Group_7932" data-name="Group 7932" transform="translate(28.364 102.62)">
        <path id="Path_10003" data-name="Path 10003" d="M84.23,142.765H42.73a5.753,5.753,0,1,1,0-11.506h41.5a5.753,5.753,0,0,1,0,11.506Z" transform="translate(-36.977 -131.259)" fill="#9af7dd"/>
      </g>
      <g id="Group_7933" data-name="Group 7933" transform="translate(28.364 132.539)">
        <path id="Path_10004" data-name="Path 10004" d="M84.23,181.769H42.73a5.753,5.753,0,0,1,0-11.506h41.5a5.753,5.753,0,1,1,0,11.506Z" transform="translate(-36.977 -170.263)" fill="#6be8c7"/>
      </g>
      <g id="Group_7934" data-name="Group 7934" transform="translate(170.375 74.695)">
        <path id="Path_10005" data-name="Path 10005" d="M227.87,138.073a5.753,5.753,0,0,1-3.671-10.185l38.318-31.713a5.753,5.753,0,1,1,7.337,8.864l-38.318,31.713a5.736,5.736,0,0,1-3.666,1.321Z" transform="translate(-222.114 -94.854)" fill="#d3e8f1"/>
      </g>
      <g id="Group_7935" data-name="Group 7935" transform="translate(108.154 69.436)">
        <path id="Path_10006" data-name="Path 10006" d="M173.835,130.366a5.737,5.737,0,0,1-4.326-1.958L142.427,97.546a5.753,5.753,0,1,1,8.648-7.589l27.082,30.862a5.753,5.753,0,0,1-4.322,9.548Z" transform="translate(-140.998 -87.998)" fill="#d3e8f1"/>
      </g>
      <g id="Group_7936" data-name="Group 7936" transform="translate(282.185 32.169)">
        <path id="Path_10007" data-name="Path 10007" d="M373.631,108.824a5.753,5.753,0,0,1-5.753-5.753v-57.9a5.753,5.753,0,0,1,11.506,0v57.906a5.753,5.753,0,0,1-5.752,5.752Z" transform="translate(-367.878 -39.413)" fill="#a5e1bd"/>
      </g>
      <g id="Group_7937" data-name="Group 7937" transform="translate(32.224 32.169)">
        <path id="Path_10008" data-name="Path 10008" d="M47.763,64.43a5.753,5.753,0,0,1-5.753-5.753V45.166a5.753,5.753,0,0,1,11.506,0V58.677A5.753,5.753,0,0,1,47.763,64.43Z" transform="translate(-42.01 -39.413)" fill="#ffc5e5"/>
      </g>
      <g id="Group_7938" data-name="Group 7938" transform="translate(50.561 32.169)">
        <path id="Path_10009" data-name="Path 10009" d="M71.668,64.43a5.753,5.753,0,0,1-5.753-5.753V45.166a5.753,5.753,0,0,1,11.506,0V58.677A5.753,5.753,0,0,1,71.668,64.43Z" transform="translate(-65.915 -39.413)" fill="#ffc5e5"/>
      </g>
      <circle id="Ellipse_351" data-name="Ellipse 351" cx="27.574" cy="27.574" r="27.574" transform="translate(206.214 37.574)" fill="#fea8d6"/>
      <circle id="Ellipse_352" data-name="Ellipse 352" cx="24.127" cy="24.127" r="24.127" transform="translate(133.814 99.093)" fill="#6be8c7"/>
      <circle id="Ellipse_353" data-name="Ellipse 353" cx="14.477" cy="14.477" r="14.477" transform="translate(95.346 55.89)" fill="#fea8d6"/>
      <path id="Path_10011" data-name="Path 10011" d="M406.479,230.366a9.232,9.232,0,0,0,9.2-9.2V17.518a9.232,9.232,0,0,0-9.2-9.2" transform="translate(-94.685)" fill="#a5e1bd"/>
    </g>
    <ellipse id="Ellipse_347" data-name="Ellipse 347" cx="92.5" cy="24.5" rx="92.5" ry="24.5" transform="translate(2259.001 2677.995)" fill="#313131" opacity="0.201"/>
    <g id="Group_7797" data-name="Group 7797" transform="translate(2243 2397.995)">
      <g id="Group_7799" data-name="Group 7799" transform="translate(35.194 154.06)">
        <g id="Group_7798" data-name="Group 7798" transform="translate(0 40.894) rotate(-19.993)">
          <path id="Path_9733" data-name="Path 9733" d="M37.408,4.375S23.65,6.241,11.528,12.7C10.563,13.208,10.489-.766,9.262.034c0,0-3.7-.708-5.9,4.341S-.967,18.213.465,20.23c5.94,8.368,14.8,2.4,14.8,2.4S33.13,17.387,43.578,8.43C43.736,8.432,44.548,2.59,37.408,4.375Z" transform="translate(1.679 11.291)" fill="#fbe9e7"/>
          <path id="Path_9735" data-name="Path 9735" d="M5.5,2.063S-.936,3.36.116,7.87,4.3,9.58,4.3,9.58s-4.914.735.8,4.043,7.169,2.05,9.108-1.978,2.12-6.876-.135-10.183C12.114-2.147,5.5,2.063,5.5,2.063Z" transform="translate(19.189 14.987) rotate(164.991)" fill="#fbe9e7"/>
        </g>
        <path id="Path_9725" data-name="Path 9725" d="M55.709,170.247A145.518,145.518,0,0,1,53.6,185.175s11.683,2.921,21.744-.811c0,0-.162-10.385-3.894-15.74C67.879,163.269,60.253,164.4,55.709,170.247Z" transform="translate(30.224 -38.373)" fill="#212121"/>
        <path id="Path_9726" data-name="Path 9726" d="M51.972,149.716s1.623,21.581-2.272,37c0,0,14.442,6.653,34.4,0,0,0-4.543-31.317-8.438-39.755C71.768,138.682,57.489,139.493,51.972,149.716Z" transform="translate(27.796 -53.216)" fill="#283347"/>
        <path id="Path_9727" data-name="Path 9727" d="M48.238,167.693a137.592,137.592,0,0,0,1.785,14.928S39.8,185.542,31.2,181.81c0,0,0-10.385,3.408-15.74C37.853,160.553,44.506,161.689,48.238,167.693Z" transform="translate(16.277 -40.037)" fill="#212121"/>
        <path id="Path_9728" data-name="Path 9728" d="M55.81,147.016s-1.3,21.581,1.947,37c0,0-12.657,6.653-29.857,0,0,0,4.057-31.317,7.3-39.755C38.61,135.982,50.942,136.793,55.81,147.016Z" transform="translate(14.222 -54.897)" fill="#283347"/>
        <path id="Path_9729" data-name="Path 9729" d="M81.374,110.179s2.261,6.179,5.026,16.082C89.874,138.7,94.172,157.432,95,175.9c0,0-30.668,11.034-66.2,0,0,0,5.679-40.242,8.276-59.389C40.483,89.9,72.612,79.024,81.374,110.179Z" transform="translate(14.782 -84.426)" fill="#60c0eb"/>
        <path id="Path_9730" data-name="Path 9730" d="M3.36.657S.649,3.26,0,32.468c0,0,4.057,3.245,10.547.811,0,0-4.483-19.9,4.8-31.99C15.509,1.289,10.5-1.128,3.36.657Z" transform="translate(109.979 42.673) rotate(-123.007)" fill="#fbe9e7"/>
        <path id="Path_9731" data-name="Path 9731" d="M5.342,19.371S-3.907,5.9,1.935,1.359C9.074-4.32,19.459,9.635,19.459,9.635S15.89,17.261,5.342,19.371Z" transform="translate(91.123 36.385) rotate(-54.975)" fill="#60c0eb"/>
        <path id="Path_9732" data-name="Path 9732" d="M11.177,2.226s9.736,1.623,8.6,6.491-7.3,1.623-7.3,1.623,6.49,11.034.325,14.6S1.116,21.7.467,16.83-.506,5.147,1.928,1.577C4.037-2.317,11.177,2.226,11.177,2.226Z" transform="translate(134.052 27.79) rotate(-123.007)" fill="#fbe9e7"/>
        <path id="Path_9734" data-name="Path 9734" d="M38.917,125.433s9.249-13.468,3.408-18.011C35.185,101.742,24.8,115.7,24.8,115.7S28.37,123.324,38.917,125.433Z" transform="translate(12.292 -75.178)" fill="#60c0eb"/>
        <g id="圖層_1" data-name="圖層 1" transform="translate(56.623 49.607) rotate(-1)">
          <g id="Group_71901" data-name="Group 71901" transform="translate(-0.001 -0.003)">
            <path id="Union_81" data-name="Union 81" d="M-6935.08-2571.659V-2584.7c0-.724-.223-.9-.362-1.04a1.106,1.106,0,0,0-.592-.178h-.1l-.869.132v-4.145l.545-.184a8.8,8.8,0,0,0,3.606-2.526.159.159,0,0,0,.046-.093l.223-.27h4.245v21.343Z" transform="translate(6937.001 2593.003)" fill="#fff"/>
            <path id="Path_74681" data-name="Path 74681" d="M1.589,3.836s-.362.087-.362.224V6.724s-.046.039.138.039A1.7,1.7,0,0,1,3.1,7.8l.092,1.264V21.028h5.2V1.29h-3.1a8.843,8.843,0,0,1-3.7,2.546Z" transform="translate(-0.471 -0.493)" fill="url(#linear-gradient)"/>
          </g>
          <g id="Group_71900" data-name="Group 71900" transform="translate(9.962 -0.003)">
            <path id="Union_82" data-name="Union 82" d="M-6935.08-2571.659V-2584.7c0-.724-.223-.9-.362-1.04a1.106,1.106,0,0,0-.592-.178h-.1l-.869.132v-4.145l.545-.184a8.8,8.8,0,0,0,3.606-2.526.159.159,0,0,0,.046-.093l.223-.27h4.245v21.343Z" transform="translate(6937.001 2593.003)" fill="#fff"/>
            <path id="Path_74682" data-name="Path 74682" d="M16.589,3.836s-.362.087-.362.224V6.724s-.046.039.138.039A1.7,1.7,0,0,1,18.1,7.8l.092,1.264V21.028h5.2V1.29h-3.1a8.843,8.843,0,0,1-3.7,2.546Z" transform="translate(-15.471 -0.493)" fill="url(#linear-gradient-2)"/>
          </g>
          <g id="Group_71898" data-name="Group 71898" transform="translate(19.707 -0.003)">
            <path id="Union_83" data-name="Union 83" d="M-6935.08-2571.659V-2584.7c0-.724-.223-.9-.362-1.04a1.106,1.106,0,0,0-.592-.178h-.1l-.869.132v-4.145l.545-.184a8.8,8.8,0,0,0,3.606-2.526.159.159,0,0,0,.046-.093l.223-.27h4.245v21.343Z" transform="translate(6937.001 2593.003)" fill="#fff"/>
            <path id="Path_74683" data-name="Path 74683" d="M31.589,3.836s-.362.087-.362.224V6.724s-.046.039.138.039A1.7,1.7,0,0,1,33.1,7.8l.092,1.264V21.028h5.2V1.29h-3.1a8.843,8.843,0,0,1-3.7,2.546Z" transform="translate(-30.471 -0.493)" fill="url(#linear-gradient-3)"/>
          </g>
          <g id="Group_71899" data-name="Group 71899" transform="translate(29.67 -0.003)">
            <path id="Union_80" data-name="Union 80" d="M-6935.08-2571.659V-2584.7c0-.724-.223-.9-.362-1.04a1.106,1.106,0,0,0-.592-.178h-.1l-.869.132v-4.145l.545-.184a8.8,8.8,0,0,0,3.606-2.526.159.159,0,0,0,.046-.093l.223-.27h4.245v21.343Z" transform="translate(6937.001 2593.003)" fill="#fff"/>
            <path id="Path_74684" data-name="Path 74684" d="M46.589,3.836s-.362.087-.362.224V6.724s-.046.039.138.039A1.7,1.7,0,0,1,48.1,7.8l.092,1.264V21.028h5.2V1.29h-3.1a8.843,8.843,0,0,1-3.7,2.546Z" transform="translate(-45.471 -0.493)" fill="url(#linear-gradient-4)"/>
          </g>
        </g>
      </g>
      <g id="Group_7800" data-name="Group 7800" transform="matrix(0.985, -0.174, 0.174, 0.985, 0, 28.31)">
        <path id="Path_9736" data-name="Path 9736" d="M21.174,7.339C18.74-1.747,3.812-2.4,1.053,5.392-3.49,18.049,8.355,25.026,4.785,33.14-4.626,54.559,21.012,53.1,18.578,31.355,18.253,27.136,23.121,14.8,21.174,7.339Z" transform="translate(0 105.284) rotate(-3)" fill="#fbe9e7"/>
        <path id="Path_9737" data-name="Path 9737" d="M13.506,4.139l-1.46,15.253S2.634,20.041.687,13.226C-2.559,1.867,6.366-4.786,13.506,4.139Z" transform="translate(6.093 112.232) rotate(-3)" fill="#f1c3be"/>
        <path id="Path_9738" data-name="Path 9738" d="M71.2,0c27.423,0,52.087,12.657,57.117,44.3s8.762,65.068-2.758,79.51c-16.227,20.283-28.721,20.283-66.366,18.336-27.91-1.46-46.57-11.034-54.359-24.5C-5.389,99.793,2.724,62.959,9.7,40.08,18.951,10.06,48.97,0,71.2,0Z" transform="translate(13.955 33.453)" fill="#fbe9e7"/>
        <path id="Path_9739" data-name="Path 9739" d="M0,1.623S8.276,5.679,41.215,5.842,89.084,3.083,93.465,0c0,0,4.219,24.069-52.249,23.744C6.328,23.582,0,1.623,0,1.623Z" transform="translate(35.826 147.201)" fill="#e15e52"/>
        <path id="Path_9740" data-name="Path 9740" d="M.919,5.358c3.083-7.464,16.713-6.815,18.5,0,2.921,11.2-8.6,16.064-6,23.2,6.653,18.985-16.551,15.577-12.332-2.6C1.73,22.558-1.515,11.524.919,5.358Z" transform="translate(143.138 110.688)" fill="#fbe9e7"/>
        <path id="Path_9741" data-name="Path 9741" d="M0,2.959V16.1s8.438,1.3,10.872-4.219C14.766,2.31,7.464-4.018,0,2.959Z" transform="translate(145.355 116.818)" fill="#f1c3be"/>
        <path id="Path_9742" data-name="Path 9742" d="M36.347,17.849A17.973,17.973,0,0,1,18.174,35.7,17.973,17.973,0,0,1,0,17.849,17.973,17.973,0,0,1,18.174,0,17.973,17.973,0,0,1,36.347,17.849Z" transform="translate(81.26 83.755)" fill="#fff"/>
        <path id="Path_9743" data-name="Path 9743" d="M15.839,8.17c.263,4.662-2.9,8.62-7.384,8.859S.28,13.532.015,8.87,2.916.244,7.4.011C11.62-.223,15.576,3.274,15.839,8.17Z" transform="translate(90.025 94.099)" fill="#5d5d5d"/>
        <path id="Path_9744" data-name="Path 9744" d="M0,17.687A17.687,17.687,0,1,0,17.687,0,17.687,17.687,0,0,0,0,17.687Z" transform="translate(41.83 84.08)" fill="#fff"/>
        <path id="Path_9745" data-name="Path 9745" d="M14.954,7.959c.262,4.557-2.883,8.636-7.076,8.869S.278,13.476.015,8.919,2.9.283,7.092.043C11.023-.443,14.7,3.161,14.954,7.959Z" transform="translate(54.19 94.367)" fill="#5d5d5d"/>
        <path id="Path_9746" data-name="Path 9746" d="M1.541,1.593c2.439-2.44,13.477-1.975,15.219.7,1.743,2.788,1.278,9.178-1.162,10.34-4.763,2.323-12.315.931-14.176-.7C-.318,10.306-.667,3.8,1.541,1.593Z" transform="translate(72.175 123.928)" fill="#f1c3be"/>
        <path id="Path_9747" data-name="Path 9747" d="M36.88,10.859c2.759-1-.162-10.6-1.78-10.845C33.635-.236,1.02,3.005.371,4.626s-.487,8.352.811,8.726C2.48,13.85,31.039,12.853,36.88,10.859Z" transform="translate(44.696 65.446) rotate(22)" fill="#5d5d5d"/>
        <path id="Path_9748" data-name="Path 9748" d="M1.084,11.534C-1.837,10.431,1.895.133,3.517.01,5.14-.235,40.189,4.056,40.676,5.772c.487,1.839.162,8.949-1.3,9.317C37.918,15.58,7.087,13.863,1.084,11.534Z" transform="matrix(0.899, -0.438, 0.438, 0.899, 82.675, 82.296)" fill="#5d5d5d"/>
        <path id="Path_9749" data-name="Path 9749" d="M1.416,101.6C-.045,88.3-1.829,68.178,4.337,47.57,8.231,34.589,13.586,16.577,25.593,10.9,40.36,3.758,30.3,14.792,61.454,7.166,74.76,3.921,87.092-3.544,109,1.973c0,0,21.581,8.113,29.532,57.929v.162a156.162,156.162,0,0,1,2.921,34.725c0,3.245-2.6,18.985-5.03,20.932-3.732,3.083-3.894-.487-4.381-.649-1.3-.487,1.136-18.985.811-20.445C131.39,86.351,124.9,59.9,111.432,53.9c0,0-8.438-2.6-21.744,4.868C63.726,73.047,51.069,61.851,47.661,61.04c-.162,0-4.381-2.272-4.543-2.434-2.6-1.136-18.011-6.977-24.989,7.626,0,.162-.162.325-.325.487-.974,1.623-7.464,11.845-9.087,34.725-.162,1.3-4.057,15-4.381,16.784h0C4.174,117.414,2.227,108.582,1.416,101.6Z" transform="translate(11.855)" fill="#5d5d5d"/>
      </g>
    </g>
    <g id="welcome" transform="translate(2444.001 2579.335)">
      <g id="Group_7928" data-name="Group 7928" transform="translate(80.963 28.66)">
        <path id="Path_9985" data-name="Path 9985" d="M366.021,51.391H350.014a4.574,4.574,0,0,1-4.574-4.574v-5.58a12.578,12.578,0,1,1,25.155,0v5.58A4.574,4.574,0,0,1,366.021,51.391Z" transform="translate(-345.44 -28.66)" fill="#83655c"/>
        <path id="Path_9986" data-name="Path 9986" d="M366.021,361.117H350.014a4.574,4.574,0,0,1-4.574-4.574V328.276a4.574,4.574,0,0,1,4.574-4.574h16.008a4.574,4.574,0,0,1,4.574,4.574v28.268A4.573,4.573,0,0,1,366.021,361.117Z" transform="translate(-345.44 -254.552)" fill="#83655c"/>
      </g>
      <g id="Group_7929" data-name="Group 7929" transform="translate(13.883 28.66)">
        <path id="Path_9987" data-name="Path 9987" d="M79.813,51.391H63.806a4.574,4.574,0,0,1-4.574-4.574v-5.58a12.578,12.578,0,1,1,25.156,0v5.58A4.574,4.574,0,0,1,79.813,51.391Z" transform="translate(-59.232 -28.66)" fill="#83655c"/>
        <path id="Path_9988" data-name="Path 9988" d="M79.813,361.117H63.806a4.574,4.574,0,0,1-4.574-4.574V328.276a4.574,4.574,0,0,1,4.574-4.574H79.813a4.574,4.574,0,0,1,4.574,4.574v28.268a4.573,4.573,0,0,1-4.574,4.573Z" transform="translate(-59.232 -254.552)" fill="#83655c"/>
      </g>
      <path id="Path_9989" data-name="Path 9989" d="M109.328,151.331H10.672A10.684,10.684,0,0,1,0,140.659V97.289A10.684,10.684,0,0,1,10.672,86.617h98.656A10.684,10.684,0,0,1,120,97.289v43.37A10.684,10.684,0,0,1,109.328,151.331Z" transform="translate(0 -44.373)" fill="#f6ff00"/>
      <path id="Path_9990" data-name="Path 9990" d="M305.327,86.617H256v64.714h49.328A10.684,10.684,0,0,0,316,140.659V97.289a10.683,10.683,0,0,0-10.673-10.672Z" transform="translate(-195.999 -44.373)" fill="#f59d00" opacity="0.362"/>
      <g id="Group_7930" data-name="Group 7930" transform="translate(13.54 66.461)">
        <path id="Path_9991" data-name="Path 9991" d="M71.544,203.4c-.477,1.391-3.647,1.287-3.941,0l-1-4.578-1,4.578c-.3,1.3-3.51,1.372-3.941,0l-3.844-11.783c-.4-1.191,2.54-2.072,2.878-.889l2.936,9.91,1.526-6.529c.234-1.053,2.664-1.052,2.9,0l1.526,6.529,2.936-9.91c.337-1.181,3.272-.307,2.878.889Z" transform="translate(-57.772 -190.115)"/>
        <path id="Path_9992" data-name="Path 9992" d="M147.41,196.059h2.9c1.191,0,1.228,2.318,0,2.318h-2.9v3.284h5.177c1.194,0,1.232,2.627,0,2.627H145.71c-.657,0-1.314-.309-1.314-.927V191.094c0-.618.657-.927,1.314-.927h6.877c1.232,0,1.194,2.627,0,2.627H147.41Z" transform="translate(-124.094 -190.115)"/>
        <path id="Path_9993" data-name="Path 9993" d="M196.73,204.288c-.657,0-1.314-.309-1.314-.927V191.075c0-.637.754-.908,1.507-.908s1.507.27,1.507.908v10.586h4.4c1.159,0,1.159,2.627,0,2.627Z" transform="translate(-163.156 -190.115)"/>
        <path id="Path_9994" data-name="Path 9994" d="M245.752,192.625c-1.1,0-1.739.618-1.739,1.932v5.119c0,1.313.637,1.931,1.758,1.931,1.545,0,1.642-1.178,1.7-1.931.058-.715.715-.908,1.488-.908,1.043,0,1.526.27,1.526,1.43,0,5.1-9.485,5.976-9.485-.522v-5.119c0-6.512,9.485-5.544,9.485-.715,0,1.159-.483,1.429-1.507,1.429-.811,0-1.468-.213-1.507-.908a1.557,1.557,0,0,0-1.719-1.738Z" transform="translate(-198.056 -189.946)"/>
        <path id="Path_9995" data-name="Path 9995" d="M293.917,199.844v-5.119c0-3.322,2.067-4.559,4.733-4.559s4.752,1.236,4.752,4.559v5.119c0,3.323-2.086,4.559-4.752,4.559S293.917,203.167,293.917,199.844Zm6.471-5.119c0-1.333-.656-1.932-1.738-1.932s-1.719.6-1.719,1.932v5.119c0,1.333.637,1.931,1.719,1.931s1.738-.6,1.738-1.931Z" transform="translate(-238.571 -190.114)"/>
        <path id="Path_9996" data-name="Path 9996" d="M356.024,199.287a1.124,1.124,0,0,1-1.951,0l-1.835-3.361v7.437c0,1.236-3.014,1.236-3.014,0V191.676a1.394,1.394,0,0,1,1.507-1.507c1.081,0,1.545.116,2.337,1.507l1.99,3.477,1.99-3.477c.792-1.391,1.255-1.507,2.337-1.507a1.386,1.386,0,0,1,1.507,1.507v11.687c0,1.236-3.014,1.236-3.014,0v-7.244Z" transform="translate(-280.916 -190.117)"/>
        <path id="Path_9997" data-name="Path 9997" d="M417.519,196.059h2.9c1.191,0,1.228,2.318,0,2.318h-2.9v3.284H422.7c1.194,0,1.231,2.627,0,2.627h-6.877c-.657,0-1.314-.309-1.314-.927V191.094c0-.618.657-.927,1.314-.927H422.7c1.232,0,1.194,2.627,0,2.627h-5.177Z" transform="translate(-330.896 -190.115)"/>
      </g>
      <g id="Group_7931" data-name="Group 7931" transform="translate(60 66.46)">
        <path id="Path_9998" data-name="Path 9998" d="M260.442,198.765c-.771,0-1.43.192-1.488.909-.058.753-.152,1.93-1.7,1.93a1.724,1.724,0,0,1-1.256-.433v3c2.7.555,5.97-.982,5.97-3.979C261.969,199.036,261.484,198.765,260.442,198.765ZM256,190.057v2.991a1.7,1.7,0,0,1,1.235-.427,1.556,1.556,0,0,1,1.72,1.738c.04.7.7.909,1.506.909,1.024,0,1.509-.271,1.509-1.43C261.969,191,258.7,189.5,256,190.057Z" transform="translate(-255.999 -189.941)"/>
        <path id="Path_9999" data-name="Path 9999" d="M293.917,199.844v-5.119c0-3.322,2.067-4.559,4.733-4.559s4.752,1.236,4.752,4.559v5.119c0,3.323-2.086,4.559-4.752,4.559S293.917,203.167,293.917,199.844Zm6.471-5.119c0-1.333-.656-1.932-1.738-1.932s-1.719.6-1.719,1.932v5.119c0,1.333.637,1.931,1.719,1.931s1.738-.6,1.738-1.931Z" transform="translate(-285.03 -190.113)"/>
        <path id="Path_10000" data-name="Path 10000" d="M356.024,199.287a1.124,1.124,0,0,1-1.951,0l-1.835-3.361v7.437c0,1.236-3.014,1.236-3.014,0V191.676a1.394,1.394,0,0,1,1.507-1.507c1.081,0,1.545.116,2.337,1.507l1.99,3.477,1.99-3.477c.792-1.391,1.255-1.507,2.337-1.507a1.386,1.386,0,0,1,1.507,1.507v11.687c0,1.236-3.014,1.236-3.014,0v-7.244Z" transform="translate(-327.375 -190.116)"/>
        <path id="Path_10001" data-name="Path 10001" d="M417.519,196.059h2.9c1.191,0,1.228,2.318,0,2.318h-2.9v3.284H422.7c1.194,0,1.231,2.627,0,2.627h-6.877c-.657,0-1.314-.309-1.314-.927V191.094c0-.618.657-.927,1.314-.927H422.7c1.232,0,1.194,2.627,0,2.627h-5.177Z" transform="translate(-377.355 -190.114)"/>
      </g>
    </g>
  </g>
</svg>
