<?xml version="1.0"?>
<svg xmlns="http://www.w3.org/2000/svg" viewBox="0 0 512 512.00001" width="512px" height="512px" class=""><g transform="matrix(-1 2.44929e-16 2.44929e-16 1 512 -1.25404e-13)"><path d="m330.984375 421.980469v-30h-30v-180.992188c-11.464844 0-108.640625 0-119.992187 0v30h29.996093v150.992188h-29.996093v30zm-89.996094-180.992188h30v150.992188h-30zm0 0" data-original="#000000" class="active-path" data-old_color="#ffffff" fill="#ffffff"/><path d="m24.351562 512 122.160157-24.933594c34.59375 16.53125 71.394531 24.910156 109.476562 24.910156 140.953125 0 255.988281-115.042968 255.988281-255.988281 0-140.953125-115.046874-255.988281-255.988281-255.988281-140.953125 0-255.988281 115.042969-255.988281 255.988281 0 55.59375 18.125 109.984375 51.1875 154.015625zm5.648438-256.011719c0-124.613281 101.375-225.988281 225.988281-225.988281 124.609375 0 225.988281 101.375 225.988281 225.988281 0 124.609375-101.378906 225.988281-225.988281 225.988281-61.242187 0-101.65625-24.96875-105.378906-26.363281l-84.964844 17.339844 18.355469-69.761719c-1.855469-3.292968-54-57.070312-54-147.203125zm0 0" data-original="#000000" class="active-path" data-old_color="#ffffff" fill="#ffffff"/><path d="m255.988281 180.992188c24.8125 0 44.996094-20.1875 44.996094-45 0-24.808594-20.183594-44.996094-44.996094-44.996094s-45 20.1875-45 44.996094c0 24.8125 20.1875 45 45 45zm0-59.996094c8.269531 0 15 6.726562 15 14.996094 0 8.273437-6.730469 15-15 15s-15-6.726563-15-15c0-8.269532 6.730469-14.996094 15-14.996094zm0 0" data-original="#000000" class="active-path" data-old_color="#ffffff" fill="#ffffff"/></g> </svg>
