<?xml version="1.0"?>
<svg xmlns="http://www.w3.org/2000/svg" viewBox="0 0 512 512" width="512px" height="512px" class=""><g transform="matrix(-1 0 0 1 512 0)"><path d="m256 0c-140.609375 0-256 115.390625-256 256 0 55.855469 18.695312 109.632812 52.253906 154.136719l-26.863281 101.863281 121.464844-24.757812c34.496093 16.4375 71.175781 24.757812 109.144531 24.757812 140.609375 0 256-115.390625 256-256s-115.390625-256-256-256zm0 91c24.8125 0 45 20.1875 45 45s-20.1875 45-45 45-45-20.1875-45-45 20.1875-45 45-45zm60 331h-120v-30h30v-151h-30v-30h90v181h30zm0 0" data-original="#000000" class="active-path" data-old_color="#ffffff" fill="#ffffff"/></g> </svg>
