<svg viewBox="0 0 512.00075 512" xmlns="http://www.w3.org/2000/svg"><path d="m512 15v481.925781c0 8.398438-6.597656 15-14.996094 15h-226.96875l-119.980468-119.984375v-376.941406c0-8.402344 6.597656-15 14.996093-15h331.953125c8.398438 0 14.996094 6.597656 14.996094 15zm0 0" fill="#ececf1"/><path d="m512 15v481.925781c0 8.398438-6.597656 15-14.996094 15h-166.976562v-511.925781h166.976562c8.398438 0 14.996094 6.597656 14.996094 15zm0 0" fill="#e2e2e7"/><path d="m297.632812 295.957031-63.59375 63.589844-220.765624-220.769531c-17.699219-17.398438-17.699219-46.191406 0-63.589844 17.398437-17.699219 46.191406-17.699219 63.589843 0zm0 0" fill="#a8d32a"/><path d="m451.011719 196.972656c0 8.394532-6.601563 14.996094-15 14.996094h-120.980469c-8.402344 0-15-6.601562-15-14.996094 0-8.402344 6.597656-15 15-15h120.980469c8.398437 0 15 6.597656 15 15zm0 0" fill="#d3d3d8"/><path d="m451.011719 256.960938c0 8.398437-6.601563 15-15 15h-120.980469c-8.402344 0-15-6.601563-15-15 0-8.398438 6.597656-14.996094 15-14.996094h120.980469c8.398437 0 15 6.597656 15 14.996094zm0 0" fill="#d3d3d8"/><path d="m436.011719 331.949219h-90.984375c-8.292969 0-15-6.707031-15-14.996094s6.707031-14.996094 15-14.996094h90.984375c8.289062 0 15 6.707031 15 14.996094s-6.710938 14.996094-15 14.996094zm0 0" fill="#babac0"/><path d="m451.011719 376.945312c0 8.398438-6.601563 14.996094-15 14.996094h-120.980469c-8.402344 0-15-6.597656-15-14.996094 0-8.402343 6.597656-15 15-15h120.980469c8.398437 0 15 6.597657 15 15zm0 0" fill="#d3d3d8"/><path d="m451.011719 436.933594c0 8.398437-6.601563 15-15 15h-120.980469c-8.402344 0-15-6.601563-15-15 0-8.398438 6.597656-14.996094 15-14.996094h120.980469c8.398437 0 15 6.597656 15 14.996094zm0 0" fill="#d3d3d8"/><path d="m390.019531 106.984375c0 8.398437-6.597656 14.996094-15 14.996094h-89.984375c-8.402344 0-15-6.597657-15-14.996094s6.597656-14.996094 15-14.996094h89.984375c8.398438 0 15 6.597657 15 14.996094zm0 0" fill="#cb75f6"/><path d="m255.039062 391.941406h-104.984374v15c0 2.519532 1.742187 7.960938 4.414062 10.621094l89.949219 89.949219c2.804687 2.8125 6.703125 4.414062 10.621093 4.414062h14.996094v-104.984375c0-8.285156-6.714844-15-14.996094-15zm0 0" fill="#e2e2e7"/><path d="m265.835938 327.75-31.796876 31.796875-220.765624-220.769531c-17.699219-17.398438-17.699219-46.191406 0-63.589844zm0 0" fill="#93bf00"/><path d="m375.019531 121.980469h-44.992187v-29.992188h44.992187c8.402344 0 15 6.597657 15 14.996094s-6.601562 14.996094-15 14.996094zm0 0" fill="#b760ea"/><g fill="#babac0"><path d="m451.011719 436.933594c0 8.398437-6.601563 15-15 15h-105.984375v-29.996094h105.984375c8.398437 0 15 6.597656 15 14.996094zm0 0"/><path d="m451.011719 376.945312c0 8.398438-6.601563 14.996094-15 14.996094h-105.984375v-29.996094h105.984375c8.398437 0 15 6.597657 15 15zm0 0"/><path d="m451.011719 256.960938c0 8.398437-6.601563 15-15 15h-105.984375v-29.996094h105.984375c8.398437 0 15 6.597656 15 14.996094zm0 0"/><path d="m436.011719 211.96875h-105.984375v-29.996094h105.984375c8.398437 0 15 6.597656 15 15 0 8.394532-6.601563 14.996094-15 14.996094zm0 0"/></g><path d="m328.828125 371.546875-27.597656-70.492187c-.898438-1.800782-2.097657-3.597657-3.597657-5.097657-17.398437-17.398437-45.894531-17.398437-63.59375 0-17.394531 17.699219-17.394531 46.191407 0 63.589844 1.5 1.5 3.300782 2.699219 5.101563 3.597656l70.488281 27.597657c5.398438 2.398437 11.699219.898437 15.898438-3.300782 4.199218-4.199218 5.699218-10.496094 3.300781-15.894531zm0 0" fill="#ffcebf"/><path d="m325.527344 387.441406c-4.199219 4.199219-10.496094 5.699219-15.898438 3.300782l-70.488281-27.597657c-1.800781-.898437-3.601563-2.097656-5.097656-3.597656-17.398438-17.398437-17.398438-45.890625 0-63.589844zm0 0" fill="#ffa78f"/></svg>