<svg xmlns="http://www.w3.org/2000/svg" xmlns:xlink="http://www.w3.org/1999/xlink" viewBox="0 0 58.33 32.6"><defs><style>.cls-1{fill:#fff;stroke:#919191;stroke-width:0.16px;}.cls-2{fill:url(#未命名漸層_17);}.cls-3{fill:url(#未命名漸層_17-2);}.cls-4{fill:url(#未命名漸層_17-3);}.cls-5{fill:url(#未命名漸層_17-4);}</style><linearGradient id="未命名漸層_17" x1="1.22" y1="16.3" x2="12.11" y2="16.3" gradientUnits="userSpaceOnUse"><stop offset="0" stop-color="#e50012"/><stop offset="0.33" stop-color="#de0a16"/><stop offset="0.91" stop-color="#cb261f"/><stop offset="1" stop-color="#c82b21"/></linearGradient><linearGradient id="未命名漸層_17-2" x1="16.22" y1="16.3" x2="27.11" y2="16.3" xlink:href="#未命名漸層_17"/><linearGradient id="未命名漸層_17-3" x1="31.22" y1="16.3" x2="42.11" y2="16.3" xlink:href="#未命名漸層_17"/><linearGradient id="未命名漸層_17-4" x1="46.22" y1="16.3" x2="57.11" y2="16.3" xlink:href="#未命名漸層_17"/></defs><title>資產 1</title><g id="圖層_2" data-name="圖層 2"><g id="圖層_1-2" data-name="圖層 1"><path id="Path_31394" data-name="Path 31394" class="cls-1" d="M1.19,5.57V9.68s3.05-.41,3,3.16V31.35h7.9v-30H7.36A15.32,15.32,0,0,1,1.19,5.57Z"/><path id="Path_31395" data-name="Path 31395" class="cls-1" d="M3,32.52V12.7H3c0-1.1-.34-1.37-.55-1.58h0a1.69,1.69,0,0,0-.9-.27H1.4l-1.32.2V4.75l.83-.28A13.38,13.38,0,0,0,6.39.63h0A.23.23,0,0,0,6.46.49h0L6.8.08h6.45V32.52ZM3.75,9.2a3.93,3.93,0,0,1,1.53,3.5h0v.14h0V30.19h5.54V2.48h-3A15.31,15.31,0,0,1,2.37,6.39h0v2.2a3.5,3.5,0,0,1,1.38.61Z"/><path class="cls-2" d="M1.78,5.16s-.55.13-.55.34V9.55s-.07.06.21.06a2.58,2.58,0,0,1,2.63,1.58l.14,1.92V31.29h7.9v-30H7.4A13.44,13.44,0,0,1,1.78,5.16Z"/><path id="Path_31394-2" data-name="Path 31394" class="cls-1" d="M16.19,5.57V9.68s3-.41,3,3.16V31.35h7.9v-30H22.36A15.32,15.32,0,0,1,16.19,5.57Z"/><path id="Path_31395-2" data-name="Path 31395" class="cls-1" d="M18,32.52V12.7h0c0-1.1-.34-1.37-.55-1.58h0a1.69,1.69,0,0,0-.9-.27H16.4l-1.32.2V4.75l.83-.28A13.38,13.38,0,0,0,21.39.63h0a.23.23,0,0,0,.07-.14h0L21.8.08h6.45V32.52ZM18.75,9.2a3.93,3.93,0,0,1,1.53,3.5h0v.14h0V30.19h5.54V2.48h-3a15.31,15.31,0,0,1-5.47,3.91h0v2.2a3.5,3.5,0,0,1,1.38.61Z"/><path class="cls-3" d="M16.78,5.16s-.55.13-.55.34V9.55s-.07.06.21.06a2.58,2.58,0,0,1,2.63,1.58l.14,1.92V31.29h7.9v-30H22.4A13.44,13.44,0,0,1,16.78,5.16Z"/><path id="Path_31394-3" data-name="Path 31394" class="cls-1" d="M31.19,5.57V9.68s3.05-.41,3,3.16V31.35h7.9v-30H37.36A15.32,15.32,0,0,1,31.19,5.57Z"/><path id="Path_31395-3" data-name="Path 31395" class="cls-1" d="M33,32.52V12.7h0c0-1.1-.34-1.37-.55-1.58h0a1.69,1.69,0,0,0-.9-.27H31.4l-1.32.2V4.75l.83-.28A13.38,13.38,0,0,0,36.39.63h0a.23.23,0,0,0,.07-.14h0L36.8.08h6.45V32.52ZM33.75,9.2a3.93,3.93,0,0,1,1.53,3.5h0v.14h0V30.19h5.54V2.48h-3a15.31,15.31,0,0,1-5.47,3.91h0v2.2a3.5,3.5,0,0,1,1.38.61Z"/><path class="cls-4" d="M31.78,5.16s-.55.13-.55.34V9.55s-.07.06.21.06a2.58,2.58,0,0,1,2.63,1.58l.14,1.92V31.29h7.9v-30H37.4A13.44,13.44,0,0,1,31.78,5.16Z"/><path id="Path_31394-4" data-name="Path 31394" class="cls-1" d="M46.19,5.57V9.68s3.05-.41,3,3.16V31.35h7.9v-30H52.36A15.32,15.32,0,0,1,46.19,5.57Z"/><path id="Path_31395-4" data-name="Path 31395" class="cls-1" d="M48,32.52V12.7h0c0-1.1-.34-1.37-.55-1.58h0a1.69,1.69,0,0,0-.9-.27H46.4l-1.32.2V4.75l.83-.28A13.38,13.38,0,0,0,51.39.63h0a.23.23,0,0,0,.07-.14h0L51.8.08h6.45V32.52ZM48.75,9.2a3.93,3.93,0,0,1,1.53,3.5h0v.14h0V30.19h5.54V2.48h-3a15.31,15.31,0,0,1-5.47,3.91h0v2.2a3.5,3.5,0,0,1,1.38.61Z"/><path class="cls-5" d="M46.78,5.16s-.55.13-.55.34V9.55s-.07.06.21.06a2.58,2.58,0,0,1,2.63,1.58l.14,1.92V31.29h7.9v-30H52.4A13.44,13.44,0,0,1,46.78,5.16Z"/></g></g></svg>